<?xml version="1.0" encoding="UTF-8" standalone="no"?>

<svg xmlns:svg="http://www.w3.org/2000/svg" xmlns="http://www.w3.org/2000/svg" version="1.1" width="128" height="64" xmlns:xlink="http://www.w3.org/1999/xlink">
	<g stroke="null" id="layer1">
		<g stroke="null" transform="matrix(0.15996052812230707,0,0,0.15996052812230707,197.8157744788803,73.9396131578053) " id="g3836">
			<path fill="#db3275" fill-rule="nonzero" d="m-826.60175,-459.1106c-8.11462,0 -14.65625,6.51044 -14.65625,14.625l0,74.1181c0,9.70721 -5.65173,16.66315 -15.70081,16.66315l-61.54919,0c-8.95398,0 -16.15625,7.20227 -16.15625,16.15625l0,73.23215c0,9.3996 -7.81323,15.26785 -15.34821,15.26785l-61.55804,0c-8.67419,0 -15.65631,6.98206 -15.65631,15.65625l0,76.59375c0,8.67419 6.98212,15.65625 15.65631,15.65625l154.7182,0c10.5097,0 15.5943,9.90543 15.5943,15.67404l0,47.66971c0,8.11456 6.54163,14.65625 14.65625,14.65625l71.74994,0c8.11462,0 14.65631,-6.54169 14.65631,-14.65625l0,-47.16464c0,-11.43967 8.3642,-16.17911 14.64716,-16.17911l64.00909,0c8.67419,0 15.65625,-6.98206 15.65625,-15.65625l0,-76.59375c0,-8.67419 -6.98206,-15.65625 -15.65625,-15.65625l-63.72046,0c-5.92358,0 -14.93579,-5.18729 -14.93579,-14.76266l0,-180.67484c0,-8.11456 -6.54181,-14.625 -14.65631,-14.625l-71.74994,0z" id="path3819"/>
			<path fill="#ffffff" stroke-width="16.7" d="m-998.883,-226.4231c-4.46472,0 -7.59375,1.13156 -7.59375,7.84375l0,49.875c0,5.59906 4.87305,6.22568 8.34369,6.28125c3.88922,-0.26743 8.34381,-0.59113 8.34381,-6.28125l0,-41.03125l12.84363,0l0,41.03125c0,5.69922 3.57391,6.28125 8.34387,6.28125c5.22675,0 8.375,-0.19025 8.375,-6.28125l0,-41.03125l12.46869,0l0,40.25c0.05609,5.90491 3.70624,7.10919 8.34381,7.0625c5.39301,0 8.49084,-1.22641 8.34363,-7.0625l0,-50.875c0,-4.52698 -1.54828,-6.0625 -6.75,-6.0625l-61.06238,0z" id="path3823"/>
			<path fill="#ffffff" stroke-width="16.7" id="path3827" d="m-857.11603,-162.66122c4.4646,0 7.58606,-1.1265 7.58606,-7.83868l0,-51.01648c0,-5.59906 -4.87317,-6.24008 -8.34375,-6.29565c-3.88916,0.26743 -8.34375,0.60553 -8.34375,6.29565l0,42.16766l-36.2229,0l0,-41.38641c-0.05591,-5.90491 -3.70618,-7.09995 -8.34369,-7.05325c-5.39313,0 -8.49078,1.21716 -8.34381,7.05325l0,52.00302c0,4.52695 1.56372,6.07089 6.76544,6.07089l55.2464,0z"/>
			<path fill="#ffffff" stroke-width="16.7" d="m-751.5705,-227.6731c-4.1012,0.11868 -6.5,0.92038 -6.5,6.25l0,7.625l0,38.46875l0,7.625c0,5.69922 3.60522,6.28125 8.375,6.28125c5.22668,0 8.34375,-0.19025 8.34375,-6.28125l0,-7.625l0,-38.46875l0,-7.625c0,-5.69922 -3.57397,-6.25 -8.34375,-6.25c-0.65344,0 -1.28918,-0.017 -1.875,0z" id="path3829"/>
			<path fill="#ffffff" stroke-width="16.7" d="m-729.64972,-169.41031c0,5.03287 0.81079,7.58612 7.83862,7.58612l51.90039,0c5.59912,0 5.98755,-4.99942 6.04303,-8.47c-0.26746,-3.88916 -0.35297,-8.9751 -6.04303,-8.9751l-42.42017,0l0,-31.17212l41.63885,0c5.90491,-0.0556 6.65814,-3.39056 6.61139,-8.02808c0,-5.39307 -0.77533,-9.05896 -6.61139,-8.91196l-52.38165,0c-4.2113,0 -6.57605,1.9425 -6.57605,6.76538l0,51.20575z" id="path3831"/>
			<path fill="#ffffff" stroke-width="16" d="m-828.67059,-227.4856c-6.58771,0.00067 -8,1.65347 -8,8l0,25.27744c0,6.33652 1.98041,7.99939 8,8l41.56567,0l0,7.71814l-43.72314,0c-5.37915,0 -6.15674,2.69818 -6.15674,8.25253c0,5.58633 1.18079,8.18939 6.15674,8.18939l54.50116,0c3.80981,-0.00037 5.97949,-2.16147 5.97949,-5.97968l0,-26.81174c-0.00049,-5.38828 -0.90704,-8 -8,-8l-40.68164,0l0,-8.64609l43.64618,0c5.33807,0 5.24133,-4.45956 5.24133,-8c0,-2.59177 -0.06006,-8 -5.24133,-8l-53.28772,0z" id="path3833"/>
		</g>
	</g>
</svg>