<svg xmlns="http://www.w3.org/2000/svg" width="128" height="64"><path fill="#db3275" d="M65.592.5a2.335 2.335 0 0 0-2.344 2.34v11.855c0 1.553-.904 2.666-2.512 2.666H50.89a2.584 2.584 0 0 0-2.584 2.59v11.71c0 1.506-1.25 2.445-2.455 2.445h-9.84a2.5 2.5 0 0 0-2.502 2.504v12.25a2.5 2.5 0 0 0 2.505 2.503h24.75c1.68 0 2.494 1.585 2.494 2.508V61.5a2.34 2.34 0 0 0 2.344 2.344h11.47a2.344 2.344 0 0 0 2.345-2.35v-7.54c0-1.83 1.338-2.587 2.343-2.587h10.24A2.498 2.498 0 0 0 94.5 48.86V36.606a2.5 2.5 0 0 0-2.503-2.504H81.803c-.948 0-2.39-.83-2.39-2.36V2.84c0-1.3-1.046-2.34-2.344-2.34H65.59z"/><path fill="#fff" d="M38.034 37.72c-.714 0-1.215.182-1.215 1.256v7.978c0 .895.78.995 1.33 1.004.62-.042 1.332-.094 1.332-1.004V40.39h2.053v6.564c0 .91.572 1.004 1.335 1.004.837 0 1.34-.03 1.34-1.004V40.39h1.995v6.44c.01.943.592 1.136 1.334 1.128.86 0 1.36-.196 1.333-1.13V38.69c0-.723-.248-.97-1.08-.97H38.03zm22.676 10.2c.715 0 1.215-.18 1.215-1.254v-8.16c0-.896-.78-.998-1.335-1.007-.622.04-1.335.09-1.335 1v6.744H53.46v-6.62c-.008-.945-.592-1.136-1.334-1.13-.862 0-1.358.196-1.334 1.13v8.318c0 .722.25.97 1.082.97h8.837zm16.884-10.4c-.656.02-1.04.148-1.04 1v8.594c0 .91.577 1.004 1.34 1.004.836 0 1.335-.03 1.335-1.004V38.52c0-.91-.58-1-1.34-1-.107 0-.21-.002-.3 0zm3.506 9.32c0 .806.13 1.214 1.254 1.214h8.303c.895 0 .957-.8.966-1.355-.043-.63-.056-1.44-.966-1.44H83.87v-4.99h6.662c.944-.01 1.065-.543 1.057-1.285 0-.863-.13-1.45-1.06-1.425h-8.38c-.678 0-1.05.31-1.05 1.083v8.19zM65.26 37.55c-1.053 0-1.278.265-1.278 1.28v4.044c0 1.014.316 1.28 1.28 1.28h6.648v1.234h-6.994c-.86 0-.985.432-.985 1.32 0 .894.19 1.31.99 1.31h8.72c.61 0 .958-.345.958-.956v-4.29c0-.86-.144-1.28-1.28-1.28H66.81V40.11h6.98c.854 0 .84-.713.84-1.28 0-.414-.01-1.28-.84-1.28h-8.53z"/></svg>