<svg xmlns="http://www.w3.org/2000/svg" width="128" height="64"><path d="M58.336 63.248h-1.913l.574-20.55-5.024.6v2.607L37.5 43.585l19.57-2.99.118-6.125-14.042 2.75-4.21-.86 5.023-1.1 7.58-12.704.36-8.396 1.38.885-.82 18.396 4.81-1 .692-29.23 1.62 1.05-.13 4.45L64.432.5l15.12 10.598-.81 1.29 1.22.958.766 19.976-1.89 2.153-2.87-4.713-9.74 1.89v6.626l9.9-1.602 2.224-1.268 8.827 2.63-1.08 1.532-7.58 1.866-12.75 20.908-1.747-.096.525-60.38-5.14 8.732-1.078 51.648z"/><path fill="#3d91b5" d="M72.142 63.5l8.272-.067L91.5 42.768v-5.693l-15.533-6.313.168 6.913 9.186 3.084L72.15 63.5z"/></svg>