<svg xmlns="http://www.w3.org/2000/svg" width="128" height="64"><path d="M58.336 63.248h-1.913l.574-20.55-5.024.6v2.607L37.5 43.585l19.57-2.99.118-6.125-14.042 2.75-4.21-.86 5.023-1.1 7.58-12.704.36-8.396 1.383.885-.815 18.396 4.81-1 .693-29.23 1.62 1.05-.13 4.445L64.438.5l15.12 10.598-.815 1.29 1.22.958.766 19.976-1.89 2.153-2.87-4.713-9.74 1.89v6.626l9.902-1.602 2.224-1.268 8.827 2.63L86.1 40.57l-7.573 1.866-12.75 20.908-1.747-.096.526-60.38-5.143 8.732-1.077 51.648z"/><path fill="#3d91b5" d="M72.142 63.5l8.272-.067L91.5 42.768v-5.693l-15.533-6.313.168 6.913 9.186 3.084L72.15 63.5z"/></svg>