<?xml version="1.0" encoding="UTF-8" standalone="no"?>

<svg xmlns:svg="http://www.w3.org/2000/svg" xmlns="http://www.w3.org/2000/svg" version="1.1" width="128" height="64" xmlns:xlink="http://www.w3.org/1999/xlink">
	<g>
		<g transform="matrix(0.26793066941606475,0,0,0.26793066941606475,2.874335964928413,1.9687514549298435)">
			<path fill="#000000" id="m175.22664,203.70247l6.12054,0.08929l-0.75891,24.03l-6.56702,0l1.20538,-24.11929z"/>
			<path fill="#000000" d="m207.00154,228.71461l-7.14282,0l2.14282,-76.69641l-18.75,2.23215l0,9.73212l-54.01782,-8.66071l73.03571,-11.16071l0.44641,-22.85715l-52.41071,10.26785l-15.71429,-3.21429l18.75,-4.10712l28.30359,-47.41074l1.33929,-31.33929l5.17853,3.30359l-3.03571,68.66071l17.94641,-3.75l2.58929,-109.10713l6.0224,3.94196l-0.48669,16.59377l18.57147,-30.62502l56.42845,39.55357l-3.03564,4.82144l4.55359,3.57141l2.85706,74.55359l-7.05344,8.03571l-10.71463,-17.58929l-36.33897,7.05359l0,24.73215l36.964,-5.98172l8.30392,-4.73257l32.94644,9.82141l-4.05362,5.71429l-28.26782,6.96429l-47.58934,78.03571l-6.51782,-0.35715l1.96423,-225.35713l-19.19641,32.58928l-4.01788,192.76785z"/>
			<path fill="#3d91b5" d="m258.52832,229.65211l30.875,-0.25l41.375,-77.125l0,-21.25l-57.97351,-23.5625l0.62503,25.80399l34.28598,11.50851l-49.1875,84.875z"/>
		</g>
	</g>
</svg>