<?xml version="1.0" encoding="UTF-8" standalone="no"?>

<svg xmlns:svg="http://www.w3.org/2000/svg" xmlns="http://www.w3.org/2000/svg" version="1.1" width="128" height="64" xmlns:xlink="http://www.w3.org/1999/xlink">
	<g>
		<path fill="#c81e3b" fill-rule="nonzero" d="m94.99998,32.0018a30.99998,30.99998 0 1 1 -61.99995,0a30.99998,30.99998 0 1 1 61.99995,0z"/>
		<path fill="#ffffff" d="m80.1519,21.68524l0,-10.53207l-28.99571,0l-4.29084,24.70487l11.31224,0c0,0 1.12054,-2.73055 5.98114,-2.73055c3.45671,0 5.98118,2.05183 5.98118,5.72112c0,3.69422 -2.82253,5.85116 -6.37125,5.85116c-5.98875,0 -6.37126,-4.29084 -6.37126,-4.29084l-11.96236,0c0,7.82056 5.12561,14.04276 18.07354,14.04276c12.43901,0 18.85376,-6.46433 18.85376,-15.08297c0,-8.11326 -4.33505,-14.56287 -14.04277,-14.56287c-6.29653,0 -8.97175,2.60051 -8.97175,2.60051l1.17023,-5.72112l19.63384,0z" />
	</g>
</svg>