<svg xmlns="http://www.w3.org/2000/svg" width="128" height="64"><g transform="matrix(.252 0 0 .252 -30.524 -64.496)"><circle fill="#dc22dd" transform="translate(-746.21 -589.63) scale(3.274)" cx="317.429" cy="296.882" r="37.571"/><circle fill="#dc22dd" transform="translate(-583.21 -589.63) scale(3.274)" cx="317.429" cy="296.882" r="37.571"/><path d="M349.73 339.254V297.53H234.864l-17 97.87h44.815s4.44-10.817 23.69-10.817c13.69 0 23.69 8.13 23.69 22.665 0 14.635-11.188 23.18-25.24 23.18-23.73 0-25.24-17-25.24-17H212.2c0 30.983 20.304 55.632 71.6 55.632 49.276 0 74.69-25.61 74.69-59.752 0-32.14-17.175-57.69-55.633-57.69-24.944 0-35.542 10.3-35.542 10.3l4.636-22.664h77.78zm105.77 77.31l-64.064 47.048 26.026-73.073-60.06-45.05 76.076-1 26.542-73.45 22.507 72.44h76.076l-64.063 46.05 24.02 74.07-63.067-47.044z" fill="#fff"/></g></svg>