<?xml version="1.0" encoding="UTF-8" standalone="no"?>

<svg xmlns:svg="http://www.w3.org/2000/svg" xmlns="http://www.w3.org/2000/svg" version="1.1" width="128" height="64" xmlns:xlink="http://www.w3.org/1999/xlink">
	<g transform="translate(-169.99999,-384.31151)">
		<g transform="matrix(0.25240025,0,0,0.25240025,139.4761,319.81599)">
			<circle fill="#dc22dd" fill-opacity="1" fill-rule="nonzero" transform="matrix(3.2738302,0,0,3.2738302,-746.20971,-589.6304)" cx="317.42932" cy="296.8822" r="37.570671" />
			<circle fill="#dc22dd" fill-opacity="1" fill-rule="nonzero" transform="matrix(3.2738302,0,0,3.2738302,-583.2097,-589.6304)" cx="317.42932" cy="296.8822" r="37.570671" />
			<g transform="translate(-1852.1811,-368.83104)">
				<g transform="matrix(0.32459,0,0,0.32459,1024.25,538.222)">
					<path fill="#ffffff" d="m 3623.574,522.65676 0,-128.37933 -353.4394,0 -52.3027,301.13669 137.8889,0 c 0,0 13.6586,-33.28354 72.9069,-33.28354 42.1348,0 72.9067,25.01041 72.9067,69.73692 0,45.0302 -34.4052,71.32185 -77.6616,71.32185 -72.9988,0 -77.6615,-52.30269 -77.6615,-52.30269 l -145.8136,0 c 0,95.32781 62.4776,171.17244 220.3053,171.17244 151.6234,0 229.8148,-78.79621 229.8148,-183.85187 0,-98.89545 -52.8414,-177.51216 -171.1725,-177.51216 -76.7508,0 -109.3601,31.69861 -109.3601,31.69861 l 14.2643,-69.73692 239.3245,0 z" />
					<path fill="#ffffff" transform="matrix(3.0808096,0,0,3.0808096,2550.6981,-521.8613)" d="m 454,416.36218 -64,47 26,-73 -60,-45 76,-1 26.51571,-73.37101 22.48429,72.37101 76,0 -64,46 24,74 -63,-47 z" />
				</g>
			</g>
		</g>
	</g>
</svg>
