<svg xmlns="http://www.w3.org/2000/svg" width="128" height="64"><rect stroke="red" fill="red" stroke-width="2.8" stroke-linecap="round" width=".643" x="-30.845" y="-81.699"/><path fill="#02a16b" d="M49.808 32c0 13.557-10.99 24.547-24.547 24.547C11.71 56.547.72 45.557.72 32S11.708 7.453 25.26 7.453c13.56 0 24.55 10.99 24.55 24.547z"/><path fill="#fff" d="M37.953 23.493v-8.335h-22.95L11.61 34.71h8.954s.886-2.16 4.733-2.16c2.736 0 4.734 1.623 4.734 4.528 0 2.923-2.23 4.63-5.04 4.63-4.74 0-5.04-3.396-5.04-3.396h-9.47c0 6.19 4.058 11.115 14.306 11.115 9.846 0 14.923-5.116 14.923-11.938 0-6.43-3.43-11.53-11.115-11.53-4.984 0-7.1 2.06-7.1 2.06l.925-4.53h15.54z"/><path stroke="#000" fill="none" stroke-width="2.432" d="M52.32 29.36V16.373h8.29v21.13c0 4.058 6.91 4.058 6.91 0v-21.13h8.29V36.15c0 16.164-23.49 16.4-23.49-.055V29.36z"/><g stroke="#000" fill="none"><path stroke-width="2.238" d="M106.615 49.137l-7.613.081 9.878-31.277h7.943l9.959 31.277h-8.18l-1.246-4.583-9.321-.081-1.42 4.583z"/><path stroke-width="2.204" d="M112.703 27.642l-2.925 10.503h5.904l-2.98-10.503z"/></g><path stroke="#000" fill="none" stroke-width="2.432" d="M77.96 37.177c0 16.044 21.066 13.038 21.066 1.21 0-10.2-12.656-8.61-12.656-14.058 0-2.76 5.44-3.29 5.25 1.06h7.16c.423-13.87-20.218-11.92-20.218-.82 0 11.25 12.65 8.62 12.65 14.1 0 3.61-6.064 3.942-5.872-1.5h-7.38z"/></svg>