<?xml version="1.0" encoding="UTF-8" standalone="no"?>

<svg xmlns:svg="http://www.w3.org/2000/svg" xmlns="http://www.w3.org/2000/svg" version="1.1" width="128" height="64" xmlns:xlink="http://www.w3.org/1999/xlink">
	<g>
		<rect stroke="#ff0000" fill="#ff0000" fill-rule="nonzero" stroke-width="2.80001" stroke-linecap="round" stroke-miterlimit="4" stroke-dashoffset="0" width="0.64306" x="-30.84482" y="-81.69899"/>
		<g stroke="null" transform="matrix(0.3037508291544271,0,0,0.3037508291544271,70.61175277611876,170.86242630166464) " id="g3069">
			<path fill="#02a16b" d="m-68.48991,-457.159c0,44.63138 -36.18089,80.81229 -80.81227,80.81229c-44.63136,0 -80.81226,-36.18091 -80.81226,-80.81229c0,-44.63138 36.18089,-80.81226 80.81226,-80.81226c44.63138,0 80.81227,36.18088 80.81227,80.81226z"/>
			<path fill="#ffffff" d="m-107.51666,-485.16452l0,-27.44284l-75.55254,0l-11.18042,64.37213l29.47566,0c0,0 2.91971,-7.11484 15.58484,-7.11484c9.0069,0 15.58484,5.34634 15.58484,14.90726c0,9.62579 -7.35458,15.24603 -16.60126,15.24603c-15.60452,0 -16.60123,-11.18045 -16.60123,-11.18045l-31.16966,0c0,20.37766 13.35545,36.59045 47.09331,36.59045c32.41156,0 49.12607,-16.84375 49.12607,-39.30084c0,-21.14029 -11.29556,-37.94568 -36.59048,-37.94568c-16.40652,0 -23.37723,6.776 -23.37723,6.776l3.04919,-14.90723l51.15891,0z"/>
			<path stroke="#000000" fill="none" stroke-width="8" stroke-miterlimit="4" d="m-60.2211,-465.84674l0,-42.76138l25.01917,0l2.27444,0l0,69.56323c0,13.35901 22.74472,13.35901 22.74472,0l0,-69.56323l27.29361,0l0,65.10455c0,53.21835 -77.33194,53.9892 -77.33194,-0.17859l0,-22.16458z" id="path3414"/>
			<g transform="matrix(0.29727247,0,0,0.29827921,113.49031,301.96957) ">
				<path stroke="#000000" fill="none" stroke-width="24.86588" stroke-miterlimit="4" d="m16.68679,-2372.47266l-84.58505,0.89819l109.75619,-347.52661l88.25056,0l110.65707,347.52661l-90.89241,0l-13.84109,-50.92676l-103.56982,-0.89795l-15.77545,50.92651z"/>
				<path stroke="#000000" fill="none" stroke-width="24.49382" stroke-miterlimit="4" d="m84.33127,-2611.31274l-32.5006,116.70532l65.60172,0l-33.10124,-116.70532l0.00012,0z"/>
			</g>
			<path stroke="#000000" fill="none" stroke-width="8" stroke-miterlimit="4" d="m24.19226,-440.11575c0,52.82095 69.35095,42.92279 69.35095,3.9837c0,-33.57599 -41.66333,-28.34174 -41.66333,-46.28159c0,-9.05991 17.90427,-10.81143 17.27927,3.50314l23.58047,0c1.38898,-45.65262 -66.56604,-39.24112 -66.56604,-2.69958c0,37.04361 41.64627,28.39468 41.64627,46.42606c0,11.88287 -19.9642,12.98581 -19.33282,-4.93173c-8.90186,0 -15.39294,0 -24.29477,0z" />
		</g>
	</g>
</svg>