<?xml version="1.0" encoding="UTF-8" standalone="no"?>

<svg xmlns:svg="http://www.w3.org/2000/svg" xmlns="http://www.w3.org/2000/svg" version="1.1" width="128" height="64" xmlns:xlink="http://www.w3.org/1999/xlink">
	<defs>
		<linearGradient id="linearGradient1">
			<stop stop-color="#ffffff" stop-opacity="1" offset="0" />
			<stop stop-color="#ffffff" stop-opacity="0" offset="1" />
		</linearGradient>
		<linearGradient id="linearGradient2">
			<stop stop-color="#DDB530" stop-opacity="1" offset="0" />
			<stop stop-color="#000000" stop-opacity="0" offset="1" />
		</linearGradient>
		<radialGradient xlink:href="#linearGradient2" id="radialGradient1" cx="732.85596" cy="129.42476" fx="732.85596" fy="129.42476" r="119.13212" gradientTransform="matrix(2.0609416,0.04264299,-0.03790346,1.7060678,-788.05137,-122.96566)" gradientUnits="userSpaceOnUse" />
		<radialGradient xlink:href="#linearGradient1" id="radialGradient2" cx="675.65594" cy="3.6779966" fx="675.65594" fy="3.6779966" r="134.22951" gradientTransform="matrix(1.4600427,-0.11357966,0.08754319,1.1253494,-358.79976,67.747966)" gradientUnits="userSpaceOnUse" />
	</defs>
	<g transform="matrix(0.14759549,0,0,0.14759549,33.507635,0.57712413)">
		<ellipse fill="#000000" fill-rule="evenodd" stroke="#000000" stroke-width="1" stroke-linecap="butt" stroke-linejoin="miter" stroke-opacity="1" transform="matrix(1.8509381,0,0,1.6266118,-1359.6732,-126.53013)" cx="846.27728" cy="208.47954" rx="111.17168" ry="128.46506" />
		<ellipse fill="url(#radialGradient1)" fill-opacity="1" fill-rule="evenodd" stroke="none" transform="matrix(-1.7208015,-0.2102034,0.217161,-1.7885021,1558.5029,751.18757)" cx="811.41602" cy="204.08757" rx="119.13212" ry="114.74015" />
		<ellipse fill="url(#radialGradient2)" fill-opacity="1" stroke="none" transform="matrix(1.5109934,0,0,1.6972241,-935.12219,-27.727908)" cx="752.94794" cy="141.77652" rx="134.22951" ry="123.79858" />
		<path fill="#ffffff" fill-opacity="1" fill-rule="evenodd" d="m 207.82615,178.15075 c -17.53846,0 -31.76374,14.87816 -31.76374,33.22963 0,18.35147 14.22531,33.22964 31.76374,33.22964 17.53842,0 31.76372,-14.88048 31.76372,-33.22964 0,-18.34916 -14.22538,-33.22963 -31.76372,-33.22963 z m -135.153997,0 c -17.53842,0 -31.7524,14.87816 -31.7524,33.22963 0,18.35147 14.21398,33.22964 31.7524,33.22964 17.53845,0 31.763727,-14.88048 31.763727,-33.22964 0,-18.34916 -14.225277,-33.22963 -31.763727,-33.22963 z M 343.17207,146.12219 c 30.16297,0 55.43027,23.04475 61.34738,52.76469 l -31.4587,-0.11774 c -4.82516,-11.92361 -16.15543,-19.97076 -29.31257,-19.97076 -17.5362,0 -31.76372,14.86639 -31.76372,33.21786 0,18.35379 14.2253,33.22964 31.76372,33.22964 13.15714,0 24.62514,-7.96956 29.44813,-19.9001 l 31.45873,-0.14131 c -5.83728,29.83329 -31.24457,51.85803 -61.48297,51.85803 -34.55524,0 -62.56728,-29.31309 -62.56728,-65.47016 0,-36.15707 28.01204,-65.47015 62.56728,-65.47015 z M 72.288103,145.8278 c 34.557497,0 64.623117,29.07528 64.623117,65.23465 l 0.034,66.27086 -31.43616,0.23551 0,-17.91012 c -8.702657,10.31377 -18.616627,17.19035 -33.220887,17.10941 -34.55528,-0.19896 -62.5786103,-29.31308 -62.5786103,-65.47015 0,-36.15708 28.0233303,-65.47016 62.5786103,-65.47016 z m 71.694317,-42.62624 31.37962,0 0.0452,61.56078 c 8.70486,-10.31374 18.61664,-17.19264 33.22089,-17.10938 34.55306,0.20123 62.56728,29.32486 62.56728,65.48193 0,36.15706 -28.01647,65.45835 -62.56728,65.45835 -34.55524,0 -64.61184,-29.07293 -64.61184,-65.23462 l -0.034,-110.15706 z" />
	</g>
</svg>