<svg xmlns="http://www.w3.org/2000/svg" width="128" height="64" xmlns:xlink="http://www.w3.org/1999/xlink"><defs><linearGradient id="b"><stop stop-color="#fff" offset="0"/><stop stop-color="#fff" stop-opacity="0" offset="1"/></linearGradient><linearGradient id="a"><stop stop-color="#DDB530" offset="0"/><stop stop-opacity="0" offset="1"/></linearGradient><radialGradient xlink:href="#a" id="c" cx="732.856" cy="129.425" fx="732.856" fy="129.425" r="119.132" gradientTransform="matrix(2.06 .043 -.038 1.706 -788.05 -122.966)" gradientUnits="userSpaceOnUse"/><radialGradient xlink:href="#b" id="d" cx="675.656" cy="3.678" fx="675.656" fy="3.678" r="134.23" gradientTransform="matrix(1.46 -.114 .088 1.125 -358.8 67.748)" gradientUnits="userSpaceOnUse"/></defs><g transform="matrix(.148 0 0 .148 33.508 .577)"><ellipse fill-rule="evenodd" stroke="#000" transform="matrix(1.85 0 0 1.627 -1359.673 -126.53)" cx="846.277" cy="208.48" rx="111.172" ry="128.465"/><ellipse fill="url(#c)" fill-rule="evenodd" transform="matrix(-1.72 -.21 .217 -1.79 1558.503 751.188)" cx="811.416" cy="204.088" rx="119.132" ry="114.74"/><ellipse fill="url(#d)" transform="matrix(1.51 0 0 1.697 -935.122 -27.728)" cx="752.948" cy="141.777" rx="134.23" ry="123.799"/><path fill="#fff" fill-rule="evenodd" d="M207.826 178.15c-17.538 0-31.764 14.88-31.764 33.23 0 18.352 14.226 33.23 31.764 33.23 17.54 0 31.764-14.88 31.764-33.23 0-18.35-14.226-33.23-31.764-33.23zm-135.154 0c-17.538 0-31.752 14.88-31.752 33.23 0 18.352 14.214 33.23 31.752 33.23 17.54 0 31.764-14.88 31.764-33.23 0-18.35-14.225-33.23-31.764-33.23zm270.5-32.028c30.163 0 55.43 23.045 61.347 52.765l-31.46-.118c-4.83-11.93-16.16-19.98-29.32-19.98-17.535 0-31.763 14.868-31.763 33.22 0 18.354 14.226 33.23 31.764 33.23 13.158 0 24.626-7.97 29.45-19.9l31.46-.14c-5.84 29.833-31.247 51.86-61.485 51.86-34.556 0-62.568-29.315-62.568-65.47s28.012-65.47 62.567-65.47zm-270.884-.294c34.558 0 64.623 29.075 64.623 65.234l.04 66.27-31.434.237v-17.91c-8.703 10.31-18.617 17.19-33.22 17.1-34.556-.2-62.58-29.312-62.58-65.47s28.024-65.47 62.58-65.47zm71.694-42.626h31.38l.045 61.56c8.705-10.313 18.617-17.192 33.22-17.11 34.554.202 62.568 29.326 62.568 65.483 0 36.157-28.016 65.458-62.567 65.458-34.555 0-64.612-29.073-64.612-65.234l-.034-110.16z"/></g></svg>