<svg xmlns="http://www.w3.org/2000/svg" width="128" height="64"><path d="M48.334 25.136h2.48v2.948h-2.48V40.31H43.12V28.083h-2.086v-2.948h2.086V24c-.167-1.175.02-2.302.635-3.33.328-.484.788-.876 1.38-1.175 2.167-.768 3.996-.592 5.575-.438l.068 3.328c-.622-.118-.553-.176-.936-.176-.47 0-.805.09-1.01.27-.204.18-.35.47-.434.86-.043.21-.064 1.1-.064 1.79zm8.624 4.267l-4.97-.03c.186-1 .457-2 .81-2.573.354-.573.863-1.07 1.528-1.49.477-.304 1.133-.54 1.968-.706.835-.166 1.738-.25 2.71-.25 1.558 0 2.81.1 3.756.302.946.2 1.734.62 2.364 1.256.443.44.793 1.065 1.048 1.873.256.808.384 1.58.384 2.313v6.89c0 .735.04 1.31.12 1.727.082.416.26.947.53 1.594H62.04c-.438-.64-.398-1.27-.277-1.91-.68.75-1.36 1.29-2.032 1.61-.92.43-1.98.642-3.2.642-1.62 0-2.85-.43-3.684-1.293-.84-.86-1.26-1.924-1.26-3.188 0-1.186.303-2.16.908-2.924.606-.765 1.508-1.404 3.135-1.777 1.95-.45 3.43-.69 4.01-.873.58-.18 1.193-.417 1.84-.71 0-.735-.13-1.25-.396-1.543-.265-.292-.73-.44-1.394-.44-.85 0-1.49.158-1.917.47l-.805 1.025zm4.51 3.5c-.714.295-1.46.555-2.235.78-1.057.323-1.725.642-2.006.955-.29.323-.435.69-.435 1.102 0 .47.143.854.428 1.153.286.3.705.448 1.26.448a2.94 2.94 0 001.616-.48c.498-.32.85-.712 1.06-1.18.21-.463.313-1.07.313-1.812v-.955zm7.984-8.196h5.142v1.705c1.16-1.892 2.962-2.13 4.69-2.2 1.964-.058 3.47.946 4.115 2.772 1.07-2.088 2.68-2.694 4.72-2.773 1.455 0 2.88.64 3.7 1.64.82 1 1.224 2.03 1.224 4.67v9.8H88.19v-8.89c0-2.896-1.082-3.32-2.304-3.45-1.725.073-2.425 1.534-2.474 2.93v9.41H79.06v-8.6c-.02-1.52-.04-3.704-2.064-3.704-2.644 0-2.75 2.417-2.616 4.336v7.964h-4.928v-15.61zm26.61-5.578h5.203v4.07h-5.202v-4.07zm0 5.57h5.203v15.61h-5.202V24.703zm8.515-5.58h5.214V40.3h-5.21V19.13zm7.055 5.577h5.71l2.655 10.386 2.737-10.386h5.554l-5.81 16.676c-.613 1.9-1.24 3.182-1.878 3.85-.683 1.37-2.928 1.41-6.513 1.41l-.003-4.16c.13.06.815.045 1.307.023.62-.028 1.46-.1 1.84-.42.38-.325.488-1.01.325-1.778l-5.918-15.6zm-93.122-10.5c-9.9 0-17.92 8.054-17.92 17.99 0 9.937 8.022 17.992 17.92 17.992 9.896 0 17.92-8.054 17.92-17.99 0-9.937-8.024-17.99-17.92-17.99zM9.707 37.4v-1.488c-.754.858-1.613 1.43-2.88 1.423a5.444 5.444 0 01-5.42-5.445c0-3.006 2.427-5.444 5.42-5.444 2.996 0 5.6 2.418 5.6 5.425l.004 5.52-2.72.02zm8.936.087c-2.994 0-5.6-2.418-5.6-5.425l-.002-9.16h2.72l.01 5.12c.757-.86 1.616-1.43 2.88-1.423 2.996.01 5.424 2.43 5.424 5.44s-2.43 5.44-5.423 5.44zm11.66-.128c-2.995 0-5.423-2.44-5.423-5.45s2.43-5.448 5.424-5.448c2.613 0 4.803 1.916 5.316 4.387l-2.727-.01a2.737 2.737 0 00-2.54-1.66c-1.52 0-2.752 1.236-2.752 2.762s1.24 2.763 2.76 2.763c1.14 0 2.137-.664 2.55-1.656l2.73-.015c-.506 2.48-2.71 4.312-5.33 4.312zm-11.728-8.23c-1.52 0-2.753 1.232-2.753 2.76s1.233 2.762 2.753 2.762 2.752-1.237 2.752-2.763-1.233-2.763-2.752-2.763zm-11.712 0c-1.52 0-2.753 1.232-2.753 2.76s1.233 2.762 2.753 2.762 2.752-1.237 2.752-2.763-1.232-2.763-2.752-2.763z"/></svg>