<svg xmlns="http://www.w3.org/2000/svg" width="128" height="64"><path d="M7.854 28.866c0-.82.13-1.504.388-2.054.258-.55.61-.994 1.05-1.334a4.15 4.15 0 0 1 1.554-.733 7.898 7.898 0 0 1 1.905-.222c1.07 0 1.934.105 2.591.313.656.208 1.166.503 1.529.886.363.382.61.838.738 1.368.13.53.195 1.108.195 1.733v7.376c0 .66.03 1.174.09 1.539s.178.756.351 1.173l-3.424.018a3.07 3.07 0 0 1-.273-.73c-.06-.257-.116-.51-.168-.757h-.052c-.415.735-.895 1.21-1.44 1.428-.544.218-1.248.328-2.113.328-.623 0-1.15-.109-1.582-.326a2.686 2.686 0 0 1-1.037-.9 4.053 4.053 0 0 1-.57-1.294 5.787 5.787 0 0 1-.182-1.423c0-.661.07-1.231.208-1.71.137-.479.349-.888.635-1.227.286-.34.648-.622 1.09-.849a8.564 8.564 0 0 1 1.595-.6l2.024-.55c.536-.138.908-.33 1.116-.573.207-.244.311-.601.311-1.07 0-.54-.124-.962-.372-1.267-.249-.305-.672-.457-1.271-.457-.549 0-.96.167-1.233.503-.274.336-.41.786-.41 1.35v.398H7.855v-.337zm5.748 3.49a5.071 5.071 0 0 1-.752.248c-.728.156-1.246.416-1.558.78-.312.364-.467.857-.467 1.482 0 .537.104.996.312 1.377.207.381.554.572 1.038.572.242 0 .493-.039.753-.117.259-.077.497-.203.713-.376.217-.173.395-.4.533-.676a2.2 2.2 0 0 0 .207-.988v-2.756c-.242.19-.502.342-.78.455zM27.356 37.442c-.407.662-.862 1.12-1.366 1.376-.503.255-1.127.382-1.87.382-1.505 0-2.61-.565-3.317-1.695-.707-1.13-1.061-2.997-1.061-5.604s.355-4.488 1.065-5.644c.71-1.155 1.82-1.734 3.33-1.734.691 0 1.281.139 1.77.414.487.277.927.691 1.318 1.244h.046v-5.889h3.695v18.639H27.41v-1.488h-.053zm-3.562-2.103c.238.774.753 1.16 1.547 1.16.81 0 1.334-.386 1.573-1.16.237-.774.357-1.925.357-3.455 0-1.529-.12-2.68-.357-3.454-.239-.773-.763-1.16-1.573-1.16-.794 0-1.31.387-1.547 1.16-.238.774-.357 1.925-.357 3.454 0 1.53.119 2.681.357 3.455zM40.429 37.285c-.38.696-.873 1.19-1.477 1.48-.605.29-1.296.435-2.073.435-1.143 0-2.021-.3-2.635-.9-.615-.599-.921-1.604-.921-3.012V24.884h3.601v9.662c0 .73.121 1.238.363 1.524.242.286.63.43 1.167.43 1.26 0 1.892-.773 1.892-2.318v-9.298h3.602v14.047H40.48v-1.646h-.052zM50.04 20.292v18.639h-3.602V20.292h3.601zM57.22 20.877v4.007h2.182v2.431h-2.183v7.613c0 .558.086.955.259 1.19.173.235.531.353 1.077.353.145 0 .29-.005.436-.013a5.11 5.11 0 0 0 .41-.04v2.511c-.419 0-.824.015-1.215.046-.391.03-.805.045-1.243.045-.732 0-1.33-.048-1.796-.143-.465-.096-.822-.288-1.069-.577-.246-.288-.415-.668-.507-1.14-.092-.47-.137-1.064-.137-1.78v-8.065h-1.91v-2.43h1.91v-4.008h3.785zM67.957 34.802c0 .603.167 1.088.5 1.458.335.37.82.554 1.452.554.577 0 1.038-.138 1.381-.416.343-.278.515-.694.515-1.25 0-.451-.137-.794-.41-1.028a3.24 3.24 0 0 0-.958-.56l-2.656-.912c-1.04-.347-1.826-.837-2.356-1.471-.529-.633-.794-1.445-.794-2.435 0-.572.101-1.116.303-1.628.202-.512.523-.958.962-1.34.439-.382 1.003-.686 1.69-.912.687-.226 1.516-.339 2.487-.339 1.722 0 2.995.35 3.82 1.05.825.7 1.237 1.688 1.237 2.965v.577h-3.42c0-.747-.124-1.293-.372-1.64-.248-.346-.684-.52-1.307-.52-.477 0-.895.126-1.252.378s-.537.63-.537 1.136c0 .347.114.66.343.94.228.278.662.513 1.3.705l2.273.73c1.186.384 2.026.886 2.518 1.503.493.617.74 1.457.74 2.52 0 .748-.137 1.396-.411 1.945a3.839 3.839 0 0 1-1.134 1.37c-.482.366-1.057.627-1.722.783a9.616 9.616 0 0 1-2.2.235c-1.058 0-1.936-.096-2.638-.285-.702-.191-1.257-.477-1.667-.858a3.08 3.08 0 0 1-.86-1.392 6.35 6.35 0 0 1-.246-1.833v-.494h3.42v.464zM79.543 24.884l1.74 9.974h.055l1.85-9.974h4.144l1.962 9.974h.055l1.795-9.974h3.647l-3.205 14.047H87.25l-1.96-9.974h-.056l-1.85 9.974h-4.421L75.73 24.884h3.813zM100.249 20.067v3.06h-4.076v-3.06h4.076zm0 4.817v14.047h-4.076V24.884h4.076zM105.731 24.884v1.427h.07c.462-.639.981-1.096 1.56-1.373.576-.276 1.266-.414 2.066-.414.868 0 1.596.19 2.183.57.588.38.982.933 1.181 1.658h.076c.284-.743.742-1.3 1.373-1.67.63-.372 1.381-.557 2.254-.557 1.245 0 2.16.361 2.746 1.083.587.722.88 1.761.88 3.118v10.205h-3.719v-9.83c0-.593-.112-1.047-.337-1.36-.225-.315-.597-.471-1.118-.471-.592 0-1.064.192-1.414.575-.35.384-.525.994-.525 1.83v9.256h-3.719V29.1c0-.593-.113-1.047-.338-1.36-.225-.315-.597-.471-1.117-.471-.593 0-1.065.192-1.415.575-.35.384-.525.994-.525 1.83v9.256h-3.719V24.884h3.557zM6.576 40.96v2.973H-.01V20.49h6.586v2.973H3.941V40.96zM121.424 23.463V20.49h6.586v23.443h-6.586v-2.972h2.635V23.463z"/></svg>