<?xml version="1.0" encoding="UTF-8" standalone="no"?>

<svg xmlns:svg="http://www.w3.org/2000/svg" xmlns="http://www.w3.org/2000/svg" version="1.1" width="128" height="64" xmlns:xlink="http://www.w3.org/1999/xlink">
	<g transform="matrix(0.4099745,0,0,0.45081243,6.395098,-1.8217517)">
		<path fill="#0284f4" d="m 171.651,4.07 c 11.112,5.686 17.561,16.604 17.561,29.978 0,11.202 -5.846,18.743 -14.671,25.26 0,0 -6.602,5.083 -10.201,7.528 l 26.891,31.798 c 0.802,-1.092 11.805,-11.123 11.805,-11.123 l 69.886,0 0,-27.34 -69.999,0 0,-24.566 74.662,0 L 277.619,4.08 171.651,4.07 m 44.952,108.314 -7.614,7.574 21.58,25.963 47.016,0.058 0,-33.584 -60.982,-0.011 z M 132.592,4.07 60.216,4.058 3.398,145.99 l 48.05,-0.069 9.291,-26.282 45.02,0.012 c -1.615,-4.867 -2.457,-10.314 -2.457,-16.354 0,-18.538 13.209,-30.547 25.612,-38.907 -5.8,-6.721 -14.199,-16.899 -14.199,-30.751 -0.001,-13.285 6.431,-23.985 17.877,-29.569 z m -64.574,84.135 16.667,-49.153 16.149,49.153 -32.816,0 z" />
		<path fill="#0284f4" d="m 152.085,24.528 c -6.249,0 -9.467,4.083 -9.467,9.474 0,4.253 3.531,8.325 7.545,13.056 1.598,-0.978 4.812,-3.264 4.812,-3.264 3.695,-2.616 6.579,-5.72 6.579,-9.792 0,-5.391 -3.537,-9.474 -9.469,-9.474" />
		<path fill="#0284f4" d="m 144.517,85.35 c -6.534,5.096 -11.202,11.043 -11.202,19.005 0,9.178 8.769,18.788 18.202,19.459 6.414,0.454 13.147,-1.979 18.202,-6.482" />
  </g>
</svg>
