<svg xmlns="http://www.w3.org/2000/svg" width="128" height="64"><path d="M76.768.013c4.555 2.563 7.2 7.485 7.2 13.515 0 5.05-2.398 8.45-6.016 11.387 0 0-2.706 2.292-4.182 3.394l11.025 14.33c.33-.496 4.84-5.018 4.84-5.018h28.65v-12.32H89.59V14.23h30.61l.014-14.212L76.768.013m18.43 48.83l-3.123 3.414 8.848 11.704 19.275.03V48.85l-25-.006zM60.753.013L31.083.007 7.787 63.992l19.7-.03 3.81-11.85 18.456.006c-.663-2.194-1.008-4.65-1.008-7.372 0-8.357 5.416-13.77 10.5-17.54-2.377-3.03-5.82-7.618-5.82-13.863 0-5.99 2.636-10.813 7.328-13.33zM34.28 37.943l6.834-22.16 6.62 22.16H34.28zM68.746 9.235c-2.562 0-3.88 1.84-3.88 4.27 0 1.918 1.446 3.754 3.092 5.887.655-.44 1.973-1.472 1.973-1.472 1.52-1.176 2.7-2.576 2.7-4.41 0-2.43-1.45-4.27-3.88-4.27M65.65 36.656c-2.678 2.297-4.592 4.978-4.592 8.568 0 4.137 3.597 8.47 7.464 8.772 2.63.205 5.39-.892 7.462-2.922" fill="#0284f4"/></svg>