<svg xmlns="http://www.w3.org/2000/svg" width="128" height="64"><path fill="#e40020" fill-rule="evenodd" d="M94.278 32a30.278 30.842 0 11-60.556 0 30.278 30.842 0 1160.556 0z"/><path stroke="null" fill="#fff" d="M42.625 39.052c-1.187-.1-2.057-.453-2.7-1.095a3.132 3.132 0 01-.905-2.404c.06-.91.314-1.546.833-2.087.247-.258.453-.414.797-.606.773-.43 1.575-.617 3.36-.78.96-.09 1.38-.176 1.788-.37.398-.188.663-.488.785-.89.067-.222.06-.766-.01-1.033-.168-.615-.578-1.037-1.228-1.264-.415-.145-.596-.17-1.183-.17-.502.002-.55.007-.79.072-.664.183-1.22.49-1.416.783-.108.16-.097.204.088.333.2.15.308.32.35.56.085.51-.13.93-.57 1.14-.197.09-.374.13-.622.13-.62 0-1.134-.39-1.318-1-.06-.2-.06-.666 0-.913.242-1 1.134-1.884 2.304-2.29.94-.328 1.88-.414 2.908-.267.974.137 1.8.497 2.354 1.023.614.583.894 1.27.975 2.397.03.393-.01 2.75-.08 4.924-.024.7-.024.97 0 1.176.056.504.162.785.37.98.157.15.275.195.51.194.412 0 .65-.258.77-.826.032-.154.04-.348.036-1 0-.888.02-1.08.12-1.29.06-.12.09-.15.22-.216.14-.07.18-.076.38-.075.39.004.62.148.72.465.048.132.05.228.05 1.048-.004.895-.028 1.286-.103 1.65-.18.885-.776 1.43-1.726 1.584a4.97 4.97 0 01-1.22-.013c-.85-.163-1.42-.645-1.63-1.37-.024-.083-.05-.14-.06-.128l-.163.21c-.563.75-1.455 1.227-2.584 1.384-.35.05-1.05.07-1.4.04zm1.486-1.577c.74-.16 1.27-.44 1.72-.902.342-.36.55-.773.666-1.325.044-.208.058-.402.077-1.07.013-.446.03-.95.04-1.116l.016-.304-.123.108a2.82 2.82 0 01-.686.42c-.455.2-.97.302-2.045.41-.93.094-1.34.172-1.75.334-.614.243-.99.66-1.113 1.232-.056.262-.036.733.04.978.213.678.768 1.106 1.653 1.273.297.056 1.18.034 1.515-.038zm36.22 1.265c-.292-.052-.435-.282-.522-.527-.06-.177-.05-.454.03-.61.136-.268.36-.393.72-.39l.98-.01c.226.002.246-.003.35-.076.18-.124.2-.362.265-.838.02-.15.033-1.06.04-2.88l-.01-4.28c-.057-.277-.15-.455-.28-.54-.097-.063-.126-.07-.356-.067l-.984.004c-.37.004-.594-.124-.73-.398-.064-.13-.07-.16-.06-.38.01-.193.026-.265.08-.37a.755.755 0 01.373-.353c.114-.05.17-.06.406-.053l2.74-.005c.12-.004.21.01.273.044.195.103.307.3.35.622.02.135.03 1.594.03 4.582 0 2.853.01 4.33.026 4.42.04.207.146.402.266.49.395.154.818.01 1.245.08.295.01.41.06.564.226.14.15.18.262.183.49a.594.594 0 01-.07.34c-.127.255-.4.414-.725.49-.16.085-4.99.085-5.18-.025z" stroke-width=".161"/><path stroke="null" d="M82.567 25.735a1.516 1.516 0 01-1.09-1.09c-.188-.715.234-1.488.945-1.73 1.058-.36 2.125.5 1.97 1.587a1.498 1.498 0 01-1.825 1.233z" stroke-width=".161"/><path stroke="null" fill="#fff" d="M60.032 38.74a.87.87 0 01-.517-.527.89.89 0 01.03-.61c.134-.272.358-.396.724-.39 0 0 .9.024 1.29-.153.177-.125.253-.362.316-.84.02-.143-.015-2.805-.015-2.805l-.004-4.277c-.055-.275-.15-.452-.275-.537-.095-.06-.124-.07-.35-.06h-.978c-.362.004-.582-.123-.716-.4-.066-.13-.07-.16-.06-.38.01-.19.023-.262.08-.37a.71.71 0 01.37-.35c.11-.05.162-.06.4-.055 0 0 2.953-.07 3.06.103.19.104.22.24.263.56.02.138.027 1.597.027 4.585 0 2.855.007 4.244.024 4.335.04.208.145.403.264.49.117.19 1.232.165 1.232.165.29.012.404.06.556.23.137.15.178.26.18.487a.6.6 0 01-.07.34c-.126.256-.38.43-.717.49-.248.09-5.057.13-5.12-.024zm-7.292-.023c-.305-.065-.52-.217-.637-.45a.59.59 0 01-.078-.347c0-.156.012-.217.066-.323.18-.353.51-.413 1.14-.413 0 0 .79.017.94-.154.13-.177.18-.3.25-.722.034-.203.04-.78.05-4.866 0 0-.002-5.64-.08-6.074-.08-.433-.23-.654-.39-.7-.166-.045-.72-.044-.72-.044l-.652.013c-.24 0-.27-.005-.42-.082-.27-.135-.38-.323-.38-.65 0-.21.076-.376.24-.524.2-.18.45-.27.794-.27l2.687.01c.35 0 .485.096.577.4.044.14.047.52.06 6.5.014 5.66-.006 6.21.03 6.387.1.473.19.644.396.734.39.093 1.007.03 1.19.028.18-.002.61.17.746.44a.755.755 0 010 .65.857.857 0 01-.414.39c-.306.137-1.428.113-1.428.113l-3.734-.006c-.05 0-.15-.015-.23-.03zm19.76.3c-1.306-.116-2.202-.584-2.79-1.457-.083-.124-.124-.238-.13-.253l.002.23c.007.296.026.642-.046.8-.09.2-.153.267-.336.355-.16.078-.19.084-.432.083-.387 0-.556-.09-.687-.355-.03-.066-.04-.97-.05-6.594l-.04-6.478c-.02-.39-.11-.707-.304-.778-.19-.045-.35-.056-1.325-.063-.247.005-.43-.05-.57-.166a.655.655 0 01-.237-.53c0-.3.12-.53.357-.69a.982.982 0 01.57-.15l2.79.01c.23-.003.27 0 .335.05.16.115.15-.043.16 2.81.003 1.438.015 2.61.027 2.61s.073-.06.135-.13c.69-.815 1.47-1.274 2.454-1.448.4-.07 1.24-.077 1.697-.01 1.403.2 2.45.81 3.24 1.89.18.247.47.79.607 1.135.666 1.67.63 4.097-.086 5.862-.75 1.853-2.138 2.98-3.986 3.234-.35.05-1.016.07-1.344.04zm1.31-1.584c1.048-.26 1.8-.943 2.247-2.038.304-.745.427-1.397.45-2.375.02-.943-.072-1.648-.307-2.36-.34-1.032-.94-1.745-1.76-2.092-.39-.165-.69-.226-1.198-.24-.494-.017-.732.014-1.13.144-.788.258-1.524.882-1.87 1.585-.332.672-.45 1.295-.47 2.448-.025 1.343.072 2.19.34 2.993.186.558.353.84.705 1.19.404.4.875.64 1.527.78.19.04.306.048.717.04.43-.01.53-.02.75-.075z" stroke-width=".161"/></svg>