<svg xmlns="http://www.w3.org/2000/svg" width="128" height="64"><path fill="#e40020" fill-rule="evenodd" d="M94.278 32a30.278 30.842 0 1 1-60.556 0 30.278 30.842 0 1 1 60.556 0z"/><path stroke="null" fill="#fff" d="M42.625 39.052c-1.187-.1-2.057-.453-2.7-1.095-.63-.632-.964-1.517-.905-2.404.06-.91.314-1.546.833-2.087.247-.258.453-.414.797-.606.773-.43 1.575-.617 3.36-.78.96-.09 1.38-.176 1.788-.37.398-.188.663-.488.785-.89.067-.222.06-.766-.01-1.033-.168-.615-.578-1.037-1.228-1.264-.415-.145-.596-.17-1.183-.17-.502.002-.55.007-.79.072-.664.183-1.22.49-1.416.783-.108.16-.097.204.088.333.2.15.308.32.35.56.085.51-.13.93-.57 1.14-.197.09-.374.13-.622.13-.62 0-1.134-.39-1.318-1-.06-.2-.06-.66 0-.91.242-1 1.134-1.88 2.304-2.29.94-.33 1.88-.41 2.908-.262.974.138 1.8.498 2.354 1.024.614.583.894 1.27.975 2.397.03.393-.01 2.75-.08 4.924-.024.7-.024.97 0 1.177.056.505.162.786.37.98.157.15.275.196.51.195.412 0 .65-.26.77-.826.032-.156.04-.35.036-1 0-.89.02-1.08.12-1.29.06-.12.09-.15.22-.218.14-.07.18-.076.38-.075.39.007.62.15.72.468.05.132.05.228.05 1.048 0 .897-.02 1.288-.1 1.65-.18.887-.77 1.43-1.72 1.586-.298.046-.943.04-1.22-.014-.85-.163-1.42-.645-1.63-1.37-.025-.083-.05-.14-.06-.128l-.164.21c-.563.75-1.455 1.226-2.584 1.383-.35.05-1.05.07-1.4.04zm1.486-1.577c.74-.16 1.27-.44 1.72-.902.35-.36.55-.773.67-1.325.048-.208.06-.402.08-1.07.014-.446.03-.95.04-1.116l.017-.304-.122.108c-.163.145-.44.316-.685.42-.455.2-.97.302-2.045.41-.93.094-1.34.172-1.75.334-.613.243-.99.66-1.112 1.232-.055.262-.035.733.04.978.214.678.77 1.106 1.654 1.273.298.056 1.18.034 1.516-.038zm36.22 1.265c-.29-.052-.43-.282-.52-.527-.06-.177-.05-.454.03-.61.14-.268.36-.393.72-.39l.98-.01c.23.002.25-.003.35-.076.18-.124.2-.362.27-.838.02-.15.034-1.06.04-2.88l-.01-4.28c-.056-.28-.15-.46-.28-.54-.096-.07-.125-.07-.355-.07h-.984c-.37.003-.594-.125-.73-.4-.064-.13-.07-.16-.06-.38.01-.192.026-.264.08-.37.086-.162.207-.28.373-.352.114-.05.17-.06.406-.053l2.74-.005c.12-.004.21.01.272.044.196.103.308.3.35.622.02.133.03 1.592.03 4.58 0 2.853.01 4.33.027 4.42.04.207.145.402.265.49.394.154.817.01 1.244.08.294.01.41.06.563.226.14.15.18.265.184.49.005.16-.01.22-.07.34-.125.258-.4.417-.723.49-.16.088-4.99.088-5.18-.022z" stroke-width=".161"/><path stroke="null" d="M82.567 25.735c-.522-.125-.947-.55-1.09-1.09-.188-.715.234-1.488.945-1.73 1.058-.36 2.125.5 1.97 1.587-.124.86-.976 1.436-1.825 1.233z" stroke-width=".161"/><path stroke="null" fill="#fff" d="M60.032 38.74c-.238-.086-.43-.282-.517-.527-.063-.177-.05-.454.03-.61.134-.272.358-.396.724-.39 0 0 .9.024 1.29-.153.17-.125.25-.362.31-.84.02-.143-.017-2.805-.017-2.805l-.005-4.277c-.055-.275-.15-.452-.275-.537-.094-.06-.123-.07-.35-.06h-.977c-.36.01-.58-.12-.717-.4-.066-.13-.07-.16-.06-.38.01-.19.023-.26.08-.37.082-.16.2-.28.37-.35.11-.05.162-.06.4-.05 0 0 2.953-.07 3.06.106.19.104.22.24.263.56.02.138.027 1.597.027 4.585 0 2.855.008 4.244.025 4.335.04.206.145.4.264.49.116.19 1.23.163 1.23.163.29.012.405.06.557.23.136.15.177.26.18.487 0 .16-.01.218-.07.34-.127.257-.38.43-.718.49-.25.09-5.058.13-5.12-.023zm-7.292-.023c-.305-.065-.52-.217-.637-.45-.067-.13-.078-.182-.078-.347 0-.156.012-.217.066-.323.18-.353.51-.413 1.14-.413 0 0 .79.017.94-.154.13-.177.18-.3.25-.722.04-.203.04-.78.05-4.866 0 0 0-5.64-.08-6.074-.08-.433-.23-.654-.39-.7-.16-.045-.72-.044-.72-.044l-.65.013c-.24 0-.27-.005-.42-.082-.27-.135-.38-.323-.38-.65 0-.21.08-.376.24-.524.2-.18.45-.27.8-.27l2.687.01c.35 0 .486.1.578.4.045.14.048.52.06 6.5.015 5.66-.005 6.21.03 6.39.1.478.19.65.397.74.39.092 1.007.03 1.19.027.18 0 .61.17.746.44.096.19.096.453 0 .65-.086.17-.23.307-.415.39-.305.138-1.427.114-1.427.114l-3.735-.006c-.05 0-.15-.014-.23-.03zm19.76.3c-1.306-.116-2.202-.584-2.79-1.457-.083-.124-.124-.238-.13-.253l.002.23c.007.296.026.642-.046.8-.09.2-.153.267-.336.355-.16.078-.19.084-.432.083-.387 0-.556-.09-.687-.355-.03-.066-.04-.97-.05-6.594l-.04-6.478c-.02-.39-.11-.707-.3-.778-.19-.045-.35-.056-1.32-.063-.248.005-.43-.05-.57-.166-.158-.13-.238-.31-.238-.53 0-.3.12-.53.357-.69.16-.1.34-.15.57-.15l2.79.01c.23 0 .27 0 .334.05.16.12.15-.04.16 2.81.004 1.44.016 2.61.028 2.61s.073-.06.135-.13c.69-.81 1.47-1.27 2.455-1.44.4-.07 1.24-.077 1.697-.01 1.403.2 2.45.81 3.24 1.89.18.247.47.79.607 1.135.666 1.67.63 4.097-.086 5.86-.75 1.855-2.136 2.98-3.984 3.236-.35.05-1.016.07-1.344.04zm1.31-1.584c1.048-.26 1.8-.943 2.247-2.038.304-.745.427-1.397.45-2.375.02-.943-.072-1.648-.307-2.36-.34-1.032-.94-1.745-1.76-2.092-.39-.165-.69-.226-1.198-.24-.494-.017-.732.014-1.13.144-.788.258-1.524.882-1.87 1.585-.332.672-.45 1.295-.47 2.448-.025 1.343.072 2.19.34 2.993.186.558.353.84.705 1.19.404.4.875.64 1.527.78.19.04.306.048.717.04.43-.01.53-.02.75-.075z" stroke-width=".161"/></svg>