<svg xmlns="http://www.w3.org/2000/svg" width="128" height="64"><path fill="#e40020" fill-rule="evenodd" stroke-width=".322.9" d="M94.278 32a30.278 30.842 0 1 1-60.556 0 30.278 30.842 0 1 1 60.556 0z"/><path stroke="null" fill="#fff" d="M42.625 39.052c-1.187-.1-2.057-.453-2.7-1.095-.63-.632-.964-1.517-.905-2.404.06-.91.314-1.546.833-2.087.247-.258.453-.414.797-.606.773-.43 1.575-.617 3.36-.78.96-.09 1.38-.176 1.788-.37.398-.188.663-.488.785-.89.067-.222.06-.766-.01-1.033-.168-.615-.578-1.037-1.228-1.264-.415-.145-.596-.17-1.183-.17-.502.002-.55.007-.79.072-.664.183-1.22.49-1.416.783-.108.16-.097.204.088.333.2.148.308.318.35.56.085.508-.13.93-.57 1.14-.197.09-.374.13-.622.13-.62 0-1.134-.39-1.318-1-.06-.2-.06-.667 0-.914.242-1 1.134-1.884 2.304-2.29.94-.328 1.88-.414 2.908-.267.974.137 1.8.497 2.354 1.023.614.583.894 1.27.975 2.397.03.393-.01 2.75-.08 4.924-.024.7-.024.97 0 1.176.056.504.162.785.37.98.157.15.275.195.51.194.412 0 .65-.258.77-.826.032-.154.04-.348.036-1 0-.888.02-1.08.12-1.29.06-.12.09-.15.22-.216.14-.07.178-.076.38-.075.39.004.62.148.72.465.047.132.05.228.048 1.048-.003.895-.027 1.286-.102 1.65-.18.885-.776 1.43-1.726 1.584-.298.047-.943.04-1.22-.013-.85-.164-1.42-.646-1.632-1.372-.023-.082-.05-.14-.06-.127l-.162.21c-.563.75-1.455 1.227-2.584 1.384-.35.05-1.05.07-1.4.04zm1.486-1.577c.74-.16 1.27-.44 1.718-.902.343-.36.55-.773.667-1.325.044-.208.058-.402.077-1.07.013-.446.03-.95.04-1.116l.016-.304-.122.108c-.164.145-.442.316-.686.42-.456.2-.972.302-2.046.41-.93.094-1.34.172-1.75.334-.614.243-.99.66-1.113 1.232-.056.262-.036.733.04.978.213.678.768 1.106 1.653 1.273.297.056 1.18.034 1.515-.038zm36.22 1.265c-.293-.052-.436-.282-.523-.527-.06-.177-.05-.454.03-.61.136-.268.36-.393.72-.39l.98-.01c.226.002.246-.003.35-.076.18-.124.2-.362.265-.838.02-.15.033-1.06.04-2.88l-.01-4.28c-.057-.276-.15-.454-.28-.538-.097-.064-.126-.07-.356-.068l-.984.004c-.37.004-.594-.124-.73-.398-.064-.13-.07-.16-.06-.38.01-.192.026-.264.08-.368.086-.164.207-.28.373-.354.114-.05.17-.06.406-.053l2.74-.005c.12-.003.21.01.273.045.195.103.307.3.35.622.02.135.03 1.594.03 4.582 0 2.853.01 4.33.026 4.42.04.207.145.402.265.49.395.154.818.01 1.245.08.294.01.41.06.563.226.14.15.18.262.183.49.003.16-.01.216-.07.34-.127.255-.4.414-.725.49-.16.085-4.99.085-5.18-.025z" stroke-width=".161"/><path stroke="null" d="M82.567 25.735c-.522-.125-.947-.55-1.09-1.09-.188-.715.234-1.488.945-1.73 1.058-.36 2.125.5 1.97 1.587-.124.86-.976 1.436-1.825 1.233z" stroke-width=".161"/><path stroke="null" fill="#fff" d="M60.032 38.74c-.238-.086-.43-.282-.517-.527-.063-.177-.05-.454.03-.61.134-.272.358-.396.724-.39 0 0 .9.024 1.29-.153.178-.125.254-.362.317-.84.02-.143-.015-2.805-.015-2.805l-.005-4.277c-.055-.275-.15-.452-.275-.537-.096-.06-.125-.07-.352-.06h-.977c-.362.003-.582-.124-.716-.4-.066-.13-.07-.16-.06-.38.01-.19.023-.263.08-.37.082-.16.2-.28.37-.35.11-.05.162-.06.4-.056 0 0 2.953-.07 3.06.103.19.104.22.24.263.56.02.138.028 1.597.028 4.585 0 2.855.007 4.244.024 4.335.04.208.144.403.263.49.117.19 1.232.165 1.232.165.29.012.404.06.556.23.137.15.178.26.18.487.002.16-.01.217-.07.34-.126.256-.38.43-.717.49-.248.09-5.057.13-5.12-.024zm-7.292-.023c-.305-.065-.52-.217-.637-.45-.067-.13-.078-.182-.078-.347 0-.156.012-.217.066-.323.18-.353.51-.413 1.14-.413 0 0 .79.017.94-.154.13-.177.18-.3.25-.722.033-.203.04-.78.05-4.866 0 0-.003-5.64-.08-6.074-.08-.433-.23-.654-.392-.7-.165-.045-.718-.044-.718-.044l-.653.013c-.24 0-.27-.005-.42-.082-.27-.135-.38-.323-.38-.65 0-.21.076-.376.24-.524.2-.18.45-.27.794-.27l2.687.01c.35 0 .486.095.578.4.044.14.047.52.06 6.5.014 5.66-.006 6.21.03 6.386.1.473.19.644.396.734.39.092 1.007.03 1.19.027.18-.002.61.17.746.44.098.19.098.452 0 .65-.084.168-.23.306-.413.39-.306.137-1.428.113-1.428.113l-3.734-.007c-.05 0-.15-.015-.23-.03zm19.76.3c-1.306-.116-2.202-.584-2.79-1.457-.083-.124-.124-.238-.13-.253l.002.23c.007.296.026.642-.046.8-.09.2-.153.267-.336.355-.16.078-.19.084-.432.083-.387 0-.556-.09-.687-.355-.03-.066-.04-.97-.05-6.594l-.04-6.478c-.02-.39-.11-.707-.305-.778-.19-.045-.35-.056-1.325-.063-.248.005-.43-.05-.57-.166-.158-.13-.238-.31-.238-.53 0-.3.12-.53.357-.69.16-.103.34-.153.57-.15l2.79.01c.23-.004.27 0 .335.05.16.114.15-.044.16 2.81.003 1.437.015 2.61.027 2.61s.073-.06.135-.132c.69-.814 1.47-1.273 2.454-1.447.4-.07 1.24-.077 1.696-.01 1.403.2 2.45.81 3.24 1.89.18.247.47.79.607 1.135.666 1.67.63 4.097-.086 5.862-.75 1.854-2.138 2.98-3.986 3.235-.35.05-1.016.07-1.344.04zm1.31-1.584c1.048-.26 1.8-.943 2.247-2.038.304-.745.427-1.397.45-2.375.02-.943-.072-1.648-.307-2.36-.34-1.032-.94-1.745-1.76-2.092-.39-.165-.69-.226-1.198-.24-.494-.017-.732.014-1.13.144-.788.258-1.524.882-1.87 1.585-.332.672-.45 1.295-.47 2.448-.025 1.343.072 2.19.34 2.993.186.558.353.84.705 1.19.404.4.875.64 1.527.78.19.04.306.048.717.04.428-.01.53-.02.75-.075z" stroke-width=".161"/></svg>