<?xml version="1.0" encoding="UTF-8" standalone="no"?>

<svg xmlns:svg="http://www.w3.org/2000/svg" xmlns="http://www.w3.org/2000/svg" version="1.1" width="128" height="64" xmlns:xlink="http://www.w3.org/1999/xlink">
	<g transform="matrix(0.16105469431447983,0,0,0.16105469431447983,622.7777309740758,515.9403899389905) ">
		<path fill="#e40020" fill-rule="evenodd" stroke-width="2.9" stroke-miterlimit="4" d="m-3281.49146,-3004.82056a187.9995,191.5005 0 1 1 -375.99902,0a187.9995,191.5005 0 1 1 375.99902,0z"/>
		<path stroke="null" fill="#ffffff" d="m-3602.21118,-2961.03516c-7.3667,-0.61646 -12.77051,-2.80933 -16.75562,-6.79907c-3.91821,-3.92261 -5.98975,-9.41626 -5.62695,-14.92285c0.37256,-5.65601 1.94727,-9.60229 5.1709,-12.96021c1.53687,-1.60083 2.81763,-2.57397 4.95313,-3.76367c4.79785,-2.67236 9.7793,-3.83057 20.85425,-4.84888c5.96655,-0.54858 8.56665,-1.08398 11.1084,-2.28711c2.47266,-1.17041 4.11401,-3.03198 4.87109,-5.52563c0.41919,-1.37988 0.38354,-4.76245 -0.06763,-6.42114c-1.0376,-3.8147 -3.58398,-6.43701 -7.61743,-7.84497c-2.57568,-0.89917 -3.69849,-1.05957 -7.34644,-1.04932c-3.11377,0.00854 -3.41479,0.03589 -4.89771,0.44287c-4.13013,1.13403 -7.57373,3.03564 -8.7981,4.85864c-0.6731,1.0022 -0.60278,1.26953 0.54346,2.06812c1.25342,0.87329 1.91748,1.93164 2.17676,3.47021c0.52563,3.11621 -0.81201,5.78198 -3.54834,7.07129c-1.21729,0.57373 -2.31201,0.80103 -3.85596,0.80103c-3.8457,0 -7.03589,-2.43311 -8.18237,-6.24048c-0.37378,-1.2417 -0.37524,-4.13477 -0.00269,-5.66577c1.50879,-6.20142 7.04395,-11.70581 14.30859,-14.22974c5.84546,-2.03076 11.67236,-2.56567 18.05444,-1.65698c6.04907,0.86108 11.17554,3.09204 14.6189,6.36182c3.81177,3.61938 5.54858,7.88794 6.0564,14.88428c0.17749,2.44238 -0.06519,17.08545 -0.50659,30.57959c-0.1416,4.33032 -0.14063,6.01196 0.00391,7.2959c0.35205,3.12842 1.00854,4.87061 2.29419,6.08618c0.9834,0.93018 1.71289,1.20654 3.17456,1.20313c2.55542,-0.00586 4.03833,-1.59619 4.7793,-5.12476c0.2002,-0.9541 0.24316,-2.16333 0.22095,-6.20776c-0.03027,-5.5144 0.07861,-6.70508 0.73315,-8.00757c0.37305,-0.74243 0.56763,-0.93359 1.36841,-1.34302c0.84351,-0.43115 1.07153,-0.47607 2.36646,-0.46631c2.42773,0.0188 3.80835,0.91064 4.4541,2.8772c0.26904,0.82007 0.29468,1.42163 0.27783,6.51221c-0.01831,5.55347 -0.16821,7.98022 -0.63257,10.24805c-1.12329,5.48682 -4.82617,8.88159 -10.72388,9.83154c-1.84814,0.29761 -5.85156,0.25757 -7.56323,-0.07593c-5.26978,-1.02637 -8.82446,-4.01758 -10.13184,-8.52612c-0.14746,-0.5083 -0.31738,-0.86377 -0.37769,-0.78979c-0.0603,0.07373 -0.51099,0.66748 -1.00171,1.31909c-3.50391,4.65405 -9.04346,7.62231 -16.04956,8.59937c-2.18188,0.30444 -6.53711,0.42773 -8.70288,0.24658zm9.22778,-9.78857c4.58984,-0.98901 7.88428,-2.72656 10.625,-5.604c2.12622,-2.23218 3.41846,-4.79907 4.14185,-8.22754c0.27271,-1.29224 0.35889,-2.49146 0.47632,-6.63306c0.07861,-2.78052 0.18945,-5.90308 0.24634,-6.93896l0.10303,-1.8833l-0.75879,0.66797c-1.02295,0.90015 -2.75171,1.96069 -4.26563,2.61646c-2.83008,1.22607 -6.03784,1.8667 -12.70093,2.53711c-5.79028,0.58276 -8.32446,1.06592 -10.87109,2.07349c-3.81958,1.51099 -6.16577,4.10425 -6.91919,7.64722c-0.34644,1.62939 -0.22583,4.55615 0.25024,6.0769c1.31738,4.20801 4.76416,6.86206 10.26025,7.90063c1.85132,0.34985 7.33716,0.21411 9.4126,-0.23291z"/>
		<path stroke="null" fill="#ffffff" d="m-3368.13257,-2962.97754c-1.82056,-0.31616 -2.70532,-1.74707 -3.24731,-3.26587c-0.39331,-1.10156 -0.31055,-2.81689 0.18286,-3.79565c0.83569,-1.65796 2.21851,-2.43359 4.46899,-2.4187c0,0 6.08008,-0.05762 6.08008,-0.05762c1.39893,0.01147 1.52539,-0.01563 2.17969,-0.46997c1.11401,-0.77368 1.24268,-2.2478 1.6355,-5.20654c0.11865,-0.89331 0.20874,-6.54395 0.26147,-17.83936c0,0 -0.05713,-26.58105 -0.05713,-26.58105c-0.35938,-1.70459 -0.93481,-2.80688 -1.74023,-3.3335c-0.60742,-0.39697 -0.78882,-0.4314 -2.21289,-0.4209c0,0 -6.1189,0.03247 -6.1189,0.03247c-2.2854,0.02271 -3.67676,-0.76782 -4.52026,-2.47241c-0.39844,-0.80493 -0.42871,-1.00073 -0.36377,-2.35938c0.05688,-1.19312 0.15259,-1.63794 0.49121,-2.28296c0.53271,-1.01538 1.28223,-1.72632 2.31348,-2.19458c0.69971,-0.31738 1.04346,-0.36401 2.51294,-0.33984c0,0 17.02246,-0.0332 17.02246,-0.0332c0.72852,-0.021 1.31519,0.06982 1.70093,0.27588c1.20508,0.64429 1.89917,1.8772 2.17627,3.86572c0.1189,0.85449 0.17456,9.91138 0.17456,28.46216c0,17.71509 0.05737,26.88525 0.16431,27.44727c0.24487,1.28589 0.90381,2.49609 1.6499,3.03027c2.44604,0.96704 5.07373,0.06372 7.72363,0.49219c1.82568,0.07886 2.53979,0.36792 3.49805,1.41675c0.86523,0.94678 1.12256,1.63452 1.13672,3.03857c0.01001,1.00488 -0.06201,1.35059 -0.43872,2.10889c-0.79395,1.59839 -2.49438,2.58521 -4.50806,3.04663c-0.98633,0.53857 -30.98633,0.53857 -32.16577,-0.14526z"/>
		<path stroke="null" fill="#000000" d="m-3354.2085,-3043.72168c-3.24219,-0.77734 -5.87769,-3.4126 -6.75928,-6.75854c-1.17163,-4.44653 1.44409,-9.2439 5.85889,-10.74536c6.56982,-2.23438 13.1958,3.10059 12.23071,9.84766c-0.76489,5.34546 -6.05591,8.9209 -11.33032,7.65625z"/>
		<path stroke="null" fill="#ffffff" d="m-3494.12988,-2962.97754c-1.47729,-0.5293 -2.67432,-1.74707 -3.21021,-3.26587c-0.38867,-1.10156 -0.30688,-2.81689 0.18091,-3.79565c0.83643,-1.67871 2.22754,-2.45288 4.50171,-2.41772c0,0 5.59521,0.15454 8.05786,-0.94653c1.10132,-0.77368 1.573,-2.24756 1.96143,-5.20654c0.11719,-0.89307 -0.08789,-17.42139 -0.08789,-17.42139c0,0 -0.03174,-26.56177 -0.03174,-26.56177c-0.35522,-1.70435 -0.92407,-2.80664 -1.72021,-3.33325c-0.60034,-0.39697 -0.77979,-0.43164 -2.18774,-0.4209c0,0 -6.06934,0.01318 -6.06934,0.01318c-2.24683,0.01758 -3.61621,-0.77319 -4.44751,-2.47266c-0.3938,-0.80493 -0.42383,-1.00073 -0.35962,-2.35938c0.05615,-1.19312 0.15088,-1.63794 0.4856,-2.28296c0.52661,-1.01538 1.26758,-1.72632 2.28711,-2.19458c0.69141,-0.31738 1.03125,-0.36401 2.48389,-0.33984c0,0 18.36035,-0.44312 19.00342,0.62744c1.19116,0.64429 1.38232,1.49243 1.65601,3.48096c0.11768,0.85449 0.17261,9.91138 0.17261,28.46216c0,17.71509 0.03394,26.34253 0.13965,26.90454c0.24219,1.28589 0.89331,2.49609 1.63086,3.03027c0.72998,1.18433 7.65771,1.03491 7.65771,1.03491c1.80469,0.07886 2.51074,0.36792 3.45825,1.41675c0.85522,0.94678 1.10938,1.63452 1.12329,3.03857c0.01001,1.00488 -0.06104,1.35059 -0.43335,2.10889c-0.78491,1.59839 -2.36475,2.67822 -4.45654,3.04663c-1.52954,0.55396 -31.39209,0.81348 -31.79614,-0.14526z"/>
		<path stroke="null" fill="#ffffff" d="m-3539.41309,-2963.11475c-1.88672,-0.40552 -3.21582,-1.34448 -3.94482,-2.78735c-0.41528,-0.82202 -0.48608,-1.13599 -0.48608,-2.15796c0,-0.97314 0.07642,-1.3479 0.40967,-2.00903c1.10498,-2.19312 3.12524,-2.56299 7.06152,-2.56299c0,0 4.90063,0.10254 5.84546,-0.95605c0.77808,-1.1001 1.10474,-1.86084 1.51953,-4.48047c0.20044,-1.26538 0.24585,-4.83813 0.30566,-30.21533c0,0 -0.01782,-35.02295 -0.49805,-37.7124c-0.47998,-2.6897 -1.40967,-4.06396 -2.43262,-4.34497c-1.02295,-0.28101 -4.45728,-0.27539 -4.45728,-0.27539c0,0 -4.05005,0.0791 -4.05005,0.0791c-1.49048,0.00098 -1.66553,-0.03296 -2.61084,-0.50732c-1.67456,-0.84058 -2.35791,-2.00879 -2.35645,-4.02979c0.00098,-1.30273 0.47437,-2.34009 1.48828,-3.26074c1.24414,-1.12964 2.80591,-1.68408 4.93311,-1.68433c0,0 16.6792,0.04102 16.6792,0.04102c2.16626,-0.01563 3.01514,0.57202 3.59033,2.48462c0.26416,0.87866 0.28589,3.2251 0.3728,40.36841c0.08203,35.15601 -0.04712,38.56616 0.17627,39.63257c0.61401,2.92749 1.19067,3.99414 2.46021,4.54956c2.42676,0.57764 6.25708,0.1897 7.38452,0.1748c1.12744,-0.01514 3.78369,1.06396 4.64526,2.73267c0.60449,1.1709 0.60352,2.80518 -0.00269,4.02979c-0.51978,1.05029 -1.42407,1.90381 -2.56299,2.41968c-1.89209,0.85669 -8.86353,0.71118 -8.86353,0.71118c0,0 -23.18237,-0.03955 -23.18237,-0.03955c-0.30469,-0.00708 -0.94556,-0.09692 -1.42407,-0.19971z"/>
		<path stroke="null" fill="#ffffff" d="m-3416.71997,-2961.25269c-8.10327,-0.71753 -13.66479,-3.62329 -17.3147,-9.04688c-0.51685,-0.76807 -0.77368,-1.4729 -0.80542,-1.56641c0,0 0.01001,1.4231 0.01001,1.4231c0.04517,1.83936 0.1604,3.98877 -0.28784,4.97827c-0.55933,1.23486 -0.9502,1.64697 -2.08325,2.19482c-1.00195,0.48462 -1.18384,0.51953 -2.68408,0.51538c-2.40186,-0.00659 -3.45215,-0.54932 -4.26709,-2.20435c-0.20117,-0.40845 -0.24585,-6.02783 -0.32593,-40.94409c0,0 -0.26636,-40.21851 -0.26636,-40.21851c-0.14209,-2.41699 -0.68726,-4.3938 -1.90381,-4.83032c-1.17725,-0.27954 -2.15796,-0.34937 -8.22363,-0.39063c-1.5332,0.0271 -2.67456,-0.31396 -3.53271,-1.03564c-0.98462,-0.82813 -1.47827,-1.9353 -1.47827,-3.31567c0,-1.87476 0.73755,-3.30566 2.20752,-4.28345c0.98755,-0.65698 2.10425,-0.96484 3.54419,-0.93237c0,0 17.32129,0.04517 17.32129,0.04517c1.42822,-0.02197 1.68994,0.01636 2.08765,0.30469c0.98779,0.71631 0.93237,-0.26929 0.98169,17.45996c0.0249,8.9165 0.10376,16.21191 0.17554,16.21191c0.07178,0 0.44653,-0.37256 0.83276,-0.82837c4.28564,-5.05396 9.1189,-7.90381 15.22949,-8.97949c2.49048,-0.43823 7.69434,-0.4729 10.52881,-0.06982c8.72876,1.24097 15.2146,5.02661 20.11938,11.74268c1.12305,1.53735 2.93066,4.90601 3.78345,7.04956c4.12646,10.37549 3.90283,25.44019 -0.54028,36.40039c-4.6665,11.51147 -13.28223,18.50024 -24.75708,20.08276c-2.17676,0.30029 -6.31274,0.41772 -8.35132,0.2373zm8.14795,-9.83105c6.49829,-1.62476 11.16382,-5.8606 13.94189,-12.65747c1.89038,-4.62573 2.65649,-8.67456 2.78931,-14.74585c0.12817,-5.85229 -0.43994,-10.23242 -1.90161,-14.65942c-2.11401,-6.40259 -5.83813,-10.82715 -10.92798,-12.98291c-2.42578,-1.02734 -4.28296,-1.4021 -7.43457,-1.49976c-3.0708,-0.09546 -4.5481,0.09497 -7.02197,0.90503c-4.88965,1.60107 -9.45728,5.47314 -11.60962,9.84204c-2.05566,4.17236 -2.79883,8.0354 -2.9231,15.19458c-0.14478,8.34009 0.45483,13.60913 2.11572,18.58398c1.15723,3.46558 2.19775,5.22021 4.38257,7.3894c2.50879,2.49121 5.42847,3.98511 9.47949,4.85083c1.17334,0.25049 1.89746,0.28979 4.45239,0.24023c2.61328,-0.05054 3.28223,-0.1167 4.65747,-0.46069z"/>
	</g>
</svg>