<svg xmlns="http://www.w3.org/2000/svg" width="128" height="64"><g fill-rule="evenodd"><path d="M79.108 42.67c-7.28 5.495-17.83 8.427-26.916 8.427-12.738 0-24.206-4.825-32.882-12.85-.682-.63-.07-1.49.747-1 9.363 5.58 20.94 8.936 32.898 8.936 8.066 0 16.938-1.71 25.096-5.255 1.24-.536 2.27.827 1.06 1.742m3.03-3.546c-.927-1.217-6.15-.575-8.496-.29-.715.09-.824-.547-.18-1.005 4.16-3 10.987-2.14 11.783-1.13.796 1.01-.207 8.02-4.117 11.36-.6.512-1.173.24-.906-.44.88-2.247 2.848-7.28 1.916-8.5" fill="#f90"/><path d="M73.803 16.66v-2.916c0-.44.327-.737.72-.737h12.743c.41 0 .737.302.737.737v2.496c-.006.42-.35.966-.96 1.832l-6.604 9.655c2.45-.06 5.04.313 7.262 1.597.502.29.638.715.676 1.134v3.11c0 .425-.458.922-.938.665-3.92-2.106-9.128-2.335-13.463.022-.44.246-.906-.246-.906-.67V30.63c0-.474.007-1.284.47-2.004l7.65-11.235h-6.65c-.41 0-.737-.29-.737-.73M27.315 34.85h-3.877c-.37-.028-.666-.313-.693-.676V13.797c0-.408.333-.732.747-.732h3.616c.376.017.676.313.703.68v2.665h.078c.943-2.575 2.716-3.776 5.104-3.776 2.427 0 3.943 1.2 5.033 3.775.938-2.58 3.07-3.78 5.355-3.78 1.625 0 3.403.686 4.488 2.23 1.227 1.713.976 4.204.976 6.39l-.004 12.86c0 .405-.333.735-.747.735H44.22c-.387-.03-.698-.347-.698-.738v-10.8c0-.86.075-3.005-.11-3.82-.29-1.37-1.156-1.754-2.28-1.754-.94 0-1.92.64-2.32 1.67-.396 1.026-.36 2.746-.36 3.902v10.8c0 .405-.33.735-.745.735H33.83c-.39-.03-.697-.346-.697-.737l-.005-10.8c0-2.273.365-5.618-2.39-5.618-2.785 0-2.676 3.26-2.676 5.617v10.8c0 .407-.333.737-.747.737m71.66-22.218c5.752 0 8.866 5.06 8.866 11.492 0 6.214-3.44 11.145-8.86 11.145-5.65 0-8.725-5.057-8.725-11.36 0-6.345 3.114-11.276 8.725-11.276m.032 4.16c-2.857 0-3.037 3.986-3.037 6.47 0 2.49-.04 7.808 3.003 7.808 3.005 0 3.147-4.29 3.147-6.903 0-1.72-.07-3.775-.577-5.406-.437-1.418-1.304-1.97-2.536-1.97m16.29 18.057h-3.86c-.387-.027-.698-.345-.698-.736l-.006-20.382c.033-.375.355-.665.748-.665h3.593c.336.017.614.25.69.57v3.116h.07c1.087-2.79 2.608-4.12 5.286-4.12 1.74 0 3.435.642 4.526 2.4 1.02 1.632 1.02 4.374 1.02 6.345v12.825c-.045.357-.366.642-.748.642h-3.89c-.353-.028-.65-.296-.685-.642v-11.06c0-2.227.25-5.49-2.428-5.49-.943 0-1.81.65-2.24 1.63-.546 1.247-.617 2.487-.617 3.86V34.11c-.006.407-.344.737-.76.737M63.65 25.114c0 1.546.04 2.836-.725 4.21-.617 1.117-1.6 1.804-2.684 1.804-1.486 0-2.36-1.162-2.36-2.876 0-3.384 2.96-3.998 5.77-3.998v.86m3.91 9.677c-.256.24-.627.258-.916.1-1.287-1.093-1.52-1.6-2.225-2.645-2.127 2.223-3.638 2.887-6.39 2.887-3.268 0-5.804-2.06-5.804-6.187 0-3.224 1.7-5.42 4.13-6.49 2.106-.95 5.045-1.118 7.29-1.38v-.514c0-.944.07-2.06-.473-2.876-.47-.73-1.376-1.032-2.178-1.032-1.477 0-2.79.777-3.112 2.385-.066.358-.322.71-.677.726l-3.754-.412c-.316-.07-.67-.334-.58-.83.864-4.67 4.986-6.076 8.67-6.076 1.89 0 4.354.514 5.84 1.977 1.89 1.805 1.71 4.21 1.71 6.83v6.188c0 1.86.75 2.678 1.46 3.68.247.36.3.79-.015 1.058-.79.678-2.197 1.935-2.97 2.638l-.007-.01M12.82 25.12c0 1.547.04 2.837-.724 4.21-.615 1.118-1.59 1.805-2.682 1.805-1.49 0-2.356-1.163-2.356-2.877 0-3.384 2.964-3.998 5.767-3.998v.86m3.91 9.677c-.257.237-.628.253-.917.097-1.287-1.095-1.516-1.603-2.225-2.647-2.127 2.222-3.632 2.886-6.39 2.886-3.262 0-5.803-2.06-5.803-6.187 0-3.223 1.71-5.42 4.134-6.49 2.105-.95 5.044-1.117 7.29-1.38v-.513c0-.945.072-2.06-.468-2.877-.475-.73-1.38-1.03-2.177-1.03-1.48 0-2.8.775-3.12 2.383-.066.356-.32.71-.67.724l-3.76-.414c-.32-.07-.67-.334-.58-.83.865-4.67 4.982-6.076 8.67-6.076 1.885 0 4.35.514 5.84 1.977 1.885 1.806 1.705 4.21 1.705 6.83v6.19c0 1.86.754 2.676 1.463 3.68.25.36.303.79-.013 1.056-.79.676-2.197 1.933-2.97 2.636l-.01-.01" fill="#221f1f"/></g></svg>