<svg xmlns="http://www.w3.org/2000/svg" width="128" height="64"><g fill-rule="evenodd"><path d="M79.108 42.67c-7.28 5.495-17.83 8.427-26.916 8.427-12.738 0-24.206-4.825-32.882-12.85-.682-.63-.07-1.49.747-1 9.363 5.58 20.94 8.936 32.898 8.936 8.066 0 16.938-1.71 25.096-5.255 1.24-.536 2.27.827 1.06 1.742m3.03-3.546c-.92-1.217-6.15-.575-8.49-.29-.712.09-.82-.547-.18-1.005 4.16-3 10.99-2.14 11.786-1.13.796 1.01-.207 8.02-4.117 11.36-.6.51-1.173.24-.906-.44.88-2.25 2.85-7.28 1.917-8.5" fill="#f90"/><path d="M73.803 16.66v-2.916c0-.44.327-.737.72-.737h12.743c.41 0 .737.302.737.737v2.496c-.006.42-.35.966-.96 1.832l-6.604 9.655c2.45-.06 5.04.313 7.26 1.597.5.29.64.715.67 1.134v3.11c0 .425-.46.922-.94.665-3.92-2.106-9.13-2.335-13.463.022-.44.246-.906-.246-.906-.67V30.63c0-.474.008-1.284.47-2.004l7.65-11.235h-6.65c-.41 0-.736-.29-.736-.73m-46.48 18.19H23.44c-.37-.027-.667-.312-.694-.675V13.797c0-.408.333-.732.747-.732h3.616c.37.017.67.313.7.68v2.665h.08c.94-2.575 2.712-3.776 5.1-3.776 2.427 0 3.943 1.2 5.033 3.775.937-2.58 3.07-3.78 5.354-3.78 1.626 0 3.404.68 4.49 2.23 1.226 1.71.975 4.2.975 6.39l-.005 12.86c0 .4-.33.73-.744.73h-3.88c-.387-.03-.698-.35-.698-.74V23.3c0-.86.075-3.004-.11-3.82-.29-1.37-1.156-1.753-2.28-1.753-.94 0-1.92.64-2.32 1.67-.396 1.026-.36 2.746-.36 3.902v10.8c0 .4-.33.73-.745.73h-3.87c-.39-.03-.697-.346-.697-.737l-.005-10.8c0-2.274.365-5.62-2.39-5.62-2.785 0-2.676 3.26-2.676 5.618v10.8c0 .407-.333.737-.747.737m71.66-22.218c5.752 0 8.866 5.06 8.866 11.49 0 6.214-3.44 11.145-8.86 11.145-5.65 0-8.72-5.06-8.72-11.36 0-6.347 3.118-11.278 8.73-11.278m.032 4.16c-2.857 0-3.037 3.987-3.037 6.47 0 2.49-.04 7.81 3.003 7.81 3.005 0 3.147-4.29 3.147-6.904 0-1.72-.07-3.776-.58-5.407-.437-1.418-1.304-1.97-2.536-1.97m16.29 18.057h-3.86c-.388-.027-.7-.345-.7-.736l-.006-20.38c.03-.375.354-.665.747-.665h3.59c.337.018.615.25.69.57v3.117h.07c1.088-2.79 2.61-4.12 5.287-4.12 1.74 0 3.435.642 4.526 2.4 1.02 1.632 1.02 4.374 1.02 6.345v12.83c-.04.356-.362.64-.744.64h-3.89c-.355-.027-.65-.295-.687-.64V23.13c0-2.227.25-5.49-2.43-5.49-.942 0-1.81.65-2.24 1.63-.545 1.247-.616 2.487-.616 3.86v10.98c-.006.407-.344.737-.76.737M63.65 25.114c0 1.546.04 2.836-.725 4.21-.617 1.117-1.6 1.804-2.684 1.804-1.48 0-2.36-1.162-2.36-2.876 0-3.384 2.96-3.998 5.77-3.998v.86m3.91 9.677c-.25.24-.62.26-.91.1-1.284-1.09-1.52-1.6-2.222-2.64-2.126 2.227-3.637 2.89-6.39 2.89-3.267 0-5.803-2.06-5.803-6.186 0-3.224 1.7-5.42 4.13-6.49 2.106-.95 5.045-1.12 7.29-1.38v-.514c0-.945.07-2.06-.473-2.877-.47-.73-1.376-1.034-2.18-1.034-1.476 0-2.79.775-3.11 2.383-.067.36-.323.71-.678.728l-3.754-.41c-.316-.07-.67-.334-.58-.83.864-4.67 4.986-6.076 8.67-6.076 1.89 0 4.354.513 5.84 1.976 1.89 1.805 1.71 4.21 1.71 6.83v6.188c0 1.86.75 2.678 1.46 3.68.247.36.3.79-.015 1.058-.79.68-2.2 1.936-2.97 2.64l-.01-.01M12.82 25.12c0 1.547.04 2.837-.724 4.21-.615 1.118-1.59 1.805-2.682 1.805-1.49 0-2.356-1.163-2.356-2.877 0-3.384 2.964-3.998 5.767-3.998v.86m3.91 9.677c-.257.237-.628.253-.917.097-1.287-1.095-1.516-1.603-2.225-2.647-2.127 2.222-3.632 2.886-6.39 2.886-3.262 0-5.803-2.06-5.803-6.187 0-3.223 1.71-5.42 4.134-6.49 2.105-.95 5.044-1.117 7.29-1.38v-.513c0-.945.072-2.06-.468-2.877-.475-.73-1.38-1.03-2.177-1.03-1.48 0-2.8.775-3.12 2.383-.07.35-.32.71-.67.72l-3.76-.42c-.32-.07-.67-.334-.58-.83.86-4.67 4.98-6.076 8.67-6.076 1.88 0 4.35.514 5.84 1.977 1.88 1.807 1.7 4.21 1.7 6.83v6.19c0 1.86.75 2.677 1.46 3.68.25.36.302.79-.014 1.057-.79.676-2.197 1.933-2.97 2.636l-.01-.01" fill="#221f1f"/></g></svg>