<?xml version="1.0" encoding="UTF-8" standalone="no"?>

<svg xmlns:svg="http://www.w3.org/2000/svg" xmlns="http://www.w3.org/2000/svg" version="1.1" width="128" height="64" xmlns:xlink="http://www.w3.org/1999/xlink">
	<g>
		<path fill="#000000" d="m8.1348,63.39875l112.42374,0l0,-62.78368l-112.42374,0l0,62.78368zm5.50958,-57.27622l101.40673,0l0,51.76877l-101.40673,0l0,-51.76877z"/>
		<g transform="matrix(2.1479921399360435,0,0,-2.1479921399360435,618.3391726639175,283.9297135122872) ">
			<path fill="#000000" d="m-255.78238,123.31345c0,0 -2.03497,-7.676 -2.20297,-8.495l-2.21899,8.495l-4.203,0l0,-11.782l2.75101,0l0,8.66199l2.40201,-8.66199l2.53799,0c0,0 2.34395,8.39 2.40193,8.644l0,-8.644l2.76201,0l0,11.782l-4.22998,0z"/>
		</g>
		<g transform="matrix(2.1479921399360435,0,0,-2.1479921399360435,596.6526144206952,305.2042868630698) ">
			<path fill="#000000" d="m-255.78238,123.31345l0,6.142c0,1.25101 -0.02301,2.34 -1.39096,3.174c-1.02002,0.604 -2.36301,0.742 -3.47601,0.742c-0.741,0 -3.5,0 -4.612,-2.01599c-0.36301,-0.65601 -0.41599,-1.136 -0.461,-1.69801l-0.00101,0l0.00101,0l0,-0.002l2.849,0.002l0,0c0.004,0.26001 0.03799,0.52501 0.27701,0.817c0.27798,0.371 0.90298,0.74301 2.06299,0.74301c2.28702,0 1.94901,-2.30501 1.94901,-2.30501c0,0 -1.142,-0.017 -3.57199,-0.315c-1.12302,-0.13899 -2.897,-0.578 -3.73199,-2.24699c-0.23102,-0.465 -0.37003,-0.998 -0.37003,-1.578c0,-1.993 1.57602,-3.615 4.19501,-3.615c1.599,0 2.828,0.671 3.42999,1.183c0,-0.162 0.04703,-0.627 0.07101,-0.904l2.82697,0c-0.047,1.877 -0.047,0.995 -0.047,1.877m-2.77997,2.619c0,-0.34901 0,-0.695 -0.16299,-1.042c-0.30099,-0.69601 -1.298,-1.345 -2.71301,-1.345c-1.112,0 -1.87698,0.463 -1.87698,1.367c0,1.229 1.15198,1.503 2.151,1.628c1.25,0.15601 2.60199,0.203 2.60199,0.203l0,-0.811z"/>
		</g>
		<path fill="#000000" d="m104.22907,34.53078l-5.79313,0.01201c-0.17184,0.70025 -1.37899,5.26258 -5.89407,5.26258c-0.0665,0 -0.79266,0 -0.85706,-0.00171c-3.31869,-0.1031 -6.04232,-2.86327 -6.04232,-8.3106c0,-4.17783 2.10504,-7.93897 6.09173,-8.0292l0.80765,0c4.13058,0 5.57618,4.31964 5.65562,4.58383l5.79098,0.01718c-1.12124,-5.39361 -5.33988,-9.79914 -11.73445,-9.79914c-7.16788,0 -12.25861,5.91343 -12.25861,13.40563c0,8.5662 5.41293,13.44213 12.11686,13.44213c7.46426,0 11.33495,-5.70935 12.1168,-10.58316"/>
	</g>
</svg>