<svg xmlns="http://www.w3.org/2000/svg" width="128" height="64"><path d="M8.135 63.4H120.56V.614H8.134V63.4zm5.51-57.277H115.05V57.89H13.645V6.124zm55.275 12.93S64.55 35.54 64.19 37.3l-4.77-18.246h-9.028V44.36h5.91V25.756l5.16 18.606h5.45s5.035-18.02 5.16-18.566V44.36h5.933V19.054H68.92zM47.234 40.328V27.135c0-2.687-.05-5.026-2.988-6.818-2.19-1.297-5.075-1.594-7.466-1.594-1.592 0-7.518 0-9.907 4.33-.78 1.41-.893 2.44-.99 3.648h-.002.01v.01h6.12c.01-.55.08-1.12.6-1.75.6-.795 1.94-1.594 4.43-1.594 4.917 0 4.19 4.95 4.19 4.95s-2.453.038-7.672.678c-2.41.3-6.222 1.245-8.015 4.83-.496 1-.794 2.143-.794 3.39 0 4.28 3.385 7.764 9.01 7.764 3.435 0 6.075-1.44 7.37-2.54 0 .347.1 1.346.153 1.94h6.07c-.1-4.03-.1-2.137-.1-4.03m-5.97-5.63c0 .75 0 1.495-.35 2.24-.65 1.496-2.79 2.89-5.83 2.89-2.39 0-4.035-.994-4.035-2.936 0-2.64 2.476-3.227 4.62-3.496 2.687-.333 5.59-.434 5.59-.434v1.745zm62.964-.17l-5.794.012c-.17.7-1.38 5.264-5.893 5.264h-.86c-3.32-.103-6.046-2.864-6.046-8.31 0-4.178 2.108-7.94 6.094-8.03h.808c4.13 0 5.577 4.32 5.656 4.585l5.79.016c-1.12-5.393-5.337-9.8-11.732-9.8-7.167 0-12.26 5.915-12.26 13.407 0 8.57 5.415 13.444 12.12 13.444 7.464 0 11.334-5.71 12.116-10.583"/></svg>