<svg xmlns="http://www.w3.org/2000/svg" width="128" height="64"><path d="M8.135 63.4H120.56V.614H8.134V63.4zm5.51-57.277H115.05V57.89H13.645V6.124zm55.275 12.93S64.55 35.54 64.19 37.3l-4.77-18.246h-9.028V44.36h5.91V25.756l5.16 18.606h5.45s5.035-18.02 5.16-18.566V44.36h5.933V19.054H68.92zM47.234 40.328V27.135c0-2.687-.05-5.026-2.988-6.818-2.19-1.297-5.075-1.594-7.466-1.594-1.592 0-7.518 0-9.907 4.33-.78 1.41-.893 2.44-.99 3.648h-.002.01v.01l6.12-.002c.008-.557.08-1.127.595-1.754.597-.797 1.94-1.596 4.43-1.596 4.914 0 4.187 4.95 4.187 4.95s-2.453.038-7.672.678c-2.412.3-6.223 1.244-8.016 4.828a7.592 7.592 0 00-.794 3.39c0 4.28 3.385 7.765 9.01 7.765 3.435 0 6.075-1.44 7.368-2.54 0 .346.1 1.345.155 1.94h6.07c-.1-4.03-.1-2.138-.1-4.03m-5.97-5.63c0 .75 0 1.494-.35 2.24-.647 1.495-2.788 2.89-5.828 2.89-2.39 0-4.034-.995-4.034-2.937 0-2.64 2.476-3.228 4.62-3.497 2.687-.334 5.59-.435 5.59-.435v1.744zm62.966-.172l-5.794.013c-.17.7-1.38 5.263-5.893 5.263h-.857c-3.32-.104-6.045-2.865-6.045-8.312 0-4.177 2.107-7.94 6.093-8.03h.808c4.13 0 5.577 4.32 5.656 4.586l5.79.018c-1.12-5.393-5.337-9.8-11.732-9.8-7.167 0-12.26 5.915-12.26 13.407 0 8.57 5.415 13.445 12.12 13.445 7.464 0 11.334-5.71 12.116-10.582"/></svg>