<svg xmlns="http://www.w3.org/2000/svg" width="128" height="64"><path d="M13.47 51.818l-1.347 9.15H1.433L9.56 3.032h14.25l8.35 57.94H20.47l-.993-9.152H13.47zm3.214-29.6l-2.28 19.35h4.124L16.683 23.36" fill="#2da24a"/><path d="M33.857 19.718l4.347 16.86h3.42V3.03H37.92v17.497L34.355 3.03h-3.99v33.547h3.49zM43.905 3.03h9.264v33.547H43.9z" fill="#2da24a"/><path d="M79.107 19.718l18.812 4.046v12.813H55.59v-8.564h26.795L55.59 22.01v-5.664l26.225-5.26h-26.08V3.03h42.47v13.586z" fill="#8bc641"/><path d="M103.6 30.508l-.57 6.07h-3.51l3.277-33.547h4.53l3.277 33.55h-3.464l-.57-6.07h-2.97zm1.397-17.534l-1.283 13.488h2.566l-1.283-13.488" fill="#2da24a"/><path d="M126.566 29.968h-6.414V3.03h-7.98v33.547h14.394z" fill="#2da24a"/><path d="M40.982 38.507c5.725 0 6.77 3.012 6.77 4.65v5.228c0 1.466-.496 2.535-1.36 3.398-.863.864-2.367 1.518-3.68 1.518h-2.798v7.67h-6.27V38.51h7.338zm-1.068 4.41v5.798s1.404.307 2.016-.466c.533-.68.472-1.408.472-2.62s-.005-1.82-.718-2.36c-.713-.54-1.77-.36-1.77-.36zm21.236 13.35h-5.56v-17.76h-6.27v22.46h11.83zm9.12-10.25l1.284 7.688h-2.566l1.283-7.687zm-3.562-7.51l-4.703 22.46h6.128l.57-2.81h3.136l.57 2.81h6.12l-4.702-22.46h-7.126zm18.67 12.233l6.556 10.23h4.988V38.506h-5.7v10.748l-5.987-10.748H79.82V60.97h5.558zm25.272 5.798h-5.89v-4.99h5.89v-4.18h-5.89v-4.452h5.89v-4.41H98.49V60.97h12.16zm5.512 4.432h6.27V42.78h4.134v-4.273H112.17v4.274h3.992z" fill="#297c47"/></svg>