<?xml version="1.0" encoding="UTF-8" standalone="no"?>

<svg xmlns:svg="http://www.w3.org/2000/svg" xmlns="http://www.w3.org/2000/svg" version="1.1" width="128" height="64" xmlns:xlink="http://www.w3.org/1999/xlink">
	<g transform="matrix(0.15699043,0,0,0.14856662,1.4342118,3.0309205)">
		<path style="fill:#2da24a;stroke:none" d="m 76.667996,328.382 -8.582,61.599 -68.0859999449046,0 L 51.744996,4.2724598e-7 l 90.783004,0 L 195.713,389.981 l -74.463,0 -6.319,-61.599 -38.263004,0 z m 20.468,-199.225 -14.525,130.231 26.273004,0 -11.749004,-122.556" />
		<path d="m 206.529,112.321 27.688,113.476 21.788,0 0,-225.797 -23.603,0 0,117.768 L 209.706,0 l -25.418,0 0,225.797 22.241,0 z" style="fill:#2da24a;stroke:none" />
		<path d="m 270.53,0 59.008,0 0,225.797 -59.008,0 z" style="fill:#2da24a;stroke:none" />
		<path d="m 494.762,112.321 119.831,27.235 0,86.241 -269.622,0 0,-57.645 170.671,0 -170.671,-40.398 0,-38.128 167.039,-35.406 -166.132,0 0,-54.22 270.531,0 0,91.442 z" style="fill:#8bc641;stroke:none" />
		<path style="fill:#2da24a;stroke:none" d="m 650.786,184.947 -3.632,40.85 -22.369,0 L 645.665,4.2724596e-7 l 28.845,0 L 695.39,225.797 l -22.062,0 -3.63,-40.85 -18.912,0 z m 8.89,-118.017 -8.17,90.782 16.341,0 -8.171,-90.782" />
		<path d="m 797.065,181.316 -40.852,0 0,-181.316 -50.837,0 0,225.797 91.689,0 z" style="fill:#2da24a;stroke:none" />
		<path style="fill:#297c47;stroke:none" d="m 251.913,238.79 c 36.469,0 43.129,20.271 43.129,31.296 0,6.34 0,26.101 0,35.191 0,9.87 -3.166,17.063 -8.666,22.875 -5.5,5.812 -15.079,10.215 -23.435,10.215 -8.356,0 -17.83,0 -17.83,0 l 0,51.614 -39.945,0 0,-151.191 c 0.001,0 30.065,0 46.747,0 z m -6.802,29.676 0,39.036 c 0,0 8.939,2.062 12.841,-3.137 3.394,-4.523 3.003,-9.433 3.003,-17.604 0,-8.17 -0.032,-12.25 -4.572,-15.881 -4.538,-3.63 -11.272,-2.414 -11.272,-2.414 z" />
		<path d="m 380.376,358.339 -35.405,0 0,-119.549 -39.944,0 0,151.191 75.349,0 z" style="fill:#297c47;stroke:none" />
		<path style="fill:#297c47;stroke:none" d="m 438.477,289.346 8.17,51.743 -16.341,0 8.171,-51.743 z m -22.696,-50.556 -29.958,151.191 39.035,0 3.632,-18.93 19.973,0 3.632,18.93 39.035,0 -29.958,-151.191 -45.391,0 z" />
		<path d="m 534.705,321.12 41.76,68.861 31.773,0 0,-151.191 -36.312,0 0,72.343 -38.128,-72.343 -34.498,0 0,151.191 35.405,0 z" style="fill:#297c47;stroke:none" />
		<path d="m 695.69,360.155 -37.521,0 0,-33.588 37.521,0 0,-28.144 -37.521,0 0,-29.957 37.521,0 0,-29.676 -77.465,0 0,151.191 77.465,0 z" style="fill:#297c47;stroke:none" />
		<path d="m 730.794,389.981 39.944,0 0,-122.422 26.327,0 0,-28.769 -91.689,0 0,28.769 25.418,0 z" style="fill:#297c47;stroke:none" />
	</g>
</svg>
