<svg xmlns="http://www.w3.org/2000/svg" width="128" height="64"><path class="st0" d="M42.781 34.986c5.394-8.949 10.444-18.093 16.426-26.674 1.201-1.716 2.427-3.408 3.383-5.271.564-1.103.417-1.961-.343-2.525-.76-.564-1.74-.54-2.403-.466C43.37 1.374 26.968 12.382 26.821 28.244c.05 5.786 3.285 12.797 5.909 14.636 1.985 1.397 3.726 1.201 5.712-1.201 1.691-2.06 2.966-4.413 4.34-6.693zm46.777 6.693c1.961 2.402 3.727 2.574 5.712 1.2 2.648-1.838 5.86-8.85 5.909-14.635C101.032 12.382 84.655 1.374 68.205.05c-.662-.073-1.643-.073-2.403.466-.76.564-.907 1.422-.343 2.525.956 1.863 2.182 3.555 3.383 5.271 5.982 8.58 11.032 17.725 16.426 26.674 1.348 2.28 2.599 4.633 4.29 6.693zM67.101 28.17c-1.544-.245-2.746-.245-3.089-.27-.343 0-1.544.025-3.089.27-9.046 1.349-15.322 6.448-19.22 14.538-1.986 4.144-1.104 6.987 2.476 9.807.22.171.416.319.637.49.662.441 1.3.858 1.937 1.275 9.365 6.129 12.797 8.286 14.195 8.924.564.27 1.593.76 2.99.784h.148c1.397-.024 2.402-.514 2.99-.784 1.374-.638 4.806-2.82 14.196-8.924.637-.417 1.275-.834 1.936-1.275.221-.171.417-.319.638-.49 3.58-2.82 4.462-5.663 2.476-9.807-3.898-8.09-10.174-13.19-19.22-14.538z" fill="#ff7328"/></svg>