<svg xmlns="http://www.w3.org/2000/svg" width="128" height="64"><path d="M25.05 16.776a10.177 10.177 0 002.24-7.31 10.185 10.185 0 00-6.666 3.45 9.44 9.44 0 00-2.394 6.949c2.6.103 5.148-1.055 6.82-3.089"/><path d="M25.05 16.596a10.275 10.275 0 002.24-7.155 10.185 10.185 0 00-6.666 3.449 9.44 9.44 0 00-2.394 6.95c2.651.076 5.174-1.133 6.82-3.244m2.189 3.68c-3.707-.231-6.872 2.111-8.571 2.111-1.699 0-4.478-2.007-7.438-1.956a10.925 10.925 0 00-9.317 5.714c-4.015 6.897-1.055 17.192 2.857 22.7 1.879 2.857 4.144 5.714 7.155 5.714s3.938-1.828 7.386-1.828c3.45 0 4.427 1.828 7.439 1.776 3.01-.051 5.044-2.857 6.923-5.559a24.4 24.4 0 003.088-6.383 10.039 10.039 0 01-5.97-9.24 10.243 10.243 0 014.89-8.57c-1.905-2.702-4.968-4.375-8.262-4.478m29.083-3.655v7.13h5.714v4.915h-5.714v16.73c0 2.599 1.132 3.808 3.68 3.808.695 0 1.364-.051 2.06-.154v4.89c-1.133.206-2.291.309-3.45.283-6.15 0-8.57-2.316-8.57-8.184V28.744h-4.324v-4.993H50.3v-7.13zM83.14 54.147H76.5L65.536 23.751h6.64l7.618 24.245 7.721-24.245h6.512zM128 35.925h-12.096V23.803h-5.765v12.122H98.094v5.688h12.045v12.2h5.765v-12.2H128z"/></svg>