<svg xmlns:svg="http://www.w3.org/2000/svg" xmlns="http://www.w3.org/2000/svg" width="128" height="64"><svg width="1000" height="171.356"><path d="M15.377 36.28l-2.556-1.706-2.832 4.33 5.388 3.593h5.151V21.3h-6.676L-.006 42.497H6.13l9.246-14.147zm15.327 6.631c-4.884 0-8.017-2.43-8.017-7.657V21.31h5.147v13.409c-.012 2.037 1.287 3.1 2.97 3.1 1.65 0 2.884-1.01 2.873-3.1v-13.41h5.143v13.824c0 5.377-3.098 7.778-8.116 7.778m16.097-.385h-5.933V21.311h6.465c6.408 0 9.56 3.212 9.56 10.456 0 7.637-3.364 10.76-10.092 10.76m1.2-16.737H46.02v12.287h1.84c2.427 0 3.86-1.315 3.86-6.218 0-4.843-1.3-6.069-3.717-6.069m10.919-4.457h5.16V42.5h-5.16zM95.41 21.3h-5.202v9.538c-1.668-2.922-5.764-9.519-5.764-9.519h-4.346v21.204H85.3V31.96c.64 1.238 6.178 10.54 6.178 10.54h3.92zm18.666 13.307h-5.365c-.258 2.874-1.314 3.705-2.87 3.718-1.963-.019-3.509-1.49-3.509-6.354 0-4.832 1.553-6.298 3.47-6.298h.079c1.537 0 2.591.849 2.84 3.78h5.354c-.036-1.364-.376-2.578-.668-3.379-1.365-3.375-3.81-5.042-7.567-5.042-5.536 0-8.63 3.616-8.63 10.999 0 7.138 2.735 10.937 8.556 10.937h.151c3.595 0 5.808-1.451 7.192-4.243.27-.598.916-2.215.967-4.118m-42.8 3.584V25.635h6.774V21.3H66.133v21.227h11.89v-4.336zm49.956 0V25.635h6.774V21.3h-11.915v21.227h11.889v-4.336z"/><path d="M72.463 29.54h4.946v4.306h-4.946zm49.956 0h4.947v4.306h-4.947z"/></svg></svg>