<svg xmlns="http://www.w3.org/2000/svg" width="128" height="64"><path d="M69.34 37.323c0 3.955-4.922 3.72-4.922 3.72h-4.921v-7.147h4.921c5.068-.03 4.921 3.427 4.921 3.427M59.497 23h3.75c3.895.205 3.749 3.105 3.749 3.105 0 3.603-4.306 3.662-4.306 3.662h-3.193zm8.934 8.173s3.37-1.436 3.34-5.244c0 0 .512-6.24-7.756-7.001H54.84v26.16h10.517s8.788.029 8.788-7.383c0 0 .205-5.038-5.713-6.532M44.687 13.8h38.626v36.398H44.687zM24.798 37.323c0 3.955-4.922 3.72-4.922 3.72h-4.921v-7.147h4.921c5.068-.03 4.922 3.427 4.922 3.427M14.955 23h3.75c3.896.205 3.75 3.105 3.75 3.105 0 3.603-4.307 3.662-4.307 3.662h-3.193zm8.935 8.173s3.368-1.436 3.34-5.244c0 0 .511-6.24-7.756-7.001h-9.177v26.16h10.517s8.788.029 8.788-7.383c0 0 .205-5.038-5.712-6.532M.146 13.8H38.77v36.398H.146zM119.974 20.802v4.834s-4.716-2.9-9.93-2.96c0 0-9.726-.19-10.165 9.324 0 0-.352 8.751 10.047 9.25 0 0 4.365.527 10.282-3.252v5.009s-7.938 4.716-17.137 1.084c0 0-7.733-2.826-8.026-12.091 0 0-.323-9.528 9.99-12.692 0 0 2.753-1.055 7.703-.586 0 0 2.959.293 7.236 2.08M89.229 50.2h38.625V13.801H89.23z"/></svg>