<svg xmlns="http://www.w3.org/2000/svg" width="128" height="64"><g stroke="null"><path fill="#005E70" d="M20.03 64.02V-.02h87.94v64.04"/><path d="M78.264 15.134c-.05-.01-.098-.02-.15-.026l-.06-.01c-.086-.012-.174-.02-.26-.027l-.18-.01c-.103-.005-.21-.005-.31-.005h-.12c-.08 0-.164.006-.245.01-.05 0-.1.005-.14.01-.07.005-.138.014-.2.024l-.05.005-.06.007-.077.01-.092.016-.134.028c-.258.06-.504.13-.73.22-.117.046-.23.09-.337.147-.085.045-.17.09-.25.136-.08.05-.155.092-.234.142l-.12.084-.104.074c-.07.054-.14.11-.2.167-.062.055-.12.108-.172.16l-.136.147c-.048.05-.088.1-.132.15-.05.06-.09.12-.135.18-.035.043-.064.09-.09.137-.027.033-.046.064-.065.096-.115.192-.22.393-.3.61-.104.27-.183.564-.224.872-.013.097-.023.197-.03.298-.005.08-.005.158-.005.236v.176l.02.183.004.04.034.213c.01.026.01.054.02.08l.04.17c.025.073.044.145.066.214.033.084.06.166.096.25.053.127.11.25.176.366.04.065.076.132.117.2.033.05.067.1.096.146.047.06.09.12.135.18.048.06.1.12.143.17.063.07.116.133.18.19l.03.03c.05.045.1.096.16.146.045.035.083.073.13.107.044.035.085.07.135.104l.18.123c.065.04.134.084.207.125.146.08.31.16.486.232.066.03.14.053.21.075.07.025.143.047.215.066.13.04.266.07.407.1.118.02.234.04.357.055.12.015.245.028.38.034.064.003.123.006.193.006h.09c.236 0 .45-.007.654-.026l.04-.003c.08-.004.16-.014.233-.023.116-.01.223-.03.326-.05.067-.01.13-.02.196-.04.094-.015.185-.04.27-.06.066-.02.13-.04.19-.053.068-.02.14-.046.204-.07l.066-.02c.03-.01.076-.025.127-.047.067-.028.15-.06.24-.1.057-.023.116-.048.176-.077l.17-.08c.023-.015.05-.024.07-.037v-1.43l-.05.034-.097.06c-.1.058-.19.115-.29.168-.103.054-.204.107-.307.154-.178.086-.345.156-.51.215-.313.11-.596.183-.85.227l-.09.015c-.07.01-.14.02-.2.023-.1.01-.194.016-.275.022h-.153c-.104 0-.204 0-.31-.01-.127-.01-.253-.02-.382-.044-.21-.032-.422-.082-.623-.16-.033-.007-.064-.02-.093-.033l-.057-.023-.097-.043c-.07-.033-.143-.07-.21-.106-.03-.022-.066-.04-.1-.063-.04-.02-.073-.043-.104-.065-.04-.027-.08-.055-.123-.087-.04-.037-.076-.068-.11-.096l-.05-.044-.023-.02-.016-.014-.016-.016c-.066-.064-.123-.13-.182-.193-.03-.036-.056-.07-.08-.11-.03-.033-.055-.07-.07-.106-.026-.03-.048-.067-.067-.1-.028-.05-.06-.1-.08-.153-.023-.04-.042-.085-.058-.126-.03-.07-.063-.142-.08-.212-.018-.054-.033-.108-.043-.16-.046-.15-.065-.287-.068-.404-.01-.045-.01-.086-.012-.124-.003-.056-.003-.107-.003-.148v-.088c.005-.085.01-.185.03-.305.01-.07.025-.15.044-.23l.048-.163.056-.155c.01-.033.03-.068.05-.106.02-.047.04-.097.065-.144.02-.038.04-.073.063-.11.046-.082.096-.164.16-.243.02-.03.043-.06.066-.09.03-.037.06-.074.097-.11.013-.02.032-.04.05-.056.265-.26.557-.46.86-.597.05-.022.097-.04.15-.06l.14-.053c.06-.016.11-.035.16-.05l.155-.038c.05-.01.098-.02.15-.028.06-.017.11-.02.166-.03.057-.01.114-.015.167-.02.103-.008.207-.014.308-.014h.098l.218.01c.055 0 .1.004.146.01l.26.03.214.04c.098.02.2.044.277.066.056.013.106.028.154.04l.176.058c.08.026.124.045.124.045.07.022.14.05.21.078.09.036.18.077.26.115.07.03.135.062.2.093l.14.074c.08.04.144.074.2.106l.146.08v-1.41s-.084-.034-.24-.09l-.232-.09c-.05-.015-.104-.034-.16-.053-.048-.013-.09-.03-.143-.045-.05-.02-.1-.034-.16-.053l-.125-.04-.04-.013c-.042-.01-.083-.023-.127-.035l-.152-.04c-.038-.01-.07-.016-.1-.025l-.17-.038c-.067-.01-.127-.022-.183-.03m-7.032-1.46H82.4v10.49H71.24V13.672zm-8.574 5.78v2.063h1.336s.03 0 .075-.004c.04 0 .103-.01.18-.01.146-.018.338-.04.524-.11.167-.055.33-.14.456-.266.048-.05.09-.1.12-.15.105-.163.133-.333.14-.427.003-.04.003-.066.003-.066v-.05c-.004-.04-.007-.116-.03-.2-.025-.096-.072-.21-.157-.316l-.053-.056c-.04-.035-.08-.07-.124-.1-.073-.055-.155-.1-.246-.14-.12-.053-.255-.09-.403-.12-.075-.015-.157-.025-.24-.034l-.153-.01c-.044-.003-.095-.006-.14-.006h-1.29zm0-3.134v1.955h.747c.045 0 .098 0 .146-.004.134-.008.316-.027.502-.077.037-.01.074-.023.11-.036.144-.05.282-.124.39-.23.087-.085.144-.176.182-.267.045-.113.06-.22.067-.295.006-.07.006-.11.006-.11s.003-.032-.003-.085c-.003-.086-.022-.225-.088-.357-.03-.062-.076-.125-.135-.185-.074-.07-.165-.123-.26-.17-.183-.076-.39-.11-.567-.12-.075-.007-.145-.007-.204-.007h-.896zM61.32 15.14v7.56h2.843s1.388.038 2.156-.727c.622-.626.58-1.347.58-1.347s.046-.758-.537-1.338c-.487-.49-1.117-.62-1.117-.62s.286-.135.504-.352c.095-.1.463-.43.463-1.226 0-.8-.54-1.263-.54-1.263s-.587-.69-1.903-.69h-2.46zm-2.926-1.47h11.15v10.493H58.39v-10.49zm-8.57 5.787v2.063h1.34s.026 0 .07-.004c.044 0 .107-.01.186-.01.146-.018.335-.04.52-.11.17-.055.334-.14.457-.266.047-.05.088-.1.122-.15.102-.163.13-.333.134-.427.007-.04.007-.066.007-.066v-.05c0-.04-.005-.116-.024-.2-.03-.096-.076-.21-.16-.316-.013-.02-.032-.037-.05-.056-.04-.035-.077-.07-.12-.1-.073-.055-.158-.1-.25-.14-.12-.053-.254-.09-.402-.12-.076-.015-.154-.025-.236-.034l-.157-.01c-.043-.003-.093-.006-.14-.006h-1.3zm0-3.134v1.955h.75c.043 0 .097 0 .144-.004.135-.008.318-.027.504-.077.036-.01.074-.023.11-.04.143-.05.282-.126.392-.233.086-.085.143-.176.18-.267.048-.116.063-.22.067-.298.006-.07.006-.11.006-.11s.003-.033 0-.086c-.006-.085-.022-.224-.09-.356-.033-.06-.077-.124-.137-.184-.07-.072-.16-.126-.25-.17-.184-.078-.395-.107-.57-.12-.077-.006-.146-.006-.206-.006h-.893zM48.47 15.14v7.56h2.846s1.388.038 2.153-.73c.622-.623.58-1.344.58-1.344s.042-.758-.534-1.338c-.49-.49-1.12-.623-1.12-.623s.283-.13.503-.35c.1-.1.462-.43.462-1.227 0-.802-.53-1.262-.53-1.262s-.585-.69-1.904-.69H48.47zm-2.923-1.47H56.7v10.493H45.55v-10.49zm-8.32 20.785h-5.673v-2.98H46.19v2.98h-5.675V49.99H37.22zm12.29-2.98h3.61l3.48 13.338h.05l4.157-13.338h3.242l4.08 13.338h.052l3.636-13.338h3.352L69.784 49.99H66.64l-4.29-14.097h-.05L58.01 49.99h-3.034zm36.9-.473c5.78-.103 9.855 3.768 9.855 9.704 0 5.78-4.074 9.643-9.852 9.75-5.707 0-9.786-3.868-9.786-9.65-.002-5.938 4.08-9.81 9.786-9.81m.023 16.477c3.843 0 6.376-2.927 6.376-6.88 0-3.686-2.538-6.616-6.378-6.616-3.82 0-6.36 2.93-6.36 6.617 0 3.958 2.54 6.88 6.36 6.88" fill="#fff"/></g></svg>