<svg xmlns="http://www.w3.org/2000/svg" width="128" height="64"><g stroke="null"><path fill="#9d0a0e" fill-rule="evenodd" d="M18.2-.463h91.6v68.926H18.2z"/><g fill="#fff"><path d="M66.773 24.613c0 .326-.1.654-.392.91-.29.254-.79.448-1.62.448h-1.68v-2.68h1.6c.75 0 1.28.153 1.61.39.33.237.48.55.485.94m-1.36-3.22c.314-.224.464-.543.466-1.02 0-.327-.094-.607-.33-.816-.236-.21-.637-.36-1.284-.36H63.08v2.55h.813c.704 0 1.21-.127 1.522-.353m3.165 3.413c.005-1.24-.822-2.185-2.146-2.548.357-.183.64-.406.847-.678.28-.365.41-.812.41-1.334 0-.64-.25-1.293-.79-1.782-.54-.487-1.36-.804-2.48-.803h-3.1v9.846h3.632c1.298 0 2.208-.352 2.794-.873.586-.52.838-1.2.837-1.83m3.453 4.61h-14.53V15.75H72.03v13.67zM48.68 21.4c.31-.224.463-.543.466-1.02 0-.327-.095-.607-.33-.816-.238-.21-.638-.36-1.287-.36h-1.19v2.55h.812c.703 0 1.208-.127 1.522-.353m.873 2.28c-.33-.236-.86-.39-1.61-.39h-1.6v2.688h1.676c.832 0 1.334-.192 1.625-.447.29-.256.392-.584.392-.91-.002-.39-.152-.703-.483-.94"/><path d="M51.842 24.81c.005-1.24-.824-2.185-2.146-2.548.357-.183.64-.406.846-.678.277-.365.41-.812.408-1.334 0-.64-.25-1.293-.792-1.782-.54-.488-1.362-.805-2.483-.804h-3.097v9.846h3.634c1.297 0 2.206-.352 2.792-.873.586-.518.84-1.2.838-1.826m3.452 4.61H40.767V15.75h14.527v13.67zm30.592-4.54l-.233.142c-1.125.687-2.35 1.055-3.46 1.054-2.38-.007-3.946-1.417-3.952-3.47.01-2.005 1.64-3.49 3.9-3.496 1.146 0 2.185.298 3.42.975l.226.124v-1.84l-.096-.038c-1.394-.55-2.47-.794-3.538-.794-1.646 0-3.075.543-4.093 1.466-1.02.923-1.626 2.226-1.62 3.723 0 1.043.43 2.264 1.35 3.234.92.97 2.33 1.68 4.272 1.68h.006c1.61 0 2.725-.36 3.734-.852l.087-.042V24.88zm2.885 4.543H74.25V15.75h14.52v13.67z"/></g><path d="M43.376 35.28h2.212v16.26h-2.002l-10.87-12.52v12.52H30.53V35.28h1.884l10.962 12.63V35.28zm6.406 0H59v2.072h-6.89v4.957h6.656v2.08H52.11v5.05h7.11v2.07h-9.438V35.28zm34.058 0h2.32l-6.573 16.33h-.51L73.76 38.387l-5.37 13.22h-.5L61.337 35.28h2.345l4.48 11.208 4.51-11.207h2.2l4.533 11.21 4.435-11.21zm8.627 9.447L90.7 43.652c-1.11-.678-1.9-1.344-2.37-2-.47-.655-.704-1.41-.704-2.263 0-1.288.444-2.32 1.333-3.12.88-.8 2.04-1.2 3.46-1.2 1.352 0 2.6.38 3.73 1.14v2.64c-1.17-1.127-2.432-1.69-3.782-1.69-.76 0-1.385.176-1.874.53-.49.35-.734.8-.734 1.35 0 .485.18.942.54 1.37.36.423.94.87 1.737 1.34l1.78 1.05c1.982 1.183 2.973 2.69 2.973 4.522 0 1.303-.436 2.362-1.308 3.177-.874.815-2.008 1.22-3.405 1.22-1.602 0-3.065-.49-4.384-1.48v-2.95c1.256 1.592 2.71 2.39 4.364 2.39.73 0 1.335-.204 1.82-.61.485-.406.727-.914.727-1.525 0-.99-.715-1.928-2.143-2.816" fill="#fff"/></g></svg>