<svg xmlns="http://www.w3.org/2000/svg" width="128" height="64"><g stroke="null"><path d="M76.52.173h19.096v17.882H76.52V.173zm2.88 8.694c-.002.165-.002.275-.002.44v.66c.056.11.056.22.056.385.06 0 .06.055.06.11 0 .11.056.22.056.275.06.165.06.275.116.385.06.165.117.275.167.44.11.22.22.386.276.606.11.11.16.22.22.33.05.11.11.165.16.275s.155.22.22.275c.112.11.162.22.28.33s.165.22.276.33l.056.055c.116.055.166.116.282.22.06.055.16.116.225.166.11.05.156.16.217.22.116.05.216.11.34.16.11.11.22.162.336.22.283.162.56.272.825.382.166.054.276.114.38.164.12.055.23.055.39.11l.66.165c.22.055.388.055.61.11.223 0 .444.055.666.055h.498c.387 0 .775 0 1.102-.055h.06c.167 0 .277 0 .383-.055.224 0 .384-.056.6-.056.117 0 .222-.058.34-.058.16-.058.336-.11.44-.11.117-.058.228-.058.34-.11.12-.058.223-.058.34-.11l.116-.058c.055 0 .166-.056.22-.056.112-.056.278-.11.444-.166.057-.056.16-.11.278-.166.116-.056.222-.056.277-.11.055-.056.116-.056.166-.056v-2.477c-.054.055-.054.055-.115.055l-.172.11c-.162.11-.334.22-.494.273-.166.11-.344.22-.51.277a11.1 11.1 0 0 1-.875.384c-.564.166-1.052.276-1.5.386h-.11a1.217 1.217 0 0 1-.394.053c-.166 0-.332 0-.443.054h-.274c-.166 0-.338 0-.565-.057-.16 0-.376 0-.6-.055-.385-.056-.717-.166-1.05-.276-.055 0-.11-.056-.16-.056s-.116-.056-.116-.056c-.058 0-.12-.056-.17-.056-.11-.055-.214-.11-.33-.165-.117-.056-.167-.11-.22-.11-.058-.056-.12-.11-.168-.11a.82.82 0 0 0-.22-.166c-.055-.055-.11-.11-.16-.165l-.122-.055V12.3l-.054-.054-.33-.33c-.056-.058-.11-.11-.11-.168-.057-.055-.118-.11-.168-.22 0-.055-.056-.11-.117-.166-.05-.057-.05-.167-.103-.22-.055-.11-.055-.167-.11-.22-.056-.167-.117-.277-.117-.387-.056-.11-.056-.165-.116-.275-.045-.277-.11-.497-.11-.66v-.66c0-.11 0-.278.065-.498 0-.11 0-.275.052-.385 0-.11.054-.166.054-.276.053-.11.053-.163.11-.273 0-.055.065-.11.065-.165.057-.11.11-.16.11-.27.057-.055.118-.11.118-.165.11-.164.215-.274.276-.44.056-.054.117-.11.117-.164.058-.055.16-.11.16-.165.058 0 .12-.054.12-.11.432-.44.942-.77 1.495-.99.053-.055.163-.055.22-.11.115-.055.165-.055.276-.11.055 0 .166-.055.28-.055.056-.058.16-.058.217-.058.116-.055.227-.055.282-.055.116-.056.226-.056.282-.056.11 0 .223-.054.28-.054h1.106c.054 0 .16 0 .22.054.155 0 .333 0 .44.057.114 0 .28 0 .385.055.163 0 .34.057.5.11.06 0 .16.057.217.057.115.054.226.054.342.11.114.054.164.054.164.054.16.054.277.11.377.164.168.054.284.11.445.164.116.055.22.11.337.165s.16.11.223.11c.16.053.277.163.376.22l.227.11V3.58s-.16-.056-.385-.11c-.118-.056-.284-.11-.444-.167-.077-.056-.182-.056-.304-.11-.053 0-.11-.056-.214-.056-.06-.055-.16-.055-.28-.11-.056 0-.11-.055-.217-.055H89.8c-.055-.056-.165-.056-.22-.11-.11 0-.16 0-.276-.056-.06 0-.116 0-.166-.056-.11 0-.16 0-.278-.056-.115 0-.22 0-.33-.055h-.23l-.11-.06c-.16 0-.278 0-.444-.057h-1.72c-.117.054-.217.054-.338.054h-.112l-.11.055h-.278c-.055.055-.116.055-.22.055-.444.11-.887.22-1.27.387-.165.054-.387.164-.564.22-.16.11-.277.165-.443.275-.11.055-.27.165-.37.22-.066.055-.166.11-.226.165-.056.055-.117.055-.16.11-.112.11-.223.165-.34.275-.093.11-.2.22-.314.277a.958.958 0 0 1-.223.273c-.055.056-.166.166-.22.276a1.284 1.284 0 0 0-.223.274c-.054.056-.115.166-.16.22-.06.056-.06.11-.116.166-.22.33-.387.66-.498 1.04-.223.447-.333.94-.39 1.49-.05.167-.05.33-.05.498zM61.785 4.685h1.883c.277.055.664.11.996.22.11.11.277.165.388.33.11.055.222.165.277.275.11.22.11.495.11.606.054.11.054.165.054.165s0 .06-.056.17c0 .168 0 .33-.116.498-.057.166-.168.33-.28.496-.22.165-.442.275-.72.385-.054 0-.11.055-.165.055-.33.11-.61.11-.83.165h-1.55V4.69zm0 8.858v-3.52H64c.055 0 .166.054.22.054h.278c.166 0 .277.055.388.055.277.055.498.11.72.22.166.055.282.11.443.22.05.055.11.11.16.165.053.055.053.055.114.11.16.165.216.385.282.55 0 .11.055.276.055.33v.22c-.057.166-.057.44-.284.716a.95.95 0 0 0-.16.275c-.22.165-.497.33-.83.44-.277.11-.61.165-.886.165h-2.72zM54.42.173h19.154v17.882H54.42V.173zm5.04 2.53V15.58h4.872s2.38.054 3.704-1.266c1.047-1.046 1.003-2.256 1.003-2.256s.06-1.32-.95-2.31C67.27 8.92 66.15 8.7 66.15 8.7s.498-.22.886-.604c.16-.165.824-.715.824-2.09s-.94-2.146-.94-2.146-1.003-1.156-3.267-1.156H59.46zM41.02 8.04h-1.328V4.686h1.883c.332.055.664.11.997.22.166.11.332.165.443.33.11.055.166.165.22.275.112.22.167.5.167.61v.33c0 .17-.055.33-.11.5-.056.165-.16.33-.333.495-.17.165-.39.275-.67.385-.058 0-.11.055-.168.055-.334.11-.666.11-.887.166h-.22zm-1.322 5.503v-3.52h2.27c.056 0 .11.054.222.054h.276s.277.055.388.055c.277.055.498.11.72.22.11.055.277.11.387.22.12.055.17.11.23.165l.11.11c.11.165.22.385.22.55.057.11.057.276.057.33v.22c0 .166-.055.44-.22.716-.056.055-.112.165-.222.275-.226.165-.5.33-.78.44-.332.11-.665.165-.886.165H39.7zM32.384.173h19.102v17.882H32.384V.173zm4.988 15.406H42.3s2.38.05 3.655-1.27c1.107-1.05.996-2.26.996-2.26s.12-1.32-.88-2.31c-.83-.825-1.94-1.046-1.94-1.046s.497-.22.885-.605c.166-.165.775-.715.775-2.09s-.89-2.143-.89-2.143S43.846 2.7 41.576 2.7H37.37l.004 12.875z"/><path d="M123.8 46.127l-.11-.837c-1.042-8.104-8.068-14.223-16.34-14.223-6.113 0-11.45 3.318-14.314 8.226a16.547 16.547 0 0 0-14.313-8.226c-5.233 0-9.9 2.432-12.935 6.218v-6.14H64.52c-5.254 0-9.94 2.46-12.95 6.277-3.013-3.906-7.752-6.437-13.074-6.437-3.543 0-6.882 1.073-9.65 3.048V22.32H21.9v34.596h-1.257c-5.282 0-9.574-4.242-9.574-9.436v-7.923h7.53v-6.822h-7.53v-10.42H4.2V47.48c0 9.007 7.375 16.336 16.445 16.336h8.2v-16.5c0-5.333 4.236-9.514 9.65-9.514 5.278 0 9.575 4.264 9.575 9.513V63.81h6.87V47.48c0-5.2 4.298-9.436 9.575-9.436h.698A16.203 16.203 0 0 0 62.2 47.48c0 9.007 7.403 16.336 16.517 16.336h13.345V57H78.717a10.61 10.61 0 0 1-2.12-.238l14.258-8.17c.575 8.49 7.746 15.235 16.49 15.235h13.343v-6.823h-13.344c-.714 0-1.43-.088-2.12-.236l17.84-10.207.736-.43m-53.327 6.22a9.6 9.6 0 0 1-1.33-4.87c0-5.345 4.22-9.51 9.574-9.51 3.5 0 6.71 1.89 8.328 4.793l-16.572 9.59zm28.626 0a9.51 9.51 0 0 1-1.33-4.862c0-5.34 4.196-9.512 9.572-9.512 3.493 0 6.71 1.888 8.327 4.793L99.1 52.342z" fill="#FF008D"/></g></svg>