<svg xmlns="http://www.w3.org/2000/svg" width="128" height="64"><g stroke="null"><path d="M-.558-1.607h129.116v67.214H-.558V-1.607z" fill="#c90302"/><path fill="#fff" d="M71.667 13.76h10.86v10.22h-10.86V13.76zm6.843 1.423c-.047-.006-.095-.016-.145-.022h-.06l-.25-.03-.176-.01c-.11-.01-.21-.01-.31-.01-.04 0-.07.007-.11.007-.09 0-.17.008-.24.014l-.14.01c-.07.004-.13.013-.19.02l-.06.01-.056.006-.074.01c-.03.007-.063.01-.09.016l-.13.027c-.26.06-.496.126-.715.212-.112.045-.223.093-.324.14-.09.04-.173.085-.25.133-.08.045-.154.09-.23.137-.035.03-.08.052-.114.084-.036.024-.07.05-.1.075l-.2.16c-.06.05-.116.1-.17.16-.047.04-.09.09-.133.13-.043.05-.088.1-.13.15-.043.057-.084.115-.13.17-.03.046-.062.09-.09.138-.023.03-.04.06-.058.09-.12.183-.22.383-.3.595-.104.265-.177.548-.215.85-.017.097-.027.19-.03.29-.006.077-.006.153-.006.23 0 .06 0 .116.003.17.002.064.005.12.015.178v.04c.01.076.017.146.03.21l.016.08.036.166c.02.072.04.135.063.202.03.084.06.163.092.245.05.123.11.243.17.354.03.07.07.13.11.19.03.05.063.1.09.148l.13.172c.05.06.096.12.14.17.06.07.12.13.175.187l.033.025c.042.046.093.094.15.15l.13.1.13.1.17.12c.07.036.136.077.205.122.147.08.303.156.477.22.068.03.134.05.2.08l.217.066c.123.035.256.067.396.096.11.02.227.04.34.056.12.01.25.026.37.03.07 0 .13.005.196.005l.085.004c.23 0 .44-.01.634-.026h.04l.226-.03c.114-.014.222-.03.32-.05.07-.01.13-.02.19-.034.093-.02.18-.04.265-.067.063-.01.126-.03.184-.05.07-.02.13-.043.194-.066l.062-.022c.03-.01.074-.02.12-.042.06-.02.144-.057.233-.095.053-.023.11-.05.167-.073l.17-.085c.023-.01.045-.025.07-.03v-1.4l-.047.03-.095.053c-.096.06-.19.114-.283.165-.103.055-.198.105-.3.153-.173.08-.34.15-.5.21-.305.11-.58.18-.83.224-.026.004-.06.007-.086.014-.07.008-.13.018-.196.027-.093.01-.185.018-.267.02-.05.004-.1.004-.148.004-.1 0-.2 0-.306-.014-.124-.005-.248-.02-.37-.04-.2-.03-.404-.086-.604-.156l-.09-.03c-.02-.014-.04-.02-.06-.03-.03-.01-.062-.025-.093-.04-.07-.03-.14-.068-.2-.106-.04-.02-.07-.04-.1-.06-.037-.02-.07-.04-.1-.063-.04-.025-.084-.05-.12-.082-.04-.03-.08-.063-.11-.09l-.05-.04-.024-.02-.016-.017-.02-.015-.17-.19c-.026-.037-.055-.07-.08-.107-.026-.036-.05-.07-.07-.103l-.06-.1c-.032-.048-.06-.1-.08-.15-.022-.04-.04-.085-.06-.124-.03-.07-.054-.14-.076-.21-.015-.05-.03-.1-.04-.156-.04-.144-.057-.28-.07-.39l-.01-.12v-.23c.004-.08.01-.18.026-.297.015-.07.027-.145.046-.224.01-.05.03-.105.043-.16.014-.046.037-.1.056-.148.01-.04.025-.07.04-.108l.068-.14.063-.11c.044-.08.095-.155.15-.235.02-.025.046-.057.068-.08.03-.04.06-.074.095-.11.014-.02.03-.034.05-.053.252-.26.54-.45.84-.58.043-.025.09-.04.14-.06.046-.02.09-.04.14-.05.052-.02.103-.04.156-.055.046-.01.097-.026.144-.03.05-.018.097-.025.147-.034.055-.01.11-.02.163-.025l.16-.02c.1-.003.2-.01.3-.01h.096c.08 0 .144.007.213.01.05 0 .1.006.14.01.09.01.175.02.255.035.07.005.14.017.21.033.096.017.19.04.27.062.05.01.102.027.146.04l.17.054c.08.03.12.04.12.04.07.02.14.053.203.08.086.033.17.07.254.106l.19.093.143.07c.073.04.14.08.19.11l.14.07v-1.37l-.23-.1-.23-.08c-.05-.014-.1-.036-.156-.05l-.138-.05c-.05-.014-.107-.033-.16-.05-.04-.014-.08-.024-.12-.036l-.04-.013-.126-.03c-.05-.014-.1-.026-.15-.036l-.1-.03c-.052-.007-.106-.023-.163-.03-.054-.015-.11-.025-.172-.034M63.32 19.4v2.004h1.373c.046-.003.11-.003.183-.01.146-.015.33-.037.507-.1.167-.055.326-.137.446-.257.04-.048.08-.1.11-.146.1-.16.12-.32.13-.41v-.11c0-.04-.01-.11-.028-.19-.025-.096-.07-.207-.15-.308l-.05-.056c-.036-.034-.074-.07-.12-.1-.072-.055-.154-.1-.24-.137-.117-.05-.247-.09-.393-.117-.077-.014-.153-.027-.23-.036l-.15-.01c-.046 0-.093-.003-.144-.003h-1.26m0-3.053v1.9h.73l.142-.01c.13-.003.31-.022.49-.073.033-.01.065-.023.103-.033.14-.05.278-.126.38-.23.085-.086.14-.178.17-.266.05-.11.067-.215.07-.29.01-.064.01-.106.01-.106v-.084c-.006-.082-.025-.216-.09-.346-.03-.065-.072-.12-.135-.18-.07-.07-.158-.126-.25-.167-.174-.08-.38-.11-.554-.12-.072-.003-.14-.003-.196-.003h-.87M59.14 13.76H70v10.22H59.14V13.76zM62 15.195v7.365h2.77s1.35.03 2.1-.72c.605-.6.56-1.31.56-1.31s.05-.733-.516-1.297c-.48-.48-1.09-.61-1.09-.61s.275-.132.488-.34c.1-.1.453-.42.453-1.196 0-.78-.52-1.23-.52-1.23s-.57-.675-1.858-.675H62M50.802 19.4v2.004h1.374c.044-.003.104-.003.18-.01.143-.015.33-.037.507-.1.168-.055.327-.137.447-.257.048-.048.086-.1.118-.146.1-.16.13-.32.133-.41v-.06s.01-.02 0-.05c0-.04 0-.11-.02-.19-.02-.096-.07-.207-.15-.308l-.05-.056c-.04-.034-.07-.07-.12-.1-.07-.055-.15-.1-.24-.137-.11-.05-.24-.09-.39-.117-.07-.014-.15-.027-.23-.036l-.15-.01c-.04 0-.09-.003-.14-.003h-1.26m0-3.053v1.9h.73l.14-.01c.13-.003.31-.022.498-.073.03-.01.066-.023.104-.033.14-.05.276-.126.38-.23.083-.086.137-.178.17-.266.05-.11.065-.215.07-.29l.004-.106s.006-.03 0-.084c0-.082-.02-.216-.082-.346-.03-.065-.07-.12-.135-.18-.067-.07-.156-.126-.248-.167-.18-.08-.385-.11-.556-.12-.07-.003-.14-.003-.194-.003h-.872m-4.17-2.586H57.5v10.22H46.63V13.76zm2.85 1.436v7.365h2.772s1.35.035 2.1-.714c.603-.603.56-1.307.56-1.307s.043-.736-.52-1.3c-.48-.48-1.09-.606-1.09-.606s.275-.134.49-.343c.096-.1.45-.42.45-1.195 0-.78-.52-1.23-.52-1.23s-.572-.674-1.86-.674h-2.39m40.23 22.15c0-1.18-.382-2.593-1.434-3.573-.98-.913-2.253-1.345-3.953-1.345-3.19 0-5.14 2.03-5.433 4.92h10.82zm3.78 3.023H78.92c.364 2.707 2.143 4.758 6.16 4.758 2.26 0 4.716-.775 6.39-1.914l1.434 2.648c-2.47 1.97-5.73 2.686-8.494 2.686-5.527 0-9.494-3.83-9.494-9.74 0-5.767 3.89-9.87 9.42-9.87 5.86 0 9.3 4.065 9.3 9.744 0 .66-.05 1.148-.14 1.684M43.82 48.55c-5.66 0-9.576-4.054-9.576-9.803 0-5.75 3.916-9.8 9.576-9.8s9.577 4.05 9.577 9.8c0 5.75-3.915 9.802-9.576 9.802m0-3.52c1.84 0 3.22-.58 4.18-1.59 1.01-1.07 1.54-2.63 1.54-4.7s-.53-3.63-1.54-4.69c-.96-1.018-2.34-1.59-4.175-1.59-1.837 0-3.213.57-4.177 1.585-1.008 1.06-1.535 2.623-1.535 4.69 0 2.07.53 3.63 1.537 4.693.96 1.01 2.34 1.59 4.17 1.59m29.68 3.03h-3.684c-.273-1.405-.393-3.422-.393-5.213l-.01-4.468c0-2.32-.548-3.69-1.45-4.58-.864-.86-2.057-1.19-3.388-1.19-1.573 0-3.067.51-4.107 1.63-1.078 1.16-1.566 2.73-1.566 5.14v8.666h-3.714V34.71c0-1.792-.12-3.81-.393-5.217h3.61c.202.663.405 1.79.48 2.705h.03c1.436-2.003 3.598-3.25 6.532-3.25 2.435 0 4.303.97 5.416 2.11 1.392 1.43 2.26 3.19 2.26 7.065v4.712c0 1.79.105 3.808.378 5.213"/></g></svg>