<svg xmlns="http://www.w3.org/2000/svg" width="128" height="64"><g stroke="null" stroke-width=".989"><path d="M-.002 65.137v-66.18h128.186v66.177" fill="#005e70"/><path d="M77.174 15.575c-.05-.01-.097-.02-.148-.026l-.06-.01a4.528 4.528 0 00-.256-.026l-.178-.01h-.426c-.079 0-.162.01-.242.01-.05 0-.099.01-.138.01l-.198.03-.05.004-.059.007-.079.01-.089.016-.138.027a4.934 4.934 0 00-1.058.364c-.085.047-.168.09-.247.137-.08.05-.155.089-.233.138l-.118.085-.103.071c-.07.052-.139.11-.198.164-.06.055-.119.108-.168.158l-.136.146c-.049.05-.089.099-.132.148-.05.06-.089.12-.133.178a.922.922 0 00-.089.137c-.026.03-.045.064-.064.096a3.753 3.753 0 00-.516 1.466 2.857 2.857 0 00-.03.295c-.006.079-.006.158-.006.234v.176l.02.18.003.04.034.211c.01.026.01.054.02.08l.04.167c.026.073.045.144.066.212.033.084.06.165.095.247.054.127.11.247.175.363.04.066.075.132.115.198l.094.146c.05.06.089.119.138.178.047.06.1.119.14.168.064.07.116.132.179.188l.03.03c.049.044.098.095.158.144.045.035.083.072.128.106s.085.069.135.103l.178.118c.063.04.131.083.203.124.146.079.307.158.482.227.064.03.138.053.207.074a4.695 4.695 0 00.613.167c.12.02.233.04.354.056a3.91 3.91 0 00.567.04h.089c.233 0 .445-.005.647-.024l.04-.004c.078-.003.157-.013.23-.022.112-.01.217-.03.32-.05.066-.01.128-.02.194-.039.09-.013.18-.04.267-.06.063-.019.128-.039.188-.049.065-.02.138-.046.2-.069l.064-.02c.03-.01.074-.025.124-.047.064-.027.148-.06.237-.099a2.69 2.69 0 00.172-.075l.169-.08c.025-.015.049-.024.069-.037v-1.414l-.05.032-.093.06c-.098.059-.187.114-.286.167a6.592 6.592 0 01-.303.152 5.335 5.335 0 01-1.345.439l-.089.015c-.069.01-.138.02-.197.024-.1.01-.193.016-.273.022h-.152c-.102 0-.201 0-.306-.01a3.47 3.47 0 01-.376-.044 2.752 2.752 0 01-.618-.158.475.475 0 01-.09-.032l-.056-.024-.096-.043a5.112 5.112 0 01-.208-.105c-.03-.023-.064-.04-.098-.064a.69.69 0 01-.102-.065 1.816 1.816 0 01-.122-.084 2.494 2.494 0 00-.109-.093l-.05-.042-.019-.02-.018-.014-.015-.018c-.067-.061-.123-.128-.181-.188a.692.692 0 01-.08-.108.338.338 0 01-.069-.105c-.027-.03-.05-.07-.069-.1-.027-.049-.06-.098-.08-.153a1.47 1.47 0 01-.055-.129c-.03-.07-.062-.14-.08-.21a1.44 1.44 0 01-.041-.158 1.592 1.592 0 01-.07-.4c-.01-.045-.01-.085-.01-.123-.005-.057-.005-.109-.005-.148v-.087c.005-.085.01-.184.03-.303.01-.069.024-.148.043-.227l.047-.162.053-.155a.56.56 0 01.05-.106c.02-.047.039-.096.066-.143.02-.037.04-.072.062-.108a1.523 1.523 0 01.158-.24c.02-.03.042-.06.064-.09.03-.035.06-.072.095-.108a.544.544 0 01.05-.055c.264-.257.553-.455.85-.591.05-.022.099-.04.148-.06l.139-.052c.06-.015.109-.033.158-.05l.155-.039c.05-.01.096-.02.149-.025.059-.02.108-.02.163-.03a.96.96 0 01.165-.019c.1-.01.203-.018.303-.018h.093l.218.01a1.2 1.2 0 01.142.01l.257.03.213.04c.096.019.198.044.273.065.055.013.105.03.152.04l.174.06c.08.023.125.042.125.042.069.023.138.05.207.079.09.035.178.075.257.113.07.03.134.061.198.092l.139.072c.079.04.142.074.197.106l.145.079v-1.396s-.083-.033-.238-.09l-.227-.088a2.65 2.65 0 01-.158-.052c-.05-.013-.09-.03-.144-.044a2.21 2.21 0 00-.158-.057l-.122-.04-.04-.013-.126-.036-.153-.04c-.035-.01-.07-.014-.099-.023l-.168-.036c-.064-.01-.123-.022-.178-.03m-6.954-1.444h11.036v10.372H70.229V14.142zm-8.475 5.715v2.04h1.318s.03 0 .073-.006c.04 0 .103-.01.178-.01.145-.018.336-.04.519-.109.164-.054.326-.138.45-.263a.902.902 0 00.257-.571l.004-.063v-.05c-.007-.04-.01-.115-.03-.198a.867.867 0 00-.158-.313l-.052-.055c-.04-.035-.08-.07-.124-.1a1.162 1.162 0 00-.243-.138 1.875 1.875 0 00-.398-.118 2.4 2.4 0 00-.237-.034l-.151-.01c-.04 0-.091-.004-.139-.004h-1.275zm0-3.099v1.934h.737c.046 0 .1 0 .146-.005a2.343 2.343 0 00.494-.075 1.167 1.167 0 00.109-.035 1.038 1.038 0 00.385-.228.799.799 0 00.181-.267 1 1 0 00.066-.29c.004-.07.004-.109.004-.109s.003-.032-.003-.084a.93.93 0 00-.09-.351.67.67 0 00-.133-.186 1.048 1.048 0 00-.257-.168 1.738 1.738 0 00-.562-.119c-.075-.008-.144-.008-.202-.008h-.886zM60.4 15.581v7.475h2.81s1.372.036 2.13-.722c.614-.617.574-1.33.574-1.33s.045-.75-.534-1.323a2.412 2.412 0 00-1.102-.613s.283-.136.498-.35c.092-.1.455-.426.455-1.212 0-.791-.534-1.25-.534-1.25s-.58-.682-1.88-.682h-2.433zm-2.867-1.454h11.024v10.375H57.524V14.13zM49.06 19.85v2.04h1.325s.025 0 .07-.004c.042 0 .104-.01.182-.01.145-.018.331-.04.514-.108a1.1 1.1 0 00.452-.263c.047-.05.087-.1.12-.149a.89.89 0 00.131-.422c.007-.04.007-.065.007-.065v-.05a.973.973 0 00-.024-.197.95.95 0 00-.159-.313c-.012-.02-.031-.03-.05-.05-.039-.029-.075-.069-.118-.098a1.372 1.372 0 00-.247-.139 2.136 2.136 0 00-.397-.118 3.948 3.948 0 00-.234-.03l-.155-.01a1.987 1.987 0 00-.138-.005h-1.286zm0-3.098v1.933h.742c.041 0 .095 0 .141-.004a2.521 2.521 0 00.498-.076.687.687 0 00.11-.04c.14-.05.278-.125.387-.23a.941.941 0 00.178-.264.954.954 0 00.06-.295c.009-.07.009-.109.009-.109v-.089a.882.882 0 00-.089-.356.844.844 0 00-.138-.184.926.926 0 00-.248-.168 1.81 1.81 0 00-.563-.118c-.074-.006-.143-.006-.202-.006h-.884zm-1.345-1.17v7.475h2.814s1.373.037 2.13-.722c.612-.616.573-1.329.573-1.329s.04-.75-.534-1.323c-.485-.484-1.108-.616-1.108-.616s.277-.128.495-.346c.099-.099.455-.425.455-1.213 0-.793-.524-1.248-.524-1.248s-.579-.682-1.883-.682h-2.422zm-2.89-1.454h11.028v10.375H44.828V14.13zM36.6 34.68h-5.61v-2.947h14.472v2.947H39.85v15.36h-3.258zm12.152-2.947h3.57l3.44 13.188h.05l4.11-13.188h3.205L67.16 44.92h.052l3.595-13.188h3.314L68.79 50.04h-3.11L61.44 36.1h-.05l-4.24 13.94h-3zm36.485-.468c5.715-.101 9.744 3.726 9.744 9.595 0 5.715-4.028 9.535-9.741 9.64-5.643 0-9.676-3.824-9.676-9.54-.002-5.872 4.034-9.7 9.676-9.7m.022 16.291c3.8 0 6.305-2.894 6.305-6.802 0-3.645-2.512-6.542-6.309-6.542-3.777 0-6.288 2.897-6.288 6.543 0 3.913 2.511 6.802 6.288 6.802" fill="#fff"/></g></svg>