<?xml version="1.0" encoding="UTF-8" standalone="no"?>

<svg xmlns:svg="http://www.w3.org/2000/svg" xmlns="http://www.w3.org/2000/svg" version="1.1" width="128" height="64" xmlns:xlink="http://www.w3.org/1999/xlink">
	<g stroke="null">
		<polyline stroke="null" points="20.714500427246094,0.2035045474767685 107.2854995727539,0.2035045474767685 107.2854995727539,63.79649657011032 20.714500427246094,63.79649657011032 20.714500427246094,0.2035045474767685 "/>
		<polygon stroke="null" points="40.935646057128906,29.835021197795868 31.18616485595703,29.835021197795868 31.18616485595703,48.099993884563446 33.81114959716797,48.099993884563446 33.81114959716797,39.61275786161423 40.935646057128906,39.61275786161423 40.935646057128906,37.254676043987274 33.81114959716797,37.254676043987274 33.81114959716797,32.193104922771454 40.935646057128906,32.193104922771454 " fill="#FFFFFF"/>
		<path stroke="null" d="m43.44759,38.96594c0,4.95481 3.77419,9.37269 9.74634,9.37269c6.1888,0 9.88449,-4.443 9.88449,-9.37269c0,-5.08355 -3.80245,-9.36955 -9.83112,-9.36955c-5.91877,-0.00314 -9.79972,4.30798 -9.79972,9.36955m2.70348,0c0,-4.01283 3.02689,-6.96123 7.09624,-6.96123c4.10075,0 7.1245,2.94525 7.1245,6.96123c0,3.99085 -3.02376,6.9675 -7.1245,6.9675c-4.06935,-0.00314 -7.09624,-2.97665 -7.09624,-6.9675" fill="#FFFFFF"/>
		<path stroke="null" d="m81.09534,29.83502l-2.62812,0l0,10.63494c0,1.71127 -0.21038,3.05515 -1.14922,3.99085c-0.83208,0.83208 -2.27644,1.47576 -4.286,1.47576c-1.57625,0 -2.89502,-0.5118 -3.93748,-1.55426c-0.83208,-0.83208 -1.09898,-1.68929 -1.09898,-3.75222l0,-10.79507l-2.62498,0l0,11.35712c0,4.97993 3.74908,7.14648 7.61119,7.14648c5.43207,0 8.11357,-2.94525 8.11357,-7.41651l0,-11.0871" fill="#FFFFFF"/>
		<path stroke="null" d="m84.75022,29.83188l0,18.26811l2.62813,0l0,-7.92832l1.09898,0c1.33761,0 2.43344,0.4333 4.84491,4.17924l2.41146,3.74908l3.13365,0c-1.25597,-1.73952 -1.7144,-2.35809 -2.48996,-3.61406c-1.39099,-2.27959 -2.41147,-3.96573 -4.06934,-5.06156c1.95303,-0.77557 3.052,-2.35809 3.052,-4.47126c0,-3.16505 -2.30471,-5.12123 -5.99726,-5.12123l-4.61256,0m2.62498,2.25133l1.68301,0c2.54961,0 3.56696,1.0456 3.59208,2.76c0.02826,1.52287 -0.7787,2.97037 -3.59208,2.97037l-1.68301,0l0,-5.73037" fill="#FFFFFF"/>
		<path stroke="null" d="m77.86121,15.98165c-0.05337,-0.00628 -0.09733,-0.0157 -0.15071,-0.02512l-0.05652,-0.00628c-0.08478,-0.01256 -0.16956,-0.02512 -0.2512,-0.0314c-0.05651,-0.00314 -0.11304,-0.00628 -0.16955,-0.01256c-0.10362,-0.00314 -0.20097,-0.00628 -0.30144,-0.00628c-0.04396,0 -0.06908,0 -0.11304,0c-0.08164,0.00314 -0.16328,0.00628 -0.24178,0.00942c-0.04395,0.00314 -0.08478,0.00628 -0.13187,0.01256c-0.06594,0.00314 -0.1256,0.01256 -0.18841,0.02198l-0.05651,0.00628l-0.05652,0.00942l-0.07221,0.01256c-0.0314,0.00628 -0.0628,0.00942 -0.09106,0.0157c-0.04396,0.00942 -0.08163,0.0157 -0.12873,0.02512c-0.25748,0.05338 -0.48984,0.1256 -0.71276,0.21038c-0.11304,0.04396 -0.2198,0.08792 -0.32656,0.14444c-0.08478,0.04082 -0.16642,0.08164 -0.24492,0.13188c-0.07849,0.04396 -0.15385,0.08478 -0.22293,0.13502c-0.04082,0.02826 -0.08163,0.05652 -0.11932,0.08164c-0.03454,0.02826 -0.06594,0.05024 -0.09734,0.07222c-0.06908,0.05338 -0.135,0.10676 -0.19781,0.16014c-0.05965,0.05652 -0.11303,0.10676 -0.16955,0.157c-0.04397,0.0471 -0.08479,0.09106 -0.12874,0.1413c-0.0471,0.05024 -0.08792,0.0942 -0.12874,0.14758c-0.04709,0.05652 -0.08792,0.1099 -0.12874,0.17269c-0.03139,0.04396 -0.06594,0.08792 -0.0942,0.13188c-0.02198,0.0314 -0.04081,0.0628 -0.05966,0.0942c-0.10989,0.18526 -0.21037,0.37993 -0.29201,0.59031c-0.10048,0.26375 -0.17583,0.54635 -0.21666,0.84778c-0.01255,0.09106 -0.01884,0.19153 -0.02512,0.28887c-0.00629,0.07222 -0.00629,0.15386 -0.00629,0.22922c0,0.05966 0,0.11304 0,0.1727c0.00629,0.05966 0.01257,0.11618 0.01885,0.17583l0.00627,0.04396c0.00628,0.06594 0.01884,0.13502 0.03141,0.19782c0,0.02826 0.00941,0.05652 0.01569,0.0785c0.01256,0.05652 0.02512,0.1099 0.03767,0.16642c0.01884,0.06908 0.04082,0.13816 0.06595,0.20409c0.02824,0.0785 0.05651,0.16328 0.09106,0.23864c0.05024,0.1256 0.10361,0.24491 0.16641,0.35795c0.04082,0.06594 0.07222,0.12874 0.11617,0.19468c0.0314,0.0471 0.06281,0.0942 0.09106,0.1413c0.04396,0.0628 0.08478,0.12246 0.12874,0.17583c0.05023,0.05966 0.09419,0.11618 0.13815,0.16956c0.05966,0.06594 0.11617,0.1256 0.17584,0.18526l0.03139,0.02826c0.0471,0.0471 0.09106,0.0942 0.15385,0.14444c0.04082,0.0314 0.0785,0.06908 0.1256,0.10362c0.04082,0.0314 0.08164,0.0628 0.12874,0.09734c0.05338,0.03768 0.11303,0.07536 0.1727,0.11618c0.06593,0.04396 0.13187,0.08164 0.20723,0.12246c0.1413,0.08164 0.29829,0.16014 0.46786,0.22608c0.06593,0.02512 0.13501,0.05338 0.20095,0.07536c0.06593,0.02198 0.1413,0.04396 0.21352,0.06594c0.12246,0.04082 0.2512,0.06908 0.39249,0.0942c0.1099,0.02198 0.22608,0.03768 0.33912,0.05338c0.11932,0.0157 0.24177,0.02826 0.37051,0.03454c0.06281,0.00314 0.12246,0.00628 0.18526,0.00628c0.0314,0 0.0628,0 0.08792,0c0.22921,0 0.43958,-0.00628 0.63426,-0.02512l0.03769,-0.00628c0.07849,-0.00314 0.15385,-0.01256 0.22607,-0.02198c0.10989,-0.0157 0.21351,-0.0314 0.32027,-0.0471c0.06594,-0.01256 0.12245,-0.02512 0.18526,-0.03768c0.09105,-0.02512 0.18211,-0.0471 0.26689,-0.06594c0.06593,-0.0157 0.12246,-0.0314 0.18211,-0.05024c0.06594,-0.02198 0.13503,-0.0471 0.19781,-0.06594l0.06281,-0.02198c0.03767,-0.01256 0.07536,-0.02826 0.12245,-0.0471c0.06594,-0.02512 0.14444,-0.05966 0.2355,-0.0942c0.05338,-0.02198 0.1099,-0.0471 0.16642,-0.07536c0.05338,-0.02512 0.10989,-0.05024 0.16955,-0.07536c0.01884,-0.01256 0.0471,-0.02198 0.06908,-0.03454l0,-1.39413c-0.01884,0.00942 -0.03453,0.01884 -0.05338,0.0314l-0.09106,0.05966c-0.09419,0.05966 -0.19154,0.10676 -0.27946,0.16328c-0.10047,0.05338 -0.19781,0.10362 -0.29828,0.15072c-0.17271,0.08164 -0.33284,0.14758 -0.49612,0.2041c-0.30144,0.10676 -0.57775,0.17584 -0.82266,0.21665c-0.0314,0.00628 -0.05966,0.01256 -0.08478,0.0157c-0.06908,0.00942 -0.13187,0.02198 -0.19781,0.02826c-0.09734,0.01256 -0.1884,0.0157 -0.26689,0.02198c-0.05339,0 -0.10048,0 -0.14758,0c-0.0942,0 -0.19781,0 -0.30145,-0.00942c-0.12244,-0.00942 -0.24491,-0.02512 -0.37051,-0.04396c-0.20095,-0.03454 -0.39877,-0.08164 -0.59973,-0.157c-0.02826,-0.00942 -0.05651,-0.02198 -0.08163,-0.03454c-0.02199,-0.00628 -0.04082,-0.0157 -0.05966,-0.02198c-0.03455,-0.0157 -0.06594,-0.02826 -0.09734,-0.0471c-0.06595,-0.0314 -0.13502,-0.06594 -0.19782,-0.10048c-0.03139,-0.01884 -0.06593,-0.04082 -0.0942,-0.05966c-0.03453,-0.02198 -0.06593,-0.04396 -0.09734,-0.06594c-0.04395,-0.0314 -0.08163,-0.05966 -0.12246,-0.08792c-0.03767,-0.02826 -0.07536,-0.0628 -0.10676,-0.08792l-0.05024,-0.04082l-0.02512,-0.02198l-0.01257,-0.00942l-0.01569,-0.01884c-0.06594,-0.0628 -0.12246,-0.12246 -0.17584,-0.18839c-0.02512,-0.03454 -0.05651,-0.06908 -0.0785,-0.10676c-0.02826,-0.0314 -0.05024,-0.06594 -0.07221,-0.10048c-0.01884,-0.03454 -0.04082,-0.06594 -0.05966,-0.09734c-0.03139,-0.05024 -0.05966,-0.09734 -0.07536,-0.14444c-0.02512,-0.0471 -0.04396,-0.08478 -0.0628,-0.1256c-0.02826,-0.06908 -0.05652,-0.13815 -0.07223,-0.20724c-0.01884,-0.05024 -0.03453,-0.10362 -0.04709,-0.15386c-0.03768,-0.14444 -0.05966,-0.27631 -0.06594,-0.38935c-0.00629,-0.04082 -0.00629,-0.08478 -0.00629,-0.11932c-0.00628,-0.05652 -0.00628,-0.10676 -0.00628,-0.14444c0,-0.02512 0,-0.05338 0,-0.08792c0.00628,-0.07536 0.01257,-0.17898 0.03141,-0.29202c0.00941,-0.06908 0.02197,-0.14443 0.04081,-0.22293c0.01256,-0.05024 0.02826,-0.10048 0.0471,-0.16014c0.01256,-0.0471 0.03139,-0.09734 0.05024,-0.15072c0.01256,-0.0314 0.02826,-0.06594 0.04395,-0.10048c0.01884,-0.0471 0.04397,-0.09106 0.06594,-0.1413c0.01885,-0.03768 0.04082,-0.06908 0.05967,-0.10676c0.0471,-0.07536 0.09734,-0.16014 0.15699,-0.2355c0.02512,-0.02826 0.04396,-0.05652 0.06594,-0.08164c0.02827,-0.03454 0.0628,-0.07222 0.09106,-0.10676c0.01883,-0.01884 0.03453,-0.03454 0.05023,-0.05338c0.25434,-0.25433 0.54008,-0.44587 0.83523,-0.58089c0.05023,-0.02198 0.09418,-0.04082 0.14129,-0.05966c0.05025,-0.01884 0.0942,-0.03454 0.1413,-0.05338c0.05338,-0.01884 0.10361,-0.03454 0.15385,-0.0471c0.05024,-0.0157 0.10362,-0.02826 0.14758,-0.03768c0.05025,-0.00942 0.09734,-0.02198 0.15073,-0.0314c0.05338,-0.01256 0.10676,-0.01884 0.16013,-0.02512c0.05339,-0.00942 0.10361,-0.0157 0.157,-0.01884c0.10362,-0.00942 0.20096,-0.01256 0.30144,-0.01256c0.0314,0 0.06593,0 0.09734,0c0.06908,0.00314 0.1413,0.00314 0.20724,0.00942c0.05023,0.00314 0.09106,0.00314 0.13815,0.00942c0.08792,0.00942 0.17583,0.01884 0.2512,0.03454c0.06908,0.00942 0.1413,0.02198 0.20409,0.03454c0.09734,0.02198 0.19468,0.04396 0.27003,0.0628c0.05966,0.0157 0.10362,0.03454 0.14758,0.0471c0.06594,0.01884 0.12873,0.03768 0.1727,0.05024c0.07222,0.02826 0.11932,0.04396 0.11932,0.04396c0.06908,0.02826 0.13503,0.05338 0.19782,0.0785c0.08791,0.03454 0.17269,0.06908 0.25119,0.1099c0.06908,0.02826 0.13502,0.0628 0.19467,0.08792c0.05024,0.02512 0.09421,0.05024 0.13815,0.06908c0.0785,0.04082 0.1413,0.07536 0.19782,0.10362l0.1413,0.07536l0,-1.35645c0,0 -0.08479,-0.03454 -0.23235,-0.09106c-0.06594,-0.02198 -0.1413,-0.05338 -0.22922,-0.0785c-0.04709,-0.02198 -0.09734,-0.04082 -0.157,-0.05966c-0.03767,-0.01256 -0.08477,-0.02826 -0.12874,-0.04396c-0.05651,-0.01884 -0.10675,-0.03454 -0.16641,-0.05024c-0.03768,-0.0157 -0.07536,-0.02826 -0.12246,-0.04082l-0.0314,-0.00942c-0.04395,-0.01256 -0.08477,-0.02512 -0.12874,-0.03454c-0.05024,-0.0157 -0.09733,-0.02826 -0.14757,-0.04082c-0.03454,-0.00628 -0.06594,-0.01884 -0.09734,-0.02512c-0.05653,-0.01256 -0.1099,-0.02512 -0.16642,-0.03768c-0.0628,-0.00314 -0.11618,-0.0157 -0.17584,-0.02512m-6.8105,-1.41611l10.8045,0l0,10.17023l-10.8045,0l0,-10.17023z" fill="#FFFFFF"/>
		<path stroke="null" d="m62.7456,20.17346l0,2.00327l1.29679,0c0,0 0.02512,0 0.06908,-0.00314c0.04395,0 0.10674,-0.00314 0.17898,-0.00942c0.1413,-0.01256 0.32968,-0.04396 0.50867,-0.10048c0.16327,-0.05966 0.32027,-0.13815 0.44273,-0.25747c0.0471,-0.0471 0.08478,-0.09734 0.11617,-0.14444c0.10048,-0.16014 0.1256,-0.32655 0.13188,-0.41761c0.00314,-0.04082 0.00314,-0.06594 0.00314,-0.06594l0,-0.0471c0,-0.04082 -0.00628,-0.11304 -0.02825,-0.19468c-0.02512,-0.09106 -0.06594,-0.20096 -0.15072,-0.30457c-0.0157,-0.01884 -0.03455,-0.03768 -0.05338,-0.05966c-0.03455,-0.03768 -0.06908,-0.06908 -0.11618,-0.09734c-0.06908,-0.05652 -0.15072,-0.10048 -0.23863,-0.13815c-0.11932,-0.05024 -0.24806,-0.08792 -0.39249,-0.11304c-0.07222,-0.0157 -0.15072,-0.02512 -0.22922,-0.03454c-0.05025,-0.00314 -0.09734,-0.00942 -0.15072,-0.01256c-0.04082,0 -0.08791,-0.00314 -0.13187,-0.00314c-0.46157,0 -1.25597,0 -1.25597,0" fill="#FFFFFF"/>
		<path stroke="null" d="m62.7456,17.13715l0,1.89652l0.62799,0c0,0 0.04082,0 0.09734,-0.00314c0.04396,0 0.0942,-0.00314 0.1413,-0.00628c0.12874,-0.00942 0.30771,-0.02826 0.48669,-0.07536c0.03454,-0.01256 0.06908,-0.02198 0.10362,-0.03454c0.1413,-0.05024 0.27631,-0.12246 0.37993,-0.22608c0.08478,-0.0785 0.13815,-0.1727 0.17583,-0.26061c0.04396,-0.1099 0.05965,-0.21037 0.06594,-0.28573c0.00314,-0.06594 0.00314,-0.10676 0.00314,-0.10676s0.00314,-0.0314 0,-0.0785c-0.00314,-0.08164 -0.01884,-0.21666 -0.08478,-0.34539c-0.03139,-0.0628 -0.07536,-0.12246 -0.13501,-0.17898c-0.06909,-0.07222 -0.15701,-0.1256 -0.24806,-0.16956c-0.17583,-0.07222 -0.37993,-0.10362 -0.54948,-0.11932c-0.07536,-0.00628 -0.1413,-0.00628 -0.19781,-0.00628l-0.86662,0" fill="#FFFFFF"/>
		<path stroke="null" d="m61.43311,15.99421l0,7.32232l2.75686,0c0,0 1.34074,0.04082 2.09119,-0.70334c0.59972,-0.60601 0.55891,-1.30307 0.55891,-1.30307s0.04395,-0.73161 -0.51495,-1.29051c-0.47726,-0.47727 -1.08642,-0.60287 -1.08642,-0.60287s0.27631,-0.13188 0.48355,-0.34225c0.10048,-0.0942 0.44901,-0.41761 0.44901,-1.18689c0,-0.7787 -0.51495,-1.22457 -0.51495,-1.22457s-0.56833,-0.66881 -1.84314,-0.66881l-2.38006,0m-2.83536,-1.42867l10.80764,0l0,10.17023l-10.80764,0l0,-10.17023z" fill="#FFFFFF"/>
		<path stroke="null" d="m50.2895,20.17346l0,2.00327l1.29678,0c0,0 0.02826,0 0.06908,-0.00314c0.04396,0 0.10676,-0.00314 0.18212,-0.00942c0.1413,-0.01256 0.32341,-0.04396 0.50553,-0.10048c0.16327,-0.05966 0.32341,-0.13815 0.44273,-0.25747c0.0471,-0.0471 0.08478,-0.09734 0.11618,-0.14444c0.10048,-0.16014 0.12873,-0.32655 0.13187,-0.41761c0.00314,-0.04082 0.00314,-0.06594 0.00314,-0.06594s0.00314,-0.01884 0,-0.05024c0,-0.04082 -0.00628,-0.11304 -0.02512,-0.19467c-0.02512,-0.09106 -0.07222,-0.20096 -0.15071,-0.30457c-0.01884,-0.01884 -0.03454,-0.03768 -0.05024,-0.05966c-0.03768,-0.03768 -0.07536,-0.06908 -0.11617,-0.09734c-0.07222,-0.05652 -0.15386,-0.10048 -0.24178,-0.13815c-0.11618,-0.05024 -0.24806,-0.08792 -0.39249,-0.11304c-0.07222,-0.00942 -0.14443,-0.01884 -0.22921,-0.02826c-0.0471,-0.00314 -0.09734,-0.00942 -0.15071,-0.01256c-0.04396,-0.00314 -0.09106,-0.00628 -0.13502,-0.00628c-0.46157,0 -1.25597,0 -1.25597,0" fill="#FFFFFF"/>
		<path stroke="null" d="m50.2895,17.13715l0,1.89652l0.62798,0c0,0 0.04082,0 0.09734,-0.00314c0.04396,0 0.0942,-0.00314 0.1413,-0.00628c0.12874,-0.00942 0.30772,-0.02826 0.48983,-0.07536c0.03768,-0.01256 0.06908,-0.02198 0.10676,-0.03454c0.13816,-0.05024 0.27317,-0.12246 0.37679,-0.22608c0.08478,-0.0785 0.13816,-0.1727 0.17584,-0.26061c0.04396,-0.1099 0.05965,-0.21037 0.06593,-0.28573c0.00628,-0.06594 0.00628,-0.10676 0.00628,-0.10676s0,-0.0314 -0.00314,-0.0785c-0.00314,-0.08164 -0.02198,-0.21666 -0.08478,-0.34539c-0.0314,-0.0628 -0.07536,-0.12246 -0.13502,-0.17898c-0.07221,-0.07536 -0.15699,-0.12874 -0.24805,-0.16956c-0.17898,-0.07536 -0.37993,-0.10676 -0.55263,-0.11932c-0.07222,-0.00628 -0.1413,-0.00628 -0.19781,-0.00628l-0.86662,0" fill="#FFFFFF"/>
		<path stroke="null" d="m48.97701,15.99421l0,7.32232l2.76,0c0,0 1.34389,0.04082 2.08491,-0.70334c0.60601,-0.60601 0.56205,-1.30307 0.56205,-1.30307s0.04396,-0.73161 -0.51495,-1.29051c-0.47727,-0.47727 -1.08641,-0.60287 -1.08641,-0.60287s0.27317,-0.13188 0.48669,-0.34225c0.09734,-0.0942 0.44901,-0.41761 0.44901,-1.18689c0,-0.7787 -0.51495,-1.22457 -0.51495,-1.22457s-0.56833,-0.66881 -1.84628,-0.66881l-2.38007,0m-2.83536,-1.42867l10.80764,0l0,10.17023l-10.80764,0l0,-10.17023z" fill="#FFFFFF"/>
	</g>
</svg>