<?xml version="1.0" encoding="UTF-8" standalone="no"?>
<svg
   xmlns:dc="http://purl.org/dc/elements/1.1/"
   xmlns:cc="http://creativecommons.org/ns#"
   xmlns:rdf="http://www.w3.org/1999/02/22-rdf-syntax-ns#"
   xmlns:svg="http://www.w3.org/2000/svg"
   xmlns="http://www.w3.org/2000/svg"
   xmlns:sodipodi="http://sodipodi.sourceforge.net/DTD/sodipodi-0.dtd"
   xmlns:inkscape="http://www.inkscape.org/namespaces/inkscape"
   width="128"
   height="64"
   version="1.1"
   id="svg880"
   sodipodi:docname="bbc_four.svg"
   inkscape:version="0.92.4 (fd57863, 2020-04-02)">
  <metadata
     id="metadata886">
    <rdf:RDF>
      <cc:Work
         rdf:about="">
        <dc:format>image/svg+xml</dc:format>
        <dc:type
           rdf:resource="http://purl.org/dc/dcmitype/StillImage" />
      </cc:Work>
    </rdf:RDF>
  </metadata>
  <defs
     id="defs884" />
  <sodipodi:namedview
     pagecolor="#ffffff"
     bordercolor="#666666"
     borderopacity="1"
     objecttolerance="10"
     gridtolerance="10"
     guidetolerance="10"
     inkscape:pageopacity="0"
     inkscape:pageshadow="2"
     inkscape:window-width="1920"
     inkscape:window-height="999"
     id="namedview882"
     showgrid="false"
     inkscape:zoom="11.171875"
     inkscape:cx="60.101321"
     inkscape:cy="32"
     inkscape:window-x="0"
     inkscape:window-y="27"
     inkscape:window-maximized="1"
     inkscape:current-layer="svg880" />
  <g
     stroke="null"
     id="g878"
     transform="matrix(1.0013633,0,0,1.0013633,-0.50081424,0.16315592)">
    <path
       d="M 0.07,-1.035 H 128.756 V 64.622 H 0.07 V -1.035"
       id="path872"
       inkscape:connector-curvature="0" />
    <path
       d="m 40.936,29.835 h -9.75 V 48.1 h 2.625 v -8.487 h 7.13 v -2.358 h -7.13 v -5.062 h 7.13 z m 2.512,9.13 c 0,4.956 3.774,9.374 9.746,9.374 6.19,0 9.884,-4.45 9.884,-9.38 0,-5.09 -3.802,-9.37 -9.83,-9.37 -5.92,-0.01 -9.8,4.31 -9.8,9.37 m 2.703,0 c 0,-4.02 3.03,-6.96 7.1,-6.96 4.1,0 7.13,2.94 7.13,6.96 0,3.99 -3.02,6.96 -7.12,6.96 -4.07,-0.006 -7.093,-2.98 -7.093,-6.97 M 81.1,29.83 h -2.63 v 10.64 c 0,1.71 -0.21,3.055 -1.15,3.99 -0.83,0.833 -2.276,1.477 -4.286,1.477 -1.576,0 -2.895,-0.512 -3.937,-1.555 -0.833,-0.832 -1.1,-1.69 -1.1,-3.752 V 29.835 H 65.37 v 11.357 c 0,4.98 3.75,7.147 7.613,7.147 5.432,0 8.113,-2.95 8.113,-7.42 V 29.83 M 84.75,29.827 V 48.1 h 2.628 v -7.928 h 1.1 c 1.337,0 2.433,0.433 4.844,4.18 l 2.412,3.748 h 3.133 c -1.256,-1.74 -1.714,-2.358 -2.49,-3.614 -1.39,-2.28 -2.41,-3.966 -4.07,-5.062 1.954,-0.775 3.053,-2.358 3.053,-4.47 0,-3.166 -2.305,-5.122 -5.997,-5.122 H 84.75 m 2.625,2.25 h 1.683 c 2.55,0 3.567,1.047 3.592,2.76 0.03,1.524 -0.778,2.972 -3.592,2.972 h -1.683 v -5.73 M 77.86,15.982 C 77.808,15.975 77.764,15.966 77.71,15.957 L 77.654,15.95 C 77.569,15.938 77.484,15.925 77.404,15.92 77.346,15.916 77.29,15.913 77.234,15.906 77.13,15.903 77.032,15.9 76.932,15.9 h -0.113 l -0.25,0.01 a 1.45,1.45 0 0 0 -0.13,0.012 c -0.07,0.003 -0.13,0.013 -0.19,0.022 l -0.06,0.006 -0.06,0.01 -0.076,0.012 c -0.03,0.007 -0.06,0.01 -0.09,0.016 -0.044,0.01 -0.08,0.016 -0.128,0.025 -0.26,0.053 -0.49,0.126 -0.715,0.21 -0.115,0.044 -0.22,0.088 -0.33,0.145 A 2.4,2.4 0 0 0 74.546,16.5 c -0.077,0.044 -0.152,0.085 -0.222,0.135 -0.04,0.028 -0.08,0.056 -0.12,0.08 -0.034,0.03 -0.066,0.052 -0.097,0.074 -0.07,0.05 -0.134,0.1 -0.197,0.16 l -0.17,0.15 c -0.046,0.04 -0.086,0.09 -0.13,0.14 -0.047,0.05 -0.09,0.09 -0.13,0.15 -0.046,0.05 -0.087,0.11 -0.13,0.17 l -0.094,0.13 c -0.025,0.03 -0.04,0.06 -0.06,0.09 -0.11,0.182 -0.21,0.38 -0.295,0.59 a 3.752,3.752 0 0 0 -0.24,1.133 c -0.004,0.073 -0.004,0.154 -0.004,0.23 v 0.172 l 0.02,0.174 0.004,0.044 c 0.005,0.065 0.02,0.134 0.03,0.197 0,0.03 0.01,0.056 0.016,0.08 l 0.04,0.166 c 0.02,0.07 0.04,0.138 0.065,0.204 0.03,0.08 0.06,0.164 0.09,0.24 0.05,0.125 0.107,0.244 0.17,0.358 0.04,0.065 0.07,0.128 0.116,0.194 l 0.09,0.14 c 0.04,0.067 0.082,0.127 0.13,0.18 0.05,0.06 0.09,0.114 0.134,0.17 l 0.177,0.18 0.03,0.028 c 0.045,0.047 0.09,0.094 0.152,0.144 0.04,0.03 0.08,0.07 0.124,0.105 l 0.13,0.095 c 0.05,0.04 0.11,0.078 0.17,0.12 0.067,0.043 0.133,0.08 0.208,0.12 0.14,0.083 0.3,0.16 0.47,0.23 0.065,0.025 0.134,0.053 0.2,0.075 0.066,0.022 0.14,0.045 0.213,0.067 0.125,0.04 0.254,0.07 0.395,0.093 0.11,0.022 0.227,0.04 0.34,0.053 a 3.872,3.872 0 0 0 0.556,0.04 h 0.086 c 0.23,0 0.44,-0.003 0.636,-0.022 l 0.036,-0.003 c 0.076,-0.003 0.152,-0.013 0.224,-0.02 l 0.32,-0.05 0.183,-0.04 c 0.09,-0.02 0.18,-0.044 0.267,-0.063 0.07,-0.017 0.126,-0.03 0.185,-0.05 0.07,-0.02 0.138,-0.048 0.2,-0.067 l 0.066,-0.02 c 0.036,-0.01 0.073,-0.027 0.12,-0.046 0.066,-0.02 0.145,-0.06 0.236,-0.09 0.055,-0.02 0.11,-0.045 0.17,-0.074 0.05,-0.023 0.11,-0.05 0.17,-0.073 l 0.07,-0.033 v -1.39 l -0.057,0.03 -0.092,0.06 c -0.092,0.06 -0.19,0.106 -0.28,0.163 -0.1,0.052 -0.195,0.102 -0.295,0.15 -0.173,0.08 -0.333,0.147 -0.496,0.203 a 4.89,4.89 0 0 1 -0.827,0.218 c -0.03,0.007 -0.06,0.014 -0.087,0.017 l -0.198,0.03 c -0.098,0.01 -0.19,0.01 -0.268,0.02 h -0.145 c -0.098,0 -0.2,0 -0.306,-0.01 -0.12,-0.01 -0.24,-0.03 -0.37,-0.05 -0.2,-0.035 -0.4,-0.08 -0.6,-0.157 L 75.6,22 c -0.02,-0.01 -0.04,-0.02 -0.06,-0.025 l -0.094,-0.046 c -0.07,-0.03 -0.138,-0.07 -0.2,-0.1 -0.03,-0.02 -0.067,-0.04 -0.095,-0.06 -0.033,-0.028 -0.07,-0.05 -0.1,-0.07 l -0.12,-0.09 c -0.04,-0.03 -0.076,-0.065 -0.11,-0.09 l -0.05,-0.04 -0.023,-0.024 -0.012,-0.01 -0.017,-0.02 a 1.91,1.91 0 0 1 -0.174,-0.188 c -0.024,-0.036 -0.055,-0.07 -0.08,-0.108 a 0.855,0.855 0 0 1 -0.07,-0.1 l -0.06,-0.1 c -0.03,-0.05 -0.06,-0.097 -0.074,-0.144 A 2.1,2.1 0 0 1 74.198,20.66 c -0.027,-0.07 -0.056,-0.14 -0.07,-0.204 a 1.933,1.933 0 0 1 -0.115,-0.543 c -0.01,-0.04 -0.01,-0.085 -0.01,-0.12 -0.01,-0.052 -0.01,-0.102 -0.01,-0.14 v -0.087 c 0.008,-0.074 0.015,-0.18 0.034,-0.29 0.01,-0.07 0.02,-0.15 0.04,-0.23 0.012,-0.05 0.03,-0.1 0.046,-0.16 a 2.92,2.92 0 0 1 0.05,-0.15 l 0.046,-0.1 c 0.015,-0.046 0.04,-0.09 0.063,-0.14 0.02,-0.038 0.04,-0.07 0.06,-0.107 0.047,-0.075 0.098,-0.16 0.157,-0.235 0.025,-0.03 0.044,-0.058 0.066,-0.08 0.03,-0.038 0.067,-0.076 0.09,-0.11 0.02,-0.02 0.04,-0.037 0.05,-0.056 0.26,-0.253 0.546,-0.445 0.84,-0.58 l 0.14,-0.06 c 0.05,-0.02 0.095,-0.034 0.14,-0.053 l 0.156,-0.044 c 0.05,-0.017 0.1,-0.03 0.145,-0.04 l 0.15,-0.03 c 0.053,-0.01 0.106,-0.02 0.16,-0.024 0.053,-0.01 0.103,-0.015 0.16,-0.02 0.1,-0.007 0.2,-0.01 0.3,-0.01 h 0.095 c 0.07,0.003 0.143,0.003 0.21,0.01 0.05,0.002 0.09,0.002 0.14,0.01 0.086,0.01 0.174,0.017 0.25,0.033 0.07,0.01 0.14,0.024 0.203,0.037 l 0.27,0.06 c 0.06,0.018 0.1,0.037 0.145,0.05 l 0.173,0.05 0.12,0.05 c 0.07,0.03 0.137,0.05 0.2,0.08 0.088,0.03 0.17,0.07 0.25,0.11 0.07,0.023 0.137,0.06 0.196,0.083 0.05,0.026 0.095,0.05 0.14,0.07 l 0.196,0.104 0.148,0.075 v -1.35 c 0,0 -0.085,-0.037 -0.233,-0.093 -0.064,-0.02 -0.14,-0.055 -0.23,-0.08 a 1.695,1.695 0 0 0 -0.154,-0.06 c -0.04,-0.01 -0.086,-0.028 -0.13,-0.04 l -0.166,-0.05 a 0.528,0.528 0 0 0 -0.12,-0.04 l -0.03,-0.01 c -0.046,-0.01 -0.087,-0.027 -0.13,-0.037 -0.05,-0.015 -0.1,-0.028 -0.15,-0.04 -0.03,-0.007 -0.06,-0.02 -0.093,-0.026 l -0.16,-0.04 c -0.06,0 -0.113,-0.016 -0.173,-0.025 m -6.81,-1.416 H 81.85 v 10.17 H 71.05 V 14.56 Z m -8.306,5.61 v 2 h 1.297 l 0.07,-0.002 a 2.365,2.365 0 0 0 0.688,-0.11 c 0.163,-0.06 0.32,-0.138 0.443,-0.258 0.046,-0.05 0.084,-0.1 0.115,-0.144 0.1,-0.16 0.128,-0.327 0.13,-0.418 0.007,-0.04 0.007,-0.068 0.007,-0.068 v -0.047 c 0,-0.04 -0.007,-0.11 -0.03,-0.193 a 0.753,0.753 0 0 0 -0.15,-0.3 l -0.053,-0.06 a 0.42,0.42 0 0 0 -0.113,-0.094 0.97,0.97 0 0 0 -0.24,-0.138 c -0.12,-0.05 -0.25,-0.09 -0.393,-0.114 -0.07,-0.014 -0.15,-0.023 -0.23,-0.033 -0.05,-0.004 -0.098,-0.01 -0.15,-0.013 -0.04,0 -0.09,-0.005 -0.13,-0.005 h -1.26 m 0,-3.04 v 1.897 h 0.724 a 2.728,2.728 0 0 0 0.63,-0.078 c 0.034,-0.014 0.07,-0.023 0.104,-0.036 0.14,-0.05 0.277,-0.123 0.38,-0.227 a 0.694,0.694 0 0 0 0.176,-0.26 0.96,0.96 0 0 0 0.064,-0.285 v -0.105 c 0,0 0.002,-0.03 0,-0.076 a 0.873,0.873 0 0 0 -0.086,-0.348 0.726,0.726 0 0 0 -0.138,-0.178 0.733,0.733 0 0 0 -0.248,-0.17 1.98,1.98 0 0 0 -0.55,-0.12 c -0.078,-0.01 -0.14,-0.01 -0.2,-0.01 h -0.87 M 61.414,16 v 7.325 h 2.756 c 0,0 1.34,0.04 2.09,-0.702 0.6,-0.606 0.56,-1.303 0.56,-1.303 0,0 0.04,-0.73 -0.52,-1.29 -0.475,-0.478 -1.084,-0.603 -1.084,-0.603 0,0 0.272,-0.13 0.48,-0.34 0.1,-0.095 0.45,-0.418 0.45,-1.187 0,-0.78 -0.517,-1.225 -0.517,-1.225 0,0 -0.57,-0.67 -1.848,-0.67 h -2.38 m -2.834,-1.43 H 69.4 v 10.17 H 58.6 V 14.56 Z m -8.29,5.61 v 2.003 h 1.294 l 0.07,-0.002 c 0.04,0 0.102,0 0.18,-0.01 0.14,-0.01 0.32,-0.04 0.503,-0.1 0.16,-0.06 0.32,-0.135 0.44,-0.255 a 0.593,0.593 0 0 0 0.116,-0.14 c 0.1,-0.16 0.13,-0.33 0.134,-0.42 l 0.002,-0.062 c 0,0 0.004,-0.02 0,-0.05 a 0.906,0.906 0 0 0 -0.024,-0.194 0.84,0.84 0 0 0 -0.15,-0.304 c -0.02,-0.02 -0.032,-0.04 -0.05,-0.06 a 1.133,1.133 0 0 0 -0.356,-0.24 1.607,1.607 0 0 0 -0.39,-0.113 l -0.23,-0.03 c -0.05,-0.005 -0.1,-0.01 -0.15,-0.01 a 0.897,0.897 0 0 0 -0.138,-0.01 h -1.24 m 0,-3.037 v 1.897 h 0.726 c 0.046,0 0.096,-0.004 0.14,-0.007 0.13,-0.01 0.31,-0.027 0.49,-0.074 l 0.11,-0.037 a 1.03,1.03 0 0 0 0.377,-0.23 0.702,0.702 0 0 0 0.177,-0.26 c 0.045,-0.11 0.06,-0.21 0.067,-0.287 0.01,-0.067 0.01,-0.108 0.01,-0.108 v -0.08 c 0,-0.08 -0.02,-0.218 -0.08,-0.347 a 0.672,0.672 0 0 0 -0.136,-0.177 0.717,0.717 0 0 0 -0.25,-0.17 1.847,1.847 0 0 0 -0.55,-0.12 c -0.07,-0.004 -0.14,-0.004 -0.2,-0.004 h -0.87"
       id="path874"
       inkscape:connector-curvature="0"
       style="fill:#ffffff" />
    <path
       d="m 48.977,15.994 v 7.323 h 2.76 c 0,0 1.344,0.04 2.085,-0.704 0.606,-0.606 0.562,-1.303 0.562,-1.303 0,0 0.044,-0.73 -0.515,-1.29 -0.48,-0.478 -1.09,-0.603 -1.09,-0.603 0,0 0.27,-0.132 0.48,-0.343 0.09,-0.094 0.45,-0.417 0.45,-1.186 0,-0.78 -0.52,-1.225 -0.52,-1.225 0,0 -0.57,-0.67 -1.85,-0.67 h -2.38 m -2.834,-1.427 h 10.81 v 10.17 h -10.8 v -10.17 z"
       id="path876"
       inkscape:connector-curvature="0"
       style="fill:#ffffff" />
  </g>
</svg>
