<svg xmlns="http://www.w3.org/2000/svg" width="128" height="64"><g stroke="null"><path d="M-.802-.605h129.19v65.21H-.8z" fill="#9d0a0e" fill-rule="evenodd"/><g fill="#fff"><path d="M66.623 23.12c0 .308-.094.618-.37.86-.275.24-.748.424-1.533.424h-1.59v-2.536h1.514c.71 0 1.21.152 1.523.37.313.226.455.52.464.89m-1.285-3.048c.3-.208.44-.51.443-.965 0-.302-.09-.567-.312-.766-.223-.2-.603-.343-1.215-.343h-1.125v2.413h.77c.666 0 1.145-.118 1.44-.332m2.994 3.23c.004-1.174-.777-2.068-2.03-2.414.335-.172.605-.383.8-.643.264-.34.387-.764.387-1.26 0-.604-.237-1.22-.748-1.684-.51-.46-1.287-.76-2.347-.76H61.47v9.317h3.438c1.23 0 2.09-.33 2.645-.825.554-.492.792-1.135.79-1.73m3.27 4.36H57.86V14.734h13.737v12.933zM49.505 20.08c.293-.213.438-.514.44-.966 0-.31-.09-.574-.31-.772-.227-.198-.605-.34-1.22-.34H47.29v2.412h.768c.662 0 1.144-.12 1.438-.334m.823 2.157c-.315-.217-.816-.37-1.526-.37H47.28v2.546h1.586c.788 0 1.262-.18 1.538-.418.274-.242.372-.552.372-.86-.003-.37-.145-.666-.458-.89"/><path d="M52.497 23.305c.005-1.173-.78-2.067-2.03-2.41.338-.173.606-.384.8-.642.263-.345.388-.768.387-1.262 0-.603-.237-1.22-.75-1.684-.51-.46-1.288-.76-2.35-.76h-2.93v9.315h3.44c1.226 0 2.086-.332 2.64-.825.555-.49.795-1.135.793-1.728m3.266 4.362H42.02V14.733h13.743v12.933zm28.943-4.296l-.22.142c-1.065.65-2.224.997-3.274.996-2.252-.006-3.733-1.34-3.74-3.282.01-1.897 1.553-3.302 3.69-3.308 1.09 0 2.073.284 3.237.924l.215.115v-1.74l-.088-.037c-1.318-.52-2.337-.75-3.346-.75-1.557 0-2.91.514-3.872 1.387-.966.87-1.54 2.104-1.534 3.52 0 .986.407 2.14 1.277 3.06.87.917 2.206 1.59 4.043 1.59h.005c1.524 0 2.58-.342 3.534-.806l.08-.04v-1.77zm2.73 4.304h-13.74V14.734h13.74v12.933z"/></g><path d="M44.488 33.21h2.093v15.384H44.69L34.403 36.75v11.844h-2.068V33.21h1.782l10.37 11.95V33.21zm6.06 0h8.722v1.96h-6.52v4.69h6.298v1.97H52.75v4.777h6.728v1.958h-8.93V33.21zm32.222 0h2.195l-6.218 15.45h-.483l-5.03-12.51-5.08 12.508h-.474l-6.2-15.447h2.22l4.238 10.606 4.266-10.603h2.082l4.288 10.606 4.196-10.607zm8.162 8.94l-1.672-1.02c-1.05-.642-1.797-1.272-2.242-1.893-.444-.62-.666-1.335-.666-2.142 0-1.22.42-2.194 1.26-2.95.834-.758 1.93-1.137 3.275-1.137 1.277 0 2.46.36 3.53 1.08v2.498c-1.108-1.07-2.31-1.6-3.587-1.6-.72 0-1.31.162-1.772.502-.464.33-.694.757-.694 1.277 0 .454.17.89.51 1.296.34.4.89.825 1.643 1.27l1.684.994c1.875 1.116 2.814 2.545 2.814 4.276 0 1.23-.414 2.234-1.24 3.002-.826.768-1.898 1.154-3.22 1.154-1.514 0-2.9-.463-4.148-1.4v-2.79c1.188 1.505 2.564 2.26 4.128 2.26.69 0 1.264-.193 1.722-.577.46-.386.69-.867.69-1.445 0-.936-.678-1.824-2.03-2.664" fill="#fff"/></g></svg>