<svg xmlns="http://www.w3.org/2000/svg" width="128" height="64"><g stroke="null"><path d="M76.52.173h19.096v17.882H76.52V.173zm2.88 8.694c-.002.165-.002.275-.002.44v.66c.056.11.056.22.056.385.06 0 .06.055.06.11 0 .11.056.22.056.275.06.165.06.275.116.385.06.165.117.275.167.44.11.22.22.386.276.606.11.11.16.22.22.33.05.11.11.165.16.275s.15.22.22.275c.11.11.16.22.28.33s.16.22.27.33l.054.055c.116.055.166.116.282.22.06.055.16.116.224.166.11.05.157.16.218.22.116.05.216.11.34.16.11.11.22.16.336.22.285.16.56.27.827.38.168.05.278.11.38.16.12.053.23.053.39.11l.66.163c.22.054.39.054.61.11.225 0 .446.054.668.054h.5c.39 0 .775 0 1.102-.055h.06c.166 0 .276 0 .382-.056.224 0 .384-.056.6-.056.117 0 .222-.06.34-.06.16-.056.336-.11.44-.11.117-.056.228-.056.34-.11.12-.056.223-.056.34-.11l.116-.056c.057 0 .168-.055.22-.055.114-.058.28-.11.446-.168.057-.056.16-.11.278-.166.116-.053.222-.053.277-.11.054-.053.115-.053.165-.053V12.09c-.055.055-.055.055-.116.055l-.17.11c-.163.11-.335.22-.495.273-.167.11-.345.22-.51.277-.333.164-.6.274-.876.384-.563.16-1.05.27-1.5.38h-.11c-.17.053-.293.053-.393.053-.167 0-.333 0-.444.053h-.274c-.17 0-.34 0-.568-.057-.16 0-.376 0-.6-.055-.385-.057-.717-.167-1.05-.277-.055 0-.11-.057-.16-.057s-.116-.056-.116-.056c-.058 0-.12-.055-.17-.055-.11-.055-.214-.11-.33-.165-.117-.056-.167-.11-.22-.11-.058-.056-.12-.11-.168-.11-.058-.056-.12-.11-.22-.166-.06-.055-.11-.11-.16-.165l-.126-.056v-.05l-.054-.055-.33-.33c-.055-.058-.11-.11-.11-.168-.056-.055-.117-.11-.167-.22 0-.055-.055-.11-.116-.166-.05-.056-.05-.166-.102-.22-.055-.11-.055-.166-.11-.22-.056-.166-.117-.276-.117-.386-.057-.11-.057-.165-.117-.275-.044-.278-.11-.498-.11-.66v-.66c0-.11 0-.28.066-.5 0-.11 0-.274.05-.384 0-.11.055-.166.055-.276.055-.11.055-.16.11-.27 0-.05.067-.11.067-.16.055-.11.11-.16.11-.27.055-.056.116-.11.116-.166.11-.164.215-.274.276-.44.054-.054.115-.11.115-.164.056-.056.16-.11.16-.166.056 0 .12-.054.12-.11.43-.44.94-.77 1.493-.99.05-.055.16-.055.22-.11.113-.055.163-.055.274-.11.055 0 .166-.055.28-.055.056-.06.16-.06.217-.06.117-.056.23-.056.283-.056.115-.053.225-.053.28-.053.11 0 .224-.054.28-.054h1.107c.055 0 .16 0 .22.055.156 0 .334 0 .44.058.115 0 .28 0 .386.053.163 0 .34.057.5.11.06 0 .16.057.217.057.114.053.225.053.34.11.115.053.165.053.165.053.16.054.275.11.375.164.168.054.284.11.445.164.117.056.22.11.338.166s.16.11.223.11c.16.054.276.164.375.22l.227.11V3.58s-.16-.056-.383-.11c-.117-.056-.283-.11-.443-.167-.077-.056-.182-.056-.304-.11-.055 0-.11-.056-.216-.056-.06-.055-.16-.055-.28-.11-.056 0-.11-.055-.217-.055h-.06c-.053-.056-.163-.056-.22-.11-.11 0-.16 0-.274-.056-.06 0-.116 0-.166-.056-.11 0-.16 0-.28-.056-.114 0-.22 0-.33-.055h-.23l-.11-.06c-.16 0-.277 0-.443-.06h-1.72c-.117.05-.217.05-.338.05h-.115l-.11.054h-.278c-.056.055-.117.055-.22.055-.445.11-.888.22-1.27.387-.166.053-.388.163-.565.22-.16.11-.277.164-.443.274-.11.056-.27.166-.37.22-.06.056-.16.11-.22.166-.058.054-.12.054-.16.11-.114.11-.225.164-.34.274-.095.11-.2.22-.316.28-.056.11-.11.163-.222.273-.054.056-.165.166-.22.276-.056.053-.16.163-.222.273-.052.056-.113.166-.16.22-.06.056-.06.11-.114.166-.22.33-.387.66-.5 1.04-.22.45-.33.94-.39 1.49-.05.17-.05.33-.05.5zM61.785 4.685h1.883c.277.055.664.11.996.22.11.11.277.165.388.33.11.055.222.165.277.275.11.22.11.495.11.606.05.11.05.165.05.165s0 .06-.06.17c0 .17 0 .33-.116.5-.057.17-.168.33-.28.5-.22.167-.44.277-.72.387-.054 0-.11.056-.165.056-.33.11-.61.11-.83.165h-1.55V4.69zm0 8.858v-3.52H64c.055 0 .166.054.22.054h.278c.166 0 .277.055.388.055.277.055.498.11.72.22.166.055.282.11.443.22.05.055.11.11.16.165.05.055.05.055.11.11.16.165.212.385.28.55 0 .11.053.276.053.33v.22c-.058.166-.058.44-.285.716-.054.055-.115.165-.16.275-.22.165-.497.33-.83.44-.277.11-.61.165-.886.165h-2.72zM54.42.173h19.154v17.882H54.42V.173zm5.04 2.53V15.58h4.872s2.38.054 3.704-1.266c1.047-1.046 1.003-2.256 1.003-2.256s.06-1.32-.95-2.31C67.27 8.92 66.15 8.7 66.15 8.7s.498-.22.886-.604c.16-.165.824-.715.824-2.09s-.94-2.146-.94-2.146-1.003-1.156-3.267-1.156H59.46zM41.02 8.04h-1.328V4.686h1.883c.332.055.664.11.997.22.166.11.332.165.443.33.11.055.166.165.22.275.112.22.167.5.167.61v.33c0 .17-.055.33-.11.5-.056.17-.16.33-.333.5-.17.168-.39.278-.67.388-.06 0-.11.056-.17.056-.34.11-.67.11-.89.166h-.22zm-1.322 5.503v-3.52h2.27c.056 0 .11.054.222.054h.276s.277.055.388.055c.277.055.498.11.72.22.11.055.277.11.387.22.12.055.17.11.23.165l.11.11c.11.165.22.385.22.55.06.11.06.276.06.33v.22c0 .166-.05.44-.22.716-.05.055-.11.165-.22.275-.223.165-.5.33-.78.44-.33.11-.662.165-.883.165H39.7zM32.384.173h19.102v17.882H32.384V.173zm4.988 15.406H42.3s2.38.05 3.655-1.27c1.107-1.05.996-2.26.996-2.26s.12-1.32-.88-2.31c-.83-.83-1.94-1.05-1.94-1.05s.5-.22.89-.61c.17-.164.778-.714.778-2.09s-.89-2.142-.89-2.142S43.85 2.7 41.58 2.7h-4.21l.004 12.874z"/><path d="M123.8 46.127l-.11-.837c-1.042-8.104-8.068-14.223-16.34-14.223-6.113 0-11.45 3.318-14.314 8.226-2.862-4.94-8.244-8.226-14.313-8.226-5.233 0-9.9 2.432-12.935 6.218v-6.14H64.52c-5.254 0-9.94 2.46-12.95 6.277-3.013-3.906-7.752-6.437-13.074-6.437-3.543 0-6.882 1.073-9.65 3.048V22.32H21.9v34.596h-1.257c-5.282 0-9.574-4.242-9.574-9.436v-7.923h7.53v-6.822h-7.53v-10.42H4.2V47.48c0 9.007 7.375 16.336 16.445 16.336h8.2v-16.5c0-5.333 4.236-9.514 9.65-9.514 5.278 0 9.575 4.264 9.575 9.513V63.81h6.87V47.48c0-5.2 4.298-9.436 9.575-9.436h.698c-1.9 2.67-3.013 5.92-3.013 9.436 0 9.007 7.403 16.336 16.517 16.336h13.345V57H78.717c-.703 0-1.428-.095-2.12-.238l14.258-8.17c.575 8.49 7.746 15.235 16.49 15.235h13.343v-6.823h-13.344c-.714 0-1.43-.088-2.12-.236l17.84-10.207.736-.43m-53.327 6.22c-.864-1.48-1.33-3.13-1.33-4.87 0-5.34 4.22-9.51 9.574-9.51 3.5 0 6.71 1.89 8.328 4.8l-16.572 9.59zm28.626 0c-.87-1.47-1.33-3.13-1.33-4.86 0-5.34 4.19-9.51 9.57-9.51 3.49 0 6.71 1.89 8.32 4.797l-16.56 9.57z" fill="#FF008D"/></g></svg>