<svg xmlns="http://www.w3.org/2000/svg" width="128" height="64"><g stroke="null"><path d="M.21 65.26V-1.673h129.644v66.93" fill="#005e70"/><path d="M78.264 15.134c-.05-.01-.098-.02-.15-.026l-.06-.01a4.58 4.58 0 0 0-.26-.027l-.18-.01h-.43c-.08 0-.164.01-.245.01-.05 0-.1.01-.14.01l-.2.03-.05.005-.06.007-.08.01-.09.016-.14.028c-.26.06-.507.13-.73.22-.12.047-.23.09-.34.148-.086.047-.17.09-.25.138-.08.05-.156.09-.235.14l-.12.086-.104.072c-.07.052-.14.11-.2.165-.06.056-.12.11-.17.16l-.137.148c-.05.05-.09.1-.134.15-.05.06-.09.12-.134.18a.932.932 0 0 0-.09.138c-.027.03-.046.065-.065.097a3.796 3.796 0 0 0-.522 1.483 2.89 2.89 0 0 0-.03.298c-.007.08-.007.16-.007.237v.178l.02.182.004.04.034.214c.01.026.01.054.02.08l.04.17c.027.073.046.145.068.214.033.085.06.167.096.25.054.128.11.25.177.367.04.067.075.134.116.2l.095.148c.05.06.09.12.14.18.047.06.1.12.142.17.064.07.117.133.18.19l.03.03c.05.045.1.096.16.146.046.035.084.073.13.107.045.035.086.07.136.104l.18.12c.064.04.133.084.206.125.147.08.31.16.487.23.065.03.14.053.21.075a4.748 4.748 0 0 0 .62.168c.12.02.235.04.358.057.12.016.245.03.38.035.064.003.123.006.193.006h.09c.236 0 .45-.006.654-.025l.04-.004c.08-.003.16-.013.233-.022.114-.01.22-.03.324-.05.067-.01.13-.02.196-.04.092-.013.183-.04.27-.06.064-.02.13-.04.19-.05.066-.02.14-.047.202-.07l.065-.02c.03-.01.075-.026.126-.048.065-.027.15-.06.24-.1.055-.022.114-.047.174-.076l.17-.08c.026-.016.05-.025.07-.038v-1.43l-.05.032-.094.06c-.1.06-.19.116-.29.17-.102.053-.203.106-.306.153a5.396 5.396 0 0 1-1.36.444l-.09.016c-.07.01-.14.02-.2.024-.1.01-.195.016-.276.022h-.153c-.104 0-.204 0-.31-.01a3.51 3.51 0 0 1-.38-.044c-.21-.03-.424-.08-.625-.16a.48.48 0 0 1-.092-.033l-.056-.024-.097-.043a5.17 5.17 0 0 1-.21-.107c-.03-.023-.065-.04-.1-.064-.04-.02-.072-.044-.103-.066a1.837 1.837 0 0 1-.123-.085 2.522 2.522 0 0 0-.11-.094l-.05-.043-.02-.02-.018-.014-.015-.018c-.068-.062-.125-.13-.184-.19a.7.7 0 0 1-.08-.11.342.342 0 0 1-.07-.106c-.028-.03-.05-.07-.07-.1-.027-.05-.06-.1-.08-.156-.022-.04-.04-.088-.057-.13-.03-.07-.062-.142-.08-.212a1.457 1.457 0 0 1-.042-.16 1.61 1.61 0 0 1-.07-.404c-.01-.046-.01-.087-.01-.125-.006-.058-.006-.11-.006-.15v-.088c.005-.086.01-.186.03-.306.01-.07.025-.15.044-.23l.047-.164.054-.157c.01-.034.03-.07.05-.107.02-.047.04-.097.067-.144.02-.038.04-.073.063-.11a1.54 1.54 0 0 1 .16-.243c.02-.03.042-.06.065-.09.03-.036.06-.073.096-.11a.55.55 0 0 1 .05-.055c.267-.26.56-.46.86-.598.05-.022.1-.04.15-.06l.14-.053c.06-.015.11-.034.16-.05l.157-.04c.05-.01.097-.02.15-.025.06-.02.11-.02.165-.03.057-.01.114-.02.167-.02.102-.01.206-.018.307-.018h.094l.22.01c.053 0 .1.005.144.01l.26.03.215.04c.097.02.2.045.276.067.056.013.106.03.154.04l.176.06c.08.024.126.043.126.043.07.023.14.05.21.08.09.035.18.076.26.114.07.03.135.062.2.093l.14.073c.08.04.144.075.2.107l.146.08V15.7s-.084-.033-.24-.09l-.23-.09a2.68 2.68 0 0 1-.16-.052c-.05-.013-.09-.03-.145-.045-.05-.02-.1-.038-.16-.057l-.124-.04-.04-.014-.127-.036-.155-.04c-.036-.01-.07-.015-.1-.024l-.17-.037c-.065-.01-.125-.022-.18-.03m-7.033-1.46H82.4v10.49H71.24v-10.49zm-8.572 5.78v2.063H64s.03 0 .074-.006c.04 0 .104-.01.18-.01.147-.018.34-.04.525-.11.166-.055.33-.14.455-.266a.912.912 0 0 0 .26-.578l.004-.064v-.05c-.007-.04-.01-.117-.03-.2a.877.877 0 0 0-.16-.317l-.053-.056c-.04-.035-.08-.07-.125-.1a1.175 1.175 0 0 0-.246-.14 1.896 1.896 0 0 0-.402-.12 2.427 2.427 0 0 0-.24-.034l-.153-.01c-.04 0-.092-.004-.14-.004h-1.29zm0-3.134v1.955h.746c.046 0 .1 0 .147-.005a2.37 2.37 0 0 0 .5-.075 1.18 1.18 0 0 0 .11-.036 1.05 1.05 0 0 0 .39-.23.808.808 0 0 0 .183-.27c.044-.11.06-.22.066-.294.004-.07.004-.11.004-.11s.003-.032-.003-.085a.94.94 0 0 0-.09-.355.678.678 0 0 0-.135-.188 1.06 1.06 0 0 0-.26-.17 1.758 1.758 0 0 0-.568-.12c-.076-.008-.146-.008-.205-.008h-.896zM61.3 15.14v7.56h2.842s1.387.037 2.155-.73c.62-.624.58-1.345.58-1.345s.045-.758-.54-1.338c-.485-.49-1.115-.62-1.115-.62s.286-.138.504-.355c.093-.1.46-.43.46-1.225 0-.8-.54-1.264-.54-1.264s-.586-.69-1.902-.69h-2.46zm-2.9-1.47h11.15v10.493H58.39v-10.49zm-8.57 5.787v2.063h1.34s.025 0 .07-.004c.043 0 .106-.01.185-.01.146-.018.335-.04.52-.11.17-.055.334-.14.457-.266.047-.05.088-.1.122-.15a.9.9 0 0 0 .132-.427c.007-.04.007-.066.007-.066v-.05a.984.984 0 0 0-.025-.2.96.96 0 0 0-.16-.316c-.013-.02-.032-.03-.05-.05-.04-.03-.077-.07-.12-.1a1.388 1.388 0 0 0-.25-.14 2.16 2.16 0 0 0-.402-.12 3.993 3.993 0 0 0-.236-.03l-.157-.01a2.01 2.01 0 0 0-.14-.005h-1.3zm0-3.134v1.955h.75c.042 0 .096 0 .143-.004a2.55 2.55 0 0 0 .504-.077.695.695 0 0 0 .11-.04c.143-.05.282-.126.392-.233a.952.952 0 0 0 .18-.267c.04-.116.06-.22.06-.298.01-.07.01-.11.01-.11v-.09a.892.892 0 0 0-.09-.36.854.854 0 0 0-.14-.186.937.937 0 0 0-.25-.17 1.83 1.83 0 0 0-.57-.12c-.075-.006-.144-.006-.204-.006h-.894zm-1.36-1.183v7.56h2.846s1.388.038 2.153-.73c.62-.623.58-1.344.58-1.344s.04-.758-.54-1.338c-.49-.49-1.12-.623-1.12-.623s.28-.13.5-.35c.1-.1.46-.43.46-1.227 0-.802-.53-1.262-.53-1.262s-.585-.69-1.904-.69h-2.45zm-2.923-1.47H56.7v10.493H45.55v-10.49zm-8.32 20.785h-5.673v-2.98H46.19v2.98h-5.675V49.99H37.22zm12.29-2.98h3.61l3.48 13.338h.05l4.157-13.338h3.242l4.08 13.338h.052l3.636-13.338h3.352L69.784 49.99H66.64l-4.29-14.097h-.05L58.01 49.99h-3.034zm36.9-.473c5.78-.103 9.855 3.768 9.855 9.704 0 5.78-4.074 9.643-9.852 9.75-5.707 0-9.786-3.868-9.786-9.65-.002-5.938 4.08-9.81 9.786-9.81m.023 16.477c3.843 0 6.376-2.927 6.376-6.88 0-3.686-2.54-6.616-6.38-6.616-3.82 0-6.36 2.93-6.36 6.617 0 3.958 2.54 6.88 6.36 6.88" fill="#fff"/></g></svg>