<svg xmlns="http://www.w3.org/2000/svg" width="128" height="64"><g stroke="null"><path d="M.07-1.035h128.686v65.657H.07V-1.035"/><path fill="#fff" d="M40.936 29.835h-9.75V48.1h2.625v-8.487h7.13v-2.358h-7.13v-5.062h7.13zm2.512 9.13c0 4.956 3.774 9.374 9.746 9.374 6.19 0 9.884-4.45 9.884-9.38 0-5.09-3.802-9.37-9.83-9.37-5.92-.01-9.8 4.31-9.8 9.37m2.703 0c0-4.02 3.03-6.96 7.1-6.96 4.1 0 7.13 2.94 7.13 6.96 0 3.99-3.02 6.96-7.12 6.96-4.07-.005-7.094-2.978-7.094-6.97M81.1 29.83h-2.63v10.64c0 1.71-.21 3.055-1.15 3.99-.83.833-2.276 1.477-4.286 1.477-1.576 0-2.895-.512-3.937-1.555-.833-.832-1.1-1.69-1.1-3.752V29.835H65.37v11.357c0 4.98 3.75 7.147 7.613 7.147 5.432 0 8.113-2.95 8.113-7.42V29.83m3.654-.003V48.1h2.628v-7.928h1.1c1.337 0 2.433.433 4.844 4.18l2.412 3.748h3.133c-1.256-1.74-1.714-2.358-2.49-3.614-1.39-2.28-2.41-3.966-4.07-5.062 1.954-.775 3.053-2.358 3.053-4.47 0-3.166-2.305-5.122-5.997-5.122H84.75m2.625 2.25h1.683c2.55 0 3.567 1.047 3.592 2.76.03 1.524-.778 2.972-3.592 2.972h-1.683v-5.73M77.86 15.982c-.052-.007-.096-.016-.15-.025l-.056-.007c-.085-.012-.17-.025-.25-.03-.058-.004-.114-.007-.17-.014-.104-.003-.202-.006-.302-.006h-.113l-.25.01c-.05.003-.09.006-.13.012-.07.003-.13.013-.19.022l-.06.006-.06.01-.075.012c-.03.007-.06.01-.09.016-.044.01-.08.016-.128.025-.26.053-.49.126-.715.21-.116.044-.22.088-.33.145-.084.04-.166.082-.245.132-.077.044-.152.085-.222.135-.04.028-.08.056-.12.08-.034.03-.066.052-.097.074-.07.05-.134.1-.197.16l-.17.15c-.046.04-.086.09-.13.14-.047.05-.09.09-.13.15-.046.05-.087.11-.13.17l-.094.13c-.025.03-.04.06-.06.09-.11.183-.21.38-.295.59-.1.26-.174.544-.215.85-.013.09-.02.19-.025.284-.005.073-.005.154-.005.23v.172l.02.174.004.045c.005.065.02.134.03.197 0 .03.01.055.016.08l.04.165c.02.07.04.138.065.204.03.08.058.164.09.24.05.125.106.244.17.358.04.065.07.128.115.194l.09.14c.04.067.082.127.13.18.05.06.09.114.134.17l.177.18.03.028c.045.047.09.094.152.144.04.03.08.07.125.105l.13.096c.05.04.11.078.17.12.067.043.133.08.208.12.14.083.3.16.47.23.065.025.134.053.2.075s.14.045.213.067c.125.04.254.07.395.093.11.022.227.04.34.053.12.016.24.03.37.035.06.003.12.006.186.006h.086c.23 0 .44-.004.636-.023l.036-.004c.076-.003.152-.013.224-.02l.32-.05.183-.04c.09-.02.18-.044.266-.063.07-.017.126-.03.185-.05.07-.02.138-.048.2-.067l.066-.02c.036-.01.073-.027.12-.046.066-.02.145-.06.236-.09.055-.02.11-.046.17-.075.05-.023.11-.05.17-.073l.07-.033v-1.39l-.057.03-.092.06c-.092.06-.19.106-.28.163-.1.052-.195.102-.295.15-.173.08-.333.147-.496.203-.306.108-.58.177-.827.218-.03.007-.06.014-.087.017-.07.01-.13.02-.198.028-.098.01-.19.01-.268.02h-.145c-.097 0-.2 0-.305-.01-.12-.01-.24-.03-.37-.048-.2-.036-.4-.08-.6-.158L75.6 22c-.02-.01-.04-.02-.06-.025l-.094-.046c-.07-.03-.138-.07-.2-.1-.03-.02-.067-.04-.095-.06-.034-.027-.07-.05-.1-.07l-.12-.09c-.04-.03-.077-.064-.11-.09l-.05-.04-.024-.023-.012-.01-.017-.02c-.065-.063-.12-.12-.174-.188-.024-.036-.055-.07-.08-.108-.025-.03-.05-.067-.07-.1l-.06-.1c-.03-.05-.06-.097-.074-.144-.025-.046-.044-.084-.063-.125-.027-.07-.056-.14-.07-.205-.02-.05-.036-.103-.048-.153-.04-.146-.06-.277-.067-.39-.008-.04-.008-.085-.008-.12-.01-.052-.01-.102-.01-.14v-.087c.007-.074.014-.18.033-.29.01-.07.02-.15.04-.23.012-.05.03-.1.046-.16.014-.045.03-.096.05-.15l.046-.1c.016-.046.042-.09.064-.14.02-.038.04-.07.06-.107.047-.074.098-.16.157-.234.025-.03.044-.058.066-.08.03-.038.067-.076.09-.11.02-.02.04-.037.05-.056.26-.252.546-.444.84-.58l.14-.06c.05-.02.095-.033.14-.052l.156-.044c.05-.017.1-.03.145-.04l.15-.03c.053-.01.106-.02.16-.024.053-.01.103-.014.16-.02.1-.006.2-.01.3-.01h.095c.07.004.143.004.21.01.05.003.09.003.14.01.086.01.174.018.25.034.07.01.14.024.203.037l.27.06c.06.018.1.037.145.05l.173.05.12.05c.07.03.137.05.2.08.088.03.17.07.25.11.07.023.137.06.196.083.05.026.096.05.14.07l.197.104.148.075v-1.35s-.085-.037-.233-.093c-.065-.02-.14-.054-.23-.08-.045-.02-.095-.04-.155-.06-.04-.01-.086-.027-.13-.04l-.166-.05c-.036-.017-.073-.03-.12-.04l-.03-.01c-.046-.01-.087-.026-.13-.036-.05-.015-.1-.028-.15-.04-.03-.007-.06-.02-.093-.026l-.16-.04c-.06 0-.113-.016-.173-.025m-6.81-1.416H81.85v10.17h-10.8V14.56zm-8.306 5.61v2h1.297l.07-.002c.043 0 .106-.004.178-.01.143-.01.33-.044.51-.1.163-.06.32-.138.443-.258.046-.05.084-.1.115-.144.1-.16.127-.327.13-.418.006-.04.006-.068.006-.068v-.047c0-.04-.007-.11-.03-.192-.024-.09-.065-.2-.15-.3l-.053-.06c-.032-.034-.066-.07-.113-.094-.07-.057-.15-.1-.24-.138-.12-.05-.25-.09-.394-.114-.07-.015-.15-.024-.23-.034-.05-.004-.098-.01-.15-.013-.04 0-.09-.005-.13-.005h-1.26m0-3.04v1.898h.724c.045 0 .095-.003.142-.006.13-.01.31-.025.488-.072.033-.015.068-.024.103-.037.14-.05.277-.123.38-.227.085-.077.14-.17.176-.26.042-.11.06-.21.064-.285v-.105s.002-.03 0-.076c-.005-.083-.02-.22-.086-.347-.03-.06-.08-.12-.138-.178-.07-.076-.157-.13-.248-.17-.18-.07-.38-.107-.55-.12-.078-.01-.14-.01-.2-.01h-.87M61.414 16v7.325h2.756s1.34.04 2.09-.702c.6-.606.56-1.303.56-1.303s.04-.73-.52-1.29c-.475-.478-1.084-.603-1.084-.603s.272-.13.48-.34c.1-.095.45-.418.45-1.187 0-.78-.517-1.225-.517-1.225s-.57-.67-1.847-.67h-2.38m-2.834-1.43H69.4v10.17H58.6V14.56zm-8.29 5.61v2.003h1.294l.07-.002c.04 0 .102 0 .18-.01.14-.01.32-.04.503-.1.16-.06.32-.135.44-.255.047-.04.085-.09.116-.14.1-.16.13-.33.133-.42l.002-.063s.004-.02 0-.05c0-.04-.005-.112-.024-.194-.022-.09-.07-.2-.15-.304-.02-.02-.032-.04-.05-.06-.04-.04-.074-.07-.114-.1-.073-.058-.154-.1-.242-.14-.114-.05-.246-.09-.39-.113l-.23-.03c-.05-.005-.1-.01-.15-.01-.046-.007-.09-.01-.138-.01h-1.24m0-3.037v1.897h.726c.046 0 .096-.004.14-.007.13-.01.31-.027.49-.074l.11-.037c.138-.05.273-.126.377-.23.085-.078.14-.17.176-.26.045-.11.06-.21.067-.286.01-.067.01-.108.01-.108v-.08c0-.08-.02-.218-.08-.347-.03-.06-.077-.12-.136-.177-.07-.075-.155-.13-.25-.17-.18-.075-.38-.106-.55-.12-.07-.005-.14-.005-.2-.005h-.87"/><path d="M48.977 15.994v7.323h2.76s1.344.04 2.085-.704c.606-.606.562-1.303.562-1.303s.044-.73-.515-1.29c-.48-.478-1.09-.603-1.09-.603s.27-.132.48-.343c.09-.094.45-.417.45-1.186 0-.78-.52-1.225-.52-1.225s-.57-.67-1.848-.67h-2.38m-2.835-1.427h10.81v10.17h-10.8v-10.17z" fill="#fff"/></g></svg>