<svg xmlns="http://www.w3.org/2000/svg" width="128" height="64"><g fill-rule="evenodd"><path d="M29.886 31.48c0 1.709-2.124 1.607-2.124 1.607h-2.125V30h2.124c2.19-.012 2.125 1.48 2.125 1.48m-4.25-6.185h1.62c1.682.088 1.619 1.34 1.619 1.34 0 1.557-1.86 1.582-1.86 1.582h-1.378zm3.859 3.53s1.455-.62 1.442-2.265c0 0 .22-2.694-3.35-3.023h-3.962v11.296h4.541s3.796.013 3.796-3.188c0 0 .088-2.176-2.467-2.82m-10.253-7.502H35.92V37.04H19.242zm-8.59 10.158c0 1.708-2.124 1.606-2.124 1.606H6.403V30h2.125c2.188-.012 2.125 1.48 2.125 1.48m-4.25-6.185h1.619c1.682.088 1.619 1.34 1.619 1.34 0 1.557-1.86 1.582-1.86 1.582H6.404v-2.922zm3.858 3.53s1.455-.62 1.442-2.265c0 0 .221-2.694-3.349-3.023H4.391v11.296h4.542s3.794.013 3.794-3.188c0 0 .09-2.176-2.466-2.82M.008 21.322h16.679V37.04H.008zm51.744 3.023v2.087s-2.038-1.252-4.29-1.277c0 0-4.198-.082-4.388 4.026 0 0-.152 3.779 4.338 3.994 0 0 1.885.227 4.441-1.404v2.163s-3.429 2.037-7.4.468c0 0-3.34-1.22-3.467-5.221 0 0-.139-4.115 4.314-5.48 0 0 1.19-.456 3.327-.254 0 0 1.278.127 3.125.898M38.475 37.04h16.68V21.323h-16.68z"/><g fill="#f54997"><path d="M108.545 27.511l.832-2.081h-3.984l-2.379 7.672h-.06l-2.556-7.672h-4.341l.594 1.427h-.06c-1.01-1.248-2.675-1.724-4.518-1.724-1.725 0-2.617.238-4.104.654 0 0-.892 2.735-.951 2.854-.06.12.06.298.237.179 1.011-.476 2.32-1.011 3.985-1.011 1.427 0 2.616.416 2.676 2.022-.535-.12-1.249-.178-1.843-.178-1.725 0-4.46.297-5.531 2.2h-.06V21.327h-3.984v3.746h-.06c-.773-2.438-2.973-3.747-6.898-3.747h-4.995v4.223l1.724 3.27c.238.238.298.536 0 .833l-1.724 3.33v4.222h4.162V32.15h1.606c3.212 0 5.352-1.486 6.007-3.805h.06v8.86h3.984V35.54h.059c.714 1.309 2.26 1.844 3.925 1.903 2.022.06 3.152-.951 3.568-1.249.119-.06.178-.118.178 0 0 .357.06.714.06.952h3.687a14.787 14.787 0 01-.238-2.795V29.95c0-.238 0-.476-.06-.713h.06l3.211 8.147s-.535 1.844-2.2 1.844c-.714 0-1.13-.12-1.725-.417-.119-.06-.178 0-.238.12l-.951 2.973c.595.297 2.022.773 3.568.773 3.39 0 4.876-3.747 5.887-6.364l2.438-6.244h.06c-.06.357-.06.714-.06 1.13 0 3.865 2.915 6.185 6.78 6.185 1.19 0 2.438-.238 3.45-.595 0 0 .832-2.438 1.01-2.973.06-.179-.12-.298-.238-.179-1.01.536-2.14 1.071-3.449 1.071-1.962 0-3.21-.654-3.39-2.26h7.79v4.699h3.985V32.15c0-2.557 1.368-3.686 2.914-3.686.357 0 .654.118.654.118l.892-3.092c0-.12 0-.179-.119-.238a7.29 7.29 0 00-1.19-.12c-1.724 0-2.973.952-3.686 2.44h-.06V25.43h-3.627v3.865h-.06c-.654-2.378-2.32-4.103-5.53-4.103-2.2 0-4.045.833-5.174 2.32zm-32.768 1.606h-1.07V24.36h1.071c1.427 0 2.557.773 2.557 2.378 0 1.665-1.13 2.38-2.557 2.38m15.58 5.649c-.95 0-1.664-.476-1.664-1.309 0-1.13 1.07-1.546 2.438-1.546.595 0 1.19.06 1.665.06.06 1.367-.892 2.794-2.438 2.794m20.1-4.578c.06-1.368.773-2.439 2.2-2.439 1.606 0 2.2 1.13 2.2 2.439z"/><path d="M65.906 21.327H61.98v3.984h3.925v-1.665l6.363 5.59-6.363 5.65v-7.612H61.98v9.931h3.925l8.801-7.969"/></g></g></svg>