<svg xmlns="http://www.w3.org/2000/svg" width="128" height="64"><g stroke="null" stroke-width=".997"><path d="M-.386-1.428h128.772v67.035H-.386z" fill="#c90302"/><path d="M71.647 13.898h10.83v10.193h-10.83zm6.824 1.42c-.047-.007-.094-.017-.144-.023h-.06l-.25-.03-.175-.01c-.11-.01-.21-.01-.31-.01-.039 0-.069.008-.109.008-.09 0-.17.008-.24.014l-.139.01c-.07.004-.13.013-.19.02l-.06.01-.056.006-.074.01c-.03.007-.064.01-.09.016l-.13.027a5.056 5.056 0 00-.713.213 6.68 6.68 0 00-.323.14 2.025 2.025 0 00-.25.132c-.08.045-.153.09-.23.137-.034.03-.079.051-.113.083a1.18 1.18 0 00-.1.075l-.2.16c-.059.05-.115.1-.169.16-.047.04-.09.089-.132.129-.043.05-.088.1-.13.15-.043.056-.084.114-.13.169-.03.046-.061.09-.09.138a.896.896 0 00-.057.09c-.12.182-.22.381-.3.593a3.51 3.51 0 00-.214.848 1.98 1.98 0 00-.03.289c-.006.077-.006.152-.006.23a3.094 3.094 0 00.018.346v.04c.01.076.017.146.03.21l.016.08.036.165c.02.07.04.134.063.2a3.61 3.61 0 00.261.598c.03.07.07.13.11.19.03.05.062.099.09.147l.13.171c.05.06.094.12.139.17.06.07.12.13.173.187l.033.024c.042.046.093.094.15.15l.13.1.13.1.169.12c.07.035.135.076.204.12.147.08.302.156.476.22.067.03.133.05.2.08l.215.066c.123.035.255.067.395.096.11.02.226.04.339.055.12.01.25.026.369.03.07 0 .13.005.195.005l.085.004c.23 0 .439-.01.632-.025h.04l.226-.03a4.149 4.149 0 00.319-.05 2.84 2.84 0 00.454-.1c.063-.009.125-.029.183-.049.07-.02.13-.043.194-.066l.062-.022c.03-.01.073-.02.12-.042.06-.02.143-.056.232-.094.053-.024.11-.05.167-.074l.17-.085c.023-.01.045-.024.07-.03v-1.396l-.047.03-.094.054a5.695 5.695 0 01-.582.317 5.048 5.048 0 01-1.326.433c-.026.004-.06.007-.086.014-.07.008-.13.018-.195.027a3.271 3.271 0 01-.266.02c-.05.003-.1.003-.147.003-.1 0-.2 0-.305-.012a3.347 3.347 0 01-.972-.196l-.09-.03c-.02-.013-.04-.02-.06-.03a.812.812 0 01-.092-.04c-.07-.03-.14-.067-.2-.104a.877.877 0 01-.1-.06.741.741 0 01-.099-.063c-.04-.025-.084-.05-.12-.082a1.67 1.67 0 01-.11-.09l-.05-.04-.023-.02-.017-.016-.02-.015-.17-.19c-.026-.037-.055-.07-.08-.107a1.573 1.573 0 01-.07-.101l-.06-.1a.835.835 0 01-.079-.15c-.022-.04-.04-.084-.06-.123a2.204 2.204 0 01-.115-.365 2.528 2.528 0 01-.07-.39l-.01-.119v-.23c.004-.08.01-.179.026-.296.015-.07.027-.143.046-.222.01-.05.03-.105.041-.16.014-.045.037-.1.056-.147.01-.04.025-.07.04-.11l.068-.14.063-.11c.043-.079.094-.153.15-.233.02-.025.044-.056.066-.08.03-.04.06-.073.095-.11.014-.019.03-.033.05-.052a2.57 2.57 0 01.838-.578c.043-.025.09-.04.14-.06.045-.02.09-.04.139-.05.052-.02.103-.04.156-.055.045-.01.096-.026.143-.03.05-.018.097-.025.147-.034.054-.01.11-.02.161-.025l.16-.02c.1-.004.2-.01.3-.01h.095c.08 0 .143.006.212.01a3.488 3.488 0 01.394.045c.07.004.14.016.21.032.096.017.19.04.269.062.05.01.103.026.147.04l.17.053c.079.03.119.04.119.04.07.02.14.052.202.08.086.032.17.07.254.105l.189.092.142.07c.072.04.14.08.19.11l.139.07v-1.367l-.23-.1-.229-.08c-.05-.014-.1-.036-.156-.05l-.137-.05a2.415 2.415 0 01-.16-.05c-.04-.013-.08-.023-.12-.035l-.04-.013-.125-.03a2.035 2.035 0 00-.15-.036l-.1-.03c-.051-.007-.105-.023-.162-.03a1.374 1.374 0 00-.172-.034m-15.081 4.203v1.999h1.37c.045-.003.109-.003.182-.01.145-.015.329-.037.505-.1.167-.055.325-.137.445-.256.04-.048.08-.1.11-.146.1-.16.12-.319.13-.409v-.11a.997.997 0 00-.03-.189.832.832 0 00-.15-.306l-.05-.056a.755.755 0 00-.12-.1 1.129 1.129 0 00-.239-.136 1.845 1.845 0 00-.39-.117 3.648 3.648 0 00-.23-.036l-.15-.01c-.046 0-.093-.003-.143-.003h-1.257m0-3.045v1.895h.728l.142-.01c.13-.002.309-.02.488-.072.033-.01.065-.023.103-.033.14-.05.276-.125.379-.229a.704.704 0 00.17-.265.788.788 0 00.07-.29.758.758 0 00.01-.106v-.084a.937.937 0 00-.09-.346.576.576 0 00-.136-.18.834.834 0 00-.25-.166 1.574 1.574 0 00-.552-.12c-.072-.003-.14-.003-.195-.003h-.868m-4.151-2.586h10.831v10.193H59.153zm2.852 1.431v7.346h2.763s1.346.03 2.094-.718c.604-.599.559-1.307.559-1.307s.05-.731-.515-1.293a2.426 2.426 0 00-1.087-.609s.274-.132.487-.339c.1-.1.452-.419.452-1.193 0-.778-.519-1.226-.519-1.226s-.568-.674-1.853-.674h-2.38m-11.169 4.207v1.999h1.37c.044-.003.104-.003.18-.01a2.19 2.19 0 00.506-.1 1.117 1.117 0 00.445-.256.864.864 0 00.25-.555v-.06s.01-.02 0-.05c0-.04 0-.11-.02-.189a.76.76 0 00-.15-.306l-.05-.056c-.04-.034-.07-.07-.12-.1a.997.997 0 00-.239-.136 1.646 1.646 0 00-.389-.117 2.777 2.777 0 00-.229-.036l-.15-.01c-.04 0-.09-.003-.14-.003h-1.256m0-3.045v1.895h.728l.14-.01c.13-.002.309-.02.498-.072.03-.01.065-.023.103-.033.14-.05.275-.125.38-.229a.772.772 0 00.169-.265.828.828 0 00.07-.29l.004-.106s.006-.03 0-.084a.848.848 0 00-.082-.346.547.547 0 00-.135-.18.788.788 0 00-.247-.166c-.18-.08-.384-.11-.555-.12-.07-.003-.14-.003-.193-.003h-.87m-4.159-2.579h10.821v10.193h-10.84v-10.2zm2.843 1.432v7.346h2.764s1.347.035 2.095-.712c.601-.602.558-1.304.558-1.304s.043-.734-.518-1.297c-.48-.478-1.088-.604-1.088-.604s.275-.133.49-.341c.095-.1.448-.419.448-1.192 0-.778-.519-1.227-.519-1.227s-.57-.672-1.855-.672h-2.383m40.122 22.091c0-1.177-.38-2.587-1.43-3.564-.977-.91-2.247-1.342-3.942-1.342-3.182 0-5.126 2.025-5.419 4.907h10.791zm3.77 3.014H78.88c.363 2.7 2.138 4.746 6.144 4.746 2.254 0 4.703-.773 6.373-1.91l1.43 2.642c-2.463 1.964-5.715 2.678-8.471 2.678-5.513 0-9.47-3.82-9.47-9.714 0-5.751 3.88-9.843 9.396-9.843 5.844 0 9.275 4.054 9.275 9.718a9.49 9.49 0 01-.14 1.68m-49.543 8.16c-5.645 0-9.55-4.044-9.55-9.777 0-5.735 3.905-9.774 9.55-9.774 5.645 0 9.551 4.039 9.551 9.774 0 5.734-3.904 9.775-9.55 9.775m0-3.51c1.835 0 3.211-.579 4.169-1.586 1.007-1.067 1.536-2.623 1.536-4.687 0-2.065-.53-3.62-1.536-4.678-.958-1.017-2.334-1.586-4.163-1.586-1.832 0-3.205.569-4.166 1.58-1.007 1.057-1.532 2.616-1.532 4.678 0 2.064.529 3.62 1.533 4.68.957 1.007 2.334 1.586 4.159 1.586m29.6 3.022h-3.672c-.273-1.401-.392-3.413-.392-5.2l-.01-4.455c0-2.314-.547-3.68-1.447-4.568-.861-.858-2.051-1.187-3.379-1.187-1.568 0-3.058.509-4.096 1.626-1.077 1.156-1.562 2.722-1.562 5.126v8.643h-3.704V34.792c0-1.787-.12-3.8-.392-5.203h3.6c.201.661.404 1.785.479 2.698h.03c1.432-1.998 3.588-3.241 6.514-3.241 2.429 0 4.292.967 5.402 2.104 1.388 1.426 2.254 3.182 2.254 7.046v4.7c0 1.785.104 3.798.377 5.199" fill="#fff"/></g></svg>