<svg xmlns="http://www.w3.org/2000/svg" width="128" height="64"><g stroke="null"><path fill="#c90302" d="M20.5.045h87v63.91h-87V.045z"/><path fill="#fff" d="M71.667 13.76h10.86v10.22h-10.86V13.76zm6.843 1.423c-.047-.006-.095-.016-.145-.022h-.06c-.083-.012-.17-.025-.25-.03l-.176-.014c-.11-.01-.21-.012-.31-.012-.04 0-.068.004-.11.004-.084 0-.167.008-.24.014l-.135.01c-.065.004-.128.013-.19.02l-.055.01-.056.006-.074.012c-.03.007-.063.01-.09.016-.043.007-.087.017-.128.026-.26.06-.498.127-.717.213-.114.046-.225.094-.326.142-.09.04-.175.085-.25.133-.08.044-.156.09-.23.136-.037.03-.08.055-.116.087-.035.024-.07.05-.1.075l-.198.16c-.06.05-.117.105-.17.16-.048.043-.09.09-.134.135-.043.05-.088.1-.13.15-.043.056-.084.114-.13.17-.03.045-.062.09-.09.137-.023.03-.04.06-.058.092-.118.182-.216.382-.296.594-.105.265-.178.548-.216.85-.017.097-.027.19-.03.29-.006.077-.006.153-.006.23 0 .06 0 .116.003.17.003.064.006.12.016.178l.002.04c.01.074.016.144.03.207l.015.078.037.166c.02.072.04.135.063.202.03.086.06.165.092.247.053.123.11.243.17.354.035.07.073.135.114.195.03.05.063.098.09.146l.13.175c.05.06.096.12.14.17.06.07.12.13.175.186l.033.025c.043.047.094.095.15.15l.128.1.13.1c.057.037.114.078.174.12.068.037.135.078.204.123.148.08.304.157.478.224.068.03.134.05.2.076l.217.068c.123.035.256.067.396.096.11.02.226.04.34.054.12.01.248.025.37.03.068 0 .13.004.195.004.026 0 .058.004.086.004.23 0 .44-.01.634-.025h.04c.08-.01.154-.02.227-.027.115-.014.223-.03.32-.05.068-.01.128-.02.188-.034.095-.02.18-.04.267-.066.063-.012.126-.03.184-.05.07-.022.13-.044.193-.067l.062-.022c.03-.01.075-.02.122-.043.063-.022.145-.056.234-.094.053-.024.11-.05.167-.074l.168-.084c.024-.01.046-.023.07-.03v-1.4l-.046.03-.096.055c-.096.06-.19.115-.283.166-.102.055-.197.105-.298.153-.174.08-.34.15-.5.205-.306.11-.58.18-.83.225-.027.003-.06.006-.087.013-.067.007-.13.017-.194.026-.094.01-.186.016-.268.02-.05.002-.1.002-.145.002-.1 0-.2 0-.305-.012-.123-.006-.247-.02-.37-.042-.2-.03-.403-.085-.603-.155l-.09-.03c-.02-.014-.04-.02-.06-.03-.03-.01-.063-.025-.094-.04-.07-.03-.14-.068-.2-.106-.037-.017-.07-.04-.1-.058-.035-.02-.07-.04-.1-.064-.04-.027-.082-.053-.12-.084-.04-.03-.08-.064-.11-.09l-.046-.04-.025-.02-.015-.018-.02-.015c-.06-.064-.115-.124-.17-.187-.027-.037-.056-.07-.08-.107-.027-.037-.05-.07-.07-.104l-.06-.1c-.033-.047-.058-.1-.08-.15-.023-.04-.04-.084-.06-.123-.03-.07-.055-.14-.077-.21-.016-.05-.032-.1-.04-.155-.04-.143-.058-.28-.07-.39l-.01-.12v-.238c.003-.082.01-.18.025-.297.015-.07.027-.145.046-.224.012-.05.03-.104.044-.16.012-.045.035-.1.054-.147.012-.04.025-.07.04-.107l.068-.14.063-.11c.043-.08.094-.156.15-.236.02-.025.045-.057.067-.082.03-.037.06-.072.095-.107.017-.02.033-.034.05-.053.255-.258.544-.448.842-.58.044-.023.092-.04.14-.06.047-.02.09-.04.14-.05.053-.02.104-.037.157-.053.047-.01.098-.026.145-.03.05-.018.096-.025.146-.034.056-.01.113-.02.164-.025l.164-.02c.1-.004.2-.01.298-.01h.096c.078 0 .145.006.214.01.048 0 .1.005.14.01.09.008.174.018.254.034.072.006.142.018.21.034.097.018.19.04.27.063.052.01.103.027.147.04l.17.054c.077.03.118.04.118.04.07.023.14.055.203.08.086.035.17.07.254.108l.19.093.142.072c.074.04.14.077.19.106l.14.073v-1.37l-.23-.097c-.067-.026-.14-.05-.228-.083-.05-.013-.1-.035-.157-.05l-.138-.05c-.05-.013-.104-.032-.16-.05-.04-.013-.08-.023-.12-.035l-.04-.012-.123-.035c-.05-.013-.1-.025-.15-.035l-.1-.03c-.053-.008-.107-.024-.164-.03-.054-.016-.11-.026-.172-.035M63.32 19.4v2.004h1.373c.046-.003.11-.003.183-.01.146-.015.33-.037.507-.1.167-.055.326-.137.446-.257.043-.048.08-.1.112-.146.105-.16.127-.32.134-.412l.002-.063v-.05c0-.04-.008-.11-.027-.195-.024-.096-.07-.207-.15-.308-.016-.02-.035-.04-.05-.056-.035-.034-.073-.07-.118-.1-.073-.055-.155-.1-.24-.137-.118-.05-.248-.09-.394-.116-.077-.014-.153-.027-.23-.036l-.15-.01c-.046 0-.093-.004-.144-.004h-1.26m0-3.054v1.9h.73l.142-.01c.13-.004.31-.023.49-.074.035-.01.067-.022.105-.032.14-.05.276-.123.38-.227.083-.084.137-.176.17-.264.05-.11.065-.215.07-.29.008-.064.008-.106.008-.106v-.082c-.006-.082-.025-.216-.09-.346-.03-.064-.072-.12-.135-.18-.07-.07-.158-.125-.25-.166-.174-.08-.38-.11-.554-.12-.073-.005-.14-.005-.197-.005h-.873m-4.164-2.585h10.86v10.22h-10.86V13.76zM62 15.193v7.366h2.77s1.35.03 2.1-.72c.605-.6.56-1.305.56-1.305s.05-.734-.516-1.298c-.48-.48-1.09-.61-1.09-.61s.275-.132.488-.34c.1-.1.453-.42.453-1.196 0-.78-.52-1.23-.52-1.23s-.57-.674-1.858-.674H62M50.802 19.4v2.004h1.374c.044-.003.104-.003.18-.01.143-.015.33-.037.507-.1.168-.055.327-.137.447-.257.048-.048.086-.1.118-.146.1-.16.13-.32.133-.412v-.063s.01-.023 0-.05c0-.04 0-.11-.02-.195-.02-.096-.07-.207-.15-.308l-.05-.056c-.04-.034-.074-.07-.12-.1-.07-.055-.152-.1-.24-.137-.115-.05-.248-.09-.39-.116-.077-.014-.153-.027-.23-.036l-.154-.01c-.043 0-.09-.004-.14-.004H50.81m0-3.054v1.9h.73l.14-.01c.13-.004.31-.023.492-.074.03-.01.066-.022.104-.032.14-.05.276-.123.38-.227.083-.084.137-.176.172-.264.048-.11.064-.215.07-.29.003-.064.003-.106.003-.106s.003-.03 0-.082c-.003-.082-.022-.216-.085-.346-.032-.064-.073-.12-.137-.18-.066-.07-.155-.125-.247-.166-.18-.08-.385-.11-.556-.12-.07-.005-.14-.005-.195-.005h-.874m-4.17-2.585H57.5v10.22H46.63V13.76zm2.85 1.434v7.365h2.772s1.35.033 2.1-.716c.604-.603.56-1.307.56-1.307s.044-.734-.518-1.298c-.48-.48-1.09-.606-1.09-.606s.274-.134.49-.343c.095-.1.45-.42.45-1.196 0-.78-.52-1.23-.52-1.23s-.573-.674-1.86-.674h-2.39m40.23 22.15c0-1.18-.383-2.594-1.435-3.574-.98-.913-2.255-1.345-3.955-1.345-3.193 0-5.14 2.03-5.435 4.92H89.71zm3.778 3.022H78.913c.364 2.706 2.143 4.757 6.16 4.757 2.26 0 4.716-.776 6.39-1.915l1.434 2.648c-2.467 1.97-5.727 2.686-8.492 2.686-5.527 0-9.494-3.83-9.494-9.74 0-5.768 3.89-9.87 9.42-9.87 5.86 0 9.3 4.064 9.3 9.743 0 .66-.05 1.148-.14 1.684M43.82 48.55c-5.66 0-9.576-4.054-9.576-9.803 0-5.75 3.916-9.8 9.576-9.8s9.577 4.05 9.577 9.8c0 5.75-3.915 9.802-9.576 9.802m0-3.52c1.835 0 3.215-.58 4.176-1.59 1.01-1.068 1.535-2.63 1.535-4.7s-.526-3.63-1.534-4.69c-.96-1.013-2.34-1.587-4.176-1.587-1.837 0-3.213.573-4.177 1.587-1.008 1.06-1.535 2.624-1.535 4.69 0 2.07.527 3.63 1.535 4.694.964 1.012 2.34 1.59 4.176 1.59M73.5 48.05h-3.684c-.273-1.405-.393-3.422-.393-5.213l-.01-4.468c0-2.32-.548-3.69-1.45-4.58-.864-.86-2.057-1.19-3.388-1.19-1.573 0-3.067.51-4.107 1.63-1.078 1.16-1.566 2.737-1.566 5.147v8.667h-3.714V34.712c0-1.792-.12-3.81-.393-5.217h3.61c.202.663.405 1.79.48 2.705h.03c1.436-2.002 3.598-3.25 6.532-3.25 2.435 0 4.303.97 5.416 2.11 1.392 1.43 2.26 3.19 2.26 7.066v4.712c0 1.79.105 3.808.378 5.213"/></g></svg>