<svg xmlns="http://www.w3.org/2000/svg" width="128" height="64"><g stroke="null"><path d="M.07-1.035h128.686v65.657H.07V-1.035"/><path fill="#fff" d="M40.936 29.835h-9.75V48.1h2.625v-8.487h7.13v-2.358h-7.13v-5.062h7.13zm2.512 9.13c0 4.956 3.774 9.374 9.746 9.374 6.19 0 9.884-4.45 9.884-9.38 0-5.09-3.802-9.37-9.83-9.37-5.92-.01-9.8 4.31-9.8 9.37m2.703 0c0-4.02 3.03-6.96 7.1-6.96 4.1 0 7.13 2.94 7.13 6.96 0 3.99-3.02 6.96-7.12 6.96-4.07-.006-7.093-2.98-7.093-6.97M81.1 29.83h-2.63v10.64c0 1.71-.21 3.055-1.15 3.99-.83.833-2.276 1.477-4.286 1.477-1.576 0-2.895-.512-3.937-1.555-.833-.832-1.1-1.69-1.1-3.752V29.835H65.37v11.357c0 4.98 3.75 7.147 7.613 7.147 5.432 0 8.113-2.95 8.113-7.42V29.83m3.654-.003V48.1h2.628v-7.928h1.1c1.337 0 2.433.433 4.844 4.18l2.412 3.748h3.133c-1.256-1.74-1.714-2.358-2.49-3.614-1.39-2.28-2.41-3.966-4.07-5.062 1.954-.775 3.053-2.358 3.053-4.47 0-3.166-2.305-5.122-5.997-5.122H84.75m2.625 2.25h1.683c2.55 0 3.567 1.047 3.592 2.76.03 1.524-.778 2.972-3.592 2.972h-1.683v-5.73M77.86 15.982c-.052-.007-.096-.016-.15-.025l-.056-.007c-.085-.012-.17-.025-.25-.03-.058-.004-.114-.007-.17-.014-.104-.003-.202-.006-.302-.006h-.113l-.25.01a1.45 1.45 0 0 0-.13.012c-.07.003-.13.013-.19.022l-.06.006-.06.01-.076.012c-.03.007-.06.01-.09.016-.044.01-.08.016-.128.025-.26.053-.49.126-.715.21-.115.044-.22.088-.33.145-.083.04-.165.082-.244.132-.077.044-.152.085-.222.135-.04.028-.08.056-.12.08-.034.03-.066.052-.097.074-.07.05-.134.1-.197.16l-.17.15c-.046.04-.086.09-.13.14-.047.05-.09.09-.13.15-.046.05-.087.11-.13.17l-.094.13c-.025.03-.04.06-.06.09-.11.182-.21.38-.295.59a3.752 3.752 0 0 0-.24 1.133c-.004.073-.004.154-.004.23v.172l.02.174.004.044c.005.065.02.134.03.197 0 .03.01.056.016.08l.04.166c.02.07.04.138.065.204.03.08.06.164.09.24.05.125.107.244.17.358.04.065.07.128.116.194l.09.14c.04.067.082.127.13.18.05.06.09.114.134.17l.177.18.03.028c.045.047.09.094.152.144.04.03.08.07.124.105l.13.095c.05.04.11.078.17.12.067.043.133.08.208.12.14.083.3.16.47.23.065.025.134.053.2.075s.14.045.213.067c.125.04.254.07.395.093.11.022.227.04.34.053a3.872 3.872 0 0 0 .556.04h.086c.23 0 .44-.003.636-.022l.036-.003c.076-.003.152-.013.224-.02l.32-.05.183-.04c.09-.02.18-.044.267-.063.07-.017.126-.03.185-.05.07-.02.138-.048.2-.067l.066-.02c.036-.01.073-.027.12-.046.066-.02.145-.06.236-.09.055-.02.11-.045.17-.074.05-.023.11-.05.17-.073l.07-.033v-1.39l-.057.03-.092.06c-.092.06-.19.106-.28.163-.1.052-.195.102-.295.15-.173.08-.333.147-.496.203a4.89 4.89 0 0 1-.827.218c-.03.007-.06.014-.087.017l-.198.03c-.098.01-.19.01-.268.02h-.145c-.098 0-.2 0-.306-.01-.12-.01-.24-.03-.37-.05-.2-.035-.4-.08-.6-.157L75.6 22c-.02-.01-.04-.02-.06-.025l-.094-.046c-.07-.03-.138-.07-.2-.1-.03-.02-.067-.04-.095-.06-.033-.028-.07-.05-.1-.07l-.12-.09c-.04-.03-.076-.065-.11-.09l-.05-.04-.023-.024-.012-.01-.017-.02a1.91 1.91 0 0 1-.174-.188c-.024-.036-.055-.07-.08-.108a.855.855 0 0 1-.07-.1l-.06-.1c-.03-.05-.06-.097-.074-.144a2.1 2.1 0 0 1-.063-.125c-.027-.07-.056-.14-.07-.204a1.933 1.933 0 0 1-.115-.543c-.01-.04-.01-.085-.01-.12-.01-.052-.01-.102-.01-.14v-.087c.008-.074.015-.18.034-.29.01-.07.02-.15.04-.23.012-.05.03-.1.046-.16a2.92 2.92 0 0 1 .05-.15l.046-.1c.015-.046.04-.09.063-.14.02-.038.04-.07.06-.107.047-.075.098-.16.157-.235.025-.03.044-.058.066-.08.03-.038.067-.076.09-.11.02-.02.04-.037.05-.056.26-.253.546-.445.84-.58l.14-.06c.05-.02.095-.034.14-.053l.156-.044c.05-.017.1-.03.145-.04l.15-.03c.053-.01.106-.02.16-.024.053-.01.103-.015.16-.02.1-.007.2-.01.3-.01h.095c.07.003.143.003.21.01.05.002.09.002.14.01.086.01.174.017.25.033.07.01.14.024.203.037l.27.06c.06.018.1.037.145.05l.173.05.12.05c.07.03.137.05.2.08.088.03.17.07.25.11.07.023.137.06.196.083.05.026.095.05.14.07l.196.104.148.075v-1.35s-.085-.037-.233-.093c-.064-.02-.14-.055-.23-.08a1.695 1.695 0 0 0-.154-.06c-.04-.01-.086-.028-.13-.04l-.166-.05a.528.528 0 0 0-.12-.04l-.03-.01c-.046-.01-.087-.027-.13-.037-.05-.015-.1-.028-.15-.04-.03-.007-.06-.02-.093-.026l-.16-.04c-.06 0-.113-.016-.173-.025m-6.81-1.416H81.85v10.17h-10.8V14.56zm-8.306 5.61v2h1.297l.07-.002a2.365 2.365 0 0 0 .688-.11c.163-.06.32-.138.443-.258.046-.05.084-.1.115-.144.1-.16.128-.327.13-.418.007-.04.007-.068.007-.068v-.047c0-.04-.007-.11-.03-.193a.753.753 0 0 0-.15-.3l-.053-.06a.42.42 0 0 0-.113-.094.97.97 0 0 0-.24-.138c-.12-.05-.25-.09-.393-.114-.07-.014-.15-.023-.23-.033-.05-.004-.098-.01-.15-.013-.04 0-.09-.005-.13-.005h-1.26m0-3.04v1.897h.724a2.728 2.728 0 0 0 .63-.078c.034-.014.07-.023.104-.036.14-.05.277-.123.38-.227a.694.694 0 0 0 .176-.26.96.96 0 0 0 .064-.285v-.105s.002-.03 0-.076a.873.873 0 0 0-.086-.348.726.726 0 0 0-.138-.178.733.733 0 0 0-.248-.17 1.98 1.98 0 0 0-.55-.12c-.078-.01-.14-.01-.2-.01h-.87M61.414 16v7.325h2.756s1.34.04 2.09-.702c.6-.606.56-1.303.56-1.303s.04-.73-.52-1.29c-.475-.478-1.084-.603-1.084-.603s.272-.13.48-.34c.1-.095.45-.418.45-1.187 0-.78-.517-1.225-.517-1.225s-.57-.67-1.848-.67h-2.38m-2.834-1.43H69.4v10.17H58.6V14.56zm-8.29 5.61v2.003h1.294l.07-.002c.04 0 .102 0 .18-.01.14-.01.32-.04.503-.1.16-.06.32-.135.44-.255a.593.593 0 0 0 .116-.14c.1-.16.13-.33.134-.42l.002-.062s.004-.02 0-.05a.906.906 0 0 0-.024-.194.84.84 0 0 0-.15-.304c-.02-.02-.032-.04-.05-.06a1.133 1.133 0 0 0-.356-.24 1.607 1.607 0 0 0-.39-.113l-.23-.03c-.05-.005-.1-.01-.15-.01a.897.897 0 0 0-.138-.01h-1.24m0-3.037v1.897h.726c.046 0 .096-.004.14-.007.13-.01.31-.027.49-.074l.11-.037a1.03 1.03 0 0 0 .377-.23.702.702 0 0 0 .177-.26c.045-.11.06-.21.067-.287.01-.067.01-.108.01-.108v-.08c0-.08-.02-.218-.08-.347a.672.672 0 0 0-.136-.177.717.717 0 0 0-.25-.17 1.847 1.847 0 0 0-.55-.12c-.07-.004-.14-.004-.2-.004h-.87"/><path d="M48.977 15.994v7.323h2.76s1.344.04 2.085-.704c.606-.606.562-1.303.562-1.303s.044-.73-.515-1.29c-.48-.478-1.09-.603-1.09-.603s.27-.132.48-.343c.09-.094.45-.417.45-1.186 0-.78-.52-1.225-.52-1.225s-.57-.67-1.85-.67h-2.38m-2.834-1.427h10.81v10.17h-10.8v-10.17z" fill="#fff"/></g></svg>