<svg xmlns="http://www.w3.org/2000/svg" width="128" height="64"><g stroke="null"><path d="M20.715.204h86.57v63.592h-86.57V.204"/><path fill="#fff" d="M40.936 29.835h-9.75V48.1h2.625v-8.487h7.13v-2.358h-7.13v-5.062h7.13zm2.512 9.13c0 4.956 3.774 9.374 9.746 9.374 6.19 0 9.884-4.45 9.884-9.38 0-5.084-3.802-9.37-9.83-9.37-5.92-.003-9.8 4.31-9.8 9.37m2.703 0c0-4.013 3.03-6.96 7.1-6.96 4.1 0 7.128 2.944 7.128 6.96 0 3.99-3.024 6.967-7.125 6.967-4.07-.003-7.096-2.976-7.096-6.967M81.1 29.83h-2.63v10.64c0 1.71-.21 3.055-1.15 3.99-.83.833-2.276 1.477-4.286 1.477-1.576 0-2.895-.512-3.937-1.555-.833-.832-1.1-1.69-1.1-3.752V29.835H65.37v11.357c0 4.98 3.75 7.147 7.613 7.147 5.432 0 8.113-2.95 8.113-7.42V29.83m3.654-.003V48.1h2.628v-7.928h1.1c1.337 0 2.433.433 4.844 4.18l2.412 3.748h3.133c-1.256-1.74-1.714-2.358-2.49-3.614-1.39-2.28-2.41-3.966-4.07-5.062 1.954-.775 3.053-2.358 3.053-4.47 0-3.166-2.305-5.122-5.997-5.122H84.75m2.625 2.25h1.683c2.55 0 3.567 1.047 3.592 2.76.03 1.524-.778 2.972-3.592 2.972h-1.683v-5.73M77.86 15.982c-.052-.007-.096-.016-.15-.025l-.056-.007c-.085-.012-.17-.025-.25-.03-.058-.004-.114-.007-.17-.014-.104-.003-.202-.006-.302-.006h-.113l-.25.01c-.043.003-.084.006-.13.012-.066.003-.126.013-.188.022l-.057.006-.057.01-.074.012c-.03.007-.06.01-.09.016-.044.01-.08.016-.128.025-.26.053-.49.126-.714.21-.115.044-.22.088-.33.145-.083.04-.165.082-.244.132-.078.044-.153.085-.223.135-.04.028-.08.056-.12.08-.034.03-.066.052-.097.074-.07.05-.135.1-.198.16l-.17.15c-.045.047-.085.09-.13.14-.046.05-.087.095-.13.15-.045.055-.086.11-.127.17-.03.045-.068.09-.096.133-.024.03-.04.062-.06.093-.11.186-.21.38-.294.59-.1.264-.175.547-.216.85-.012.09-.02.19-.024.287-.006.073-.006.154-.006.23v.172l.02.175.004.045c.007.065.02.134.03.197 0 .028.01.056.018.078l.038.168c.02.07.04.138.065.204.028.077.057.162.09.238.05.125.105.244.168.358.04.065.072.128.116.194.03.047.062.094.09.14.044.064.085.124.13.177.05.06.093.114.137.17.06.063.117.122.177.182l.03.026c.047.047.09.094.154.144.04.03.08.07.126.103.04.032.08.063.13.098.052.038.11.076.17.117.067.043.133.08.208.12.14.083.3.16.47.228.066.027.135.055.2.077s.14.045.214.067c.123.04.252.07.393.094.11.023.226.04.34.054.12.015.24.028.37.034.06.003.12.006.185.006h.087c.23 0 .44-.006.635-.025l.037-.006c.077-.003.153-.013.225-.02l.32-.048.183-.038c.09-.025.18-.047.266-.066.07-.016.125-.03.184-.05.067-.02.136-.047.2-.066l.064-.022c.037-.012.074-.027.12-.046.067-.024.146-.06.237-.093.054-.02.11-.045.167-.074.054-.024.11-.05.17-.074.02-.012.047-.02.07-.034v-1.394c-.02.01-.036.02-.054.032l-.092.058c-.093.06-.19.107-.28.164-.1.053-.196.103-.296.15-.174.082-.334.148-.497.204-.304.107-.58.176-.825.217-.03.005-.06.012-.086.015-.07.008-.13.02-.198.027-.097.012-.188.015-.267.02h-.145c-.096 0-.2 0-.304-.01-.12-.01-.242-.025-.37-.043-.2-.035-.4-.08-.6-.157-.026-.01-.054-.022-.08-.035-.02-.008-.04-.018-.06-.024-.034-.016-.065-.028-.096-.047-.07-.03-.138-.067-.2-.1-.03-.02-.067-.04-.095-.06-.037-.023-.068-.045-.1-.067l-.123-.09c-.038-.028-.076-.063-.107-.088l-.05-.04-.024-.023-.013-.01-.017-.02c-.066-.063-.122-.12-.175-.188-.026-.035-.057-.07-.08-.107-.027-.03-.05-.067-.07-.1l-.06-.1c-.03-.05-.06-.097-.076-.144-.024-.046-.043-.084-.062-.125-.027-.07-.056-.14-.07-.207-.02-.05-.036-.104-.048-.154-.038-.147-.06-.278-.066-.39-.008-.04-.008-.086-.008-.12C74 19.737 74 19.687 74 19.65v-.088c.007-.076.014-.18.033-.293.01-.07.022-.147.04-.225.013-.05.03-.1.047-.16.012-.046.03-.097.05-.15l.044-.1c.017-.047.043-.09.065-.142.017-.038.04-.07.06-.107.045-.075.096-.16.155-.235.025-.027.044-.055.066-.08.03-.035.065-.073.09-.107.02-.02.038-.037.05-.056.258-.253.544-.445.84-.58l.14-.06c.05-.02.093-.034.14-.053.054-.017.104-.032.154-.045.05-.016.102-.03.146-.038.05-.01.098-.022.15-.032.055-.01.108-.02.16-.023.055-.01.105-.014.16-.02.1-.006.2-.01.3-.01h.097c.07.004.143.004.21.01.05.003.09.003.14.01.086.01.174.018.25.034.07.01.14.024.203.037l.27.06c.06.016.103.035.147.047l.173.05c.074.03.12.045.12.045.07.03.136.053.2.08.087.033.172.07.25.11.07.026.136.06.195.086.05.025.095.05.14.07l.196.103.146.075v-1.35s-.085-.036-.233-.092c-.064-.02-.14-.053-.23-.08-.044-.02-.094-.04-.154-.06-.04-.01-.086-.026-.13-.042l-.166-.05c-.036-.014-.073-.026-.12-.04l-.03-.01c-.046-.01-.087-.023-.13-.033-.05-.015-.098-.028-.148-.04-.032-.007-.063-.02-.095-.026l-.16-.04c-.062 0-.115-.014-.175-.023m-6.81-1.416H81.85v10.17h-10.8V14.56zM62.74 20.17v2.003h1.295s.026 0 .07-.002c.043 0 .106-.004.178-.01.143-.012.33-.044.51-.1.163-.06.32-.138.443-.258.047-.05.085-.1.116-.146.1-.16.127-.327.13-.418.006-.04.006-.066.006-.066v-.046c0-.04-.007-.11-.03-.192-.024-.09-.065-.2-.15-.304l-.053-.06c-.032-.036-.066-.07-.113-.096-.07-.057-.15-.1-.24-.138-.12-.05-.248-.09-.393-.114-.07-.016-.15-.025-.23-.035-.05-.003-.096-.01-.15-.012-.04 0-.087-.004-.13-.004h-1.26m0-3.038v1.897h.626l.098-.003c.046 0 .096-.003.143-.006.13-.01.31-.027.488-.074.033-.015.068-.024.103-.037.14-.05.277-.123.38-.227.085-.078.14-.172.176-.26.044-.11.06-.21.066-.286.003-.065.003-.106.003-.106s.004-.03 0-.077c-.003-.083-.018-.218-.084-.347-.03-.06-.08-.12-.138-.178-.07-.074-.157-.127-.248-.17-.176-.07-.38-.105-.55-.12-.075-.007-.14-.007-.198-.007h-.867m-1.31-1.145v7.324h2.756s1.34.04 2.09-.704c.6-.606.56-1.303.56-1.303s.043-.73-.516-1.29c-.475-.478-1.084-.603-1.084-.603s.273-.13.48-.342c.1-.094.45-.417.45-1.186 0-.78-.516-1.225-.516-1.225s-.57-.67-1.844-.67h-2.38M58.59 14.56H69.4v10.17H58.6V14.56zm-8.306 5.607v2.003h1.295s.03 0 .07-.003c.04 0 .103-.003.18-.01.14-.01.322-.043.504-.1.163-.06.323-.137.443-.257.046-.047.084-.097.115-.144.1-.16.13-.33.132-.42.003-.04.003-.066.003-.066s.003-.02 0-.05c0-.04-.006-.113-.025-.195-.024-.09-.07-.2-.15-.305-.02-.02-.034-.04-.05-.06-.04-.04-.076-.07-.116-.1-.074-.057-.155-.1-.243-.138-.116-.05-.248-.088-.393-.113l-.23-.03c-.047-.004-.097-.01-.15-.01-.044-.006-.09-.01-.136-.01H50.29m0-3.036v1.898h.627s.04 0 .098-.003c.044 0 .094-.003.14-.006.13-.01.31-.028.49-.075l.108-.037c.138-.05.273-.124.377-.228.084-.078.138-.172.175-.26.044-.11.06-.21.066-.286.01-.067.01-.108.01-.108v-.08c-.003-.08-.022-.216-.084-.345-.03-.06-.075-.12-.134-.176-.073-.075-.157-.13-.25-.17-.18-.075-.38-.106-.55-.12-.073-.005-.14-.005-.2-.005h-.866"/><path d="M48.977 15.994v7.323h2.76s1.344.04 2.085-.704c.606-.606.562-1.303.562-1.303s.044-.73-.515-1.29c-.48-.478-1.09-.603-1.09-.603s.27-.132.483-.343c.097-.094.448-.417.448-1.186 0-.78-.514-1.225-.514-1.225s-.568-.67-1.846-.67h-2.38m-2.834-1.427h10.81v10.17H46.14v-10.17z" fill="#fff"/></g></svg>