<svg xmlns="http://www.w3.org/2000/svg" width="128" height="64"><g stroke="null" stroke-width="1.001"><path d="M-.43-.873h128.86v65.746H-.43V-.873"/><path d="M40.491 30.039h-9.763v18.29h2.628V39.83h7.14v-2.36h-7.14V32.4h7.14zm2.515 9.142c0 4.963 3.78 9.387 9.76 9.387 6.198 0 9.897-4.456 9.897-9.393 0-5.097-3.807-9.383-9.843-9.383-5.928-.01-9.814 4.316-9.814 9.383m2.707 0c0-4.025 3.034-6.97 7.11-6.97 4.105 0 7.14 2.945 7.14 6.97 0 3.996-3.025 6.97-7.13 6.97-4.076-.006-7.103-2.984-7.103-6.98m34.98-9.131h-2.634v10.654c0 1.713-.21 3.06-1.151 3.996-.832.834-2.28 1.479-4.292 1.479-1.578 0-2.9-.513-3.943-1.557-.834-.833-1.101-1.693-1.101-3.757v-10.81h-2.63V41.41c0 4.987 3.754 7.157 7.623 7.157 5.44 0 8.124-2.954 8.124-7.43V30.034m3.659-.003v18.298h2.631v-7.94h1.102c1.339 0 2.436.435 4.85 4.187l2.416 3.753H98.5c-1.258-1.743-1.716-2.361-2.493-3.62-1.392-2.282-2.414-3.97-4.076-5.068 1.957-.776 3.057-2.361 3.057-4.476 0-3.17-2.308-5.13-6.005-5.13h-4.62m2.63 2.254h1.685c2.553 0 3.571 1.048 3.596 2.764.03 1.526-.779 2.976-3.596 2.976h-1.686V32.29m-9.528-16.124c-.052-.007-.096-.016-.15-.025l-.056-.007c-.085-.012-.17-.025-.25-.03-.058-.004-.114-.007-.17-.014-.105-.003-.203-.006-.303-.006h-.113l-.25.01a1.452 1.452 0 00-.13.012c-.07.003-.13.013-.19.022l-.06.006-.061.01-.076.012c-.03.007-.06.01-.09.016-.044.01-.08.016-.128.025-.26.053-.491.126-.716.21a3.12 3.12 0 00-.33.145 2.403 2.403 0 00-.245.133c-.077.044-.152.085-.222.135-.04.028-.08.056-.12.08-.035.03-.067.052-.098.074-.07.05-.134.1-.197.16l-.17.15c-.046.04-.086.09-.13.14-.048.05-.09.09-.13.15-.047.05-.088.111-.13.171l-.095.13c-.025.03-.04.06-.06.09-.11.183-.21.38-.295.591a3.757 3.757 0 00-.24 1.135c-.005.073-.005.154-.005.23v.172l.02.175.004.044c.005.065.02.134.03.197 0 .03.01.056.016.08l.04.166c.02.07.04.138.065.204.03.08.06.165.09.24a3.4 3.4 0 00.17.36c.04.064.07.127.117.194l.09.14c.04.067.082.127.13.18.05.06.09.114.134.17l.178.18.03.029c.045.047.09.094.152.144.04.03.08.07.124.105l.13.095c.05.04.11.078.17.12.068.043.134.08.209.12.14.083.3.16.47.23.066.026.135.054.2.076.067.022.14.045.214.067.125.04.254.07.396.093.11.022.227.04.34.053a3.877 3.877 0 00.557.04h.086c.23 0 .44-.003.637-.022l.036-.003c.076-.003.152-.013.224-.02l.32-.05.184-.04c.09-.02.18-.044.267-.063.07-.017.126-.03.185-.05.07-.02.139-.048.2-.067l.067-.02c.036-.01.073-.027.12-.046.066-.02.145-.06.236-.09.055-.02.11-.046.17-.075.05-.023.11-.05.17-.073l.07-.033v-1.392l-.056.03-.092.06c-.092.06-.19.107-.28.164-.1.052-.196.102-.296.15a5.21 5.21 0 01-.497.203 4.897 4.897 0 01-.828.218c-.03.007-.06.014-.087.017l-.198.03c-.098.01-.19.01-.269.02h-.145c-.098 0-.2 0-.306-.01-.12-.01-.24-.03-.37-.05a3.182 3.182 0 01-.602-.157l-.075-.034a.306.306 0 00-.06-.025l-.094-.046c-.07-.03-.138-.07-.2-.1-.03-.02-.067-.04-.095-.06-.033-.028-.07-.05-.1-.07l-.12-.09c-.04-.03-.077-.065-.11-.09l-.05-.04-.024-.025-.012-.01-.017-.02a1.913 1.913 0 01-.174-.188c-.024-.036-.055-.07-.08-.108a.856.856 0 01-.07-.1l-.06-.1c-.03-.05-.06-.097-.075-.145a2.103 2.103 0 01-.063-.125c-.027-.07-.056-.14-.07-.204a1.936 1.936 0 01-.115-.544c-.01-.04-.01-.085-.01-.12-.01-.052-.01-.102-.01-.14v-.087c.008-.074.015-.18.034-.29.01-.07.02-.15.04-.23.012-.05.03-.101.046-.161a2.924 2.924 0 01.05-.15l.046-.1c.015-.047.04-.09.063-.14.02-.039.04-.07.06-.108.048-.075.099-.16.158-.235.025-.03.044-.058.066-.08.03-.038.067-.076.09-.11.02-.02.04-.037.05-.056a2.99 2.99 0 01.841-.581l.14-.06c.05-.02.095-.034.14-.053l.157-.044c.05-.017.1-.03.145-.04l.15-.03c.053-.01.106-.02.16-.025a1.59 1.59 0 01.16-.02c.1-.007.2-.01.301-.01h.095c.07.003.143.003.21.01.05.002.09.002.14.01.087.01.175.017.251.033.07.01.14.025.203.038l.27.06c.06.018.1.037.146.05l.173.05.12.05c.07.03.137.05.2.08.089.03.17.07.25.11.07.023.138.06.197.083.05.026.095.05.14.07l.197.104.148.076v-1.352s-.085-.037-.234-.093c-.064-.02-.14-.056-.23-.08a1.697 1.697 0 00-.154-.06c-.04-.01-.086-.029-.13-.04l-.167-.05a.529.529 0 00-.12-.04l-.03-.01c-.046-.01-.087-.028-.13-.038-.05-.015-.1-.028-.15-.04-.03-.007-.06-.02-.093-.026l-.16-.04c-.06 0-.114-.016-.174-.025m-6.819-1.418H81.46v10.184H70.646V14.743zm-8.317 5.618v2.002h1.298l.07-.002a2.368 2.368 0 00.69-.11c.163-.06.32-.138.443-.258.046-.05.084-.1.115-.144.1-.16.128-.328.13-.419.007-.04.007-.068.007-.068v-.047c0-.04-.007-.11-.03-.193a.754.754 0 00-.15-.3l-.053-.06a.42.42 0 00-.113-.095.971.971 0 00-.24-.138c-.12-.05-.25-.09-.394-.114-.07-.014-.15-.023-.23-.033-.05-.004-.098-.01-.15-.013-.04 0-.09-.005-.13-.005h-1.262m0-3.044v1.9h.725a2.732 2.732 0 00.63-.079c.035-.014.07-.023.105-.036.14-.05.277-.123.38-.227a.695.695 0 00.176-.26.961.961 0 00.065-.286v-.105s.002-.03 0-.076a.874.874 0 00-.087-.349.727.727 0 00-.138-.178.734.734 0 00-.248-.17 1.983 1.983 0 00-.55-.12c-.079-.01-.141-.01-.201-.01h-.871m-1.312-1.141v7.335h2.76s1.341.04 2.093-.703c.6-.607.56-1.305.56-1.305s.04-.73-.52-1.292c-.476-.478-1.086-.603-1.086-.603s.272-.13.48-.34c.1-.096.451-.42.451-1.19 0-.78-.517-1.226-.517-1.226s-.571-.671-1.85-.671h-2.384m-2.838-1.432h10.848v10.184H58.179V14.743zm-8.301 5.618v2.005h1.295l.07-.002c.04 0 .103 0 .18-.01.141-.01.321-.04.505-.1.16-.06.32-.135.44-.255a.594.594 0 00.116-.14c.1-.16.13-.33.134-.42l.002-.063s.004-.02 0-.05a.907.907 0 00-.024-.194.841.841 0 00-.15-.305c-.02-.02-.032-.04-.05-.06a1.135 1.135 0 00-.356-.24 1.61 1.61 0 00-.39-.113l-.231-.03c-.05-.005-.1-.01-.15-.01a.898.898 0 00-.139-.01h-1.241m0-3.041v1.9h.727c.046 0 .096-.005.14-.008.13-.01.31-.027.49-.074l.11-.037a1.031 1.031 0 00.378-.23.703.703 0 00.177-.26.988.988 0 00.068-.288c.01-.067.01-.108.01-.108v-.08a.89.89 0 00-.08-.348.673.673 0 00-.137-.177.718.718 0 00-.25-.17 1.85 1.85 0 00-.55-.12c-.07-.004-.141-.004-.201-.004h-.871" fill="#fff"/><path d="M48.543 16.179v7.333h2.764s1.346.04 2.088-.705c.606-.607.562-1.305.562-1.305s.044-.73-.515-1.292c-.481-.478-1.092-.603-1.092-.603s.27-.133.48-.344c.09-.094.451-.417.451-1.187 0-.782-.52-1.227-.52-1.227s-.571-.671-1.853-.671h-2.383m-2.838-1.429h10.825v10.184H45.697V14.749z" fill="#fff"/></g></svg>