<svg xmlns="http://www.w3.org/2000/svg" width="128" height="64"><g fill-rule="evenodd"><path d="M37.277 24.393h16.167v15.213H37.277zm10.185 2.12c-.07-.012-.141-.023-.219-.04l-.086-.01a8.352 8.352 0 00-.378-.042c-.083-.011-.172-.011-.258-.02a6.156 6.156 0 00-.448-.013h-.169c-.121.002-.243.01-.36.016l-.195.017c-.1.011-.194.02-.285.033l-.078.008-.088.011-.108.02c-.047.008-.094.016-.138.022-.067.011-.128.028-.189.039a6.44 6.44 0 00-1.067.318 6.529 6.529 0 00-.855.406 5.697 5.697 0 00-.512.33c-.052.038-.102.074-.149.11a5.465 5.465 0 00-.741.683c-.067.072-.13.147-.194.222-.066.083-.133.166-.196.254-.045.064-.092.13-.136.2-.033.043-.058.09-.088.138a5.306 5.306 0 00-.44.887 5.694 5.694 0 00-.36 1.693 7.884 7.884 0 00-.008.6c.011.089.017.175.025.263l.008.061c.014.102.025.205.047.301.009.042.014.08.022.12l.061.246c.028.102.058.207.091.307.045.124.086.246.139.362.077.185.16.365.251.531.059.102.108.196.166.288a7.068 7.068 0 00.338.475c.07.089.138.172.21.252.086.1.172.191.255.274l.044.047c.069.064.146.138.232.213.058.05.122.1.188.152a5.18 5.18 0 00.45.326c.1.064.2.122.308.186a6.508 6.508 0 001.01.448c.105.033.207.069.318.1a5.7 5.7 0 00.586.138c.166.033.338.06.515.08a6.76 6.76 0 00.833.06h.13c.34 0 .655-.013.945-.035l.058-.006a9.595 9.595 0 00.813-.108c.094-.019.186-.036.277-.058a8.769 8.769 0 00.669-.171c.106-.03.2-.064.296-.097l.092-.03c.047-.02.11-.04.185-.07l.348-.14.255-.111c.077-.039.16-.078.243-.122a.937.937 0 00.108-.05v-2.074l-.074.047-.144.083a5.914 5.914 0 01-.415.24 8.034 8.034 0 01-1.184.537c-.45.16-.869.263-1.234.33l-.13.021c-.1.014-.196.025-.29.036a5.63 5.63 0 01-.401.03c-.078.003-.15.006-.219.006a5.29 5.29 0 01-.45-.016 4.727 4.727 0 01-.55-.064 4.777 4.777 0 01-.9-.232c-.041-.014-.086-.034-.127-.05l-.086-.033-.144-.067a5.132 5.132 0 01-.301-.152c-.047-.03-.097-.06-.144-.091-.05-.028-.1-.064-.147-.094-.06-.044-.121-.086-.182-.133-.053-.044-.11-.091-.16-.135l-.07-.061-.033-.03-.02-.02-.024-.025a3.997 3.997 0 01-.26-.28 4.419 4.419 0 01-.122-.157c-.039-.055-.075-.105-.108-.155s-.06-.097-.091-.144a5.761 5.761 0 01-.116-.221 2.723 2.723 0 01-.083-.185 3.495 3.495 0 01-.116-.307c-.025-.078-.045-.158-.064-.233a3.886 3.886 0 01-.102-.583 2.988 2.988 0 01-.011-.18c-.003-.083-.006-.155-.006-.216 0-.036.003-.08.003-.13a4.233 4.233 0 01.102-.774c.017-.075.042-.15.067-.235.022-.072.047-.147.08-.224.016-.053.039-.1.06-.155.031-.07.067-.139.103-.21.025-.053.058-.108.086-.161.069-.116.146-.235.235-.354a3.32 3.32 0 01.238-.282c.025-.028.047-.055.074-.08a4.273 4.273 0 011.25-.866c.07-.033.139-.06.208-.089.072-.024.141-.052.21-.072.08-.03.158-.052.233-.074a2.27 2.27 0 01.218-.053 3.527 3.527 0 01.46-.083c.082-.01.16-.022.237-.027a6.25 6.25 0 01.445-.02h.142c.11.003.218.009.318.011.072.006.14.011.207.02.133.01.257.027.382.044a7.576 7.576 0 01.708.15c.083.019.155.044.221.06.1.028.185.058.255.08.113.042.177.064.177.064.102.036.202.077.301.116.13.055.257.114.38.163l.281.136c.078.039.147.077.21.108.114.058.21.11.288.152l.213.119v-2.039s-.127-.052-.346-.135c-.1-.039-.213-.08-.343-.125-.074-.027-.149-.052-.23-.083L49 26.905c-.078-.025-.158-.053-.244-.078-.06-.016-.122-.038-.182-.052l-.056-.017c-.06-.016-.124-.036-.185-.05a2.952 2.952 0 00-.224-.058c-.047-.013-.1-.024-.147-.035a3.528 3.528 0 00-.246-.053 3.762 3.762 0 00-.254-.05" clip-rule="evenodd"/><path d="M18.647 24.393v15.214h16.167V24.393zm4.24 2.135h3.56c1.911 0 2.758 1.003 2.758 1.003s.777.669.777 1.833c0 1.15-.527 1.63-.674 1.776-.32.318-.73.507-.73.507s.91.19 1.624.904c.838.836.776 1.933.776 1.933s.06 1.042-.844 1.95c-1.112 1.109-3.12 1.052-3.12 1.052h-4.126zm1.965 1.709v2.836h.943s.059.002.142-.004c.066 0 .143-.004.212-.007a3.732 3.732 0 00.887-.166 1.61 1.61 0 00.567-.337c.124-.122.203-.258.259-.394.066-.16.09-.317.099-.425.008-.1.01-.16.01-.16v-.12a1.373 1.373 0 00-.13-.518 1.088 1.088 0 00-.575-.514 2.412 2.412 0 00-.819-.177 4.402 4.402 0 00-.301-.014h-1.294zm0 4.548v2.989h1.939s.043 0 .106-.004c.067 0 .16-.006.27-.017a3.18 3.18 0 00.755-.15 1.69 1.69 0 00.666-.382 1.7 1.7 0 00.174-.216c.152-.24.188-.486.199-.624l.003-.096s.003-.024 0-.07a1.319 1.319 0 00-.042-.292 1.167 1.167 0 00-.224-.457c-.025-.028-.047-.054-.078-.082a1 1 0 00-.17-.152 1.905 1.905 0 00-.361-.202 2.902 2.902 0 00-.585-.174 4.47 4.47 0 00-.344-.05c-.072-.005-.147-.008-.227-.014-.064-.002-.137-.007-.206-.007h-1.875zM.02 24.393v15.214h16.167V24.393zm4.24 2.135h3.556c1.914 0 2.766 1.003 2.766 1.003s.769.669.769 1.833c0 1.15-.524 1.63-.674 1.776-.315.318-.723.507-.723.507s.91.19 1.62.904c.838.836.77 1.933.77 1.933s.067 1.042-.837 1.95c-1.11 1.109-3.124 1.052-3.124 1.052H4.26zm1.964 1.709v2.836h.943s.063.002.146-.004c.063 0 .14-.004.209-.007a3.732 3.732 0 00.883-.166c.207-.078.41-.185.567-.337.124-.122.21-.258.262-.394.07-.16.091-.317.1-.425.01-.1.01-.16.01-.16s-.001-.046-.007-.12a1.308 1.308 0 00-.127-.518 1.023 1.023 0 00-.199-.27 1.192 1.192 0 00-.369-.244 2.437 2.437 0 00-.826-.177 4.068 4.068 0 00-.294-.014zm0 4.548v2.989h1.943s.039 0 .1-.004c.066 0 .158-.006.269-.017a3.22 3.22 0 00.762-.15c.24-.08.477-.202.66-.382a1.13 1.13 0 00.173-.216c.152-.24.19-.486.199-.624l.007-.096s0-.024-.004-.07a1.13 1.13 0 00-.039-.292 1.178 1.178 0 00-.227-.457.707.707 0 00-.078-.082 1 1 0 00-.17-.152 1.794 1.794 0 00-.358-.202 2.957 2.957 0 00-.585-.174 4.374 4.374 0 00-.347-.05l-.224-.014c-.063-.002-.136-.007-.205-.007z"/><path d="M61.083 28.629l1.843 4.147h-3.559zm.607-2.517h-1.157l-4.92 11.519h1.68l1.445-3.375h4.866l1.529 3.375h1.678z" clip-rule="evenodd"/><path d="M67.955 26.185v11.447h1.647V28.71h.034l3.524 4.437h.269l3.524-4.437h.034v8.922h1.647V26.185h-1.527l-3.812 4.691-3.794-4.691zm13.925 0v11.447h6.645v-1.479h-4.998V32.59h4.681v-1.479h-4.681V27.66h4.85v-1.474z"/><path d="M93.206 27.591h1.056c1.596 0 2.236.656 2.251 1.727.015.96-.487 1.866-2.251 1.866h-1.056V27.59m-1.645-1.408v11.452h1.645v-4.971h.689c.84 0 1.528.266 3.038 2.614l1.514 2.357h1.962c-.79-1.094-1.07-1.48-1.558-2.27-.877-1.428-1.513-2.484-2.555-3.173 1.225-.487 1.914-1.476 1.914-2.803 0-1.985-1.442-3.206-3.76-3.206z" clip-rule="evenodd"/><path d="M102.1 26.18v11.452h1.641V26.18z"/><path d="M116.24 26.97c-1.558-.656-2.753-.94-3.93-.94-3.644 0-6.278 2.55-6.278 6.045 0 2.402 1.88 5.706 6.177 5.706 1.798 0 3.027-.416 4.151-1.004v-1.798c-1.296.839-2.705 1.292-3.997 1.292-2.757 0-4.634-1.78-4.634-4.35 0-2.517 1.944-4.382 4.563-4.382 1.33 0 2.536.37 3.948 1.191v-1.76m6.016 1.659l1.844 4.147h-3.56zm.6-2.517h-1.157l-4.92 11.519h1.679l1.45-3.375h4.862l1.528 3.375h1.682z" clip-rule="evenodd"/></g></svg>