<?xml version="1.0" encoding="UTF-8" standalone="no"?>

<svg xmlns:svg="http://www.w3.org/2000/svg" xmlns="http://www.w3.org/2000/svg" version="1.1" width="128" height="64" xmlns:xlink="http://www.w3.org/1999/xlink">
	<g stroke="null">
		<g stroke="null" transform="matrix(0.1932489550955178,0,0,0.1932489550955178,185.80311381276027,236.5049102385679) ">
			<rect fill="#9d0a0e" fill-rule="evenodd" width="474" height="356.67328" x="-867.29125" y="-1226.23321"/>
			<g stroke="null" fill="#ffffff" transform="matrix(0.5295813,0,0,0.5295813,114.33135,291.84582) ">
				<path fill="#ffffff" fill-rule="nonzero" d="m-1383.58057,-2630.30054c-0.01208,3.19238 -0.99146,6.40869 -3.84509,8.90576c-2.84766,2.50293 -7.77515,4.40747 -15.93713,4.40747l-16.42676,0l0,-26.34229l15.69531,0c7.32153,0 12.51501,1.4873 15.77368,3.80298c3.2467,2.33374 4.71582,5.39893 4.73999,9.22607"/>
				<path fill="#ffffff" fill-rule="nonzero" d="m-1396.88757,-2661.84204c3.0592,-2.20068 4.53442,-5.32056 4.55249,-9.9939c-0.01208,-3.21045 -0.93103,-5.96143 -3.2406,-8.01099c-2.31555,-2.05542 -6.24536,-3.5127 -12.59363,-3.5127l-11.62024,0l0,24.96362l7.97461,0c6.90442,0 11.84998,-1.22729 14.92737,-3.44604"/>
				<path fill="#ffffff" fill-rule="nonzero" d="m-1365.85986,-2628.36572c0.04224,-12.17651 -8.06531,-21.43286 -21.0459,-24.98779c3.50659,-1.78979 6.27563,-3.97827 8.30713,-6.64453c2.70862,-3.5791 4.00842,-7.9624 3.99023,-13.07739c0.01807,-6.27563 -2.45459,-12.67822 -7.75684,-17.47266c-5.30835,-4.78833 -13.36157,-7.88989 -24.35303,-7.88379l-30.35657,0l0,96.52905l35.61047,0l0.01807,0c12.70862,0 21.63232,-3.44629 27.37598,-8.55493c5.74976,-5.08472 8.21643,-11.75928 8.21045,-17.90796m33.83887,45.16895l-142.42371,0l0,-134.02588l142.42371,0l0,134.02588z"/>
				<path fill="#ffffff" fill-rule="nonzero" d="m-1560.99194,-2661.84204c3.0531,-2.20068 4.53442,-5.32056 4.55859,-9.9939c-0.0061,-3.21045 -0.93115,-5.96143 -3.2406,-8.01099c-2.32166,-2.05542 -6.25159,-3.5127 -12.60583,-3.5127l-11.60815,0l0,24.96362l7.97461,0c6.89844,0 11.84399,-1.22729 14.92139,-3.44604"/>
				<path fill="#ffffff" fill-rule="nonzero" d="m-1552.42493,-2639.52661c-3.25269,-2.31567 -8.45227,-3.80298 -15.76782,-3.80298l-15.69519,0l0,26.34229l16.42676,0c8.16199,0 13.07739,-1.90454 15.93103,-4.40747c2.85364,-2.49707 3.83923,-5.71338 3.84521,-8.90576c-0.02417,-3.82715 -1.49341,-6.89233 -4.73999,-9.22607"/>
				<path fill="#ffffff" fill-rule="nonzero" d="m-1529.95825,-2628.36572c0.04224,-12.17651 -8.07739,-21.43286 -21.03979,-24.98779c3.49451,-1.78979 6.26355,-3.97827 8.28894,-6.64453c2.7207,-3.5791 4.00842,-7.9624 4.00232,-13.07739c0.0061,-6.27563 -2.46069,-12.67822 -7.76294,-17.47266c-5.30225,-4.78833 -13.35547,-7.88989 -24.34692,-7.88379l-30.36255,0l0,96.52905l35.60437,0l0.02429,0c12.71448,0 21.6322,-3.44629 27.37585,-8.55493c5.74365,-5.08472 8.22852,-11.75928 8.21643,-17.90796m33.83899,45.16895l-142.41772,0l0,-134.02588l142.41772,0l0,134.02588z"/>
				<path fill="#ffffff" fill-rule="nonzero" d="m-1196.19934,-2627.74316l-2.28528,1.39673c-11.02783,6.73511 -23.02295,10.34448 -33.91772,10.33838c-23.3252,-0.09058 -38.68176,-13.91162 -38.74219,-34.02026c0.02417,-19.67944 16.06396,-34.24414 38.14966,-34.29248c11.25159,0.00586 21.43896,2.91406 33.54895,9.55249l2.22485,1.22144l0,-17.96265l-0.95532,-0.37476c-13.65161,-5.38696 -24.22595,-7.78711 -34.66724,-7.78101c-16.14868,-0.0061 -30.1571,5.32642 -40.13892,14.37109c-9.97571,9.05078 -15.90674,21.82568 -15.89465,36.49927c0.00586,10.22363 4.21997,22.20044 13.25269,31.71069c9.00232,9.51025 22.87769,16.43896 41.90417,16.43286l0.06653,0c15.77991,0 26.7229,-3.5127 36.61401,-8.3916l0.84045,-0.41113l0,-18.28906l0,0zm28.28284,44.54639l-142.41772,0l0,-134.02588l142.41772,0l0,134.02588z"/>
			</g>
			<g stroke="null" fill="#ffffff" transform="matrix(0.5619285,0,0,0.5619285,97.98875,174.09319) ">
				<path fill="#ffffff" fill-rule="nonzero" d="m-1480.39392,-2154.74121l20.29004,0l0,149.14685l-18.36743,0l-99.72144,-114.87244l0,114.87244l-20.06641,0l0,-149.14685l17.29138,0l100.57385,115.83997l0,-115.83997z"/>
				<path fill="#ffffff" fill-rule="nonzero" d="m-1421.62158,-2154.74121l84.55823,0l0,18.99634l-63.20398,0l0,45.4834l61.06982,0l0,19.11108l-61.06982,0l0,46.34216l65.22937,0l0,19.00232l-86.58362,0l0,-148.9353z"/>
				<path fill="#ffffff" fill-rule="nonzero" d="m-1109.16833,-2154.74121l21.2937,0l-60.30811,149.79382l-4.69165,0l-48.76636,-121.29333l-49.27417,121.29333l-4.58289,0l-60.11462,-149.79382l21.51147,0l41.1001,102.81079l41.38428,-102.81079l20.18738,0l41.57178,102.81079l40.68909,-102.81079z"/>
				<path fill="#ffffff" fill-rule="nonzero" d="m-1030.01514,-2068.08496l-16.22729,-9.86108c-10.1814,-6.21509 -17.42444,-12.32739 -21.729,-18.34326c-4.30469,-6.01563 -6.46313,-12.93823 -6.46313,-20.76758c0,-11.74731 4.07495,-21.28174 12.23083,-28.60938c8.14392,-7.33374 18.73645,-11.00366 31.76538,-11.00366c12.44849,0 23.87524,3.50073 34.27435,10.48975l0,24.23804c-10.74969,-10.33838 -22.32172,-15.50781 -34.70367,-15.50781c-6.97693,0 -12.7085,1.61426 -17.19458,4.84277c-4.4801,3.22266 -6.72913,7.35181 -6.72913,12.38818c0,4.46191 1.65662,8.65161 4.95764,12.54517c3.30713,3.90576 8.61548,7.99878 15.93713,12.2793l16.31177,9.65552c18.19226,10.87061 27.28528,24.70361 27.28528,41.49927c0,11.95874 -4.00244,21.67456 -12.0072,29.14734c-8.0108,7.47278 -18.42181,11.20313 -31.23315,11.20313c-14.72791,0 -28.1438,-4.51636 -40.2478,-13.5791l0,-27.12207c11.52356,14.61304 24.87305,21.9165 40.03613,21.9165c6.69287,0 12.26111,-1.86218 16.71094,-5.58643c4.44983,-3.72424 6.67468,-8.38574 6.67468,-13.99036c0,-9.07495 -6.55383,-17.68433 -19.64917,-25.83423"/>
			</g>
		</g>
	</g>
</svg>