<svg xmlns="http://www.w3.org/2000/svg" width="128" height="64"><g stroke="null"><path d="M.21 65.26V-1.673h129.644v66.93" fill="#005e70"/><path d="M78.264 15.134c-.05-.01-.098-.02-.15-.026l-.06-.01c-.086-.012-.174-.02-.26-.027l-.18-.01h-.43c-.08 0-.164.01-.245.01-.05 0-.1.01-.14.01-.07.01-.14.018-.2.028l-.05.006-.06.007-.08.01-.09.016-.14.028c-.26.06-.506.13-.73.22-.12.047-.23.09-.34.148-.085.047-.17.09-.25.138-.08.05-.155.09-.234.14l-.12.086-.104.072c-.07.052-.14.11-.2.165-.06.056-.12.11-.17.16l-.138.148c-.05.05-.09.1-.134.15-.05.06-.09.12-.133.18-.035.044-.064.09-.09.138-.027.03-.046.064-.065.096-.114.193-.22.394-.3.61-.103.27-.18.565-.223.873-.015.097-.025.197-.03.298-.007.08-.007.16-.007.237v.178l.02.182.003.04.034.214c.01.027.01.055.02.08l.04.17c.027.074.046.146.068.215.033.085.06.167.096.25.054.128.11.25.177.367.04.066.076.133.117.2l.095.147c.05.06.09.12.138.18.048.06.1.12.143.17.064.07.117.133.18.19l.03.03c.05.045.1.096.16.146.046.035.084.073.13.107.045.034.086.07.136.103l.18.12c.064.04.133.084.206.125.147.08.31.16.487.232.064.03.14.052.21.074.07.027.14.05.213.068.13.04.266.07.407.1.118.02.234.04.357.057.12.016.245.03.38.035.064.003.123.006.193.006h.09c.235 0 .45-.007.653-.026l.04-.004c.08-.004.16-.014.233-.023.114-.01.22-.03.324-.05.066-.01.13-.02.195-.04.092-.013.183-.04.27-.06.064-.02.13-.04.19-.05.066-.02.14-.047.202-.07l.065-.02c.03-.01.075-.026.126-.048.066-.027.15-.06.24-.1.056-.022.115-.047.175-.076l.17-.08c.026-.016.05-.025.07-.038v-1.43l-.05.032-.094.06c-.1.06-.19.116-.29.17-.102.053-.203.106-.306.153-.18.085-.346.155-.51.214-.314.11-.597.186-.85.23l-.09.015c-.07.01-.14.02-.2.024-.1.01-.195.016-.276.022h-.153c-.104 0-.204 0-.31-.01-.127-.01-.253-.02-.38-.044-.21-.03-.424-.08-.625-.16-.032-.007-.063-.02-.092-.033l-.056-.023-.097-.043c-.07-.034-.142-.07-.21-.107-.03-.023-.065-.04-.1-.064-.04-.02-.072-.044-.103-.066-.04-.025-.08-.053-.123-.085-.04-.036-.075-.067-.11-.095l-.05-.043-.02-.02-.017-.014-.015-.017c-.068-.062-.125-.13-.184-.19-.03-.036-.058-.07-.08-.11-.03-.033-.057-.07-.07-.106-.028-.03-.05-.07-.07-.1-.027-.05-.06-.1-.08-.156-.022-.04-.04-.088-.057-.13-.03-.07-.062-.142-.08-.212-.017-.054-.032-.108-.042-.16-.046-.15-.065-.287-.07-.404-.01-.046-.01-.087-.01-.125-.006-.057-.006-.108-.006-.15v-.087c.005-.086.01-.186.03-.306.01-.07.025-.15.044-.23l.047-.164.055-.157c.01-.034.03-.07.05-.107.02-.047.04-.097.067-.144.02-.038.04-.073.062-.11.045-.082.095-.164.16-.243.02-.03.042-.06.065-.09.03-.037.06-.074.096-.11.015-.02.034-.04.05-.056.267-.26.56-.46.86-.598.05-.022.1-.04.15-.06l.14-.053c.06-.015.11-.034.16-.05l.157-.04c.05-.01.096-.02.15-.025.06-.02.11-.02.164-.03.057-.01.114-.018.167-.02.102-.01.206-.017.307-.017h.095l.22.01c.053 0 .1.005.144.01l.26.03.215.04c.097.02.2.045.276.067.057.014.107.03.155.04l.176.06c.08.025.126.044.126.044.07.023.14.05.21.08.09.035.18.076.26.114.07.03.135.062.2.093l.14.073c.08.04.144.075.2.107l.146.08v-1.41s-.084-.033-.24-.09l-.23-.09c-.05-.014-.106-.033-.16-.052-.05-.013-.09-.03-.145-.045-.05-.02-.1-.038-.16-.057l-.124-.04-.04-.014-.127-.036-.155-.04c-.037-.01-.07-.015-.1-.024l-.17-.037c-.066-.01-.126-.022-.182-.03m-7.032-1.46H82.4v10.49H71.24v-10.49zm-8.572 5.78v2.063h1.335s.03 0 .074-.006c.04 0 .104-.01.18-.01.147-.018.34-.04.525-.11.167-.055.33-.14.456-.266.05-.05.09-.1.12-.15.106-.164.134-.334.14-.428l.004-.064v-.05c-.006-.04-.01-.117-.03-.2-.027-.097-.074-.21-.16-.317l-.052-.056c-.04-.036-.08-.07-.125-.1-.073-.056-.155-.1-.246-.14-.12-.054-.254-.09-.402-.12-.075-.016-.157-.026-.24-.035l-.153-.01c-.042 0-.093-.004-.14-.004h-1.29zm0-3.134v1.954h.746c.045 0 .098 0 .146-.005.133-.006.315-.025.5-.075.038-.01.075-.023.11-.036.145-.05.283-.126.39-.23.088-.087.145-.178.183-.27.044-.11.06-.22.066-.293.004-.07.004-.11.004-.11s.003-.032-.003-.085c-.005-.085-.024-.224-.09-.356-.03-.065-.076-.128-.135-.188-.075-.07-.166-.124-.26-.17-.184-.077-.39-.11-.568-.12-.076-.008-.146-.008-.205-.008h-.895zm-1.365-1.19v7.56h2.842s1.387.036 2.155-.73c.62-.625.58-1.346.58-1.346s.045-.758-.54-1.338c-.485-.49-1.115-.62-1.115-.62s.286-.138.504-.355c.093-.1.46-.43.46-1.225 0-.8-.54-1.264-.54-1.264s-.586-.69-1.902-.69h-2.46zM58.4 13.67h11.15v10.493H58.39v-10.49zm-8.57 5.787v2.063h1.34s.025 0 .07-.004c.043 0 .106-.01.185-.01.146-.018.335-.04.52-.11.17-.055.334-.14.457-.266.047-.05.088-.1.122-.15.1-.163.13-.333.132-.427.007-.04.007-.066.007-.066v-.05c0-.04-.006-.116-.025-.2-.03-.096-.076-.21-.16-.316-.013-.02-.032-.03-.05-.05-.04-.032-.077-.07-.12-.1-.073-.052-.158-.1-.25-.14-.12-.05-.254-.09-.402-.12-.076-.012-.154-.022-.236-.03l-.157-.01c-.042-.003-.092-.006-.14-.006h-1.3zm0-3.134v1.955h.75c.042 0 .096 0 .143-.004.135-.008.318-.027.504-.077.036-.01.074-.023.11-.04.143-.05.282-.126.392-.233.08-.085.14-.176.18-.267.04-.116.06-.22.06-.298.01-.07.01-.11.01-.11s.002-.04 0-.09c-.007-.09-.02-.23-.09-.36-.034-.06-.078-.125-.138-.185-.07-.07-.16-.126-.25-.17-.183-.078-.394-.107-.57-.12-.076-.006-.145-.006-.205-.006h-.894zm-1.36-1.183v7.56h2.846s1.388.038 2.153-.73c.62-.623.58-1.344.58-1.344s.04-.758-.54-1.338c-.49-.49-1.12-.623-1.12-.623s.28-.13.5-.35c.1-.1.462-.43.462-1.227 0-.802-.53-1.262-.53-1.262s-.586-.69-1.905-.69h-2.45zm-2.923-1.47H56.7v10.493H45.55v-10.49zm-8.32 20.785h-5.673v-2.98H46.19v2.98h-5.675V49.99H37.22zm12.29-2.98h3.61l3.48 13.338h.05l4.157-13.338h3.242l4.08 13.338h.052l3.636-13.338h3.352L69.784 49.99H66.64l-4.29-14.097h-.05L58.01 49.99h-3.034zm36.9-.473c5.78-.103 9.855 3.768 9.855 9.704 0 5.78-4.074 9.643-9.852 9.75-5.707 0-9.786-3.868-9.786-9.65-.002-5.938 4.08-9.81 9.786-9.81m.023 16.477c3.843 0 6.376-2.927 6.376-6.88 0-3.686-2.54-6.616-6.38-6.616-3.82 0-6.36 2.93-6.36 6.617 0 3.958 2.54 6.88 6.36 6.88" fill="#fff"/></g></svg>