<?xml version="1.0" encoding="UTF-8" standalone="no"?>

<svg xmlns:svg="http://www.w3.org/2000/svg" xmlns="http://www.w3.org/2000/svg" version="1.1" width="128" height="64" xmlns:xlink="http://www.w3.org/1999/xlink">
	<g stroke="null">
		<polyline stroke="null" points="20.02899932861328,64.02068328857422 20.02899932861328,-0.02068328857421875 107.97100067138672,-0.02068328857421875 107.97100067138672,64.02068328857422 " fill="#005E70"/>
		<path stroke="null" d="m78.26359,15.13359c-0.05035,-0.00944 -0.09756,-0.01888 -0.15107,-0.02518l-0.05979,-0.00944c-0.08498,-0.01259 -0.1731,-0.02203 -0.25809,-0.02833c-0.06295,-0.00629 -0.1196,-0.00944 -0.1794,-0.01574c-0.10386,-0.00629 -0.21087,-0.00629 -0.31158,-0.00629c-0.04721,0 -0.07555,0 -0.11961,0c-0.07868,0 -0.16366,0.00629 -0.24548,0.01259c-0.04722,0 -0.09128,0.00315 -0.13848,0.00944c-0.0661,0.00315 -0.13219,0.01259 -0.19514,0.02203l-0.05035,0.00629l-0.0598,0.00944l-0.07554,0.00944c-0.03147,0.00629 -0.06294,0.01259 -0.09127,0.01574c-0.04721,0.00944 -0.08812,0.01888 -0.13534,0.02833c-0.25807,0.05665 -0.50357,0.12904 -0.73016,0.22031c-0.11646,0.04406 -0.22976,0.09127 -0.33677,0.14478c-0.08498,0.04406 -0.16996,0.08812 -0.25179,0.13533c-0.07869,0.04721 -0.15421,0.09127 -0.2329,0.14163c-0.03777,0.02833 -0.07868,0.05665 -0.1196,0.08498c-0.03461,0.02518 -0.06924,0.05036 -0.10386,0.07554c-0.06924,0.0535 -0.13848,0.11015 -0.19827,0.16681c-0.06295,0.0535 -0.12275,0.10701 -0.1731,0.16051c-0.04721,0.04721 -0.09127,0.09442 -0.13849,0.14478c-0.04721,0.05036 -0.08812,0.09757 -0.13219,0.15107c-0.05035,0.05665 -0.09126,0.11645 -0.13533,0.17625c-0.03462,0.04406 -0.06294,0.09127 -0.09127,0.13848c-0.02518,0.03148 -0.04407,0.06295 -0.06295,0.09442c-0.11645,0.19199 -0.22031,0.39341 -0.30214,0.61058c-0.10386,0.27067 -0.18254,0.56337 -0.22346,0.87181c-0.01259,0.09757 -0.02203,0.19828 -0.02833,0.29899c-0.0063,0.07868 -0.0063,0.15736 -0.0063,0.23605c0,0.0598 0,0.1196 0,0.17625c0.0063,0.06295 0.0126,0.12275 0.01889,0.18254l0.00315,0.04091c0.01259,0.07239 0.02203,0.14163 0.03462,0.21087c0.00629,0.02518 0.00944,0.0535 0.01573,0.07868c0.01259,0.05665 0.02833,0.11645 0.04092,0.16995c0.02518,0.07239 0.04407,0.14478 0.06609,0.21402c0.03147,0.08498 0.05979,0.16681 0.09441,0.24864c0.0535,0.12904 0.11017,0.25179 0.17625,0.36824c0.04091,0.06609 0.07554,0.13218 0.11645,0.19828c0.03148,0.05036 0.06609,0.10071 0.09442,0.14792c0.0472,0.0598 0.09127,0.12275 0.13533,0.1794c0.04721,0.0598 0.09757,0.1196 0.14163,0.1731c0.06295,0.06924 0.11646,0.13218 0.1794,0.18884l0.03148,0.03147c0.05035,0.04406 0.10071,0.09442 0.1605,0.14478c0.04407,0.03462 0.08184,0.07239 0.12905,0.10701c0.04405,0.03462 0.08497,0.06924 0.13532,0.10386c0.05666,0.03777 0.11646,0.08183 0.17941,0.12275c0.06609,0.04091 0.13533,0.08498 0.20772,0.12589c0.14793,0.08183 0.31158,0.16051 0.48783,0.2329c0.0661,0.02833 0.13848,0.0535 0.20773,0.07553c0.06924,0.02518 0.14478,0.04721 0.21716,0.0661c0.12904,0.03777 0.26438,0.06924 0.40601,0.09756c0.11645,0.02203 0.23289,0.04091 0.35564,0.05665c0.1196,0.01259 0.24549,0.02518 0.37768,0.03147c0.06609,0.00315 0.12589,0.00629 0.19512,0.00629c0.03148,0 0.06295,0 0.09128,0c0.2329,0 0.45007,-0.00629 0.65149,-0.02518l0.03777,-0.00315c0.07868,-0.00629 0.16051,-0.01574 0.2329,-0.02518c0.11645,-0.01259 0.22346,-0.03147 0.32732,-0.05036c0.06609,-0.00944 0.12904,-0.02203 0.19514,-0.03777c0.09441,-0.01888 0.18568,-0.04091 0.27067,-0.06295c0.06609,-0.01888 0.12904,-0.03777 0.18884,-0.0535c0.06924,-0.02203 0.14163,-0.04721 0.20457,-0.06924l0.06609,-0.02203c0.03148,-0.00944 0.07554,-0.02518 0.12589,-0.04721c0.06609,-0.02518 0.14793,-0.05665 0.2392,-0.09757c0.05666,-0.02203 0.11646,-0.04721 0.17625,-0.07553c0.0535,-0.02518 0.1133,-0.0535 0.16996,-0.08183c0.02517,-0.01259 0.05035,-0.02203 0.07239,-0.03462l0,-1.42888c-0.01574,0.00944 -0.03777,0.02203 -0.05036,0.03147l-0.09756,0.0598c-0.10072,0.05665 -0.19199,0.1133 -0.28955,0.16681c-0.10387,0.0535 -0.20457,0.10701 -0.30844,0.15422c-0.17625,0.08498 -0.34305,0.15422 -0.50986,0.21402c-0.31158,0.11016 -0.59484,0.18254 -0.84977,0.2266c-0.03148,0.00629 -0.06295,0.00944 -0.08813,0.01574c-0.06924,0.00944 -0.13849,0.01888 -0.19828,0.02518c-0.10072,0.00944 -0.19514,0.01574 -0.27697,0.02203c-0.05665,0 -0.11015,0 -0.15422,0c-0.10385,0 -0.20457,0 -0.31158,-0.00944c-0.12589,-0.00944 -0.25179,-0.02203 -0.38082,-0.04406c-0.21087,-0.03462 -0.42175,-0.08498 -0.62317,-0.16051c-0.03148,-0.00944 -0.06294,-0.02203 -0.09127,-0.03462c-0.01888,-0.00629 -0.03777,-0.01574 -0.05666,-0.02203c-0.03461,-0.01574 -0.06609,-0.03147 -0.09756,-0.04406c-0.06924,-0.03462 -0.14163,-0.06924 -0.20773,-0.10701c-0.03146,-0.02203 -0.06609,-0.04092 -0.10071,-0.06295c-0.03777,-0.02203 -0.07239,-0.04406 -0.10386,-0.06609c-0.04092,-0.02832 -0.07869,-0.05665 -0.12275,-0.08812c-0.03777,-0.03462 -0.07554,-0.06609 -0.11015,-0.09442l-0.05035,-0.04406l-0.02203,-0.02203l-0.01574,-0.01259l-0.01573,-0.01574c-0.06609,-0.06294 -0.12275,-0.12904 -0.18255,-0.19198c-0.02832,-0.03777 -0.05666,-0.07239 -0.08183,-0.11016c-0.02833,-0.03462 -0.0535,-0.07239 -0.06925,-0.10701c-0.02517,-0.03147 -0.0472,-0.06609 -0.06609,-0.10071c-0.02832,-0.05036 -0.0598,-0.10071 -0.08183,-0.15107c-0.02203,-0.04092 -0.04091,-0.08498 -0.05665,-0.12589c-0.03147,-0.07239 -0.06295,-0.14478 -0.07868,-0.21402c-0.01888,-0.0535 -0.03462,-0.10701 -0.04407,-0.16051c-0.04406,-0.14792 -0.06293,-0.28641 -0.06609,-0.40286c-0.00944,-0.04406 -0.00944,-0.08498 -0.01258,-0.12274c-0.00315,-0.05665 -0.00315,-0.10701 -0.00315,-0.14792c0,-0.02518 0,-0.05665 0,-0.08812c0.00315,-0.08498 0.00945,-0.18569 0.02833,-0.30529c0.01259,-0.07239 0.02518,-0.14792 0.04406,-0.22975c0.01573,-0.0535 0.03147,-0.10701 0.04721,-0.16366c0.01573,-0.05036 0.03461,-0.10071 0.0535,-0.15422c0.01259,-0.03462 0.03147,-0.06924 0.05035,-0.10701c0.01888,-0.04721 0.04092,-0.09757 0.06609,-0.14478c0.01888,-0.03777 0.03777,-0.07239 0.06295,-0.11016c0.0472,-0.08183 0.09756,-0.16366 0.16051,-0.24234c0.02203,-0.03147 0.04407,-0.0598 0.06609,-0.08812c0.03147,-0.03462 0.06295,-0.07239 0.09757,-0.10701c0.01258,-0.01888 0.03147,-0.04091 0.05035,-0.05665c0.26437,-0.26123 0.55707,-0.45951 0.85921,-0.59799c0.05036,-0.02203 0.09756,-0.04091 0.14793,-0.0598s0.09441,-0.03777 0.14162,-0.0535c0.05666,-0.01574 0.11016,-0.03462 0.16051,-0.05036c0.0535,-0.01259 0.10386,-0.02518 0.15421,-0.03777c0.05036,-0.00944 0.09757,-0.01888 0.15108,-0.02833c0.0598,-0.01259 0.11015,-0.01888 0.16365,-0.02518c0.05666,-0.00944 0.1133,-0.01574 0.16681,-0.01888c0.10387,-0.00944 0.20773,-0.01574 0.30844,-0.01574c0.03461,0 0.06609,0 0.09757,0c0.07552,0.00315 0.14792,0.00629 0.21716,0.00944c0.0535,0.00315 0.09756,0.00629 0.14478,0.01259c0.08812,0.00944 0.17939,0.01888 0.25807,0.03147c0.07554,0.01259 0.14793,0.02518 0.21402,0.03777c0.09756,0.02203 0.19827,0.04406 0.27696,0.06609c0.05665,0.01259 0.10701,0.02833 0.15421,0.04092c0.06924,0.02203 0.12904,0.04091 0.1731,0.05665c0.07868,0.02518 0.12275,0.04406 0.12275,0.04406c0.06924,0.02203 0.14162,0.05036 0.20772,0.07868c0.09127,0.03462 0.1794,0.07554 0.26122,0.1133c0.06925,0.03148 0.13535,0.06295 0.19829,0.09442c0.05035,0.02518 0.09756,0.05036 0.14162,0.07239c0.07869,0.04091 0.14478,0.07554 0.19828,0.10701l0.14793,0.07868l0,-1.40685c0,0 -0.08498,-0.03462 -0.2392,-0.09127c-0.06609,-0.02518 -0.14793,-0.05665 -0.23289,-0.08812c-0.05036,-0.01574 -0.10387,-0.03462 -0.16051,-0.0535c-0.04721,-0.01574 -0.08813,-0.03147 -0.14163,-0.04721c-0.05035,-0.01888 -0.10386,-0.03462 -0.16367,-0.0535c-0.04091,-0.01259 -0.08182,-0.02518 -0.12589,-0.03777l-0.04092,-0.01259c-0.04092,-0.00944 -0.08183,-0.02203 -0.12589,-0.03462c-0.05035,-0.01259 -0.10386,-0.02518 -0.15422,-0.03777c-0.03777,-0.00944 -0.06924,-0.01574 -0.10071,-0.02518c-0.0598,-0.01259 -0.1133,-0.02518 -0.16995,-0.03777c-0.06609,-0.00944 -0.12589,-0.02203 -0.18255,-0.03147m-7.02479,-1.46035l11.1509,0l0,10.49312l-11.1509,0l0,-10.49312z" fill="#FFFFFF"/>
		<path stroke="null" d="m62.66869,19.46114l0,2.06149l1.3376,0c0,0 0.02833,0 0.0724,-0.00315c0.04405,0 0.107,-0.00315 0.18568,-0.00944c0.14478,-0.01259 0.33676,-0.04091 0.52245,-0.10386c0.16681,-0.05665 0.33047,-0.14163 0.45636,-0.26752c0.04721,-0.04721 0.08813,-0.09757 0.1196,-0.14792c0.10386,-0.16366 0.13219,-0.33361 0.13848,-0.42803c0.00314,-0.04091 0.00314,-0.06609 0.00314,-0.06609s0,-0.01888 0,-0.05036c-0.00314,-0.04092 -0.00629,-0.11645 -0.02832,-0.19828c-0.02518,-0.09757 -0.07239,-0.21087 -0.15737,-0.31788c-0.01573,-0.01888 -0.03147,-0.03777 -0.05035,-0.05665c-0.03777,-0.03777 -0.07868,-0.07239 -0.12275,-0.10386c-0.07238,-0.0535 -0.15421,-0.10072 -0.24548,-0.13848c-0.1196,-0.0535 -0.25493,-0.09127 -0.40286,-0.1196c-0.07553,-0.01573 -0.15736,-0.02518 -0.23919,-0.03462c-0.05036,-0.00315 -0.10071,-0.0063 -0.15422,-0.00944c-0.04406,-0.00315 -0.09441,-0.00629 -0.13848,-0.00629l-1.29669,0z" fill="#FFFFFF"/>
		<path stroke="null" d="m62.66869,16.32642l0,1.95448l0.64834,0c0,0 0.04406,0 0.10072,-0.00315c0.04406,0 0.09756,-0.00315 0.14478,-0.0063c0.13533,-0.00944 0.31788,-0.02832 0.50357,-0.07868c0.03462,-0.00944 0.07239,-0.02203 0.10701,-0.03462c0.14478,-0.05036 0.28326,-0.12589 0.39027,-0.2329c0.08812,-0.08498 0.14478,-0.17625 0.18254,-0.26752c0.04406,-0.1133 0.0598,-0.22031 0.06609,-0.29585c0.00629,-0.06924 0.00629,-0.11016 0.00629,-0.11016s0.00315,-0.03147 -0.00314,-0.08498c-0.00315,-0.08498 -0.02203,-0.22346 -0.08813,-0.35564c-0.03147,-0.06295 -0.07554,-0.12589 -0.13534,-0.18569c-0.07239,-0.07239 -0.16365,-0.12589 -0.25807,-0.16995c-0.18254,-0.07868 -0.39027,-0.11016 -0.56652,-0.12274c-0.07553,-0.0063 -0.14478,-0.0063 -0.20457,-0.0063l-0.89383,0z" fill="#FFFFFF"/>
		<path stroke="null" d="m61.31535,15.14303l0,7.55983l2.84202,0c0,0 1.38795,0.03777 2.1559,-0.72703c0.62317,-0.62631 0.5791,-1.34705 0.5791,-1.34705s0.04721,-0.7522 -0.53504,-1.33131c-0.48783,-0.49098 -1.11729,-0.62002 -1.11729,-0.62002s0.28641,-0.13534 0.50357,-0.3525c0.09756,-0.10071 0.46581,-0.43118 0.46581,-1.22745c0,-0.79942 -0.53504,-1.26207 -0.53504,-1.26207s-0.58855,-0.69241 -1.90412,-0.69241l-2.4549,0zm-2.92699,-1.46979l11.1509,0l0,10.49312l-11.1509,0l0,-10.49312z" fill="#FFFFFF"/>
		<path stroke="null" d="m49.81824,19.46114l0,2.06149l1.34076,0c0,0 0.02518,0 0.06924,-0.00315c0.04406,0 0.10701,-0.00315 0.18569,-0.00944c0.14793,-0.01259 0.33677,-0.04091 0.52245,-0.10386c0.16996,-0.05665 0.33362,-0.14163 0.45636,-0.26752c0.04721,-0.04721 0.08812,-0.09757 0.12275,-0.14792c0.10386,-0.16366 0.12904,-0.33361 0.13533,-0.42803c0.00315,-0.04091 0.00315,-0.06609 0.00315,-0.06609s0,-0.01888 0,-0.05036c0,-0.04092 -0.00629,-0.11645 -0.02518,-0.19828c-0.02833,-0.09757 -0.07554,-0.21087 -0.15737,-0.31788c-0.01573,-0.01888 -0.03462,-0.03777 -0.0535,-0.05665c-0.03777,-0.03777 -0.07553,-0.07239 -0.1196,-0.10386c-0.07239,-0.0535 -0.15736,-0.10072 -0.24864,-0.13848c-0.1196,-0.0535 -0.25493,-0.09127 -0.40285,-0.1196c-0.07553,-0.01573 -0.15422,-0.02518 -0.23605,-0.03462c-0.0535,-0.00315 -0.10386,-0.0063 -0.15737,-0.00944c-0.04406,-0.00315 -0.09442,-0.00629 -0.14163,-0.00629l-1.29354,0z" fill="#FFFFFF"/>
		<path stroke="null" d="m49.81824,16.32642l0,1.95448l0.64835,0c0,0 0.04406,0 0.10072,-0.00315c0.04406,0 0.09757,-0.00315 0.14477,-0.0063c0.13534,-0.00944 0.31788,-0.02832 0.50357,-0.07868c0.03462,-0.00944 0.07239,-0.02203 0.10701,-0.03777c0.14478,-0.05036 0.28326,-0.12589 0.39341,-0.2329c0.08498,-0.08498 0.14163,-0.17625 0.1794,-0.26752c0.04721,-0.1133 0.06295,-0.22031 0.06609,-0.29585c0.0063,-0.06924 0.0063,-0.11016 0.0063,-0.11016s0.00315,-0.03147 0,-0.08498c-0.0063,-0.08498 -0.02203,-0.22346 -0.09127,-0.35564c-0.03148,-0.06295 -0.07553,-0.12589 -0.13534,-0.18569c-0.07238,-0.07239 -0.16051,-0.12589 -0.25493,-0.16995c-0.18254,-0.07868 -0.39341,-0.10701 -0.56966,-0.1196c-0.07553,-0.0063 -0.14478,-0.0063 -0.20458,-0.0063l-0.89383,0z" fill="#FFFFFF"/>
		<path stroke="null" d="m48.4649,15.14303l0,7.55983l2.84517,0c0,0 1.38796,0.03777 2.15276,-0.73018c0.62317,-0.62317 0.57911,-1.3439 0.57911,-1.3439s0.04406,-0.7522 -0.53189,-1.33131c-0.49098,-0.49098 -1.12044,-0.62317 -1.12044,-0.62317s0.28326,-0.13219 0.50357,-0.34935c0.10071,-0.10071 0.46265,-0.43118 0.46265,-1.22745c0,-0.80256 -0.53189,-1.26207 -0.53189,-1.26207s-0.5854,-0.69241 -1.90412,-0.69241l-2.4549,0zm-2.92385,-1.46979l11.15091,0l0,10.49312l-11.15091,0l0,-10.49312z" fill="#FFFFFF"/>
		<polygon stroke="null" points="37.219581604003906,34.458045959472656 31.54498863220215,34.458045959472656 31.54498863220215,31.477548599243164 46.18939971923828,31.477548599243164 46.18939971923828,34.458045959472656 40.514808654785156,34.458045959472656 40.514808654785156,49.98999786376953 37.219581604003906,49.98999786376953 " fill="#FFFFFF"/>
		<polygon stroke="null" points="49.509803771972656,31.477548599243164 53.11661911010742,31.477548599243164 56.59754180908203,44.815826416015625 56.64789581298828,44.815826416015625 60.80548858642578,31.477548599243164 64.04721069335938,31.477548599243164 68.12611389160156,44.815826416015625 68.17962646484375,44.815826416015625 71.81476593017578,31.477548599243164 75.16663360595703,31.477548599243164 69.77530670166016,49.99314498901367 66.64059448242188,49.99314498901367 62.3476676940918,35.8963623046875 62.29730987548828,35.8963623046875 58.00753402709961,49.99314498901367 54.97352981567383,49.99314498901367 " fill="#FFFFFF"/>
		<path stroke="null" d="m86.40881,31.00545c5.77845,-0.10386 9.85422,3.76733 9.85422,9.70314c0,5.7816 -4.07577,9.64964 -9.85422,9.75665c-5.70606,0 -9.78497,-3.86804 -9.78497,-9.64964c-0.00315,-5.93897 4.0789,-9.81015 9.78497,-9.81015m0.02518,16.47615c3.84285,0 6.37643,-2.927 6.37643,-6.88001c0,-3.68549 -2.53673,-6.61563 -6.37643,-6.61563c-3.81769,0 -6.35756,2.93014 -6.35756,6.61563c0,3.95616 2.53987,6.88001 6.35756,6.88001" fill="#FFFFFF"/>
	</g>
</svg>