<?xml version="1.0" encoding="UTF-8" standalone="no"?>

<svg xmlns:svg="http://www.w3.org/2000/svg" xmlns="http://www.w3.org/2000/svg" version="1.1" width="128" height="64" xmlns:xlink="http://www.w3.org/1999/xlink">
	<g stroke="null" >
		<path stroke="null" d="m76.51924,0.17328l19.09723,0l0,17.88172l-19.09723,0l0,-17.88172zm2.87926,8.69327c0,0.16506 0,0.2751 0,0.44017c0,0.11004 0,0.16506 0,0.2751s0,0.22008 0,0.33012l0,0.05502c0.05537,0.11004 0.05537,0.22008 0.05537,0.38515c0.06091,0 0.06091,0.05502 0.06091,0.11004c0,0.11004 0.05537,0.22008 0.05537,0.2751c0.06091,0.16506 0.06091,0.2751 0.11627,0.38514c0.06091,0.16506 0.11628,0.2751 0.16612,0.44017c0.11073,0.22008 0.22147,0.38515 0.27685,0.60523c0.11627,0.11004 0.16611,0.22008 0.22148,0.33012c0.05537,0.11004 0.11628,0.16506 0.16611,0.2751s0.15504,0.22008 0.22148,0.2751c0.11074,0.11004 0.16058,0.22008 0.27686,0.33012s0.16611,0.22008 0.27686,0.33012l0.05537,0.05502c0.11628,0.05502 0.16611,0.11554 0.28239,0.22008c0.06091,0.05502 0.16057,0.11554 0.22702,0.16506c0.11074,0.05502 0.15504,0.16506 0.21594,0.22008c0.11628,0.05502 0.21595,0.11004 0.33775,0.16506c0.11075,0.11004 0.22149,0.16506 0.33777,0.22008c0.28239,0.16506 0.55924,0.2751 0.82501,0.38515c0.16611,0.05502 0.27686,0.11554 0.38206,0.16506c0.11628,0.05502 0.22702,0.05502 0.3876,0.11004c0.21594,0.05502 0.43743,0.11004 0.65891,0.16506c0.22149,0.05502 0.3876,0.05502 0.60907,0.11004c0.22149,0 0.44297,0.05502 0.66445,0.05502c0.11074,0 0.21594,0 0.33222,0c0.06091,0 0.11628,0 0.16611,0c0.38759,0 0.77519,0 1.10188,-0.05502l0.0609,0c0.16611,0 0.27686,0 0.38206,-0.05502c0.22701,0 0.38759,-0.05502 0.60353,-0.05502c0.11629,0 0.22148,-0.05502 0.33776,-0.05502c0.16058,-0.05502 0.33776,-0.11004 0.44297,-0.11004c0.11627,-0.05502 0.22701,-0.05502 0.33775,-0.11004c0.11628,-0.05502 0.22148,-0.05502 0.33775,-0.11004l0.11628,-0.05502c0.05537,0 0.16611,-0.05502 0.22149,-0.05502c0.11073,-0.05502 0.27686,-0.11004 0.44296,-0.16506c0.05537,-0.05502 0.16058,-0.11004 0.27685,-0.16506c0.11627,-0.05502 0.22148,-0.05502 0.27685,-0.11004c0.05537,-0.05502 0.11628,-0.05502 0.16611,-0.05502l0,-2.47593c-0.05537,0.05502 -0.05537,0.05502 -0.11628,0.05502l-0.17165,0.11004c-0.16611,0.11004 -0.33776,0.22008 -0.49834,0.2751c-0.16611,0.11004 -0.34329,0.22008 -0.50941,0.2751c-0.33222,0.16506 -0.59799,0.2751 -0.87485,0.38514c-0.56478,0.16506 -1.05204,0.27511 -1.50054,0.38515c-0.05537,0 -0.05537,0 -0.11074,0c-0.17165,0.05502 -0.29346,0.05502 -0.39312,0.05502c-0.16611,0 -0.33222,0 -0.44296,0.05502c-0.11629,0 -0.16611,0 -0.27686,0c-0.16611,0 -0.33776,0 -0.56478,-0.05502c-0.16058,0 -0.37652,0 -0.598,-0.05502c-0.3876,-0.05502 -0.71981,-0.16506 -1.05203,-0.2751c-0.05537,0 -0.11074,-0.05502 -0.16058,-0.05502s-0.11627,-0.05502 -0.11627,-0.05502c-0.05538,0 -0.11629,-0.05502 -0.16611,-0.05502c-0.11074,-0.05502 -0.21595,-0.11004 -0.33223,-0.16506c-0.11627,-0.05502 -0.16611,-0.11004 -0.22147,-0.11004c-0.05537,-0.05502 -0.11628,-0.11004 -0.16611,-0.11004c-0.05537,-0.05502 -0.11628,-0.11004 -0.22149,-0.16506c-0.05536,-0.05502 -0.11073,-0.11004 -0.16056,-0.16506l-0.12182,-0.05502l0,-0.05502l-0.05537,-0.05502l-0.33222,-0.33012c-0.05537,-0.05502 -0.11074,-0.11004 -0.11074,-0.16506c-0.05537,-0.05502 -0.11628,-0.11004 -0.16611,-0.22008c0,-0.05502 -0.05537,-0.11004 -0.11628,-0.16506c-0.04984,-0.05502 -0.04984,-0.16506 -0.1052,-0.22008c-0.05537,-0.11004 -0.05537,-0.16506 -0.11075,-0.22008c-0.05536,-0.16506 -0.11627,-0.2751 -0.11627,-0.38515c-0.05537,-0.11004 -0.05537,-0.16506 -0.11628,-0.2751c-0.0443,-0.2751 -0.11073,-0.49519 -0.11073,-0.66025c0,-0.11004 0,-0.16506 0,-0.22008c0,-0.11004 0,-0.22008 0,-0.2751c0,-0.05502 0,-0.11004 0,-0.16506c0,-0.11004 0,-0.2751 0.06644,-0.49519c0,-0.11004 0,-0.2751 0.05537,-0.38514c0,-0.11004 0.05537,-0.16506 0.05537,-0.2751c0.05537,-0.11004 0.05537,-0.16506 0.11075,-0.2751c0,-0.05502 0.06644,-0.11004 0.06644,-0.16506c0.05537,-0.11004 0.11074,-0.16506 0.11074,-0.2751c0.05537,-0.05502 0.11628,-0.11004 0.11628,-0.16506c0.11075,-0.16506 0.21594,-0.2751 0.27686,-0.44017c0.05537,-0.05502 0.11628,-0.11004 0.11628,-0.16506c0.05537,-0.05502 0.16057,-0.11004 0.16057,-0.16506c0.05537,0 0.11627,-0.05502 0.11627,-0.11004c0.43189,-0.44017 0.9413,-0.77029 1.495,-0.99037c0.05537,-0.05502 0.16611,-0.05502 0.22149,-0.11004c0.11626,-0.05502 0.16611,-0.05502 0.27684,-0.11004c0.05538,0 0.16611,-0.05502 0.28239,-0.05502c0.05537,-0.05502 0.16057,-0.05502 0.21595,-0.05502c0.11627,-0.05502 0.22701,-0.05502 0.28239,-0.05502c0.11627,-0.05502 0.22701,-0.05502 0.28239,-0.05502c0.11073,0 0.22147,-0.05502 0.27684,-0.05502c0.22149,0 0.38206,0 0.55924,0c0.05537,0 0.11628,0 0.16058,0c0.11628,0 0.22147,0 0.3876,0c0.05537,0 0.16056,0 0.22148,0.05502c0.15504,0 0.33221,0 0.43742,0.05502c0.11628,0 0.28239,0 0.38759,0.05502c0.16058,0 0.33777,0.05502 0.49834,0.11004c0.06091,0 0.16057,0.05502 0.21594,0.05502c0.11628,0.05502 0.22702,0.05502 0.3433,0.11004c0.11627,0.05502 0.16611,0.05502 0.16611,0.05502c0.16058,0.05502 0.27686,0.11004 0.37652,0.16506c0.16611,0.05502 0.28239,0.11004 0.44297,0.16506c0.11626,0.05502 0.22147,0.11004 0.33775,0.16506s0.16058,0.11004 0.22147,0.11004c0.16058,0.05502 0.27686,0.16506 0.37653,0.22008l0.22701,0.11004l0,-2.42091c0,0 -0.16058,-0.05502 -0.38759,-0.11004c-0.11628,-0.05502 -0.28239,-0.11004 -0.44296,-0.16506c-0.07752,-0.05502 -0.18273,-0.05502 -0.30454,-0.11004c-0.05537,0 -0.11074,-0.05502 -0.21594,-0.05502c-0.06091,-0.05502 -0.16058,-0.05502 -0.28239,-0.11004c-0.05537,0 -0.11074,-0.05502 -0.21593,-0.05502l-0.05538,0c-0.05537,-0.05502 -0.16611,-0.05502 -0.22147,-0.11004c-0.11075,0 -0.16058,0 -0.27686,-0.05502c-0.06091,0 -0.11628,0 -0.16611,-0.05502c-0.11075,0 -0.16058,0 -0.27686,-0.05502c-0.11628,0 -0.22148,0 -0.33222,-0.05502c-0.06644,0 -0.16611,0 -0.22702,0l-0.11074,-0.05502c-0.16057,0 -0.27685,0 -0.44296,-0.05502c-0.11074,0 -0.22148,0 -0.33776,0c-0.16057,0 -0.33775,0 -0.49833,0c-0.11628,0 -0.16058,0 -0.21594,0c-0.16611,0 -0.28239,0 -0.44296,0c-0.06645,0 -0.11628,0 -0.22703,0c-0.11626,0.05502 -0.21593,0.05502 -0.33775,0.05502l-0.11074,0l-0.11074,0.05502l-0.11074,0c-0.05537,0 -0.11628,0 -0.16611,0c-0.05538,0.05502 -0.11628,0.05502 -0.22149,0.05502c-0.44296,0.11004 -0.88592,0.22008 -1.26798,0.38514c-0.16611,0.05502 -0.38758,0.16506 -0.56477,0.22008c-0.16058,0.11004 -0.27685,0.16506 -0.44297,0.2751c-0.11073,0.05502 -0.27684,0.16506 -0.37651,0.22008c-0.06644,0.05502 -0.16611,0.11004 -0.22701,0.16506c-0.05537,0.05502 -0.11628,0.05502 -0.16058,0.11004c-0.11075,0.11004 -0.22148,0.16506 -0.33776,0.2751c-0.09413,0.11004 -0.19934,0.22008 -0.31561,0.2751c-0.05538,0.11004 -0.11075,0.16506 -0.22149,0.2751c-0.05537,0.05502 -0.16611,0.16506 -0.22148,0.2751c-0.05537,0.05502 -0.16058,0.16506 -0.22148,0.2751c-0.05537,0.05502 -0.11628,0.16506 -0.16058,0.22008c-0.06091,0.05502 -0.06091,0.11004 -0.11628,0.16506c-0.22147,0.33012 -0.38759,0.66025 -0.49833,1.03989c-0.22148,0.44567 -0.33222,0.94085 -0.38759,1.49106c-0.04984,0.16506 -0.04984,0.33012 -0.04984,0.49519z"/>
		<path stroke="null" d="m61.78518,4.68498l1.495,0c0.11074,0 0.22148,0 0.38759,0c0.27686,0.05502 0.66445,0.11004 0.99667,0.22008c0.11075,0.11004 0.27686,0.16506 0.3876,0.33012c0.11074,0.05502 0.22147,0.16506 0.27685,0.2751c0.11627,0.22008 0.11627,0.49519 0.11627,0.60523c0.05537,0.11004 0.05537,0.16506 0.05537,0.16506s0,0.05502 -0.05537,0.16506c0,0.16506 0,0.33012 -0.11627,0.49519c-0.05537,0.16506 -0.16611,0.33012 -0.27685,0.49519c-0.22149,0.16506 -0.44297,0.2751 -0.71982,0.38514c-0.05537,0 -0.11074,0.05502 -0.16611,0.05502c-0.33222,0.11004 -0.60907,0.11004 -0.83055,0.16506c-0.11074,0 -0.22148,0 -0.27685,0c-0.11074,0 -0.16611,0 -0.16611,0l-1.10741,0l0,-3.35626z"/>
		<path stroke="null" d="m61.78518,13.54331l0,-3.52132c0,0 1.38426,0 2.21482,0c0.05537,0 0.16611,0.05502 0.22148,0.05502c0.11074,0 0.22148,0 0.27685,0c0.16611,0 0.27686,0.05502 0.3876,0.05502c0.27686,0.05502 0.49834,0.11004 0.71982,0.22008c0.16611,0.05502 0.28239,0.11004 0.44296,0.22008c0.05537,0.05502 0.11627,0.11004 0.16611,0.16506c0.05537,0.05502 0.05537,0.05502 0.11627,0.11004c0.16058,0.16506 0.21596,0.38515 0.28239,0.55021c0,0.11004 0.05537,0.2751 0.05537,0.33012c0,0.05502 0,0.11004 0,0.11004s0,0 0,0.11004c-0.05537,0.16506 -0.05537,0.44016 -0.28239,0.71527c-0.05538,0.05502 -0.11628,0.16506 -0.16058,0.2751c-0.22148,0.16506 -0.49834,0.33013 -0.83056,0.44017c-0.27686,0.11004 -0.60908,0.16506 -0.88593,0.16506c-0.11074,0 -0.22147,0 -0.33222,0c-0.05537,0 -0.11073,0 -0.11073,0l-2.28127,0z"/>
		<path stroke="null" d="m54.42093,0.17328l19.15261,0l0,17.88172l-19.15261,0l0,-17.88172zm5.0387,2.53095l0,12.87484l4.87259,0c0,0 2.38093,0.05502 3.70428,-1.26548c1.0465,-1.04539 1.0022,-2.25585 1.0022,-2.25585s0.06091,-1.3205 -0.9413,-2.31087c-0.82502,-0.82531 -1.9435,-1.04539 -1.9435,-1.04539s0.49834,-0.22008 0.88593,-0.60523c0.16058,-0.16506 0.82502,-0.71527 0.82502,-2.09079s-0.9413,-2.14581 -0.9413,-2.14581s-1.0022,-1.15543 -3.26685,-1.15543l-4.19707,0z"/>
		<path stroke="null" d="m41.0213,8.04124c-0.11074,0 -0.22148,0 -0.22148,0l-1.10741,0l0,-3.35626l1.55037,0c0.11074,0 0.22148,0 0.33222,0c0.33222,0.05502 0.66444,0.11004 0.99667,0.22008c0.16611,0.11004 0.33222,0.16506 0.44296,0.33012c0.11074,0.05502 0.16611,0.16506 0.22148,0.2751c0.11074,0.22008 0.16611,0.49519 0.16611,0.60523s0,0.16506 0,0.16506s0,0.05502 0,0.16506c0,0.16506 -0.05537,0.33012 -0.11074,0.49519c-0.05537,0.16506 -0.16057,0.33012 -0.33222,0.49519c-0.16611,0.16506 -0.38759,0.2751 -0.66444,0.38514c-0.05537,0 -0.11074,0.05502 -0.16611,0.05502c-0.33222,0.11004 -0.66444,0.11004 -0.88593,0.16506c-0.04984,0 -0.16057,0 -0.22148,0z"/>
		<path stroke="null" d="m39.69795,13.54331l0,-3.52132c0,0 1.43963,0 2.27019,0c0.05537,0 0.11074,0.05502 0.22148,0.05502s0.16611,0 0.27685,0s0.27685,0.05502 0.38759,0.05502c0.27686,0.05502 0.49834,0.11004 0.71982,0.22008c0.11074,0.05502 0.27685,0.11004 0.38759,0.22008c0.11074,0.05502 0.16611,0.11004 0.22148,0.16506c0.05537,0.05502 0.05537,0.05502 0.11074,0.11004c0.11074,0.16506 0.22148,0.38515 0.22148,0.55021c0.05537,0.11004 0.05537,0.2751 0.05537,0.33012l0,0.11004c0,0 0,0 0,0.11004c0,0.16506 -0.05537,0.44016 -0.22148,0.71527c-0.05537,0.05502 -0.11074,0.16506 -0.22148,0.2751c-0.22702,0.16506 -0.49834,0.33013 -0.78072,0.44017c-0.33223,0.11004 -0.66445,0.16506 -0.88593,0.16506c-0.16611,0 -0.27685,0 -0.33222,0c-0.05537,0 -0.11074,0 -0.11074,0l-2.32002,0z"/>
		<path stroke="null" d="m32.38353,0.17328l19.10277,0l0,17.88172l-19.10277,0l0,-17.88172zm4.98887,15.40579l4.92796,0c0,0 2.38092,0.05502 3.65444,-1.26548c1.10741,-1.04539 0.99667,-2.25585 0.99667,-2.25585s0.11074,-1.3205 -0.88593,-2.31087c-0.83056,-0.82531 -1.9435,-1.04539 -1.9435,-1.04539s0.49833,-0.22008 0.88592,-0.60523c0.16611,-0.16506 0.77518,-0.71527 0.77518,-2.09079s-0.88593,-2.14581 -0.88593,-2.14581s-1.05204,-1.15543 -3.32222,-1.15543l-4.20815,0l0.00554,12.87484l0,0z"/>
		<path stroke="null" d="m123.79999,46.12656l-0.11074,-0.83632c-1.04096,-8.10454 -8.06747,-14.22285 -16.3398,-14.22285c-6.11289,0 -11.45058,3.31775 -14.31323,8.22559c-2.86265,-4.94086 -8.24464,-8.22559 -14.31324,-8.22559c-5.2325,0 -9.90022,2.43192 -12.93452,6.21734l0,-6.14031l-1.26798,0c-5.25464,0 -9.93898,2.45942 -12.95112,6.27786c-3.01215,-3.90647 -7.75185,-6.43742 -13.07294,-6.43742c-3.5437,0 -6.88253,1.0729 -9.65105,3.04814l0,-11.7139l-6.94345,0l0,34.59701l-1.2569,0c-5.28233,0 -9.57354,-4.2421 -9.57354,-9.43605l0,-7.92298l7.53591,0l0,-6.82256l-7.53591,0l0,-10.42092l-6.87146,0l0,25.16646c0,9.00689 7.37533,16.33565 16.445,16.33565l8.20035,0l0,-16.50071c0,-5.3315 4.23583,-9.51307 9.65105,-9.51307c5.2768,0 9.57354,4.2641 9.57354,9.51307l0,16.4952l6.87146,0l0,-16.33014c0,-5.19945 4.29675,-9.43605 9.57353,-9.43605l0.69768,0c-1.89921,2.66851 -3.01215,5.92023 -3.01215,9.43605c0,9.00689 7.40302,16.33565 16.51698,16.33565l13.34425,0l0,-6.81707l-13.34425,0c-0.70321,0 -1.42856,-0.09354 -2.12069,-0.23659l14.25787,-8.17057c0.57585,8.4897 7.74632,15.23523 16.4893,15.23523l13.34425,0l0,-6.82256l-13.34425,0c-0.71428,0 -1.42855,-0.08804 -2.12068,-0.23659l17.84032,-10.20634l0.73643,-0.43466m-53.32719,6.21734c-0.86378,-1.48006 -1.32889,-3.13618 -1.32889,-4.86934c0,-5.34801 4.21922,-9.51307 9.57354,-9.51307c3.4994,0 6.71088,1.88721 8.32769,4.7923l-16.57234,9.59011zm28.62648,0c-0.86932,-1.46906 -1.32336,-3.13618 -1.32336,-4.86383c0,-5.34251 4.19709,-9.51307 9.57354,-9.51307c3.49387,0 6.71089,1.88721 8.32771,4.7923l-16.57788,9.58461z" fill="#FF008D"/>
	</g>
</svg>