<?xml version="1.0" encoding="UTF-8" standalone="no"?>

<svg xmlns:svg="http://www.w3.org/2000/svg" xmlns="http://www.w3.org/2000/svg" version="1.1" width="128" height="64" xmlns:xlink="http://www.w3.org/1999/xlink">
    <g stroke="null"  transform="matrix(3.170784617910862,0,0,3.170784617910862,-97.66072550112736,-2331.3288204074684) ">
        <path  fill="#c90302" fill-rule="nonzero" d="m37.26546,735.26715l27.438,0l0,20.15594l-27.438,0l0,-20.15594z"/>
        <g stroke="null"  transform="matrix(1,0,0,-1,-129.20549,1544.741) ">
            <g stroke="null" >
                <path  fill="#ffffff" fill-rule="nonzero" d="m182.59586,805.09393l3.42499,0l0,-3.224l-3.42499,0l0,3.224zm2.15799,-0.44897c-0.015,0.00195 -0.03,0.005 -0.04599,0.00696l-0.019,0.00201c-0.026,0.00403 -0.05301,0.008 -0.07901,0.01001c-0.01799,0.00098 -0.037,0.00201 -0.05499,0.00397c-0.033,0.00305 -0.06401,0.00403 -0.09601,0.00403c-0.013,0 -0.021,-0.00098 -0.03499,-0.00098c-0.026,0 -0.052,-0.00201 -0.076,-0.00403c-0.015,-0.00098 -0.028,-0.00201 -0.04201,-0.00299c-0.01999,-0.00098 -0.03999,-0.00403 -0.06,-0.00598l-0.017,-0.00305l-0.01801,-0.00195l-0.02299,-0.00403c-0.00999,-0.00201 -0.02,-0.00299 -0.02901,-0.005c-0.013,-0.00201 -0.02699,-0.005 -0.03999,-0.008c-0.082,-0.01801 -0.157,-0.03998 -0.226,-0.06702c-0.036,-0.01495 -0.071,-0.02997 -0.103,-0.04498c-0.028,-0.013 -0.054,-0.02698 -0.07901,-0.04199c-0.02499,-0.01398 -0.04799,-0.02802 -0.071,-0.04297c-0.01199,-0.00903 -0.02499,-0.01703 -0.037,-0.02704c-0.01099,-0.00702 -0.02199,-0.01501 -0.032,-0.02301c-0.021,-0.01697 -0.04199,-0.034 -0.062,-0.05096c-0.01801,-0.01599 -0.036,-0.03302 -0.05299,-0.04999c-0.015,-0.01404 -0.02901,-0.02802 -0.04201,-0.04303c-0.01399,-0.01599 -0.028,-0.03101 -0.041,-0.047c-0.01399,-0.01801 -0.02699,-0.03601 -0.041,-0.05402c-0.00999,-0.01398 -0.02,-0.02802 -0.02899,-0.04297c-0.007,-0.00903 -0.01201,-0.01904 -0.01801,-0.02899c-0.037,-0.05804 -0.06799,-0.12103 -0.093,-0.18805c-0.033,-0.08295 -0.056,-0.172 -0.06799,-0.26801c-0.005,-0.02997 -0.00801,-0.06 -0.009,-0.09094c-0.002,-0.02405 -0.002,-0.04803 -0.002,-0.073c0,-0.01801 0,-0.03601 0.00099,-0.05402c0.00101,-0.01904 0.002,-0.03699 0.005,-0.05499l0.00101,-0.013c0.00299,-0.02301 0.006,-0.04504 0.00999,-0.065c0.002,-0.008 0.00301,-0.01703 0.005,-0.02502c0.004,-0.01697 0.008,-0.03497 0.01199,-0.052c0.006,-0.02301 0.013,-0.04297 0.02,-0.06396c0.009,-0.02704 0.019,-0.052 0.02899,-0.078c0.017,-0.039 0.035,-0.07703 0.054,-0.112c0.011,-0.02203 0.02301,-0.04205 0.03601,-0.06104c0.00899,-0.01599 0.01999,-0.03101 0.02899,-0.04596c0.01401,-0.01904 0.028,-0.03802 0.041,-0.05505c0.015,-0.01898 0.03,-0.03699 0.04401,-0.05298c0.019,-0.02197 0.03699,-0.04102 0.05499,-0.05902l0.00999,-0.008c0.01401,-0.01495 0.03001,-0.02997 0.048,-0.047c0.013,-0.01001 0.026,-0.021 0.04001,-0.03198c0.013,-0.01001 0.02699,-0.021 0.041,-0.03101c0.01799,-0.01202 0.036,-0.02502 0.05499,-0.03802c0.021,-0.01196 0.04201,-0.02496 0.064,-0.039c0.04701,-0.02496 0.09601,-0.04999 0.151,-0.07098c0.02101,-0.00897 0.04201,-0.01599 0.063,-0.02399c0.02299,-0.00702 0.045,-0.01398 0.06801,-0.021c0.03899,-0.01099 0.08099,-0.021 0.125,-0.03003c0.034,-0.00696 0.071,-0.013 0.10799,-0.01697c0.03801,-0.00403 0.07701,-0.008 0.117,-0.01001c0.02,0 0.04001,-0.00098 0.06,-0.00098c0.00801,0 0.01801,-0.00104 0.02701,-0.00104c0.073,0 0.13899,0.00299 0.2,0.008l0.013,0c0.02499,0.00305 0.048,0.00604 0.071,0.008c0.036,0.005 0.07001,0.01001 0.101,0.01605c0.021,0.00299 0.04001,0.00696 0.05901,0.01099c0.03,0.00598 0.05699,0.013 0.084,0.021c0.02,0.00397 0.03999,0.01001 0.058,0.01599c0.022,0.00702 0.04199,0.01398 0.062,0.021l0.02,0.00702c0.00999,0.00299 0.024,0.00696 0.039,0.01398c0.01999,0.00702 0.04599,0.01801 0.07399,0.03003c0.01701,0.00696 0.035,0.01495 0.05301,0.02295c0.017,0.00806 0.034,0.01703 0.05299,0.026c0.007,0.00305 0.01401,0.00702 0.022,0.01001l0,0.44c-0.005,-0.00299 -0.00999,-0.00696 -0.015,-0.00897l-0.03,-0.01801c-0.03,-0.01898 -0.06,-0.03601 -0.089,-0.052c-0.032,-0.01703 -0.062,-0.03302 -0.09399,-0.04797c-0.054,-0.026 -0.10701,-0.04803 -0.157,-0.065c-0.09601,-0.03503 -0.183,-0.05701 -0.261,-0.07104c-0.009,-0.00098 -0.019,-0.00195 -0.028,-0.00397c-0.02101,-0.00201 -0.041,-0.005 -0.061,-0.008c-0.03,-0.00299 -0.05901,-0.005 -0.08501,-0.00604c-0.01599,-0.00098 -0.032,-0.00098 -0.04599,-0.00098c-0.03101,0 -0.063,0 -0.09601,0.00403c-0.039,0.00195 -0.07799,0.00598 -0.11699,0.013c-0.063,0.00995 -0.127,0.02698 -0.19,0.04895c-0.009,0.00299 -0.01801,0.00702 -0.02701,0.01001c-0.006,0.00403 -0.013,0.00598 -0.019,0.00903c-0.009,0.00299 -0.02,0.008 -0.03,0.013c-0.021,0.00897 -0.043,0.021 -0.063,0.03296c-0.011,0.005 -0.021,0.01202 -0.032,0.01801c-0.00999,0.00604 -0.021,0.01404 -0.03,0.021c-0.013,0.00903 -0.026,0.01703 -0.03799,0.02704c-0.013,0.00897 -0.02501,0.01996 -0.035,0.02899l-0.01401,0.013l-0.008,0.00598l-0.004,0.005l-0.006,0.005c-0.019,0.02002 -0.037,0.039 -0.054,0.05902c-0.009,0.01099 -0.01801,0.02197 -0.026,0.03296c-0.008,0.01202 -0.015,0.02203 -0.022,0.03302c-0.007,0.01099 -0.013,0.021 -0.019,0.03198c-0.00999,0.01404 -0.01801,0.03101 -0.02499,0.04602c-0.007,0.013 -0.013,0.02698 -0.01901,0.039c-0.00899,0.02197 -0.017,0.04401 -0.02399,0.06598c-0.005,0.01599 -0.01001,0.03198 -0.013,0.04901c-0.01201,0.04498 -0.01801,0.08801 -0.022,0.12299c-0.00101,0.013 -0.002,0.026 -0.00301,0.03802c0,0.01801 0,0.03296 0,0.04498c0,0.008 0,0.01703 0,0.02802c0.00101,0.026 0.00301,0.05701 0.008,0.09399c0.00401,0.021 0.00801,0.04498 0.01401,0.07001c0.004,0.01599 0.009,0.03302 0.01399,0.04999c0.00401,0.01501 0.011,0.03198 0.01701,0.047c0.004,0.01202 0.008,0.02203 0.013,0.03302c0.00699,0.01501 0.01399,0.02997 0.021,0.04498c0.006,0.01099 0.013,0.02197 0.01999,0.03497c0.01401,0.02502 0.03001,0.04901 0.048,0.07404c0.007,0.008 0.01401,0.01801 0.021,0.026c0.01001,0.01196 0.01901,0.02301 0.03001,0.034c0.00499,0.00598 0.00999,0.01099 0.015,0.01697c0.08099,0.08105 0.172,0.14105 0.26599,0.18304c0.01401,0.00696 0.02901,0.01196 0.04401,0.01898c0.015,0.00598 0.02899,0.01202 0.04399,0.01599c0.017,0.00598 0.033,0.01099 0.05,0.01599c0.015,0.00299 0.03101,0.008 0.04601,0.01001c0.01599,0.005 0.03,0.00702 0.04599,0.01001c0.01701,0.00299 0.035,0.00598 0.05101,0.008c0.017,0.00201 0.03299,0.00403 0.05099,0.00598c0.032,0.00201 0.063,0.00403 0.09401,0.00403l0.03,0c0.02399,-0.00098 0.045,-0.00201 0.067,-0.00403c0.015,0 0.03099,-0.00098 0.04399,-0.00299c0.028,-0.00201 0.05501,-0.005 0.08,-0.01001c0.02299,-0.00195 0.045,-0.00598 0.06599,-0.01099c0.03101,-0.00598 0.06001,-0.013 0.086,-0.02002c0.01601,-0.00397 0.03201,-0.00897 0.04601,-0.013c0.022,-0.00696 0.04001,-0.01196 0.054,-0.01697c0.024,-0.00903 0.037,-0.013 0.037,-0.013c0.022,-0.00702 0.04399,-0.01703 0.064,-0.02502c0.02701,-0.01099 0.054,-0.02197 0.08,-0.034c0.021,-0.01001 0.041,-0.01996 0.06,-0.02899c0.01601,-0.008 0.03101,-0.01599 0.045,-0.02301c0.024,-0.01196 0.04401,-0.02399 0.061,-0.03296l0.04401,-0.02301l0,0.42999c0,0 -0.026,0.01099 -0.07301,0.02997c-0.021,0.00806 -0.04399,0.01605 -0.07199,0.026c-0.015,0.005 -0.03101,0.01202 -0.049,0.01703c-0.01401,0.005 -0.028,0.01001 -0.043,0.01501c-0.01601,0.00397 -0.033,0.01001 -0.05101,0.01599c-0.01199,0.00397 -0.02499,0.00702 -0.03799,0.01099l-0.01201,0.00403c-0.01199,0.00299 -0.02599,0.00696 -0.03899,0.01099c-0.01601,0.00397 -0.03201,0.008 -0.048,0.01099c-0.011,0.00299 -0.02,0.00598 -0.03101,0.00903c-0.017,0.00299 -0.034,0.008 -0.052,0.00995c-0.017,0.005 -0.03499,0.008 -0.054,0.01105"/>
                <g stroke="null" >
                    <path  fill="#ffffff" fill-rule="nonzero" d="m179.96275,803.31494l0,-0.63196l0.41101,0l0.02199,0c0.01401,0.00098 0.03401,0.00098 0.05701,0.00299c0.04601,0.005 0.104,0.01196 0.16,0.03198c0.05299,0.01703 0.103,0.04297 0.14099,0.08099c0.015,0.01501 0.02701,0.03101 0.037,0.04602c0.033,0.05096 0.04001,0.10297 0.04201,0.13196c0.00099,0.01306 0.00099,0.02002 0.00099,0.02002l0,0.01599c0,0.01202 -0.002,0.03503 -0.008,0.06104c-0.008,0.02997 -0.022,0.065 -0.048,0.09698c-0.005,0.00598 -0.011,0.013 -0.01599,0.01801c-0.011,0.01099 -0.02301,0.02197 -0.037,0.03198c-0.02301,0.01703 -0.04901,0.03101 -0.076,0.04303c-0.037,0.01495 -0.078,0.02795 -0.12399,0.03595c-0.024,0.00403 -0.048,0.00806 -0.07301,0.01105c-0.01599,0.00098 -0.032,0.00201 -0.047,0.00299c-0.01399,0 -0.02899,0.00098 -0.045,0.00098l-0.397,0"/>
                </g>
                <g stroke="null" >
                    <path  fill="#ffffff" fill-rule="nonzero" d="m179.96275,804.2785l0,-0.59998l0.19901,0l0.03101,0c0.013,0.00098 0.03099,0.00201 0.045,0.00299c0.041,0.00201 0.09799,0.008 0.155,0.02399c0.011,0.00299 0.021,0.00702 0.03299,0.01001c0.04401,0.01599 0.08701,0.039 0.12001,0.07202c0.026,0.026 0.043,0.05499 0.054,0.08301c0.015,0.034 0.01999,0.06696 0.022,0.091c0.002,0.01996 0.002,0.03296 0.002,0.03296l0,0.026c-0.002,0.026 -0.00801,0.06799 -0.028,0.10901c-0.01001,0.02002 -0.02301,0.03802 -0.043,0.05701c-0.022,0.02197 -0.04901,0.039 -0.078,0.052c-0.05501,0.02502 -0.12001,0.03497 -0.175,0.03802c-0.02299,0.00195 -0.04401,0.00195 -0.062,0.00195l-0.27501,0"/>
                </g>
                <path  fill="#ffffff" fill-rule="nonzero" d="m178.64886,805.09393l3.425,0l0,-3.224l-3.425,0l0,3.224zm0.89799,-0.45203l0,-2.323l0.87401,0c0,0 0.42599,-0.01099 0.66199,0.22504c0.19101,0.19 0.177,0.41199 0.177,0.41199c0,0 0.015,0.23102 -0.16299,0.409c-0.151,0.151 -0.34399,0.19098 -0.34399,0.19098c0,0 0.08699,0.04205 0.15399,0.10803c0.032,0.03101 0.14301,0.13202 0.14301,0.37701c0,0.24597 -0.164,0.388 -0.164,0.388c0,0 -0.18001,0.21295 -0.586,0.21295l-0.75301,0"/>
                <g stroke="null" >
                    <path  fill="#ffffff" fill-rule="nonzero" d="m176.01584,803.31494l0,-0.63196l0.41101,0l0.02199,0c0.01401,0.00098 0.033,0.00098 0.05701,0.00299c0.045,0.005 0.104,0.01196 0.16,0.03198c0.05299,0.01703 0.103,0.04297 0.14099,0.08099c0.015,0.01501 0.02701,0.03101 0.037,0.04602c0.032,0.05096 0.041,0.10297 0.04201,0.13196c0,0.01306 0,0.02002 0,0.02002c0,0 0.00099,0.00702 0,0.01599c0,0.01202 -0.00101,0.03503 -0.007,0.06104c-0.008,0.02997 -0.02299,0.065 -0.048,0.09698c-0.005,0.00598 -0.011,0.013 -0.01599,0.01801c-0.01201,0.01099 -0.024,0.02197 -0.037,0.03198c-0.02301,0.01703 -0.04901,0.03101 -0.07701,0.04303c-0.036,0.01495 -0.07799,0.02795 -0.12299,0.03595c-0.024,0.00403 -0.048,0.00806 -0.07301,0.01105c-0.01599,0.00098 -0.032,0.00201 -0.04799,0.00299c-0.01401,0 -0.02901,0.00098 -0.04401,0.00098l-0.397,0"/>
                </g>
                <g stroke="null" >
                    <path  fill="#ffffff" fill-rule="nonzero" d="m176.01584,804.2785l0,-0.59998l0.19901,0l0.03101,0c0.013,0.00098 0.03,0.00201 0.045,0.00299c0.041,0.00201 0.097,0.008 0.155,0.02399c0.00999,0.00299 0.021,0.00702 0.03299,0.01001c0.04401,0.01599 0.08701,0.039 0.12001,0.07202c0.026,0.026 0.043,0.05499 0.054,0.08301c0.015,0.034 0.01999,0.06696 0.022,0.091c0.00099,0.01996 0.00099,0.03296 0.00099,0.03296c0,0 0.00101,0.01001 0,0.026c-0.00099,0.026 -0.007,0.06799 -0.02699,0.10901c-0.01001,0.02002 -0.02301,0.03802 -0.043,0.05701c-0.02101,0.02197 -0.04901,0.039 -0.078,0.052c-0.056,0.02502 -0.121,0.03497 -0.175,0.03802c-0.02299,0.00195 -0.045,0.00195 -0.062,0.00195l-0.27501,0"/>
                </g>
                <path  fill="#ffffff" fill-rule="nonzero" d="m174.70087,805.09393l3.42601,0l0,-3.224l-3.42601,0l0,3.224zm0.899,-0.45203l0,-2.323l0.87401,0c0,0 0.42599,-0.01099 0.66199,0.22504c0.19101,0.19 0.177,0.41199 0.177,0.41199c0,0 0.01401,0.23102 -0.16299,0.409c-0.151,0.151 -0.34399,0.19098 -0.34399,0.19098c0,0 0.08699,0.04205 0.15399,0.10803c0.03101,0.03101 0.14301,0.13202 0.14301,0.37701c0,0.24597 -0.164,0.388 -0.164,0.388c0,0 -0.18001,0.21295 -0.586,0.21295l-0.75301,0"/>
            </g>
            <g stroke="null" >
                <path  fill="#ffffff" fill-rule="nonzero" d="m188.28665,797.6554c0,0.37201 -0.121,0.81799 -0.453,1.12701c-0.30901,0.28802 -0.711,0.42401 -1.24699,0.42401c-1.007,0 -1.621,-0.64001 -1.714,-1.55103l3.414,0zm1.19099,-0.953l-4.597,0c0.11501,-0.854 0.67601,-1.50098 1.94301,-1.50098c0.71199,0 1.487,0.24402 2.015,0.60303l0.452,-0.83502c-0.778,-0.62103 -1.806,-0.84698 -2.67799,-0.84698c-1.74301,0 -2.994,1.20801 -2.994,3.07098c0,1.81897 1.226,3.112 2.97,3.112c1.84799,0 2.933,-1.28101 2.933,-3.07202c0,-0.20801 -0.017,-0.362 -0.04401,-0.53101"/>
            </g>
            <g stroke="null"  fill="#ffffff">
                <path  fill="#ffffff" fill-rule="nonzero" d="m173.81184,794.12274c-1.785,0 -3.02,1.27802 -3.02,3.091c0,1.81299 1.235,3.091 3.02,3.091c1.785,0 3.02,-1.27802 3.02,-3.091c0,-1.81299 -1.235,-3.091 -3.02,-3.091m0,1.11005c0.57899,0 1.01399,0.18195 1.317,0.50098c0.31799,0.33496 0.48399,0.828 0.48399,1.47998c0,0.65198 -0.166,1.14502 -0.48399,1.479c-0.30301,0.32001 -0.73801,0.50098 -1.317,0.50098c-0.57901,0 -1.013,-0.18097 -1.317,-0.50098c-0.31801,-0.33398 -0.48401,-0.82703 -0.48401,-1.479c0,-0.65198 0.166,-1.14502 0.48401,-1.47998c0.304,-0.31903 0.73799,-0.50098 1.317,-0.50098"/>
            </g>
            <g stroke="null" >
                <path  fill="#ffffff" fill-rule="nonzero" d="m183.17404,794.28009l-1.162,0c-0.086,0.44299 -0.12399,1.07904 -0.12399,1.64404l-0.00301,1.409c0,0.729 -0.173,1.16296 -0.457,1.44397c-0.27299,0.271 -0.649,0.37402 -1.069,0.37402c-0.496,0 -0.967,-0.16101 -1.295,-0.51501c-0.34,-0.36603 -0.494,-0.86298 -0.494,-1.62299l0,-2.73303l-1.17101,0l0,4.20599c0,0.565 -0.03799,1.20105 -0.12399,1.64502l1.138,0c0.064,-0.20898 0.12801,-0.56396 0.15199,-0.85303l0.009,0c0.453,0.63202 1.13501,1.02502 2.06,1.02502c0.76801,0 1.35701,-0.30499 1.70801,-0.66498c0.439,-0.45105 0.713,-1.00604 0.713,-2.22803l0,-1.48596c0,-0.565 0.033,-1.20105 0.119,-1.64404"/>
            </g>
            <g stroke="null"  transform="matrix(0.09106599,0,0,-0.09106599,147.73433,776.7342) ">
                <g stroke="null" />
            </g>
        </g>
    </g>
</svg>