<svg xmlns="http://www.w3.org/2000/svg" width="128" height="64"><path d="M113.083.078H6.013l-.002 47.13h9.643v16.714l22.559-16.687h74.87c5.576 0 8.906-2.462 8.906-6.587V6.665c0-4.124-3.33-6.587-8.906-6.587"/><path d="M31.321 22.537c2.42-.64 3.801-2.003 3.801-4.686v-4.26c0-3.877-2.822-5.794-8.58-5.794H15.714V38.47h10.942c5.76 0 8.64-1.917 8.64-5.837v-6.092c0-2.258-1.21-3.493-3.975-4.005zm-8.005-9.756h2.534c1.094 0 1.613.384 1.613 1.193v5.282c0 .81-.519 1.194-1.613 1.194h-2.534v-7.67zm4.262 19.512c0 .81-.518 1.193-1.613 1.193h-2.649V25.18h2.649c1.095 0 1.613.383 1.613 1.192v5.922m18.027-16.785v-2.6H38.29v25.563h7.602V20.066c1.152-.767 2.765-1.278 5.414-1.278v-6.093c-2.995-.127-4.32.98-5.701 2.813m17.795-2.94h-1.843c-5.414 0-8.063 1.79-8.063 5.453v3.494h7.027v-3.28c0-.597.345-.853 1.151-.853h1.152c.807 0 1.152.256 1.152.852v4.175l-6.853 2.173c-2.88.895-4.09 2.173-4.09 4.814v5.113c0 2.812 2.074 4.218 5.299 4.218h.115c2.42 0 4.492-.98 5.702-2.13v1.874h7.314v-20.45c0-3.664-2.65-5.453-8.063-5.453zm.576 20.875c-.634.256-1.21.427-1.958.427-1.21 0-1.728-.34-1.728-1.236v-2.812c0-.98.23-1.448 1.382-1.874l2.304-.895v6.39m41.18-20.875h-2.075c-5.585 0-8.41 1.875-8.41 5.709v14.826c0 3.835 2.825 5.709 8.41 5.709h2.074c5.586 0 8.408-1.874 8.408-5.71V18.278c0-3.834-2.822-5.709-8.408-5.709zm.804 20.279c0 .64-.403.937-1.266.937h-1.152c-.865 0-1.267-.298-1.267-.937V18.532c0-.638.402-.936 1.267-.936h1.152c.863 0 1.266.298 1.266.936v14.315M83.327 30.29l-2.821-17.383H72.96l5.24 25.563h9.79l5.242-25.563H86.15l-2.822 17.383" fill="#4dc5e1"/></svg>