<svg xmlns="http://www.w3.org/2000/svg" width="128" height="64"><path d="M7.145 32c0 3.023 2.488 5.574 5.637 5.574 1.48 0 2.55-.568 3.81-1.48.661-.473 1.291-1.008 2.425-1.008.945 0 1.7.346 2.236.756.818.63 1.26 1.51 1.26 2.613 0 1.165-.505 1.953-1.04 2.55-1.669 1.89-5.101 3.59-8.943 3.59C5.445 44.596.028 38.74.028 32c0-6.739 5.448-12.596 12.502-12.596 3.81 0 7.148 1.7 8.817 3.59.536.598 1.04 1.386 1.04 2.55 0 1.07-.441 1.985-1.26 2.614a3.62 3.62 0 01-2.236.756c-1.133 0-1.763-.535-2.425-1.007-1.133-.82-2.173-1.48-3.747-1.48-3.086 0-5.574 2.55-5.574 5.573m88.612-7.022v5.826h4.346c1.606 0 2.834-1.26 2.834-2.897 0-1.607-1.26-2.929-2.834-2.929zM67.197 32c0 4 3.148 7.242 7.053 7.242 3.873 0 7.054-3.243 7.054-7.242 0-3.968-3.181-7.243-7.054-7.243-3.905 0-7.054 3.275-7.054 7.243m48.432 11.148c-1.23 0-1.89-.693-1.89-1.827V22.648c0-1.228.724-1.827 1.89-1.827h10.328c1.166 0 1.89.599 1.89 1.827v.503c0 1.229-.724 1.827-1.89 1.827h-7.81v4.975h6.487c1.165 0 1.89.598 1.89 1.827v.535c0 1.196-.725 1.794-1.89 1.794h-6.486v4.881h7.935c1.196 0 1.89.63 1.89 1.827v.535c0 1.197-.694 1.796-1.89 1.796zm-19.87-1.827c0 1.134-.63 1.827-1.858 1.827h-.662c-1.228 0-1.89-.693-1.89-1.827V22.648c0-1.166.662-1.827 1.89-1.827h7.085c3.937 0 7.117 3.243 7.117 7.086 0 2.298-1.354 4.376-3.275 5.604 1.102.945 1.795 2.079 2.236 3.528l1.039 3.589c.157.504.22.882.22 1.102 0 .819-.755 1.418-1.732 1.418h-.944c-.977 0-1.543-.473-1.795-1.355l-1.04-3.684c-.44-1.543-1.794-3.149-4.03-3.149h-2.362zm-46.825-6.77c-.568.819-.977 1.448-2.142 1.448h-.598c-1.165 0-1.575-.63-2.141-1.448l-3.811-5.637V41.32c0 1.134-.662 1.827-1.89 1.827h-.63c-1.259 0-1.888-.693-1.888-1.827V22.648c0-1.166.63-1.827 1.889-1.827h.787c1.07 0 1.543.315 2.11 1.134l5.857 8.596 5.889-8.596c.535-.82 1.007-1.134 2.11-1.134h.787c1.26 0 1.889.661 1.889 1.827V41.32c0 1.134-.63 1.827-1.89 1.827h-.63c-1.259 0-1.888-.693-1.888-1.827V28.914zM62.693 32c0-6.33 5.196-11.494 11.557-11.494 6.361 0 11.557 5.164 11.557 11.494S80.61 43.462 74.25 43.462c-6.361 0-11.557-5.133-11.557-11.462" fill="#ff3033"/></svg>