<svg xmlns="http://www.w3.org/2000/svg" width="128" height="64"><path d="M127.976 16.006v31.988H.024V16.006h127.952z"/><path d="M122.981 33.622s-.025.054-.111.054h-6.9c-.112 0-.166.053-.166.053s-.082.03-.082.165v7.355c0 .111-.054.136-.054.136s-.029.057-.111.057h-5.486a.214.214 0 01-.136-.057s-.029-.025-.029-.16v-7.36c0-.078-.066-.136-.066-.136s-.042-.053-.112-.053h-7.081c-.136 0-.161-.029-.161-.029s-.054-.053-.054-.218v-5.382c0-.066.054-.136.054-.136s.025-.025.082-.025h7.23c.059 0 .059-.029.059-.029s.05-.029.05-.082v-6.444c0-.079.028-.137.028-.137s.058-.028.219-.028h5.378c.108 0 .136.028.136.028s.054.058.054.165v6.47h7.028c.178 0 .231.029.231.029s.083.028.083.189v5.44c0 .054-.083.136-.083.136zM101.57 41.2c-.025.16-.054.214-.054.214s-.029.057-.165.057H90.227c-.322 0-.409-.086-.409-.086s-.053-.107-.028-.35l2.76-19.145c.028-.23.082-.312.082-.312h5.35c.135 0 .177.024.177.024s.029.087 0 .194l-2.075 14.96c-.029.16.054.177.054.177s.053.029.276.029h5.498c.12 0 .161.05.161.05s.029.028.029.164l-.532 4.024zm-14.177.296h-4.941c-.107.054-.194-.054-.194-.054s-.025-.028-.054-.193l-.655-3.052c-.054-.148-.108-.23-.108-.23s-.136-.082-.3-.082h-6.427c-.124 0-.206.082-.206.082s-.108.095-.165.26l-1.46 3.108a.186.186 0 01-.079.107s-.111.03-.165.03h-5.568c-.136.024-.177-.058-.177-.058s-.025-.054.041-.165l9.813-19.536a.35.35 0 00.107-.11s.058-.025.218-.025h6.076c.136 0 .215.082.215.082s.028.029.057.107l4.08 19.618c0 .057-.03.086-.03.086s0 .025-.077.025zm-23.16-.025h-5.102s-.017-.029-.046-.057l-6.863-12.152c-.054-.054-.079-.054-.079-.054s-.057 0-.057.078l-1.704 11.938c-.029.136-.058.16-.058.16s-.053.03-.135.03h-4.913a.22.22 0 01-.136-.054s-.108-.111-.066-.218l2.685-19.317c.029-.112.087-.136.087-.136s.078-.087.16-.087h5.486c.083 0 .136.058.136.058s.054.029.083.107L59.894 32.6c.107.214.19.19.19.19s.082 0 .136-.247l1.559-10.777c0-.078.05-.107.05-.107s.028-.058.11-.058l5.157.058c.111 0 .14.029.14.029s.024.024.024.078l-2.784 19.482c-.028.111-.078.193-.078.193s-.029.03-.165.03zm-21.605-.057l-4.801.028a.348.348 0 01-.19-.057s-.029-.025-.058-.214l-.75-3.11c0-.065-.05-.094-.05-.094h-6.868a.309.309 0 00-.218.094s-.108.083-.19.272l-1.353 2.891c-.054.111-.082.136-.082.136s-.079.054-.149.054h-5.593c-.165.028-.194-.054-.194-.054s-.029-.082.029-.19l9.701-19.457c.041-.11.124-.135.124-.135h6.372c.112 0 .19.082.19.082s.03.029.058.107l4.158 19.51c0 .083-.05.108-.05.108s-.029.029-.086.029zm36.631-14.207s-.029 0-.057.107l-2.698 6.09c-.058.19-.029.218-.029.218s.078.054.136.054l3.997-.029h.054s.029-.025 0-.107l-1.35-6.255c-.024-.078-.053-.078-.053-.078zm-44.831.078s-.025 0-.054.058l-2.701 6.115c-.054.082-.03.136-.03.136s.03.028.166.028l3.968.025a.048.048 0 00.041-.025s.029-.028 0-.11l-1.365-6.17c0-.057-.025-.057-.025-.057zM20.594 40.734c-.03.214-.136.379-.136.379s-.116.111-.29.165c-2.606 1.05-5.489.696-5.489.696-4.677-.503-7.639-3.369-8.596-7.058-1.407-5.53 1.382-9.455 2.062-10.3 1.638-1.964 4.203-3.364 6.728-3.693 3.209-.45 5.585.3 6.566.63 0 0 1.077.337 1.881.885.409.272.466.379.466.379s.025.058-.086.478l-.76 3.961c-.028.165-.127.247-.127.247s-.054.03-.437-.218c-2.426-1.717-5.264-1.511-5.264-1.511-2.157.135-4.681 1.268-5.432 4.126-.668 2.537.03 4.661 1.539 5.926 1.027.901 2.623 1.35 4.302 1.272 1.827-.136 3.287-.86 3.18-.807 0 0 .078-.029.165-.054.38-.19.462-.164.462-.164s.082.082.025.33l-.76 4.331" fill="#fff"/><path d="M609.635-268.452h2.382-2.382"/><path d="M612.017-269.345v.248-.248" fill="#de6a06"/></svg>