<?xml version="1.0" encoding="UTF-8" standalone="no"?>

<svg xmlns:svg="http://www.w3.org/2000/svg" xmlns="http://www.w3.org/2000/svg" version="1.1" width="128" height="64" xmlns:xlink="http://www.w3.org/1999/xlink">
	<g stroke="null">
		<path stroke="null" fill="#ffffff" d="m63.35877,0.49427c17.59713,0.00289 35.1957,-0.00145 52.79282,0.00145c0,17.58411 0.00146,35.16676 0,52.75086c-17.59856,-0.00144 -35.19713,-0.00144 -52.79427,0c0.0029,-17.5841 -0.00145,-35.1682 0.00145,-52.7523z"/>
		<path stroke="null" fill="#010101" d="m10.56853,0.50477c17.59712,0.00289 35.19571,-0.00145 52.79283,0.00145c0,17.5841 0.00146,35.16676 0,52.75086c-17.59856,-0.00145 -35.19715,-0.00145 -52.79428,0c0.00289,-17.5841 -0.00145,-35.1682 0.00145,-52.75231z"/>
		<path stroke="null" fill="#fefefe" d="m32.82619,4.03056c6.48856,-1.65579 13.65594,-0.30684 19.11976,3.56053c2.85278,1.98724 5.24672,4.62145 6.97489,7.63633c-3.71107,2.08711 -7.39462,4.22632 -11.0999,6.32357c-0.66723,0.37921 -1.3475,0.73671 -1.99157,1.1521c-1.02185,-1.75277 -2.66606,-3.15382 -4.5925,-3.80803c-1.29107,-0.48487 -2.70658,-0.53408 -4.06422,-0.36908c-3.93685,0.51671 -7.22962,4.17711 -7.17318,8.1762c-0.19249,3.51277 2.17396,6.92277 5.45514,8.11975c2.44028,0.95671 5.30896,0.6571 7.51186,-0.75553c1.19408,-0.73237 2.15223,-1.79474 2.87447,-2.98593c2.48514,1.48789 5.02961,2.87882 7.53501,4.33487c1.85263,1.04501 3.68645,2.12619 5.54921,3.15527c-3.09448,5.40737 -8.39619,9.52949 -14.4404,11.08252c-0.75118,0.23881 -1.53856,0.32131 -2.30132,0.51092c-1.75711,0.19973 -3.53159,0.38067 -5.30028,0.20987c-5.34515,-0.29816 -10.52673,-2.57343 -14.44766,-6.20778c-4.06856,-3.73856 -6.74474,-8.95778 -7.3758,-14.44765c-0.71211,-5.47829 0.67303,-11.18383 3.71829,-15.78502c3.22185,-4.90225 8.33541,-8.54672 14.04818,-9.90291z"/>
		<path stroke="null" fill="#010101" d="m67.1115,4.2824c5.02673,-0.00579 10.05487,0.01158 15.0816,-0.01013c5.07303,6.25119 10.06068,12.5762 15.11489,18.84331c0.01013,-6.28014 -0.00291,-12.55883 0.0058,-18.83897c5.02526,0.01013 10.05052,0.00868 15.07579,0.00145c0.00725,15.07871 0.00578,30.15886 0.00145,45.23756c-5.03395,-0.00868 -10.0679,0 -15.10185,-0.00433c-4.92252,-6.16581 -9.87253,-12.30989 -14.78924,-18.48004c-0.09697,-0.11144 -0.19685,-0.2171 -0.30107,-0.31986c0.03041,6.26566 0.00581,12.53134 0.0116,18.797c-5.03396,0.00869 -10.06791,0.00145 -15.10187,0.00291c0.0029,-15.07726 -0.00144,-30.15308 0.0029,-45.22889z"/>
		<path stroke="null" fill="#010101" d="m12.31985,60.27248c-0.06658,-1.46907 1.02184,-2.89474 2.44461,-3.24935c1.43868,-0.47184 3.10026,0.25475 3.84276,1.55014c-0.55289,0.385 -1.18105,0.64986 -1.72527,1.04934c-0.26052,-0.29236 -0.54565,-0.62815 -0.9596,-0.68459c-0.67882,-0.13028 -1.42132,0.36618 -1.51974,1.05946c-0.10566,0.34592 0.05789,0.68606 0.15342,1.01317c0.56158,0.76565 1.82803,0.72802 2.31869,-0.09697c0.57316,0.35894 1.17382,0.67158 1.74697,1.03052c-0.62237,1.0233 -1.77882,1.75711 -3.00329,1.64422c-1.77158,0.09696 -3.37382,-1.56316 -3.29856,-3.31593z"/>
		<path stroke="null" fill="#010101" d="m42.86515,56.9609c1.22448,-0.26632 2.56764,0.27644 3.31304,1.27513c1.10289,1.4025 0.81198,3.66764 -0.64553,4.71409c-0.81776,0.6904 -1.9554,0.73959 -2.96421,0.56881c-0.8279,-0.23303 -1.55013,-0.79894 -1.99159,-1.53565c-0.49934,-0.85395 -0.54419,-1.91922 -0.26486,-2.85421c0.38644,-1.10725 1.39236,-1.97566 2.55315,-2.16816z"/>
		<path stroke="null" fill="#010101" d="m49.84727,57.03327c1.74842,-0.57751 3.81961,0.63973 4.17856,2.44171c0.40816,1.49079 -0.39369,3.19 -1.79908,3.83263c-0.66579,0.35608 -1.44592,0.30397 -2.1725,0.24895c-1.11592,-0.19973 -2.0683,-1.05513 -2.46053,-2.11026c-0.71067,-1.76 0.39658,-3.97449 2.25356,-4.41302z"/>
		<path stroke="null" fill="#010101" d="m96.43812,57.03038c1.925,-0.65422 4.21909,0.90171 4.26396,2.94684c0.14907,1.22592 -0.47186,2.46342 -1.50527,3.12197c-0.76711,0.54422 -1.75132,0.5558 -2.64724,0.43855c-1.12751,-0.2663 -2.06252,-1.16802 -2.41278,-2.26513c-0.17368,-0.68895 -0.16933,-1.42132 0.02461,-2.10448c0.37051,-1.01317 1.21869,-1.87145 2.27672,-2.13776z"/>
		<path stroke="null" fill="#010101" d="m108.22116,57.04629c0.72224,-0.00144 1.44302,0 2.16672,-0.00144c0.00289,0.68751 -0.00581,1.375 0.00434,2.06251c0.56013,-0.66436 1.05078,-1.3837 1.5921,-2.06395c0.93066,0.00579 1.86131,0 2.79341,0.00288c-0.86118,1.01896 -1.66158,2.08855 -2.53724,3.09449c0.87711,1.10144 1.68909,2.2521 2.55461,3.36369c-0.935,0.01736 -1.86998,0.00288 -2.80354,0.00868c-0.52395,-0.81198 -1.06672,-1.61093 -1.60515,-2.41276c0,0.80473 0,1.60803 0.0029,2.41276c-0.72368,-0.00145 -1.44591,0 -2.16815,-0.00145c0.00143,-2.15513 0,-4.31028 0,-6.46541z"/>
		<path stroke="null" fill="#010101" d="m20.70012,57.05353c1.08263,-0.01882 2.16527,0.0029 3.24934,-0.01302c0.48631,1.28671 0.82066,2.62698 1.265,3.92817c0.31264,0.83657 0.47763,1.72236 0.81776,2.54881c-0.78158,0.0058 -1.56316,-0.00144 -2.34474,0.0058c-0.09987,-0.37198 -0.16645,-0.75409 -0.32132,-1.10724c-0.66434,0.01736 -1.33013,0.00723 -1.99447,0.00867c-0.13316,0.36185 -0.25764,0.72659 -0.37052,1.09711c-0.76132,-0.0029 -1.52119,-0.0029 -2.28106,0c0.62671,-2.16526 1.38224,-4.2958 1.98001,-6.4683z"/>
		<path stroke="null" fill="#010101" d="m26.60105,57.04774c1.35619,0.00724 2.71237,-0.02314 4.06711,0.01448c1.38513,0.01447 2.48514,1.52118 2.06974,2.84408c-0.15776,0.64262 -0.6354,1.14776 -1.19842,1.47052c0.4617,0.69908 0.8525,1.44157 1.31277,2.14211c-0.80764,0.00435 -1.61382,-0.00434 -2.42001,0.00435c-0.36185,-0.62237 -0.63829,-1.29106 -0.99869,-1.91488c-0.21999,0.00724 -0.44144,0.01303 -0.66144,0.02171c0.00145,0.62961 0,1.25922 0.0029,1.88882c-0.72513,0 -1.45026,0.0029 -2.17395,-0.00145c0.00145,-2.15658 0,-4.31315 0,-6.46975z"/>
		<path stroke="null" fill="#010101" d="m33.35448,58.93366c-0.00146,-0.63105 0,-1.26066 0,-1.88881c2.16381,0.00289 4.32908,0.00144 6.4929,0c0,0.62815 0,1.25776 0,1.88593c-0.67158,-0.00436 -1.3446,-0.00145 -2.01618,-0.00436c0,1.53133 -0.00144,3.06264 0.00145,4.59541c-0.8062,-0.0029 -1.61094,-0.00145 -2.41711,-0.0029c0.00289,-1.52987 0,-3.06118 0.00145,-4.59105c-0.68751,0.00145 -1.375,-0.00288 -2.0625,0.00578z"/>
		<path stroke="null" fill="#010101" d="m54.74806,63.52183c-0.00144,-2.15803 -0.00144,-4.3175 0,-6.47698c0.71357,0.01303 1.42712,-0.01882 2.14066,0.01158c0.78737,0.81777 1.4329,1.77737 2.17251,2.64435c-0.01592,-0.88434 0.00434,-1.76869 -0.0304,-2.65158c0.72223,-0.00579 1.44593,-0.00291 2.16961,-0.00291c0,2.15804 -0.00145,4.31607 0.00145,6.47409c-0.70632,0 -1.41119,-0.00145 -2.11461,0.00145c-0.73672,-0.89302 -1.45026,-1.80487 -2.17251,-2.70803c-0.01737,0.90172 -0.00434,1.80344 -0.00723,2.70514c-0.71935,0.00145 -1.44014,-0.00145 -2.15949,0.0029z"/>
		<path stroke="null" fill="#010101" d="m65.52953,57.04774c0.73381,-0.00289 1.46762,0 2.20142,-0.00289c0.71646,0.88579 1.40975,1.78894 2.14359,2.65738c0.00722,-0.88434 0,-1.77014 0.00288,-2.65448c0.71645,-0.00289 1.43144,-0.00145 2.1479,-0.00145c-0.00145,2.15513 0.00143,4.31173 -0.00145,6.4683c-0.70921,-0.00289 -1.41698,-0.00434 -2.12619,0c-0.74684,-0.85395 -1.42855,-1.76145 -2.13632,-2.64724c-0.02317,0.88145 -0.00724,1.76291 -0.01157,2.6429c-0.73962,0.0029 -1.48067,0.0029 -2.22026,0.00145c0.00144,-2.15513 0,-4.31028 0,-6.46396z"/>
		<path stroke="null" fill="#010101" d="m72.90677,57.04629c1.88593,-0.00144 3.77039,0 5.65633,0c-0.00146,0.62527 0,1.25053 -0.00146,1.87724c-1.16077,-0.00435 -2.32159,-0.00145 -3.48236,-0.00145c-0.00146,0.1375 -0.00146,0.41396 -0.00288,0.55145c0.99143,0.0029 1.98433,0 2.97579,0.00145c-0.00146,0.54132 -0.00146,1.08264 0,1.62541c-0.99146,-0.00145 -1.9829,-0.00145 -2.97291,0c-0.00146,0.21855 -0.00288,0.43709 -0.00146,0.65709c1.1608,0.00145 2.32158,0.00145 3.48383,-0.00145c0.00146,0.58619 0,1.17091 0.00146,1.75711c-1.88593,-0.00145 -3.77185,0 -5.65633,-0.00145c0.00145,-2.15513 0,-4.31028 0,-6.46541z"/>
		<path stroke="null" fill="#010101" d="m79.2723,58.92064c0.00143,-0.62526 0.00143,-1.24908 0.00143,-1.87435c2.16383,-0.00144 4.32619,0.00291 6.48858,-0.00144c0.00145,0.62671 0.00289,1.25341 0,1.88157c-0.67738,-0.00868 -1.35474,-0.00434 -2.0321,-0.00578c0.00289,1.53132 -0.0029,3.06264 0.00289,4.59251c-0.81198,-0.0029 -1.62396,0 -2.43449,-0.00145c0.00145,-1.52987 -0.00144,-3.05974 0.00145,-4.58962c-0.67593,-0.00145 -1.35183,0 -2.02776,-0.00145z"/>
		<path stroke="null" fill="#010101" d="m86.26167,57.04629c0.728,0 1.45603,-0.00144 2.18551,0c0.22578,0.91764 0.30685,1.86277 0.54712,2.77896c0.35026,-0.86119 0.71645,-1.71513 1.04935,-2.58211c0.40959,0.85251 0.69183,1.7629 1.13039,2.60237c0.05934,-0.94947 0.38645,-1.85553 0.47475,-2.8021c0.728,0.00433 1.45605,0.00433 2.18406,0c-0.35461,2.16381 -0.83803,4.30593 -1.19986,6.46685c-0.59343,0.00434 -1.18685,-0.00145 -1.78027,0.00723c-0.30974,-0.56013 -0.51671,-1.16803 -0.80475,-1.73973c-0.24316,0.57895 -0.50511,1.1492 -0.73524,1.73395c-0.59632,0.00145 -1.19409,0 -1.7904,0.00145c-0.46316,-2.14645 -0.81634,-4.31462 -1.26066,-6.46686z"/>
		<path stroke="null" fill="#010101" d="m101.36207,63.51459c0.00143,-2.15802 -0.00868,-4.31606 0.00578,-6.47408c0.99145,0.01157 1.98435,0.0029 2.97725,0.00578c0.57315,0.00291 1.15934,-0.04197 1.71657,0.12592c0.83804,0.32857 1.52556,1.15501 1.49225,2.08712c0.07237,0.87566 -0.48921,1.68184 -1.24184,2.07842c0.38499,0.7425 0.85395,1.43869 1.26209,2.16961c-0.80328,0.01302 -1.60658,-0.00434 -2.40986,0.01158c-0.32422,-0.63539 -0.64265,-1.27224 -0.96685,-1.90763c-0.22435,-0.00435 -0.44724,-0.00579 -0.67014,-0.00868c-0.00288,0.63683 -0.00143,1.27368 -0.00143,1.91053c-0.72225,-0.00145 -1.44305,-0.0029 -2.16383,0.00144z"/>
		<path stroke="null" fill="#fefefe" d="m22.40946,58.83668c0.06224,0.67448 0.37777,1.28817 0.49066,1.95251c-0.37487,0 -0.75118,0 -1.12606,0c0.28079,-0.62961 0.3271,-1.33303 0.63539,-1.95251z"/>
		<path stroke="null" fill="#fefefe" d="m28.7721,58.93077c0.53408,0.01157 1.0725,-0.04343 1.60368,0.03185c0.39369,0.25618 0.34737,0.8713 -0.10421,1.03342c-0.49934,0.03328 -0.99869,0.00578 -1.49803,0.01156c0,-0.36039 -0.00145,-0.71933 -0.00145,-1.07683z"/>
		<path stroke="null" fill="#fefefe" d="m103.52589,58.92064c0.5167,0.01302 1.03922,-0.03474 1.55447,0.0304c0.39224,0.15633 0.33,0.63105 0.18527,0.94513c-0.55869,0.19684 -1.15934,0.0854 -1.7383,0.1129c-0.00143,-0.3633 -0.00288,-0.72513 -0.00143,-1.08843z"/>
		<path stroke="null" fill="#fefefe" d="m42.94041,59.20867c0.6021,-0.38935 1.49948,0.01159 1.67896,0.6875c0.15487,0.37632 0.00289,0.77 -0.1433,1.12026c-0.43131,0.4646 -1.2071,0.66869 -1.71658,0.20987c-0.69039,-0.46894 -0.59776,-1.68618 0.18093,-2.01762z"/>
		<path stroke="null" fill="#fefefe" d="m49.92687,59.40117c0.59341,-0.62816 1.76724,-0.32277 1.97133,0.51526c0.18814,0.3821 -0.02896,0.77579 -0.17659,1.12894c-0.30829,0.24751 -0.65422,0.50803 -1.07685,0.42987c-0.98855,-0.03184 -1.47486,-1.44014 -0.71789,-2.07407z"/>
		<path stroke="null" fill="#fefefe" d="m96.87087,59.17538c0.72369,-0.41396 1.74697,0.25184 1.67606,1.08552c0.08829,0.92199 -1.11015,1.58052 -1.83962,1.01461c-0.78012,-0.44579 -0.68893,-1.7846 0.16356,-2.10013z"/>
		<path stroke="null" fill="#010101" d="m115.76051,61.76328c0.46895,0 0.93788,-0.02316 1.40686,0.00143c0.03037,0.07237 0.09116,0.21566 0.12156,0.28659c-0.20843,0.01157 -0.41538,0.02171 -0.62091,0.03184c0.00144,0.47908 0.00144,0.95816 0.00433,1.43723c-0.09986,0.00579 -0.29814,0.01449 -0.39804,0.01882c-0.00433,-0.4892 -0.00288,-0.97696 -0.00143,-1.46473c-0.17078,-0.00145 -0.34158,-0.0029 -0.51093,-0.0029c0,-0.07671 0,-0.23158 -0.00143,-0.30828z"/>
		<path stroke="null" fill="#010101" d="m117.40907,61.74735c0.17802,0.00145 0.35895,0.00869 0.53986,0.02172c0.12015,0.43132 0.20266,0.87422 0.32423,1.30698c0.09985,-0.44579 0.19539,-0.89014 0.32999,-1.32579c0.16356,0.00288 0.33,0.00578 0.4979,0.01012c-0.00144,0.58908 -0.00144,1.17961 0,1.77013c-0.08396,0 -0.25329,0.00145 -0.33723,0.0029c0.00433,-0.47328 -0.01448,-0.94658 -0.01304,-1.41842c-0.07092,0.48052 -0.18525,0.95238 -0.31264,1.42133c-0.12736,-0.00435 -0.25472,-0.00724 -0.38065,-0.0087c-0.06803,-0.46749 -0.14764,-0.93355 -0.28226,-1.38657c-0.03471,0.46462 -0.02024,0.92921 -0.01736,1.39528c-0.08972,-0.00145 -0.26775,-0.00581 -0.35604,-0.0087c0.00434,-0.59341 0,-1.18684 0.00724,-1.78026z"/>
	</g>
</svg>