<svg xmlns="http://www.w3.org/2000/svg" width="128" height="64"><g stroke="null"><path fill="#fff" d="M63.36.494c17.596.003 35.194 0 52.792.002v52.75H63.357c.003-17.584 0-35.168.002-52.752z"/><path fill="#010101" d="M10.57.505c17.596.003 35.194-.002 52.79 0 0 17.585.003 35.168 0 52.752H10.568c.003-17.584 0-35.168.002-52.752z"/><path fill="#fefefe" d="M32.826 4.03c6.49-1.655 13.656-.306 19.12 3.56 2.853 1.988 5.247 4.623 6.975 7.637-3.71 2.088-7.39 4.227-11.1 6.324-.66.38-1.34.74-1.99 1.16-1.02-1.75-2.66-3.15-4.59-3.81-1.29-.48-2.7-.53-4.06-.37-3.93.52-7.23 4.18-7.17 8.18-.19 3.52 2.178 6.93 5.46 8.12 2.44.96 5.31.66 7.51-.75 1.196-.732 2.154-1.794 2.876-2.986 2.487 1.49 5.03 2.88 7.537 4.336 1.853 1.04 3.686 2.123 5.55 3.152-3.095 5.408-8.397 9.53-14.44 11.083-.752.24-1.54.32-2.303.51-1.76.2-3.53.38-5.3.21-5.348-.296-10.53-2.572-14.45-6.206-4.07-3.74-6.746-8.96-7.377-14.45-.71-5.478.675-11.18 3.72-15.785C22 9.03 27.115 5.385 32.825 4.03z"/><path fill="#010101" d="M67.112 4.282c5.026-.005 10.054.012 15.08-.01 5.074 6.25 10.062 12.576 15.116 18.844.01-6.28-.003-12.56.006-18.84 5.025.01 10.05.01 15.076.002.007 15.08.005 30.16 0 45.238-5.033-.01-10.067 0-15.1-.005-4.923-6.16-9.873-12.31-14.79-18.48-.097-.11-.197-.21-.3-.32.03 6.27.005 12.54.01 18.8-5.033.01-10.067 0-15.1.01.002-15.07-.003-30.15.002-45.23zM12.32 60.272c-.067-1.47 1.022-2.894 2.444-3.25 1.44-.47 3.1.256 3.843 1.55-.553.386-1.18.65-1.725 1.05-.26-.292-.546-.628-.96-.684-.678-.13-1.42.366-1.52 1.06-.105.345.058.686.154 1.013.562.77 1.828.73 2.32-.09.572.36 1.173.67 1.746 1.03-.623 1.03-1.78 1.76-3.004 1.65-1.77.1-3.373-1.56-3.298-3.313zm30.545-3.312c1.225-.265 2.568.277 3.313 1.276 1.103 1.403.812 3.668-.645 4.714-.818.69-1.956.74-2.965.57-.827-.234-1.55-.8-1.99-1.537-.5-.854-.545-1.92-.266-2.854.386-1.11 1.392-1.98 2.553-2.17zm6.982.073c1.75-.577 3.82.64 4.18 2.442.407 1.49-.395 3.19-1.8 3.833-.666.356-1.446.304-2.173.25-1.116-.2-2.068-1.057-2.46-2.112-.71-1.76.396-3.974 2.253-4.413zm46.59-.003c1.926-.654 4.22.902 4.265 2.947.15 1.226-.472 2.464-1.505 3.122-.767.54-1.752.55-2.647.43-1.128-.27-2.063-1.17-2.413-2.27-.174-.69-.17-1.42.024-2.107.38-1.013 1.22-1.87 2.28-2.138zm11.783.016h2.168c.003.686-.006 1.374.004 2.06.56-.663 1.05-1.382 1.592-2.063.93.006 1.862 0 2.794.003-.86 1.02-1.662 2.09-2.538 3.095.878 1.11 1.69 2.26 2.555 3.37-.935.02-1.87.01-2.803.01-.524-.81-1.067-1.61-1.606-2.41 0 .81 0 1.61.003 2.42h-2.17v-6.47zm-87.52.008c1.083-.02 2.165.002 3.25-.013.486 1.29.82 2.63 1.264 3.93.313.84.478 1.72.818 2.55-.78.01-1.563 0-2.345.01-.1-.37-.166-.75-.32-1.1-.665.018-1.33.008-1.995.01-.133.36-.258.726-.37 1.097-.762-.003-1.522-.003-2.282 0 .627-2.165 1.382-4.296 1.98-6.47zm5.9-.006c1.357.007 2.713-.023 4.068.014 1.385.015 2.485 1.52 2.07 2.844-.158.643-.635 1.148-1.2 1.47.463.7.854 1.442 1.314 2.143-.807 0-1.614-.01-2.42 0-.362-.62-.638-1.29-.998-1.92-.22.01-.442.01-.662.02.002.63 0 1.26.003 1.89-.725 0-1.45 0-2.174-.01.01-2.155 0-4.312 0-6.47zm6.754 1.886v-1.89c2.164.004 4.33.002 6.493 0v1.887H37.83c0 1.53 0 3.07.006 4.6H35.42v-4.59c-.69 0-1.38 0-2.07.01zm21.394 4.588v-6.477c.714.013 1.427-.02 2.14.01.788.82 1.434 1.78 2.173 2.646-.01-.88.01-1.76-.03-2.65h2.17c0 2.16 0 4.32.01 6.48-.7 0-1.41 0-2.11.008-.734-.893-1.45-1.805-2.17-2.71-.017.9-.004 1.804-.006 2.706-.72 0-1.44-.003-2.16 0zm10.782-6.474c.733-.003 1.467 0 2.2-.003.717.886 1.41 1.79 2.145 2.657.007-.884 0-1.77.002-2.654.717-.003 1.432-.002 2.148-.002 0 2.155.002 4.312 0 6.47-.71-.004-1.418-.006-2.127 0-.747-.855-1.43-1.763-2.137-2.65-.02.883 0 1.764-.01 2.644-.74.003-1.48.003-2.22.002v-6.464zm7.377-.002h5.656v1.878c-1.162-.005-2.323-.002-3.484-.002l-.01.552c.99.002 1.98 0 2.97 0V61.1h-2.97c-.006.22-.008.437-.006.657 1.16.002 2.32.002 3.484 0v1.756H72.9v-6.467zm6.365 1.874c.002-.625.002-1.248.002-1.874 2.164 0 4.326.003 6.488 0 .002.626.003 1.252 0 1.88-.677-.008-1.354-.004-2.032-.005.003 1.54-.003 3.07.003 4.6H81.3c0-1.53-.01-3.06 0-4.59h-2.03zm6.99-1.874h2.185c.226.918.307 1.863.547 2.78.35-.862.717-1.716 1.05-2.583.41.853.69 1.763 1.13 2.603.06-.95.386-1.856.475-2.803.72.005 1.45.005 2.18 0-.36 2.164-.84 4.306-1.2 6.467-.6.005-1.19 0-1.78.007-.31-.56-.52-1.168-.81-1.74-.25.58-.51 1.15-.74 1.735h-1.79c-.466-2.145-.82-4.313-1.26-6.466zm15.1 6.47c.002-2.16-.01-4.317.006-6.475.99.02 1.984.01 2.977.01.573.01 1.16-.04 1.717.13.838.33 1.525 1.16 1.492 2.09.072.88-.49 1.68-1.242 2.08.385.74.854 1.44 1.262 2.17-.803.01-1.606-.002-2.41.01-.324-.63-.642-1.27-.967-1.91h-.67c-.003.635 0 1.272 0 1.91-.723 0-1.444-.004-2.165 0z"/><path fill="#fefefe" d="M22.41 58.837c.062.674.377 1.288.49 1.952h-1.126c.28-.63.327-1.34.635-1.96zm6.362.093c.534.012 1.073-.043 1.604.033.393.256.347.87-.104 1.033-.5.033-1 .006-1.498.012l-.002-1.077zm74.754-.01c.517.014 1.04-.034 1.554.03.393.157.33.632.186.946-.56.197-1.16.086-1.74.113 0-.37-.002-.73 0-1.09zm-60.586.29c.603-.39 1.5.01 1.68.686.154.376.002.77-.144 1.12-.43.465-1.207.67-1.717.21-.69-.47-.6-1.686.18-2.017zm6.987.19c.593-.627 1.767-.322 1.97.516.19.383-.028.776-.175 1.13-.31.247-.655.507-1.077.43-.99-.033-1.475-1.44-.718-2.075zm46.943-.225c.725-.414 1.748.252 1.677 1.086.088.93-1.11 1.58-1.84 1.02-.78-.44-.69-1.78.164-2.1z"/><path fill="#010101" d="M115.76 61.763c.47 0 .938-.023 1.407.002l.122.286c-.21.02-.42.03-.63.04v1.44l-.4.02c-.006-.49-.005-.972 0-1.46l-.514-.002v-.31zm1.65-.016c.177.002.358.01.54.022.12.43.202.87.323 1.3.1-.45.196-.89.33-1.33l.498.01v1.77h-.33c.01-.477-.01-.95-.01-1.42-.07.48-.18.95-.31 1.42l-.38-.01c-.07-.467-.143-.933-.28-1.386-.03.466-.02.93-.014 1.396-.09 0-.267-.004-.355-.007.004-.596 0-1.19.007-1.78z"/></g></svg>