<svg xmlns="http://www.w3.org/2000/svg" width="128" height="64"><g stroke="null"><path fill="#88c543" d="M114.986 35.17c-.187-3.58-2.2-6.713-5.054-8.51.265-.258 1.275-1.233 1.275-1.233l.04-.04c1.92-1.94 3.03-4.73 3.03-7.555 0-.184-.006-.368-.014-.553-.365-7.03-7.284-11.78-16.45-11.3-5.457.28-10.38 2.56-13.857 6.41-.357.4-.696.82-1.023 1.25h-1.75V1.76H64.207s-4.786 4.81-5.363 5.388V.16L33.41.155l-.004 5.265S33.4 7.778 33.4 9.838H21.603C16.86 9.838 13 13.698 13 18.44v21.754c0 4.745 3.86 8.603 8.603 8.603l16.05.003v15.045H89.45V46.472c4.473 1.05 7.475 1.52 10.648 1.358C110.465 47.292 115 41.458 115 35.73c0-.187-.006-.373-.014-.56"/><path d="M109.724 35.442c-.152-2.91-2.69-5.255-5.466-5.11-1.06.053-1.98.48-2.766.83-.737.322-1.324.57-2.085.61-.814.042-1.402-.11-1.924-.394l10.018-9.696c1.07-1.077 1.58-2.685 1.5-4.13-.24-4.66-5.89-6.57-10.91-6.31-4.14.213-7.69 1.88-10.21 4.685-.81.896-1.49 1.91-2.05 2.994h-9.91V7.04H66.4l-4.16 4.18v4.726c-.335-.66-1.585-1.6-4.61-1.976-1.726-.217-3.61.067-4.054.246V5.43h-14.9l-.007 7.01h2.03l-.01 2.67H21.6c-1.84 0-3.334 1.49-3.334 3.333v21.753c0 1.84 1.494 3.332 3.334 3.332l21.23.003v-3.29h13.854l.035.01c2.48 0 4.25-.47 5.5-1.17v3.65l23.27.008 3.68-3.68c2.71 2.6 6.54 3.74 10.646 3.525 6.23-.323 10.104-3.095 9.896-7.125"/><path fill="#fff" d="M51.406 30.7c0 .806.76 1.207 1.49 1.207.76 0 1.533-.4 1.533-1.208v-8.54c0-.71-.78-1.07-1.54-1.07-.73 0-1.49.35-1.49 1.06v8.54zM40.822 7.586h10.584v10.268c.68-1.172 2.333-1.76 4.964-1.76 3.912 0 5.86 1.673 5.86 5.02v13.193c0 2.517-1.948 3.776-5.86 3.776-2.63 0-4.285-.493-4.964-1.467v1.467h-8.552V10.278h-2.032v-2.69zm36.49 22.327h-6.21v4.61h6.21v-4.61zm-6.218-17.8v11.753h12.942v16.696H64.39l.007-28.453h6.697zm36.474 23.422c-.08-1.543-1.3-3.148-3.13-3.054-.676.04-1.318.32-2.003.63-.806.36-1.72.76-2.86.82-4.335.23-6.067-3.32-6.243-6.72-.12-2.24.476-4.252 1.62-5.53.876-.962 2.023-1.49 3.415-1.563 2.044-.105 3.048.244 3.857.526.555.19 1.08.375 1.757.34 2.24-.117 2.95-1.85 2.88-3.297-.19-3.726-5.7-4.427-8.59-4.28-3.57.187-6.6 1.546-8.75 3.934-2.33 2.582-3.5 6.22-3.29 10.243.21 3.996 1.74 7.47 4.31 9.786 2.434 2.195 5.63 3.256 9.247 3.07 3.88-.204 7.97-1.59 7.8-4.884M20.428 40.216c0 .64.52 1.16 1.162 1.16l19.103-.002v-8.887h-7.407v3.61H27.84v-13.63h5.45v3.605l7.403-.005v-8.78H21.59c-.64 0-1.16.52-1.16 1.16l-.002 21.766z"/><path d="M47.724 53.27h1.442c.672 0 1.156.153 1.465.46.18.185.27.418.27.7 0 .08-.01.162-.03.243-.05.19-.132.347-.262.474-.28.282-.74.422-1.372.422h-1.5v-2.3zm0-3.494h.988c.538 0 .925.11 1.158.333.18.19.26.42.25.7.01.3-.085.55-.282.75-.26.26-.742.38-1.446.38h-.668v-2.17zm-1.51-1.348v8.522h3.166c.317 0 .617-.03.9-.09.657-.13 1.16-.373 1.512-.728.433-.438.65-.947.65-1.526 0-.59-.198-1.09-.598-1.492-.363-.365-.78-.604-1.25-.71.105-.045.294-.175.565-.39.34-.343.51-.803.51-1.385 0-.56-.2-1.03-.6-1.42-.51-.53-1.22-.79-2.13-.79h-2.73zm-3.28-1.624H55.41V58.57H42.934V46.805zm19.174 6.466h1.443c.68 0 1.16.153 1.47.46.18.185.27.418.27.7 0 .08-.01.162-.032.243-.046.19-.135.347-.265.474-.284.282-.74.422-1.375.422h-1.5v-2.3zm0-3.494h.986c.54 0 .928.11 1.164.333.173.19.257.42.246.7.01.3-.084.55-.28.75-.26.26-.743.38-1.447.38h-.67v-2.17zm-1.51-1.348v8.522h3.167c.317 0 .617-.03.9-.09.654-.13 1.16-.373 1.512-.728.433-.438.65-.947.65-1.526 0-.59-.198-1.09-.6-1.492-.36-.365-.778-.604-1.25-.71.106-.045.296-.175.567-.39.34-.343.51-.803.51-1.385 0-.56-.2-1.03-.597-1.42-.506-.53-1.215-.79-2.13-.79h-2.73zm-3.278-1.624h12.474V58.57H57.32V46.805zm22.24 1.638c-.4-.07-.752-.105-1.055-.105-1.527 0-2.753.465-3.68 1.394-.835.84-1.252 1.86-1.252 3.06 0 1.11.417 2.07 1.25 2.9.894.91 2.08 1.36 3.56 1.36 1.01 0 1.798-.12 2.36-.37.152-.044.47-.182.954-.41v-1.62c-1.07.693-2.117 1.04-3.15 1.04-1.1 0-1.96-.31-2.584-.934-.55-.55-.825-1.24-.825-2.06 0-.8.268-1.465.806-2.006.658-.66 1.495-.988 2.515-.988.65 0 1.27.11 1.86.334.41.156.83.353 1.28.6v-1.57c-.36-.15-1.04-.357-2.05-.614m-7.85-1.64h12.48v11.77H71.7V46.81z"/></g></svg>