<?xml version="1.0" encoding="UTF-8" standalone="no"?>

<svg xmlns:svg="http://www.w3.org/2000/svg" xmlns="http://www.w3.org/2000/svg" version="1.1" width="128" height="64" xmlns:xlink="http://www.w3.org/1999/xlink">
	<g stroke="null">
		<g stroke="null" transform="matrix(0.4788706302642822,0,0,-0.4788706302642822,244.30303588811145,-33.42738849935204) "/>
		<g stroke="null" transform="matrix(2.7069786704866408,0,0,-2.7069786704866408,-922.7052934429385,798.3577464821991) ">
			<g stroke="null">
				<path fill="#88c543" fill-rule="nonzero" d="m383.33929,281.93347c-0.06897,1.32199 -0.81299,2.48001 -1.86697,3.14398c0.09799,0.095 0.47098,0.45502 0.47098,0.45502l0.01501,0.01498c0.70898,0.71701 1.11899,1.74701 1.11899,2.79102c0,0.06799 -0.00198,0.13599 -0.005,0.20401c-0.13498,2.59399 -2.69098,4.35001 -6.077,4.17398c-2.01599,-0.104 -3.83398,-0.94598 -5.11899,-2.37c-0.13199,-0.14697 -0.25699,-0.30399 -0.37799,-0.46399l-0.64603,0l0,4.392l-6.27197,0c0,0 -1.76801,-1.776 -1.98102,-1.99002l0,2.58301l-9.39499,0.00101l-0.00201,-1.94498c0,0 -0.00198,-0.87103 -0.00198,-1.63202l-4.358,0c-1.75201,0 -3.17801,-1.42599 -3.17801,-3.17801l0,-8.03601c0,-1.75296 1.42599,-3.17798 3.17801,-3.17798l5.92899,-0.00101l0,-5.55798l19.13501,0l0,6.41797c1.65201,-0.388 2.76099,-0.56198 3.93298,-0.50198c3.83002,0.19901 5.505,2.354 5.505,4.47c0,0.069 -0.00198,0.138 -0.005,0.207"/>
			</g>
			<g stroke="null">
				<path fill="#000000" fill-rule="nonzero" d="m381.39532,281.83307c-0.05603,1.07501 -0.99402,1.94101 -2.01901,1.888c-0.392,-0.01999 -0.73199,-0.17798 -1.022,-0.30701c-0.272,-0.11899 -0.48901,-0.211 -0.76999,-0.22498c-0.30103,-0.01602 -0.51801,0.03998 -0.711,0.14499l3.70099,3.582c0.39301,0.39801 0.58099,0.992 0.55399,1.526c-0.09,1.72101 -2.17899,2.427 -4.03198,2.33099c-1.52899,-0.07898 -2.841,-0.69501 -3.77402,-1.73099c-0.29898,-0.33099 -0.55197,-0.70502 -0.75897,-1.10602l-3.65802,0l0,4.392l-3.51599,0l-1.53702,-1.54398l0,-1.746c-0.12299,0.24298 -0.58499,0.591 -1.70297,0.72998c-0.63702,0.08002 -1.33301,-0.02499 -1.49701,-0.091l0,3.24402l-5.504,0l-0.00299,-2.59l0.75,0l-0.00101,-0.98602l-7.052,0c-0.67999,0 -1.23199,-0.55099 -1.23199,-1.23199l0,-8.03598c0,-0.68002 0.552,-1.23102 1.23199,-1.23102l7.84299,-0.00101l0,1.21503l4.284,0l0,0.00098l0.83301,0c0.004,0 0.008,-0.00098 0.013,-0.00098c0.918,0 1.57001,0.17398 2.034,0.43298l0,-1.34799l8.59799,-0.00101l1.35901,1.35901c1.00201,-0.961 2.41602,-1.38101 3.93301,-1.302c2.30099,0.11899 3.733,1.14301 3.65601,2.63199"/>
			</g>
			<g stroke="null">
				<path fill="#ffffff" fill-rule="nonzero" d="m359.85181,283.58499c0,-0.298 0.28098,-0.44601 0.55099,-0.44601c0.28,0 0.56598,0.14801 0.56598,0.44601l0,3.15497c0,0.26202 -0.28598,0.39304 -0.56598,0.39304c-0.27002,0 -0.55099,-0.13101 -0.55099,-0.39304l0,-3.15497zm-3.91,8.53796l3.91,0l0,-3.79297c0.25098,0.43298 0.862,0.64999 1.83398,0.64999c1.44501,0 2.16501,-0.61801 2.16501,-1.854l0,-4.87399c0,-0.92999 -0.72,-1.39502 -2.16501,-1.39502c-0.97198,0 -1.58301,0.18201 -1.83398,0.54202l0,-0.54202l-3.15903,0l0,10.27203l-0.75098,0l0,0.99396z"/>
			</g>
			<path fill="#ffffff" fill-rule="nonzero" d="m369.42203,283.87537l-2.29401,0l0,-1.70297l2.29401,0l0,1.70297zm-2.29703,6.57602l0,-4.34201l4.78101,0l0,-6.168l-7.258,0l0.00299,10.51099l2.474,-0.00098z"/>
			<g stroke="null">
				<path fill="#ffffff" fill-rule="nonzero" d="m380.59888,281.79868c-0.02899,0.57001 -0.47998,1.16299 -1.15598,1.12799c-0.25,-0.013 -0.487,-0.11798 -0.74002,-0.22998c-0.29797,-0.13202 -0.63498,-0.28101 -1.05698,-0.30301c-1.60101,-0.08401 -2.241,1.229 -2.306,2.48401c-0.04401,0.82797 0.17599,1.57297 0.599,2.04398c0.323,0.35699 0.74698,0.552 1.26099,0.57901c0.755,0.039 1.12601,-0.09 1.42499,-0.194c0.20502,-0.07098 0.39902,-0.13901 0.64902,-0.12598c0.827,0.04297 1.08798,0.68298 1.061,1.21799c-0.07202,1.37601 -2.10699,1.63501 -3.17401,1.57999c-1.32098,-0.06897 -2.44,-0.57098 -3.23401,-1.453c-0.862,-0.95398 -1.29199,-2.29797 -1.21597,-3.784c0.077,-1.47498 0.642,-2.758 1.59097,-3.61401c0.89902,-0.80997 2.08002,-1.20197 3.41602,-1.13297c1.43399,0.07498 2.944,0.58701 2.88098,1.80399"/>
			</g>
			<g stroke="null">
				<path fill="#ffffff" fill-rule="nonzero" d="m348.4082,280.06946c0,-0.23697 0.19199,-0.42899 0.42899,-0.42899l7.05701,0.00101l0,3.28299l-2.73599,0l0,-1.33298l-2.01202,0l0,5.03397l2.013,0l0,-1.33197l2.73502,0.00198l0,3.24301l-7.05701,0c-0.23599,0 -0.42801,-0.19202 -0.42801,-0.42801l-0.00098,-8.04102z"/>
			</g>
			<g stroke="null">
				<path fill="#000000" fill-rule="nonzero" d="m358.49152,275.24658l0.53299,0c0.24799,0 0.427,-0.056 0.54099,-0.16901c0.064,-0.069 0.09702,-0.155 0.09702,-0.259c0,-0.03 -0.005,-0.06 -0.013,-0.09c-0.01801,-0.07001 -0.05002,-0.12799 -0.09799,-0.17499c-0.104,-0.104 -0.27301,-0.15601 -0.50702,-0.15601l-0.55298,0l0,0.849zm0,1.29099l0.36499,0c0.19901,0 0.34198,-0.04099 0.42801,-0.12299c0.06598,-0.07001 0.09598,-0.15601 0.09198,-0.26001c0.004,-0.112 -0.03101,-0.20499 -0.104,-0.27899c-0.09598,-0.095 -0.27399,-0.142 -0.534,-0.142l-0.24698,0l0,0.80399zm-0.55801,0.49802l0,-3.14801l1.17001,0c0.11697,0 0.228,0.01099 0.33197,0.03299c0.24301,0.048 0.42902,0.138 0.55902,0.26901c0.16,0.16199 0.23999,0.35001 0.23999,0.564c0,0.21802 -0.073,0.40201 -0.22101,0.55099c-0.134,0.13501 -0.28799,0.22302 -0.46198,0.26202c0.039,0.017 0.10898,0.06497 0.20898,0.14398c0.12601,0.12701 0.189,0.297 0.189,0.51199c0,0.20502 -0.07401,0.38 -0.22098,0.52402c-0.18701,0.19299 -0.44901,0.289 -0.78702,0.289l-1.008,0zm-1.211,0.59998l4.608,0l0,-4.34698l-4.608,0l0,4.34698z"/>
			</g>
			<g stroke="null">
				<path fill="#000000" fill-rule="nonzero" d="m363.80551,275.24658l0.53299,0c0.24799,0 0.42801,-0.056 0.54001,-0.16901c0.06497,-0.069 0.09799,-0.155 0.09799,-0.259c0,-0.03 -0.005,-0.06 -0.013,-0.09c-0.017,-0.07001 -0.05002,-0.12799 -0.09799,-0.17499c-0.104,-0.104 -0.27301,-0.15601 -0.50702,-0.15601l-0.55298,0l0,0.849zm0,1.29099l0.36398,0c0.20001,0 0.34299,-0.04099 0.42999,-0.12299c0.064,-0.07001 0.095,-0.15601 0.091,-0.26001c0.004,-0.112 -0.03101,-0.20499 -0.104,-0.27899c-0.09598,-0.095 -0.27399,-0.142 -0.534,-0.142l-0.24698,0l0,0.80399zm-0.55801,0.49802l0,-3.14801l1.17001,0c0.11697,0 0.228,0.01099 0.33197,0.03299c0.242,0.048 0.42902,0.138 0.55902,0.26901c0.16,0.16199 0.23999,0.35001 0.23999,0.564c0,0.21802 -0.073,0.40201 -0.22101,0.55099c-0.134,0.13501 -0.28799,0.22302 -0.46198,0.26202c0.039,0.017 0.10898,0.06497 0.20898,0.14398c0.12601,0.12701 0.189,0.297 0.189,0.51199c0,0.20502 -0.07401,0.38 -0.22098,0.52402c-0.18701,0.19299 -0.44901,0.289 -0.78702,0.289l-1.008,0zm-1.211,0.59998l4.608,0l0,-4.34698l-4.608,0l0,4.34698z"/>
			</g>
			<g stroke="null">
				<path fill="#000000" fill-rule="nonzero" d="m370.25272,277.03049c-0.14801,0.02597 -0.27802,0.03897 -0.39001,0.03897c-0.564,0 -1.017,-0.17197 -1.35999,-0.51498c-0.30801,-0.30902 -0.46201,-0.685 -0.46201,-1.129c0,-0.40799 0.15399,-0.76498 0.46201,-1.069c0.32999,-0.33499 0.76797,-0.50201 1.31497,-0.50201c0.37302,0 0.664,0.04602 0.87201,0.13803c0.056,0.017 0.173,0.06796 0.35199,0.15198l0,0.599c-0.39499,-0.25601 -0.78198,-0.384 -1.16299,-0.384c-0.40698,0 -0.72501,0.11499 -0.95499,0.345c-0.203,0.203 -0.30499,0.457 -0.30499,0.76099c0,0.29501 0.099,0.54102 0.29797,0.741c0.24301,0.24304 0.552,0.36401 0.92902,0.36401c0.242,0 0.47101,-0.04102 0.68799,-0.12299c0.151,-0.05701 0.30902,-0.13 0.474,-0.22101l0,0.577c-0.13098,0.056 -0.38199,0.13199 -0.75497,0.22702m-2.90201,0.60498l4.608,0l0,-4.34702l-4.608,0l0,4.34702z"/>
			</g>
		</g>
	</g>
</svg>