<svg xmlns:svg="http://www.w3.org/2000/svg" xmlns="http://www.w3.org/2000/svg" width="128" height="64"><svg width="300" height="55"><path d="M31.144 43.286c5.968 0 10.802-5.053 10.802-11.285 0-6.23-4.834-11.286-10.802-11.286-5.967 0-10.8 5.055-10.8 11.286 0 6.232 4.833 11.285 10.8 11.285m-12.472-.002C12.706 43.284 7.87 38.234 7.87 32c0-6.23 4.836-11.288 10.802-11.288v22.57m24.945 12.453l.002-10.707 10.253.005c.002 5.92-4.586 10.702-10.255 10.702M18.672 8.258v10.721l-10.265.003c0-5.922 4.596-10.724 10.265-10.724m-.002 47.477l.002-10.707-10.263.005c0 5.92 4.594 10.702 10.26 10.702m37.428-14.032l-.004-19.397c3.162 1.97 5.28 5.57 5.28 9.695 0 4.122-2.116 7.73-5.276 9.702M21.862 5.937l18.567.005c-1.885-3.304-5.335-5.52-9.285-5.52-3.943 0-7.4 2.213-9.282 5.515M40.29 58.066l-18.567-.002c1.886 3.302 5.335 5.514 9.284 5.514 3.945 0 7.397-2.212 9.283-5.512m1.654-13.033c0 6.232-4.832 11.284-10.8 11.284-5.967 0-10.803-5.053-10.803-11.284h21.603m1.677-1.749c5.965 0 10.802-5.05 10.802-11.283 0-6.23-4.837-11.288-10.802-11.288v22.57m-1.677-24.289c0-6.235-4.832-11.289-10.8-11.289-5.967 0-10.803 5.054-10.803 11.289h21.603M6.196 41.703L6.2 22.306C3.036 24.276.919 27.876.919 32c0 4.122 2.115 7.73 5.277 9.702m47.678-22.717L43.62 18.98l-.002-10.715c5.668 0 10.256 4.797 10.256 10.72" fill="#df0031"/><path d="M84.626 44.18c-1.695.417-3.52.763-5.281.763-7.504 0-12.718-3.92-12.718-12.103 0-8.294 4.848-12.941 12.718-12.941 1.53 0 3.553.31 5.248 1.004l-.334 4.095c-1.757-1.041-3.354-1.285-5.012-1.285-4.782 0-7.771 3.814-7.771 8.776 0 4.927 2.924 8.64 7.87 8.64 1.83 0 3.985-.416 5.083-1.007l.197 4.058m8.058-14.082h1.892c1.959 0 4.383-.45 4.383-2.95 0-2.81-2.357-3.018-4.483-3.018h-1.792v5.968m0 10.616h2.19c2.16 0 4.783-.555 4.783-3.366 0-3.158-2.457-3.644-4.783-3.644h-2.19zm-4.649-20.398h8.103c2.987 0 7.47.901 7.47 6.208 0 2.88-1.86 4.891-4.616 5.412v.066c3.155.314 5.313 2.537 5.313 5.517 0 6.106-5.246 7.008-8.168 7.008h-8.103v-24.21zm37.147 23.864c-1.694.417-3.518.763-5.28.763-7.505 0-12.718-3.92-12.718-12.103 0-8.294 4.85-12.941 12.719-12.941 1.526 0 3.553.31 5.248 1.004l-.335 4.095c-1.758-1.041-3.352-1.285-5.012-1.285-4.78 0-7.77 3.814-7.77 8.776 0 4.927 2.923 8.64 7.87 8.64 1.827 0 3.987-.416 5.08-1.007l.198 4.058"/></svg></svg>