<svg xmlns="http://www.w3.org/2000/svg" width="128" height="64"><g stroke="null"><path d="M76.888 44.072h11.504V54.9H76.888V44.07zm7.247 1.506c-.05-.01-.1-.017-.154-.027h-.06c-.09-.012-.18-.022-.262-.032-.06-.005-.123-.01-.184-.012-.11-.007-.216-.01-.32-.01h-.122c-.084.003-.17.008-.254.013-.045.002-.092.007-.14.01l-.2.02-.056.008-.063.01-.08.012c-.033.002-.067.01-.1.015-.044.008-.09.018-.135.028-.27.056-.524.135-.757.225-.12.046-.236.095-.346.15-.09.043-.18.09-.26.14-.08.05-.163.095-.24.146-.04.03-.087.06-.13.09-.034.023-.07.05-.105.077-.07.06-.142.115-.208.17-.063.057-.124.11-.178.167-.05.05-.097.098-.143.147-.048.053-.095.107-.136.16l-.14.18-.096.145c-.022.03-.042.062-.062.096-.12.196-.224.405-.31.63-.108.278-.187.58-.228.9-.015.1-.025.202-.032.305-.003.08-.008.163-.008.247 0 .06 0 .122.005.18.007.065.01.126.02.188l.002.045c.01.073.025.145.04.216l.014.084c.014.06.027.118.044.174.02.077.04.15.063.22.03.088.064.174.098.257.058.136.12.26.185.38.038.075.077.14.12.207.03.055.065.104.1.153.044.066.09.127.137.19l.147.175c.06.07.123.134.182.193l.03.032c.05.05.103.1.164.15.04.038.085.074.132.11.044.036.09.07.14.107.056.04.118.083.184.125.067.046.14.09.215.134.153.084.32.167.506.24.07.028.14.055.213.08.073.024.147.048.225.07.13.04.27.072.414.1.117.023.24.043.367.057.128.016.258.028.393.036.066 0 .132 0 .2.003h.094c.24 0 .464-.01.67-.026l.042-.003c.084-.008.163-.017.24-.027.12-.014.23-.03.34-.05l.196-.038c.1-.02.193-.045.284-.07l.19-.053.215-.07.064-.023c.033-.013.077-.028.13-.05.067-.027.15-.058.246-.1l.18-.08.175-.082c.025-.01.05-.024.076-.04V51.3l-.05.032-.102.06c-.1.063-.197.12-.295.173-.11.056-.215.11-.318.16-.185.088-.36.16-.53.22-.32.116-.615.19-.877.236l-.09.02-.208.03c-.103.01-.2.016-.285.02-.055 0-.107.003-.156.003-.106 0-.214-.002-.32-.012-.13-.006-.26-.02-.395-.043-.213-.036-.427-.09-.638-.166-.03-.01-.06-.024-.093-.034l-.06-.026c-.035-.014-.07-.03-.1-.046-.07-.033-.148-.07-.216-.11-.034-.02-.07-.04-.105-.063l-.103-.07c-.046-.03-.088-.056-.13-.09-.04-.03-.08-.065-.115-.094l-.05-.044-.023-.024-.016-.01-.017-.018c-.066-.064-.128-.13-.18-.197-.034-.04-.063-.075-.09-.112l-.076-.11-.066-.103c-.03-.05-.06-.105-.086-.156l-.06-.13c-.03-.076-.056-.152-.08-.22-.017-.057-.032-.114-.044-.165-.04-.154-.06-.294-.07-.414-.006-.05-.01-.09-.01-.13-.004-.06-.004-.112-.004-.15 0-.03 0-.06.004-.094 0-.085.01-.19.026-.313.01-.073.024-.15.044-.235.014-.057.028-.11.045-.17l.058-.16.044-.11c.02-.05.047-.1.074-.15l.06-.115c.05-.082.107-.166.168-.25l.07-.087c.03-.04.067-.076.1-.113l.05-.057c.275-.272.58-.473.89-.618.05-.022.1-.042.15-.06.05-.02.1-.038.15-.055.057-.02.11-.036.167-.05.05-.015.102-.028.156-.04.05-.012.102-.022.154-.032.056-.01.115-.02.17-.026l.17-.013c.11-.01.214-.014.317-.014h.103c.075.002.15.004.223.01.048 0 .1.006.148.01.09.01.183.02.27.033.076.012.15.025.22.04.104.02.2.043.29.066.054.012.105.03.152.042l.18.055.126.045c.072.025.144.055.212.08.096.04.184.08.27.12.07.03.14.066.204.095l.15.076.204.11.15.082v-1.45s-.09-.038-.247-.097l-.243-.087c-.052-.02-.106-.04-.165-.06-.05-.015-.094-.03-.143-.047-.058-.017-.114-.037-.173-.056-.04-.013-.085-.025-.13-.037l-.04-.012-.13-.034c-.05-.014-.106-.026-.16-.04l-.106-.024c-.055-.013-.114-.025-.173-.037-.06-.01-.12-.026-.18-.036M68.05 50.04v2.13h1.38s.03 0 .076-.003c.046 0 .113-.002.19-.01.15-.014.35-.04.54-.108.173-.057.342-.145.472-.275.05-.05.09-.1.123-.153.11-.17.138-.34.143-.44v-.114c0-.042-.008-.123-.03-.207-.028-.103-.077-.22-.16-.326-.02-.02-.036-.042-.056-.06-.036-.04-.078-.075-.122-.107-.076-.056-.162-.103-.258-.145-.122-.052-.262-.092-.415-.12-.078-.016-.16-.028-.245-.036l-.16-.01c-.046-.003-.097-.006-.147-.006h-1.335m0-3.236v2.018h.67s.044 0 .103-.003l.15-.003c.136-.012.327-.032.52-.083.035-.01.072-.022.11-.037.15-.05.29-.13.4-.238.09-.09.148-.186.188-.28.043-.117.06-.227.07-.306.003-.07.003-.113.003-.113s0-.033 0-.085c-.006-.09-.026-.23-.095-.37-.034-.067-.078-.13-.14-.19-.075-.076-.166-.135-.264-.176-.19-.085-.405-.117-.587-.13-.08-.006-.153-.006-.21-.006h-.924zm-4.413-2.734h11.504V54.9h-11.5V44.07zm3.017 1.516v7.797h2.936s1.43.04 2.22-.75c.646-.644.6-1.39.6-1.39s.046-.776-.55-1.372c-.508-.507-1.156-.642-1.156-.642s.294-.138.52-.36c.105-.106.48-.445.48-1.267 0-.826-.55-1.302-.55-1.302s-.605-.714-1.967-.714h-2.53zM77.67 16.11c.024-.37.032-.648.032-.648.032-.69.064-1.41.125-1.926.12-1.175.57-3 .57-3 .262-1.11.615-1.95.924-2.54.23-.43.425-.723.543-.88.983-1.58 2.595-2.6 4.668-2.6 3.107 0 5.573 2.455 5.597 5.51.037.897-.176 1.85-.72 2.84-1.137 2.06-1.5 2.46-1.56 2.55-.784 1.256-1.164 1.83-1.4 2.27-.15.272-.213.453-.44 1.155l-.038.12.12-.025c2.152-.446 6.765-.1 7.94 4.176.09.305.204.825.282 1.37l.014.25c.178 1.334.035 3.42-.774 5.65-.085.184-.436.94-.85 1.688-.38.685-.984 1.69-1.664 2.326-.005.002-.265.326-.8.787-.545.47-1.347 1.053-2.37 1.51-4.817 2.174-11.65.645-13.495-4.974-.895-2.296-.914-4.433-.71-5.984.17-1.306.498-2.233.628-2.56.184-.593.512-1.234.728-1.64.267-.49.515-.884.515-.884.58-.89 1.083-1.576 1.456-2.155.34-.524.453-.794.5-1.003.093-.4.144-.95.174-1.374"/><path fill-rule="evenodd" d="M27.392 34.234c-.257 0-1.75 3.627-1.75 3.627s2.464 2.34 2.594 2.6c.13.258 2.913-3.18 2.913-3.825s-3.5-2.395-3.76-2.395m92.88 19.83c-3.334 3.574-8.73 3.336-12.084.21-2.28-2.13-2.558-5.204-.3-7.626.382-.41.98-.897 1.72-1.157.2-.07.424-.126.662-.155l.08-.01-.02-.08c-.46-2.162.947-4.545 1.777-5.433 3.34-3.58 8.75-3.32 12.086-.21 2.304 2.15 2.55 5.207.3 7.622-.383.41-.98.9-1.72 1.155-.196.07-.42.125-.655.155l-.08.01.017.08c.47 2.17-.956 4.55-1.78 5.433"/><path fill="#ffe400" fill-rule="evenodd" d="M118.98 52.857c1.093-1.17 2.084-3.663.695-4.96-.915-.852-1.806-1.142-2.68-1.96-.733-.684-.735-1.633-.173-2.237.527-.566 1.585-1.224 2.28-.576.95.888 1.025 2.53 1.957 3.398.67.633 1.622.05 2.14-.498 1.55-1.664 1.41-3.604-.22-5.123-2.707-2.52-6.99-2.65-9.58.13-1.094 1.17-2.068 3.68-.696 4.958.93.87 2.26 1.124 2.894 2.208.51.88.41 1.35-.025 2.008-.44.67-1.603 1.21-2.297.56-.935-.87-1.01-2.512-1.96-3.397-.677-.632-1.63-.05-2.14.497-1.55 1.662-1.396 3.62.214 5.122 2.722 2.54 6.99 2.657 9.58-.123"/><path fill-rule="evenodd" d="M102.017 17.828c1.298.3 2.633 1.18 3.288 2.227 1.516 2.427-1.975 8.065-5.49 6.71-2.634-1.015-3.13-3.814-2.232-6.506.79-2.37 2.9-2.79 4.434-2.438m-.157 11.693c-.51 2.936-3.38 8.042-7.34 7.664-2.067-.196-6.63-2.284-3.07-7.26.534-.75 1.05-1.295 1.61-1.808.492-.444 1.05-.89 1.773-1.52 2.777-2.416 8.123-3.375 7.027 2.923"/><path fill="#ffe400" fill-rule="evenodd" d="M99.476 20.89c-.736 2.21-.137 3.553 1.055 4.012 1.44.555 3.76-2.718 3.09-3.79-.67-1.07-3.4-2.43-4.138-.22"/><path fill-rule="evenodd" d="M106.448 44.975c-6.35-1.235-8.67-6.46-7.79-10.985 1.12-5.76 6.227-7.77 10.79-6.882 2.506.55 5.904 3.143 4.935 8.126-.157.814-.68 1.84-1.35 2.63-.15.174-.36.4-.628.628l-.73.62.13.95.014.13c.07.842-.11 1.806-.52 2.547-.47.85-.81 1.37-1.3 1.72-.977.715-2.2.773-3.558.508"/><path fill="#ffe400" fill-rule="evenodd" d="M109.08 28.818c-3.85-.748-7.81.913-8.704 5.506-.717 3.68 1.104 7.903 6.406 8.933 2.31.45 2.535-.537 2.99-1.362.455-.824.494-2.465-.424-2.613-.917-.144-1.85.143-2.823-.046-1.495-.292-3.065-3.487-1.414-3.165.93.188 2.61 1.19 4.69 1.59 1.434.28 2.69-1.824 2.87-2.754.75-3.87-1.8-5.7-3.583-6.08"/><path fill="#462682" fill-rule="evenodd" d="M106.058 31.56c-.604.907-.462 2.742.765 2.9 1.227.16 3.504-1.117 2.59-2.533-.862-1.344-2.44-1.742-3.355-.368"/><path d="M61.578 27.58c-.14-.22-.586-1.145-.586-1.145-.613-1.398-.89-2.927-.837-4.436.216-6.21 5.217-9.16 10.15-8.99 2.692.16 6.665 2.29 6.476 7.653-.03.863-.4 2.016-.962 2.95-.14.23-.346.528-.62.835l-.676.753.317.958c.026.08.05.154.062.21.214.867.19 1.897-.11 2.73-.348.96-.61 1.55-1.06 2.006-.88.88-2.123 1.147-3.59 1.096-3.83-.134-6.6-1.793-8.224-4.062 0 0-.197-.34-.336-.563"/><path stroke="#000" fill="none" stroke-width=".233" d="M61.578 27.58c-.14-.22-.586-1.145-.586-1.145-.613-1.398-.89-2.927-.837-4.436.216-6.21 5.217-9.16 10.15-8.99 2.692.16 6.665 2.29 6.476 7.653-.03.863-.4 2.016-.962 2.95-.14.23-.346.528-.62.835l-.676.753.317.958c.026.08.05.154.062.21.214.867.19 1.897-.11 2.73-.348.96-.61 1.55-1.06 2.006-.88.88-2.123 1.147-3.59 1.096-3.83-.134-6.6-1.793-8.224-4.062 0 0-.197-.34-.336-.563z" stroke-miterlimit="3.864"/><path d="M51.055 30.34c-.255-.062-1.22-.418-1.22-.418-1.41-.58-2.67-1.486-3.682-2.608-4.16-4.62-2.608-10.214 1.06-13.52 2.046-1.753 6.384-2.977 9.976 1.012.572.643 1.11 1.732 1.35 2.797.06.263.12.62.132 1.033l.037 1.008.893.47c.074.04.137.078.19.11.755.468 1.454 1.23 1.814 2.036.42.932.64 1.538.634 2.176-.02 1.244-.73 2.302-1.822 3.286-2.848 2.563-5.99 3.292-8.736 2.787 0 0-.378-.11-.633-.17"/><path stroke="#000" fill="none" stroke-width=".233" d="M51.055 30.34c-.255-.062-1.22-.418-1.22-.418-1.41-.58-2.67-1.486-3.682-2.608-4.16-4.62-2.608-10.214 1.06-13.52 2.046-1.753 6.384-2.977 9.976 1.012.572.643 1.11 1.732 1.35 2.797.06.263.12.62.132 1.033l.037 1.008.893.47c.074.04.137.078.19.11.755.468 1.454 1.23 1.814 2.036.42.932.64 1.538.634 2.176-.02 1.244-.73 2.302-1.822 3.286-2.848 2.563-5.99 3.292-8.736 2.787 0 0-.378-.11-.633-.17z" stroke-miterlimit="3.864"/><path fill="#ffe400" fill-rule="evenodd" d="M70.21 14.76c-4.21-.148-8.13 2.28-8.307 7.3-.14 4.025 2.5 8.193 8.293 8.397 2.53.088 2.6-.994 2.944-1.946.34-.95.11-2.692-.888-2.692-1 0-1.938.46-3.003.422-1.64-.057-3.84-3.18-2.03-3.117 1.01.035 2.96.815 5.23.893 1.562.055 2.54-2.388 2.58-3.402.143-4.23-2.868-5.745-4.826-5.85"/><path fill="#462682" fill-rule="evenodd" d="M67.862 19.637c-.366 1.094 1.205 2.21 2.382 2.17 1.178-.036 2.59-.502 2.464-2.033-.21-2.576-4.277-1.84-4.846-.137"/><path fill-rule="evenodd" d="M45.637 41.37c-4.318 2.075-14.57 3.62-19.047-7.246-4.394-10.666 1.453-14.675 5.29-16.628 3.638-1.855 9.77-1.975 11.863.856.702.952.75 2.042.655 2.866-.096.825-.366 1.65-.6 2.307l-.902 2.468 2.245.282c.17.022.33.042.44.06.85.14 1.96.337 3.01.816 1.1.51 2.137 1.33 2.86 2.66 3.028 5.6-2.055 9.76-5.807 11.56M17.91 39.1c.316 1.41.952 2.853 1.617 3.667 1.62 1.99 2.973 2.306 4.44 1.796.052-.054.226-.223.304-.4.176-.378.3-.917.417-1.646.12-.768.205-1.563.33-2.27.093-.508.226-1.118.478-1.688-1.31 1.25-3.224 2.07-5.113 1.74-1.13-.2-1.916-.66-2.473-1.205m8.73-2.014c1.114-.816 2.49-.612 3.66.067 1.176.68 2.42 1.952 3.6 3.2 2.113 2.246 1.27 5.166.393 6.97-.963 1.987-2.497 3.81-3.562 4.78-.493.45-1.286 1.245-2.336 2.03-1.096.822-2.53 1.68-4.266 2.133-3.66.957-8.13-.034-12.93-5.26-9.948-10.83-2.932-19.96.382-23.195 2.135-2.08 4.675-2.21 7.084-1.377 2.257.777 4.48 2.41 6.4 3.956 2.595 2.093 2.64 4.755 1.574 6.698"/><path fill="#ffe400" fill-rule="evenodd" d="M20.565 38.58c3.07.54 7.307-3.77 3.477-6.85-3.83-3.085-7.984-5.76-11.2-2.622-3.22 3.138-9.24 11.132-.403 20.757 8.83 9.628 15.19 2.618 17.08.9 1.882-1.717 5.6-6.658 3.16-9.25-2.45-2.592-4.21-4.182-5.37-2.55-1.16 1.633-.37 6.457-2.678 7.26-2.304.8-4.42.048-6.42-2.403-2-2.45-3.193-8.003-1.284-8.487 1.91-.48.562 2.704 3.63 3.244m27.795-23.46c-3.13 2.82-4.264 7.29-.905 11.02 2.696 2.99 7.49 4.155 11.8.276 1.88-1.69 1.18-2.52.766-3.44-.414-.926-1.796-2.02-2.512-1.326-.72.693-1.075 1.677-1.867 2.39-1.215 1.095-4.97.376-3.627-.834.757-.68 2.7-1.474 4.39-2.993 1.16-1.047.17-3.486-.51-4.242-2.834-3.14-6.05-2.14-7.53-.854"/><path fill="#462682" fill-rule="evenodd" d="M48.78 20.432c.465 1.075 2.51.648 3.44-.302.928-.95 1.75-2.39.587-3.393-1.963-1.69-4.747 2.027-4.026 3.695"/><path fill="#ffe400" fill-rule="evenodd" d="M95.825 27.998c2.69-2.34 4.563-1.664 4.07 1.18-.495 2.846-2.996 6.232-5.187 6.02-1.64-.156-3.727-1.192-1.636-4.116.878-1.23 1.335-1.853 2.753-3.084"/><path fill="#ffe400" d="M76.12 23.802c.215-.79 1.047-2.13 1.047-2.13 1.168-1.784 1.963-2.69 2.208-3.76.273-1.19.22-1.712.22-1.712.04-.81.067-1.79.146-2.433.1-1.065.53-2.773.53-2.773.45-1.91 1.19-2.79 1.19-2.79.65-1.104 1.68-1.774 3.08-1.774 2.07 0 3.678 1.627 3.678 3.637.025.53-.088 1.145-.485 1.862-1.08 1.96-1.43 2.34-1.486 2.43-1.664 2.66-1.59 2.43-2.07 3.92-.2.553-.332 1.04-.224 1.52.175.817.86 1.136 1.38 1.165.21.014.48-.023.79-.09.1-.02.21-.05.326-.063 1.816-.412 4.99.03 5.74 2.812.07.24.156.59.22 1.027l.012.26c.145 1.007.084 2.73-.64 4.724-.145.32-1.18 2.53-2.046 3.344l-.057.05s-.278.335-.683.683c-.44.38-1.087.848-1.9 1.21-4.15 1.88-9.546.37-10.9-3.863-1.54-3.888-.08-7.26-.08-7.26"/><path fill="#462682" fill-rule="evenodd" d="M88.09 29.068c-1.12 1.166-3.615 2.422-5.252.857-1.634-1.563-1.822-5.172-.095-5.553 1.727-.383 8.685 1.22 5.346 4.696"/><path fill="#ffe400" fill-rule="evenodd" d="M32.7 19.11c-3.4 1.73-8.32 4.896-4.437 14.325 3.886 9.427 12.67 8.185 16.588 6.3 3.76-1.802 7.16-5.085 5.008-9.06-2.044-3.778-7.307-1.51-8.51-4.56-.527-1.333 2.21-4.97.943-6.687-1.27-1.715-6.183-2.05-9.584-.32"/><path fill="#462682" fill-rule="evenodd" d="M36.398 27.462c1.433-1.65 1.107-5.064-.675-5.528-2.547-.66-4.448 2.935-3.75 4.11.7 1.173 2.992 3.067 4.425 1.418m6.532 6.473c-.515 1.425-2.173 3.455-4.17 2.738-1.998-.72-3.536-3.737-2.2-4.723 1.333-.986 7.906-2.267 6.37 1.985"/><path d="M54.79 50.04v2.13h1.382s.027 0 .073-.004c.047 0 .113-.002.192-.01.15-.014.348-.04.54-.108.17-.056.34-.144.47-.274.05-.05.09-.1.123-.153.11-.17.138-.34.143-.44l.002-.063s.003-.02 0-.05c0-.042-.005-.123-.027-.207-.027-.104-.076-.22-.162-.327-.017-.02-.034-.042-.054-.06-.037-.04-.078-.075-.122-.107-.077-.056-.162-.103-.258-.145-.123-.05-.263-.09-.415-.12-.078-.015-.162-.027-.245-.035l-.16-.01c-.046-.003-.098-.006-.147-.006H54.79"/><path d="M54.79 46.807v2.017h.67s.044 0 .103-.003h.15c.137-.01.33-.03.52-.08.037-.01.074-.023.11-.038.15-.05.292-.13.403-.24.09-.09.147-.183.186-.28.047-.114.064-.224.07-.303.006-.07.006-.114.006-.114s.003-.033 0-.085c-.005-.09-.024-.23-.093-.37-.034-.066-.078-.13-.142-.19-.074-.075-.164-.134-.263-.175-.19-.084-.404-.116-.586-.128-.08-.007-.15-.007-.21-.007h-.924zm-4.413-2.735h11.505V54.9H50.377V44.07zm3.018 1.516v7.798h2.934s1.43.04 2.22-.75c.64-.644.592-1.388.592-1.388s.047-.777-.55-1.373c-.507-.508-1.155-.643-1.155-.643s.292-.138.52-.36c.104-.106.48-.445.48-1.267 0-.827-.55-1.303-.55-1.303s-.606-.714-1.967-.714h-2.53z"/></g></svg>