<svg xmlns="http://www.w3.org/2000/svg" width="128" height="64"><g stroke="null"><path d="M76.888 44.072h11.504V54.9H76.888V44.07zm7.247 1.506c-.05-.01-.1-.017-.154-.027h-.06l-.26-.03c-.06 0-.12-.01-.18-.01-.11-.002-.213-.01-.32-.01h-.12l-.253.018c-.045.003-.092.008-.14.01l-.2.02-.056.01-.063.01-.08.01c-.032.003-.066.01-.1.016l-.134.028c-.27.057-.524.136-.757.226-.12.046-.237.095-.347.15-.09.043-.18.09-.26.14-.08.05-.164.095-.24.146-.04.03-.088.06-.13.09-.035.023-.07.05-.106.077-.07.06-.14.116-.207.17-.065.058-.126.11-.18.168-.05.05-.097.1-.143.148-.05.055-.097.11-.138.16l-.14.18-.094.147c-.02.03-.04.06-.06.095-.12.195-.225.404-.31.63-.11.277-.188.58-.23.9-.015.1-.025.2-.032.304-.003.08-.008.163-.008.247 0 .06 0 .122.003.18.01.065.01.126.02.19l.004.043c.01.075.024.147.04.218l.013.086c.016.06.03.12.046.176.02.076.04.15.064.22.03.087.066.173.1.256.058.136.12.26.185.38.04.075.08.14.12.207.03.053.066.102.1.15.045.066.09.127.14.19l.146.175c.06.07.125.135.184.194l.03.03c.05.05.103.1.164.15.04.04.085.076.13.11.045.038.09.07.14.11.057.04.12.08.185.123.064.048.14.09.212.136.152.085.32.168.505.24.07.03.14.056.213.08.073.025.147.05.225.07.13.04.27.073.415.1.117.024.24.044.367.058.126.017.256.03.39.037.066 0 .13 0 .2.004h.094c.24 0 .467-.01.67-.025l.045-.002c.084-.01.163-.018.24-.028.12-.015.23-.03.34-.05l.196-.04c.1-.02.193-.046.284-.07l.19-.054.213-.07.066-.02c.033-.014.077-.03.13-.05l.246-.1.18-.08.172-.083c.024-.01.05-.022.075-.04V51.3l-.05.032-.1.06c-.1.063-.197.12-.295.173-.11.056-.214.11-.317.16-.186.088-.36.16-.53.22-.32.116-.616.19-.878.236l-.09.02-.21.03c-.103.01-.2.02-.285.02-.055 0-.107.01-.156.01-.107 0-.215 0-.32-.01-.13-.006-.26-.02-.396-.043-.213-.036-.427-.09-.638-.166-.03-.01-.06-.024-.094-.034l-.06-.028c-.033-.014-.07-.03-.1-.046-.07-.032-.146-.07-.214-.11-.034-.02-.07-.04-.105-.062l-.1-.07c-.047-.03-.09-.056-.13-.09-.04-.03-.08-.065-.116-.094l-.05-.045-.024-.024-.015-.01-.018-.016c-.068-.065-.13-.13-.18-.198-.036-.04-.065-.074-.09-.11l-.078-.11-.067-.104c-.03-.05-.06-.103-.085-.154l-.06-.13c-.03-.074-.055-.15-.08-.22-.016-.055-.03-.112-.043-.163-.04-.15-.06-.29-.07-.41-.006-.05-.01-.09-.01-.13-.004-.06-.004-.11-.004-.15 0-.03 0-.06.006-.094 0-.084.01-.19.026-.312.01-.072.024-.15.044-.234l.046-.17.057-.16.04-.11c.02-.05.048-.1.075-.15l.06-.116c.05-.08.107-.165.168-.25l.07-.086c.03-.04.068-.077.1-.114l.05-.057c.276-.272.58-.473.89-.618.05-.024.1-.044.15-.06.05-.02.1-.04.15-.057.058-.02.11-.035.168-.05.05-.014.103-.027.157-.04l.152-.03c.054-.01.113-.02.17-.027l.17-.013c.11-.01.212-.016.315-.016h.104c.073.003.15.005.22.01.05 0 .1.007.15.01.09.01.183.02.27.034l.22.04c.104.02.2.045.29.068.054.01.105.03.152.04l.18.055.126.048c.07.026.142.056.21.08.096.04.184.08.27.12.07.03.14.067.204.096l.15.08.203.11.15.08v-1.45s-.09-.04-.25-.097l-.24-.09c-.052-.02-.106-.04-.165-.06-.05-.016-.094-.03-.143-.048-.058-.018-.114-.038-.173-.057-.04-.013-.086-.025-.13-.037l-.04-.013-.13-.033c-.05-.016-.107-.028-.16-.04l-.107-.026-.172-.036-.18-.033m-16.08 4.44v2.13h1.38l.077-.003c.045 0 .112-.002.19-.01.15-.014.35-.04.54-.108.172-.06.34-.148.47-.278.05-.05.09-.1.124-.153.11-.17.14-.34.145-.44v-.114c0-.04-.01-.122-.03-.206-.03-.104-.077-.22-.16-.327l-.056-.06c-.038-.04-.08-.073-.124-.105-.078-.056-.164-.103-.26-.145-.123-.053-.263-.093-.416-.12-.076-.017-.16-.03-.243-.037l-.16-.01c-.044-.003-.095-.006-.145-.006h-1.33m0-3.236v2.02h.67s.044 0 .103-.003l.15-.005c.136-.01.327-.03.52-.082.035-.01.07-.02.11-.036.15-.05.29-.13.4-.236.09-.09.148-.185.188-.28.045-.116.06-.226.07-.305.005-.07.005-.11.005-.11v-.09c-.004-.09-.024-.23-.093-.37-.035-.068-.08-.13-.14-.19-.076-.077-.167-.136-.265-.177-.19-.085-.403-.117-.585-.13-.08-.006-.155-.006-.21-.006h-.926zm-4.42-2.74h11.51V54.9h-11.5V44.07zm3.02 1.516v7.79h2.935s1.43.04 2.22-.75c.645-.643.6-1.39.6-1.39s.045-.775-.55-1.37c-.51-.504-1.157-.64-1.157-.64s.292-.14.52-.36c.103-.105.48-.444.48-1.266 0-.826-.55-1.302-.55-1.302s-.607-.713-1.97-.713h-2.53zm11.016-29.5c.025-.37.033-.648.033-.648.032-.69.064-1.41.125-1.926.12-1.175.57-3 .57-3 .262-1.11.615-1.95.924-2.54.23-.43.43-.723.55-.88.984-1.58 2.596-2.6 4.67-2.6 3.106 0 5.572 2.455 5.596 5.51.037.897-.176 1.85-.72 2.84-1.137 2.06-1.5 2.46-1.56 2.55-.784 1.256-1.164 1.83-1.4 2.27-.15.272-.213.453-.44 1.155l-.04.12.12-.02c2.154-.443 6.767-.1 7.94 4.18.09.304.206.824.284 1.37l.013.25c.18 1.333.036 3.42-.773 5.65-.086.183-.437.94-.85 1.687-.38.686-.985 1.69-1.665 2.327-.007 0-.267.325-.8.786-.547.47-1.35 1.053-2.37 1.51-4.82 2.174-11.65.645-13.497-4.974-.895-2.297-.914-4.434-.71-5.985.17-1.305.498-2.232.628-2.56.186-.592.514-1.233.73-1.64.267-.49.515-.883.515-.883.58-.89 1.085-1.574 1.458-2.153.34-.522.456-.792.5-1 .096-.4.147-.95.177-1.373"/><path fill-rule="evenodd" d="M27.392 34.234c-.257 0-1.75 3.627-1.75 3.627s2.464 2.34 2.594 2.6c.13.26 2.913-3.18 2.913-3.82s-3.5-2.39-3.76-2.39m92.88 19.83c-3.34 3.574-8.73 3.336-12.09.21-2.28-2.13-2.56-5.204-.3-7.626.38-.41.98-.897 1.72-1.157.2-.07.42-.125.66-.154l.08-.01-.02-.08c-.46-2.162.946-4.545 1.776-5.433 3.34-3.58 8.75-3.32 12.086-.21 2.303 2.15 2.55 5.206.3 7.62-.384.41-.98.9-1.72 1.155-.197.07-.42.124-.656.154l-.08.01.02.08c.47 2.17-.957 4.55-1.78 5.43"/><path fill="#ffe400" fill-rule="evenodd" d="M118.98 52.857c1.093-1.17 2.084-3.663.695-4.96-.915-.852-1.806-1.142-2.68-1.96-.733-.684-.735-1.633-.173-2.237.527-.566 1.585-1.224 2.28-.576.95.888 1.025 2.53 1.957 3.398.67.633 1.62.05 2.14-.498 1.55-1.664 1.41-3.604-.22-5.123-2.71-2.52-6.99-2.65-9.58.13-1.1 1.17-2.07 3.68-.7 4.96.93.87 2.26 1.13 2.89 2.21.51.88.41 1.35-.026 2.01-.44.67-1.603 1.21-2.297.56-.935-.87-1.01-2.51-1.96-3.394-.677-.632-1.63-.05-2.14.497-1.55 1.66-1.396 3.62.214 5.12 2.72 2.54 6.99 2.658 9.58-.122"/><path fill-rule="evenodd" d="M102.017 17.828c1.298.3 2.633 1.18 3.288 2.227 1.516 2.427-1.975 8.065-5.49 6.71-2.634-1.015-3.13-3.814-2.232-6.506.79-2.37 2.9-2.79 4.434-2.44m-.157 11.69c-.51 2.932-3.38 8.04-7.34 7.66-2.067-.196-6.63-2.284-3.07-7.26.534-.75 1.05-1.295 1.61-1.808.492-.445 1.05-.89 1.773-1.52 2.777-2.417 8.123-3.376 7.027 2.922"/><path fill="#ffe400" fill-rule="evenodd" d="M99.476 20.89c-.736 2.21-.137 3.553 1.055 4.012 1.44.555 3.76-2.718 3.09-3.79-.67-1.07-3.4-2.43-4.13-.22"/><path fill-rule="evenodd" d="M106.448 44.975c-6.35-1.235-8.67-6.46-7.79-10.985 1.12-5.76 6.227-7.77 10.79-6.882 2.506.55 5.904 3.143 4.935 8.126-.157.814-.68 1.84-1.35 2.63-.15.174-.36.4-.628.628l-.73.62.13.95.014.13c.07.842-.11 1.806-.52 2.547-.47.85-.81 1.37-1.3 1.72-.98.71-2.2.77-3.56.5"/><path fill="#ffe400" fill-rule="evenodd" d="M109.08 28.818c-3.85-.748-7.81.913-8.704 5.506-.717 3.68 1.104 7.903 6.406 8.933 2.31.45 2.535-.537 2.99-1.362.455-.824.494-2.465-.424-2.613-.917-.144-1.85.143-2.823-.046-1.495-.292-3.065-3.487-1.414-3.165.93.19 2.61 1.19 4.69 1.59 1.44.28 2.69-1.82 2.87-2.75.75-3.87-1.8-5.7-3.58-6.08"/><path fill="#462682" fill-rule="evenodd" d="M106.058 31.56c-.604.907-.462 2.742.765 2.9 1.227.16 3.504-1.117 2.59-2.533-.862-1.344-2.44-1.742-3.355-.368"/><path d="M61.578 27.58c-.14-.22-.586-1.145-.586-1.145-.613-1.398-.89-2.927-.837-4.436.216-6.21 5.217-9.16 10.15-8.99 2.692.16 6.665 2.29 6.476 7.65-.03.86-.4 2.01-.96 2.95-.14.23-.34.53-.62.83l-.67.752.318.957c.027.08.05.154.063.21.214.867.19 1.897-.11 2.73-.35.96-.61 1.55-1.06 2.006-.88.88-2.123 1.147-3.59 1.096-3.83-.135-6.6-1.794-8.224-4.063 0 0-.197-.34-.336-.563"/><path stroke="#000" fill="none" stroke-width=".233" d="M61.578 27.58c-.14-.22-.586-1.145-.586-1.145-.613-1.398-.89-2.927-.837-4.436.216-6.21 5.217-9.16 10.15-8.99 2.692.16 6.665 2.29 6.476 7.65-.03.86-.4 2.01-.96 2.95-.14.23-.34.53-.62.83l-.67.752.318.957c.027.08.05.154.063.21.214.867.19 1.897-.11 2.73-.35.96-.61 1.55-1.06 2.006-.88.88-2.123 1.147-3.59 1.096-3.83-.135-6.6-1.794-8.224-4.063 0 0-.197-.34-.336-.563z" stroke-miterlimit="3.864"/><path d="M51.055 30.34c-.255-.062-1.22-.418-1.22-.418-1.41-.58-2.67-1.486-3.682-2.608-4.16-4.62-2.608-10.214 1.06-13.52 2.046-1.753 6.384-2.977 9.976 1.012.57.643 1.11 1.732 1.35 2.797.06.263.12.62.13 1.033l.03 1.008.893.47c.074.04.137.078.19.11.755.468 1.454 1.23 1.814 2.036.42.932.64 1.538.634 2.176-.02 1.244-.73 2.302-1.823 3.286-2.846 2.563-5.99 3.292-8.734 2.787 0 0-.377-.11-.632-.17"/><path stroke="#000" fill="none" stroke-width=".233" d="M51.055 30.34c-.255-.062-1.22-.418-1.22-.418-1.41-.58-2.67-1.486-3.682-2.608-4.16-4.62-2.608-10.214 1.06-13.52 2.046-1.753 6.384-2.977 9.976 1.012.57.643 1.11 1.732 1.35 2.797.06.263.12.62.13 1.033l.03 1.008.893.47c.074.04.137.078.19.11.755.468 1.454 1.23 1.814 2.036.42.932.64 1.538.634 2.176-.02 1.244-.73 2.302-1.823 3.286-2.846 2.563-5.99 3.292-8.734 2.787 0 0-.377-.11-.632-.17z" stroke-miterlimit="3.864"/><path fill="#ffe400" fill-rule="evenodd" d="M70.21 14.76c-4.21-.148-8.13 2.28-8.307 7.3-.14 4.025 2.5 8.193 8.293 8.397 2.53.088 2.6-.994 2.944-1.946.34-.95.11-2.69-.888-2.69-1 0-1.938.46-3.003.42-1.64-.05-3.84-3.18-2.03-3.11 1.01.037 2.96.817 5.23.895 1.56.055 2.54-2.39 2.58-3.402.14-4.23-2.87-5.744-4.83-5.85"/><path fill="#462682" fill-rule="evenodd" d="M67.862 19.637c-.366 1.094 1.205 2.21 2.382 2.17 1.178-.036 2.59-.502 2.464-2.033-.21-2.576-4.277-1.84-4.846-.137"/><path fill-rule="evenodd" d="M45.637 41.37c-4.318 2.075-14.57 3.62-19.047-7.246-4.394-10.666 1.453-14.675 5.29-16.628 3.638-1.855 9.77-1.975 11.863.856.702.952.75 2.042.655 2.866-.096.825-.366 1.65-.6 2.307l-.902 2.468 2.245.282c.17.022.33.042.44.06.85.14 1.96.337 3.01.816 1.1.51 2.14 1.33 2.86 2.66 3.03 5.6-2.05 9.76-5.8 11.56M17.91 39.1c.316 1.41.952 2.853 1.617 3.667 1.62 1.99 2.973 2.306 4.44 1.796.052-.054.226-.223.304-.4.18-.378.3-.917.42-1.646.12-.768.21-1.563.33-2.27.1-.508.23-1.118.48-1.688-1.31 1.25-3.22 2.07-5.11 1.74-1.13-.2-1.915-.66-2.472-1.21m8.73-2.018c1.115-.817 2.49-.613 3.66.066 1.177.68 2.42 1.952 3.6 3.2 2.114 2.246 1.27 5.166.394 6.97-.963 1.987-2.497 3.81-3.562 4.78-.492.45-1.285 1.245-2.335 2.03-1.096.822-2.53 1.68-4.266 2.133-3.66.957-8.13-.034-12.93-5.26-9.95-10.83-2.933-19.96.38-23.195 2.136-2.08 4.676-2.21 7.085-1.377 2.255.78 4.48 2.41 6.4 3.958 2.593 2.092 2.64 4.754 1.572 6.697"/><path fill="#ffe400" fill-rule="evenodd" d="M20.565 38.58c3.07.54 7.307-3.77 3.477-6.85-3.83-3.085-7.984-5.76-11.2-2.622-3.22 3.138-9.24 11.132-.403 20.757 8.83 9.628 15.19 2.618 17.08.9 1.88-1.717 5.6-6.658 3.16-9.25-2.45-2.592-4.21-4.182-5.37-2.55-1.16 1.633-.37 6.457-2.68 7.26-2.31.8-4.42.048-6.42-2.403-2-2.45-3.2-8.003-1.29-8.487 1.91-.48.56 2.704 3.63 3.244m27.8-23.46c-3.13 2.82-4.265 7.29-.906 11.02 2.696 2.99 7.49 4.15 11.8.272 1.88-1.69 1.18-2.52.766-3.44-.413-.926-1.795-2.02-2.51-1.326-.72.692-1.075 1.676-1.867 2.39-1.215 1.094-4.97.375-3.627-.835.757-.68 2.7-1.473 4.39-2.992 1.16-1.048.17-3.487-.51-4.243-2.834-3.14-6.05-2.14-7.53-.854"/><path fill="#462682" fill-rule="evenodd" d="M48.78 20.432c.465 1.075 2.51.648 3.44-.302.928-.95 1.75-2.39.587-3.393-1.963-1.69-4.747 2.027-4.026 3.695"/><path fill="#ffe400" fill-rule="evenodd" d="M95.825 27.998c2.69-2.34 4.563-1.664 4.07 1.18-.495 2.846-2.996 6.232-5.187 6.02-1.64-.156-3.727-1.192-1.636-4.116.878-1.23 1.335-1.853 2.753-3.084"/><path fill="#ffe400" d="M76.12 23.802c.215-.79 1.047-2.13 1.047-2.13 1.168-1.784 1.963-2.69 2.208-3.76.273-1.19.22-1.712.22-1.712.04-.81.067-1.79.146-2.433.1-1.065.53-2.773.53-2.773.45-1.91 1.19-2.79 1.19-2.79.65-1.104 1.68-1.774 3.08-1.774 2.07 0 3.68 1.627 3.68 3.637.03.53-.09 1.145-.48 1.862-1.08 1.96-1.43 2.34-1.484 2.43-1.664 2.66-1.59 2.43-2.07 3.92-.2.55-.332 1.04-.224 1.52.175.81.86 1.13 1.38 1.16.21.01.48-.027.79-.09.1-.02.21-.05.326-.067 1.818-.41 4.99.03 5.74 2.812.07.24.158.59.22 1.026l.014.26c.143 1.007.082 2.73-.64 4.724-.147.32-1.18 2.53-2.048 3.343l-.057.05s-.28.334-.683.682c-.44.38-1.087.85-1.9 1.21-4.15 1.88-9.546.37-10.9-3.86-1.54-3.89-.08-7.26-.08-7.26"/><path fill="#462682" fill-rule="evenodd" d="M88.09 29.068c-1.12 1.166-3.615 2.422-5.252.857-1.634-1.563-1.822-5.172-.095-5.553 1.727-.383 8.685 1.22 5.346 4.696"/><path fill="#ffe400" fill-rule="evenodd" d="M32.7 19.11c-3.4 1.73-8.32 4.896-4.437 14.325 3.886 9.427 12.67 8.185 16.588 6.3 3.76-1.802 7.16-5.085 5.01-9.06-2.04-3.778-7.3-1.51-8.51-4.56-.52-1.333 2.21-4.97.95-6.687-1.27-1.715-6.183-2.05-9.584-.32"/><path fill="#462682" fill-rule="evenodd" d="M36.398 27.462c1.433-1.65 1.107-5.064-.675-5.528-2.547-.66-4.448 2.935-3.75 4.11.7 1.173 2.992 3.067 4.425 1.418m6.532 6.473c-.515 1.425-2.173 3.455-4.17 2.738-1.998-.72-3.536-3.737-2.2-4.723 1.333-.986 7.906-2.267 6.37 1.985"/><path d="M54.79 50.04v2.13h1.382s.027 0 .073-.004c.047 0 .113-.002.192-.01.15-.014.348-.04.54-.108.17-.056.34-.144.47-.274.05-.05.09-.1.123-.153.11-.17.138-.34.143-.44l.002-.06s.003-.02 0-.05c0-.04-.005-.12-.027-.2-.027-.104-.076-.22-.162-.327-.017-.02-.034-.042-.054-.06-.037-.04-.078-.075-.122-.107-.077-.056-.162-.103-.258-.145-.123-.05-.263-.09-.415-.12-.078-.014-.162-.026-.245-.034l-.16-.01c-.046-.005-.098-.008-.147-.008H54.79"/><path d="M54.79 46.807v2.017h.67s.044 0 .103-.003h.15c.137-.01.33-.03.52-.08l.11-.03c.15-.05.292-.13.403-.24.09-.09.147-.182.186-.28.047-.113.064-.223.07-.302.006-.07.006-.113.006-.113s.003-.033 0-.085c-.005-.09-.024-.23-.093-.37-.034-.066-.078-.13-.142-.19-.074-.075-.164-.134-.263-.175-.19-.083-.404-.115-.586-.127-.08-.007-.15-.007-.21-.007h-.924zm-4.413-2.735h11.505V54.9H50.377V44.07zm3.018 1.516v7.798h2.934s1.43.04 2.22-.75c.64-.644.59-1.388.59-1.388s.04-.777-.55-1.373c-.51-.508-1.16-.643-1.16-.643s.29-.138.52-.36c.102-.106.48-.445.48-1.267 0-.827-.55-1.303-.55-1.303s-.608-.714-1.97-.714h-2.53z"/></g></svg>