<?xml version="1.0" encoding="UTF-8" standalone="no"?>

<svg xmlns:svg="http://www.w3.org/2000/svg" xmlns="http://www.w3.org/2000/svg" version="1.1" width="128" height="64" xmlns:xlink="http://www.w3.org/1999/xlink">
	<g stroke="null">
		<g stroke="null" transform="matrix(0.38086216212355883,0,0,-0.38086216212355883,72.50334739673673,159.27971226558256) "/>
		<g stroke="null" transform="matrix(2.453557085824286,0,0,-2.453557085824286,-746.7689410488993,1255.583516388031) ">
			<path fill="#000000" fill-rule="nonzero" d="m335.69897,493.77765l4.689,0l0,-4.41299l-4.689,0l0,4.41299zm2.95401,-0.61398c-0.01999,0.004 -0.04099,0.00699 -0.06299,0.01099l-0.02502,0.00302c-0.03598,0.00497 -0.073,0.00897 -0.10898,0.01297c-0.02499,0.00201 -0.05002,0.00403 -0.07501,0.005c-0.04401,0.00302 -0.08798,0.004 -0.13,0.004c-0.01999,0 -0.03101,0 -0.04999,0c-0.035,-0.00098 -0.07001,-0.00299 -0.104,-0.00497c-0.01901,-0.00101 -0.03799,-0.00302 -0.05701,-0.00403c-0.02798,-0.00299 -0.05499,-0.00598 -0.082,-0.00897l-0.02298,-0.00302l-0.02502,-0.004l-0.03198,-0.005c-0.013,-0.00198 -0.02701,-0.00497 -0.04001,-0.00699c-0.01801,-0.00299 -0.03699,-0.00699 -0.05499,-0.01099c-0.11099,-0.02301 -0.21402,-0.05502 -0.30899,-0.09201c-0.04901,-0.01901 -0.09601,-0.039 -0.14102,-0.061c-0.03699,-0.01801 -0.073,-0.03699 -0.10699,-0.05701c-0.03299,-0.01999 -0.06601,-0.039 -0.09698,-0.06c-0.017,-0.01199 -0.035,-0.02399 -0.052,-0.03598c-0.01401,-0.01001 -0.02902,-0.02103 -0.043,-0.03201c-0.02902,-0.02301 -0.05801,-0.04599 -0.08502,-0.07001c-0.02499,-0.022 -0.04999,-0.04401 -0.07199,-0.06699c-0.01999,-0.02002 -0.039,-0.04001 -0.05801,-0.06c-0.01898,-0.021 -0.03799,-0.043 -0.05499,-0.065c-0.01999,-0.02402 -0.039,-0.04901 -0.05701,-0.07401c-0.01398,-0.01901 -0.02698,-0.03799 -0.03998,-0.05801c-0.009,-0.013 -0.017,-0.026 -0.02499,-0.03998c-0.04901,-0.08002 -0.09201,-0.16501 -0.12701,-0.25702c-0.04401,-0.11301 -0.07599,-0.23599 -0.09299,-0.366c-0.00601,-0.04099 -0.01001,-0.08301 -0.013,-0.125c-0.00101,-0.03299 -0.00302,-0.06601 -0.00302,-0.10001c0,-0.02499 0,-0.04999 0.00201,-0.07397c0.00198,-0.026 0.004,-0.05103 0.00699,-0.07602l0.00101,-0.01801c0.004,-0.03 0.009,-0.05899 0.01501,-0.08798c0.00198,-0.01102 0.004,-0.02301 0.00598,-0.034c0.00601,-0.02402 0.01102,-0.048 0.01801,-0.07101c0.008,-0.03101 0.01599,-0.06 0.026,-0.09c0.01199,-0.035 0.02499,-0.07001 0.039,-0.104c0.02301,-0.05399 0.048,-0.10599 0.07498,-0.155c0.01501,-0.02899 0.03101,-0.05701 0.048,-0.08301c0.013,-0.022 0.02701,-0.04199 0.04102,-0.06198c0.01801,-0.02701 0.03699,-0.052 0.056,-0.077c0.01999,-0.02502 0.04099,-0.04901 0.06,-0.07202c0.02499,-0.02899 0.05099,-0.05499 0.07498,-0.07898l0.013,-0.013c0.02002,-0.02002 0.04202,-0.04102 0.06702,-0.06201c0.017,-0.01498 0.035,-0.03 0.05399,-0.04501c0.01801,-0.01398 0.03702,-0.02899 0.05701,-0.043c0.02301,-0.017 0.048,-0.034 0.07501,-0.05099c0.02798,-0.01801 0.05701,-0.03598 0.08798,-0.05399c0.06201,-0.034 0.13101,-0.06799 0.20602,-0.09799c0.02798,-0.01102 0.05698,-0.022 0.08698,-0.03201c0.03,-0.01001 0.06,-0.01999 0.09201,-0.02899c0.05402,-0.01602 0.11099,-0.02902 0.17001,-0.04102c0.04797,-0.009 0.09799,-0.017 0.14999,-0.02298c0.05099,-0.00601 0.104,-0.01102 0.159,-0.01401c0.02701,-0.00101 0.05399,-0.00201 0.082,-0.00302c0.01199,0 0.02499,0 0.03799,0c0.099,0 0.19,0.00403 0.27402,0.01102l0.017,0.00101c0.034,0.00299 0.06598,0.00699 0.09799,0.01099c0.048,0.00601 0.09399,0.013 0.138,0.021c0.02798,0.005 0.05399,0.01001 0.07999,0.01501c0.04102,0.009 0.07901,0.01801 0.116,0.02798c0.02701,0.00702 0.05301,0.01501 0.078,0.022c0.03,0.01001 0.05902,0.01901 0.08701,0.02899l0.026,0.009c0.01401,0.005 0.03201,0.01102 0.05301,0.02002c0.02798,0.01099 0.06198,0.02399 0.10098,0.04099c0.02301,0.01001 0.048,0.021 0.07401,0.03302c0.02301,0.00998 0.047,0.02197 0.07101,0.03299c0.00998,0.005 0.021,0.01001 0.03098,0.01599l0,0.60101c-0.00699,-0.004 -0.01398,-0.009 -0.021,-0.013l-0.04199,-0.02499c-0.04099,-0.02502 -0.07999,-0.048 -0.12,-0.07001c-0.04401,-0.02301 -0.08701,-0.04501 -0.129,-0.065c-0.07501,-0.03601 -0.146,-0.065 -0.215,-0.09c-0.13101,-0.047 -0.25101,-0.077 -0.358,-0.09601c-0.01199,-0.00198 -0.02499,-0.004 -0.03702,-0.00601c-0.02899,-0.004 -0.05698,-0.008 -0.08398,-0.01099c-0.04199,-0.004 -0.08099,-0.00699 -0.116,-0.008c-0.02301,-0.00101 -0.04401,-0.00201 -0.064,-0.00201c-0.043,0 -0.08701,0.00101 -0.13101,0.005c-0.05301,0.00299 -0.10599,0.009 -0.16,0.01801c-0.08701,0.01501 -0.17398,0.03699 -0.26001,0.06799c-0.01199,0.004 -0.02499,0.01001 -0.03799,0.01401c-0.008,0.004 -0.01599,0.00699 -0.02399,0.01099c-0.01401,0.005 -0.02802,0.01102 -0.04199,0.01801c-0.02902,0.01401 -0.05902,0.02902 -0.08701,0.04501c-0.01401,0.008 -0.02802,0.01599 -0.043,0.026c-0.01401,0.009 -0.02802,0.01801 -0.04202,0.02798c-0.01797,0.01199 -0.03497,0.02402 -0.05197,0.03799c-0.01602,0.01202 -0.03302,0.026 -0.04703,0.03802l-0.01999,0.01797l-0.01001,0.01001l-0.00598,0.005l-0.00702,0.00699c-0.02698,0.02701 -0.052,0.05402 -0.07397,0.08102c-0.013,0.01599 -0.02502,0.03098 -0.03601,0.04599c-0.01099,0.01498 -0.021,0.03 -0.03101,0.04498c-0.009,0.01401 -0.01801,0.02802 -0.02701,0.04202c-0.01199,0.021 -0.02298,0.043 -0.034,0.064c-0.009,0.01801 -0.017,0.03601 -0.02399,0.05301c-0.013,0.03098 -0.02402,0.06198 -0.034,0.09c-0.00702,0.02298 -0.013,0.04599 -0.01801,0.06699c-0.01599,0.06302 -0.02402,0.12 -0.02899,0.16901c-0.00201,0.01901 -0.00302,0.03601 -0.004,0.05301c-0.00101,0.02399 -0.00101,0.04498 -0.00101,0.06097c0,0.01102 0,0.02402 0.00101,0.03802c0.00098,0.035 0.004,0.078 0.01099,0.12799c0.004,0.03 0.01001,0.06201 0.01801,0.09601c0.00598,0.02298 0.01199,0.04498 0.01898,0.069c0.00702,0.022 0.01501,0.043 0.02301,0.065c0.00601,0.01498 0.01199,0.03 0.01801,0.04498c0.009,0.02002 0.01901,0.04102 0.03,0.061c0.008,0.01599 0.01599,0.03101 0.02499,0.047c0.02002,0.034 0.043,0.06799 0.06799,0.10199c0.009,0.01202 0.01901,0.02402 0.02902,0.03601c0.01199,0.01599 0.026,0.03101 0.03998,0.04599c0.00702,0.00803 0.01401,0.01602 0.02103,0.02301c0.11099,0.11099 0.23499,0.19299 0.36298,0.25201c0.02002,0.009 0.04001,0.017 0.061,0.02499c0.02002,0.008 0.04001,0.01498 0.061,0.022c0.022,0.008 0.04501,0.01498 0.06699,0.021c0.02103,0.00598 0.04202,0.01099 0.06403,0.01599c0.021,0.005 0.04199,0.009 0.06299,0.013c0.02301,0.004 0.047,0.008 0.07001,0.01102c0.02298,0.00299 0.04599,0.00497 0.069,0.00699c0.04401,0.004 0.08701,0.00601 0.129,0.00601c0.01401,0 0.02798,0 0.04199,0c0.03101,-0.00101 0.061,-0.00201 0.091,-0.00403c0.01999,-0.00098 0.04099,-0.00299 0.061,-0.00497c0.03699,-0.00302 0.07401,-0.008 0.10901,-0.013c0.03098,-0.005 0.06097,-0.01001 0.08899,-0.01602c0.043,-0.008 0.082,-0.01797 0.11798,-0.02698c0.02301,-0.00601 0.04401,-0.013 0.06302,-0.01801c0.02899,-0.009 0.05399,-0.017 0.07401,-0.02301c0.03299,-0.01199 0.05099,-0.01898 0.05099,-0.01898c0.03,-0.01001 0.05899,-0.022 0.08701,-0.03302c0.039,-0.01498 0.07498,-0.03198 0.10999,-0.048c0.02899,-0.013 0.05701,-0.02698 0.08301,-0.039c0.022,-0.01099 0.04099,-0.021 0.06,-0.03098c0.03299,-0.017 0.061,-0.03302 0.08401,-0.04501l0.06097,-0.03299l0,0.591c0,0 -0.03699,0.01498 -0.09998,0.039c-0.02802,0.01099 -0.06201,0.02298 -0.099,0.03598c-0.02103,0.008 -0.043,0.01599 -0.06702,0.02402c-0.01901,0.00598 -0.03799,0.013 -0.05798,0.01898c-0.02301,0.00702 -0.04602,0.01501 -0.07001,0.02301c-0.017,0.005 -0.035,0.01001 -0.05301,0.01498l-0.01599,0.005c-0.01801,0.005 -0.03601,0.01001 -0.05402,0.01501c-0.021,0.00598 -0.043,0.01099 -0.065,0.017c-0.01398,0.00299 -0.02798,0.00598 -0.043,0.00998c-0.02298,0.005 -0.047,0.01001 -0.07098,0.01501c-0.02402,0.005 -0.04901,0.01001 -0.07401,0.01401"/>
			<g stroke="null">
				<path fill="#000000" fill-rule="nonzero" d="m332.09567,491.34467l0,-0.867l0.56299,0c0,0 0.01102,0 0.03,0.00101c0.01901,0 0.04602,0.00098 0.078,0.004c0.061,0.00598 0.142,0.017 0.22,0.04401c0.07001,0.02298 0.13901,0.05899 0.19199,0.11197c0.02002,0.02002 0.03702,0.04102 0.05002,0.06201c0.04501,0.07001 0.056,0.14099 0.05798,0.181c0.00101,0.017 0.00101,0.02701 0.00101,0.02701c0,0 0.00101,0.008 0,0.021c0,0.017 -0.00198,0.04999 -0.01099,0.08401c-0.01102,0.04199 -0.03101,0.08899 -0.06601,0.133c-0.00699,0.008 -0.01401,0.017 -0.022,0.02399c-0.01498,0.01599 -0.03198,0.03101 -0.04999,0.04401c-0.03101,0.02301 -0.06601,0.04199 -0.10501,0.05899c-0.04999,0.022 -0.10699,0.03799 -0.16901,0.05002c-0.03198,0.00598 -0.06598,0.01099 -0.10001,0.01398c-0.02197,0.00201 -0.04297,0.00302 -0.065,0.005c-0.01898,0.00101 -0.03998,0.00201 -0.06,0.00201c-0.19998,0 -0.54398,0 -0.54398,0"/>
			</g>
			<g stroke="null">
				<path fill="#000000" fill-rule="nonzero" d="m332.09567,492.66296l0,-0.82199l0.27301,0c0,0 0.01797,0 0.04199,0.00098c0.01898,0 0.04099,0.00201 0.061,0.00201c0.05597,0.005 0.134,0.013 0.21198,0.034c0.01501,0.004 0.03,0.009 0.04501,0.01498c0.061,0.021 0.11899,0.05301 0.164,0.09702c0.03699,0.03601 0.06,0.07501 0.07599,0.11401c0.01901,0.047 0.026,0.09198 0.02899,0.12399c0.00201,0.02798 0.00201,0.04599 0.00201,0.04599c0,0 0.00101,0.01401 0,0.035c-0.00201,0.03601 -0.01001,0.09399 -0.03799,0.14999c-0.01401,0.02701 -0.03201,0.05301 -0.05801,0.078c-0.03,0.03 -0.06699,0.05402 -0.10699,0.07098c-0.077,0.03403 -0.16498,0.04703 -0.23898,0.05203c-0.03201,0.00299 -0.06201,0.00299 -0.086,0.00299l-0.37601,0z"/>
			</g>
			<path fill="#000000" fill-rule="nonzero" d="m330.297,493.77765l4.689,0l0,-4.41299l-4.689,0l0,4.41299zm1.22998,-0.61798l0,-3.17801l1.19601,0c0,0 0.58301,-0.01599 0.905,0.306c0.263,0.26199 0.24399,0.565 0.24399,0.565c0,0 0.01901,0.31699 -0.224,0.56c-0.207,0.207 -0.47101,0.26199 -0.47101,0.26199c0,0 0.11902,0.056 0.211,0.147c0.04303,0.043 0.19501,0.181 0.19501,0.51599c0,0.33701 -0.224,0.53101 -0.224,0.53101c0,0 -0.246,0.29102 -0.80099,0.29102l-1.03101,0z"/>
			<g stroke="null">
				<path fill="#000000" fill-rule="nonzero" d="m336.01981,505.17627c0.00998,0.151 0.013,0.26401 0.013,0.26401c0.013,0.28098 0.026,0.57498 0.05099,0.78497c0.04901,0.48001 0.233,1.224 0.233,1.224c0.10699,0.452 0.25101,0.79401 0.37698,1.035c0.09302,0.17599 0.17401,0.29501 0.22202,0.35901c0.39999,0.64301 1.05701,1.06 1.90201,1.06c1.26599,0 2.271,-1.00101 2.28101,-2.24701c0.01498,-0.36499 -0.07202,-0.754 -0.29401,-1.15698c-0.46301,-0.83902 -0.61099,-1.00302 -0.63602,-1.04001c-0.319,-0.51099 -0.474,-0.746 -0.56998,-0.92401c-0.061,-0.11099 -0.08701,-0.185 -0.17902,-0.47098l-0.01599,-0.048l0.04999,0.00998c0.87701,0.18201 2.75702,0.04102 3.23499,-1.702c0.03702,-0.12399 0.08401,-0.336 0.11603,-0.55899l0.00598,-0.10199c0.07199,-0.543 0.01401,-1.39301 -0.31598,-2.302c-0.03403,-0.07501 -0.177,-0.383 -0.34601,-0.68799c-0.155,-0.27902 -0.401,-0.68903 -0.67801,-0.94803c-0.00101,-0.00098 -0.10699,-0.133 -0.32498,-0.32098c-0.22202,-0.19101 -0.54901,-0.42902 -0.966,-0.61502c-1.96301,-0.88599 -4.74802,-0.26297 -5.5,2.02701c-0.36502,0.936 -0.37302,1.80701 -0.29001,2.439c0.069,0.53302 0.203,0.91101 0.25601,1.04401c0.07498,0.242 0.20898,0.50299 0.297,0.668c0.10797,0.19901 0.20898,0.36102 0.20898,0.36102c0.23602,0.362 0.44101,0.64197 0.59302,0.87799c0.13797,0.21399 0.185,0.32401 0.20398,0.409c0.03799,0.16299 0.05899,0.388 0.07101,0.561"/>
			</g>
		</g>
		<g stroke="null" transform="matrix(2.453557085824286,0,0,-2.453557085824286,-746.7689410488993,1255.583516388031) ">
			<g stroke="null">
				<path fill="#000000" fill-rule="evenodd" d="m315.52606,497.78717c-0.10501,0 -0.71301,-1.478 -0.71301,-1.478c0,0 1.004,-0.95102 1.05701,-1.05701c0.05301,-0.10501 1.18698,1.29599 1.18698,1.55899c0,0.263 -1.42599,0.97601 -1.53098,0.97601"/>
			</g>
			<g stroke="null">
				<path fill="#000000" fill-rule="evenodd" d="m353.38251,489.70517c-1.35901,-1.457 -3.55801,-1.36002 -4.92502,-0.08502c-0.92999,0.867 -1.043,2.12003 -0.12299,3.10703c0.15601,0.16699 0.39999,0.36499 0.70099,0.47098c0.082,0.02802 0.173,0.05103 0.26999,0.06302l0.03201,0.004l-0.00699,0.03198c-0.18799,0.88202 0.38599,1.85303 0.724,2.21503c1.35999,1.45798 3.56598,1.35199 4.92499,0.08499c0.939,-0.87601 1.04001,-2.12302 0.12201,-3.10699c-0.15601,-0.16702 -0.39902,-0.366 -0.70001,-0.47101c-0.08099,-0.02802 -0.172,-0.05099 -0.26801,-0.06302l-0.03198,-0.00397l0.00699,-0.03201c0.19101,-0.88501 -0.38998,-1.85501 -0.72598,-2.215"/>
			</g>
		</g>
		<g stroke="null" transform="matrix(2.453557085824286,0,0,-2.453557085824286,-746.7689410488993,1255.583516388031) ">
			<g stroke="null">
				<path fill="#ffe400" fill-rule="evenodd" d="m352.85498,490.19705c0.44501,0.47699 0.849,1.49298 0.28299,2.021c-0.37299,0.34799 -0.73599,0.466 -1.09299,0.79999c-0.298,0.27802 -0.29901,0.66501 -0.07001,0.91101c0.215,0.23099 0.646,0.49899 0.92902,0.23499c0.38696,-0.362 0.41797,-1.03098 0.79797,-1.38498c0.276,-0.258 0.664,-0.02002 0.87201,0.203c0.633,0.67798 0.57599,1.46899 -0.08701,2.08798c-1.103,1.02802 -2.849,1.082 -3.905,-0.04999c-0.44501,-0.47702 -0.84198,-1.5 -0.28299,-2.021c0.37997,-0.35501 0.922,-0.45801 1.17999,-0.90002c0.20801,-0.35797 0.16699,-0.54999 -0.01001,-0.81799c-0.17899,-0.27298 -0.65298,-0.492 -0.936,-0.228c-0.37997,0.35501 -0.41098,1.02402 -0.79797,1.38501c-0.276,0.25699 -0.664,0.01999 -0.87302,-0.203c-0.63199,-0.67801 -0.56799,-1.47601 0.08801,-2.08801c1.10999,-1.035 2.849,-1.08298 3.905,0.05002"/>
			</g>
			<g stroke="null">
				<path fill="#000000" fill-rule="evenodd" d="m345.94098,504.47406c0.52899,-0.12201 1.073,-0.48102 1.34,-0.90802c0.61801,-0.98898 -0.80499,-3.28699 -2.23801,-2.73499c-1.073,0.414 -1.27499,1.55499 -0.909,2.65201c0.32199,0.965 1.18201,1.13498 1.80701,0.991"/>
			</g>
			<g stroke="null">
				<path fill="#000000" fill-rule="evenodd" d="m345.87689,499.70847c-0.20801,-1.19702 -1.37799,-3.27802 -2.992,-3.12399c-0.84201,0.07999 -2.702,0.931 -1.25101,2.95999c0.21799,0.306 0.42801,0.52698 0.65701,0.73599c0.19998,0.181 0.427,0.36301 0.72198,0.61902c1.13202,0.98499 3.311,1.37598 2.86401,-1.19101"/>
			</g>
			<g stroke="null">
				<path fill="#ffe400" fill-rule="evenodd" d="m344.9054,503.22565c-0.30002,-0.90002 -0.056,-1.448 0.42999,-1.63501c0.58401,-0.22601 1.52899,1.108 1.25598,1.54501c-0.27298,0.43597 -1.38599,0.98999 -1.68597,0.09"/>
			</g>
			<g stroke="null">
				<path fill="#000000" fill-rule="evenodd" d="m347.74689,493.40976c-2.58801,0.50299 -3.534,2.633 -3.17502,4.47699c0.45602,2.34799 2.53802,3.16699 4.39801,2.80499c1.021,-0.224 2.40601,-1.28098 2.01102,-3.31198c-0.06403,-0.332 -0.27701,-0.75 -0.55002,-1.07202c-0.061,-0.07098 -0.147,-0.16299 -0.25598,-0.25598l-0.298,-0.25201l0.05298,-0.388l0.00601,-0.05298c0.02899,-0.34302 -0.043,-0.73602 -0.20901,-1.03802c-0.19199,-0.34799 -0.32999,-0.55899 -0.53,-0.70398c-0.39798,-0.29102 -0.896,-0.315 -1.44998,-0.207"/>
			</g>
			<g stroke="null">
				<path fill="#ffe400" fill-rule="evenodd" d="m348.8201,499.99475c-1.569,0.30499 -3.18402,-0.37201 -3.548,-2.24402c-0.29199,-1.5 0.45001,-3.22098 2.61099,-3.64099c0.94202,-0.18301 1.03302,0.21899 1.21899,0.55499c0.185,0.336 0.20102,1.005 -0.173,1.065c-0.37399,0.05899 -0.75397,-0.05798 -1.15097,0.01901c-0.60901,0.11899 -1.24902,1.42099 -0.57602,1.29001c0.379,-0.07401 1.06299,-0.48203 1.909,-0.64603c0.58401,-0.11398 1.09601,0.74402 1.17001,1.12302c0.306,1.577 -0.733,2.32401 -1.461,2.479"/>
			</g>
			<g stroke="null">
				<path fill="#462682" fill-rule="evenodd" d="m347.58789,498.87756c-0.246,-0.37 -0.18802,-1.11801 0.31198,-1.18201c0.5,-0.065 1.42801,0.45499 1.056,1.03201c-0.35199,0.54797 -0.995,0.70999 -1.36798,0.14999"/>
			</g>
			<g stroke="null">
				<path fill="#000000" fill-rule="nonzero" d="m329.45938,500.49887c-0.05701,0.09 -0.23901,0.46698 -0.23901,0.46698c-0.25,0.57001 -0.36301,1.19302 -0.341,1.80801c0.08801,2.53101 2.12601,3.733 4.13702,3.66299c1.09698,-0.065 2.71597,-0.93399 2.63898,-3.121c-0.01199,-0.35199 -0.164,-0.82199 -0.39499,-1.203c-0.05701,-0.09299 -0.14099,-0.215 -0.25299,-0.34l-0.27499,-0.30701l0.129,-0.38998c0.01099,-0.03299 0.01999,-0.06201 0.026,-0.086c0.08798,-0.35202 0.07697,-0.772 -0.04501,-1.112c-0.14102,-0.39102 -0.24802,-0.63199 -0.431,-0.81702c-0.358,-0.35898 -0.86502,-0.46799 -1.46399,-0.44699c-1.56,0.05499 -2.68903,0.73099 -3.35101,1.65601c0,0 -0.08002,0.13901 -0.13699,0.229"/>
			</g>
			<g stroke="null">
				<path stroke="#000000" fill="none" stroke-width="0.095" d="m329.45938,500.49887c-0.05701,0.09 -0.23901,0.46698 -0.23901,0.46698c-0.25,0.57001 -0.36301,1.19302 -0.341,1.80801c0.08801,2.53101 2.12601,3.733 4.13702,3.66299c1.09698,-0.065 2.71597,-0.93399 2.63898,-3.121c-0.01199,-0.35199 -0.164,-0.82199 -0.39499,-1.203c-0.05701,-0.09299 -0.14099,-0.215 -0.25299,-0.34l-0.27499,-0.30701l0.129,-0.38998c0.01099,-0.03299 0.01999,-0.06201 0.026,-0.086c0.08798,-0.35202 0.07697,-0.772 -0.04501,-1.112c-0.14102,-0.39102 -0.24802,-0.63199 -0.431,-0.81702c-0.358,-0.35898 -0.86502,-0.46799 -1.46399,-0.44699c-1.56,0.05499 -2.68903,0.73099 -3.35101,1.65601c0,0 -0.08002,0.13901 -0.13699,0.229z" stroke-miterlimit="3.864"/>
			</g>
			<g stroke="null">
				<path fill="#000000" fill-rule="nonzero" d="m325.17029,499.37457c-0.104,0.02499 -0.49701,0.16998 -0.49701,0.16998c-0.57498,0.237 -1.08899,0.60602 -1.50101,1.06302c-1.69498,1.883 -1.06299,4.16299 0.43201,5.50998c0.83398,0.715 2.60202,1.21402 4.06601,-0.41199c0.23599,-0.26199 0.45401,-0.70599 0.55099,-1.13998c0.02399,-0.10703 0.04901,-0.25302 0.056,-0.42102l0.01498,-0.41101l0.36401,-0.19098c0.03,-0.017 0.056,-0.03201 0.078,-0.04501c0.30701,-0.19098 0.59201,-0.50101 0.73898,-0.82999c0.17102,-0.38 0.26102,-0.62701 0.25803,-0.88702c-0.008,-0.50699 -0.29703,-0.93799 -0.74301,-1.33899c-1.16,-1.04498 -2.44101,-1.34198 -3.56,-1.13599c0,0 -0.15399,0.04401 -0.258,0.069"/>
			</g>
			<g stroke="null">
				<path stroke="#000000" fill="none" stroke-width="0.095" d="m325.17029,499.37457c-0.104,0.02499 -0.49701,0.16998 -0.49701,0.16998c-0.57498,0.237 -1.08899,0.60602 -1.50101,1.06302c-1.69498,1.883 -1.06299,4.16299 0.43201,5.50998c0.83398,0.715 2.60202,1.21402 4.06601,-0.41199c0.23599,-0.26199 0.45401,-0.70599 0.55099,-1.13998c0.02399,-0.10703 0.04901,-0.25302 0.056,-0.42102l0.01498,-0.41101l0.36401,-0.19098c0.03,-0.017 0.056,-0.03201 0.078,-0.04501c0.30701,-0.19098 0.59201,-0.50101 0.73898,-0.82999c0.17102,-0.38 0.26102,-0.62701 0.25803,-0.88702c-0.008,-0.50699 -0.29703,-0.93799 -0.74301,-1.33899c-1.16,-1.04498 -2.44101,-1.34198 -3.56,-1.13599c0,0 -0.15399,0.04401 -0.258,0.069z" stroke-miterlimit="3.864"/>
			</g>
			<g stroke="null">
				<path fill="#ffe400" fill-rule="evenodd" d="m332.97757,505.72476c-1.716,0.06 -3.314,-0.92999 -3.38602,-2.97601c-0.05698,-1.63998 1.01901,-3.33899 3.38,-3.422c1.03101,-0.03601 1.06,0.405 1.20001,0.793c0.13898,0.388 0.04498,1.10001 -0.362,1.10001c-0.40701,0 -0.79001,-0.18701 -1.224,-0.172c-0.66602,0.02301 -1.56302,1.29599 -0.82703,1.26999c0.414,-0.01401 1.20801,-0.332 2.13303,-0.36398c0.638,-0.022 1.03699,0.974 1.05099,1.38699c0.06,1.724 -1.16699,2.34201 -1.965,2.384"/>
			</g>
			<g stroke="null">
				<path fill="#462682" fill-rule="evenodd" d="m332.02039,503.73676c-0.14902,-0.44601 0.491,-0.901 0.97101,-0.88501c0.47998,0.01501 1.05499,0.20499 1.00397,0.82901c-0.08499,1.04999 -1.74298,0.75 -1.97498,0.056"/>
			</g>
		</g>
		<g stroke="null" transform="matrix(2.453557085824286,0,0,-2.453557085824286,-746.7689410488993,1255.583516388031) ">
			<g stroke="null">
				<path fill="#000000" fill-rule="evenodd" d="m322.9621,494.87918c-1.76001,-0.84601 -5.93802,-1.47601 -7.763,2.953c-1.79102,4.34698 0.59201,5.98099 2.15601,6.77698c1.48297,0.75601 3.98199,0.80502 4.83499,-0.349c0.28598,-0.388 0.306,-0.832 0.267,-1.168c-0.039,-0.336 -0.14902,-0.672 -0.245,-0.94l-0.367,-1.00598l0.91498,-0.11499c0.06702,-0.009 0.13101,-0.017 0.17801,-0.02502c0.34601,-0.05698 0.79901,-0.13699 1.22501,-0.332c0.44901,-0.20599 0.871,-0.539 1.16602,-1.08398c1.23398,-2.28 -0.83801,-3.97601 -2.367,-4.711"/>
			</g>
			<g stroke="null">
				<path fill="#000000" fill-rule="evenodd" d="m311.66217,495.80344c0.129,-0.57401 0.388,-1.16202 0.659,-1.49402c0.66101,-0.811 1.21301,-0.94 1.811,-0.73199c0.021,0.022 0.09198,0.091 0.12399,0.16299c0.07001,0.15402 0.12201,0.37402 0.168,0.67102c0.04898,0.31299 0.08401,0.63699 0.13501,0.92499c0.03799,0.207 0.09198,0.45599 0.19498,0.68802c-0.534,-0.51001 -1.314,-0.84601 -2.08398,-0.71103c-0.461,0.08102 -0.78101,0.26901 -1.008,0.49002m3.55899,0.82098c0.45401,0.33301 1.01498,0.25 1.491,-0.02698c0.48001,-0.27802 0.987,-0.79602 1.46701,-1.30502c0.862,-0.91498 0.51801,-2.10498 0.16098,-2.84c-0.39297,-0.81 -1.01797,-1.55298 -1.452,-1.948c-0.202,-0.18399 -0.52499,-0.508 -0.953,-0.828c-0.44699,-0.33499 -1.03101,-0.685 -1.73898,-0.86899c-1.492,-0.39001 -3.31302,0.01401 -5.26901,2.14398c-4.05399,4.41501 -1.194,8.13602 0.15701,9.45401c0.87,0.84702 1.905,0.89999 2.88699,0.561c0.91998,-0.31702 1.82602,-0.983 2.608,-1.61301c1.05801,-0.85199 1.077,-1.93701 0.642,-2.729"/>
			</g>
			<g stroke="null">
				<path fill="#ffe400" fill-rule="evenodd" d="m312.74359,496.01636c1.25098,-0.22 2.978,1.53598 1.41699,2.79199c-1.561,1.25699 -3.254,2.34702 -4.565,1.06799c-1.31201,-1.27899 -3.76599,-4.53699 -0.164,-8.45999c3.60199,-3.92401 6.19299,-1.06699 6.96201,-0.367c0.76901,0.70001 2.284,2.71399 1.28799,3.771c-0.996,1.056 -1.715,1.70401 -2.18701,1.039c-0.47198,-0.66599 -0.151,-2.63199 -1.09097,-2.95898c-0.939,-0.32602 -1.802,-0.02002 -2.617,0.979c-0.815,0.99899 -1.30099,3.26199 -0.52301,3.45898c0.77798,0.19601 0.229,-1.10199 1.48001,-1.32199"/>
			</g>
		</g>
		<g stroke="null" transform="matrix(2.453557085824286,0,0,-2.453557085824286,-746.7689410488993,1255.583516388031) ">
			<g stroke="null">
				<path fill="#ffe400" fill-rule="evenodd" d="m324.07111,505.57764c-1.276,-1.14902 -1.73801,-2.97101 -0.36902,-4.49301c1.09799,-1.21899 3.05301,-1.694 4.80902,-0.11301c0.76599,0.69 0.48099,1.02701 0.31198,1.40302c-0.16898,0.37698 -0.73199,0.823 -1.02399,0.53998c-0.293,-0.28198 -0.43802,-0.68298 -0.76102,-0.97397c-0.495,-0.44601 -2.02499,-0.15302 -1.478,0.34c0.30801,0.27698 1.10001,0.59998 1.78802,1.21899c0.474,0.427 0.069,1.42099 -0.20801,1.729c-1.15402,1.28098 -2.466,0.87299 -3.069,0.349"/>
			</g>
			<g stroke="null">
				<path fill="#462682" fill-rule="evenodd" d="m324.2435,503.41254c0.189,-0.43802 1.02301,-0.26401 1.40201,0.12299c0.37799,0.38699 0.71298,0.974 0.23898,1.383c-0.79999,0.68903 -1.935,-0.82599 -1.64099,-1.50598"/>
			</g>
			<g stroke="null">
				<path fill="#ffe400" fill-rule="evenodd" d="m343.41721,500.32907c1.09598,0.953 1.85999,0.67798 1.659,-0.48102c-0.202,-1.15997 -1.22101,-2.53998 -2.11401,-2.45398c-0.668,0.064 -1.51898,0.48599 -0.66699,1.67798c0.358,0.50101 0.54401,0.755 1.12201,1.25702"/>
			</g>
			<g stroke="null">
				<path fill="#ffe400" fill-rule="nonzero" d="m335.38586,502.03925c0.08798,0.32199 0.427,0.86798 0.427,0.86798c0.47598,0.72702 0.79999,1.09601 0.89999,1.53302c0.11099,0.48398 0.09,0.69699 0.09,0.69699c0.01599,0.33002 0.02701,0.73001 0.05899,0.992c0.04102,0.43399 0.21503,1.13 0.21503,1.13c0.18298,0.77899 0.48398,1.13699 0.48398,1.13699c0.26602,0.44998 0.68701,0.72299 1.25702,0.72299c0.84299,0 1.49799,-0.66299 1.49799,-1.48199c0.01001,-0.216 -0.03601,-0.46701 -0.198,-0.759c-0.44101,-0.80099 -0.58301,-0.957 -0.60599,-0.992c-0.67801,-1.086 -0.64801,-0.991 -0.84302,-1.59698c-0.082,-0.22702 -0.13599,-0.42502 -0.09201,-0.621c0.07303,-0.33301 0.35202,-0.46301 0.56302,-0.47501c0.08499,-0.00601 0.19699,0.009 0.323,0.03601c0.04099,0.009 0.086,0.021 0.133,0.026c0.741,0.168 2.034,-0.01202 2.34,-1.14603c0.02899,-0.09799 0.064,-0.23999 0.09,-0.41898l0.005,-0.10602c0.05899,-0.41 0.034,-1.11301 -0.25998,-1.92499c-0.06003,-0.13 -0.48203,-1.03101 -0.83502,-1.362l-0.02298,-0.021c0,0 -0.11301,-0.13602 -0.27802,-0.27802c-0.17999,-0.15399 -0.44299,-0.345 -0.77499,-0.49298c-1.69101,-0.76602 -3.89001,-0.15002 -4.44202,1.57498c-0.62799,1.58401 -0.03198,2.95901 -0.03198,2.95901"/>
			</g>
			<g stroke="null">
				<path fill="#462682" fill-rule="evenodd" d="m340.26437,499.89267c-0.45599,-0.47501 -1.47299,-0.987 -2.14001,-0.349c-0.66599,0.63699 -0.74298,2.108 -0.039,2.263c0.70401,0.15598 3.54001,-0.49701 2.17902,-1.914"/>
			</g>
			<g stroke="null">
				<path fill="#ffe400" fill-rule="evenodd" d="m317.68988,503.95184c-1.38602,-0.70602 -3.392,-1.996 -1.80902,-5.83902c1.58401,-3.84198 5.164,-3.336 6.76102,-2.56799c1.53,0.73502 2.91501,2.073 2.03799,3.69299c-0.83301,1.54001 -2.978,0.61502 -3.46799,1.85901c-0.21503,0.543 0.901,2.02499 0.384,2.72501c-0.517,0.69901 -2.52002,0.836 -3.90601,0.13"/>
			</g>
			<g stroke="null">
				<path fill="#462682" fill-rule="evenodd" d="m319.19656,500.54736c0.58398,0.672 0.45099,2.064 -0.27502,2.25299c-1.03799,0.26901 -1.81299,-1.19601 -1.52798,-1.67499c0.285,-0.478 1.21899,-1.25 1.80301,-0.578"/>
			</g>
			<g stroke="null">
				<path fill="#462682" fill-rule="evenodd" d="m321.85898,497.90918c-0.20999,-0.58102 -0.88602,-1.40802 -1.70001,-1.116c-0.814,0.293 -1.44098,1.52298 -0.897,1.92499c0.54401,0.40201 3.22299,0.92401 2.59702,-0.80899"/>
			</g>
			<g stroke="null">
				<path fill="#000000" fill-rule="nonzero" d="m326.69278,491.34467l0,-0.867l0.56299,0c0,0 0.01102,0 0.03,0.00101c0.01901,0 0.04602,0.00098 0.078,0.004c0.061,0.00598 0.142,0.017 0.22,0.04401c0.07001,0.02298 0.13901,0.05899 0.19199,0.11197c0.02002,0.02002 0.03702,0.04102 0.05002,0.06201c0.04501,0.07001 0.056,0.14099 0.05798,0.181c0.00101,0.017 0.00101,0.02701 0.00101,0.02701c0,0 0.00101,0.008 0,0.021c0,0.017 -0.00198,0.04999 -0.01099,0.08401c-0.01102,0.04199 -0.03101,0.08899 -0.06601,0.133c-0.00699,0.008 -0.01401,0.017 -0.022,0.02399c-0.01498,0.01599 -0.03198,0.03101 -0.04999,0.04401c-0.03101,0.02301 -0.06601,0.04199 -0.10501,0.05899c-0.04999,0.022 -0.10699,0.03799 -0.16901,0.05002c-0.03198,0.00598 -0.06598,0.01099 -0.10001,0.01398c-0.02197,0.00201 -0.04297,0.00302 -0.06497,0.005c-0.01901,0.00101 -0.04001,0.00201 -0.06,0.00201c-0.19901,0 -0.54401,0 -0.54401,0"/>
			</g>
			<g stroke="null">
				<path fill="#000000" fill-rule="nonzero" d="m326.69278,492.66296l0,-0.82199l0.27298,0c0,0 0.01801,0 0.04202,0.00098c0.01898,0 0.04099,0.00201 0.061,0.00201c0.056,0.005 0.134,0.013 0.21198,0.034c0.01501,0.004 0.03,0.009 0.04501,0.01498c0.061,0.021 0.11899,0.05301 0.164,0.09702c0.03699,0.03601 0.06,0.07501 0.07599,0.11401c0.01901,0.047 0.026,0.09198 0.02899,0.12399c0.00201,0.02798 0.00201,0.04599 0.00201,0.04599c0,0 0.00101,0.01401 0,0.035c-0.00201,0.03601 -0.01001,0.09399 -0.03799,0.14999c-0.01401,0.02701 -0.03201,0.05301 -0.05801,0.078c-0.03,0.03 -0.06699,0.05402 -0.10699,0.07098c-0.077,0.03403 -0.16498,0.04703 -0.23898,0.05203c-0.03201,0.00299 -0.061,0.00299 -0.086,0.00299l-0.37601,0z"/>
			</g>
			<path fill="#000000" fill-rule="nonzero" d="m324.89398,493.77765l4.689,0l0,-4.41299l-4.689,0l0,4.41299zm1.23001,-0.61798l0,-3.17801l1.19598,0c0,0 0.58301,-0.01599 0.905,0.306c0.263,0.26199 0.24402,0.565 0.24402,0.565c0,0 0.01898,0.31699 -0.224,0.56c-0.207,0.207 -0.47101,0.26199 -0.47101,0.26199c0,0 0.11899,0.056 0.211,0.147c0.043,0.043 0.19501,0.181 0.19501,0.51599c0,0.33701 -0.224,0.53101 -0.224,0.53101c0,0 -0.246,0.29102 -0.80099,0.29102l-1.03101,0z"/>
		</g>
		<g stroke="null" transform="matrix(0.38086216212355883,0,0,-0.38086216212355883,39.039617159858274,131.2137091265624) "/>
	</g>
</svg>