<svg xmlns="http://www.w3.org/2000/svg" width="128" height="64"><path d="M62.096 27.22c-.436-3.078-3.38-5.417-6.762-5.417-6.112 0-8.41 5.2-8.41 10.618 0 5.16 2.298 10.36 8.41 10.36 4.16 0 6.5-2.86 7.018-6.93h6.592c-.694 7.71-6.026 12.65-13.61 12.65-9.58 0-15.215-7.15-15.215-16.08 0-9.18 5.63-16.34 15.21-16.34 6.8 0 12.52 3.99 13.35 11.14h-6.59zm8.887-10.402h14.564c5.894 0 9.88 1.905 9.88 7.67 0 3.036-1.513 5.16-4.202 6.458 3.77 1.084 5.68 3.988 5.68 7.846 0 6.288-5.332 8.972-10.925 8.972H70.983V16.818zm6.806 12.526h6.89c2.38 0 4.16-1.087 4.16-3.687 0-2.946-2.26-3.552-4.68-3.552h-6.37v7.24zm0 13.13h7.28c2.68 0 5.02-.866 5.02-4.07 0-3.164-2-4.424-4.9-4.424h-7.41v8.494zm27.48-4.984c0 4.118 3.21 5.72 6.85 5.72 2.38 0 6.02-.692 6.02-3.855 0-3.337-4.64-3.9-9.19-5.116-4.6-1.22-9.24-3-9.24-8.8 0-6.33 5.98-9.37 11.573-9.37 6.455 0 12.396 2.81 12.396 9.97h-6.59c-.214-3.73-2.86-4.68-6.113-4.68-2.16 0-4.68.91-4.68 3.51 0 2.38 1.476 2.68 9.234 4.68 2.258.56 9.19 1.99 9.19 9.01 0 5.676-4.464 9.923-12.872 9.923-6.847 0-13.26-3.38-13.176-11.01h6.587zM3.26 31.996c0-9.21 7.465-16.675 16.674-16.675 9.215 0 16.68 7.47 16.68 16.68 0 9.22-7.465 16.69-16.68 16.69-9.207 0-16.67-7.47-16.67-16.68m32.34 0c-2.526-5.51-8.394-9.943-15.67-9.943-7.27 0-13.135 4.43-15.663 9.944 2.53 5.51 8.4 9.94 15.67 9.94 7.277 0 13.14-4.43 15.67-9.943m-24.59-.085c0-4.88 3.957-8.84 8.837-8.84 4.884 0 8.84 3.96 8.84 8.84s-3.956 8.84-8.84 8.84c-4.88 0-8.833-3.96-8.833-8.84" fill="#3381CC"/></svg>