<svg xmlns="http://www.w3.org/2000/svg" width="128" height="64"><g fill="#3381cc"><path d="M11.947 12.356C5.372 12.356.03 17.848.03 24.623c0 6.774 5.342 12.266 11.917 12.266 6.576 0 11.903-5.492 11.903-12.266 0-6.775-5.327-12.267-11.903-12.267zm.238 5.357c7.89.087 10.938 6.784 10.938 6.784s-3.312 7.035-10.938 7.035c-8.49 0-11.511-7.035-11.511-7.035s3.462-6.873 11.511-6.784z" fill-rule="evenodd"/><path d="M18.574 24.622c0 3.596-2.97 6.512-6.632 6.512-3.663 0-6.633-2.916-6.633-6.512 0-3.597 2.97-6.513 6.633-6.513s6.632 2.916 6.632 6.513z" fill-rule="evenodd"/><path d="M37.893 35.645c-1.54 0-2.989-.271-4.345-.814a10.636 10.636 0 0 1-3.529-2.278 10.936 10.936 0 0 1-2.373-3.47c-.585-1.337-.878-2.79-.878-4.358v-.061c0-1.529.288-2.961.863-4.299a10.959 10.959 0 0 1 2.373-3.5c1.006-.995 2.203-1.774 3.59-2.337 1.387-.563 2.902-.845 4.546-.845 1.11 0 2.116.106 3.02.317.904.21 1.731.513 2.48.905a9.93 9.93 0 0 1 2.035 1.402c.606.543 1.554 1.997 2.027 3.01l-4.908 2.18c-.617-.765-1.295-1.369-2.035-1.81-.74-.443-1.633-.664-2.68-.664a4.87 4.87 0 0 0-3.699 1.629 5.545 5.545 0 0 0-1.063 1.78 6.13 6.13 0 0 0-.385 2.172v.06c0 .784.128 1.523.385 2.217a5.516 5.516 0 0 0 1.063 1.795 4.87 4.87 0 0 0 3.698 1.63c.555 0 1.063-.06 1.526-.181.462-.12.883-.297 1.263-.528a6.9 6.9 0 0 0 1.079-.815 12.45 12.45 0 0 0 1-1.04l4.828 2.317c-.473.93-1.401 2.137-2.007 2.72a9.645 9.645 0 0 1-2.065 1.508c-.77.423-1.633.755-2.589.996-.955.242-2.028.362-3.22.362zm20.881-5.129c.924 0 1.633-.165 2.126-.497.493-.332.74-.81.74-1.433v-.06c0-.584-.237-1.047-.71-1.388-.472-.342-1.212-.513-2.218-.513h-4.56v3.891zm-.864-7.994c.925 0 1.629-.15 2.112-.452.482-.302.724-.764.724-1.388v-.06c0-.584-.226-1.031-.678-1.343-.452-.312-1.13-.468-2.034-.468h-3.883v3.711zm-9.583-8.417H59.39c1.356 0 2.517.16 3.482.483.966.322 1.767.794 2.404 1.418.431.422.77.915 1.017 1.478.247.563.37 1.207.37 1.931v.06c0 1.227-.313 2.218-.94 2.972s-1.423 1.332-2.388 1.734c1.315.423 2.357 1.031 3.127 1.826.77.794 1.156 1.905 1.156 3.333v.06c0 1.83-.714 3.259-2.142 4.284-1.427 1.026-3.436 1.539-6.024 1.539H48.327z"/><path d="M76.897 35.585c-1.931 0-3.765-.292-5.5-.875-1.737-.583-3.027-1.13-4.363-2.298l3.083-4.218c2.157 1.69 4.489 2.534 6.995 2.534.802 0 1.413-.126 1.834-.377.421-.252.632-.609.632-1.071v-.06c0-.222-.051-.418-.154-.589-.103-.17-.293-.337-.57-.498a5.892 5.892 0 0 0-1.11-.467 19.097 19.097 0 0 0-1.803-.468 40.225 40.225 0 0 1-3.205-.86c-.986-.311-1.844-.714-2.573-1.207a5.519 5.519 0 0 1-1.726-1.84c-.42-.734-.632-1.644-.632-2.73v-.06c0-.986.19-1.89.57-2.715a6.04 6.04 0 0 1 1.665-2.142c.73-.603 1.607-1.07 2.635-1.403 1.027-.332 2.188-.498 3.482-.498 1.85 0 3.498.236 4.947.709a12.574 12.574 0 0 1 3.929 2.097l-2.99 4.133a12.22 12.22 0 0 0-3.035-1.554c-1.038-.352-2.039-.528-3.005-.528-.719 0-1.258.131-1.618.393-.36.261-.539.583-.539.964v.061c0 .241.056.452.17.634.112.18.307.346.585.497.277.15.657.302 1.14.453.483.15 1.094.307 1.834.467 1.233.262 2.347.569 3.343.92.997.353 1.844.78 2.543 1.283a5.155 5.155 0 0 1 1.602 1.825c.37.714.555 1.564.555 2.55v.06c0 1.086-.21 2.051-.632 2.896a6.238 6.238 0 0 1-1.772 2.156c-.76.594-1.674 1.046-2.742 1.358-1.069.312-2.26.468-3.575.468zM7.469 48.092l-2.506-5.905-2.52 5.905zm-3.04-7.296h1.097l4.303 10.666H8.811l-1.034-2.533H2.133l-1.078 2.533h-1.17zm6.401.075H12v9.486h5.836v1.105H10.83zm8.062 0h1.17v9.486h5.836v1.105h-7.006zm24.764 10.772c-.75 0-1.442-.14-2.074-.423a5.122 5.122 0 0 1-1.644-1.158 5.307 5.307 0 0 1-1.089-1.732 5.777 5.777 0 0 1-.392-2.133v-.03c0-.747.13-1.453.392-2.119a5.488 5.488 0 0 1 1.089-1.747 5.064 5.064 0 0 1 1.659-1.18 5.087 5.087 0 0 1 2.103-.431c.474 0 .901.04 1.282.12.38.081.733.195 1.059.341.326.147.627.323.903.53.277.206.543.436.8.688l-.8.878a6.555 6.555 0 0 0-1.43-1.044c-.508-.273-1.117-.409-1.829-.409-.572 0-1.103.111-1.592.333-.489.222-.913.53-1.274.923-.36.393-.641.855-.844 1.384a4.725 4.725 0 0 0-.304 1.702v.03c0 .616.101 1.188.304 1.718.203.53.484.99.844 1.384.36.394.785.704 1.274.93.489.227 1.02.34 1.592.34.712 0 1.324-.133 1.837-.4a6.416 6.416 0 0 0 1.511-1.127l.77.772a7.472 7.472 0 0 1-.837.763 5.161 5.161 0 0 1-2.021.961c-.385.09-.815.136-1.29.136zm10.082 0c-.75 0-1.442-.14-2.074-.423a5.122 5.122 0 0 1-1.644-1.158 5.307 5.307 0 0 1-1.088-1.732 5.777 5.777 0 0 1-.393-2.133v-.03c0-.747.13-1.453.393-2.119a5.488 5.488 0 0 1 1.088-1.747 5.064 5.064 0 0 1 1.66-1.18 5.087 5.087 0 0 1 2.103-.431c.474 0 .9.04 1.281.12.38.081.733.195 1.06.341.325.147.626.323.903.53.276.206.543.436.8.688l-.8.878a6.555 6.555 0 0 0-1.43-1.044c-.508-.273-1.118-.409-1.83-.409-.572 0-1.103.111-1.591.333-.49.222-.914.53-1.274.923s-.642.855-.845 1.384a4.725 4.725 0 0 0-.303 1.702v.03c0 .616.1 1.188.303 1.718.203.53.484.99.845 1.384.36.394.785.704 1.274.93.488.227 1.02.34 1.592.34.711 0 1.323-.133 1.837-.4a6.416 6.416 0 0 0 1.51-1.127l.77.772a7.472 7.472 0 0 1-.836.763 5.161 5.161 0 0 1-2.022.961c-.385.09-.815.136-1.289.136zm5.599-10.772h7.495v1.09h-6.325v3.615h5.658v1.09h-5.658v3.707h6.399v1.089h-7.57zm12.027 10.742c-.83 0-1.587-.138-2.273-.416-.687-.277-1.34-.704-1.963-1.278l.726-.878c.543.505 1.091.88 1.644 1.127.553.247 1.19.37 1.91.37.702 0 1.262-.168 1.682-.506.42-.338.63-.769.63-1.293v-.03c0-.243-.04-.462-.12-.659a1.35 1.35 0 0 0-.414-.537c-.197-.161-.471-.308-.822-.439a10.33 10.33 0 0 0-1.34-.378 10.586 10.586 0 0 1-1.548-.454 3.826 3.826 0 0 1-1.089-.62 2.276 2.276 0 0 1-.637-.847c-.138-.323-.207-.701-.207-1.135v-.03a2.643 2.643 0 0 1 .962-2.065 3.442 3.442 0 0 1 1.082-.606 4.076 4.076 0 0 1 1.363-.219c.76 0 1.424.109 1.992.325a6.042 6.042 0 0 1 1.652.976l-.682.923c-.484-.403-.97-.696-1.459-.877a4.36 4.36 0 0 0-1.533-.273c-.682 0-1.22.164-1.615.492-.395.328-.592.734-.592 1.218v.03c0 .252.04.477.118.673.08.197.222.379.43.545.207.166.494.318.859.454s.834.265 1.407.386c1.156.262 2.007.625 2.556 1.09.548.463.822 1.098.822 1.905v.03c0 .454-.09.865-.267 1.233a2.837 2.837 0 0 1-.733.946 3.291 3.291 0 0 1-1.119.605 4.577 4.577 0 0 1-1.422.212zm8.977 0c-.829 0-1.587-.138-2.273-.416-.686-.277-1.34-.704-1.963-1.278l.726-.878c.543.505 1.091.88 1.644 1.127.553.247 1.19.37 1.911.37.701 0 1.261-.168 1.681-.506.42-.338.63-.769.63-1.293v-.03c0-.243-.04-.462-.119-.659a1.35 1.35 0 0 0-.415-.537c-.197-.161-.471-.308-.822-.439a10.33 10.33 0 0 0-1.34-.378 10.586 10.586 0 0 1-1.548-.454 3.826 3.826 0 0 1-1.089-.62 2.277 2.277 0 0 1-.637-.847c-.138-.323-.207-.701-.207-1.135v-.03a2.643 2.643 0 0 1 .963-2.065 3.442 3.442 0 0 1 1.081-.606 4.08 4.08 0 0 1 1.363-.219c.76 0 1.424.109 1.992.325a6.042 6.042 0 0 1 1.652.976l-.682.923c-.484-.403-.97-.696-1.459-.877-.488-.182-1-.273-1.533-.273-.681 0-1.22.164-1.614.492-.395.328-.593.734-.593 1.218v.03c0 .252.04.477.119.673.079.197.222.379.43.545.206.166.493.318.858.454.366.136.835.265 1.408.386 1.155.262 2.007.625 2.555 1.09.548.463.822 1.098.822 1.905v.03c0 .454-.09.865-.267 1.233a2.837 2.837 0 0 1-.733.946 3.291 3.291 0 0 1-1.118.605 4.577 4.577 0 0 1-1.423.212zm-44.462-3.521l-2.506-5.905-2.52 5.905zm-3.04-7.296h1.097l4.424 10.666h-1.14l-1.033-2.533h-5.643l-1.08 2.533h-1.048z"/><path d="M103.656 13.333l-8.7 19.751h13.537l-4.213-19.751zm9.128 0l8.27 37.92h.702c3.512 0 6.359-2.953 6.359-6.635V20.007c0-3.682-2.847-6.674-6.359-6.674zM92.003 39.796l-2.068 3.974v.848c0 3.682 2.808 6.635 6.32 6.635h16.15l-2.458-11.457H97.542z" fill-rule="evenodd"/></g></svg>