<svg xmlns="http://www.w3.org/2000/svg" width="128" height="64"><path d="M8.315 38.93h5.637v-3.065h-5.6c-2.092 0-4.138-1.675-4.138-4.163 0-2.26 1.788-4.357 4.213-4.357 2.29 0 4.59 1.695 5.392 3.054v-4.11c-.78-.94-3.1-2.03-5.46-2.03-4.29 0-7.36 3.68-7.36 7.38 0 3.9 3.23 7.29 7.31 7.29zm10.703 0h-3.2V18.136h3.2v6.932h2.466c4.107 0 7.065 3.06 7.065 7.2v6.664h-3.14V32.4c0-2.21-1.36-4.267-4.14-4.267h-2.26V38.93zm18.654-14.536c-4.586 0-7.465 3.657-7.465 7.532 0 3.84 3.088 7.14 7.74 7.14h6.865V31.6c0-3.31-2.46-7.206-7.14-7.206zm.02 3.07c2.18 0 3.92 1.913 3.92 4.137V36H37.68c-2.578 0-4.27-1.966-4.27-4.19 0-2.126 1.6-4.346 4.283-4.346zM84.87 38.93h-3.2V25.068h5.604c4.107 0 7.065 3.06 7.065 7.2v6.664H91.2V32.4c0-2.21-1.358-4.267-4.132-4.267h-2.2V38.93zm-29.593-3.065v3.066h-1.333c-4.5 0-7.332-3.18-7.332-6.73V18.14h3.066v13.596c0 2.21 1.487 4.132 4.132 4.132h1.467zm9.64 0v3.066h-1.333c-4.5 0-7.33-3.18-7.33-6.73V18.14h3.065v13.596c0 2.21 1.48 4.132 4.13 4.132h1.46zM72.62 24.27c-3.9 0-7.27 3.365-7.27 7.493 0 3.977 3.225 7.17 7.123 7.17h6.8v-3.066h-6.666c-1.896 0-3.638-1.378-3.854-2.866h11.08l-.015-1.53c0-3.67-2.986-7.2-7.2-7.2zm-.01 3.053c1.743 0 3.29 1.267 3.73 2.678h-7.52c.308-.91 1.994-2.67 3.79-2.67zm47.175-3.053c-3.898 0-7.27 3.365-7.27 7.493 0 3.977 3.226 7.17 7.124 7.17h6.79v-3.066h-6.67c-1.9 0-3.64-1.378-3.856-2.866H127l-.017-1.53c0-3.67-2.986-7.2-7.198-7.2zm-.01 3.053c1.744 0 3.292 1.267 3.73 2.678h-7.52c.31-.91 1.995-2.67 3.79-2.67zm-16.508-2.253c-3.384 0-7.086 2.59-7.086 7.035 0 4.37 3.56 7.253 7.33 7.253 1.77 0 3.39-.74 3.89-1.225v1.2c0 1.59-1.64 3.466-3.68 3.466h-6.85v3.06h6.8c3.4 0 6.93-2.5 6.93-6.93V25.07h-7.33zm0 3.065h4.132v4c0 2.41-1.67 4.123-3.88 4.123-2.38 0-4.16-1.907-4.16-4.12 0-1.96 1.54-4.003 3.9-4.003z" stroke="null" fill="#f6710a"/></svg>