<?xml version="1.0" encoding="UTF-8" standalone="no"?>

<svg xmlns:svg="http://www.w3.org/2000/svg" xmlns="http://www.w3.org/2000/svg" version="1.1" width="128" height="64" xmlns:xlink="http://www.w3.org/1999/xlink">
	<g stroke="null">
		<path fill="#f6710a" d="m8.31514,38.93103l5.63692,0l0,-3.06603l-5.59883,0c-2.09355,0 -4.13962,-1.67525 -4.13962,-4.16341c0,-2.25948 1.78874,-4.35625 4.21341,-4.35625c2.29142,0 4.58854,1.69491 5.39173,3.05413l0,-4.10629c-0.77527,-0.93734 -3.09175,-2.03053 -5.45124,-2.03053c-4.29171,0 -7.36751,3.68671 -7.36751,7.37942c0,3.90197 3.23555,7.28896 7.31514,7.28896z"/>
		<path fill="#f6710a" d="m19.01768,38.93103l-3.19934,0l0,-20.79567l3.19934,0l0,6.93189l2.46615,0c4.10731,0 7.06519,3.05962 7.06519,7.1985l0,6.66528l-3.13268,0l0,-6.53197c0,-2.20901 -1.35788,-4.26578 -4.13248,-4.26578l-2.26619,0l0,10.79775z"/>
		<path fill="#f6710a" d="m37.67213,24.39411c-4.58598,0 -7.46511,3.65665 -7.46511,7.53176c0,3.84158 3.08793,7.14018 7.74005,7.14018l6.86524,0l0,-7.46511c0,-3.31066 -2.45968,-7.20683 -7.14018,-7.20683zm0.02083,3.0702c2.1786,0 3.92002,1.91239 3.92002,4.13663l0,4.39909l-3.93251,0c-2.57895,0 -4.26994,-1.96564 -4.26994,-4.1908c0,-2.12567 1.59799,-4.34492 4.28244,-4.34492z"/>
		<path fill="#f6710a" d="m84.87065,38.93103l-3.19934,0l0,-13.86378l5.60237,0c4.1073,0 7.0652,3.05962 7.0652,7.1985l0,6.66528l-3.13268,0l0,-6.53197c0,-2.20901 -1.35788,-4.26578 -4.13248,-4.26578l-2.20307,0l0,10.79775z"/>
		<path fill="#f6710a" d="m55.2768,35.86501l0,3.06603l-1.33305,0c-4.50013,0 -7.33181,-3.18104 -7.33181,-6.73515l0,-14.06052l3.06602,0l0,13.59717c0,2.21052 1.48693,4.13247 4.13248,4.13247l1.46636,0z"/>
		<path fill="#f6710a" d="m64.91752,35.86501l0,3.06603l-1.33307,0c-4.50013,0 -7.33181,-3.18104 -7.33181,-6.73515l0,-14.06052l3.06603,0l0,13.59717c0,2.21052 1.48693,4.13247 4.13248,4.13247l1.46637,0z"/>
		<path fill="#f6710a" d="m72.61903,24.26913c-3.89817,0 -7.26933,3.36543 -7.26933,7.49428c0,3.97693 3.22575,7.16934 7.12352,7.16934l6.79858,0l0,-3.06603l-6.66527,0c-1.8959,0 -3.63704,-1.37789 -3.85337,-2.86607l11.08103,0l-0.01666,-1.53301c0,-3.66962 -2.9859,-7.19851 -7.1985,-7.19851l-0.00001,0zm-0.00834,3.05353c1.74254,0 3.29008,1.26694 3.72839,2.67861l-7.51926,0c0.30827,-0.91158 1.99397,-2.67861 3.79087,-2.67861z"/>
		<path fill="#f6710a" d="m119.78484,24.26913c-3.89819,0 -7.26933,3.36543 -7.26933,7.49428c0,3.97693 3.22575,7.16934 7.12352,7.16934l6.79859,0l0,-3.06603l-6.66528,0c-1.89589,0 -3.63703,-1.37789 -3.85336,-2.86607l11.08102,0l-0.01664,-1.53301c0,-3.66962 -2.98591,-7.19851 -7.19852,-7.19851l-0.00001,0zm-0.00836,3.05353c1.74255,0 3.2901,1.26694 3.72839,2.67861l-7.51926,0c0.30827,-0.91158 1.99397,-2.67861 3.79086,-2.67861z"/>
		<path fill="#f6710a" d="m103.26683,25.06897c-3.38371,0 -7.08604,2.59229 -7.08604,7.03603c0,4.36904 3.55218,7.25266 7.32765,7.25266c1.76787,0 3.38936,-0.74092 3.89086,-1.22475l0,1.19975c0,1.59157 -1.64417,3.46595 -3.68674,3.46595l-6.84441,0l0,3.06603l6.79858,0c3.4025,0 6.9319,-2.49797 6.9319,-6.93189l0,-13.86378l-7.3318,0zm0,3.06602l4.13245,0l0,3.99917c0,2.41175 -1.66617,4.12414 -3.87836,4.12414c-2.37754,0 -4.15329,-1.90735 -4.15329,-4.11998c0,-1.96134 1.54653,-4.00333 3.89919,-4.00333z"/>
	</g>
</svg>