<?xml version="1.0" encoding="UTF-8" standalone="no"?>

<svg xmlns:svg="http://www.w3.org/2000/svg" xmlns="http://www.w3.org/2000/svg" version="1.1" width="128" height="64" xmlns:xlink="http://www.w3.org/1999/xlink">
	<g stroke="null">
		<metadata stroke="null" transform="translate(0,0.7330474853515625) translate(23.5,0) translate(10,-9) translate(7,9) scale(0.18220339715480804) translate(-7,-9) translate(93.30232238769531,0) scale(1.0930233001708984) translate(-93.30232238769531,0) "/>
		<g stroke="null" id="Channel_4_New_Logo.svg">
			<g stroke="null">
				<path stroke="null" d="m52.25,59.2839l0,-5.37712l5.37712,0l1.79237,1.39407l0,-10.55508l10.55508,0l0,-5.37712l-24.29661,0l0,5.37712l-5.17797,-3.98306l0,-5.37712l3.7839,0l-2.19067,-1.79237l15.5339,-19.91525l1.79237,1.39407l0,-3.7839l5.37712,-6.97034l1.79237,1.39407l0,-3.58475l1.19492,-1.39407l4.97881,3.7839l-0.99576,1.59322l0,8.76271l3.98305,-5.17797l1.39407,0.99576l-5.37712,7.16949l0,38.03814l5.37712,0.19916l0,-2.19068l1.59322,0l4.97881,3.98305l-11.94915,0l0,5.37712l-1.79237,-1.39407l0,-15.33474l-5.37711,0l-0.19915,16.72882l-1.59323,-1.39407l0,-3.98305l-5.57627,0l0,5.37712l-4.97881,-3.98305zm9.55932,-23.89831l-2.38983,-1.79237l0,-2.98729l3.38559,-4.1822l-0.19916,-8.76271l-15.53389,19.91525l6.97034,0l1.59322,-2.19068l6.17373,0zm2.78814,-20.11441l0,11.15254l0,11.15254l5.37711,0l0,-14.53814l0,-14.53814l-5.37711,6.77119zm12.54661,20.11441l5.17796,0l4.97881,3.7839l0.19915,0.19915l-8.56355,0l0,5.37712l-1.79237,-1.39407l0,-7.9661zm0,0l0,0l0,0z"/>
			</g>
		</g>
	</g>
</svg>