<svg xmlns="http://www.w3.org/2000/svg" width="128" height="64"><path d="M52.25 59.284v-5.377h5.377L59.42 55.3V44.747h10.555V39.37H45.678v5.376L40.5 40.763v-5.377h3.784l-2.19-1.793 15.533-19.915 1.792 1.394v-3.784l5.37-6.97 1.79 1.394V2.127l1.2-1.394 4.98 3.784-1 1.593v8.763l3.98-5.178 1.39.996-5.38 7.17V55.9l5.377.2v-2.19h1.593l4.98 3.98H71.76v5.378l-1.792-1.394V46.538H64.59l-.2 16.73-1.59-1.395V57.89h-5.57v5.377l-4.98-3.983zm9.56-23.898l-2.39-1.793v-2.987l3.385-4.182-.2-8.763-15.533 19.92h6.97l1.594-2.19h6.173zm2.787-20.115v22.31h5.378V8.5l-5.378 6.77zm12.547 20.12h5.178l4.98 3.79.198.2h-8.564v5.38l-1.792-1.39V35.4zm0 0z"/></svg>