<?xml version="1.0" encoding="UTF-8" standalone="no"?>

<svg xmlns:svg="http://www.w3.org/2000/svg" xmlns="http://www.w3.org/2000/svg" version="1.1" width="128" height="64" xmlns:xlink="http://www.w3.org/1999/xlink">
	<g transform="translate(-309.42693,-553.96995)">
		<g transform="matrix(0.31304585,0,0,0.31313453,343.99235,554.6565)">
			<path fill="#559fd0" fill-opacity="1" d="m 137.04325,0 -3.77707,4.5996369 -0.10631,11.6557511 -5.70198,-4.263889 -17.29059,22.153209 -0.10071,11.655751 -5.69638,-4.269488 -31.92748,40.814614 16.227408,12.791698 31.899502,-40.708323 0.16227,27.754512 -10.55901,13.48551 -0.006,9.680458 -0.10071,69.01681 -5.60126,-4.29744 -17.396896,0 0,17.28502 16.205026,12.62935 0.0951,-17.20102 17.36333,0 0,12.81405 5.64043,4.40379 0.0895,-153.253873 17.15629,-21.851049 0.0336,170.572422 5.81948,4.52686 0.0951,-17.2122 38.48694,-0.13425 -15.98681,-12.5791 -5.13121,0 -0.22942,6.84911 -17.1451,-0.0448 0,-121.946122 17.15628,-22.544903 -4.26388,-3.413356 -12.8924,16.322534 0,-28.106986 3.4861,-4.694761 L 137.04325,0 Z" />
			<path fill="#559fd0" fill-opacity="1" d="m 43.33836,140.63565 -15.964402,0 0,17.28503 16.205024,12.62934 -0.240622,-29.91437 z" />
			<path fill="#559fd0" fill-opacity="1" d="m 27.094175,83.2466 0,10.900299 -0.01679,-0.01118 -0.09513,17.201131 -17.3633264,0 0.022383,0.0167 -9.6413183,0 0,17.28502 16.2050247,12.62934 0.09513,-17.20102 27.161323,-0.0168 -0.06715,-28.090149 17.363326,0 -16.266577,-12.713342 -17.3969,0 z" />
			<path fill="#559fd0" fill-opacity="1" d="m 72.308506,111.04537 -12.079049,0 0.09339,12.71334 28.252249,0 -16.266586,-12.71334 z" />
		</g>
	</g>
</svg>
