<svg xmlns="http://www.w3.org/2000/svg" width="128" height="64"><path d="M77.46.687l-1.183 1.44-.033 3.648L74.46 4.44l-5.413 6.934-.03 3.65-1.784-1.338L57.24 26.46l5.08 4.005 9.983-12.742.05 8.687-3.304 4.22-.01 3.03-.03 21.604-1.76-1.345h-5.44v5.41l5.07 3.95.03-5.39h5.434v4.01l1.767 1.38.028-47.97 5.37-6.84.01 53.39 1.83 1.41.03-5.387 12.044-.04-5.003-3.938h-1.61l-.07 2.14-5.37-.014V17.87l5.37-7.054-1.333-1.07-4.04 5.11v-8.79l1.093-1.47-5.01-3.91zm-29.33 44.02h-4.997v5.41l5.072 3.952-.075-9.37zm-5.085-17.964v3.412l-.005-.004-.03 5.39h-5.434l.007.01h-3.018v5.41l5.072 3.96.03-5.384 8.5-.005-.02-8.793h5.435l-5.09-3.98h-5.447zm14.153 8.7h-3.78l.028 3.98h8.843l-5.1-3.98z" fill="#559fd0"/></svg>