<svg xmlns="http://www.w3.org/2000/svg" width="128" height="64"><path d="M122.214 14.239L10.817 28.559 8.83 48.984l110.467-13.39z"/><path d="M14.025 43.317c-.144 1.386 1.28 2.528 3.162 2.301h.006l9.387-1.154.649-4.349-6.382.784c-.844.104-1.603-.16-1.453-1.252l.56-3.942c.165-1.252 1.224-1.585 2.332-1.72l5.913-.725.621-4.362-10.394 1.28c-1.45.177-2.57 1.101-2.91 2.463zm21.366-15.23l-5.031.618-2.198 15.553 5.035-.615zm-.649 15.363l4.992-.612 1.105-7.734 4.49 7.049 4.472-.551 2.197-15.554-4.992.612-1.052 7.426-4.304-6.767-4.713.578zm22.942-12.357l.22-1.577 7.897-.97.612-4.266-12.842 1.576-2.198 15.553 12.837-1.573.593-4.266-7.89.97.251-1.693 7.355-.902.52-3.753zm53.05-4.787l5.594-8.157-5.83.716-2.608 4.034-2.167-3.446-5.444.667 4.413 6.71-5.038 7.348-3.77-13.494-4.992.612-8.016 15.27 2.054-14.56-5.53.676-3.995 5.864-2.458-5.071-4.967.612-2.195 15.557 4.925-.606 1.083-7.71 2.682 5.109.085-.013 4.245-5.959-1.083 7.71 4.603-.563.407-.052 5.078-.621 1.065-2.186 5.273-.646.502 1.99 4.028-.493 1.331-.165 4.5-.551 3.06-4.701 2.36 4.037 5.445-.67zm17.249-16.199l-4.068 28.983L.894 54.197l4.067-28.95zM92.57 26.961l.854 3.611-2.752.337z" fill="#fab813"/></svg>