<?xml version="1.0" encoding="UTF-8" standalone="no"?>

<svg xmlns:svg="http://www.w3.org/2000/svg" xmlns="http://www.w3.org/2000/svg" version="1.1" width="128" height="64" xmlns:xlink="http://www.w3.org/1999/xlink">
	<defs>
		<clipPath clipPathUnits="userSpaceOnUse" id="clipPath5683">
			<path d="m504.30099,257.82999l28.86801,0l0,7.129l-28.86801,0l0,-7.129z" id="path5685"/>
		</clipPath>
		<clipPath clipPathUnits="userSpaceOnUse" id="clipPath5663">
			<path d="m504.30099,257.82999l28.86801,0l0,7.129l-28.86801,0l0,-7.129z" id="path5665"/>
		</clipPath>
		<linearGradient x1="0" y1="0" x2="1" y2="0" gradientUnits="userSpaceOnUse" gradientTransform="matrix(10.005066,0,0,-10.005066,523.16441,261.39447)" spreadMethod="pad" id="linearGradient5643">
			<stop stop-color="#ffffff" offset="0" id="stop5645"/>
			<stop stop-color="#989fd8" offset="1" id="stop5647"/>
		</linearGradient>
		<clipPath clipPathUnits="userSpaceOnUse" id="clipPath5623">
			<path d="m504.30099,283.09299l0.017,-15.09299l28.85199,0.03598l-0.01697,15.09302l-28.85202,-0.03601z" id="path5625"/>
		</clipPath>
		<clipPath clipPathUnits="userSpaceOnUse" id="clipPath5603">
			<path d="m504.30099,283.09299l0.017,-15.09299l28.85199,0.03598l-0.01697,15.09302l-28.85202,-0.03601z" id="path5605"/>
		</clipPath>
		<clipPath clipPathUnits="userSpaceOnUse" id="clipPath5563">
			<path d="m497.578,294.05499l42.315,0l0,15.673l-42.315,0l0,-15.673z" id="path5565"/>
		</clipPath>
		<clipPath clipPathUnits="userSpaceOnUse" id="clipPath3539">
			<path d="m598.01855,819.64307l41.53998,0l0,17.229l-41.53998,0l0,-17.229z" id="path3541"/>
		</clipPath>
	</defs>

	<g stroke="null" id="layer1">
		<g stroke="null" transform="matrix(3.0214573555022715,0,0,-3.0214573555022715,-1806.0797373076616,2534.6036420940595) " id="g3535">
			<g stroke="null" clip-path="url(#clipPath3539)">
				<g stroke="null">
					<path fill="#f8a10e" fill-rule="nonzero" d="m598.01874,828.23199c0,3.36401 2.11798,8.67096 8.203,8.63995c1.55695,-0.00793 4.64197,-0.75098 5.55396,-2.12097c0.099,-0.14899 0.20001,-0.453 0.13501,-0.72498c-0.198,-0.81604 -1.01202,-1.84802 -1.12201,-1.96802c-0.24701,-0.26599 -0.58398,-0.24597 -0.90601,-0.104c-0.42395,0.18701 -1.48499,1.10999 -3.65594,0.93201c-1.86206,-0.15399 -3.77802,-2.14502 -3.77802,-4.66498c0,-1.08801 0.63397,-4.487 3.78497,-4.47302c1.86499,0.008 3.685,0.99799 4.112,1.26898c0.08203,0.05298 0.526,0.24701 0.85901,-0.05798c0.43903,-0.40198 1.21002,-1.95398 1.258,-2.10901c0.12201,-0.39697 0.11401,-0.685 -0.17999,-0.94202c-1.961,-1.71698 -4.96497,-2.258 -6.07703,-2.258c-6.599,0 -8.18695,5.30804 -8.18695,8.58203"/>
				</g>
				<g stroke="null">
					<path fill="#f8a10e" fill-rule="nonzero" d="m639.51624,830.10004c-0.32904,4.203 -3.95605,5.66498 -7.39801,6.32196c-3.41998,0.65302 -9.979,0.42999 -11.42902,0.263c-2.664,-0.30695 -5.40802,-1.42297 -6.60699,-3.67896c-0.74902,-1.40503 -1.12799,-3.03101 -1.12799,-4.98102c-1.30603,-0.98901 -1.73804,-1.23303 -1.966,-1.36798c-0.245,-0.13403 -0.25,-0.29602 0.03699,-0.38904c0.289,-0.09399 1.33099,-0.453 2.341,-0.61896c0.70001,-2.50604 1.70703,-5.513 9.53699,-5.87805c6.25104,-0.29199 10.19403,-0.21899 13.02405,1.65302c2.26996,1.5 3.91998,4.47003 3.58899,8.67603m-21.41699,3.27197c0.83698,0 1.35394,-0.59399 1.35394,-1.34296c0,-0.74902 -0.51697,-1.34302 -1.35394,-1.34302c-0.83704,0 -1.354,0.59399 -1.354,1.34302c0,0.74896 0.51697,1.34296 1.354,1.34296m18.974,-4.54199c-0.60706,-1.64398 -1.45001,-3.43201 -2.43805,-4.94403c-0.37701,-0.57593 -0.79498,-0.74298 -1.49298,-0.74298c-0.73499,0 -1.06403,0.19598 -1.42499,0.72998c-0.24603,0.36304 -0.50104,0.76001 -0.84601,1.29602c-0.77802,-1.27496 -2.112,-2.026 -3.927,-2.026c-1.37299,0 -2.617,0.422 -3.30103,1.04602c-0.698,-0.64502 -1.87799,-1.04602 -3.01001,-1.04602c-1.13397,0 -2.32697,0.31201 -3.02496,1.00903c-0.53699,0.53699 -0.84497,1.21899 -0.84497,2.41296l0,2.99005c0,0.14697 0.05194,0.20898 0.20996,0.20898l2.24799,0c0.16101,0 0.21399,-0.065 0.21399,-0.20801l0,-3.30798c0,-0.52905 0.11505,-0.88605 0.35803,-1.14404c0.23401,-0.24701 0.62701,-0.39502 1.06903,-0.39502c0.45398,0 0.86597,0.15302 1.12799,0.43506c0.29895,0.32098 0.43396,0.77795 0.43396,1.62299l0,5.07697c0,0.24902 0.065,0.42004 0.20502,0.54803c0.20599,0.18701 0.62299,0.27899 1.13098,0.27899c0.50104,0 0.92603,-0.09198 1.13202,-0.27899c0.14001,-0.12799 0.20502,-0.29901 0.20502,-0.54803l0,-2.07898l2.11395,0c0.16003,0 0.21503,-0.06396 0.21503,-0.20898l0,-1.271c0,-0.14502 -0.05499,-0.20898 -0.21503,-0.20898l-1.18695,0c-0.37,0 -0.677,0.05396 -0.927,0.16095l0,-1.32098c0,-0.78601 0.16595,-1.258 0.50696,-1.60803c0.35803,-0.36694 0.90704,-0.56897 1.61902,-0.56897c1.49902,0 2.27502,0.94104 2.27502,1.97998c0,0.41705 -0.12305,0.75604 -0.36804,1.17505c-0.21497,0.367 -0.27301,0.52197 -0.27301,0.72998c0,0.61096 1.08203,1.26697 1.81305,1.26697c0.354,0 0.534,-0.117 0.80402,-0.55597c0.26599,-0.43597 0.79694,-1.38098 1.33398,-2.31903c0.34698,-0.60693 0.72198,-1.27795 0.92499,-1.66394c0.61798,1.05701 1.31097,2.75995 1.76599,4.276c0.04602,0.15094 0.117,0.22498 0.24902,0.22498c0.07001,0 0.18799,-0.02899 0.51196,-0.12799c0.19604,-0.06 0.586,-0.17902 0.73102,-0.22504c0.15002,-0.04797 0.21301,-0.12299 0.21301,-0.21899c0,-0.09497 -0.05499,-0.245 -0.13098,-0.45099" />
				</g>
			</g>
		</g>
	</g>
</svg>