<svg xmlns="http://www.w3.org/2000/svg" width="128" height="64"><defs><clipPath id="a"><path d="M598.02 819.643h41.54v17.23h-41.54v-17.23z"/></clipPath></defs><g clip-path="url(#a)" transform="matrix(3.02 0 0 -3.02 -1806.08 2534.604)" stroke="null"><path fill="#f8a10e" d="M598.02 828.232c0 3.364 2.117 8.67 8.202 8.64 1.557-.008 4.642-.75 5.554-2.12.1-.15.2-.454.135-.726-.19-.816-1.01-1.848-1.12-1.968-.24-.266-.58-.246-.9-.104-.42.187-1.48 1.11-3.65.932-1.86-.154-3.78-2.145-3.78-4.665 0-1.08.637-4.48 3.788-4.47 1.865.01 3.685 1 4.11 1.27.084.05.528.25.86-.06.44-.4 1.21-1.95 1.26-2.11.12-.39.113-.68-.18-.94-1.96-1.71-4.966-2.26-6.078-2.26-6.6 0-8.186 5.31-8.186 8.59m41.497 1.87c-.33 4.208-3.954 5.67-7.396 6.327-3.42.653-9.98.43-11.43.263-2.666-.308-5.41-1.424-6.61-3.68-.75-1.405-1.127-3.03-1.127-4.98-1.306-.99-1.738-1.234-1.966-1.37-.246-.133-.25-.295.036-.39.29-.09 1.33-.45 2.34-.617.7-2.51 1.708-5.515 9.538-5.88 6.25-.29 10.195-.22 13.025 1.653 2.27 1.5 3.92 4.47 3.59 8.674m-21.42 3.27c.833 0 1.35-.594 1.35-1.343 0-.75-.517-1.343-1.354-1.343-.838 0-1.355.594-1.355 1.34 0 .75.52 1.34 1.358 1.34m18.972-4.54c-.61-1.646-1.45-3.434-2.44-4.946-.378-.575-.796-.742-1.494-.742-.735 0-1.064.2-1.425.73-.243.366-.5.76-.843 1.3-.778-1.277-2.11-2.028-3.927-2.028-1.37 0-2.615.42-3.3 1.046-.7-.646-1.88-1.047-3.01-1.047-1.133 0-2.33.31-3.024 1.01-.537.536-.845 1.218-.845 2.41v2.99c0 .145.05.21.21.21h2.25c.16 0 .215-.07.215-.21v-3.31c0-.53.115-.885.36-1.143.233-.248.626-.396 1.07-.396.452 0 .864.153 1.126.435.3.32.436.778.436 1.623v5.077c0 .25.065.42.205.547.204.187.62.28 1.13.28.5 0 .925-.093 1.13-.28.14-.128.205-.3.205-.548v-2.08h2.114c.16 0 .214-.065.214-.21v-1.27c0-.147-.052-.21-.212-.21h-1.183c-.37 0-.676.053-.926.16v-1.32c0-.787.165-1.26.506-1.61.36-.367.91-.57 1.62-.57 1.5 0 2.276.94 2.276 1.98 0 .42-.12.757-.366 1.176-.215.367-.273.522-.273.73 0 .61 1.084 1.267 1.815 1.267.354 0 .534-.12.804-.558.265-.436.796-1.38 1.333-2.32.345-.606.72-1.277.923-1.663.62 1.06 1.31 2.76 1.767 4.276.044.15.115.225.247.225.07 0 .19-.03.51-.128l.73-.225c.15-.045.213-.12.213-.22 0-.09-.055-.24-.13-.45"/></g></svg>