<svg xmlns="http://www.w3.org/2000/svg" width="128" height="64"><defs><clipPath><path d="M504.3 257.83h28.87v7.13H504.3v-7.13z"/></clipPath><clipPath><path d="M504.3 257.83h28.87v7.13H504.3v-7.13z"/></clipPath><linearGradient x2="1" gradientUnits="userSpaceOnUse" gradientTransform="matrix(10.005 0 0 -10.005 523.164 261.394)"><stop stop-color="#fff" offset="0"/><stop stop-color="#989fd8" offset="1"/></linearGradient><clipPath><path d="M504.3 283.093l.02-15.093 28.852.036-.017 15.093-28.852-.04z"/></clipPath><clipPath><path d="M504.3 283.093l.02-15.093 28.852.036-.017 15.093-28.852-.04z"/></clipPath><clipPath><path d="M497.578 294.055h42.315v15.673h-42.315v-15.673z"/></clipPath><clipPath id="a"><path d="M598.02 819.643h41.54v17.23h-41.54v-17.23z"/></clipPath></defs><g clip-path="url(#a)" transform="matrix(3.021 0 0 -3.021 -1806.08 2534.604)" stroke="null"><path fill="#f8a10e" d="M598.02 828.232c0 3.364 2.117 8.67 8.202 8.64 1.557-.008 4.642-.75 5.554-2.12.1-.15.2-.454.135-.726-.19-.816-1.01-1.848-1.12-1.968-.242-.266-.58-.246-.9-.104-.425.187-1.486 1.11-3.657.932-1.862-.154-3.78-2.145-3.78-4.665 0-1.08.635-4.48 3.786-4.47 1.864.01 3.684 1 4.11 1.27.083.05.527.25.86-.06.44-.4 1.21-1.95 1.258-2.11.122-.39.114-.68-.18-.94-1.96-1.713-4.965-2.26-6.077-2.26-6.6 0-8.186 5.31-8.186 8.588m41.497 1.867c-.33 4.204-3.955 5.666-7.397 6.323-3.42.653-9.98.43-11.43.263-2.664-.307-5.408-1.423-6.607-3.68-.75-1.404-1.128-3.03-1.128-4.98-1.306-.99-1.738-1.233-1.966-1.37-.245-.132-.25-.294.037-.39.29-.09 1.33-.45 2.34-.616.7-2.508 1.707-5.515 9.537-5.88 6.25-.29 10.194-.22 13.024 1.653 2.27 1.5 3.92 4.47 3.59 8.676m-21.42 3.27c.835 0 1.35-.593 1.35-1.342 0-.75-.515-1.343-1.352-1.343-.838 0-1.355.594-1.355 1.343 0 .746.52 1.34 1.356 1.34m18.972-4.544c-.61-1.644-1.45-3.432-2.44-4.944-.376-.575-.794-.742-1.492-.742-.736 0-1.065.197-1.426.73-.245.364-.5.76-.845 1.297-.778-1.276-2.11-2.027-3.927-2.027-1.373 0-2.617.42-3.3 1.044-.7-.646-1.88-1.047-3.01-1.047-1.135 0-2.33.312-3.026 1.01-.537.536-.845 1.218-.845 2.412v2.99c0 .143.05.21.21.21h2.25c.16 0 .212-.07.212-.21v-3.31c0-.53.116-.887.36-1.145.234-.248.627-.396 1.07-.396.453 0 .865.152 1.127.434.3.32.433.778.433 1.623v5.077c0 .25.065.42.205.548.205.187.622.28 1.13.28.5 0 .926-.093 1.132-.28.14-.128.204-.3.204-.548v-2.08h2.114c.16 0 .215-.063.215-.208v-1.27c0-.147-.053-.21-.213-.21h-1.186c-.37 0-.675.053-.925.16v-1.32c0-.787.164-1.26.505-1.61.36-.367.91-.57 1.62-.57 1.5 0 2.276.94 2.276 1.98 0 .418-.122.757-.367 1.176-.215.367-.273.522-.273.73 0 .61 1.083 1.267 1.814 1.267.354 0 .534-.117.804-.556.267-.436.798-1.38 1.335-2.32.346-.606.72-1.277.924-1.663.618 1.058 1.31 2.76 1.766 4.277.044.15.115.226.247.226.07 0 .188-.03.512-.128l.73-.225c.15-.046.212-.12.212-.22 0-.092-.055-.242-.13-.45"/></g></svg>