<svg xmlns="http://www.w3.org/2000/svg" width="128" height="64"><path d="M7.124 32c0 3.024 2.49 5.576 5.64 5.576 1.48 0 2.55-.568 3.81-1.481.662-.472 1.292-1.008 2.427-1.008.945 0 1.7.346 2.236.756.819.63 1.26 1.512 1.26 2.615 0 1.165-.504 1.953-1.04 2.551-1.67 1.89-5.102 3.591-8.945 3.591C5.424 44.6.005 38.741.005 32s5.45-12.6 12.507-12.6c3.811 0 7.15 1.7 8.82 3.59.535.6 1.039 1.387 1.039 2.552 0 1.07-.44 1.985-1.26 2.615a3.62 3.62 0 01-2.237.755c-1.133 0-1.763-.535-2.425-1.007-1.134-.82-2.174-1.48-3.749-1.48-3.087 0-5.576 2.55-5.576 5.575m88.645-7.025v5.828h4.347c1.607 0 2.835-1.26 2.835-2.898 0-1.607-1.26-2.93-2.835-2.93zM67.197 32c0 4 3.15 7.245 7.056 7.245 3.875 0 7.057-3.244 7.057-7.245 0-3.97-3.182-7.246-7.057-7.246-3.906 0-7.056 3.277-7.056 7.246m48.45 11.152c-1.23 0-1.89-.693-1.89-1.828v-18.68c0-1.228.723-1.827 1.89-1.827h10.332c1.166 0 1.89.599 1.89 1.827v.504c0 1.23-.724 1.827-1.89 1.827h-7.813v4.977h6.49c1.165 0 1.89.599 1.89 1.828v.535c0 1.197-.725 1.795-1.89 1.795h-6.49v4.883h7.939c1.196 0 1.89.63 1.89 1.827v.536c0 1.197-.694 1.796-1.89 1.796zm-19.878-1.828c0 1.135-.63 1.828-1.858 1.828h-.662c-1.228 0-1.89-.693-1.89-1.828v-18.68c0-1.166.662-1.827 1.89-1.827h7.088c3.937 0 7.119 3.244 7.119 7.088 0 2.299-1.355 4.378-3.276 5.607 1.102.945 1.795 2.08 2.236 3.529l1.04 3.59c.157.504.22.883.22 1.103 0 .819-.755 1.418-1.733 1.418H105c-.977 0-1.544-.473-1.796-1.355l-1.04-3.686c-.44-1.543-1.795-3.15-4.031-3.15H95.77zm-46.842-6.773c-.567.82-.977 1.45-2.142 1.45h-.599c-1.165 0-1.575-.63-2.142-1.45l-3.812-5.639v12.412c0 1.135-.661 1.828-1.89 1.828h-.63c-1.26 0-1.89-.693-1.89-1.828v-18.68c0-1.166.63-1.827 1.89-1.827h.787c1.072 0 1.544.315 2.111 1.134l5.86 8.6 5.89-8.6c.536-.82 1.009-1.134 2.11-1.134h.788c1.26 0 1.89.661 1.89 1.827v18.68c0 1.135-.63 1.828-1.89 1.828h-.63c-1.26 0-1.89-.693-1.89-1.828V28.912zM62.693 32c0-6.332 5.197-11.498 11.56-11.498 6.364 0 11.562 5.166 11.562 11.498 0 6.331-5.198 11.466-11.562 11.466-6.363 0-11.56-5.135-11.56-11.466" fill="#ff3033"/></svg>