<svg xmlns="http://www.w3.org/2000/svg" width="128" height="64"><path d="M70.215 30.1a9.266 9.266 0 1 1 0-9.267M42.57 35.9a22.222 22.222 0 1 0 0-20.867" fill="none" stroke="#000" stroke-width="6"/><path d="M37.09 63.217c-.023.138.05.254.153.254h.874c.103 0 .17-.11.19-.25l.303-2.31 1.317 2.52c.068.13.336.13.405 0l1.333-2.47.307 2.268c.02.14.03.255.174.255h.937c.08 0 .124-.115.1-.253l-.875-5.066c-.036-.205-.297-.205-.355-.1L40.13 61.4l-1.824-3.344c-.07-.13-.323-.08-.354.102zM23.77 60.76c.016 1.542 1.246 2.768 2.76 2.76.633-.002 1.353-.217 1.903-.76.05-.05.05-.097-.003-.15l-.71-.71c-.046-.046-.095-.045-.146 0-.254.225-.64.393-1.043.405-.84.027-1.52-.674-1.54-1.544.02-.87.7-1.57 1.55-1.54.404.02.79.18 1.045.41.05.048.1.05.147 0l.71-.71c.053-.05.054-.1.003-.15-.55-.542-1.27-.757-1.904-.76-1.514-.006-2.744 1.22-2.76 2.76zm6.18 0c0 1.525 1.235 2.76 2.76 2.76 1.524 0 2.76-1.235 2.76-2.76 0-1.524-1.236-2.76-2.76-2.76-1.525 0-2.76 1.236-2.76 2.76zm15.245-2.538V63.3c0 .094.076.17.17.17h3.153c.095 0 .17-.076.17-.17v-.823c0-.095-.075-.172-.17-.172H46.41v-1.012h1.754c.095 0 .17-.077.17-.17V60.3c0-.097-.075-.173-.17-.173H46.41v-.912h2.108c.095 0 .17-.076.17-.17v-.824c0-.09-.075-.17-.17-.17h-3.152c-.095 0-.17.08-.17.17zm5.527.038v5.002c0 .115.093.21.21.21h1.955c.022 0 .043-.006.063-.013 1.387-.12 2.476-1.29 2.476-2.7 0-1.42-1.09-2.58-2.476-2.7-.02-.01-.04-.01-.063-.01H50.93c-.115 0-.208.09-.208.21zm5.827 0l1.71 2.578v2.382c0 .14.11.25.25.25h.76c.14 0 .25-.11.25-.25v-2.372l1.72-2.588c.074-.115.023-.21-.115-.21h-.88c-.14 0-.31.095-.388.21l-.97 1.458-.97-1.458c-.076-.115-.25-.21-.39-.21h-.88c-.137 0-.186.095-.11.21zm-25.39 2.5c0-.852.69-1.544 1.54-1.544s1.543.692 1.543 1.545c0 .86-.69 1.55-1.544 1.55-.854 0-1.546-.69-1.546-1.54zm20.76-1.544h.685c.853 0 1.544.692 1.544 1.545 0 .86-.693 1.55-1.546 1.55h-.686zm35.545-1.05v5.054c0 .14.11.25.25.25h.766c.14 0 .25-.11.25-.25v-2.652l2.994 2.937c.1.097.453-.01.453-.148V58.3c0-.137-.113-.25-.25-.25h-.767c-.14 0-.25.113-.25.25v2.75l-2.99-3.034c-.025-.024-.066-.036-.113-.038-.14-.004-.34.083-.34.187zm12.092.594c-.05.05-.05.1.002.152l.71.71c.043.046.093.045.144 0 .256-.225.64-.393 1.045-.406.84-.027 1.526.675 1.542 1.545-.015.87-.7 1.58-1.544 1.55-.403-.01-.79-.18-1.044-.4-.05-.044-.1-.045-.148 0l-.71.71c-.055.054-.055.1-.004.15.55.544 1.27.76 1.9.76 1.513.01 2.743-1.217 2.76-2.76-.017-1.54-1.247-2.765-2.76-2.76-.635.004-1.354.22-1.904.76zm-34.835-.543v.833c0 .092.073.166.165.166h1.81v4.088c0 .092.073.166.165.166h.934c.09 0 .163-.074.163-.166v-5.087c.003-.092-.077-.166-.17-.166h-2.9c-.09 0-.166.08-.166.17zm4.826 0L72 63.47c.06.127.277.127.335 0l2.442-5.253c.043-.092-.004-.166-.105-.166h-.87c-.1 0-.218.08-.26.17l-.3.65h-2.14l-.3-.642c-.042-.092-.157-.166-.258-.166h-.877c-.102 0-.15.075-.106.167zm6.52 3.607c0 .91.737 1.646 1.646 1.646h2.298c.116 0 .21-.093.21-.21v-5c0-.115-.094-.21-.21-.21h-.797c-.115 0-.21.095-.21.21v1.918h-.47l-1.048-1.943c-.056-.102-.193-.184-.308-.184h-.947c-.116 0-.165.09-.11.19l1.09 2.02c-.665.218-1.146.84-1.146 1.57zm5.925.648v.832c0 .092.075.166.167.166h3.415c.09 0 .165-.074.165-.166v-.832c0-.092-.074-.167-.166-.167h-1.1v-4.088c0-.092-.075-.166-.167-.166h-.885c-.095 0-.17.08-.17.17v4.09h-1.1c-.09 0-.166.08-.166.17zm12.207-4.25v.823c0 .095.076.17.17.17h2.11v1.014h-1.75c-.095 0-.17.07-.17.17v.82c0 .09.075.17.17.17h1.753v.91h-2.11c-.094 0-.17.072-.17.17v.82c0 .093.076.17.17.17h3.154c.095 0 .17-.077.17-.17v-5.07c0-.097-.075-.17-.17-.17h-3.15c-.094 0-.17.073-.17.17zm-22.6 1.703h1.15l-.576 1.236zm5.696 1.823c0-.335.272-.608.608-.608h1.114v1.216h-1.114c-.336 0-.608-.272-.608-.608z"/></svg>