<svg xmlns="http://www.w3.org/2000/svg" width="128" height="64"><g fill="none" stroke="#000" stroke-width="6"><path d="M70.215 30.1a9.266 9.266 0 1 1 0-9.267M42.57 35.9a22.222 22.222 0 1 0 0-20.867"/></g><path d="M37.09 63.217c-.023.138.05.254.153.254h.874c.103 0 .17-.114.19-.252l.303-2.31 1.317 2.513c.068.13.336.13.405 0l1.333-2.47.307 2.268c.02.138.03.254.174.254h.937c.08 0 .124-.115.1-.253l-.875-5.066c-.036-.206-.297-.206-.355-.1l-1.823 3.342-1.824-3.343c-.07-.13-.323-.08-.354.102zM23.77 60.76c.016 1.542 1.246 2.768 2.76 2.76.633-.002 1.353-.217 1.903-.76.05-.05.05-.097-.003-.15l-.71-.71c-.046-.046-.095-.045-.146 0-.254.225-.64.393-1.043.405-.84.027-1.527-.674-1.543-1.544.016-.87.702-1.57 1.545-1.543.403.013.79.18 1.044.405.05.047.1.048.147 0l.71-.708c.053-.053.054-.102.003-.152-.55-.542-1.27-.757-1.902-.76-1.514-.006-2.744 1.22-2.76 2.76zm6.18 0c0 1.525 1.235 2.76 2.76 2.76 1.524 0 2.76-1.235 2.76-2.76 0-1.524-1.236-2.76-2.76-2.76-1.525 0-2.76 1.236-2.76 2.76zm15.245-2.538V63.3c0 .094.076.17.17.17h3.153c.095 0 .17-.076.17-.17v-.823c0-.095-.075-.172-.17-.172H46.41v-1.012h1.754c.095 0 .17-.077.17-.17V60.3c0-.097-.075-.173-.17-.173H46.41v-.912h2.108c.095 0 .17-.076.17-.17v-.824c0-.094-.075-.17-.17-.17h-3.152c-.095 0-.17.076-.17.17zm5.527.038v5.002c0 .115.093.21.21.21h1.955c.022 0 .043-.006.063-.013 1.387-.12 2.476-1.283 2.476-2.7 0-1.418-1.09-2.58-2.476-2.7-.02-.006-.04-.01-.063-.01H50.93c-.115 0-.208.094-.208.21zm5.827 0l1.71 2.578v2.382c0 .14.113.25.25.25h.767c.138 0 .25-.11.25-.25v-2.372l1.72-2.588c.076-.115.025-.21-.113-.21h-.88c-.14 0-.312.095-.388.21l-.97 1.458-.968-1.458c-.077-.115-.25-.21-.39-.21h-.88c-.138 0-.187.095-.11.21zm-25.386 2.5c0-.852.692-1.544 1.545-1.544s1.543.692 1.543 1.545c0 .855-.69 1.546-1.544 1.546-.854 0-1.546-.69-1.546-1.544zm20.766-1.544h.685c.853 0 1.544.692 1.544 1.545 0 .855-.693 1.546-1.546 1.546h-.684zm35.545-1.05v5.054c0 .14.11.25.25.25h.766c.14 0 .25-.11.25-.25v-2.652l2.993 2.937c.1.097.453-.01.453-.148V58.3c0-.137-.112-.25-.25-.25h-.766c-.14 0-.252.113-.252.25v2.75l-2.99-3.034c-.025-.024-.066-.036-.113-.038-.14-.004-.34.083-.34.187zm12.092.594c-.05.05-.05.1.003.152l.71.71c.045.046.095.045.146 0 .254-.225.64-.393 1.043-.406.84-.027 1.527.675 1.543 1.545-.016.87-.702 1.573-1.545 1.546-.403-.012-.79-.18-1.044-.405-.05-.044-.1-.045-.147 0l-.71.71c-.054.054-.054.1-.003.15.55.544 1.27.76 1.902.76 1.514.01 2.744-1.217 2.76-2.76-.016-1.54-1.246-2.765-2.76-2.76-.634.004-1.353.22-1.903.76zm-34.834-.543v.833c0 .092.075.166.167.166h1.81v4.088c0 .092.073.166.165.166h.934c.09 0 .164-.074.164-.166v-5.087c.006-.092-.074-.166-.166-.166H64.9c-.092 0-.167.076-.167.168zm4.828 0L72 63.47c.06.127.277.127.335 0l2.442-5.253c.043-.092-.004-.166-.105-.166h-.87c-.1 0-.218.076-.26.168l-.3.644h-2.14l-.3-.643c-.042-.093-.157-.167-.258-.167h-.877c-.102 0-.15.075-.106.167zm6.52 3.607c0 .91.737 1.646 1.646 1.646h2.298c.115 0 .21-.093.21-.21v-5c0-.115-.095-.21-.21-.21h-.798c-.115 0-.21.095-.21.21v1.918h-.47l-1.048-1.943c-.055-.102-.192-.184-.307-.184h-.946c-.115 0-.164.084-.11.186l1.09 2.02c-.664.213-1.145.835-1.145 1.57zm5.925.648v.832c0 .092.075.166.167.166h3.416c.092 0 .166-.074.166-.166v-.832c0-.092-.074-.167-.166-.167h-1.1v-4.088c0-.092-.074-.166-.166-.166h-.883c-.093 0-.167.076-.167.168v4.088h-1.1c-.09 0-.166.075-.166.167zm12.207-4.25v.823c0 .095.077.17.172.17h2.108v1.014h-1.754c-.094 0-.17.074-.17.17v.822c0 .095.076.17.17.17h1.754v.912h-2.108c-.095 0-.17.077-.17.17v.824c0 .094.075.17.17.17h3.153c.094 0 .17-.076.17-.17V58.22c0-.095-.076-.17-.17-.17h-3.153c-.095 0-.17.075-.17.17zM71.6 59.925h1.15l-.576 1.236zm5.696 1.823c0-.335.272-.608.608-.608h1.114v1.216h-1.114c-.336 0-.608-.272-.608-.608z"/></svg>