<?xml version="1.0" encoding="UTF-8" standalone="no"?>

<svg xmlns:svg="http://www.w3.org/2000/svg" xmlns="http://www.w3.org/2000/svg" version="1.1" width="128" height="64" xmlns:xlink="http://www.w3.org/1999/xlink">
	<g transform="translate(288,189) scale(1.2239999771118164) " fill="none" stroke-width="4" stroke="#000000">
		<path d="m-179.66072,-129.808a6.00988,6.00988 0 1 1 0,-6.0098" stroke="null"/>
		<path d="m-197.59135,-126.04646a14.41308,14.41308 0 1 0 0,-13.53293" stroke="null"/>
	</g>
	<path d="m22.47383,62.53103c-0.03622,0.21335 0.07532,0.39132 0.23447,0.39132l1.34842,0c0.15935,0 0.26509,-0.17797 0.29304,-0.39132l0.46893,-3.56623l2.03217,3.87933c0.1043,0.19866 0.51818,0.19866 0.62538,0l2.05658,-3.81042l0.47369,3.49732c0.02897,0.21335 0.0447,0.39132 0.26882,0.39132l1.44591,0c0.12209,0 0.1908,-0.17797 0.15397,-0.39132l-1.35071,-7.81577c-0.05526,-0.31931 -0.45837,-0.31931 -0.54715,-0.15645l-2.81379,5.15885l-2.81379,-5.15885c-0.11071,-0.20301 -0.49935,-0.12375 -0.54716,0.15645l-1.32877,7.81577l-0.00001,0zm-20.55614,-3.79056c0.02461,2.37776 1.92265,4.27025 4.25973,4.25948c0.97631,-0.00393 2.08635,-0.33566 2.93588,-1.17233c0.07862,-0.07698 0.07756,-0.1521 -0.00484,-0.23426l-1.09426,-1.09472c-0.07185,-0.07119 -0.14844,-0.06933 -0.22717,0c-0.39103,0.34703 -0.98853,0.60572 -1.60961,0.62538c-1.3003,0.04159 -2.3594,-1.04113 -2.38391,-2.38356c0.02441,-1.34243 1.08361,-2.42514 2.38391,-2.38417c0.62108,0.01966 1.21858,0.27895 1.60961,0.62538c0.07873,0.07015 0.15531,0.07201 0.22717,0l1.09426,-1.09411c0.0824,-0.08257 0.08346,-0.15706 0.00484,-0.23466c-0.84953,-0.83605 -1.95957,-1.16798 -2.93588,-1.17233c-2.33708,-0.01014 -4.23507,1.88214 -4.25973,4.2599zm9.53558,-0.00021c0,2.35292 1.90714,4.25969 4.25973,4.25969c2.35262,0 4.25975,-1.90676 4.25975,-4.25969c0,-2.35231 -1.90713,-4.25969 -4.25975,-4.25969c-2.35259,0 -4.25973,1.90738 -4.25973,4.25969zm23.52626,-3.91782l0,7.83543c0,0.14631 0.11775,0.26447 0.26385,0.26447l4.86542,0c0.14629,0 0.26385,-0.11816 0.26385,-0.26447l0,-1.26958c0,-0.14631 -0.11755,-0.26426 -0.26385,-0.26426l-3.25335,0l0,-1.56283l2.70618,0c0.14631,0 0.26385,-0.11795 0.26385,-0.26385l0,-1.27021c0,-0.14631 -0.11753,-0.26365 -0.26385,-0.26365l-2.70618,0l0,-1.4072l3.25335,0c0.14629,0 0.26385,-0.11734 0.26385,-0.26365l0,-1.27021c0,-0.14569 -0.11755,-0.26365 -0.26385,-0.26365l-4.86542,0c-0.1461,0 -0.26385,0.11796 -0.26385,0.26365l0,0.00001zm8.52931,0.05877l0,7.71872c0,0.17797 0.14445,0.32241 0.32242,0.32241l3.01886,0c0.03477,0 0.06664,-0.00703 0.09789,-0.0178c2.13978,-0.18293 3.81993,-1.9767 3.81993,-4.16429c0,-2.18758 -1.68016,-3.98093 -3.81993,-4.16449c-0.03125,-0.01014 -0.06311,-0.01697 -0.09789,-0.01697l-3.01886,0c-0.17797,0 -0.32242,0.14444 -0.32242,0.32242zm8.99348,0l2.64264,3.97887l0,3.67611c0,0.21315 0.17237,0.38553 0.38595,0.38553l1.18225,0c0.21357,0 0.38595,-0.17238 0.38595,-0.38553l0,-3.66163l2.65237,-3.99335c0.11837,-0.17797 0.04035,-0.32242 -0.17321,-0.32242l-1.35816,0c-0.21377,0 -0.48011,0.14444 -0.59848,0.32242l-1.49473,2.24945l-1.49495,-2.24945c-0.11817,-0.17797 -0.38698,-0.32242 -0.60076,-0.32242l-1.35794,0c-0.21378,0 -0.2893,0.14444 -0.17093,0.32242zm-39.17328,3.85904c0,-1.31635 1.06734,-2.38396 2.38396,-2.38396c1.31659,0 2.38382,1.06761 2.38382,2.38396c0,1.31677 -1.06724,2.38377 -2.38382,2.38377c-1.31662,0 -2.38396,-1.06699 -2.38396,-2.38377zm32.04599,-2.38396l1.05499,0c1.31656,0 2.38397,1.06761 2.38397,2.38396c0,1.31677 -1.06741,2.38377 -2.38397,2.38377l-1.05499,0l0,-4.76773zm54.85073,-1.62139l0,7.80129c0,0.21376 0.17239,0.38615 0.38573,0.38615l1.18226,0c0.21398,0 0.38616,-0.17238 0.38616,-0.38615l0,-4.09373l4.61625,4.53348c0.15273,0.14941 0.69843,-0.01656 0.69843,-0.22971l0,-7.80129c0,-0.21397 -0.17218,-0.38615 -0.38615,-0.38615l-1.18185,0c-0.21378,0 -0.38615,0.17217 -0.38615,0.38615l0,4.24003l-4.61604,-4.67978c-0.03725,-0.03786 -0.10099,-0.05629 -0.17363,-0.05877c-0.2177,-0.00682 -0.52501,0.12809 -0.52501,0.28848zm18.66096,0.91799c-0.07885,0.07761 -0.07761,0.1521 0.00456,0.23466l1.09409,1.09411c0.07181,0.07201 0.14817,0.07015 0.22701,0c0.39132,-0.34642 0.98878,-0.60572 1.6096,-0.62538c1.30043,-0.04097 2.35997,1.04174 2.38376,2.38417c-0.02379,1.34243 -1.08333,2.42515 -2.38376,2.38356c-0.62081,-0.01966 -1.21828,-0.27834 -1.6096,-0.62538c-0.07883,-0.06933 -0.1552,-0.07119 -0.22701,0l-1.09409,1.09472c-0.08279,0.08216 -0.08341,0.15727 -0.00456,0.23426c0.84928,0.83605 1.95911,1.16839 2.93587,1.17233c2.3372,0.01014 4.23508,-1.88173 4.25969,-4.25948c-0.0246,-2.37775 -1.92249,-4.27003 -4.25969,-4.2599c-0.97678,0.00373 -2.08659,0.33628 -2.93587,1.17233zm-53.75538,-0.83791l0,1.28532c0,0.14196 0.11485,0.25599 0.25681,0.25599l2.79205,0l0,6.30924c0,0.14196 0.11424,0.2562 0.2562,0.2562l1.44115,0c0.14194,0 0.25619,-0.11423 0.25619,-0.2562c0,-1.89166 0,-5.30971 0,-7.85054c0.01014,-0.14135 -0.11423,-0.25619 -0.25619,-0.25619l-4.4894,0c-0.14197,0 -0.25681,0.11423 -0.25681,0.25619l0,-0.00001zm7.44989,0l3.76614,8.10674c0.09084,0.19493 0.42525,0.19493 0.51548,0l3.76883,-8.10674c0.06621,-0.14196 -0.00684,-0.25619 -0.16328,-0.25619l-1.34097,0c-0.15707,0 -0.33691,0.11423 -0.40311,0.25619l-0.46191,0.99436l-3.30177,0l-0.46189,-0.99436c-0.06622,-0.14196 -0.24419,-0.25619 -0.40063,-0.25619l-1.35278,0c-0.15727,0 -0.22971,0.11423 -0.1641,0.25619l-0.00002,0zm10.0582,5.56694c0,1.40265 1.13776,2.53979 2.54021,2.53979c1.30187,0 2.29436,0 3.54678,0c0.17796,0 0.32241,-0.14383 0.32241,-0.32262l0,-7.71789c0,-0.17797 -0.14445,-0.32242 -0.32241,-0.32242l-1.23109,0c-0.17776,0 -0.32243,0.14444 -0.32243,0.32242l0,2.96051l-0.72801,0l-1.61663,-2.99963c-0.08443,-0.15644 -0.29592,-0.2833 -0.4739,-0.2833l-1.46059,0c-0.17797,0 -0.25309,0.12685 -0.16846,0.2833l1.68016,3.11882c-1.02395,0.32759 -1.76604,1.2878 -1.76604,2.42102l-0.00001,0zm9.14476,0.9989l0,1.2847c0,0.14196 0.11464,0.2562 0.2566,0.2562l5.27122,0c0.14196,0 0.2562,-0.11423 0.2562,-0.2562l0,-1.2847c0,-0.14196 -0.11423,-0.25681 -0.2562,-0.25681l-1.69795,0l0,-6.30904c0,-0.14196 -0.11423,-0.25619 -0.2562,-0.25619l-1.36292,0c-0.14197,0 -0.25681,0.11423 -0.25681,0.25619l0,6.30904l-1.69733,0c-0.14196,0 -0.2566,0.11485 -0.2566,0.25681zm18.83685,-6.55839l0,1.27021c0,0.1463 0.11797,0.26365 0.26386,0.26365l3.25313,0l0,1.56365l-2.70618,0c-0.14569,0 -0.26386,0.11734 -0.26386,0.26385l0,1.27c0,0.1459 0.11817,0.26385 0.26386,0.26385l2.70618,0l0,1.40638l-3.25313,0c-0.1459,0 -0.26386,0.11796 -0.26386,0.26364l0,1.27021c0,0.14631 0.11797,0.26385 0.26386,0.26385l4.8654,0c0.14631,0 0.26363,-0.11755 0.26363,-0.26385l0,-7.83543c0,-0.14631 -0.11732,-0.26365 -0.26363,-0.26365l-4.8654,0c-0.1459,0 -0.26386,0.11734 -0.26386,0.26365l0,-0.00001zm-34.89635,2.62816l1.77369,0l-0.88715,1.908l-0.88654,-1.908zm8.79068,2.81399c0,-0.51797 0.4203,-0.93827 0.93827,-0.93827l1.71925,0l0,1.87593l-1.71925,0c-0.51797,0 -0.93827,-0.41968 -0.93827,-0.93766z" stroke="null"/>
</svg>