<svg xmlns="http://www.w3.org/2000/svg" width="128" height="64"><path d="M70.215 30.1a9.266 9.266 0 1 1 0-9.267M42.57 35.9a22.222 22.222 0 1 0 0-20.867" fill="none" stroke="#000" stroke-width="6"/><path d="M37.09 63.217c-.023.138.05.254.153.254h.874c.103 0 .17-.113.19-.25l.303-2.31 1.317 2.512c.068.13.336.13.405 0l1.333-2.47.307 2.268c.02.138.03.254.174.254h.937c.08 0 .124-.115.1-.253l-.875-5.065c-.036-.206-.297-.206-.355-.1l-1.823 3.342-1.824-3.343c-.07-.13-.323-.08-.354.102zM23.77 60.76c.016 1.542 1.246 2.768 2.76 2.76.633-.002 1.353-.217 1.903-.76.05-.05.05-.097-.003-.15l-.71-.71c-.046-.046-.095-.045-.146 0-.254.225-.64.393-1.043.405-.84.027-1.526-.674-1.542-1.544.016-.87.702-1.57 1.545-1.542.403.013.79.18 1.044.405.05.047.1.048.147 0l.71-.708c.053-.053.054-.102.003-.152-.55-.542-1.27-.757-1.902-.76-1.514-.006-2.744 1.22-2.76 2.76zm6.18 0a2.76 2.76 0 0 0 5.52 0 2.76 2.76 0 0 0-5.52 0zm15.245-2.538V63.3c0 .094.076.17.17.17h3.153a.17.17 0 0 0 .17-.17v-.823a.17.17 0 0 0-.17-.172H46.41v-1.012h1.754a.17.17 0 0 0 .17-.17V60.3a.17.17 0 0 0-.17-.173H46.41v-.912h2.108a.17.17 0 0 0 .17-.17v-.824a.17.17 0 0 0-.17-.17h-3.152a.17.17 0 0 0-.17.17zm5.527.038v5.002c0 .115.093.21.21.21h1.955a.19.19 0 0 0 .063-.013 2.712 2.712 0 0 0 2.476-2.7c0-1.42-1.09-2.58-2.476-2.7a.213.213 0 0 0-.063-.01H50.93a.21.21 0 0 0-.208.21zm5.827 0l1.71 2.578v2.382c0 .14.112.25.25.25h.766a.25.25 0 0 0 .25-.25v-2.372l1.72-2.588c.076-.115.025-.21-.113-.21h-.88a.518.518 0 0 0-.388.21l-.97 1.458-.968-1.458a.523.523 0 0 0-.39-.21h-.88c-.138 0-.187.095-.11.21zm-25.387 2.5a1.545 1.545 0 1 1 1.544 1.547c-.854 0-1.546-.69-1.546-1.544zm20.766-1.544h.684a1.545 1.545 0 0 1-.002 3.09h-.684zm35.544-1.05v5.054c0 .14.11.25.25.25h.766c.14 0 .25-.11.25-.25v-2.652l2.993 2.937c.1.097.453-.01.453-.148V58.3a.25.25 0 0 0-.25-.25h-.766a.25.25 0 0 0-.252.25v2.75l-2.99-3.034c-.025-.024-.066-.036-.113-.038-.14-.004-.34.083-.34.187zm12.092.594c-.05.05-.05.1.003.152l.71.71c.044.046.094.045.145 0 .254-.225.64-.393 1.043-.406.84-.027 1.527.675 1.543 1.545-.015.87-.7 1.574-1.544 1.547a1.7 1.7 0 0 1-1.044-.405c-.05-.044-.1-.045-.147 0l-.71.71c-.054.054-.054.1-.003.15.55.544 1.27.76 1.902.76 1.514.01 2.744-1.217 2.76-2.76-.016-1.54-1.246-2.765-2.76-2.76-.634.004-1.353.22-1.903.76zm-34.834-.543v.833c0 .092.075.166.167.166h1.81v4.088c0 .092.072.166.164.166h.934c.09 0 .164-.074.164-.166v-5.087c.006-.092-.074-.166-.166-.166H64.9a.168.168 0 0 0-.167.17zm4.828 0L72 63.47c.06.127.277.127.335 0l2.442-5.253c.043-.092-.004-.166-.105-.166h-.87c-.1 0-.218.077-.26.17l-.3.643h-2.14l-.3-.643a.307.307 0 0 0-.258-.167h-.877c-.102 0-.15.075-.106.167zm6.52 3.607c0 .91.737 1.646 1.646 1.646h2.298a.21.21 0 0 0 .21-.21v-5a.21.21 0 0 0-.21-.21h-.798a.21.21 0 0 0-.21.21v1.918h-.47l-1.048-1.943a.383.383 0 0 0-.307-.184h-.945c-.115 0-.164.085-.11.187l1.09 2.02a1.65 1.65 0 0 0-1.145 1.57zm5.925.648v.832c0 .092.075.166.167.166h3.416a.166.166 0 0 0 .166-.166v-.832a.166.166 0 0 0-.166-.167h-1.1v-4.088a.166.166 0 0 0-.166-.166h-.883a.168.168 0 0 0-.168.17v4.087h-1.1a.168.168 0 0 0-.166.167zm12.207-4.25v.823c0 .095.077.17.172.17h2.108v1.014h-1.754a.17.17 0 0 0-.17.17v.82c0 .096.076.17.17.17h1.754v.913h-2.108a.17.17 0 0 0-.17.17v.824c0 .094.075.17.17.17h3.153a.17.17 0 0 0 .17-.17V58.22a.17.17 0 0 0-.17-.17h-3.153a.17.17 0 0 0-.17.17zM71.6 59.925h1.15l-.576 1.236zm5.696 1.823c0-.335.272-.608.608-.608h1.114v1.216h-1.114a.608.608 0 0 1-.608-.608z"/></svg>