<svg xmlns="http://www.w3.org/2000/svg" width="128" height="64"><g clip-rule="evenodd" fill-rule="evenodd"><path d="M15.513 20.464c.053.022.11.022.166.023.78.017 1.554.107 2.324.223 1.31.197 2.59.506 3.843.908.413.132.82.281 1.229.427.234.083.233.086.233.333v5.468c0 .061.015.128-.04.19-.093-.046-.139-.124-.193-.191a23.556 23.556 0 0 0-1.159-1.358 8.832 8.832 0 0 0-2.194-1.685 8.358 8.358 0 0 0-3.074-1.003c-1.901-.223-3.666.123-5.232 1.195-.707.483-1.24 1.117-1.68 1.822-.555.895-.912 1.86-1.14 2.87a9.973 9.973 0 0 0-.261 2.53c.052 1.56.384 3.06 1.168 4.45.867 1.537 2.174 2.606 3.919 3.198.865.293 1.761.39 2.673.312 1.09-.094 2.104-.432 3.058-.93.88-.46 1.654-1.046 2.379-1.697.584-.525 1.096-1.107 1.59-1.704.039-.048.067-.14.142-.118.076.023.043.114.043.174.002 1.916 0 3.833.005 5.75 0 .162-.066.236-.219.299-1.172.48-2.396.8-3.64 1.065a23.796 23.796 0 0 1-4.113.5c-.368.01-.736.027-1.104.02-1.327-.024-2.638-.157-3.924-.48-1.938-.485-3.668-1.339-5.176-2.584a10.683 10.683 0 0 1-2.61-3.143 10.01 10.01 0 0 1-1.111-3.303 7.872 7.872 0 0 1-.078-.628.506.506 0 0 0-.06-.238v-1.758c.048-.092.054-.193.062-.291.016-.2.044-.396.073-.594.193-1.282.601-2.498 1.239-3.648.728-1.312 1.711-2.43 2.9-3.392a12.8 12.8 0 0 1 3.425-1.99 14.928 14.928 0 0 1 4.855-.998c.062-.003.125.002.184-.024h1.498zM41.67 40.338c.093-.171.142-.34.204-.505.699-1.838 1.393-3.677 2.09-5.515.774-2.043 1.548-4.085 2.326-6.127.265-.695.581-1.372.934-2.032.25-.467.58-.874 1.024-1.196.462-.333.99-.517 1.558-.604a9.672 9.672 0 0 1 1.454-.107l4.027-.003c.213 0 .216 0 .289.197.334.902.666 1.805.999 2.708l2.772 7.525 1.695 4.602 1.172 3.173c.091.248.09.249-.187.249h-5.113c-.197-.003-.199-.003-.265-.181l-.763-2.078-1.237-3.355c-.072-.195-.073-.196-.29-.196h-6.332c-.233 0-.234.001-.307.201l-1.666 4.537-.331.897c-.064.17-.068.175-.25.175-2.274-.001-4.546-.001-6.819-.008a5.682 5.682 0 0 1-1.114-.111 2.407 2.407 0 0 1-1.497-.954c-.324-.434-.578-.903-.813-1.383-.543-1.107-1.086-2.214-1.625-3.323-.22-.453-.458-.9-.6-1.382a2.29 2.29 0 0 1-.064-.941c.052-.414.283-.744.562-1.052.272-.3.572-.574.87-.848.295-.271.587-.544.83-.858.348-.446.614-.927.694-1.481.181-1.247-.224-2.292-1.25-3.107-.607-.484-1.323-.733-2.115-.813-.842-.084-1.622.107-2.383.414-.092.037-.138.092-.131.188.005.064 0 .13 0 .194v15.121l-.002.211c0 .085-.04.133-.135.131l-.15.002h-4.944c-.28 0-.281 0-.281-.262V24.505c0-.255 0-.256.268-.256l9.122.004c.831 0 1.658.046 2.474.21 1.078.218 2.074.605 2.928 1.272 1.102.86 1.776 1.953 1.964 3.293.193 1.384-.228 2.594-1.192 3.646-.42.459-.895.866-1.362 1.282-.077.068-.15.14-.228.208-.058.052-.07.107-.03.173.022.035.04.073.059.11l3.03 5.693c.034.061.056.13.131.198zm9.612-12.902c-.044.032-.05.068-.061.1l-.782 2.109-1.28 3.47c-.088.239-.176.477-.259.716-.038.11-.023.125.093.135.031.003.063.002.094.002H53.3c.222 0 .228-.008.16-.209l-2.103-6.177c-.017-.049-.022-.103-.075-.146zM113.508 32.019V21.645c0-.363.006-.313.337-.314h13.448c.218.002.228.01.229.222v3.06c0 .04-.003.082-.007.122-.008.072-.054.1-.127.1l-.187.002h-7.923c-.297 0-.294-.024-.294.28v4.36c0 .259 0 .259.28.259h7.772c.329 0 .312-.021.312.3v3.024c-.003.209-.008.215-.235.215H119.266c-.199.004-.209.01-.209.203v5.469c.002.211.005.215.232.215h8.391l.225.003c.076.002.114.04.116.11.002.047.003.093.003.14v3.042l-.001.088c-.008.136-.021.15-.163.156-.056.003-.113.002-.169.002h-13.972c-.196-.004-.207-.014-.21-.205-.002-.058-.001-.117-.001-.176V32.02zM79.453 30.038c-.082-.008-.107-.076-.147-.125-.322-.395-.64-.794-.996-1.165-1.134-1.183-2.52-1.958-4.193-2.259a6.016 6.016 0 0 0-1.359-.104c-1.33.066-2.555.41-3.596 1.223-.525.41-.934.91-1.269 1.466-.566.941-.889 1.958-1.052 3.023a7.982 7.982 0 0 0-.106 1.506c.05 1.316.32 2.584.978 3.76.837 1.497 2.127 2.475 3.876 2.898 1.025.248 2.042.172 3.044-.129.983-.295 1.85-.785 2.644-1.397a11.719 11.719 0 0 0 2.028-2.014c.033-.042.06-.09.111-.117.01-.005.024-.004.037-.006.057.044.041.106.042.162 0 1.624-.001 3.248.002 4.871 0 .144-.057.218-.198.276-1.106.45-2.262.739-3.437.97-.727.142-1.462.238-2.201.306-.248.022-.498.036-.747.043-.368.01-.735.036-1.104.03-1.418-.027-2.811-.192-4.159-.628-1.722-.558-3.21-1.455-4.436-2.723a8.633 8.633 0 0 1-2.347-4.576 9.306 9.306 0 0 1-.138-2.102c.11-2.218.866-4.209 2.411-5.911a10.899 10.899 0 0 1 3.433-2.543 12.051 12.051 0 0 1 3.393-1.017c.809-.121 1.623-.176 2.442-.164a19.09 19.09 0 0 1 2.384.19c1.538.218 3.021.62 4.469 1.147.228.083.233.089.233.32v4.59c0 .066.022.141-.042.199zM100.66 33.479v-8.914c0-.37.015-.315.336-.315 1.654-.002 3.309 0 4.963 0 .294 0 .294 0 .294.282v14.855c0 .334-.026.304.322.304h5.75c.297 0 .297 0 .297.281v2.532c-.004.187-.014.198-.215.198H100.983c-.307 0-.323.047-.323-.31v-8.913zM96.17 42.703c-1.005 0-2.01-.004-3.015.003-.182.002-.294-.047-.397-.193-1.178-1.658-2.363-3.31-3.546-4.964-.602-.841-1.204-1.683-1.804-2.526a4.632 4.632 0 0 1-.46-.763 1.819 1.819 0 0 1-.059-1.423c.125-.342.31-.653.546-.935.831-.99 1.64-1.995 2.45-2.998 1.193-1.475 2.387-2.949 3.574-4.428a.56.56 0 0 1 .496-.232c1.76.01 3.52.004 5.28.007.082 0 .198-.046.238.041.031.069-.066.13-.115.188l-7.075 8.305c-.144.17-.144.17-.01.346l4.416 5.852 2.64 3.5c.042.055.128.113.095.179-.04.08-.145.039-.22.04H96.17zM80.764 33.477v-8.932c0-.331.006-.295.318-.295h4.981c.292 0 .293 0 .293.267v17.968c-.003.208-.012.217-.234.217H80.934c-.143-.007-.16-.021-.168-.154-.004-.064-.002-.129-.002-.193v-8.878z"/></g></svg>