<svg xmlns="http://www.w3.org/2000/svg" width="128" height="64"><path fill="#29c2f1" d="M110.125 29.89c.043-.832.15-1.642.32-2.452.384-1.6 1.045-1.962 2.814-2.281 1.13-.171 2.26-.256 3.39-.256 1.151 0 2.324.064 3.454.256 2.878.49 3.453 1.257 3.453 4.754zm9.935-8.976a30.23 30.23 0 00-6.8-.043c-3.604.47-5.63 1.216-6.887 4.243-.81 1.961-1.066 4.456-1.066 6.843 0 2.175.213 4.52.917 6.46 1.258 3.39 3.198 4.2 7.014 4.712 1.13.128 2.26.192 3.39.17 1.172 0 2.323-.064 3.496-.213 3.496-.469 5.863-1.535 7.014-4.882l-4.498-1.066c-.49 1.066-1.173 1.28-2.559 1.599-1.044.256-2.238.32-3.453.362a17.576 17.576 0 01-3.347-.256c-1.898-.32-2.43-.746-2.857-2.664a13.124 13.124 0 01-.32-2.559h17.738c.49-8.165-.533-11.747-7.782-12.706zm-22.236.17l-7.312 17.674-7.313-17.673h-5.053l8.955 21.788h6.886l8.911-21.788zm-69.458 0v21.789H33.1v-6.737h5.927l4.413 6.737h5.308l-4.626-7.206c3.091 0 5.308-2.963 5.308-7.014 0-4.264-1.918-7.547-7.12-7.547zm4.733 4.222h8.975c2.111 0 2.665 1.641 2.75 3.347.043 1.705-.639 3.454-2.75 3.454H33.1zM.054 32c0 2.324.256 4.754 1.002 6.673 1.28 3.326 3.39 3.944 6.95 4.413 1.13.15 2.26.213 3.39.213a25.98 25.98 0 003.411-.213c3.71-.469 5.863-1.471 7.1-4.413a9.628 9.628 0 00.575-2.175l-4.498-1.023c-.533 2.175-1.216 2.601-3.134 2.985a17.162 17.162 0 01-3.454.277c-1.13 0-2.26-.107-3.39-.32-1.748-.32-2.11-.746-2.537-2.217C5.15 35.09 5 33.535 5 32c0-1.535.15-3.091.47-4.2.426-1.47.788-1.897 2.536-2.217 1.109-.213 2.26-.32 3.39-.32a18.72 18.72 0 013.454.277c1.918.384 2.6.81 3.134 2.985l4.498-1.045a9.628 9.628 0 00-.576-2.174c-1.257-2.964-3.39-3.944-7.099-4.413a26.17 26.17 0 00-3.411-.214c-1.13 0-2.26.064-3.39.214-3.56.469-5.67 1.108-6.95 4.413C.31 27.267.054 29.676.054 32zm74.81-3.923c0-5.841-4.094-7.376-10.682-7.376-2.984 0-6.033.426-8.229 1.044l1.173 3.987a28.107 28.107 0 017.056-.789c4.35.107 6.31.32 6.034 4.413a51.732 51.732 0 00-6.034-.277c-7.056.15-10.66 1.002-10.66 6.695 0 5.948 3.604 7.547 10.66 7.547 2.921 0 6.588-.064 10.703-1.258zm-4.67 5.351v5.245a35.57 35.57 0 01-6.033.384c-4.52-.064-6.033-.107-6.033-3.283 0-2.644 2.11-2.75 6.033-2.75 2.025.02 4.05.149 6.033.404z"/></svg>