<svg xmlns="http://www.w3.org/2000/svg" width="128" height="64"><path clip-path="url(#SVGID_653_)" d="M-184.345 231.248c11.406 0 20.66-9.255 20.66-20.666s-9.254-20.66-20.66-20.66c-11.405 0-20.665 9.249-20.665 20.66s9.26 20.666 20.665 20.666" fill="#ef3e42" transform="translate(205.056 -178.585)"/><path clip-path="url(#SVGID_653_)" fill="#007ac2" d="M-162.124 191.466h37.875v38.96h-37.875z" transform="translate(205.056 -178.585)"/><path transform="matrix(5.95894 0 0 5.95894 -2628.588 -1630.543)" clip-path="url(#SVGID_653_)" fill="#009d57" d="M462.589 275.791h-7.753l3.875 6.611z"/><path clip-path="url(#SVGID_653_)" d="M-172.254 214.741c-1.704 5.143-6.501 8.85-12.162 8.85-7.08 0-12.812-5.799-12.812-12.95 0-7.15 5.44-12.644 12.52-12.644 5.845 0 10.97 3.736 12.585 9.057h-3.54c-1.46-3.456-4.987-5.81-8.968-5.81-5.22 0-9.242 4.058-9.242 9.332 0 5.274 4.23 9.552 9.457 9.552 3.742 0 6.972-2.199 8.515-5.387z" fill="#fff" transform="translate(205.056 -178.585)"/><path transform="matrix(5.95894 0 0 5.95894 -2628.588 -1630.543)" clip-path="url(#SVGID_653_)" fill="#fff" d="M451.818 277.692v3.31h-.587v-3.31h-1.797v-.586h4.144v.586zM457.085 276.994h-.684l2.308 3.901 2.307-3.901h-.682l-1.625 2.703z"/></svg>