<svg xmlns="http://www.w3.org/2000/svg" width="128" height="64"><path d="M17.566 14.036A18.158 18.158 0 00-.052 32.19a18.158 18.158 0 0036.307 0 18.158 18.158 0 00-18.691-18.155zm7.773 7.384v18.007l-12.11 4.435V30.265l-5.898 2.07v-4.434L25.34 21.42zm89.018 3.192l-2.875.755v3.436h-1.901v2.193h1.926v5.654c0 2.593.78 3.484 3.24 3.484.783 0 1.6-.113 2.316-.293v-2.314a5.481 5.481 0 01-1.39.195c-.984 0-1.316-.421-1.316-1.852v-4.874h2.706v-2.193h-2.706zm-64.526.097c-1.856 0-3.688.077-4.873.122V39.89c1.275.045 2.626.097 4.19.097 4.921 0 8.335-2.707 8.335-7.895 0-5.3-2.977-7.383-7.651-7.383zm34.213.097v15.109h8.211v-2.486h-5.287v-4.093h5.02V30.97h-5.02v-3.727h5.287v-2.438h-8.21zM48.662 27.17c.299-.011.639 0 .974 0 3.444 0 4.704 1.924 4.704 5.166 0 3.578-2.059 5.166-4.899 5.166-.58 0-1.181-.03-1.583-.098V27.22c.234-.022.505-.037.804-.048zm14.767 1.365c-1.431 0-2.878.304-3.997.707l.269 2.387c.94-.536 2.259-.877 3.265-.877 1.61 0 2.168.616 2.168 1.779v.61c-3.779 0-6.408 1.408-6.408 4.068 0 1.79 1.155 2.925 3.167 2.925 1.656 0 3.022-.867 3.559-2.12l.024.024c-.09.581-.098 1.228-.098 1.877h2.705a62.433 62.433 0 01-.073-2.876v-4.63c0-2.415-1.003-3.874-4.581-3.874zm11.355 0c-3.131 0-4.727 1.612-4.727 3.558 0 3.78 4.484 2.662 4.484 4.63 0 .738-.708 1.194-1.804 1.194-.85 0-1.695-.163-2.388-.342l-.073 2.364c.716.112 1.535.195 2.34.195 3.04 0 4.946-1.488 4.946-3.68 0-3.6-4.557-2.794-4.557-4.605 0-.694.539-1.146 1.657-1.146.694 0 1.42.114 2.047.293l.098-2.242c-.671-.112-1.374-.219-2.023-.219zm25.904 0c-1.924-.156-2.998 1.076-3.534 2.485h-.049a14.41 14.41 0 00.195-2.217h-2.705v11.112h2.851v-4.557c0-3.086 1.037-4.422 3.095-3.997l.146-2.826zm5.506 0c-3.13 0-4.727 1.612-4.727 3.558 0 3.78 4.508 2.662 4.508 4.63 0 .738-.732 1.194-1.827 1.194-.85 0-1.696-.163-2.389-.342l-.072 2.364a15.42 15.42 0 002.339.195c3.041 0 4.971-1.488 4.971-3.68 0-3.6-4.581-2.794-4.581-4.605 0-.694.538-1.146 1.657-1.146.693 0 1.445.114 2.07.293l.073-2.242c-.67-.112-1.374-.219-2.022-.219zm17.179 0c-3.331 0-5.215 2.522-5.215 5.921 0 3.914 1.975 5.678 5.508 5.678 1.386 0 2.787-.262 3.972-.731l-.268-2.194c-.962.448-2.145.683-3.24.683-2.059 0-3.094-1.015-3.072-3.094h6.897c.067-.47.097-.913.097-1.292 0-2.75-1.436-4.971-4.678-4.971zm-.097 2.12c1.207 0 1.97.831 1.925 2.217h-4.093c.155-1.342.982-2.218 2.167-2.218zm-58.141 4.338v.267c0 1.342-.955 2.68-2.364 2.68-.827 0-1.316-.478-1.316-1.193 0-.894.66-1.754 3.68-1.754z" fill="#001a4b" fill-rule="evenodd"/></svg>