<?xml version="1.0" encoding="UTF-8" standalone="no"?>

<svg xmlns:svg="http://www.w3.org/2000/svg" xmlns="http://www.w3.org/2000/svg" version="1.1" width="128" height="64" xmlns:xlink="http://www.w3.org/1999/xlink">
	<g stroke="null" transform="matrix(1.2330095767974854,0,0,-1.2330095767974854,277.876788402041,364.67766458299127) "/>
	<g stroke="null" transform="matrix(2.4890245229779007,0,0,-2.4890245229779007,-686.2357911498275,2461.1121355901046) ">
		<g stroke="null">
			<path fill="#000000" fill-rule="nonzero" d="m278.75858,974.07831l1.42099,0c1.33902,0 2.37903,0.70398 2.37903,2.97998c0,2.27502 -1.04001,2.96802 -2.26401,2.96802l-1.53601,0l0,-5.948zm-2.853,0l0.73901,0c0.26599,0 0.49698,0.09198 0.49698,0.39294l0,5.16205c0,0.30096 -0.23099,0.39301 -0.49698,0.39301l-0.73901,0l0,0.85498l4.60901,0c2.32098,0 3.85699,-1.29401 3.85699,-3.823c0,-2.52905 -1.53601,-3.83502 -3.85699,-3.83502l-4.60901,0l0,0.85504z"/>
		</g>
		<g stroke="null">
			<path fill="#000000" fill-rule="nonzero" d="m288.04837,976.20441l-1.20801,-0.54706c-0.32999,-0.14801 -0.68298,-0.33002 -0.68298,-0.86499c0,-0.47894 0.21701,-0.71796 0.68298,-0.71796c0.77502,0 1.20801,0.66095 1.20801,1.39001l0,0.73999zm2.65399,-0.83105l0,-0.34198c0,-1.27502 -0.513,-1.81097 -1.46899,-1.81097c-0.56998,0 -1.06,0.23901 -1.151,0.84302c-0.42099,-0.63806 -1.14999,-0.84302 -1.86798,-0.84302c-0.888,0 -1.58301,0.42102 -1.58301,1.44598c0,2.20996 3.41699,1.13898 3.41699,2.745c0,0.729 -0.61499,0.86603 -1.21899,0.86603c-0.319,0 -0.854,-0.10303 -1.05899,-0.37604c0.42099,0.05701 0.75198,-0.125 0.75198,-0.59198c0,-0.513 -0.353,-0.672 -0.798,-0.672c-0.48898,0 -0.819,0.37598 -0.819,0.84296c0,1.16107 1.38901,1.41205 2.289,1.41205c1.53702,0 2.198,-0.69501 2.198,-1.65204l0,-2.78998c0,-0.25098 0.10202,-0.37598 0.27301,-0.37598c0.17099,0 0.30801,0.159 0.30801,0.86499l0,0.43396l0.72897,0z"/>
		</g>
		<g stroke="null">
			<path fill="#000000" fill-rule="nonzero" d="m292.90936,977.94989l-0.397,0c-0.15201,0 -0.26801,-0.11804 -0.26801,-0.28204c0,-0.08197 0.05801,-0.29395 0.14001,-0.565l0.82901,-2.612l0.02298,0l0.89902,2.612c0.09299,0.27106 0.13998,0.48303 0.13998,0.565c0,0.164 -0.117,0.28204 -0.26898,0.28204l-0.52502,0l0,0.77698l2.591,0l0,-0.77698c-0.52499,-0.03503 -0.71201,-0.21204 -0.81699,-0.51807l-1.49399,-4.21094l-1.50601,0l-1.52802,4.37598c-0.082,0.24701 -0.19897,0.35303 -0.75897,0.35303l0,0.77698l2.94098,0l0,-0.77698z"/>
		</g>
		<g stroke="null">
			<path fill="#000000" fill-rule="nonzero" d="m299.73389,976.65399c0.01199,0.72192 -0.21698,1.43396 -1.03198,1.43396c-0.78003,0 -1.06601,-0.71204 -1.10101,-1.43396l2.133,0zm-2.133,-0.75702c-0.034,-0.89398 0.241,-1.85797 1.30701,-1.85797c0.82599,0 1.23898,0.42499 1.388,1.21594l0.952,0c-0.14902,-1.30798 -0.94,-2.07599 -2.466,-2.07599c-1.77701,0 -2.71799,0.99799 -2.71799,2.85602c0,1.67401 1.078,2.85596 2.66098,2.85596c1.88101,0 2.672,-1.68597 2.54599,-2.99396l-3.66998,0z"/>
		</g>
		<g stroke="null">
			<path fill="#000000" fill-rule="nonzero" d="m305.24948,981.12982c0.48901,0 0.87302,-0.37201 0.87302,-0.86096c0,-0.48901 -0.384,-0.87299 -0.87302,-0.87299c-0.48898,0 -0.86099,0.39594 -0.86099,0.87299c0,0.47699 0.37201,0.86096 0.86099,0.86096m-1.26801,-3.18793l-0.466,0l0,0.77997l2.548,0l0,-5.79401c0,-1.48999 -0.535,-2.19904 -1.90799,-2.19904c-0.965,0 -1.59399,0.51202 -1.59399,1.198c0,0.46503 0.349,0.80304 0.82599,0.80304c0.41901,0 0.69901,-0.26801 0.69901,-0.66302c0,-0.38397 -0.198,-0.56995 -0.617,-0.62897c0.198,-0.08105 0.36099,-0.12701 0.48801,-0.12701c0.547,0 0.68698,0.40698 0.68698,1.24402l0,4.68903c0,0.53497 -0.06998,0.698 -0.66299,0.698"/>
		</g>
		<g stroke="null">
			<path fill="#000000" fill-rule="nonzero" d="m326.63559,973.98895c-0.57599,0 -0.655,0.16406 -0.655,0.70203l0,4.03601l-2.53,0l0,-0.784l0.51901,0c0.577,0 0.65601,-0.164 0.65601,-0.70197l0,-1.427c0,-1.24005 -0.58801,-1.88306 -1.39001,-1.88306c-0.63202,0 -0.836,0.37402 -0.836,1.13403l0,3.66199l-4.86002,0l0,-0.77698l0.52502,0c0.15198,0 0.26898,-0.11804 0.26898,-0.28204c0,-0.08295 -0.047,-0.29395 -0.14099,-0.565l-0.89801,-2.61194l-0.02399,0l-0.828,2.61194c-0.082,0.27106 -0.14001,0.48206 -0.14001,0.565c0,0.164 0.116,0.28204 0.26801,0.28204l0.397,0l0,0.77698l-2.94098,0l0,-0.77698c0.56,0 0.67596,-0.10602 0.758,-0.35303l1.52899,-4.37598l1.50598,0l1.49402,4.21094c0.10498,0.30603 0.29199,0.48206 0.81601,0.51807l0,0c0,0 0.37299,0 0.38699,0c0.461,-0.02502 0.52798,-0.21301 0.52798,-0.70898l0,-2.17603c0,-1.40405 0.44101,-2.03503 1.71701,-2.03503c0.64398,0 1.276,0.38605 1.86401,1.146l0,-0.97095l2.30399,0l0,0.78394l-0.29401,0z"/>
		</g>
		<g stroke="null">
			<path fill="#000000" fill-rule="nonzero" d="m310.03989,976.19318l-1.20801,-0.547c-0.32999,-0.14807 -0.68298,-0.33008 -0.68298,-0.86499c0,-0.479 0.21698,-0.71802 0.68298,-0.71802c0.77502,0 1.20801,0.66101 1.20801,1.39001l0,0.73999zm2.65399,-0.83105l0,-0.34198c0,-1.276 -0.513,-1.81097 -1.46899,-1.81097c-0.56998,0 -1.06,0.23901 -1.151,0.84302c-0.42099,-0.638 -1.14999,-0.84302 -1.86798,-0.84302c-0.888,0 -1.58301,0.42102 -1.58301,1.44598c0,2.20996 3.41699,1.13898 3.41699,2.745c0,0.729 -0.61499,0.86597 -1.21899,0.86597c-0.319,0 -0.854,-0.10297 -1.05899,-0.37598c0.42099,0.05701 0.75198,-0.125 0.75198,-0.59198c0,-0.513 -0.353,-0.672 -0.798,-0.672c-0.48898,0 -0.819,0.37598 -0.819,0.84302c0,1.16101 1.38901,1.41193 2.289,1.41193c1.53702,0 2.198,-0.69495 2.198,-1.65192l0,-2.79004c0,-0.25098 0.10202,-0.37598 0.27301,-0.37598c0.17099,0 0.30801,0.15894 0.30801,0.86493l0,0.43402l0.72897,0z"/>
		</g>
	</g>
</svg>