<svg xmlns="http://www.w3.org/2000/svg" width="128" height="64"><g stroke="null"><path d="M7.6 36.607h3.538c3.333 0 5.92-1.752 5.92-7.417 0-5.662-2.587-7.387-5.634-7.387H7.6v14.804zm-7.1 0h1.84c.66 0 1.236-.23 1.236-.978V22.78c0-.748-.575-.977-1.237-.977H.5v-2.128h11.472c5.777 0 9.6 3.22 9.6 9.515s-3.823 9.546-9.6 9.546H.5v-2.13zm30.224-5.292l-3.007 1.362c-.82.368-1.7.82-1.7 2.153 0 1.192.54 1.787 1.7 1.787 1.93 0 3.007-1.645 3.007-3.46v-1.842zm6.606 2.07v.85c0 3.174-1.277 4.508-3.657 4.508-1.42 0-2.638-.595-2.865-2.1-1.048 1.59-2.862 2.1-4.65 2.1-2.21 0-3.94-1.048-3.94-3.6 0-5.5 8.506-2.834 8.506-6.832 0-1.81-1.53-2.15-3.034-2.15-.794 0-2.126.26-2.636.94 1.048-.14 1.87.31 1.87 1.48 0 1.277-.877 1.673-1.985 1.673-1.22 0-2.04-.936-2.04-2.1 0-2.89 3.45-3.513 5.69-3.513 3.82 0 5.47 1.73 5.47 4.11v6.942c0 .624.25.935.68.935.42 0 .76-.397.76-2.154v-1.08h1.815zm5.493-6.415h-.988c-.38 0-.667.295-.667.703 0 .204.144.732.348 1.406l2.063 6.5h.05l2.23-6.5c.23-.68.35-1.21.35-1.41 0-.41-.29-.7-.67-.7h-1.3v-1.94h6.45v1.93c-1.31.09-1.775.53-2.036 1.29l-3.72 10.48H41.19l-3.8-10.89c-.203-.616-.495-.88-1.89-.88v-1.93h7.32v1.932zm16.987 3.226c.03-1.796-.54-3.57-2.57-3.57-1.94 0-2.653 1.774-2.74 3.57h5.31zM54.5 32.08c-.085 2.226.6 4.625 3.253 4.625 2.056 0 3.084-1.058 3.455-3.026h2.37c-.37 3.25-2.34 5.16-6.138 5.16-4.423 0-6.765-2.49-6.765-7.11 0-4.17 2.683-7.11 6.623-7.11 4.682 0 6.65 4.19 6.337 7.45H54.5zm19.038-13.024c1.217 0 2.173.926 2.173 2.143 0 1.21-.95 2.17-2.17 2.17s-2.14-.99-2.14-2.18.93-2.15 2.15-2.15m-3.16 7.936h-1.16v-1.94h6.34v14.42c0 3.71-1.33 5.473-4.75 5.473-2.4 0-3.962-1.275-3.962-2.98 0-1.16.87-2 2.056-2 1.04 0 1.74.667 1.74 1.65 0 .956-.494 1.42-1.537 1.565.492.2.9.314 1.214.314 1.36 0 1.71-1.014 1.71-3.098V28.72c0-1.33-.174-1.737-1.65-1.737M126.768 36.83c-1.433 0-1.63-.41-1.63-1.748V25.037h-6.297v1.95h1.3c1.44 0 1.64.41 1.64 1.748v3.552c0 3.087-1.463 4.687-3.46 4.687-1.573 0-2.08-.93-2.08-2.823v-9.11h-12.1v1.94h1.307c.378 0 .67.3.67.71 0 .206-.12.73-.352 1.406l-2.234 6.5h-.06l-2.06-6.5c-.21-.675-.35-1.2-.35-1.406 0-.41.29-.705.663-.705h.988v-1.94h-7.32v1.932c1.397 0 1.686.264 1.89.88l3.807 10.89h3.745l3.72-10.48c.26-.762.726-1.2 2.03-1.29h.964c1.147.063 1.314.53 1.314 1.765v5.416c0 3.496 1.1 5.067 4.276 5.067 1.602 0 3.175-.96 4.64-2.85v2.42h5.733v-1.95h-.734zM85.46 31.343l-3.006 1.362c-.82.368-1.7.82-1.7 2.153 0 1.192.54 1.787 1.7 1.787 1.93 0 3.007-1.645 3.007-3.46v-1.842zm6.607 2.07v.85c0 3.176-1.277 4.508-3.656 4.508-1.41 0-2.63-.59-2.86-2.09-1.05 1.59-2.86 2.1-4.65 2.1-2.21 0-3.94-1.05-3.94-3.6 0-5.5 8.51-2.83 8.51-6.83 0-1.81-1.53-2.15-3.03-2.15-.79 0-2.123.255-2.633.935 1.05-.14 1.873.31 1.873 1.474 0 1.274-.88 1.67-1.987 1.67-1.216 0-2.04-.935-2.04-2.1 0-2.887 3.46-3.51 5.7-3.51 3.825 0 5.47 1.73 5.47 4.11v6.943c0 .624.254.935.68.935.425 0 .767-.395.767-2.152v-1.08h1.814z"/></g></svg>