<svg xmlns="http://www.w3.org/2000/svg" width="128" height="64"><path fill="#001722" d="M95.366 32c0 17.323-14.043 31.366-31.366 31.366S32.634 49.323 32.634 32 46.677.634 64 .634 95.366 14.677 95.366 32z"/><path fill="none" stroke="#fff" stroke-width=".031" d="M92.712 32c0 15.614-12.855 28.272-28.712 28.272S35.288 47.614 35.288 32C35.288 16.386 48.143 3.728 64 3.728S92.712 16.386 92.712 32z"/><path d="M39.36 35.873h1.427c.51 0 .957-.177.957-.756v-9.96c0-.578-.446-.755-.957-.755H39.36v-1.65h8.89c4.476 0 7.44 2.495 7.44 7.375 0 4.878-2.964 7.396-7.44 7.396h-8.89v-1.65zm5.503 0h2.74c2.584 0 4.59-1.358 4.59-5.746 0-4.39-2.006-5.725-4.367-5.725h-2.963v11.47zM67.9 33.377v.66c0 2.458-.99 3.49-2.834 3.49-1.1 0-2.044-.46-2.22-1.625-.814 1.23-2.218 1.626-3.603 1.626-1.713 0-3.054-.813-3.054-2.79 0-4.262 6.59-2.197 6.59-5.294 0-1.406-1.19-1.67-2.35-1.67-.62 0-1.65.197-2.05.726.813-.11 1.45.24 1.45 1.14 0 .99-.68 1.297-1.538 1.297-.946 0-1.583-.724-1.583-1.626 0-2.23 2.68-2.72 4.416-2.72 2.965 0 4.24 1.34 4.24 3.19v5.38c0 .485.2.726.527.726.33 0 .59-.306.59-1.67v-.832h1.41zm-5.12-1.605l-2.328 1.055c-.637.286-1.318.637-1.318 1.67 0 .92.418 1.382 1.318 1.382 1.495 0 2.33-1.28 2.33-2.68v-1.43zm9.377-3.367h-.765c-.293 0-.518.228-.518.545 0 .16.113.567.27 1.09l1.597 5.037h.05l1.73-5.038c.19-.53.278-.94.278-1.09 0-.32-.226-.55-.518-.55h-1.02v-1.49h4.998v1.494c-1.013.068-1.372.408-1.577.997l-2.87 8.124H70.9l-2.95-8.44c-.16-.476-.384-.68-1.466-.68V26.91h5.676v1.495zm9.05 3.96c-.067 1.726.463 3.584 2.52 3.584 1.594 0 2.39-.82 2.677-2.35h1.836c-.286 2.52-1.812 4.002-4.755 4.002-3.43 0-5.243-1.926-5.243-5.51 0-3.23 2.08-5.51 5.13-5.51 3.63 0 5.157 3.254 4.91 5.777h-7.075zm4.113-1.46c.023-1.394-.42-2.765-1.992-2.765-1.504 0-2.055 1.37-2.122 2.765h4.114z" fill="#fff"/></svg>