<?xml version="1.0" encoding="UTF-8" standalone="no"?>

<svg xmlns:svg="http://www.w3.org/2000/svg" xmlns="http://www.w3.org/2000/svg" version="1.1" width="128" height="64" xmlns:xlink="http://www.w3.org/1999/xlink">
	<g transform="matrix(0.41824970110084053,0,0,0.41821810664589526,24.779523930864354,-15.746498588109631) ">
		<path fill="#001722" fill-rule="nonzero" d="m168.76717,114.16651c0,41.42117 -33.57613,74.99995 -74.99428,74.99995c-41.41816,0 -74.99429,-33.57878 -74.99429,-74.99995c0,-41.42118 33.57612,-74.99995 74.99429,-74.99995c41.41815,0 74.99428,33.57877 74.99428,74.99995z"/>
		<path fill="none" stroke="#ffffff" stroke-width="0.0734" d="m162.42064,114.1666c0,37.33452 -30.73471,67.60039 -68.64781,67.60039c-37.9131,0 -68.6478,-30.26587 -68.6478,-67.60039c0,-37.33453 30.7347,-67.60039 68.6478,-67.60039c37.9131,0 68.64781,30.26587 68.64781,67.60039z"/>
		<g fill="#ffffff" transform="matrix(2.7591602,0,0,2.7591602,-44.6875,89.191667) ">
			<path fill="#ffffff" d="m28.83145,12.40719l1.236,0c0.443,0 0.829,-0.153 0.829,-0.655l0,-8.63c0,-0.502 -0.386,-0.655 -0.829,-0.655l-1.236,0l0,-1.429l7.702,0c3.88,0 6.448,2.161 6.448,6.39c0,4.227 -2.568,6.409 -6.448,6.409l-7.702,0l0,-1.43zm4.768,0l2.374,0c2.24,0 3.977,-1.177 3.977,-4.979c0,-3.804 -1.737,-4.961 -3.783,-4.961l-2.568,0l0,9.94z"/>
			<path fill="#ffffff" d="m53.56145,10.24419l0,0.571c0,2.131 -0.857,3.026 -2.455,3.026c-0.952,0 -1.771,-0.4 -1.924,-1.409c-0.705,1.065 -1.922,1.409 -3.122,1.409c-1.484,0 -2.646,-0.704 -2.646,-2.418c0,-3.693 5.711,-1.903 5.711,-4.587c0,-1.218 -1.028,-1.447 -2.037,-1.447c-0.533,0 -1.428,0.171 -1.77,0.629c0.705,-0.096 1.256,0.208 1.256,0.989c0,0.856 -0.59,1.123 -1.332,1.123c-0.819,0 -1.371,-0.628 -1.371,-1.409c0,-1.939 2.322,-2.361 3.827,-2.361c2.569,0 3.673,1.162 3.673,2.762l0,4.664c0,0.418 0.173,0.627 0.458,0.627c0.286,0 0.512,-0.266 0.512,-1.446l0,-0.723l1.22,0zm-4.435,-1.391l-2.018,0.915c-0.552,0.247 -1.142,0.552 -1.142,1.446c0,0.799 0.362,1.198 1.142,1.198c1.295,0 2.018,-1.104 2.018,-2.321l0,-1.238z"/>
			<path fill="#ffffff" d="m57.25145,5.93619l-0.663,0c-0.254,0 -0.449,0.197 -0.449,0.472c0,0.138 0.098,0.491 0.233,0.944l1.385,4.365l0.04,0l1.501,-4.365c0.159,-0.453 0.236,-0.807 0.236,-0.944c0,-0.274 -0.196,-0.472 -0.449,-0.472l-0.878,0l0,-1.297l4.331,0l0,1.298c-0.878,0.059 -1.189,0.354 -1.367,0.864l-2.495,7.039l-2.518,0l-2.555,-7.314c-0.139,-0.412 -0.333,-0.589 -1.271,-0.589l0,-1.298l4.918,0l0,1.297l0.001,0z"/>
			<path fill="#ffffff" d="m65.09345,9.36819c-0.05801,1.495 0.40099,3.105 2.18499,3.105c1.38,0 2.069,-0.71 2.31901,-2.031l1.591,0c-0.24799,2.184 -1.571,3.469 -4.12099,3.469c-2.973,0 -4.543,-1.668 -4.543,-4.773c0,-2.799 1.802,-4.774 4.446,-4.774c3.146,0 4.468,2.819 4.255,5.005l-6.132,0l0,-0.001zm3.564,-1.267c0.02,-1.207 -0.363,-2.395 -1.726,-2.395c-1.303,0 -1.781,1.188 -1.839,2.396l3.56499,0l0,-0.001z"/>
		</g>
	</g>
</svg>