<svg xmlns="http://www.w3.org/2000/svg" xmlns:xlink="http://www.w3.org/1999/xlink" width="128" height="64"><defs><linearGradient xlink:href="#a" id="m" gradientUnits="userSpaceOnUse" x1="4480.724" y1="407.339" x2="4478.806" y2="1927.293"/><linearGradient id="a"><stop offset="0" stop-color="#c83737"/><stop offset="1" stop-color="#f55"/></linearGradient><linearGradient xlink:href="#a" id="x" gradientUnits="userSpaceOnUse" x1="4480.724" y1="407.339" x2="4478.806" y2="1927.293"/><linearGradient xlink:href="#a" id="w" gradientUnits="userSpaceOnUse" x1="4480.724" y1="407.339" x2="4478.806" y2="1927.293"/><linearGradient xlink:href="#a" id="v" gradientUnits="userSpaceOnUse" x1="4480.724" y1="407.339" x2="4478.806" y2="1927.293"/><linearGradient xlink:href="#a" id="u" gradientUnits="userSpaceOnUse" x1="4480.724" y1="407.339" x2="4478.806" y2="1927.293"/><linearGradient xlink:href="#a" id="f" x1="4480.724" y1="407.339" x2="4478.806" y2="1927.293" gradientUnits="userSpaceOnUse"/><linearGradient xlink:href="#a" id="g" gradientUnits="userSpaceOnUse" x1="4480.724" y1="407.339" x2="4478.806" y2="1927.293"/><linearGradient xlink:href="#a" id="h" gradientUnits="userSpaceOnUse" x1="4480.724" y1="407.339" x2="4478.806" y2="1927.293"/><linearGradient xlink:href="#a" id="i" gradientUnits="userSpaceOnUse" x1="4480.724" y1="407.339" x2="4478.806" y2="1927.293"/><linearGradient xlink:href="#a" id="j" gradientUnits="userSpaceOnUse" x1="4480.724" y1="407.339" x2="4478.806" y2="1927.293"/><linearGradient xlink:href="#a" id="k" gradientUnits="userSpaceOnUse" x1="4480.724" y1="407.339" x2="4478.806" y2="1927.293"/><linearGradient xlink:href="#a" id="l" gradientUnits="userSpaceOnUse" x1="4480.724" y1="407.339" x2="4478.806" y2="1927.293"/><linearGradient xlink:href="#a" id="t" gradientUnits="userSpaceOnUse" x1="4480.724" y1="407.339" x2="4478.806" y2="1927.293"/><linearGradient xlink:href="#a" id="n" gradientUnits="userSpaceOnUse" x1="4480.724" y1="407.339" x2="4478.806" y2="1927.293"/><linearGradient xlink:href="#a" id="o" gradientUnits="userSpaceOnUse" x1="4480.724" y1="407.339" x2="4478.806" y2="1927.293"/><linearGradient xlink:href="#a" id="p" gradientUnits="userSpaceOnUse" x1="4480.724" y1="407.339" x2="4478.806" y2="1927.293"/><linearGradient xlink:href="#a" id="q" gradientUnits="userSpaceOnUse" x1="4480.724" y1="407.339" x2="4478.806" y2="1927.293"/><linearGradient xlink:href="#a" id="r" gradientUnits="userSpaceOnUse" x1="4480.724" y1="407.339" x2="4478.806" y2="1927.293"/><linearGradient xlink:href="#a" id="s" gradientUnits="userSpaceOnUse" x1="4480.724" y1="407.339" x2="4478.806" y2="1927.293"/><linearGradient xlink:href="#a" id="y" gradientUnits="userSpaceOnUse" x1="4480.724" y1="407.339" x2="4478.806" y2="1927.293"/><clipPath id="b"><path d="M44.637 145.184c24.648 0 44.629-19.981 44.629-44.629 0-24.653-19.98-44.633-44.63-44.633C19.985 55.922 0 75.902 0 100.555c0 24.648 19.984 44.629 44.637 44.629z" clip-rule="evenodd"/></clipPath><clipPath id="e"><path d="M-5.844 150.891V50.082H94.965v100.809H-5.844z"/></clipPath><clipPath id="d"><path d="M44.637 145.184c24.648 0 44.629-19.981 44.629-44.629 0-24.653-19.98-44.633-44.63-44.633C19.985 55.922 0 75.902 0 100.555c0 24.648 19.984 44.629 44.637 44.629z" clip-rule="evenodd"/></clipPath><clipPath id="z"><path d="M0 168.93V0h791.758v168.93H0z"/></clipPath><clipPath id="c"><path d="M-5.844 150.891V50.082H94.965v100.809H-5.844z"/></clipPath></defs><g transform="matrix(.192 0 0 -.192 -125.319 -132.02)" clip-path="url(#b)"><g clip-path="url(#c)"><use xlink:href="#id6" width="744.094" height="1052.362" transform="translate(-6.1 49.9) scale(101.2)"/></g></g><g transform="matrix(.192 0 0 -.192 -201.394 -253.934)" clip-path="url(#d)"><g clip-path="url(#e)"><use xlink:href="#id6" width="744.094" height="1052.362" transform="translate(-6.1 49.9) scale(101.2)"/></g></g><g transform="translate(-.925 10.079) scale(1.08263)"><g transform="matrix(.01455 0 0 -.01456 -6.452 45.308)" fill="url(#f)"><path d="M748 2822l-238-76v-866h973l-6 143c-4 78-7 172-7 210v67h-218c-156 0-221 3-230 12s-12 89-12 300c0 224-3 288-12 287-7 0-120-35-250-77z" fill="url(#g)"/><path d="M4880 2390v-510h850c954 0 870-8 826 78-59 117-181 245-298 315-108 64-202 88-363 94-201 7-328-24-452-113-26-18-50-31-55-28-4 3-8 156-8 340v334h-500z" fill="url(#h)"/><path d="M7607 2380c-224-28-433-149-572-330-48-63-95-141-95-158 0-9 195-12 785-12h785v23c0 59-156 247-276 333-166 119-401 173-627 144z" fill="url(#i)"/><path d="M4402 2325c-84-19-165-57-233-110-31-24-59-41-63-38-3 3-6 33-6 65v58h-520v-420h1080v224c0 195-2 225-16 230-28 11-177 5-242-9z" fill="url(#j)"/><path d="M1690 2090v-210h510v420h-510z" fill="url(#k)"/><path d="M2850 2090v-210h510v420h-510z" fill="url(#l)"/><path d="M510 1385V990h522l-7 33c-5 17-10 195-12 395l-4 362H510z" fill="url(#m)"/><path d="M1690 1423c0-197 3-375 6-395l7-38h278c207 0 279 3 279 12 0 6-12 41-27 77l-27 66-4 318-4 317h-508z" fill="url(#n)"/><path d="M2848 1478c-4-327-8-352-63-424-50-66-58-64 275-64h300v790h-508z" fill="url(#o)"/><path d="M3580 1385V990h519l3 288c5 327 8 347 84 431 24 27 44 54 44 60 0 8-95 11-325 11h-325z" fill="url(#p)"/><path d="M4880 1385V990h305c189 0 305 4 305 10 0 5-16 38-35 72-47 87-63 135-75 233-19 150 11 310 75 405 19 29 35 56 35 61s-131 9-305 9h-305z" fill="url(#q)"/><path d="M6050 1765c0-8 14-36 30-62 65-102 92-257 71-402-16-111-34-166-76-235-19-32-35-62-35-67s130-9 290-9h289l11 38c41 143 53 453 24 623-9 52-20 102-25 112-9 16-33 17-294 17-244 0-285-2-285-15z" fill="url(#r)"/><path d="M6876 1728c-47-166-54-418-17-597 12-57 26-113 32-123 9-17 28-18 289-18 311 0 301-2 255 65-111 165-113 501-4 663 16 24 29 47 29 53 0 5-112 9-285 9h-284z" fill="url(#s)"/><path d="M8000 1773c0-4 20-48 45-98 37-73 48-107 57-179 19-154-16-345-83-444-16-24-29-47-29-53 0-5 112-9 285-9h284l16 53c56 186 60 505 9 685l-15 52h-284c-157 0-285-3-285-7z" fill="url(#t)"/><path d="M510 821c0-196 127-354 317-397 138-30 424-9 636 47 70 19 77 23 77 47 0 14-21 103-46 199l-47 173H510z" fill="url(#u)"/><path d="M1730 874c0-32 69-159 117-217 142-170 300-241 538-241 187 1 310 38 410 126 23 20 45 34 49 31 3-3 6-30 6-60v-53h510v430h-815c-750 0-815-1-815-16z" fill="url(#v)"/><path d="M3580 675V460h520v430h-520z" fill="url(#w)"/><path d="M4880 675V460h500v55c0 57 8 67 31 38 26-32 133-93 194-112 190-59 498-19 674 87 34 21 87 59 116 85 61 54 162 198 171 246l7 31H4880z" fill="url(#x)"/><path d="M6950 873c0-54 138-228 245-310 144-111 288-161 490-170 263-12 484 67 658 235 56 54 167 216 167 244 0 17-32 18-780 18-736 0-780-1-780-17z" fill="url(#y)"/></g><g clip-path="url(#z)" transform="matrix(.06444 0 0 -.0634 9.047 11.6)" fill="#b3b3b3"><path d="M771.457 140.617L749.66 78.25l-20.355 62.367h-20.789l31.609-84.48-.25-.582s-6.367-17.235-12.129-21.407c-4.437-2.27-14.82-2.097-18.75-1.828V16.395c6.863.007 23.004-.43 28.199 2.859 6.52 4.121 7.981 5.902 12.438 14.941 4.855 9.844 42.125 106.422 42.125 106.422zm-101.824-14.066v14.062h-19.488V55.535h19.488v32.39c0 5.688.535 10.688 2.101 14.813 5.868 15.477 22.231 19.879 30.7 21.133l-6.684 16.258c-6.801-1.172-18.773-4.453-26.117-13.578zM334.008 70.566c-14.981 0-25.445 12.235-25.445 27.54 0 14.98 10.304 27.226 24.48 27.226 9.824 0 16.105-4.348 22.066-10.633l12.086 13.047c-7.898 8.695-17.882 14.652-33.992 14.652-25.449 0-44.129-20.293-44.129-44.613s18.68-44.133 43.969-44.133c16.586 0 26.414 6.61 34.793 15.95l-11.762 11.59c-6.121-6.278-12.883-10.626-22.066-10.626zm282.23 35.508c-.32 3.117-1.023 4.004-2.101 6.742-1.067 2.735-2.528 5.129-4.34 7.164a19.315 19.315 0 01-6.531 4.762c-2.516 1.121-5.395 1.688-8.625 1.688-6.012 0-10.977-2.067-14.899-6.203-3.918-4.141-6.312-7.493-7.176-14.153zm16.754 8.028c1.715-5.532 2.578-11.364 2.578-17.48 0-.86-.023-1.747-.07-2.661a65.197 65.197 0 00-.25-2.82h-62.516c1.079-6.977 3.84-12.328 8.293-16.024 4.465-3.715 9.86-5.57 16.203-5.57 4.829 0 9.02.863 12.567 2.586 3.543 1.715 7.031 4.234 10.461 7.57l11.453-10.156a47.206 47.206 0 00-14.594-11.598c-5.633-2.898-12.371-4.355-20.215-4.355-6.125 0-11.843 1.09-17.16 3.226-5.312 2.149-9.933 5.16-13.859 9.024-3.918 3.867-7.008 8.508-9.258 13.933-2.258 5.426-3.387 11.422-3.387 17.97v.331c0 6.113 1.02 11.86 3.063 17.235 2.035 5.371 4.91 10.07 8.617 14.093 3.711 4.035 8.082 7.196 13.133 9.512 5.047 2.309 10.633 3.461 16.762 3.461 6.757 0 12.699-1.238 17.8-3.703 5.098-2.477 9.344-5.805 12.735-9.988 3.386-4.192 5.937-9.055 7.644-14.586zm-125.133-36.02l-22.879 62.531h-20.953L499 54.887h17.559l34.8 85.726h-20.468zM443.738 97.91c0 3.762-.648 7.305-1.937 10.629-1.289 3.332-3.09 6.231-5.399 8.703-2.312 2.473-5.043 4.434-8.214 5.887-3.168 1.449-6.692 2.172-10.559 2.172-3.867 0-7.387-.723-10.543-2.172-3.176-1.453-5.891-3.383-8.148-5.805-2.25-2.418-3.977-5.258-5.153-8.535-1.187-3.277-1.773-6.801-1.773-10.562v-.317c0-3.656.648-7.144 1.933-10.473 1.285-3.335 3.086-6.253 5.399-8.785 2.308-2.52 5.047-4.504 8.219-5.949 3.167-1.453 6.628-2.187 10.39-2.187 3.973 0 7.547.734 10.715 2.187 3.172 1.445 5.887 3.402 8.141 5.875 2.25 2.469 3.964 5.336 5.152 8.621 1.18 3.274 1.777 6.738 1.777 10.383zm16.11 17.492c2.254-5.324 3.382-11.05 3.382-17.175v-.317c0-6.016-1.16-11.707-3.464-17.074-2.317-5.371-5.477-10.074-9.508-14.106-4.024-4.035-8.84-7.222-14.41-9.586-5.594-2.363-11.664-3.55-18.219-3.55-6.441 0-12.434 1.156-17.957 3.468-5.539 2.31-10.32 5.454-14.348 9.426-4.031 3.977-7.168 8.649-9.426 14.012-2.257 5.375-3.382 11.07-3.382 17.082v.328c0 6.121 1.152 11.871 3.464 17.242 2.309 5.368 5.481 10.071 9.508 14.094 4.028 4.035 8.813 7.231 14.336 9.586 5.535 2.367 11.578 3.547 18.129 3.547 6.555 0 12.598-1.152 18.125-3.461 5.531-2.316 10.313-5.477 14.344-9.512 4.023-4.023 7.168-8.695 9.426-14.004zm-188.164-17.73c-2.52 1.871-5.34 3.461-8.461 4.754a110.459 110.459 0 01-9.344 3.383 376.974 376.974 0 01-7.168 2.418c-2.309.746-4.352 1.582-6.121 2.492-1.774.918-3.199 1.933-4.266 3.066-1.082 1.121-1.613 2.442-1.613 3.949v.313c0 2.473 1.043 4.519 3.141 6.125 2.089 1.609 5.027 2.418 8.781 2.418 3.551 0 7.41-.727 11.597-2.176 4.192-1.445 8.329-3.41 12.411-5.879l7.734 13.86c-4.512 3.007-9.504 5.367-14.988 7.085-5.473 1.719-10.903 2.583-16.274 2.583-4.187 0-8.133-.594-11.84-1.778-3.707-1.183-6.929-2.902-9.668-5.156-2.738-2.258-4.89-4.965-6.441-8.133-1.562-3.18-2.34-6.801-2.34-10.875v-.324c0-4.086.805-7.52 2.418-10.32 1.61-2.786 3.68-5.125 6.199-7 2.528-1.887 5.375-3.418 8.543-4.598a112.907 112.907 0 019.426-3.063c2.469-.754 4.86-1.472 7.172-2.172 2.309-.699 4.344-1.503 6.121-2.417 1.774-.91 3.168-1.961 4.192-3.141 1.015-1.184 1.527-2.586 1.527-4.191v-.317c0-2.8-1.156-5.023-3.465-6.687-2.305-1.672-5.555-2.496-9.746-2.496-4.406 0-8.996.882-13.773 2.66-4.786 1.77-9.485 4.379-14.106 7.808l-8.699-13.21c5.371-4.188 11.195-7.364 17.488-9.508 6.277-2.153 12.481-3.22 18.606-3.22 4.402 0 8.539.556 12.41 1.692 3.863 1.13 7.218 2.785 10.066 4.996 2.848 2.2 5.078 4.957 6.692 8.297 1.609 3.324 2.414 7.254 2.414 11.762v.316c0 3.871-.805 7.153-2.414 9.828a23.675 23.675 0 01-6.211 6.856zm-91.821-42.137h19.5v85.078h-19.5zm-11.289 57.188c0-31.887-24.484-56.52-59.914-56.52H74.379a53.703 53.703 0 0116.836 18.035h17.445c23.676 0 39.137 15.942 39.137 38.164 0 22.223-15.461 38.493-39.137 38.493H86.438v-16.579c-3.266 4.055-7.07 7.664-11.372 10.625-2.644 1.825-5.48 3.383-8.441 4.715v19.274h42.035c35.43 0 59.914-24.317 59.914-56.207"/></g><ellipse transform="matrix(.07892 0 0 .0814 27.584 -1.88)" cx="-198.472" cy="85.731" rx="35.355" ry="32.945" fill="#b3b3b3"/></g></svg>