<svg xmlns="http://www.w3.org/2000/svg" width="128" height="64"><path clip-rule="evenodd" fill="#5b9cd4" fill-rule="evenodd" d="M61.79 48.145V1.085H14.625l-14.77 14.77-.048 47.06H47.02z"/><path d="M32.88 14.975c0-3.692-3.18-7.525-7.947-7.525-5.47 0-8.18 4.066-8.18 9.115 0 4.16 1.075 6.87 5.188 8.553l3.413 1.403c2.337.935 2.758 1.496 2.758 5.048 0 3.039-.234 4.956-3.46 4.956-2.43 0-3.365-1.683-3.365-3.413v-1.496h-4.768v1.776c0 4.488 3.506 7.9 8.134 7.9 6.17 0 8.226-4.16 8.226-9.77 0-4.86-.794-7.525-5-9.114l-3.647-1.45c-2.477-.98-2.711-1.87-2.711-4.44 0-2.197.608-4.3 3.225-4.3 2.43 0 3.366 1.823 3.366 4.02v1.075h4.767v-2.338zM50.637 31.522h-4.768v1.637c0 2.617-1.683 3.365-2.992 3.365-2.15 0-2.898-1.496-2.898-3.412V16.098c0-2.245.561-3.88 2.945-3.88 1.823 0 2.945 1.589 2.945 3.459v1.589h4.768v-1.87c0-4.628-3.272-7.946-7.666-7.946-4.628 0-7.76 3.318-7.76 7.665V33.44c0 6.076 4.207 7.853 7.853 7.853 4.254 0 7.573-3.6 7.573-7.712v-2.058zM53.023 41.012h4.768V7.73h-4.768z" fill="#fff"/><path d="M66.524 20.76h2.727c2.304 0 3.61-1.161 3.61-3.592v-6.134c0-2.118-1.23-3.389-3.438-3.389h-2.899V20.76zm1.958-11.347h.903c1.152 0 1.516.59 1.516 1.621v6.318c0 1.123-.422 1.639-1.516 1.639h-.903zm5.892 11.346h1.959V7.645h-1.959zm9.81-10.258c0-1.455-1.306-2.966-3.265-2.966-2.245 0-3.359 1.602-3.359 3.592 0 1.639.442 2.707 2.13 3.37l1.403.553c.96.368 1.132.59 1.132 1.99 0 1.196-.096 1.95-1.42 1.95-.999 0-1.383-.662-1.383-1.343v-.59h-1.958v.7c0 1.768 1.44 3.113 3.34 3.113 2.535 0 3.38-1.64 3.38-3.85 0-1.915-.327-2.965-2.055-3.591l-1.497-.571c-1.018-.387-1.114-.737-1.114-1.75 0-.866.25-1.695 1.325-1.695.999 0 1.382.719 1.382 1.584v.424h1.958v-.92zm7.293 6.52h-1.958v.644c0 1.031-.692 1.326-1.229 1.326-.883 0-1.19-.59-1.19-1.344v-6.705c0-.884.23-1.529 1.209-1.529.749 0 1.21.627 1.21 1.364v.626h1.958v-.737c0-1.823-1.344-3.131-3.149-3.131-1.9 0-3.187 1.308-3.187 3.02v7.22c0 2.395 1.728 3.095 3.226 3.095 1.747 0 3.11-1.418 3.11-3.039v-.81zm1.092.644c0 2.137 1.69 3.205 3.283 3.205 1.594 0 3.283-1.068 3.283-3.205V10.74c0-2.137-1.69-3.205-3.283-3.205s-3.283 1.068-3.283 3.205zm1.959-6.925c0-.902.613-1.327 1.324-1.327.71 0 1.325.425 1.325 1.327v6.925c0 .902-.614 1.326-1.325 1.326-.71 0-1.324-.424-1.324-1.326zm12.246-3.095h-2.073l-1.574 9.155h-.039l-1.555-9.155h-2.074l2.784 13.114h1.728zm.785 13.114h5.837v-1.878h-3.878v-3.85h3.378v-1.768h-3.378v-3.85h3.878V7.645h-5.836V20.76zm8.676-11.346h1.018c1.44 0 1.67.72 1.67 2.045 0 1.308-.211 2.045-1.574 2.045h-1.114zm-1.958 11.346h1.958v-5.6h1.17l1.825 5.6h2.074l-2.112-5.986c1.248-.663 1.69-1.768 1.69-3.278 0-2.542-1.133-3.85-3.457-3.85h-3.148zm9.271 0h1.958v-5.543l2.688-7.57h-2.074l-1.574 5.212h-.038l-1.574-5.213h-2.074l2.688 7.57zM75.113 27.137c0-1.97-1.718-4.015-4.294-4.015-2.955 0-4.42 2.17-4.42 4.863 0 2.22.581 3.665 2.804 4.563l1.844.748c1.262.499 1.49.798 1.49 2.694 0 1.62-.126 2.643-1.869 2.643-1.314 0-1.818-.898-1.818-1.82v-.798h-2.576v.947c0 2.394 1.894 4.214 4.394 4.214 3.334 0 4.445-2.22 4.445-5.212 0-2.593-.429-4.014-2.702-4.862l-1.97-.773c-1.338-.524-1.465-.998-1.465-2.37 0-1.172.329-2.294 1.743-2.294 1.313 0 1.818.973 1.818 2.145v.574h2.576v-1.247zm9.594 8.827h-2.576v.873c0 1.397-.91 1.796-1.616 1.796-1.162 0-1.566-.799-1.566-1.82v-9.078c0-1.197.303-2.07 1.591-2.07.985 0 1.591.848 1.591 1.845v.849h2.576v-.998c0-2.468-1.768-4.239-4.142-4.239-2.5 0-4.192 1.77-4.192 4.09v9.775c0 3.241 2.272 4.189 4.242 4.189 2.3 0 4.092-1.92 4.092-4.115zm1.664 5.063h2.577V23.271H86.37zm4.569 0h7.677v-2.544h-5.101v-5.212h4.445v-2.394h-4.445v-5.212h5.101v-2.394H90.94zm8.735 0h2.576V30.354h.05l3.94 10.673h2.425V23.271h-2.576V33.97h-.05l-3.89-10.699h-2.475v17.756zm18.99-5.063h-2.577v.873c0 1.397-.909 1.796-1.616 1.796-1.162 0-1.566-.799-1.566-1.82v-9.078c0-1.197.303-2.07 1.591-2.07.986 0 1.59.848 1.59 1.845v.849h2.577v-.998c0-2.468-1.767-4.239-4.141-4.239-2.501 0-4.193 1.77-4.193 4.09v9.775c0 3.241 2.273 4.189 4.243 4.189 2.298 0 4.091-1.92 4.091-4.115v-1.097zm1.588 5.063h7.678v-2.544h-5.102v-5.212h4.445v-2.394h-4.445v-5.212h5.102v-2.394h-7.678z" fill="#5b9cd4"/></svg>