<svg xmlns="http://www.w3.org/2000/svg" width="128" height="64"><path d="M13.49-.138h.904c4.258.227 8.36 1.95 11.717 4.54.79-1.38 2.13-2.453 3.67-2.86 1.22-.347 2.62-.377 3.72.324.59.402 1.34.533 1.83 1.074.67.664.878 1.677.73 2.584-.08.53-.31 1.016-.55 1.485.81 0 1.63.01 2.43.18.362.08.68.287 1.032.396.39.01.784-.04 1.178-.026.333-.75 1.048-1.362 1.897-1.37 1.016-.07 1.853.643 2.46 1.376 1.085-.264 2.198-.35 3.305-.45.59-.05 1.196-.117 1.773.053.447.115.857.335 1.25.575.46-.392 1-.774 1.634-.77.664-.032 1.264.335 1.696.81.53-.165 1.1-.343 1.654-.182.574.16 1.064.53 1.477.95 2.176 2.186 4.363 4.362 6.54 6.544.124.147.313.186.498.182 14.48-.003 28.96 0 43.44 0 .66.002 1.335-.05 1.978.136.63.163 1.168.56 1.62 1.01 2.696 2.697 5.39 5.397 8.09 8.09.715.653 1.248 1.538 1.276 2.524v25.53c-.063.43-.16.866-.37 1.25-.35.65-.916 1.134-1.425 1.653-2.53 2.53-5.052 5.07-7.59 7.593a3.756 3.756 0 0 1-1.853 1.072H62.18c-.63-.16-1.228-.46-1.685-.925-2.32-2.32-4.635-4.65-6.966-6.962-2.35 2.3-4.65 4.65-6.98 6.97-.456.464-1.05.766-1.675.925H31.15c-.778-.21-1.48-.732-1.813-1.475-.326-.64-.27-1.377-.27-2.07.002-3.474-.002-6.947 0-10.42.003-.775-.06-1.586.236-2.32.28-.733.873-1.27 1.414-1.815 2.105-2.096 4.195-4.207 6.306-6.296C28.82 31.53 20.606 23.33 12.4 15.12c-.5-.5-1.038-.97-1.448-1.55-.48-.666-.914-1.435-.86-2.284-.004-.736.364-1.423.902-1.91C12 8.35 13.4 7.896 14.74 7.506c.093-.83.25-1.666.645-2.41-1.073-.178-2.165-.36-3.253-.28-.278.213-.492.51-.81.667-.637.32-1.383.348-2.077.24a2.407 2.407 0 0 1-1.773-1.31c-.305-.65-.236-1.427.032-2.078.51-.99 1.43-1.782 2.512-2.067 1.133-.3 2.31-.352 3.475-.405zM10.586 1.94c-.59.093-1.048.53-1.344 1.027-.11.216-.138.54.122.66.35.157.778.162 1.132.01.028-.23-.245-.324-.366-.48.01-.274.365-.25.558-.307 3.08-.37 6.206.302 9.042 1.5 1.718.754 3.366 1.716 4.747 2.995.856.812 1.644 1.762 1.977 2.915.26.825.15 1.77-.33 2.495-.467.698-1.21 1.174-1.99 1.457-1.84.678-3.875.78-5.793.398-.1-1.403-.08-2.813-.13-4.22 1.32-.048 2.658.103 3.89.57.18.093.49.168.48.422-.18.295-.45.524-.61.83.186.07.37.14.57.15.89.175 1.71-.928 1.33-1.745-.262-.67-.94-1.046-1.58-1.288-1.313-.48-2.73-.53-4.11-.54-.033-.727-.083-1.458-.257-2.16-.093-.32-.2-.687-.505-.86-.272-.116-.43.21-.51.41-.306.88-.33 1.83-.382 2.75-1.183.205-2.376.49-3.44 1.07-.38.23-.782.476-1.003.872-.24.43.05.91.295 1.265 1.027 1.407 2.55 2.36 4.105 3.09.048.37.05.765.24 1.097.267.476 1.02.53 1.376.13.12-.177.165-.39.24-.59 2.453.6 5.157.475 7.42-.716 1.347-.717 2.512-1.974 2.716-3.534.17-1.122-.297-2.216-.915-3.126-.993-1.466-2.367-2.626-3.82-3.616a20.647 20.647 0 0 0-4.418-2.23c-2.776-1.02-5.832-1.323-8.733-.706zm19.17 1.468c-.9.395-1.716 1.09-2.078 2.02-.204.504-.1 1.078.195 1.52.276.36.06.927.455 1.21.308.152.575-.105.762-.32.683.148 1.408.212 2.082-.016a5.517 5.517 0 0 0 2.59-1.826c.36-.467.605-1.136.32-1.7-.137-.282-.434-.41-.722-.48-.452-.09-.74-.496-1.172-.63-.8-.274-1.673-.09-2.433.222zm12.195 4.67c-.11.305 0 .63.06.934.25.933.58 1.848.77 2.798.078.355.064.72-.07 1.062-.404-.362-.665-.845-.975-1.283-.475-.69-.936-1.41-1.537-2-.176-.15-.402-.367-.65-.257-.29.2-.41.553-.527.87-.304.954-.46 1.952-.547 2.95-.024.54-.06 1.126.2 1.62.18.337.765.423.94.04.436-1.053.15-2.23.437-3.314.422.37.66.89.98 1.342.41.61.792 1.266 1.37 1.74.31.297.8.157 1.082-.108.57-.527.815-1.33.806-2.09-.045-1.147-.4-2.272-.957-3.273-.26-.423-.534-.883-.99-1.12-.12-.057-.35-.1-.386.08zm-7.27.73c-.88.098-1.8.245-2.56.73-.51.31-.83.946-.685 1.54.118.4.526.617.91.694.863.178 1.755.066 2.625.205.66.104 1.36.2 1.922.58.293.236-.075.558-.31.656-.953.433-2.023.562-3.06.602-.365-.03-.854.012-1.08-.337-.136-.377.3-.678.64-.635.793.097 1.504.692 2.334.514.313-.068.714-.19.805-.538-.155-.35-.585-.42-.91-.52-.834-.18-1.722-.35-2.565-.13-.57.14-1.02.71-.923 1.31.128.55.6.93 1.078 1.18.767.394 1.65.49 2.502.47.845-.056 1.763-.3 2.316-.99.524-.638.534-1.656-.027-2.27-.366-.4-.9-.576-1.415-.68-.88-.15-1.772-.18-2.656-.28-.255-.036-.52-.067-.74-.21.03-.246.324-.31.523-.36 1.243-.236 2.522-.16 3.766-.387.283-.058.58-.124.816-.302.182-.115.183-.403.017-.53-.336-.253-.776-.273-1.177-.323-.713-.05-1.43-.05-2.143.007zm17.02.7c-.63.818-1.19 1.74-1.36 2.775-.142.642.015 1.296.27 1.886-.47 1.5-.97 3.01-1.162 4.57-.043.47-.103.978.124 1.414.23.467.67.924 1.233.88.337-1.913 1.06-3.725 1.515-5.61 1.635.07 3.116-1.016 3.95-2.356.56-.854.626-1.984.197-2.907-.213-.43-.61-.84-1.114-.875-.37.03-.685.25-.98.453-1.12.825-1.984 1.927-2.89 2.965-.025-.213-.095-.435-.02-.645.272-.88.814-1.637 1.21-2.46.16-.305.067-.65-.093-.93-.35.212-.62.52-.87.836zm-6.23-.37c-.21.068-.5.105-.59.347.077.49.63.615 1.004.81-.026.2-.043.403-.095.6-.088.486-.735.466-.91.907.327.52-.08 1.06-.194 1.577-.284.87.268 2.08 1.258 2.15.947.02 1.866-.324 2.67-.8.295-.188.612-.376.797-.68-.08-.408-.525-.708-.932-.647-.74.08-1.467.277-2.215.315.042-.46.012-1.34.66-1.33.59-.05 1.188.013 1.778-.065.417-.087.47-.722.12-.928-.58-.1-1.18-.026-1.755-.157.02-.265.01-.55.154-.79.59-.167 1.217-.135 1.826-.187.395-.025.887.015 1.14-.36.126-.27-.18-.485-.343-.66-.486-.454-1.187-.466-1.81-.38-.853.088-1.715.11-2.558.277zm-15.69-.164c-.2.178-.25.46-.32.708-.2.96-.2 1.945-.23 2.92-.003.645-.02 1.3.12 1.932.066.28.218.592.527.657.28.05.695.08.818-.24.197-.57.11-1.19.123-1.78-.05-1.22-.03-2.46-.313-3.65-.067-.31-.366-.803-.72-.54zm1.68 8.346c-.28.12-.43.424-.42.723-.002 4.1 0 8.198 0 12.296-.02.42.19.81.484 1.11 2.58 2.58 5.175 5.16 7.753 7.75.35.305.27.857-.067 1.14-2.415 2.422-4.84 4.837-7.26 7.253-.41.4-.916.835-.906 1.463-.01 4.063.003 8.125-.006 12.19.005.254.004.545.2.74.177.22.48.236.74.235 3.8-.002 7.602 0 11.403 0 .47-.01.96.053 1.4-.15.376-.19.648-.524.943-.815 2.378-2.385 4.763-4.76 7.136-7.146.19-.19.432-.394.724-.36.33.03.55.31.775.52 2.486 2.5 4.99 4.987 7.477 7.484.302.31.73.47 1.163.463h12.19c.424.045.845-.306.813-.75.01-4.096 0-8.196.005-12.295.032-.463-.196-.885-.523-1.194-2.385-2.378-4.763-4.76-7.146-7.14-.25-.26-.538-.49-.72-.806-.17-.305-.04-.67.204-.89 2.396-2.4 4.797-4.798 7.196-7.2.42-.427.988-.85.98-1.51.01-4.136.007-8.27.005-12.405.05-.45-.373-.825-.81-.774-3.918-.005-7.838 0-11.756 0-.45-.034-.857.19-1.16.5-2.717 2.714-5.435 5.43-8.15 8.145-.21.224-.524.397-.833.274-.29-.138-.495-.395-.72-.613-2.47-2.477-4.95-4.945-7.42-7.42-.393-.4-.826-.9-1.44-.88-3.88-.015-7.76 0-11.638-.01-.207.006-.418-.004-.616.062zm46.98-.012c-.35.108-.49.503-.462.84.003 14.408 0 28.818.002 43.227-.023.337.15.718.5.805.375.064.76.024 1.137.03 9.458 0 18.915 0 28.372.003.386-.007.78.027 1.165-.035.47-.13.79-.525 1.123-.854 2.69-2.7 5.393-5.384 8.082-8.084.387-.362.428-.91.4-1.407-.006-7.903 0-15.807 0-23.71-.01-.446.04-.902-.064-1.34-.173-.467-.57-.797-.91-1.142a4260.6 4260.6 0 0 1-7.372-7.36c-.352-.34-.686-.74-1.147-.94-.38-.116-.783-.063-1.17-.073-9.493.003-18.984 0-28.475 0-.394.01-.795-.034-1.18.05zM28.88 5.086c.438-.447 1.05-.67 1.658-.777a9.68 9.68 0 0 0-1.93 1.58c-.064-.3.06-.6.272-.81zm2.822-.182c.402-.243.98-.56 1.405-.192.35.376.03.916-.305 1.182-.89.705-2.09 1.13-3.22.824.61-.707 1.337-1.306 2.116-1.814zm-18.59 6.02c1.085-.35 2.237-.4 3.366-.48.006 1.223-.022 2.447-.03 3.672-1.168-.43-2.306-.983-3.288-1.756-.28-.24-.6-.49-.707-.86.005-.343.4-.467.66-.577zm41.608.273c.183-.224.373-.457.63-.596.222-.06.42.14.45.35.132.61-.106 1.25-.506 1.715-.56.638-1.37 1.077-2.226 1.11.508-.882 1.026-1.765 1.654-2.57z" fill="#243f65"/><path d="M10.587 1.94c2.9-.618 5.957-.314 8.732.705 1.55.558 3.03 1.318 4.41 2.234 1.45.99 2.83 2.15 3.82 3.61.62.91 1.084 2.003.913 3.126-.205 1.56-1.37 2.817-2.718 3.534-2.263 1.19-4.967 1.317-7.42.718-.075.197-.12.412-.24.59-.357.4-1.11.345-1.377-.13-.19-.33-.19-.73-.24-1.1-1.554-.73-3.078-1.68-4.105-3.09-.248-.353-.538-.834-.297-1.264.22-.397.624-.645 1.004-.872 1.06-.58 2.254-.866 3.44-1.07.05-.924.075-1.87.38-2.752.08-.203.24-.525.51-.41.308.174.413.542.506.86.175.703.225 1.434.257 2.157 1.383.017 2.798.064 4.112.54.64.24 1.315.615 1.58 1.285.377.817-.44 1.92-1.33 1.746-.2-.01-.387-.08-.57-.15.162-.305.43-.534.61-.83.01-.253-.297-.33-.48-.422-1.236-.47-2.575-.62-3.89-.57.045 1.405.03 2.815.134 4.22 1.92.38 3.954.28 5.794-.4.78-.284 1.522-.76 1.99-1.458.48-.725.59-1.67.33-2.494-.334-1.154-1.12-2.104-1.978-2.916-1.38-1.28-3.03-2.24-4.747-2.994-2.837-1.2-5.96-1.87-9.043-1.5-.192.057-.547.032-.556.306.123.156.396.25.368.48-.354.152-.78.147-1.13-.01-.26-.12-.23-.444-.12-.66.293-.496.752-.934 1.34-1.028zm2.522 8.983c-.27.11-.66.234-.66.578.1.37.42.62.7.86.983.78 2.12 1.33 3.29 1.76.007-1.222.035-2.45.03-3.67-1.13.08-2.28.13-3.367.48zm16.64-7.515c.76-.312 1.634-.496 2.433-.22.432.132.72.538 1.17.627.29.07.586.2.72.482.288.563.044 1.232-.317 1.7a5.522 5.522 0 0 1-2.59 1.825c-.674.228-1.4.164-2.08.016-.188.215-.455.472-.76.32-.398-.283-.18-.85-.458-1.21-.295-.442-.4-1.016-.196-1.52.36-.93 1.177-1.625 2.076-2.02zm-.88 1.678c-.212.204-.337.512-.274.805a10.49 10.49 0 0 1 1.93-1.58c-.607.11-1.22.33-1.657.78zm2.82-.182c-.778.508-1.506 1.107-2.114 1.814 1.127.306 2.33-.12 3.216-.824.333-.266.654-.806.303-1.182-.426-.37-1.003-.05-1.406.192zm10.26 3.174c.04-.177.27-.136.388-.08.453.238.727.698.987 1.12.556 1.002.912 2.127.956 3.275.01.76-.23 1.562-.8 2.09-.284.264-.77.404-1.084.108-.575-.47-.957-1.13-1.37-1.74-.316-.45-.555-.97-.98-1.34-.286 1.08 0 2.26-.434 3.317-.18.385-.762.3-.942-.037-.258-.496-.225-1.08-.2-1.623.088-.996.243-1.994.547-2.95.117-.315.24-.67.528-.87.25-.11.475.105.65.256.6.59 1.063 1.304 1.54 1.994.31.437.57.92.977 1.282.13-.34.143-.71.066-1.064-.19-.95-.514-1.865-.766-2.798-.065-.305-.17-.63-.06-.935zm-7.27.732c.713-.057 1.43-.06 2.144-.008.4.05.84.07 1.177.324.17.126.17.414-.01.53-.236.178-.534.244-.818.302-1.244.224-2.523.15-3.766.384-.2.053-.495.117-.523.362.218.144.486.175.74.21.883.1 1.776.13 2.655.28.513.106 1.05.28 1.414.68.56.616.55 1.634.026 2.27-.553.69-1.47.936-2.318.988-.85.02-1.735-.072-2.502-.47-.48-.247-.95-.632-1.078-1.18-.1-.6.352-1.167.922-1.31.84-.22 1.73-.045 2.563.13.324.106.754.174.91.517-.09.34-.492.47-.803.53-.83.18-1.54-.417-2.33-.514-.343-.043-.777.26-.64.635.225.35.714.308 1.08.338 1.036-.04 2.106-.17 3.06-.603.233-.096.6-.42.31-.655-.565-.378-1.265-.475-1.924-.58-.87-.138-1.762-.026-2.626-.204-.385-.075-.793-.29-.91-.69-.147-.596.173-1.23.685-1.54.764-.487 1.682-.634 2.566-.73zm17.02.697c.25-.318.52-.624.87-.836.16.29.254.63.093.94-.395.823-.937 1.58-1.21 2.46-.074.21-.004.43.02.645.907-1.04 1.77-2.14 2.89-2.963.296-.205.613-.422.982-.453.503.036.9.445 1.116.875.43.92.368 2.05-.19 2.905-.835 1.34-2.316 2.428-3.95 2.358-.457 1.883-1.18 3.695-1.516 5.61-.563.042-1.003-.415-1.233-.882-.227-.433-.167-.94-.124-1.41.195-1.57.695-3.076 1.163-4.58-.257-.59-.414-1.243-.27-1.885.174-1.034.735-1.957 1.365-2.776zm3.017 1.69c-.628.806-1.146 1.69-1.654 2.573.86-.035 1.666-.474 2.228-1.112.4-.464.64-1.1.51-1.713-.03-.208-.23-.408-.45-.344-.255.14-.445.38-.63.6zm-9.248-2.06c.84-.164 1.7-.19 2.56-.274.62-.086 1.32-.074 1.802.383.165.172.47.39.343.66-.25.372-.744.332-1.138.36-.61.05-1.236.02-1.828.187-.146.24-.134.525-.157.793.575.13 1.174.056 1.755.156.35.206.295.84-.12.928-.59.078-1.188.013-1.78.065-.647-.01-.617.87-.66 1.33.75-.038 1.475-.234 2.217-.316.406-.07.852.23.93.64-.184.304-.5.492-.795.68-.808.476-1.727.82-2.674.8-.99-.077-1.54-1.284-1.256-2.158.115-.518.52-1.057.195-1.578.174-.44.82-.42.91-.908.05-.198.067-.4.092-.6-.377-.196-.93-.32-1.005-.81.09-.243.38-.28.593-.348zm-15.69-.163c.35-.264.65.23.72.538.28 1.192.26 2.432.31 3.65-.01.594.07 1.21-.127 1.783-.125.325-.54.29-.82.246-.31-.06-.46-.37-.522-.65-.143-.632-.127-1.286-.12-1.93.027-.976.03-1.962.234-2.92.067-.25.113-.53.317-.71zm1.68 8.346c.2-.066.41-.056.61-.062 3.88.01 7.76-.005 11.636.008.615-.02 1.05.482 1.442.882 2.47 2.475 4.95 4.943 7.42 7.42.223.218.427.475.72.612.307.123.623-.05.832-.273 2.714-2.717 5.432-5.43 8.146-8.148.306-.31.714-.54 1.16-.5 3.92 0 7.84-.01 11.757 0 .435-.05.86.32.81.77 0 4.134.003 8.27-.005 12.403.005.66-.564 1.084-.98 1.512-2.4 2.4-4.8 4.797-7.198 7.2-.247.217-.378.583-.21.89.186.31.473.544.724.803 2.383 2.38 4.76 4.763 7.145 7.14.326.31.554.73.52 1.193-.004 4.1.006 8.2-.004 12.297.032.44-.39.792-.814.747-4.066.003-8.13 0-12.195 0-.433.01-.86-.15-1.163-.464-2.49-2.498-4.99-4.984-7.477-7.484-.223-.214-.445-.49-.774-.52-.293-.036-.534.166-.727.36-2.375 2.384-4.76 4.76-7.137 7.144-.296.29-.568.625-.943.817-.437.203-.93.14-1.397.15-3.8 0-7.6-.002-11.402 0-.26 0-.56-.014-.74-.235-.193-.193-.192-.484-.196-.74.01-4.062-.003-8.124.007-12.187-.01-.628.495-1.06.906-1.464 2.42-2.416 4.845-4.83 7.26-7.253.336-.283.416-.835.067-1.14-2.578-2.592-5.172-5.17-7.754-7.757-.293-.295-.504-.687-.483-1.11 0-4.1-.004-8.2 0-12.298-.013-.3.144-.603.424-.724zm46.98-.012c.38-.083.78-.04 1.18-.047 9.49 0 18.98.01 28.47 0 .39.01.79-.04 1.17.08.46.205.794.6 1.146.945 2.46 2.454 4.913 4.91 7.372 7.363.34.346.736.676.91 1.143.102.438.052.894.062 1.34 0 7.903-.005 15.807.002 23.71.023.498-.018 1.045-.404 1.407-2.69 2.7-5.393 5.385-8.082 8.084-.332.33-.65.725-1.12.854-.385.063-.78.03-1.166.036-9.457-.005-18.914-.005-28.372-.005-.38-.006-.76.034-1.136-.03-.352-.087-.523-.468-.5-.805-.002-14.41 0-28.82-.003-43.227-.02-.335.114-.73.47-.84z" fill="#b5dc17"/></svg>