<svg xmlns="http://www.w3.org/2000/svg" width="128" height="64"><g stroke="null"><path fill="#221e1f" d="M41.387 37.98c-1.468.038-2.665.226-2.93.51-.233.25-.52.46-.528.8 0 .336.37.375.61.375.232 0 .46-.032.46-.17 0-.198-.328-.147-.328-.34 0-.23 1.217-.29 1.82-.29 5.205-.016 11.202 3.587 11.21 6.643 0 2.373-3.08 2.91-4.787 2.913a8.345 8.345 0 0 1-1.754-.17c-.024-.75-.083-2.33-.102-3.33.2-.006.387-.018.545-.018 1.26-.01 2.924.457 2.93.75 0 .25-.445.423-.445.663 0 .18.4.143.75.17.065.005.79-.393.785-1.02 0-.83-1.042-1.815-4.43-1.807h-.152c-.035-.934-.17-2.405-.7-2.4-.44 0-.572 1.624-.61 2.52-1.9.29-3.575 1.06-3.575 1.823 0 .62 1.358 2.18 3.56 3.134.036.7.157 1.195.784 1.19.454 0 .62-.33.664-.68.71.185 1.48.272 2.298.272 3.19-.01 5.75-1.716 5.74-4.053-.022-3.13-6.32-7.632-11.82-7.48zM55.525 39c-1.86.01-3.066 1.5-3.066 2.3 0 .3.11.664.37.97.02.64.162.802.372.802.236 0 .372-.124.46-.29.267.08.587.124.97.12 1.196 0 3.087-1.362 3.083-2.487 0-.506-.265-.76-.92-.852-.27-.263-.67-.563-1.276-.563zm-.68.99c-.573.335-1.156.807-1.55 1.276a.483.483 0 0 1-.035-.17c0-.363.534-.933 1.584-1.107zm1.634.186c.41 0 .49.334.49.46 0 .75-1.55 1.363-2.218 1.363-.274 0-.506-.05-.7-.11.526-.596 1.792-1.717 2.42-1.72zm7.49 2.794c-.16 0-.19.18-.19.358 0 .525.732 2.36.732 3.066 0 .146-.017.41-.12.443-.174.05-1.698-2.747-2.334-2.794-.655-.047-1.01 2.737-1.005 3.424 0 .683.12 1.14.63 1.14.755-.003.36-2.775.665-2.775.227 0 1.465 2.54 2.148 2.538.746 0 1.176-1.086 1.176-1.79 0-1.618-1.076-3.614-1.704-3.61zm8.174.63c-.025.003-.043.013-.07.034-.397.324-1.672 1.8-1.67 3.185 0 .31.08.7.258 1.05-.287.926-.98 2.99-.956 4.24.02.644.664 1.292 1.055 1.21.15-.03.178-.89.377-1.465.276-.83.714-2.334.87-2.98.07.01.145.016.22.016 1.555-.01 3.28-1.67 3.27-3.1 0-1.43-.84-1.77-1.107-1.754-.743.043-2.18 1.625-3.016 2.69a.778.778 0 0 1-.085-.305c0-.45.845-1.806 1.003-2.146.144-.307.015-.7-.154-.68zm-13.355.034c-.55 0-3.313.062-3.305 1.6 0 1.044 1.548.78 2.574.887.84.09 1.857.36 1.857.63 0 .62-2.215.87-2.673.87-.94 0-.954-.27-.954-.41 0-.13.16-.37.51-.37.36 0 1.07.45 1.57.44.5 0 .92-.212.92-.44 0-.404-1.65-.61-2.16-.61-.54.004-1.312.23-1.312 1.04 0 .417.68 1.403 2.606 1.395 1.9-.01 2.386-1.08 2.386-1.636 0-1.35-1.287-1.508-2.404-1.6-.833-.073-1.74-.12-1.737-.31 0-.612 4.153-.147 4.153-.99 0-.5-1.3-.496-2.027-.492zm10.27.034c-1.27.138-2.928.13-2.928.545 0 .39.78.54.8.648.022.11-.094.53-.136.65-.046.14-.61.18-.647.56 0 .09.15.22.12.33-.087.32-.36.985-.36 1.26 0 .424.312 1.354 1.176 1.33 1.37-.05 2.61-.993 2.625-1.16.03-.25-.35-.544-.613-.544-.262 0-1.74.326-1.837.24-.1-.09.087-.947.275-1.006.186-.06 1.344-.04 1.533-.05.535-.03.43-.758.1-.786-.165-.01-1.22-.007-1.277-.102-.053-.094.026-.58.138-.63.24-.1 1.823-.142 1.94-.17.198-.05.346-.153.393-.323.047-.17-.553-.865-1.296-.786zm-14.716.068c-.54 0-.547 2.175-.563 2.964-.04 1.812.235 2.03.716 2.027.43 0 .567-.05.527-1.567-.064-2.87-.256-3.424-.68-3.424zm-10.63 1.21c0 .853-.034 2.087-.034 2.913-1.89-.67-3.166-1.73-3.166-2.08 0-.55 1.664-.76 3.2-.84zm30.763.12c.236.003.32.227.323.578 0 1.062-1.28 1.94-2.196 1.925.623-1.09 1.54-2.52 1.873-2.51zm-26.795 5.28c-.526 0-1.76.142-1.79 1.362.03 1.224 1.264 1.346 1.79 1.346.437 0 1.043-.094 1.327-.375.094-.1.136-.19.136-.29 0-.19-.187-.33-.444-.33-.176 0-.26.022-.34.1a.76.76 0 0 1-.443.223c-.067.014-.14.033-.205.033-.11 0-.226-.016-.325-.05a.875.875 0 0 1-.305-.206.665.665 0 0 1-.206-.46c0-.17.073-.332.2-.46a.767.767 0 0 1 .31-.22.98.98 0 0 1 .322-.05c.067 0 .12.02.188.033a.78.78 0 0 1 .46.22c.08.08.166.103.343.103.255 0 .442-.13.442-.308a.434.434 0 0 0-.137-.308c-.284-.28-.89-.375-1.328-.375zm6.744 0c-.324 0-.576.13-.68.323l-.735 1.41c-.08.16-.23.463-.235.56 0 .105.035.19.1.254.085.09.217.136.376.136.18 0 .39-.055.446-.17l.12-.255.017-.015.017-.016h1.33l.018.017.018.02.032.05c.084.167.085.175.085.17.044.116.257.206.443.206.18-.008.32-.057.393-.138.05-.05.07-.105.07-.188v-.05c0-.085-.09-.298-.255-.598l-.715-1.397c-.152-.285-.542-.324-.695-.324h-.137zm2.537.017c-.256 0-.562.11-.562.39v1.926c0 .25.164.37.48.37.225 0 .494-.066.494-.378v-.99l-.018-.17c-.02-.05-.033-.067-.034-.084v-.017c.002-.016.017-.03.035-.034.016-.01.026-.006.035 0a86.51 86.51 0 0 0 1.09 1.36c.218.27.376.308.65.308.26 0 .56-.094.56-.375v-1.92c0-.253-.16-.375-.477-.375-.122 0-.29.016-.392.12a.346.346 0 0 0-.1.254v1.02l.033.12.034.12c.024.02-.01.043-.032.05-.02.01-.02.014-.033 0l-1.108-1.38c-.217-.263-.375-.322-.648-.322zm3.594 0c-.26 0-.56.11-.56.39v1.926c0 .25.16.37.476.37.22 0 .478-.066.478-.378v-.99l-.02-.17c-.02-.058-.013-.085-.015-.1 0-.016 0-.03.016-.035.024-.01.046-.014.05 0 0 .015 1.077 1.343 1.09 1.362.22.27.364.306.633.306.26 0 .562-.094.562-.375v-1.92c0-.25-.157-.373-.477-.373-.22 0-.48.058-.48.374v1.03l.017.12.033.12c0 .02-.012.04-.034.05-.024.01-.02.012-.036 0l-1.09-1.38c-.216-.265-.374-.324-.647-.324zm-10.696.017c-.316 0-.507.13-.51.374v1.874c0 .11.048.206.118.273.085.09.214.12.39.12.316 0 .507-.14.51-.39v-.54c0-.043.04-.07.086-.07h1.055c.03 0 .053.02.053.05v.564c0 .25.19.39.51.39.175 0 .305-.03.392-.12a.33.33 0 0 0 .103-.253v-1.89c0-.246-.198-.376-.513-.376-.18 0-.322.03-.41.12-.063.068-.084.154-.084.256v.612c0 .03-.035.067-.07.067l-1.07-.02c-.03 0-.05-.02-.05-.05v-.613a.332.332 0 0 0-.102-.255c-.085-.085-.23-.12-.41-.12zm17.324 0c-.328 0-.51.143-.51.39v1.824c0 .142.026.253.1.324.096.09.254.12.495.12h1.7c.13 0 .23-.032.29-.103a.31.31 0 0 0 .05-.188.274.274 0 0 0-.05-.17.374.374 0 0 0-.29-.12h-1.15c-.05 0-.098-.033-.1-.084V50.77c0-.247-.197-.39-.53-.39zm-2.998.034c-.43 0-.615.148-.615.46v1.72c0 .312.185.443.616.443h1.977c.14 0 .307-.046.307-.256 0-.2-.166-.25-.304-.25H64.72c-.046 0-.084-.03-.084-.082v-.408c0-.05.032-.08.083-.086h1.26c.122 0 .22-.04.27-.102.03-.04.033-.09.033-.153a.3.3 0 0 0-.033-.137c-.05-.067-.144-.102-.272-.102l-1.243.018a.116.116 0 0 1-.1-.103v-.34c0-.05.033-.1.084-.1h1.45c.14 0 .303-.044.303-.257 0-.21-.165-.256-.307-.256H64.19zm-9.694.68c.024 0 .053.01.07.035l.424.98v.017l-.016.017h-.936l-.017-.017v-.03c.37-.84.416-.954.424-.97.026-.024.035-.034.05-.034z"/><path fill="#06f" d="M37.4 4.42a6.33 6.33 0 0 0-6.342 6.344V54.34a6.33 6.33 0 0 0 6.343 6.342h55.71c3.52 0 6.35-2.83 6.35-6.343V10.76a6.33 6.33 0 0 0-6.343-6.343H37.4zm2.07 2.277h52.365c3.36 0 5.274 2.085 5.274 5.446V52.34c0 3.36-2.71 6.067-6.07 6.067H39.47a6.054 6.054 0 0 1-6.068-6.068V12.76a6.055 6.055 0 0 1 6.068-6.067z"/><path fill="#ffaf00" d="M42.71 9.73c-.638.027-1.28.12-1.93.207-3.647.494-6.99 1.898-9.722 3.93-5.322 4.153-7.572 9.475-7.722 16.133.58 6.234 4.65 11.204 10.342 13.514-.456.577-.91 1.168-1.31 1.793-.434.648-.803 1.37-1.172 2.068-.038.075-.1.132-.137.207v6.756c0 2.068.96 3.877 2.48 5.034.06.056.14.09.21.137-.24-1.92-.32-3.94-.14-6.07.12-.49.26-.98.41-1.45.22-.62.484-1.27.76-1.86.61-1.256 1.193-2.1 1.65-2.62l.55-.556.21-.138 1.378-1.45c.44-.34.274-.986.07-1.17-.958-.866-.346-.117-2.897-1.93-1.51-1.075-3.022-2.21-4.274-3.518-.06-.065-.5-.473-.55-.55-1.766-2.904-2.37-6.655-1.45-10.413.35-1.43.88-2.822 1.59-4.067v.14c.382-.73.82-1.41 1.31-2.067.14-.196.324-.36.48-.55.32-.37.62-.76.964-1.1.348-.34.727-.654 1.103-.964 2.625-2.173 5.91-3.53 9.306-3.724a14.31 14.31 0 0 1 2.895.14c7.345 1.067 12 7.523 10.964 14.825-.065.392-.11.776-.208 1.172l-.003.07c-.023.09-.045.182-.07.273-.442 1.643-1.194 3.156-2.07 4.55-.08.127-.116.214-.07.346-.022.17.097.28.414.343.14.006.27.06.412.07h.07c1.384.08 2.74.28 4.135.62 3.17.775 6.065 2.15 8.48 4 .333.16.763.127.69-.345-.024-.155.038-.23 0-.348-.346-1.097-.66-2.217-.76-3.38-.035-.445 0-.927 0-1.377.033-.583.095-1.21.21-1.793 1.306-6.7 7.75-10.45 14.41-8.412 4.58 1.4 8.07 5.178 9.376 9.584.198.67.32 1.38.413 2.07.085.83.144 1.715.067 2.55-.035.42-.124.827-.205 1.244-1.3 6.672-7.776 10.443-14.41 8.41a13.4 13.4 0 0 1-2.62-1.103c-1.01-.51-.76.65-.69.966.25 1.08.974 2.197 1.31 3.38.17.59.297 1.186.415 1.79.12.61.21 1.245.276 1.864.023.27.06.553.07.827v.07c.04.94.02 1.867-.07 2.827h5.382c-.032-.644-.056-1.29-.137-1.93-.06-.578-.173-1.152-.276-1.723-.22-1.205-.5-2.416-.9-3.587 6.84.85 12.89-2.903 14.41-9.515.366-1.59.386-3.206.208-4.825a17.118 17.118 0 0 0-.14-1.17c-.023-.12-.044-.23-.07-.346-.07-.38-.177-.726-.274-1.102-.033-.108-.037-.237-.07-.345-.115-.4-.27-.78-.414-1.17-1.79-4.92-5.81-9.3-11.1-11.31-7.906-3.01-15.64.29-17.925 7.38-.115.356-.26.726-.345 1.102-.022.07-.053.138-.068.208v.14c-.128.613-.225 1.24-.276 1.86-.067.743-.047 1.46 0 2.207-.937-.397-1.906-.792-2.897-1.103a29.377 29.377 0 0 0-3.79-.897c.776-1.41 1.433-2.92 1.794-4.48.023-.09.05-.183.07-.275.18-.743.206-1.51.277-2.275.09-.955.16-1.92.07-2.897-.828-8.927-8.908-15.3-18.478-14.9z"/><path fill="#06f" d="M99.453 42.204c-.7.523-1.454.922-2.344 1.103v9.032c0 3.36-2.71 6.06-6.07 6.06H39.47a6.053 6.053 0 0 1-6.068-6.068V43.44h-2.344v10.9a6.33 6.33 0 0 0 6.343 6.342h55.71c3.52 0 6.35-2.83 6.35-6.343V42.2z"/></g></svg>