<svg xmlns="http://www.w3.org/2000/svg" width="128" height="64"><path d="M13.49-.138h.904c4.258.227 8.36 1.95 11.717 4.54.79-1.38 2.13-2.453 3.67-2.86 1.22-.347 2.62-.377 3.72.324.59.402 1.34.533 1.83 1.074.67.664.88 1.677.73 2.584-.08.53-.31 1.016-.55 1.485.81 0 1.63.01 2.43.18.37.08.68.28 1.04.39.39.01.784-.04 1.178-.028.334-.75 1.05-1.363 1.898-1.37 1.017-.07 1.854.642 2.46 1.375 1.086-.264 2.2-.35 3.306-.45.59-.05 1.196-.117 1.773.053.447.116.857.336 1.25.576.46-.39 1-.775 1.634-.77.663-.03 1.263.334 1.695.81.53-.166 1.1-.344 1.653-.18.574.16 1.064.53 1.477.95 2.175 2.184 4.362 4.36 6.54 6.542.123.147.312.186.497.182 14.48-.003 28.96 0 43.44 0 .66.002 1.333-.05 1.976.136.63.164 1.168.56 1.62 1.01 2.696 2.698 5.39 5.398 8.09 8.09.715.654 1.248 1.54 1.276 2.525v25.53c-.06.43-.16.868-.37 1.25-.35.65-.914 1.136-1.423 1.655-2.53 2.53-5.053 5.07-7.59 7.59-.504.523-1.144.91-1.854 1.073H62.18c-.63-.16-1.228-.46-1.685-.924-2.32-2.32-4.635-4.65-6.966-6.963-2.35 2.3-4.65 4.65-6.98 6.97-.46.465-1.05.767-1.68.926H31.15c-.778-.21-1.48-.733-1.813-1.476-.326-.64-.27-1.378-.27-2.07.002-3.475-.002-6.948 0-10.42.003-.776-.06-1.587.236-2.32.28-.734.873-1.27 1.414-1.816 2.105-2.097 4.195-4.208 6.306-6.297C28.82 31.53 20.606 23.33 12.4 15.12c-.5-.5-1.038-.97-1.448-1.55-.48-.666-.914-1.435-.86-2.284-.004-.736.364-1.423.902-1.91C12 8.35 13.4 7.896 14.74 7.506c.093-.83.25-1.666.645-2.41-1.073-.178-2.165-.36-3.253-.28-.278.213-.492.51-.81.667-.637.32-1.383.348-2.077.24-.755-.12-1.443-.618-1.773-1.31-.305-.65-.236-1.427.032-2.078.51-.99 1.43-1.782 2.512-2.067 1.133-.3 2.31-.352 3.475-.405zM10.586 1.94c-.59.093-1.048.53-1.344 1.027-.11.216-.138.54.122.66.35.157.778.162 1.132.01.028-.23-.245-.324-.366-.48.01-.274.365-.25.558-.307 3.08-.37 6.206.302 9.042 1.5 1.718.754 3.366 1.716 4.747 2.995.856.812 1.644 1.762 1.977 2.915.26.825.15 1.77-.33 2.495-.467.698-1.21 1.174-1.99 1.457-1.84.678-3.875.78-5.793.398-.1-1.403-.08-2.813-.13-4.22 1.32-.048 2.66.103 3.89.57.18.093.49.168.48.422-.18.295-.45.524-.61.83.19.07.37.14.57.15.89.175 1.71-.928 1.33-1.745-.26-.67-.94-1.046-1.58-1.288-1.31-.48-2.73-.53-4.11-.54-.03-.73-.08-1.46-.25-2.16-.092-.32-.2-.69-.504-.86-.272-.12-.43.21-.51.41-.306.88-.33 1.83-.382 2.75-1.182.2-2.375.49-3.44 1.07-.38.23-.78.47-1.002.87-.24.43.05.91.296 1.26 1.025 1.406 2.55 2.36 4.103 3.09.048.37.05.764.24 1.096.267.476 1.02.53 1.376.13.12-.177.164-.39.24-.59 2.45.6 5.156.475 7.42-.716 1.346-.716 2.51-1.973 2.715-3.533.17-1.12-.297-2.214-.915-3.124-.993-1.466-2.367-2.626-3.82-3.616-1.38-.91-2.86-1.67-4.418-2.23-2.776-1.02-5.832-1.323-8.733-.706zm19.17 1.468c-.9.395-1.716 1.09-2.078 2.02-.204.504-.1 1.078.195 1.52.276.36.06.927.455 1.21.308.152.575-.105.762-.32.683.148 1.408.212 2.082-.016 1.013-.343 1.935-.977 2.59-1.826.36-.467.605-1.136.32-1.7-.137-.282-.434-.41-.722-.48-.452-.09-.74-.496-1.172-.63-.8-.274-1.673-.09-2.433.222zm12.195 4.67c-.11.305 0 .63.06.934.25.933.58 1.848.77 2.798.08.355.07.72-.07 1.062-.4-.362-.66-.845-.97-1.283-.472-.69-.933-1.41-1.534-2-.176-.15-.402-.37-.65-.26-.29.2-.41.55-.527.87-.305.95-.46 1.95-.548 2.95-.024.54-.06 1.12.2 1.62.18.332.765.42.94.04.436-1.058.15-2.23.437-3.32.42.37.66.89.98 1.343.41.61.79 1.265 1.37 1.74.31.296.8.156 1.08-.11.57-.526.815-1.33.806-2.09-.044-1.146-.4-2.27-.956-3.272-.26-.423-.535-.883-.99-1.12-.12-.057-.35-.1-.387.08zm-7.27.73c-.88.098-1.8.245-2.56.73-.51.31-.83.946-.68 1.54.12.4.53.617.91.694.866.178 1.758.066 2.628.205.66.104 1.36.2 1.923.58.293.236-.075.558-.31.656-.953.433-2.023.562-3.06.602-.365-.03-.854.012-1.08-.337-.136-.377.3-.678.64-.635.793.097 1.504.692 2.334.514.313-.068.714-.19.805-.538-.156-.35-.586-.42-.91-.52-.835-.18-1.723-.35-2.566-.13-.57.14-1.02.71-.925 1.31.127.55.6.93 1.077 1.18.767.39 1.65.49 2.502.47.844-.06 1.762-.3 2.315-.99.526-.64.536-1.66-.025-2.27-.368-.4-.9-.58-1.417-.68-.88-.15-1.773-.18-2.657-.28-.255-.04-.52-.07-.74-.21.03-.25.324-.31.523-.36 1.24-.24 2.52-.16 3.763-.39.284-.06.58-.13.817-.3.18-.12.18-.41.016-.53-.336-.26-.776-.28-1.177-.33-.716-.05-1.43-.05-2.146.007zm17.02.7c-.63.818-1.19 1.74-1.36 2.775-.14.642.02 1.296.27 1.886-.47 1.5-.97 3.01-1.16 4.57-.04.47-.1.97.13 1.41.23.463.67.92 1.233.88.337-1.917 1.06-3.73 1.515-5.61 1.636.07 3.117-1.02 3.95-2.36.56-.854.627-1.984.198-2.907-.212-.43-.61-.84-1.113-.876-.37.03-.687.25-.98.453-1.12.826-1.986 1.928-2.89 2.966-.027-.215-.097-.437-.02-.647.27-.88.812-1.638 1.21-2.46.16-.306.065-.65-.095-.93-.35.21-.62.52-.87.835zm-6.23-.37c-.21.068-.5.105-.59.347.08.49.63.615 1.01.81-.024.2-.04.403-.093.6-.087.486-.734.466-.91.907.328.52-.08 1.06-.193 1.577-.284.87.268 2.08 1.258 2.15.948.02 1.867-.33 2.67-.8.296-.19.613-.38.798-.68-.08-.41-.524-.71-.93-.65-.74.08-1.468.272-2.216.31.04-.46.01-1.34.66-1.33.59-.05 1.188.013 1.778-.065.417-.087.47-.72.12-.928-.58-.1-1.18-.027-1.755-.158.02-.266.01-.55.155-.79.59-.168 1.218-.136 1.827-.188.395-.027.887.013 1.14-.36.126-.27-.18-.487-.343-.66-.486-.456-1.187-.468-1.81-.38-.853.086-1.715.11-2.558.275zm-15.69-.164c-.2.178-.25.46-.32.708-.2.96-.2 1.945-.23 2.92 0 .645-.02 1.3.12 1.932.07.28.22.592.53.657.28.05.7.08.82-.24.2-.57.11-1.19.126-1.78-.05-1.22-.03-2.46-.313-3.65-.067-.31-.366-.8-.72-.54zm1.68 8.346c-.28.12-.43.424-.42.723V30.34c-.02.42.19.81.49 1.11 2.58 2.58 5.177 5.16 7.755 7.75.35.304.27.856-.067 1.14-2.414 2.42-4.84 4.836-7.26 7.252-.41.4-.915.835-.905 1.463-.01 4.063.004 8.125-.005 12.19.006.254.005.545.2.74.178.22.48.236.74.235 3.8-.002 7.6 0 11.404 0 .47-.01.96.053 1.4-.15.376-.19.648-.524.943-.815 2.378-2.385 4.763-4.76 7.136-7.146.19-.19.433-.4.725-.36.33.03.55.31.776.52 2.486 2.5 4.99 4.98 7.477 7.48.3.31.73.47 1.162.46H75.2c.423.044.844-.307.812-.75.01-4.097 0-8.197.007-12.296.03-.463-.197-.885-.524-1.194-2.386-2.377-4.764-4.76-7.147-7.14-.25-.26-.54-.49-.72-.805-.17-.303-.04-.67.204-.89 2.397-2.4 4.798-4.796 7.197-7.2.42-.425.988-.85.98-1.51.01-4.134.007-8.27.005-12.403.05-.45-.375-.825-.81-.774-3.92-.005-7.84 0-11.758 0-.45-.034-.858.19-1.16.5-2.718 2.714-5.436 5.43-8.15 8.145-.21.224-.525.397-.834.274-.29-.138-.496-.395-.72-.613-2.47-2.477-4.95-4.945-7.42-7.42-.394-.4-.827-.9-1.44-.88-3.88-.015-7.76 0-11.64-.01-.206.006-.417-.004-.615.062zm46.98-.012c-.35.108-.49.503-.46.84.01 14.408 0 28.818 0 43.227-.02.337.15.718.5.805.38.064.76.024 1.14.03 9.46 0 18.92 0 28.37.003.39-.007.78.027 1.17-.035.47-.13.79-.525 1.125-.854 2.69-2.7 5.393-5.384 8.08-8.084.39-.362.43-.91.4-1.407-.004-7.903 0-15.807 0-23.71-.01-.446.04-.902-.062-1.34-.172-.467-.57-.797-.91-1.142-2.46-2.45-4.913-4.9-7.37-7.36-.353-.34-.687-.74-1.148-.94-.38-.11-.783-.06-1.17-.07-9.493.008-18.984 0-28.475 0-.395.01-.796-.03-1.18.05zM28.88 5.086c.438-.447 1.05-.67 1.658-.777-.707.44-1.355.97-1.93 1.58-.064-.3.06-.6.272-.81zm2.822-.182c.402-.243.98-.56 1.405-.192.35.376.03.916-.305 1.182-.89.705-2.09 1.13-3.22.824.61-.707 1.337-1.306 2.116-1.814zm-18.59 6.02c1.085-.35 2.237-.4 3.366-.48.006 1.223-.022 2.447-.03 3.672-1.168-.43-2.306-.983-3.288-1.756-.28-.24-.6-.49-.707-.86.005-.343.4-.467.66-.577zm41.608.273c.183-.224.373-.457.63-.596.222-.06.42.14.45.35.132.61-.106 1.25-.506 1.72-.56.64-1.37 1.08-2.226 1.11.508-.88 1.026-1.762 1.654-2.57z" fill="#243f65"/><path d="M10.587 1.94c2.9-.618 5.957-.314 8.732.705 1.55.558 3.03 1.318 4.41 2.234 1.45.99 2.83 2.15 3.82 3.61.62.91 1.08 2 .91 3.12-.21 1.56-1.37 2.815-2.72 3.532-2.266 1.19-4.97 1.316-7.42.717-.078.197-.12.412-.24.59-.36.4-1.11.345-1.38-.13-.19-.33-.19-.73-.24-1.1-1.554-.73-3.078-1.68-4.105-3.09-.248-.353-.538-.834-.297-1.264.22-.397.624-.645 1.004-.87 1.06-.58 2.253-.867 3.44-1.07.05-.925.074-1.87.38-2.75.08-.206.24-.528.51-.41.307.17.412.54.505.86.174.7.224 1.43.256 2.154 1.382.02 2.797.066 4.11.54.64.24 1.316.617 1.58 1.287.378.817-.44 1.92-1.33 1.746-.2-.01-.386-.08-.57-.15.163-.305.43-.534.61-.83.01-.253-.296-.33-.48-.422-1.235-.47-2.574-.62-3.89-.57.046 1.408.03 2.818.135 4.22 1.92.38 3.955.28 5.795-.4.78-.28 1.52-.76 1.99-1.455.48-.725.59-1.67.33-2.494-.335-1.155-1.12-2.105-1.98-2.917-1.38-1.28-3.03-2.24-4.746-2.994-2.838-1.2-5.96-1.87-9.044-1.5-.19.055-.546.03-.555.304.124.153.397.25.37.48-.355.15-.78.144-1.13-.01-.26-.12-.23-.447-.12-.66.292-.5.75-.937 1.34-1.03zm2.522 8.983c-.27.11-.66.234-.66.578.1.37.42.62.7.86.98.78 2.12 1.33 3.29 1.76 0-1.22.03-2.45.03-3.67-1.13.08-2.28.13-3.37.48zm16.64-7.515c.76-.312 1.63-.496 2.43-.22.43.132.72.538 1.17.627.29.07.58.2.72.482.29.563.04 1.232-.32 1.7-.657.848-1.58 1.482-2.59 1.825-.676.228-1.4.164-2.08.016-.19.215-.457.472-.76.32-.4-.283-.18-.85-.46-1.21-.295-.442-.4-1.016-.196-1.52.36-.93 1.177-1.625 2.076-2.02zm-.88 1.678c-.22.204-.34.512-.28.805.574-.6 1.222-1.13 1.93-1.58-.61.11-1.22.33-1.66.78zm2.82-.182c-.78.508-1.51 1.107-2.12 1.814 1.125.306 2.33-.12 3.214-.824.333-.266.654-.806.303-1.182-.426-.37-1.003-.05-1.406.192zm10.26 3.174c.04-.177.27-.136.38-.08.453.238.727.698.987 1.12.556 1.002.912 2.127.956 3.275.01.76-.23 1.562-.8 2.09-.285.264-.77.404-1.085.108-.575-.47-.957-1.13-1.37-1.74-.316-.45-.555-.97-.98-1.34-.286 1.08 0 2.26-.434 3.32-.18.39-.76.3-.94-.032-.26-.495-.227-1.08-.2-1.622.086-.995.24-1.993.545-2.95.117-.314.24-.67.53-.87.25-.11.475.106.65.257.6.59 1.063 1.304 1.54 1.994.31.438.57.92.98 1.283.13-.34.14-.71.064-1.065-.19-.95-.514-1.866-.766-2.8-.065-.304-.17-.63-.06-.934zm-7.27.732c.71-.057 1.43-.06 2.14-.008.4.05.84.07 1.173.324.17.126.17.414-.01.53-.237.178-.535.244-.82.302-1.243.224-2.522.15-3.765.384-.2.053-.495.117-.523.362.217.144.485.175.74.21.882.1 1.775.13 2.654.28.513.106 1.05.28 1.414.68.56.616.55 1.634.026 2.27-.552.69-1.47.936-2.317.988-.85.02-1.736-.072-2.503-.47-.48-.247-.95-.632-1.076-1.18-.1-.6.35-1.167.92-1.31.84-.22 1.73-.045 2.564.13.324.106.754.174.91.517-.09.34-.49.47-.803.53-.83.18-1.54-.42-2.33-.52-.342-.045-.776.26-.64.633.226.35.715.307 1.08.337 1.037-.04 2.107-.17 3.06-.602.234-.096.6-.42.31-.655-.564-.38-1.264-.476-1.923-.58-.87-.14-1.76-.027-2.625-.205-.385-.073-.793-.29-.91-.69-.147-.594.173-1.23.685-1.54.764-.485 1.682-.632 2.566-.73zm17.02.697c.25-.318.52-.624.87-.836.16.29.25.63.09.94-.4.83-.94 1.58-1.21 2.46-.08.21-.01.43.02.65.902-1.04 1.77-2.14 2.89-2.96.29-.205.61-.422.98-.453.5.037.9.446 1.113.876.43.92.367 2.05-.19 2.905-.836 1.34-2.317 2.43-3.95 2.36-.458 1.882-1.18 3.694-1.517 5.61-.563.04-1.003-.416-1.233-.883-.226-.43-.166-.94-.123-1.41.196-1.57.696-3.074 1.164-4.58-.257-.59-.414-1.24-.27-1.883.174-1.033.735-1.956 1.365-2.775zm3.01 1.69c-.63.806-1.147 1.69-1.655 2.573.86-.035 1.666-.474 2.23-1.112.4-.464.64-1.1.51-1.713-.03-.208-.23-.408-.45-.344-.257.14-.447.38-.63.6zm-9.25-2.06c.84-.164 1.7-.19 2.56-.274.62-.086 1.32-.074 1.803.383.164.172.47.39.342.66-.25.372-.745.332-1.14.36-.61.05-1.235.02-1.827.187-.146.24-.134.525-.157.793.575.13 1.174.056 1.755.156.35.206.296.84-.12.928-.59.078-1.187.013-1.78.065-.646-.01-.616.87-.66 1.33.75-.038 1.476-.234 2.218-.316.407-.07.853.23.93.64-.183.3-.5.49-.794.68-.808.47-1.727.82-2.674.8-.99-.08-1.54-1.29-1.256-2.16.116-.52.52-1.06.196-1.58.173-.44.82-.42.91-.91.05-.2.066-.4.09-.6-.376-.198-.93-.32-1.004-.81.09-.245.38-.28.592-.35zm-15.69-.163c.35-.264.65.23.72.538.28 1.192.26 2.432.31 3.65-.01.594.07 1.21-.126 1.783-.125.325-.54.29-.82.246-.31-.06-.46-.37-.52-.65-.145-.63-.13-1.28-.12-1.93.025-.97.03-1.96.232-2.92.066-.25.112-.53.316-.71zm1.68 8.346c.2-.066.41-.056.61-.062 3.88.01 7.76-.005 11.637.008.615-.02 1.05.482 1.442.882 2.47 2.475 4.95 4.943 7.42 7.42.222.218.426.475.72.612.306.123.622-.05.83-.273 2.715-2.717 5.433-5.43 8.147-8.148.308-.31.716-.54 1.16-.5 3.92 0 7.84-.01 11.76 0 .434-.05.86.32.81.77 0 4.13.002 8.27-.006 12.4.006.66-.563 1.08-.98 1.51-2.4 2.4-4.8 4.794-7.197 7.2-.247.214-.378.58-.21.89.186.31.473.54.724.8 2.383 2.38 4.76 4.763 7.145 7.14.326.31.554.73.52 1.193-.004 4.1.006 8.2-.004 12.296.034.44-.39.792-.81.747-4.07.003-8.13 0-12.2 0-.43.01-.86-.15-1.16-.464-2.49-2.5-4.99-4.985-7.476-7.485-.223-.215-.445-.49-.774-.52-.293-.037-.534.165-.727.36-2.372 2.383-4.76 4.76-7.134 7.143-.296.29-.568.625-.943.817-.436.203-.93.14-1.396.15H31.954c-.26 0-.56-.014-.74-.235-.193-.192-.192-.483-.196-.74.01-4.06-.004-8.123.006-12.186-.01-.627.495-1.06.906-1.463 2.42-2.415 4.847-4.83 7.26-7.252.338-.282.418-.834.07-1.14-2.58-2.59-5.173-5.17-7.755-7.756-.293-.296-.504-.688-.483-1.11 0-4.1-.002-8.2 0-12.3-.01-.3.146-.602.426-.723zm46.98-.012c.38-.083.78-.04 1.18-.047 9.49 0 18.98.01 28.47 0 .39.01.79-.04 1.17.08.46.21.795.6 1.147.95l7.372 7.366c.34.346.735.676.91 1.143.1.437.05.893.06 1.34 0 7.902-.004 15.806.003 23.71.022.497-.02 1.044-.405 1.406-2.69 2.7-5.393 5.383-8.08 8.082-.33.33-.65.725-1.12.854-.386.063-.78.03-1.167.036-9.456-.005-18.913-.005-28.37-.005-.38-.006-.76.034-1.136-.03-.353-.087-.524-.47-.5-.805-.003-14.41 0-28.82-.004-43.227-.02-.334.115-.73.47-.84z" fill="#b5dc17"/></svg>