<?xml version="1.0" encoding="UTF-8" standalone="no"?>

<svg xmlns:svg="http://www.w3.org/2000/svg" xmlns="http://www.w3.org/2000/svg" version="1.1" width="128" height="64" xmlns:xlink="http://www.w3.org/1999/xlink">
	<defs>
		<linearGradient id="linearGradient2870">
			<stop stop-color="#ffffff" id="stop2872" offset="0"/>
			<stop stop-color="#e6e6e6" id="stop2874" offset="1"/>
		</linearGradient>
		<linearGradient gradientUnits="userSpaceOnUse" y2="106.77267" x2="483" y1="43.36218" x1="483" id="linearGradient2876" xlink:href="#linearGradient2870"/>
	</defs>

	<g stroke="null" id="layer1">
		<path fill="#221e1f" fill-rule="nonzero" id="path62842-8" d="m41.38726,37.97891c-1.46871,0.03952 -2.66528,0.22672 -2.92983,0.51101c-0.23296,0.24872 -0.52007,0.4611 -0.52806,0.8006c0,0.33558 0.37628,0.37474 0.61322,0.37474c0.23675,0 0.45992,-0.0322 0.45992,-0.17034c0,-0.19746 -0.32365,-0.14725 -0.32365,-0.34068c0,-0.22898 1.21852,-0.28958 1.82263,-0.28958c5.20353,-0.01542 11.2006,3.58744 11.20832,6.64323c0,2.37274 -3.08108,2.90881 -4.78653,2.9128c-0.60803,0.00436 -1.19763,-0.06354 -1.75449,-0.17034c-0.02396,-0.75804 -0.08231,-2.33588 -0.1022,-3.33865c0.19855,-0.00436 0.38731,-0.01703 0.54508,-0.01703c1.26357,-0.00883 2.92584,0.4573 2.92983,0.7495c0,0.25261 -0.44289,0.4235 -0.44289,0.66431c0,0.18159 0.39804,0.14277 0.7495,0.17035c0.06401,0.00436 0.78756,-0.39428 0.78356,-1.02203c0,-0.82907 -1.04127,-1.8135 -4.42882,-1.8056c-0.0507,0 -0.10699,0 -0.1533,0c-0.0354,-0.93568 -0.17001,-2.40575 -0.69839,-2.40179c-0.44214,0 -0.5737,1.62483 -0.61322,2.52102c-1.89895,0.28821 -3.57712,1.0606 -3.57712,1.82263c0,0.6198 1.35712,2.17884 3.56009,3.13424c0.0354,0.70274 0.15583,1.19636 0.78356,1.19238c0.45406,0 0.61715,-0.33 0.66433,-0.68136c0.71063,0.18554 1.48235,0.27254 2.29958,0.27254c3.18987,-0.01101 5.74835,-1.71683 5.74043,-4.05407c-0.02236,-3.13078 -6.32211,-7.63183 -11.82153,-7.47789zm14.13815,1.02203c-1.85949,0.00883 -3.0661,1.49814 -3.0661,2.29958c0,0.3 0.11086,0.66299 0.37475,0.97093c0.02235,0.63958 0.16508,0.8006 0.37474,0.8006c0.23695,0 0.37302,-0.12363 0.45992,-0.28958c0.26849,0.07898 0.58794,0.12319 0.97093,0.11923c1.19623,0 3.08713,-1.36176 3.08315,-2.48695c0,-0.50535 -0.26456,-0.76084 -0.91984,-0.8517c-0.27248,-0.26448 -0.6735,-0.56212 -1.27754,-0.56212zm-0.68135,0.98797c-0.57236,0.3356 -1.15538,0.80774 -1.55009,1.27754c-0.02235,-0.06309 -0.03407,-0.11518 -0.03407,-0.17033c0,-0.36323 0.53391,-0.93346 1.58416,-1.10721zm1.63525,0.18737c0.41055,0 0.49398,0.33363 0.49398,0.45991c0,0.75014 -1.54722,1.36272 -2.2144,1.36272c-0.27241,0 -0.50496,-0.04288 -0.69839,-0.1022c0.52506,-0.59615 1.79109,-1.7165 2.41881,-1.72042zm7.49493,2.79356c-0.15883,0 -0.18739,0.18015 -0.18739,0.35771c0,0.52507 0.73246,2.35943 0.73246,3.0661c0,0.14605 -0.01584,0.41127 -0.11923,0.44287c-0.17434,0.0514 -1.69801,-2.74623 -2.33365,-2.79355c-0.65528,-0.04742 -1.009,2.73689 -1.00501,3.42381c0,0.68304 0.11998,1.14127 0.63026,1.14127c0.75415,-0.00436 0.36031,-2.77653 0.66432,-2.77653c0.22503,0 1.46318,2.54198 2.14627,2.53806c0.74615,0 1.17535,-1.08583 1.17535,-1.78857c0,-1.61869 -1.07566,-3.61512 -1.70339,-3.61119zm8.17627,0.63025c-0.02422,0.00283 -0.04272,0.01284 -0.06814,0.03407c-0.3987,0.32368 -1.67325,1.79959 -1.66932,3.18534c0,0.31583 0.07658,0.70472 0.25551,1.05611c-0.28445,0.92778 -0.97759,2.98992 -0.95391,4.24144c0.02183,0.64353 0.66521,1.2923 1.05611,1.20941c0.14998,-0.03156 0.1766,-0.88847 0.37475,-1.46492c0.27621,-0.82911 0.71476,-2.33343 0.86873,-2.98093c0.07059,0.01101 0.14646,0.01704 0.22144,0.01704c1.55541,-0.00884 3.2785,-1.67097 3.27052,-3.10017c0,-1.42919 -0.83873,-1.7703 -1.10721,-1.75449c-0.74217,0.04345 -2.17822,1.62541 -3.015,2.69136c-0.0507,-0.11054 -0.08291,-0.20784 -0.08517,-0.30661c0,-0.4501 0.84703,-1.80671 1.00499,-2.14627c0.1448,-0.30742 0.01645,-0.70114 -0.1533,-0.68136zm-13.3546,0.03407c-0.54868,0 -3.31256,0.06139 -3.30458,1.60119c0,1.04229 1.5455,0.77922 2.57212,0.88577c0.83706,0.08296 1.8567,0.35389 1.8567,0.63025c0,0.61194 -2.21627,0.86474 -2.67432,0.86872c-0.93966,0 -0.9539,-0.27062 -0.9539,-0.40881c0,-0.13812 0.16023,-0.37082 0.51102,-0.37476c0.35545,0 1.06961,0.44688 1.56712,0.44289c0.50124,0 0.91983,-0.21785 0.91983,-0.44289c0,-0.40663 -1.64989,-0.61321 -2.16331,-0.61321c-0.53677,0.00436 -1.31161,0.22972 -1.31161,1.03906c0,0.41853 0.67963,1.4047 2.60619,1.39678c1.8992,-0.00883 2.38474,-1.07861 2.38474,-1.63526c0,-1.35023 -1.28453,-1.50647 -2.40178,-1.60119c-0.83313,-0.07105 -1.74146,-0.11706 -1.73745,-0.3066c0,-0.61197 4.15627,-0.14709 4.15627,-0.98798c0,-0.5014 -1.3005,-0.49791 -2.02704,-0.49398zm10.27147,0.03407c-1.2713,0.13812 -2.92984,0.13051 -2.92984,0.54509c0,0.39088 0.7807,0.54074 0.8006,0.64729c0.02182,0.11053 -0.09435,0.52093 -0.13628,0.64729c-0.04632,0.13811 -0.61156,0.1791 -0.64729,0.56212c0,0.08693 0.14793,0.21704 0.11925,0.32365c-0.08605,0.31979 -0.35771,0.98413 -0.35771,1.26051c0,0.42244 0.31067,1.35237 1.17532,1.32864c1.36619,-0.04742 2.60759,-0.99247 2.62322,-1.15829c0.03109,-0.25266 -0.34866,-0.54509 -0.61321,-0.54509c-0.26456,0 -1.74098,0.32529 -1.83966,0.23847c-0.09927,-0.09089 0.0839,-0.94577 0.27254,-1.005c0.18532,-0.05914 1.34355,-0.03916 1.53306,-0.0511c0.53683,-0.02758 0.43275,-0.75592 0.1022,-0.78356c-0.16548,-0.01101 -1.2184,-0.00711 -1.27755,-0.1022c-0.05515,-0.09487 0.02349,-0.57893 0.13628,-0.63026c0.24094,-0.09862 1.82355,-0.14276 1.94186,-0.17033c0.19635,-0.0514 0.34433,-0.15389 0.39178,-0.32365c0.04851,-0.16966 -0.55241,-0.86252 -1.29457,-0.78356zm-14.71731,0.06814c-0.54076,0 -0.54648,2.17429 -0.56213,2.9639c-0.03978,1.81214 0.23383,2.03096 0.71543,2.02703c0.43024,0 0.56757,-0.05113 0.52805,-1.56712c-0.06614,-2.87018 -0.25884,-3.42382 -0.68135,-3.42382zm-10.62917,1.2094c0,0.85282 -0.03407,2.08766 -0.03407,2.9128c-1.8913,-0.66723 -3.16831,-1.72675 -3.16831,-2.07814c0,-0.54874 1.6666,-0.75962 3.20238,-0.83466zm30.76326,0.11924c0.23674,0.00435 0.31965,0.22776 0.32363,0.57915c0,1.06204 -1.28152,1.94065 -2.19736,1.92483c0.62374,-1.08572 1.5381,-2.51189 1.87373,-2.50399zm-26.79435,5.28051c-0.52505,0 -1.76095,0.14264 -1.78856,1.36272c0.02888,1.22388 1.26351,1.34568 1.78856,1.34568c0.43822,0 1.04453,-0.09436 1.32865,-0.37474c0.09489,-0.09068 0.13627,-0.18694 0.13627,-0.28957c0,-0.18159 -0.18611,-0.32365 -0.44288,-0.32365c-0.17653,0 -0.2617,0.02322 -0.34068,0.10221c-0.12576,0.12621 -0.26529,0.19391 -0.44288,0.22144c-0.06621,0.01542 -0.1382,0.03407 -0.20441,0.03407c-0.11025,0 -0.22496,-0.01559 -0.32364,-0.05107c-0.11911,-0.04345 -0.22364,-0.12146 -0.30662,-0.2044c-0.12575,-0.1304 -0.2044,-0.29018 -0.2044,-0.45992c0,-0.16967 0.07645,-0.33355 0.2044,-0.45992c0.08384,-0.0909 0.18106,-0.17798 0.30662,-0.22144c0.09928,-0.03555 0.21645,-0.0511 0.32364,-0.0511c0.06621,0 0.12117,0.01906 0.18738,0.03407c0.17865,0.02759 0.33342,0.09505 0.45992,0.22144c0.07945,0.07898 0.16369,0.1022 0.34068,0.1022c0.25657,0 0.44288,-0.12888 0.44288,-0.30661c0,-0.1026 -0.04138,-0.21194 -0.13627,-0.30661c-0.28412,-0.28029 -0.89043,-0.37475 -1.32865,-0.37475l0,-0.00003zm6.74543,0c-0.32365,0 -0.57476,0.13022 -0.68135,0.32365l-0.73246,1.41381c-0.08383,0.16195 -0.23448,0.46733 -0.23847,0.56212c0,0.10656 0.03619,0.18846 0.1022,0.25551c0.08384,0.09089 0.21585,0.13626 0.37474,0.13626c0.17866,0 0.39151,-0.05582 0.44288,-0.17034l0.11923,-0.25551l0.01704,-0.01699l0.01703,-0.01702l0.03407,0l1.26051,0l0.03407,0l0.01703,0.01702l0.01704,0.01699l0.03407,0.05107c0.08384,0.1659 0.08516,0.17431 0.08516,0.17033c0.04418,0.11452 0.25731,0.20441 0.44288,0.20441c0.17959,-0.00544 0.31799,-0.05521 0.39178,-0.13626c0.0485,-0.05137 0.06813,-0.10439 0.06813,-0.18734l0,-0.05107c0,-0.08296 -0.09428,-0.29612 -0.2555,-0.59619l-0.71543,-1.39681c-0.15444,-0.28426 -0.54462,-0.32365 -0.69838,-0.32365l-0.13628,0zm2.53805,0.01703c-0.25657,0 -0.56211,0.1114 -0.56211,0.39178l0,1.92484c0,0.25271 0.16036,0.37474 0.47695,0.37474c0.22511,0 0.49398,-0.06278 0.49398,-0.37474l0,-0.98797l-0.01703,-0.17033c-0.01903,-0.05026 -0.03314,-0.0683 -0.03407,-0.08517l0,-0.01703c0.00113,-0.01538 0.01571,-0.0281 0.03407,-0.03407c0.01451,-0.00735 0.02455,-0.00507 0.03407,0c0,0.01542 1.07426,1.3469 1.09017,1.36271c0.21618,0.26847 0.37508,0.30661 0.64728,0.30661c0.26064,0 0.56212,-0.09431 0.56212,-0.37474l0,-1.92484c0,-0.25265 -0.16028,-0.37474 -0.47694,-0.37474c-0.12137,0 -0.28918,0.01664 -0.39178,0.11924c-0.06402,0.0631 -0.10221,0.14893 -0.10221,0.2555l0,1.02203l0.03407,0.11925l0.03407,0.11923c0.02236,0.01985 -0.01224,0.04312 -0.03407,0.05107c-0.02236,0.00883 -0.01883,0.01319 -0.03407,0l-1.1072,-1.37975c-0.21625,-0.26452 -0.37481,-0.32365 -0.6473,-0.32365l0,0.00003zm3.59416,0c-0.26056,0 -0.56212,0.1114 -0.56212,0.39178l0,1.92484c0,0.25271 0.16083,0.37474 0.47696,0.37474c0.2211,0 0.47694,-0.06278 0.47694,-0.37474l0,-0.98797l-0.01704,-0.17033c-0.02236,-0.05912 -0.01536,-0.08632 -0.01702,-0.10221c0.00139,-0.01424 0.00172,-0.0285 0.01702,-0.03407c0.02237,-0.01101 0.04458,-0.01319 0.05111,0c0,0.01542 1.07433,1.34297 1.09016,1.36271c0.21625,0.26847 0.36177,0.30661 0.63026,0.30661c0.26063,0 0.56211,-0.09431 0.56211,-0.37474l0,-1.92484c0,-0.25265 -0.15636,-0.37474 -0.47694,-0.37474c-0.22111,0 -0.47694,0.05887 -0.47694,0.37474l0,1.02203l0.01703,0.11925l0.03405,0.11923c0,0.01985 -0.0117,0.04312 -0.03405,0.05107c-0.02183,0.00883 -0.01884,0.01319 -0.03407,0l-1.09017,-1.37975c-0.21626,-0.26451 -0.37481,-0.32362 -0.6473,-0.32362zm-10.69729,0.01704c-0.31573,0 -0.50709,0.12992 -0.51102,0.37474l0,1.87374c0,0.11053 0.04884,0.20549 0.11924,0.27254c0.08609,0.08692 0.21418,0.11924 0.39178,0.11924c0.31592,0 0.50703,-0.14304 0.51102,-0.39178l0,-0.54509c0,-0.04345 0.04125,-0.06814 0.08517,-0.06814l1.05611,0c0.02888,0 0.0511,0.01935 0.0511,0.05107l0,0.56212c0,0.24877 0.19157,0.39178 0.51101,0.39178c0.17427,0 0.30482,-0.03226 0.39178,-0.11923c0.06614,-0.0631 0.10221,-0.14897 0.10221,-0.25552l0,-1.89077c0,-0.24478 -0.19529,-0.37474 -0.51102,-0.37474c-0.18092,0 -0.32185,0.02833 -0.40881,0.11923c-0.06395,0.06707 -0.08517,0.15289 -0.08517,0.25551l0,0.61322c0,0.03157 -0.03693,0.06813 -0.06814,0.06813l-1.07313,-0.017c-0.03107,0 -0.0511,-0.01933 -0.0511,-0.0511l0,-0.61322c0,-0.10656 -0.03174,-0.18843 -0.10221,-0.2555c-0.08603,-0.08296 -0.23095,-0.11924 -0.40881,-0.11924zm17.32349,0c-0.32784,0 -0.51102,0.14304 -0.51102,0.39178l0,1.82263c0,0.14208 0.02734,0.25258 0.1022,0.32365c0.09483,0.0909 0.25325,0.11923 0.49398,0.11923l1.70339,0c0.13015,0 0.23042,-0.03112 0.28958,-0.1022c0.03547,-0.04742 0.0511,-0.11235 0.0511,-0.18738c0,-0.07104 -0.01776,-0.12313 -0.0511,-0.17034c-0.05956,-0.07105 -0.15857,-0.11924 -0.28958,-0.11924l-1.1583,0c-0.0507,0 -0.09781,-0.0338 -0.1022,-0.08517l0,-1.60118c0,-0.24872 -0.19556,-0.39178 -0.52805,-0.39178zm-2.99796,0.03407c-0.43025,0 -0.61322,0.14816 -0.61322,0.45991l0,1.72043c0,0.31194 0.18277,0.44288 0.61322,0.44288l1.97593,0c0.13901,0 0.3066,-0.04632 0.3066,-0.2555c0,-0.20916 -0.16846,-0.25551 -0.3066,-0.25551l-1.44788,0c-0.04632,0 -0.08517,-0.03381 -0.08517,-0.08517l0,-0.40882c0,-0.04742 0.03452,-0.08121 0.08517,-0.08517l1.26051,0c0.12576,0 0.22511,-0.03915 0.27255,-0.1022c0.02887,-0.03952 0.03406,-0.09021 0.03406,-0.15331c0,-0.05537 -0.01609,-0.10075 -0.03406,-0.13626c-0.04851,-0.06707 -0.14519,-0.10221 -0.27255,-0.10221l-1.24347,0.01704c-0.0507,-0.00436 -0.09782,-0.051 -0.1022,-0.1022l0,-0.34068c0,-0.04742 0.03439,-0.1022 0.08517,-0.1022l1.44788,0c0.1412,0 0.3066,-0.04234 0.3066,-0.25551c0,-0.20916 -0.16454,-0.25551 -0.3066,-0.25551l-1.97593,0zm-9.6923,0.68136c0.02395,0 0.0527,0.00955 0.06814,0.03407l0.42584,0.98796l0,0.01701l-0.01704,0.01701l-0.93686,0l-0.01704,-0.01701l0,-0.01701l0,-0.01699c0.37109,-0.84093 0.41787,-0.95517 0.42585,-0.97094c0.02236,-0.02382 0.03134,-0.03407 0.05111,-0.03407l0,-0.00003z"/>
		<path fill="#0066ff" id="rect3752" d="m37.4012,4.42128c-3.51425,0 -6.34314,2.82903 -6.34314,6.3431l0,43.57438c0,3.51408 2.82889,6.34311 6.34314,6.34311l55.70903,0c3.51417,0 6.34313,-2.82903 6.34313,-6.34311l0,-43.57438c0,-3.51408 -2.82896,-6.3431 -6.34313,-6.3431l-55.70903,0zm2.06835,2.27524l52.36519,0c3.36133,0 5.27438,2.08551 5.27438,5.44679l0,40.19599c0,3.3613 -2.706,6.06732 -6.06733,6.06732l-51.57225,0c-3.36127,0 -6.06726,-2.70602 -6.06726,-6.06732l0,-39.57545c0,-3.36129 2.70599,-6.06733 6.06726,-6.06733z"/>
		<path fill="#ffaf00" fill-rule="nonzero" id="path38040-6" d="m42.70998,9.73018c-0.63764,0.02671 -1.28054,0.11915 -1.93055,0.20673c-3.64679,0.49382 -6.99083,1.89764 -9.72138,3.92997c-5.32223,4.15294 -7.57177,9.47534 -7.72202,16.13355c0.58042,6.23392 4.64893,11.204 10.34198,13.51358c-0.45579,0.57723 -0.91051,1.16845 -1.30981,1.79262c-0.43463,0.64884 -0.80339,1.37075 -1.17221,2.0684c-0.03759,0.07457 -0.10147,0.13194 -0.1368,0.20673l0,0.06884l0,6.68784c0,2.06754 0.96016,3.87653 2.4821,5.03311c0.05956,0.05692 0.139,0.09045 0.20741,0.13789c-0.23389,-1.91423 -0.31992,-3.93464 -0.139,-6.06732c0.12349,-0.48663 0.25943,-0.97611 0.41387,-1.44788c0.22064,-0.62231 0.4878,-1.27131 0.75834,-1.86156c0.60804,-1.25154 1.1967,-2.0949 1.65469,-2.61998l0.55161,-0.55157l0.2074,-0.1379l1.37888,-1.44789c0.44035,-0.34025 0.27361,-0.98734 0.0684,-1.1721c-0.95729,-0.86506 -0.34461,-0.11604 -2.89577,-1.93051c-1.50996,-1.07388 -3.02352,-2.20984 -4.27471,-3.51628c-0.06175,-0.06443 -0.5039,-0.47283 -0.55155,-0.55157c-1.76487,-2.90182 -2.37137,-6.65243 -1.44801,-10.41098c0.34946,-1.42901 0.87918,-2.82258 1.58589,-4.06785l0,0.13789c0.38652,-0.73022 0.82162,-1.41101 1.31015,-2.06841c0.14558,-0.19702 0.32784,-0.36165 0.48247,-0.55157c0.31726,-0.37275 0.61735,-0.76053 0.96528,-1.10315c0.34793,-0.34262 0.72779,-0.65483 1.10314,-0.96526c2.62742,-2.17294 5.91177,-3.52943 9.3079,-3.72313c0.96993,-0.05538 1.91638,-0.00436 2.89557,0.13789c7.34362,1.06595 11.99807,7.52213 10.96266,14.82356c-0.06394,0.39252 -0.11032,0.776 -0.20741,1.17209l0,0.06883c-0.02236,0.09112 -0.04411,0.18511 -0.0684,0.27579c-0.44175,1.64264 -1.19403,3.1558 -2.06842,4.55049c-0.07944,0.12642 -0.11691,0.21269 -0.0706,0.34463c-0.02235,0.16966 0.09708,0.28156 0.41388,0.34473c0.14126,0.00436 0.27161,0.06046 0.41353,0.06884l0.06834,0c1.3858,0.07898 2.74313,0.28097 4.13685,0.62052c3.17024,0.77379 6.06421,2.15123 8.48037,3.99892c0.33175,0.16193 0.7618,0.1273 0.68967,-0.34474c-0.02448,-0.15223 0.03766,-0.2255 0,-0.34462c-0.34641,-1.09763 -0.65992,-2.21703 -0.75854,-3.3784c-0.03759,-0.44669 0,-0.92941 0,-1.37893c0.03107,-0.58334 0.09268,-1.21128 0.2074,-1.79262c1.30682,-6.69982 7.74937,-10.44875 14.40975,-8.41151c4.57899,1.40056 8.07243,5.17741 9.37679,9.5836c0.19855,0.66761 0.31965,1.37843 0.41367,2.06841c0.08604,0.82948 0.14558,1.7131 0.06839,2.55103c-0.03759,0.41895 -0.12576,0.82399 -0.2074,1.24105c-1.3017,6.67301 -7.77632,10.4445 -14.40976,8.4115c-0.91624,-0.27915 -1.79808,-0.64306 -2.62022,-1.10314c-1.01199,-0.51011 -0.76181,0.64971 -0.68921,0.96514c0.24864,1.0801 0.97233,2.19584 1.30988,3.37839c0.16769,0.59129 0.29543,1.18622 0.41367,1.79262c0.11917,0.6064 0.20959,1.24296 0.27581,1.86156c0.02235,0.27238 0.05735,0.55299 0.06839,0.82737c0,0.02295 0,0.0459 0,0.06883c0.03979,0.94196 0.02184,1.86712 -0.06839,2.82683l0.06839,0l5.309,0c-0.03107,-0.64486 -0.05516,-1.29109 -0.13681,-1.93052c-0.06174,-0.57875 -0.17207,-1.15207 -0.27579,-1.72367c-0.21619,-1.20247 -0.49638,-2.41422 -0.89615,-3.58523c6.84011,0.8513 12.88829,-2.90316 14.40977,-9.51466c0.36575,-1.58805 0.38565,-3.20652 0.20739,-4.82629c-0.03546,-0.38567 -0.07499,-0.78808 -0.139,-1.17208c-0.02235,-0.11783 -0.04417,-0.22729 -0.06839,-0.34474c-0.0706,-0.37981 -0.17873,-0.72692 -0.27581,-1.10314c-0.03107,-0.1081 -0.03541,-0.23711 -0.0684,-0.34474c-0.11472,-0.39951 -0.27048,-0.77893 -0.41388,-1.1721c-1.78977,-4.91792 -5.81076,-9.29709 -11.10033,-11.30728c-7.90652,-3.00989 -15.64112,0.29075 -17.92619,7.37732c-0.11471,0.35695 -0.25838,0.72732 -0.34461,1.10314c-0.02182,0.06994 -0.05289,0.13679 -0.0684,0.20673l0,0.13789c-0.12795,0.61412 -0.22504,1.24178 -0.2758,1.86156c-0.06614,0.74274 -0.04632,1.45904 0,2.2063c-0.93613,-0.39713 -1.90487,-0.79247 -2.89577,-1.10314c-1.26777,-0.3942 -2.52801,-0.678 -3.79218,-0.89632c0.77511,-1.41024 1.43171,-2.92345 1.79282,-4.48153c0.02182,-0.09201 0.04851,-0.18335 0.0684,-0.27579c0.17652,-0.74273 0.2052,-1.51028 0.27581,-2.27525c0.08822,-0.95358 0.15881,-1.92045 0.06839,-2.89577c-0.82521,-8.91761 -8.90641,-15.2925 -18.47781,-14.8925l0,0.00055l0.0014,0.00033z"/>
		<path fill="#0066ff" id="path3848" d="m99.45335,42.20412c-0.70007,0.52256 -1.45461,0.92203 -2.34416,1.10315l0,9.03202c0,3.36129 -2.70607,6.06733 -6.0674,6.06733l-51.57218,0c-3.36126,0 -6.06726,-2.70604 -6.06726,-6.06733l0,-8.89412l-2.34422,0l0,10.89359c0,3.51408 2.8289,6.3431 6.34307,6.3431l55.70909,0c3.51411,0 6.34307,-2.82902 6.34307,-6.3431l0,-12.13464z"/>
		<rect opacity="0" fill="#ffffff" ry="2.75" rx="2.75" y="-2.74919" x="20.26519" height="69.49837" width="87.46963" id="rect3857"/>
	</g>
</svg>