<svg xmlns="http://www.w3.org/2000/svg" width="128" height="64"><defs><linearGradient id="a"><stop stop-color="#fff" offset="0"/><stop stop-color="#e6e6e6" offset="1"/></linearGradient></defs><g stroke="null"><path fill="#221e1f" d="M41.387 37.98c-1.468.038-2.665.226-2.93.51-.233.25-.52.46-.528.8 0 .336.37.375.61.375.23 0 .46-.032.46-.17 0-.198-.33-.147-.33-.34 0-.23 1.21-.29 1.82-.29 5.2-.016 11.2 3.587 11.21 6.643 0 2.373-3.08 2.91-4.79 2.913-.61.01-1.2-.06-1.757-.17-.025-.75-.084-2.33-.103-3.33.2 0 .388-.01.546-.01 1.26-.01 2.923.457 2.93.75 0 .25-.446.423-.446.663 0 .18.4.143.75.17.066.005.79-.393.786-1.02 0-.83-1.043-1.815-4.43-1.807h-.153c-.034-.934-.17-2.405-.7-2.4-.44 0-.57 1.624-.61 2.52-1.9.29-3.574 1.06-3.574 1.823 0 .62 1.355 2.18 3.56 3.133.033.7.154 1.193.78 1.19.455 0 .62-.33.665-.68.71.183 1.48.27 2.3.27 3.19-.01 5.75-1.717 5.74-4.054-.023-3.13-6.32-7.633-11.82-7.48zM55.525 39c-1.86.01-3.066 1.5-3.066 2.3 0 .3.11.664.37.97.02.64.16.802.37.802.23 0 .37-.124.46-.29.26.08.58.124.97.12 1.19 0 3.08-1.362 3.08-2.487 0-.506-.268-.76-.92-.852-.27-.263-.67-.563-1.28-.563zm-.68.99c-.573.335-1.156.807-1.55 1.276-.023-.063-.035-.115-.035-.17 0-.363.534-.933 1.584-1.107zm1.634.186c.41 0 .49.334.49.46 0 .75-1.55 1.363-2.22 1.363-.28 0-.51-.05-.7-.11.52-.6 1.79-1.72 2.42-1.72zm7.49 2.794c-.16 0-.19.18-.19.358 0 .525.73 2.36.73 3.066 0 .146-.02.41-.12.443-.18.05-1.7-2.747-2.34-2.794-.655-.047-1.01 2.737-1.005 3.424 0 .683.12 1.14.63 1.14.755-.003.36-2.775.665-2.775.228 0 1.466 2.54 2.15 2.538.746 0 1.176-1.086 1.176-1.79 0-1.618-1.076-3.614-1.704-3.61zm8.17.63c-.03.003-.047.013-.07.034-.4.324-1.67 1.8-1.67 3.185 0 .31.08.7.26 1.05-.29.92-.98 2.99-.96 4.24.02.64.663 1.29 1.054 1.21.15-.03.177-.89.376-1.47.277-.83.715-2.337.87-2.98.07.01.146.013.22.013 1.556-.01 3.28-1.67 3.27-3.1 0-1.43-.84-1.77-1.106-1.755-.744.043-2.18 1.625-3.017 2.69-.05-.11-.084-.206-.086-.305 0-.45.845-1.805 1-2.145.147-.305.018-.7-.15-.68zm-13.36.034c-.55 0-3.312.062-3.304 1.6 0 1.044 1.55.78 2.574.887.84.09 1.858.36 1.858.63 0 .62-2.215.87-2.673.87-.94 0-.955-.27-.955-.41 0-.13.16-.37.51-.37.36 0 1.07.45 1.57.44.5 0 .92-.21.92-.44 0-.4-1.65-.61-2.16-.61-.54.01-1.312.23-1.312 1.04 0 .42.68 1.41 2.607 1.4 1.9-.01 2.387-1.08 2.387-1.633 0-1.35-1.287-1.507-2.404-1.6-.833-.072-1.74-.12-1.737-.31 0-.61 4.155-.146 4.155-.99 0-.5-1.3-.495-2.03-.49zm10.27.034c-1.27.138-2.927.13-2.927.545 0 .39.78.54.8.648.02.11-.095.53-.137.65-.046.14-.61.18-.647.56 0 .09.15.22.12.33-.087.32-.36.99-.36 1.26 0 .43.312 1.36 1.176 1.33 1.37-.05 2.61-.99 2.624-1.16.03-.25-.35-.54-.61-.54s-1.74.33-1.837.24c-.1-.09.087-.943.275-1.002.185-.06 1.343-.04 1.532-.05.534-.03.43-.757.1-.785-.166-.01-1.22-.007-1.278-.102-.054-.093.025-.58.137-.63.24-.1 1.82-.14 1.94-.17.195-.05.343-.152.39-.322.047-.17-.553-.865-1.296-.786zm-14.715.068c-.54 0-.547 2.175-.563 2.964-.04 1.812.234 2.03.715 2.027.43 0 .566-.05.526-1.567-.065-2.87-.257-3.424-.68-3.424zm-10.63 1.21c0 .853-.034 2.087-.034 2.913-1.89-.67-3.165-1.73-3.165-2.08 0-.55 1.666-.76 3.2-.84zm30.763.12c.236.003.32.227.323.578 0 1.062-1.28 1.94-2.195 1.925.625-1.09 1.54-2.52 1.875-2.51zm-26.795 5.28c-.528 0-1.76.142-1.79 1.362.03 1.224 1.262 1.346 1.79 1.346.435 0 1.04-.094 1.325-.375.096-.1.138-.19.138-.29 0-.19-.187-.33-.444-.33-.177 0-.26.02-.34.1-.127.12-.266.19-.444.22-.068.01-.14.03-.206.03-.11 0-.226-.018-.325-.05-.12-.047-.225-.125-.308-.208-.127-.13-.206-.29-.206-.46 0-.17.072-.333.2-.46.085-.09.18-.178.31-.22.1-.037.214-.05.32-.05.068 0 .12.02.19.032.18.025.335.093.46.22.08.08.165.102.342.102.254 0 .44-.13.44-.31 0-.103-.04-.212-.136-.307-.283-.28-.89-.376-1.327-.376zm6.742 0c-.324 0-.576.13-.68.323L53 52.08c-.08.16-.23.46-.236.56 0 .1.035.19.1.25.085.09.217.132.376.132.18 0 .39-.056.446-.17l.12-.256.015-.015.018-.016h1.33l.018.015.02.02.03.05c.085.167.086.175.086.17.046.116.26.206.445.206.18-.008.32-.057.394-.138.05-.05.07-.107.07-.19v-.05c0-.085-.09-.298-.255-.598l-.715-1.398c-.153-.286-.543-.325-.696-.325h-.138zm2.537.017c-.256 0-.56.11-.56.39v1.926c0 .25.162.37.48.37.223 0 .492-.07.492-.38v-.99l-.02-.17c-.02-.05-.032-.07-.033-.09v-.017c.005-.017.02-.03.038-.035.018-.01.028-.006.037 0 0 .014 1.075 1.346 1.09 1.36.22.27.376.31.65.31.26 0 .56-.095.56-.376v-1.92c0-.254-.16-.376-.477-.376-.123 0-.29.014-.393.12-.062.06-.1.146-.1.252v1.02l.034.12.036.12c.025.02-.01.043-.03.05-.02.01-.02.014-.034 0l-1.107-1.38c-.217-.263-.375-.322-.648-.322zm3.594 0c-.26 0-.56.11-.56.39v1.926c0 .25.16.37.475.37.22 0 .48-.07.48-.38v-.99l-.02-.17c-.02-.06-.012-.09-.014-.1 0-.02 0-.03.017-.04.026-.01.048-.015.05 0 0 .014 1.08 1.342 1.09 1.36.22.27.366.307.635.307.26 0 .562-.094.562-.375v-1.92c0-.25-.157-.374-.477-.374-.22 0-.48.06-.48.374v1.03l.016.12.033.12c0 .02-.014.04-.036.05-.023.01-.02.012-.035 0l-1.09-1.38c-.217-.265-.375-.324-.648-.324zm-10.697.017c-.318 0-.51.13-.51.374v1.874c0 .11.046.206.116.273.085.09.214.12.39.12.316 0 .507-.14.51-.39v-.54c0-.04.04-.07.086-.07H51.5c.03 0 .054.02.054.05v.57c0 .25.19.39.51.39.176 0 .306-.03.393-.12.067-.06.104-.144.104-.25v-1.89c0-.247-.195-.377-.51-.377-.18 0-.32.03-.41.12-.064.068-.085.154-.085.256v.61c0 .03-.037.068-.07.068l-1.07-.02c-.03 0-.05-.02-.05-.05v-.612c0-.105-.034-.187-.104-.254-.084-.085-.23-.12-.41-.12zm17.322 0c-.328 0-.51.143-.51.39v1.824c0 .142.026.253.1.324.096.09.254.12.495.12h1.7c.13 0 .23-.032.29-.103.036-.048.05-.113.05-.188 0-.07-.016-.123-.05-.17-.06-.07-.16-.12-.29-.12h-1.15c-.05 0-.097-.033-.1-.084V50.77c0-.247-.196-.39-.53-.39zm-2.998.034c-.43 0-.616.148-.616.46v1.72c0 .312.184.443.615.443h1.976c.14 0 .306-.046.306-.256 0-.2-.168-.25-.306-.25h-1.44c-.045 0-.083-.03-.083-.08v-.41c0-.05.032-.08.083-.08h1.26c.12 0 .22-.04.27-.1.03-.04.03-.09.03-.153 0-.055-.014-.1-.032-.136-.05-.067-.145-.102-.273-.102l-1.243.02c-.05-.007-.096-.05-.1-.104v-.34c0-.05.034-.1.085-.1h1.45c.14 0 .302-.043.302-.256 0-.21-.168-.256-.31-.256h-1.97zm-9.695.68c.024 0 .053.01.07.035l.424.98v.01l-.016.016h-.938l-.018-.017v-.03c.37-.84.416-.954.424-.97.024-.024.033-.034.05-.034z"/><path fill="#06f" d="M37.4 4.42c-3.513 0-6.342 2.83-6.342 6.344V54.34c0 3.513 2.83 6.342 6.343 6.342h55.71c3.52 0 6.35-2.83 6.35-6.343V10.76c0-3.514-2.83-6.343-6.34-6.343H37.4zm2.07 2.277h52.365c3.36 0 5.274 2.085 5.274 5.446V52.34c0 3.36-2.71 6.067-6.07 6.067H39.47c-3.362 0-6.068-2.706-6.068-6.068V12.76c0-3.36 2.706-6.067 6.068-6.067z"/><path fill="#ffaf00" d="M42.71 9.73c-.638.027-1.28.12-1.93.207-3.647.494-6.99 1.898-9.722 3.93-5.322 4.153-7.572 9.475-7.722 16.133.58 6.234 4.65 11.204 10.342 13.514-.456.577-.91 1.168-1.31 1.793-.434.648-.803 1.37-1.172 2.068-.038.075-.1.132-.137.207v6.756c0 2.068.96 3.877 2.48 5.034.06.056.14.09.21.137-.24-1.92-.32-3.94-.14-6.07.12-.49.26-.98.41-1.45.22-.62.48-1.27.76-1.86.61-1.26 1.19-2.1 1.65-2.62l.55-.56.21-.14 1.37-1.45c.44-.34.274-.988.07-1.17-.958-.868-.346-.12-2.897-1.93-1.51-1.077-3.023-2.21-4.275-3.52-.06-.065-.5-.473-.55-.55-1.766-2.904-2.37-6.655-1.45-10.413.35-1.43.88-2.82 1.59-4.067v.14c.382-.73.82-1.41 1.31-2.066.14-.197.324-.36.48-.55.32-.37.62-.76.964-1.1.347-.34.726-.655 1.102-.965 2.624-2.174 5.91-3.53 9.305-3.725.97-.054 1.915-.003 2.894.14 7.344 1.067 12 7.523 10.963 14.825-.067.393-.11.777-.21 1.173l-.003.07-.07.272c-.443 1.642-1.195 3.155-2.07 4.55-.08.126-.117.213-.07.345-.023.17.096.28.413.344.14.006.27.06.413.07h.07c1.385.08 2.74.28 4.136.62 3.17.775 6.065 2.15 8.48 4 .333.16.763.127.69-.345-.024-.158.038-.23 0-.35-.346-1.098-.66-2.218-.76-3.38-.035-.446 0-.928 0-1.378.033-.582.095-1.21.21-1.792 1.306-6.7 7.75-10.45 14.41-8.41 4.58 1.4 8.07 5.18 9.376 9.585.197.67.32 1.38.412 2.07.085.83.144 1.715.067 2.55-.034.42-.123.827-.204 1.244-1.3 6.67-7.778 10.44-14.41 8.41-.917-.28-1.8-.646-2.62-1.106-1.01-.51-.76.65-.69.967.25 1.08.972 2.198 1.31 3.38.17.59.295 1.187.413 1.79.12.61.21 1.246.275 1.865.022.27.06.555.07.83v.07c.04.94.02 1.866-.07 2.826h5.38c-.03-.643-.055-1.29-.136-1.93-.06-.577-.175-1.15-.278-1.722-.22-1.206-.5-2.417-.9-3.588 6.84.85 12.89-2.903 14.41-9.515.366-1.59.386-3.205.208-4.824-.037-.384-.076-.786-.14-1.17-.023-.12-.044-.23-.07-.345-.07-.38-.177-.726-.274-1.102-.033-.108-.037-.237-.07-.345-.115-.4-.27-.78-.414-1.17-1.79-4.92-5.81-9.3-11.1-11.31-7.907-3.01-15.64.29-17.926 7.38-.115.36-.26.73-.345 1.105-.02.07-.05.138-.07.208v.14c-.124.615-.22 1.24-.272 1.86-.066.745-.046 1.46 0 2.21-.936-.397-1.905-.79-2.896-1.103-1.265-.395-2.525-.68-3.79-.897.777-1.41 1.434-2.92 1.795-4.48.023-.09.05-.186.07-.28.18-.742.206-1.51.277-2.274.09-.956.16-1.92.07-2.898-.83-8.928-8.91-15.3-18.48-14.9z"/><path fill="#06f" d="M99.453 42.204c-.7.523-1.454.922-2.344 1.103v9.032c0 3.36-2.71 6.06-6.07 6.06H39.47c-3.362 0-6.068-2.71-6.068-6.07v-8.89h-2.344v10.9c0 3.51 2.83 6.34 6.343 6.34h55.71c3.52 0 6.35-2.83 6.35-6.348V42.2z"/></g></svg>