<svg xmlns="http://www.w3.org/2000/svg" width="128" height="64"><path d="M13.49-.138h.904c4.258.227 8.36 1.95 11.717 4.54.79-1.38 2.13-2.453 3.67-2.86 1.22-.347 2.62-.377 3.72.324.59.402 1.34.533 1.83 1.074.67.664.877 1.677.73 2.584-.08.53-.31 1.016-.55 1.485.81 0 1.63.01 2.428.182.363.078.68.286 1.033.395.39.01.784-.04 1.178-.026.333-.75 1.048-1.362 1.897-1.37 1.016-.07 1.853.643 2.46 1.376 1.085-.264 2.198-.35 3.305-.45.59-.05 1.196-.117 1.773.053.447.116.857.336 1.25.576.46-.392 1-.774 1.634-.77.665-.032 1.265.335 1.697.81.53-.165 1.1-.343 1.654-.182.574.16 1.064.53 1.477.95 2.176 2.186 4.363 4.362 6.54 6.544.124.147.313.186.498.182 14.48-.002 28.96 0 43.44 0 .66.003 1.335-.05 1.978.137.63.163 1.168.56 1.62 1.01 2.696 2.697 5.39 5.397 8.09 8.09.715.653 1.248 1.538 1.276 2.524v25.53c-.062.43-.158.866-.37 1.25-.348.65-.915 1.134-1.424 1.653-2.53 2.53-5.052 5.07-7.59 7.593-.503.522-1.143.91-1.853 1.072H62.18c-.63-.16-1.228-.46-1.685-.925-2.32-2.32-4.635-4.65-6.966-6.962-2.35 2.3-4.648 4.65-6.98 6.97-.455.463-1.048.765-1.674.924H31.15c-.778-.21-1.48-.732-1.813-1.475-.326-.64-.27-1.377-.27-2.07.002-3.474-.002-6.947 0-10.42.003-.775-.06-1.586.236-2.32.28-.733.873-1.27 1.414-1.815 2.105-2.096 4.195-4.207 6.306-6.296C28.82 31.532 20.606 23.33 12.4 15.12c-.5-.5-1.038-.97-1.448-1.55-.48-.666-.914-1.435-.86-2.284-.004-.736.364-1.423.902-1.91C12 8.35 13.4 7.896 14.74 7.506c.093-.83.25-1.666.645-2.41-1.073-.178-2.165-.36-3.253-.28-.278.213-.492.51-.81.667-.637.32-1.383.348-2.077.24-.755-.12-1.443-.618-1.773-1.31-.305-.65-.236-1.427.032-2.078.51-.99 1.43-1.782 2.512-2.067 1.133-.3 2.31-.352 3.475-.405zM10.586 1.94c-.59.093-1.048.53-1.344 1.027-.11.216-.138.54.122.66.35.157.778.162 1.132.01.028-.23-.245-.324-.366-.48.01-.274.365-.25.558-.307 3.08-.37 6.206.302 9.042 1.5 1.718.754 3.366 1.716 4.747 2.995.856.812 1.644 1.762 1.977 2.915.26.825.15 1.77-.33 2.495-.467.698-1.21 1.174-1.99 1.457-1.84.678-3.875.78-5.793.398-.1-1.403-.082-2.813-.13-4.22 1.318-.048 2.657.103 3.89.57.18.093.49.168.48.422-.18.295-.45.524-.61.83.185.07.37.14.57.15.89.175 1.71-.928 1.33-1.745-.263-.67-.94-1.046-1.58-1.288-1.314-.48-2.73-.528-4.112-.54-.032-.726-.082-1.457-.256-2.16-.093-.318-.2-.686-.505-.86-.272-.115-.43.21-.51.41-.306.882-.33 1.83-.382 2.75-1.183.206-2.376.49-3.44 1.07-.38.23-.782.477-1.003.873-.24.43.05.91.295 1.265 1.027 1.407 2.55 2.36 4.105 3.09.048.37.05.765.24 1.097.267.476 1.02.53 1.376.13.12-.177.166-.39.24-.59 2.454.6 5.158.475 7.42-.716 1.348-.717 2.513-1.974 2.717-3.534.17-1.122-.297-2.216-.915-3.126-.994-1.466-2.368-2.626-3.822-3.616C22.36 3.96 20.88 3.2 19.322 2.642c-2.776-1.02-5.832-1.323-8.733-.706zm19.17 1.468c-.9.395-1.716 1.09-2.078 2.02-.204.504-.1 1.078.195 1.52.276.36.06.927.455 1.21.308.152.575-.105.762-.32.683.148 1.408.212 2.082-.016 1.013-.343 1.935-.977 2.59-1.826.36-.467.605-1.136.32-1.7-.137-.282-.434-.41-.722-.48-.452-.09-.74-.496-1.172-.63-.8-.274-1.673-.09-2.433.222zm12.195 4.67c-.11.305 0 .63.06.934.25.933.58 1.848.77 2.798.077.355.063.72-.07 1.062-.405-.362-.666-.845-.976-1.283-.475-.69-.936-1.41-1.537-2-.176-.15-.402-.366-.65-.256-.29.2-.41.553-.527.87-.305.954-.46 1.952-.548 2.95-.024.54-.06 1.126.2 1.62.18.337.765.423.94.04.436-1.053.15-2.23.437-3.314.422.37.66.89.98 1.343.41.61.792 1.266 1.37 1.74.31.297.8.157 1.082-.108.57-.527.815-1.33.806-2.09-.045-1.147-.4-2.272-.957-3.273-.26-.424-.535-.884-.99-1.12-.12-.058-.35-.1-.387.078zm-7.27.73c-.88.098-1.8.245-2.56.73-.512.31-.832.946-.686 1.54.118.4.526.617.91.694.863.178 1.755.066 2.625.205.66.104 1.36.2 1.922.58.293.236-.075.558-.31.656-.953.433-2.023.562-3.06.602-.365-.03-.854.012-1.08-.337-.136-.377.3-.678.64-.635.793.097 1.504.692 2.334.514.313-.068.714-.19.805-.538-.156-.35-.586-.418-.91-.52-.835-.18-1.723-.35-2.566-.13-.57.14-1.02.71-.923 1.31.128.55.6.93 1.078 1.18.767.395 1.65.49 2.502.47.845-.055 1.763-.3 2.316-.99.524-.637.534-1.655-.027-2.27-.367-.4-.9-.575-1.416-.68-.88-.15-1.772-.18-2.656-.28-.254-.035-.52-.066-.74-.21.03-.245.325-.31.524-.36 1.243-.235 2.522-.16 3.766-.386.284-.058.58-.124.817-.302.182-.116.183-.404.017-.53-.336-.254-.776-.274-1.177-.324-.713-.05-1.43-.05-2.143.007zm17.02.7c-.63.818-1.19 1.74-1.36 2.775-.143.642.014 1.296.27 1.886-.47 1.5-.97 3.01-1.163 4.572-.043.47-.103.977.124 1.413.23.467.67.924 1.233.88.337-1.913 1.06-3.725 1.515-5.61 1.635.07 3.116-1.016 3.95-2.356.56-.854.626-1.984.197-2.907-.213-.43-.61-.84-1.114-.876-.37.03-.685.25-.98.453-1.12.825-1.984 1.927-2.89 2.965-.025-.213-.095-.435-.02-.645.272-.88.814-1.637 1.21-2.46.16-.305.067-.65-.093-.93-.35.212-.62.52-.87.836zm-6.23-.37c-.21.068-.5.105-.59.347.076.49.628.615 1.003.81-.026.2-.043.403-.095.6-.087.486-.734.466-.91.907.328.52-.08 1.06-.193 1.577-.284.87.268 2.08 1.258 2.15.947.02 1.866-.323 2.67-.8.295-.187.612-.375.797-.68-.08-.407-.526-.707-.933-.646-.74.08-1.467.277-2.215.315.042-.46.012-1.34.66-1.33.59-.05 1.188.013 1.778-.065.416-.087.47-.722.12-.928-.58-.1-1.18-.026-1.756-.157.02-.265.01-.55.154-.79.592-.167 1.218-.135 1.827-.187.395-.026.887.014 1.14-.36.126-.27-.18-.486-.343-.66-.486-.455-1.187-.467-1.81-.38-.853.087-1.715.11-2.558.276zm-15.69-.164c-.2.178-.25.46-.32.708-.2.96-.2 1.945-.23 2.92-.004.645-.02 1.3.12 1.932.065.28.217.592.526.657.28.05.695.08.818-.24.197-.57.11-1.19.123-1.78-.05-1.22-.03-2.46-.313-3.65-.067-.31-.366-.804-.72-.54zm1.68 8.346c-.28.12-.432.424-.42.723-.003 4.1 0 8.198 0 12.296-.02.42.19.81.483 1.11 2.58 2.582 5.175 5.16 7.753 7.75.35.306.27.858-.067 1.14-2.415 2.423-4.84 4.838-7.26 7.254-.41.4-.916.835-.906 1.463-.01 4.063.003 8.125-.006 12.19.005.254.004.545.2.74.177.22.48.236.74.235 3.8-.003 7.602-.002 11.403 0 .468-.01.96.052 1.4-.15.375-.192.647-.525.942-.816 2.378-2.385 4.763-4.76 7.136-7.146.192-.19.433-.393.725-.36.33.03.55.31.775.52 2.487 2.5 4.99 4.988 7.478 7.485.302.31.73.47 1.163.463h12.19c.424.045.845-.306.813-.75.01-4.096 0-8.196.005-12.295.032-.463-.196-.885-.523-1.194-2.385-2.378-4.763-4.76-7.146-7.14-.25-.26-.537-.49-.72-.806-.17-.305-.04-.67.205-.89 2.396-2.4 4.797-4.798 7.196-7.2.42-.427.988-.85.98-1.51.01-4.136.007-8.27.005-12.405.05-.45-.373-.825-.81-.774-3.918-.005-7.838 0-11.756 0-.448-.034-.856.19-1.16.5-2.716 2.714-5.434 5.43-8.148 8.145-.21.224-.525.397-.834.274-.29-.138-.495-.395-.72-.613-2.47-2.476-4.95-4.944-7.42-7.42-.393-.4-.826-.9-1.44-.88-3.88-.014-7.76 0-11.638-.01-.206.007-.417-.003-.615.063zm46.98-.012c-.35.108-.49.503-.463.84.003 14.408 0 28.818.002 43.227-.023.337.15.718.5.805.375.064.76.024 1.137.03 9.458 0 18.915 0 28.372.003.387-.007.78.027 1.166-.035.47-.13.79-.525 1.123-.854 2.69-2.7 5.393-5.384 8.082-8.084.387-.362.428-.91.4-1.407-.006-7.903 0-15.807 0-23.71-.01-.446.04-.902-.064-1.34-.173-.467-.57-.797-.91-1.142-2.46-2.45-4.914-4.902-7.372-7.36-.352-.342-.686-.74-1.147-.94-.38-.117-.783-.064-1.17-.074-9.493.003-18.984 0-28.475 0-.394.01-.795-.034-1.18.05zM28.88 5.086c.438-.447 1.05-.67 1.658-.777-.707.44-1.355.97-1.93 1.58-.064-.298.06-.6.272-.81zm2.822-.182c.402-.243.98-.56 1.405-.192.35.376.03.916-.305 1.182-.89.705-2.09 1.13-3.22.824.61-.707 1.337-1.306 2.116-1.814zm-18.59 6.02c1.085-.35 2.237-.4 3.366-.48.006 1.223-.022 2.447-.03 3.672-1.168-.43-2.306-.983-3.288-1.756-.28-.24-.6-.49-.707-.86.005-.343.4-.467.66-.577zm41.608.273c.183-.224.373-.457.63-.596.222-.06.42.14.45.35.132.61-.106 1.25-.506 1.714-.56.638-1.37 1.077-2.226 1.11.508-.882 1.026-1.765 1.654-2.57z" fill="#243f65"/><path d="M10.587 1.94c2.9-.618 5.957-.314 8.732.705 1.55.558 3.03 1.318 4.41 2.234 1.45.99 2.83 2.15 3.82 3.61.62.91 1.085 2.004.914 3.127-.205 1.56-1.37 2.817-2.718 3.534-2.263 1.19-4.967 1.317-7.42.718-.075.197-.12.412-.24.59-.357.4-1.11.345-1.377-.13-.19-.33-.19-.73-.24-1.1-1.554-.73-3.078-1.68-4.105-3.09-.248-.353-.538-.834-.297-1.264.22-.397.624-.645 1.004-.872 1.06-.58 2.254-.866 3.44-1.07.05-.924.075-1.87.38-2.752.08-.203.24-.525.51-.41.308.174.413.542.506.86.175.703.225 1.434.257 2.157 1.383.017 2.798.064 4.112.54.64.24 1.315.615 1.58 1.285.377.817-.44 1.92-1.33 1.746-.2-.01-.387-.08-.57-.15.162-.305.43-.534.61-.83.01-.253-.297-.33-.48-.422-1.236-.47-2.575-.62-3.89-.57.045 1.405.03 2.815.134 4.22 1.92.38 3.955.28 5.795-.4.78-.284 1.522-.76 1.99-1.458.48-.725.59-1.67.33-2.494-.334-1.154-1.12-2.104-1.978-2.916-1.38-1.28-3.03-2.24-4.747-2.994-2.836-1.2-5.96-1.87-9.042-1.5-.192.057-.547.032-.556.306.122.156.395.25.367.48-.354.152-.78.147-1.13-.01-.26-.12-.23-.444-.12-.66.293-.496.752-.934 1.34-1.028zm2.522 8.983c-.27.11-.66.234-.66.578.102.37.422.62.702.86.982.78 2.12 1.33 3.29 1.76.006-1.223.034-2.45.028-3.672-1.13.082-2.28.13-3.366.48zM29.75 3.408c.76-.312 1.634-.496 2.433-.22.432.132.72.538 1.17.627.29.07.586.2.72.482.288.563.044 1.232-.317 1.7-.655.848-1.577 1.482-2.59 1.825-.674.228-1.4.164-2.08.016-.188.215-.455.472-.76.32-.398-.283-.18-.85-.458-1.21-.295-.442-.4-1.016-.196-1.52.36-.93 1.177-1.625 2.076-2.02zm-.88 1.678c-.212.204-.337.512-.274.805.576-.6 1.224-1.13 1.93-1.58-.607.11-1.22.33-1.657.78zm2.82-.182c-.778.508-1.506 1.107-2.114 1.814 1.127.306 2.33-.12 3.216-.824.333-.266.654-.806.303-1.182-.426-.37-1.003-.05-1.406.192zM41.95 8.078c.04-.177.27-.136.388-.08.453.238.727.698.987 1.12.556 1.002.912 2.127.956 3.275.01.76-.23 1.562-.8 2.09-.285.264-.77.404-1.085.108-.575-.47-.957-1.13-1.37-1.74-.316-.45-.555-.97-.98-1.34-.286 1.08 0 2.26-.434 3.316-.18.385-.762.3-.942-.037-.258-.496-.225-1.08-.2-1.623.088-.996.243-1.994.547-2.95.117-.315.24-.67.528-.87.25-.11.475.105.65.256.6.59 1.063 1.304 1.54 1.994.31.437.57.92.977 1.282.13-.34.143-.708.066-1.063-.19-.95-.514-1.865-.766-2.798-.065-.305-.17-.63-.06-.935zm-7.27.732c.713-.057 1.43-.06 2.144-.008.4.05.84.07 1.177.324.17.126.17.414-.012.53-.235.178-.533.244-.817.302-1.244.224-2.523.15-3.766.384-.2.053-.495.117-.523.362.218.144.486.175.74.21.883.1 1.776.13 2.655.28.513.106 1.05.28 1.414.68.56.616.55 1.634.026 2.27-.553.69-1.47.936-2.318.988-.85.02-1.735-.072-2.502-.47-.48-.247-.95-.632-1.078-1.18-.1-.6.352-1.167.922-1.31.84-.22 1.73-.045 2.563.13.324.106.754.174.91.517-.09.34-.492.47-.803.53-.83.18-1.54-.416-2.33-.513-.343-.043-.777.26-.64.635.225.35.714.307 1.08.337 1.036-.04 2.106-.17 3.06-.603.233-.096.6-.42.31-.655-.565-.378-1.265-.475-1.924-.58-.87-.138-1.762-.026-2.626-.204-.385-.075-.793-.29-.91-.69-.147-.596.173-1.23.685-1.54.764-.487 1.682-.634 2.566-.73zm17.02.697c.25-.318.52-.624.87-.836.16.29.254.63.093.94-.395.822-.937 1.58-1.21 2.46-.074.21-.004.43.02.644.907-1.04 1.77-2.14 2.89-2.963.296-.205.613-.422.982-.453.503.037.9.446 1.116.876.43.92.367 2.05-.192 2.905-.834 1.34-2.315 2.428-3.95 2.358-.456 1.883-1.178 3.695-1.515 5.61-.563.042-1.003-.415-1.233-.882-.228-.433-.168-.94-.125-1.41.195-1.57.695-3.076 1.163-4.58-.256-.59-.413-1.243-.27-1.885.175-1.035.736-1.958 1.366-2.777zm3.017 1.69c-.628.806-1.146 1.69-1.654 2.573.86-.035 1.666-.474 2.228-1.112.4-.464.64-1.1.51-1.713-.03-.208-.23-.408-.45-.344-.256.14-.446.38-.63.6zm-9.248-2.06c.84-.164 1.7-.19 2.56-.274.62-.086 1.32-.074 1.803.383.165.172.47.39.343.66-.25.372-.744.332-1.138.36-.61.05-1.236.02-1.828.187-.145.24-.133.525-.156.793.575.13 1.174.056 1.755.156.35.206.295.84-.12.928-.59.078-1.188.013-1.78.065-.647-.01-.617.87-.66 1.33.75-.038 1.475-.234 2.217-.316.406-.068.852.232.93.64-.184.305-.5.493-.795.68-.808.477-1.727.82-2.674.8-.99-.076-1.54-1.283-1.256-2.157.115-.518.52-1.057.195-1.578.174-.44.82-.42.91-.908.05-.198.067-.4.092-.6-.377-.196-.93-.32-1.005-.81.09-.243.38-.28.593-.348zm-15.69-.163c.35-.264.65.23.72.538.28 1.192.26 2.432.31 3.65-.01.594.07 1.21-.126 1.783-.125.325-.54.29-.82.246-.31-.06-.46-.37-.522-.65-.144-.633-.128-1.287-.122-1.93.028-.977.03-1.963.235-2.922.067-.25.113-.53.317-.708zm1.68 8.346c.2-.066.41-.056.61-.062 3.88.01 7.76-.005 11.637.008.615-.02 1.05.482 1.442.882 2.47 2.475 4.95 4.943 7.42 7.42.223.218.427.475.72.612.307.123.623-.05.832-.273 2.714-2.717 5.432-5.43 8.146-8.148.306-.31.714-.538 1.16-.5 3.92 0 7.84-.008 11.757 0 .435-.05.86.32.81.77 0 4.135.003 8.27-.005 12.404.005.66-.564 1.084-.98 1.512-2.4 2.4-4.8 4.797-7.198 7.2-.247.217-.378.583-.21.89.186.31.473.544.724.803 2.383 2.38 4.76 4.763 7.145 7.14.327.31.555.73.52 1.193-.003 4.1.007 8.2-.003 12.296.032.44-.39.792-.814.747-4.066.003-8.13 0-12.195 0-.433.01-.86-.15-1.163-.464-2.49-2.498-4.99-4.984-7.477-7.484-.223-.214-.445-.49-.774-.52-.293-.036-.534.166-.727.36-2.375 2.384-4.76 4.76-7.137 7.144-.295.29-.567.625-.942.817-.437.203-.93.14-1.397.15-3.8 0-7.6-.002-11.402 0-.26 0-.56-.014-.74-.235-.193-.193-.192-.484-.196-.74.01-4.062-.003-8.124.007-12.187-.01-.628.496-1.06.907-1.464 2.42-2.417 4.845-4.83 7.26-7.254.336-.283.416-.835.067-1.14-2.578-2.592-5.172-5.17-7.754-7.757-.292-.295-.503-.687-.482-1.11 0-4.1-.004-8.2 0-12.298-.013-.3.144-.603.424-.724zm46.98-.012c.38-.083.78-.04 1.18-.047 9.49 0 18.98.008 28.47 0 .39.01.79-.04 1.17.08.46.204.795.6 1.147.944 2.46 2.454 4.913 4.91 7.372 7.363.34.346.736.676.91 1.143.102.437.052.893.062 1.34 0 7.902-.005 15.806.002 23.71.023.497-.018 1.044-.404 1.406-2.69 2.7-5.393 5.385-8.082 8.084-.332.33-.65.724-1.12.853-.385.063-.78.03-1.166.036-9.457-.005-18.914-.005-28.372-.005-.38-.006-.76.034-1.136-.03-.352-.087-.523-.468-.5-.805-.002-14.41 0-28.82-.003-43.227-.02-.335.115-.73.47-.84z" fill="#b5dc17"/></svg>