<?xml version="1.0" encoding="UTF-8" standalone="no"?>

<svg xmlns:svg="http://www.w3.org/2000/svg" xmlns="http://www.w3.org/2000/svg" version="1.1" width="128" height="64" xmlns:xlink="http://www.w3.org/1999/xlink">
	<g transform="matrix(0.110819,0,0,0.110819,7.2517309,-0.13751)">
		<g>
			<path fill="#243f65" d="m 56.28,0 8.17,0 c 38.42,2.04 75.44,17.59 105.73,40.96 7.1,-12.44 19.17,-22.13 33.09,-25.8 10.98,-3.14 23.65,-3.41 33.59,2.92 5.27,3.63 12.05,4.81 16.48,9.69 6.07,5.99 7.89,15.13 6.6,23.32 -0.71,4.77 -2.79,9.17 -4.99,13.4 7.32,0.04 14.72,0.12 21.9,1.7 3.28,0.71 6.14,2.58 9.32,3.57 3.54,0.09 7.08,-0.38 10.63,-0.24 3.01,-6.76 9.46,-12.3 17.12,-12.37 9.16,-0.61 16.71,5.8 22.21,12.42 9.77,-2.38 19.81,-3.16 29.8,-4.08 5.32,-0.42 10.81,-1.04 16.02,0.5 4.04,1.05 7.74,3.04 11.29,5.2 4.16,-3.56 9.01,-7.01 14.74,-6.94 6,-0.32 11.42,2.99 15.32,7.3 4.77,-1.51 9.91,-3.12 14.9,-1.67 5.19,1.45 9.61,4.79 13.34,8.58 19.63,19.72 39.36,39.36 59.02,59.05 1.11,1.32 2.81,1.67 4.48,1.63 130.66,-0.02 261.32,0 391.99,-0.01 5.95,0.04 12.05,-0.43 17.85,1.25 5.66,1.5 10.51,5.05 14.58,9.15 24.35,24.33 48.66,48.69 73.03,73.01 6.44,5.87 11.25,13.86 11.51,22.76 l 0,230.33 c -0.56,3.88 -1.43,7.8 -3.35,11.26 -3.13,5.86 -8.25,10.24 -12.84,14.92 -22.84,22.83 -45.61,45.75 -68.51,68.52 -4.54,4.71 -10.31,8.2 -16.72,9.67 l -426.98,0 c -5.67,-1.44 -11.06,-4.14 -15.18,-8.34 -20.95,-20.95 -41.84,-41.96 -62.87,-62.83 -21.16,20.76 -41.91,41.94 -62.95,62.83 -4.11,4.18 -9.46,6.91 -15.11,8.34 l -123.89,0 c -7.01,-1.88 -13.35,-6.6 -16.35,-13.31 -2.95,-5.77 -2.43,-12.41 -2.44,-18.67 0.02,-31.34 -0.02,-62.68 0,-94.02 0.03,-7 -0.55,-14.31 2.13,-20.94 2.53,-6.61 7.88,-11.48 12.76,-16.38 18.99,-18.91 37.85,-37.96 56.9,-56.81 C 194.59,285.73 120.46,211.71 46.4,137.62 c -4.52,-4.5 -9.33,-8.77 -13.03,-14 -4.33,-5.99 -8.25,-12.93 -7.77,-20.59 -0.02,-6.65 3.3,-12.85 8.15,-17.24 9.07,-9.21 21.71,-13.3 33.8,-16.84 0.84,-7.5 2.26,-15.02 5.82,-21.75 -9.68,-1.59 -19.53,-3.24 -29.35,-2.51 -2.51,1.92 -4.44,4.59 -7.31,6.02 -5.75,2.9 -12.48,3.14 -18.74,2.17 C 11.16,51.78 4.95,47.3 1.97,41.06 -0.78,35.18 -0.16,28.18 2.26,22.3 6.86,13.38 15.15,6.22 24.93,3.65 35.15,0.95 45.77,0.47 56.28,0 Z M 30.1,18.74 c -5.32,0.85 -9.46,4.8 -12.13,9.27 -0.99,1.95 -1.25,4.89 1.1,5.97 3.16,1.41 7.02,1.45 10.21,0.09 0.26,-2.09 -2.21,-2.93 -3.3,-4.34 0.08,-2.47 3.29,-2.25 5.03,-2.77 27.8,-3.35 56,2.72 81.59,13.53 15.5,6.81 30.37,15.49 42.84,27.03 7.72,7.33 14.83,15.9 17.84,26.3 2.35,7.45 1.36,15.97 -2.97,22.52 -4.23,6.3 -10.93,10.59 -17.97,13.15 -16.6,6.11 -34.97,7.04 -52.27,3.59 -0.95,-12.66 -0.81,-25.39 -1.22,-38.08 11.87,-0.44 23.96,0.93 35.12,5.13 1.64,0.85 4.41,1.53 4.32,3.82 -1.61,2.66 -4.04,4.73 -5.51,7.5 1.66,0.62 3.35,1.24 5.13,1.35 8.06,1.57 15.42,-8.38 12.02,-15.75 C 147.54,91 141.43,87.61 135.66,85.42 123.8,81.15 111.03,80.72 98.55,80.59 98.26,74.06 97.81,67.47 96.24,61.11 95.4,58.25 94.45,54.93 91.68,53.36 c -2.45,-1.04 -3.89,1.87 -4.61,3.7 -2.75,7.96 -2.97,16.5 -3.44,24.83 -10.69,1.85 -21.45,4.43 -31.04,9.66 -3.43,2.05 -7.07,4.29 -9.07,7.86 -2.17,3.88 0.45,8.22 2.68,11.42 9.27,12.7 23.02,21.3 37.05,27.88 0.43,3.34 0.44,6.91 2.16,9.91 2.41,4.3 9.21,4.8 12.42,1.18 1.09,-1.6 1.5,-3.54 2.17,-5.32 22.14,5.41 46.54,4.28 66.95,-6.47 12.16,-6.47 22.68,-17.81 24.52,-31.89 1.54,-10.13 -2.69,-20 -8.27,-28.21 C 174.23,64.67 161.83,54.2 148.71,45.27 136.3,37 122.94,30.14 108.89,25.11 83.85,15.91 56.27,13.17 30.1,18.74 Z m 172.98,13.25 c -8.11,3.57 -15.48,9.83 -18.75,18.24 -1.83,4.54 -0.89,9.72 1.77,13.72 2.49,3.23 0.54,8.35 4.1,10.9 2.78,1.38 5.19,-0.94 6.88,-2.88 6.16,1.33 12.71,1.91 18.79,-0.15 9.14,-3.09 17.46,-8.81 23.37,-16.47 3.26,-4.22 5.46,-10.25 2.88,-15.33 -1.23,-2.56 -3.91,-3.72 -6.51,-4.35 -4.08,-0.81 -6.67,-4.47 -10.57,-5.67 -7.21,-2.48 -15.1,-0.82 -21.96,1.99 z m 110.05,42.14 c -1,2.76 -0.07,5.69 0.52,8.43 2.27,8.42 5.2,16.68 6.91,25.25 0.7,3.2 0.57,6.51 -0.61,9.58 -3.67,-3.26 -6.02,-7.62 -8.82,-11.57 -4.3,-6.23 -8.46,-12.67 -13.89,-18 -1.58,-1.36 -3.62,-3.29 -5.86,-2.3 -2.61,1.8 -3.71,5 -4.76,7.85 -2.74,8.62 -4.14,17.63 -4.93,26.62 -0.23,4.89 -0.53,10.17 1.8,14.64 1.63,3.03 6.9,3.81 8.49,0.34 3.92,-9.49 1.34,-20.13 3.93,-29.89 3.82,3.33 5.98,8.02 8.84,12.11 3.72,5.51 7.17,11.43 12.36,15.72 2.83,2.67 7.22,1.4 9.79,-0.99 5.14,-4.75 7.35,-12 7.27,-18.85 -0.4,-10.36 -3.61,-20.51 -8.63,-29.54 -2.34,-3.82 -4.82,-7.97 -8.92,-10.11 -1.08,-0.51 -3.15,-0.88 -3.49,0.71 z m -65.61,6.6 c -7.97,0.88 -16.26,2.2 -23.15,6.57 -4.62,2.82 -7.51,8.55 -6.19,13.91 1.06,3.61 4.74,5.56 8.2,6.26 7.8,1.6 15.85,0.59 23.7,1.85 5.94,0.94 12.26,1.81 17.35,5.22 2.63,2.14 -0.69,5.05 -2.79,5.93 -8.62,3.91 -18.27,5.07 -27.64,5.43 -3.28,-0.27 -7.7,0.11 -9.74,-3.04 -1.22,-3.4 2.69,-6.12 5.78,-5.73 7.16,0.88 13.57,6.25 21.06,4.64 2.81,-0.61 6.43,-1.72 7.25,-4.85 -1.41,-3.1 -5.29,-3.71 -8.21,-4.66 -7.54,-1.59 -15.55,-3.18 -23.16,-1.18 -5.14,1.29 -9.21,6.4 -8.32,11.81 1.16,4.95 5.41,8.43 9.73,10.67 6.92,3.58 14.9,4.42 22.58,4.23 7.64,-0.47 15.92,-2.7 20.91,-8.91 4.73,-5.75 4.82,-14.93 -0.24,-20.49 -3.29,-3.6 -8.13,-5.18 -12.76,-6.14 -7.93,-1.35 -15.99,-1.63 -23.97,-2.53 -2.28,-0.31 -4.7,-0.59 -6.67,-1.89 0.26,-2.21 2.94,-2.79 4.73,-3.27 11.22,-2.1 22.76,-1.44 33.99,-3.46 2.56,-0.52 5.25,-1.12 7.37,-2.73 1.64,-1.04 1.65,-3.64 0.15,-4.78 -3.03,-2.29 -7,-2.47 -10.62,-2.92 -6.43,-0.46 -12.91,-0.44 -19.34,0.06 z m 153.59,6.3 c -5.69,7.39 -10.75,15.72 -12.33,25.05 -1.29,5.79 0.13,11.69 2.44,17.02 -4.23,13.56 -8.74,27.16 -10.5,41.32 -0.39,4.25 -0.93,8.81 1.12,12.75 2.08,4.21 6.05,8.34 11.13,7.95 3.04,-17.27 9.55,-33.62 13.67,-50.62 14.75,0.64 28.12,-9.18 35.64,-21.27 5.05,-7.71 5.65,-17.91 1.78,-26.24 -1.94,-3.88 -5.53,-7.57 -10.07,-7.9 -3.33,0.28 -6.19,2.24 -8.86,4.09 -10.11,7.42 -17.9,17.37 -26.09,26.73 -0.21,-1.92 -0.84,-3.92 -0.16,-5.82 2.45,-7.93 7.34,-14.77 10.91,-22.19 1.45,-2.76 0.61,-5.86 -0.83,-8.41 -3.15,1.91 -5.61,4.67 -7.85,7.54 z M 344.87,83.7 c -1.94,0.61 -4.56,0.95 -5.36,3.13 0.69,4.41 5.67,5.55 9.05,7.31 -0.22,1.81 -0.38,3.64 -0.85,5.41 -0.78,4.39 -6.62,4.21 -8.2,8.19 2.95,4.7 -0.72,9.56 -1.75,14.23 -2.58,7.89 2.4,18.78 11.33,19.47 8.55,0.19 16.84,-2.92 24.11,-7.22 2.65,-1.69 5.51,-3.39 7.18,-6.15 -0.71,-3.67 -4.74,-6.38 -8.41,-5.83 -6.7,0.74 -13.25,2.51 -20,2.85 0.38,-4.16 0.11,-12.1 5.95,-12 5.34,-0.47 10.73,0.12 16.05,-0.59 3.76,-0.78 4.25,-6.51 1.09,-8.37 -5.24,-0.9 -10.64,-0.23 -15.85,-1.41 0.21,-2.42 0.1,-5 1.41,-7.15 5.34,-1.52 10.99,-1.23 16.48,-1.7 3.56,-0.24 8,0.12 10.28,-3.25 1.14,-2.43 -1.6,-4.39 -3.09,-5.95 -4.39,-4.12 -10.71,-4.23 -16.33,-3.45 -7.7,0.77 -15.48,0.99 -23.09,2.48 z M 203.28,82.22 c -1.84,1.61 -2.26,4.14 -2.86,6.39 -1.85,8.65 -1.87,17.55 -2.11,26.36 -0.06,5.81 -0.2,11.71 1.09,17.42 0.56,2.53 1.93,5.34 4.72,5.93 2.51,0.41 6.26,0.71 7.37,-2.22 1.78,-5.16 1.01,-10.73 1.11,-16.08 -0.46,-11 -0.26,-22.19 -2.82,-32.95 -0.59,-2.78 -3.29,-7.23 -6.5,-4.85 z m 15.18,75.31 c -2.53,1.09 -3.95,3.83 -3.82,6.53 -0.04,36.98 0,73.97 -0.02,110.95 -0.19,3.84 1.72,7.37 4.36,10.03 23.3,23.35 46.71,46.6 69.97,69.99 3.15,2.76 2.43,7.74 -0.61,10.29 -21.79,21.86 -43.66,43.65 -65.51,65.45 -3.7,3.62 -8.26,7.54 -8.17,13.21 -0.09,36.66 0.02,73.32 -0.06,109.98 0.03,2.3 0.02,4.93 1.78,6.68 1.6,1.99 4.32,2.14 6.68,2.13 34.3,-0.03 68.6,-0.02 102.9,-0.01 4.21,-0.08 8.66,0.48 12.61,-1.34 3.39,-1.74 5.84,-4.74 8.5,-7.37 21.45,-21.52 42.97,-42.95 64.39,-64.48 1.74,-1.73 3.91,-3.56 6.55,-3.24 2.97,0.26 4.97,2.77 6.98,4.69 22.44,22.56 45.01,44.99 67.47,67.53 2.73,2.82 6.59,4.27 10.5,4.2 36.67,0 73.35,0.01 110.03,-0.01 3.84,0.41 7.64,-2.76 7.35,-6.75 0.09,-36.98 0,-73.97 0.04,-110.96 0.3,-4.17 -1.76,-7.98 -4.71,-10.77 -21.51,-21.45 -42.97,-42.97 -64.47,-64.43 -2.27,-2.33 -4.86,-4.44 -6.53,-7.26 -1.52,-2.75 -0.34,-6.06 1.87,-8.02 21.63,-21.68 43.3,-43.31 64.95,-64.97 3.76,-3.87 8.89,-7.69 8.85,-13.66 0.07,-37.3 0.03,-74.61 0.02,-111.92 0.45,-4.06 -3.36,-7.44 -7.3,-6.98 -35.36,-0.05 -70.73,0 -106.09,-0.02 -4.03,-0.3 -7.71,1.71 -10.47,4.49 -24.49,24.52 -49.02,49.01 -73.51,73.53 -1.89,2.01 -4.74,3.57 -7.53,2.46 -2.62,-1.23 -4.46,-3.55 -6.49,-5.52 -22.29,-22.35 -44.66,-44.62 -66.95,-66.96 -3.56,-3.61 -7.46,-8.13 -13.01,-7.96 -35,-0.11 -70.01,0.02 -105.01,-0.07 -1.85,0.06 -3.76,-0.03 -5.54,0.56 z m 423.91,-0.11 c -3.19,0.98 -4.39,4.54 -4.2,7.58 0.03,130.02 0.01,260.05 0.02,390.07 -0.2,3.04 1.34,6.48 4.52,7.27 3.38,0.57 6.84,0.21 10.26,0.28 85.34,0 170.68,0 256.021,0.01 3.5,-0.06 7.05,0.25 10.53,-0.31 4.23,-1.17 7.11,-4.74 10.12,-7.71 24.27,-24.35 48.68,-48.58 72.94,-72.95 3.49,-3.26 3.86,-8.2 3.63,-12.69 -0.06,-71.32 -0.01,-142.64 -0.02,-213.95 -0.09,-4.03 0.36,-8.14 -0.57,-12.1 -1.56,-4.21 -5.14,-7.19 -8.21,-10.3 -22.19,-22.14 -44.34,-44.3 -66.52,-66.44 -3.18,-3.13 -6.19,-6.68 -10.35,-8.53 -3.42,-1.05 -7.06,-0.57 -10.56,-0.66 -85.65,0.02 -171.3,0.01 -256.94,0.01 -3.561,0.07 -7.181,-0.33 -10.671,0.42 z" />
			<path fill="#243f65" d="m 195.13,47.14 c 3.95,-4.04 9.48,-6.06 14.96,-7.02 -6.38,4.03 -12.22,8.83 -17.42,14.28 -0.57,-2.64 0.56,-5.42 2.46,-7.26 z" />
			<path fill="#243f65" d="m 220.6,45.49 c 3.63,-2.19 8.84,-5.06 12.68,-1.73 3.17,3.39 0.27,8.27 -2.75,10.67 -8,6.36 -18.85,10.19 -29.02,7.43 5.49,-6.38 12.06,-11.78 19.09,-16.37 z" />
			<path fill="#243f65" d="m 52.85,99.81 c 9.8,-3.16 20.2,-3.6 30.39,-4.34 0.05,11.05 -0.2,22.1 -0.26,33.15 -10.55,-3.87 -20.82,-8.87 -29.68,-15.85 -2.53,-2.16 -5.42,-4.42 -6.38,-7.75 0.01,-3.1 3.56,-4.22 5.93,-5.21 z" />
			<path fill="#243f65" d="m 428.32,102.28 c 1.65,-2.02 3.37,-4.12 5.7,-5.38 1.99,-0.58 3.78,1.23 4.05,3.11 1.19,5.52 -0.96,11.27 -4.57,15.45 -5.07,5.76 -12.35,9.72 -20.1,10.04 4.58,-7.98 9.26,-15.95 14.92,-23.22 z" />
		</g>
		<g>
			<path fill="#b5dc17" d="m 30.1,18.74 c 26.17,-5.57 53.75,-2.83 78.79,6.37 14.05,5.03 27.41,11.89 39.82,20.16 13.12,8.93 25.52,19.4 34.49,32.64 5.58,8.21 9.81,18.08 8.27,28.21 -1.84,14.08 -12.36,25.42 -24.52,31.89 -20.41,10.75 -44.81,11.88 -66.95,6.47 -0.67,1.78 -1.08,3.72 -2.17,5.32 -3.21,3.62 -10.01,3.12 -12.42,-1.18 -1.72,-3 -1.73,-6.57 -2.16,-9.91 -14.03,-6.58 -27.78,-15.18 -37.05,-27.88 -2.23,-3.2 -4.85,-7.54 -2.68,-11.42 2,-3.57 5.64,-5.81 9.07,-7.86 9.59,-5.23 20.35,-7.81 31.04,-9.66 0.47,-8.33 0.69,-16.87 3.44,-24.83 0.72,-1.83 2.16,-4.74 4.61,-3.7 2.77,1.57 3.72,4.89 4.56,7.75 1.57,6.36 2.02,12.95 2.31,19.48 12.48,0.13 25.25,0.56 37.11,4.83 5.77,2.19 11.88,5.58 14.27,11.63 3.4,7.37 -3.96,17.32 -12.02,15.75 -1.78,-0.11 -3.47,-0.73 -5.13,-1.35 1.47,-2.77 3.9,-4.84 5.51,-7.5 0.09,-2.29 -2.68,-2.97 -4.32,-3.82 -11.16,-4.2 -23.25,-5.57 -35.12,-5.13 0.41,12.69 0.27,25.42 1.22,38.08 17.3,3.45 35.67,2.52 52.27,-3.59 7.04,-2.56 13.74,-6.85 17.97,-13.15 4.33,-6.55 5.32,-15.07 2.97,-22.52 C 170.27,83.42 163.16,74.85 155.44,67.52 142.97,55.98 128.1,47.3 112.6,40.49 87.01,29.68 58.81,23.61 31.01,26.96 c -1.74,0.52 -4.95,0.3 -5.03,2.77 1.09,1.41 3.56,2.25 3.3,4.34 -3.19,1.36 -7.05,1.32 -10.21,-0.09 -2.35,-1.08 -2.09,-4.02 -1.1,-5.97 2.67,-4.47 6.81,-8.42 12.13,-9.27 z m 22.75,81.07 c -2.37,0.99 -5.92,2.11 -5.93,5.21 0.96,3.33 3.85,5.59 6.38,7.75 8.86,6.98 19.13,11.98 29.68,15.85 0.06,-11.05 0.31,-22.1 0.26,-33.15 -10.19,0.74 -20.59,1.18 -30.39,4.34 z" />
			<path fill="#b5dc17" d="m 203.08,31.99 c 6.86,-2.81 14.75,-4.47 21.96,-1.99 3.9,1.2 6.49,4.86 10.57,5.67 2.6,0.63 5.28,1.79 6.51,4.35 2.58,5.08 0.38,11.11 -2.88,15.33 -5.91,7.66 -14.23,13.38 -23.37,16.47 -6.08,2.06 -12.63,1.48 -18.79,0.15 -1.69,1.94 -4.1,4.26 -6.88,2.88 -3.56,-2.55 -1.61,-7.67 -4.1,-10.9 -2.66,-4 -3.6,-9.18 -1.77,-13.72 3.27,-8.41 10.64,-14.67 18.75,-18.24 z m -7.95,15.15 c -1.9,1.84 -3.03,4.62 -2.46,7.26 5.2,-5.45 11.04,-10.25 17.42,-14.28 -5.48,0.96 -11.01,2.98 -14.96,7.02 z m 25.47,-1.65 c -7.03,4.59 -13.6,9.99 -19.09,16.37 10.17,2.76 21.02,-1.07 29.02,-7.43 3.02,-2.4 5.92,-7.28 2.75,-10.67 -3.84,-3.33 -9.05,-0.46 -12.68,1.73 z" />
			<path fill="#b5dc17" d="m 313.13,74.13 c 0.34,-1.59 2.41,-1.22 3.49,-0.71 4.1,2.14 6.58,6.29 8.92,10.11 5.02,9.03 8.23,19.18 8.63,29.54 0.08,6.85 -2.13,14.1 -7.27,18.85 -2.57,2.39 -6.96,3.66 -9.79,0.99 -5.19,-4.29 -8.64,-10.21 -12.36,-15.72 -2.86,-4.09 -5.02,-8.78 -8.84,-12.11 -2.59,9.76 -0.01,20.4 -3.93,29.89 -1.59,3.47 -6.86,2.69 -8.49,-0.34 -2.33,-4.47 -2.03,-9.75 -1.8,-14.64 0.79,-8.99 2.19,-18 4.93,-26.62 1.05,-2.85 2.15,-6.05 4.76,-7.85 2.24,-0.99 4.28,0.94 5.86,2.3 5.43,5.33 9.59,11.77 13.89,18 2.8,3.95 5.15,8.31 8.82,11.57 1.18,-3.07 1.31,-6.38 0.61,-9.58 -1.71,-8.57 -4.64,-16.83 -6.91,-25.25 -0.59,-2.74 -1.52,-5.67 -0.52,-8.43 z" />
			<path fill="#b5dc17" d="m 247.52,80.73 c 6.43,-0.5 12.91,-0.52 19.34,-0.06 3.62,0.45 7.59,0.63 10.62,2.92 1.5,1.14 1.49,3.74 -0.15,4.78 -2.12,1.61 -4.81,2.21 -7.37,2.73 -11.23,2.02 -22.77,1.36 -33.99,3.46 -1.79,0.48 -4.47,1.06 -4.73,3.27 1.97,1.3 4.39,1.58 6.67,1.89 7.98,0.9 16.04,1.18 23.97,2.53 4.63,0.96 9.47,2.54 12.76,6.14 5.06,5.56 4.97,14.74 0.24,20.49 -4.99,6.21 -13.27,8.44 -20.91,8.91 -7.68,0.19 -15.66,-0.65 -22.58,-4.23 -4.32,-2.24 -8.57,-5.72 -9.73,-10.67 -0.89,-5.41 3.18,-10.52 8.32,-11.81 7.61,-2 15.62,-0.41 23.16,1.18 2.92,0.95 6.8,1.56 8.21,4.66 -0.82,3.13 -4.44,4.24 -7.25,4.85 -7.49,1.61 -13.9,-3.76 -21.06,-4.64 -3.09,-0.39 -7,2.33 -5.78,5.73 2.04,3.15 6.46,2.77 9.74,3.04 9.37,-0.36 19.02,-1.52 27.64,-5.43 2.1,-0.88 5.42,-3.79 2.79,-5.93 -5.09,-3.41 -11.41,-4.28 -17.35,-5.22 -7.85,-1.26 -15.9,-0.25 -23.7,-1.85 -3.46,-0.7 -7.14,-2.65 -8.2,-6.26 -1.32,-5.36 1.57,-11.09 6.19,-13.91 6.89,-4.37 15.18,-5.69 23.15,-6.57 z" />
			<path fill="#b5dc17" d="m 401.11,87.03 c 2.24,-2.87 4.7,-5.63 7.85,-7.54 1.44,2.55 2.28,5.65 0.83,8.41 -3.57,7.42 -8.46,14.26 -10.91,22.19 -0.68,1.9 -0.05,3.9 0.16,5.82 8.19,-9.36 15.98,-19.31 26.09,-26.73 2.67,-1.85 5.53,-3.81 8.86,-4.09 4.54,0.33 8.13,4.02 10.07,7.9 3.87,8.33 3.27,18.53 -1.78,26.24 -7.52,12.09 -20.89,21.91 -35.64,21.27 -4.12,17 -10.63,33.35 -13.67,50.62 -5.08,0.39 -9.05,-3.74 -11.13,-7.95 -2.05,-3.94 -1.51,-8.5 -1.12,-12.75 1.76,-14.16 6.27,-27.76 10.5,-41.32 -2.31,-5.33 -3.73,-11.23 -2.44,-17.02 1.58,-9.33 6.64,-17.66 12.33,-25.05 z m 27.21,15.25 c -5.66,7.27 -10.34,15.24 -14.92,23.22 7.75,-0.32 15.03,-4.28 20.1,-10.04 3.61,-4.18 5.76,-9.93 4.57,-15.45 -0.27,-1.88 -2.06,-3.69 -4.05,-3.11 -2.33,1.26 -4.05,3.36 -5.7,5.38 z" />
			<path fill="#b5dc17" d="m 344.87,83.7 c 7.61,-1.49 15.39,-1.71 23.09,-2.48 5.62,-0.78 11.94,-0.67 16.33,3.45 1.49,1.56 4.23,3.52 3.09,5.95 -2.28,3.37 -6.72,3.01 -10.28,3.25 -5.49,0.47 -11.14,0.18 -16.48,1.7 -1.31,2.15 -1.2,4.73 -1.41,7.15 5.21,1.18 10.61,0.51 15.85,1.41 3.16,1.86 2.67,7.59 -1.09,8.37 -5.32,0.71 -10.71,0.12 -16.05,0.59 -5.84,-0.1 -5.57,7.84 -5.95,12 6.75,-0.34 13.3,-2.11 20,-2.85 3.67,-0.55 7.7,2.16 8.41,5.83 -1.67,2.76 -4.53,4.46 -7.18,6.15 -7.27,4.3 -15.56,7.41 -24.11,7.22 -8.93,-0.69 -13.91,-11.58 -11.33,-19.47 1.03,-4.67 4.7,-9.53 1.75,-14.23 1.58,-3.98 7.42,-3.8 8.2,-8.19 0.47,-1.77 0.63,-3.6 0.85,-5.41 -3.38,-1.76 -8.36,-2.9 -9.05,-7.31 0.8,-2.18 3.42,-2.52 5.36,-3.13 z" />
			<path fill="#b5dc17" d="m 203.28,82.22 c 3.21,-2.38 5.91,2.07 6.5,4.85 2.56,10.76 2.36,21.95 2.82,32.95 -0.1,5.35 0.67,10.92 -1.11,16.08 -1.11,2.93 -4.86,2.63 -7.37,2.22 -2.79,-0.59 -4.16,-3.4 -4.72,-5.93 -1.29,-5.71 -1.15,-11.61 -1.09,-17.42 0.24,-8.81 0.26,-17.71 2.11,-26.36 0.6,-2.25 1.02,-4.78 2.86,-6.39 z" />
			<path fill="#b5dc17" d="m 218.46,157.53 c 1.78,-0.59 3.69,-0.5 5.54,-0.56 35,0.09 70.01,-0.04 105.01,0.07 5.55,-0.17 9.45,4.35 13.01,7.96 22.29,22.34 44.66,44.61 66.95,66.96 2.03,1.97 3.87,4.29 6.49,5.52 2.79,1.11 5.64,-0.45 7.53,-2.46 24.49,-24.52 49.02,-49.01 73.51,-73.53 2.76,-2.78 6.44,-4.79 10.47,-4.49 35.36,0.02 70.73,-0.03 106.09,0.02 3.94,-0.46 7.75,2.92 7.3,6.98 0.01,37.31 0.05,74.62 -0.02,111.92 0.04,5.97 -5.09,9.79 -8.85,13.66 -21.65,21.66 -43.32,43.29 -64.95,64.97 -2.21,1.96 -3.39,5.27 -1.87,8.02 1.67,2.82 4.26,4.93 6.53,7.26 21.5,21.46 42.96,42.98 64.47,64.43 2.95,2.79 5.01,6.6 4.71,10.77 -0.04,36.99 0.05,73.98 -0.04,110.96 0.29,3.99 -3.51,7.16 -7.35,6.75 -36.68,0.02 -73.36,0.01 -110.03,0.01 -3.91,0.07 -7.77,-1.38 -10.5,-4.2 -22.46,-22.54 -45.03,-44.97 -67.47,-67.53 -2.01,-1.92 -4.01,-4.43 -6.98,-4.69 -2.64,-0.32 -4.81,1.51 -6.55,3.24 -21.42,21.53 -42.94,42.96 -64.39,64.48 -2.66,2.63 -5.11,5.63 -8.5,7.37 -3.95,1.82 -8.4,1.26 -12.61,1.34 -34.3,-0.01 -68.6,-0.02 -102.9,0.01 -2.36,0.01 -5.08,-0.14 -6.68,-2.13 -1.76,-1.75 -1.75,-4.38 -1.78,-6.68 0.08,-36.66 -0.03,-73.32 0.06,-109.98 -0.09,-5.67 4.47,-9.59 8.17,-13.21 21.85,-21.8 43.72,-43.59 65.51,-65.45 3.04,-2.55 3.76,-7.53 0.61,-10.29 -23.26,-23.39 -46.67,-46.64 -69.97,-69.99 -2.64,-2.66 -4.55,-6.19 -4.36,-10.03 0.02,-36.98 -0.02,-73.97 0.02,-110.95 -0.13,-2.7 1.29,-5.44 3.82,-6.53 z" />
			<path fill="#b5dc17" d="m 642.37,157.42 c 3.49,-0.75 7.11,-0.35 10.67,-0.42 85.64,0 171.29,0.01 256.94,-0.01 3.5,0.09 7.14,-0.39 10.56,0.66 4.16,1.85 7.17,5.4 10.35,8.53 22.18,22.14 44.33,44.3 66.52,66.44 3.07,3.11 6.65,6.09 8.21,10.3 0.93,3.96 0.48,8.07 0.57,12.1 0.01,71.31 -0.04,142.63 0.02,213.95 0.23,4.49 -0.14,9.43 -3.63,12.69 -24.26,24.37 -48.67,48.6 -72.94,72.95 -3.01,2.97 -5.89,6.54 -10.12,7.71 -3.48,0.56 -7.03,0.25 -10.53,0.31 -85.34,-0.01 -170.68,-0.01 -256.021,-0.01 -3.42,-0.07 -6.88,0.29 -10.26,-0.28 -3.18,-0.79 -4.72,-4.23 -4.52,-7.27 -0.01,-130.02 0.01,-260.05 -0.02,-390.07 -0.189,-3.04 1.011,-6.6 4.201,-7.58 z" />
		</g>
	</g>
</svg>