<svg xmlns="http://www.w3.org/2000/svg" width="128" height="64" xmlns:xlink="http://www.w3.org/1999/xlink"><defs><linearGradient id="a"><stop stop-color="#fff" offset="0"/><stop stop-color="#e6e6e6" offset="1"/></linearGradient><linearGradient gradientUnits="userSpaceOnUse" y2="106.773" x2="483" y1="43.362" x1="483" xlink:href="#a"/></defs><g stroke="null"><path fill="#221e1f" d="M41.387 37.98c-1.468.038-2.665.226-2.93.51-.233.25-.52.46-.528.8 0 .336.37.375.61.375.233 0 .46-.032.46-.17 0-.198-.327-.147-.327-.34 0-.23 1.217-.29 1.82-.29 5.205-.016 11.202 3.587 11.21 6.643 0 2.373-3.08 2.91-4.787 2.913-.608.01-1.197-.06-1.754-.17-.025-.752-.084-2.33-.103-3.332.2-.005.387-.017.545-.017 1.26-.01 2.924.457 2.93.75 0 .25-.445.423-.445.663 0 .18.4.143.75.17.065.005.79-.393.785-1.02 0-.83-1.042-1.815-4.43-1.807h-.152c-.036-.934-.17-2.405-.7-2.4-.44 0-.573 1.624-.612 2.52-1.9.29-3.574 1.06-3.574 1.823 0 .62 1.358 2.18 3.56 3.133.036.7.157 1.195.784 1.19.455 0 .62-.33.665-.68.71.185 1.48.272 2.298.272 3.19-.01 5.75-1.716 5.74-4.053-.022-3.13-6.32-7.632-11.82-7.48zM55.525 39c-1.86.01-3.066 1.5-3.066 2.3 0 .3.11.664.37.97.02.64.163.802.373.802.236 0 .372-.124.46-.29.267.08.587.124.97.12 1.196 0 3.087-1.362 3.083-2.487 0-.506-.265-.76-.92-.852-.27-.263-.67-.563-1.276-.563zm-.68.99c-.573.335-1.156.807-1.55 1.276-.023-.063-.035-.115-.035-.17 0-.363.534-.933 1.584-1.107zm1.634.186c.41 0 .49.334.49.46 0 .75-1.55 1.363-2.217 1.363-.274 0-.506-.05-.7-.11.526-.595 1.792-1.716 2.42-1.72zm7.49 2.794c-.16 0-.19.18-.19.358 0 .525.733 2.36.733 3.066 0 .146-.017.41-.12.443-.174.05-1.698-2.747-2.334-2.794-.655-.047-1.01 2.737-1.005 3.424 0 .683.12 1.14.63 1.14.755-.003.36-2.775.665-2.775.227 0 1.465 2.54 2.148 2.538.746 0 1.176-1.086 1.176-1.79 0-1.618-1.076-3.614-1.704-3.61zm8.175.63c-.025.003-.043.013-.07.034-.397.324-1.672 1.8-1.67 3.185 0 .31.08.7.258 1.05-.287.927-.98 2.99-.956 4.24.02.645.664 1.293 1.055 1.21.15-.03.177-.888.376-1.464.276-.83.714-2.334.87-2.98.07.01.145.016.22.016 1.555-.01 3.28-1.67 3.27-3.1 0-1.43-.84-1.77-1.107-1.755-.743.043-2.18 1.625-3.016 2.69-.05-.11-.083-.206-.085-.305 0-.45.846-1.807 1.004-2.147.144-.307.015-.7-.154-.68zm-13.355.034c-.55 0-3.312.062-3.304 1.6 0 1.044 1.548.78 2.574.887.84.09 1.858.36 1.858.63 0 .62-2.215.87-2.673.87-.94 0-.954-.27-.954-.41 0-.13.16-.37.51-.37.36 0 1.07.45 1.57.44.5 0 .92-.213.92-.44 0-.405-1.65-.612-2.16-.612-.54.005-1.312.23-1.312 1.04 0 .418.68 1.404 2.606 1.396 1.9-.01 2.386-1.08 2.386-1.636 0-1.35-1.287-1.507-2.404-1.6-.833-.072-1.74-.118-1.737-.308 0-.613 4.154-.148 4.154-.99 0-.5-1.3-.497-2.027-.493zm10.27.034c-1.27.138-2.927.13-2.927.545 0 .39.78.54.8.648.022.11-.094.528-.136.65-.046.14-.61.18-.647.56 0 .09.15.22.12.33-.086.32-.36.984-.36 1.26 0 .423.313 1.353 1.177 1.33 1.37-.05 2.61-.994 2.625-1.16.03-.252-.35-.545-.614-.545-.262 0-1.74.326-1.837.24-.1-.09.087-.947.275-1.006.186-.06 1.344-.04 1.533-.05.535-.03.43-.758.1-.786-.165-.01-1.22-.007-1.277-.102-.054-.094.025-.58.137-.63.24-.1 1.823-.142 1.94-.17.198-.05.346-.153.393-.323.046-.17-.554-.864-1.297-.785zm-14.715.068c-.54 0-.547 2.175-.563 2.964-.04 1.812.234 2.03.715 2.027.43 0 .567-.05.527-1.567-.064-2.87-.256-3.424-.68-3.424zm-10.63 1.21c0 .853-.034 2.087-.034 2.913-1.89-.67-3.166-1.73-3.166-2.08 0-.55 1.664-.76 3.2-.84zm30.763.12c.236.003.32.227.323.578 0 1.062-1.28 1.94-2.196 1.925.623-1.09 1.54-2.52 1.873-2.51zm-26.795 5.28c-.526 0-1.76.142-1.79 1.362.03 1.224 1.264 1.346 1.79 1.346.437 0 1.043-.094 1.327-.375.095-.098.137-.19.137-.29 0-.188-.187-.33-.444-.33-.176 0-.26.023-.34.102-.126.126-.265.194-.443.222-.066.014-.138.033-.204.033-.11 0-.226-.016-.325-.05-.12-.045-.222-.123-.305-.206-.127-.13-.206-.29-.206-.46 0-.17.074-.332.202-.46.085-.09.18-.177.308-.22.1-.036.216-.05.323-.05.067 0 .12.02.188.033.18.026.336.094.46.22.08.08.166.103.343.103.255 0 .442-.13.442-.308 0-.104-.042-.213-.137-.308-.284-.28-.89-.375-1.328-.375zm6.744 0c-.324 0-.576.13-.68.323l-.735 1.41c-.08.16-.232.464-.236.56 0 .106.035.19.1.255.085.09.217.136.376.136.18 0 .39-.055.445-.17l.12-.255.017-.015.017-.016h1.33l.018.017.018.02.032.05c.084.166.085.174.085.17.044.115.257.205.443.205.18-.008.32-.057.393-.138.05-.05.07-.105.07-.188v-.05c0-.085-.09-.298-.254-.598l-.715-1.397c-.152-.285-.542-.324-.695-.324h-.137zm2.537.017c-.256 0-.562.11-.562.39v1.926c0 .25.163.37.48.37.224 0 .493-.065.493-.377v-.99l-.018-.17c-.02-.05-.033-.067-.034-.084v-.017c.002-.017.017-.03.035-.035.016-.01.026-.006.035 0 0 .014 1.075 1.346 1.09 1.36.218.27.376.308.65.308.26 0 .56-.094.56-.375v-1.92c0-.252-.16-.374-.477-.374-.122 0-.29.016-.392.12-.063.062-.1.148-.1.254v1.022l.033.12.034.12c.024.02-.01.042-.032.05-.02.01-.02.013-.033 0l-1.108-1.38c-.217-.264-.375-.323-.648-.323zm3.594 0c-.26 0-.56.11-.56.39v1.926c0 .25.16.37.476.37.22 0 .478-.065.478-.377v-.99l-.02-.17c-.02-.058-.014-.085-.016-.1 0-.016 0-.03.016-.035.023-.01.045-.014.05 0 0 .015 1.076 1.343 1.09 1.362.22.27.363.307.632.307.26 0 .562-.094.562-.375V50.75c0-.25-.157-.373-.477-.373-.22 0-.48.058-.48.374v1.028l.017.12.033.12c0 .02-.012.042-.034.05-.024.01-.02.013-.036 0l-1.09-1.38c-.216-.264-.374-.323-.647-.323zm-10.696.017c-.317 0-.508.13-.51.374v1.874c0 .11.047.206.117.273.085.09.214.12.39.12.316 0 .507-.14.51-.39v-.54c0-.044.04-.07.086-.07h1.055c.03 0 .054.02.054.05v.563c0 .25.19.39.51.39.175 0 .305-.03.392-.12.066-.06.103-.146.103-.253v-1.89c0-.247-.198-.377-.513-.377-.18 0-.322.03-.41.12-.063.068-.084.154-.084.256v.612c0 .03-.036.067-.07.067l-1.07-.018c-.03 0-.05-.02-.05-.052v-.612c0-.106-.033-.188-.103-.255-.085-.085-.23-.12-.41-.12zm17.323 0c-.328 0-.51.143-.51.39v1.824c0 .142.026.253.1.324.096.09.254.12.495.12h1.7c.13 0 .23-.032.29-.103.036-.048.05-.113.05-.188 0-.07-.016-.123-.05-.17-.06-.07-.16-.12-.29-.12h-1.15c-.05 0-.097-.033-.1-.084V50.77c0-.247-.196-.39-.528-.39zm-2.998.034c-.43 0-.615.148-.615.46v1.72c0 .312.184.443.615.443h1.977c.14 0 .307-.046.307-.256 0-.202-.166-.25-.304-.25H64.72c-.046 0-.084-.032-.084-.083v-.408c0-.05.032-.08.083-.086h1.26c.123 0 .222-.04.27-.102.03-.04.034-.09.034-.153 0-.055-.015-.1-.033-.136-.05-.067-.144-.102-.272-.102l-1.243.017c-.05-.006-.097-.05-.1-.103v-.34c0-.05.033-.1.084-.1h1.45c.14 0 .304-.044.304-.257 0-.21-.165-.256-.307-.256H64.19zm-9.694.68c.024 0 .053.01.07.035l.424.98v.018l-.016.017h-.936l-.017-.017v-.03c.37-.84.416-.954.424-.97.025-.024.034-.034.05-.034z"/><path fill="#06f" d="M37.4 4.42c-3.513 0-6.342 2.83-6.342 6.344V54.34c0 3.513 2.83 6.342 6.343 6.342h55.71c3.52 0 6.35-2.83 6.35-6.343V10.76c0-3.514-2.83-6.343-6.344-6.343H37.4zm2.07 2.277h52.365c3.36 0 5.274 2.085 5.274 5.446V52.34c0 3.36-2.71 6.067-6.07 6.067H39.47c-3.362 0-6.068-2.706-6.068-6.068V12.76c0-3.36 2.706-6.067 6.068-6.067z"/><path fill="#ffaf00" d="M42.71 9.73c-.638.027-1.28.12-1.93.207-3.647.494-6.99 1.898-9.722 3.93-5.322 4.153-7.572 9.475-7.722 16.133.58 6.234 4.65 11.204 10.342 13.514-.456.577-.91 1.168-1.31 1.793-.434.648-.803 1.37-1.172 2.068-.038.075-.1.132-.137.207v6.756c0 2.068.96 3.877 2.48 5.034.06.056.14.09.21.137-.24-1.92-.32-3.94-.14-6.07.12-.49.26-.98.41-1.45.22-.62.485-1.27.76-1.86.61-1.255 1.194-2.098 1.652-2.62l.55-.555.21-.138 1.377-1.45c.44-.34.274-.986.07-1.17-.958-.866-.346-.117-2.897-1.93-1.51-1.075-3.023-2.21-4.275-3.518-.06-.065-.5-.473-.55-.55-1.766-2.904-2.37-6.655-1.45-10.413.35-1.43.88-2.822 1.59-4.067v.14c.382-.73.82-1.41 1.31-2.067.14-.197.324-.362.48-.552.32-.37.62-.76.964-1.1.348-.34.727-.653 1.103-.963 2.625-2.173 5.91-3.53 9.306-3.724.97-.054 1.917-.003 2.896.14 7.345 1.067 12 7.523 10.964 14.825-.064.392-.11.776-.207 1.172l-.003.07c-.022.09-.044.183-.068.274-.443 1.643-1.195 3.156-2.07 4.55-.08.127-.117.214-.07.346-.023.17.096.28.413.344.14.006.27.06.412.07h.07c1.384.08 2.74.28 4.135.62 3.17.775 6.064 2.15 8.48 4 .332.16.762.127.69-.345-.025-.155.037-.23 0-.348-.347-1.097-.66-2.217-.76-3.38-.036-.445 0-.927 0-1.377.032-.583.094-1.21.21-1.793 1.305-6.7 7.75-10.45 14.41-8.412 4.58 1.4 8.07 5.178 9.375 9.584.198.67.32 1.38.413 2.07.086.83.145 1.715.068 2.55-.035.42-.124.827-.205 1.244-1.3 6.672-7.776 10.443-14.41 8.41-.915-.28-1.797-.643-2.62-1.103-1.01-.51-.76.65-.69.966.25 1.08.974 2.198 1.31 3.38.17.59.297 1.187.415 1.79.12.61.21 1.246.276 1.865.023.27.06.553.07.827v.07c.04.94.02 1.866-.07 2.826h5.382c-.032-.644-.056-1.29-.137-1.93-.06-.578-.173-1.152-.276-1.723-.22-1.205-.5-2.416-.9-3.587 6.84.85 12.89-2.903 14.41-9.515.366-1.59.386-3.206.208-4.825-.037-.385-.076-.787-.14-1.17-.023-.12-.044-.23-.07-.346-.07-.38-.177-.727-.274-1.103-.033-.108-.037-.237-.07-.345-.115-.4-.27-.78-.414-1.17-1.79-4.92-5.81-9.3-11.1-11.31-7.906-3.01-15.64.29-17.925 7.38-.115.356-.26.726-.345 1.102-.022.07-.053.138-.068.208v.14c-.128.613-.225 1.24-.276 1.86-.067.743-.047 1.46 0 2.207-.937-.397-1.906-.792-2.897-1.103-1.267-.395-2.527-.68-3.79-.897.775-1.41 1.432-2.92 1.793-4.48.023-.09.05-.183.07-.275.18-.743.206-1.51.277-2.275.088-.955.16-1.92.068-2.897-.827-8.927-8.907-15.3-18.477-14.9z"/><path fill="#06f" d="M99.453 42.204c-.7.523-1.454.922-2.344 1.103v9.032c0 3.36-2.71 6.06-6.07 6.06H39.47c-3.362 0-6.068-2.705-6.068-6.067V43.44h-2.344v10.9c0 3.513 2.83 6.342 6.343 6.342h55.71c3.52 0 6.35-2.83 6.35-6.343V42.2z"/></g></svg>