<?xml version="1.0" encoding="UTF-8" standalone="no"?>

<svg xmlns:svg="http://www.w3.org/2000/svg" xmlns="http://www.w3.org/2000/svg" version="1.1" width="128" height="64" xmlns:xlink="http://www.w3.org/1999/xlink">
	<g stroke="null">
		<path fill="#007081" fill-rule="evenodd" d="m0,47.31532l13.16594,0c9.30243,0 15.00716,-5.41197 15.00716,-15.45398c0,-9.4758 -5.61227,-15.17665 -15.00716,-15.17665l-13.16594,0l0,30.63063"/>
		<path fill="#007081" fill-rule="evenodd" d="m30.26471,47.31532l34.13976,0l0,-30.63063l-11.74843,0l-5.36575,16.75209l-5.27716,-16.75209l-11.74841,0l0,30.63063"/>
		<path fill="#007081" fill-rule="evenodd" d="m65.34433,47.31532l31.01199,0l-11.44411,-30.63063l-8.10835,0l-11.45953,30.63063"/>
		<path fill="#007081" fill-rule="evenodd" d="m97.09973,47.31532l30.90027,0l-10.82011,-16.09341l9.89949,-14.53722l-29.07832,0l9.99579,14.53722l-10.89713,16.09341"/>
	</g>
</svg>