<?xml version="1.0" encoding="UTF-8" standalone="no"?>

<svg xmlns:svg="http://www.w3.org/2000/svg" xmlns="http://www.w3.org/2000/svg" version="1.1" width="128" height="64" xmlns:xlink="http://www.w3.org/1999/xlink">
	<g>
		<path fill="#6D368F" d="m88.42171,37.80868c-0.16549,-0.72214 -0.92072,-2.65987 -4.19139,-3.28271c-0.49648,-0.09628 -0.24974,-0.04513 -0.92072,-0.21664c-0.67401,-0.17752 -0.88763,-0.72815 -0.88763,-1.56161l0,-0.4724l0,-18.03232c0.00301,-3.78218 -3.30678,-6.26452 -6.06593,-6.26452l-11.39168,0c-2.92465,0.13239 -5.06398,1.08019 -6.88436,2.92465l-16.67229,19.10649c-1.36604,1.57064 -1.88658,3.96572 -1.88658,6.13213l0.00301,8.34367c-0.01505,2.21153 2.22057,4.34785 7.46507,4.34785l13.19702,0l3.15031,-0.00301c0.83046,0 1.38108,0.22867 1.55861,0.90267c0.17753,0.67098 0.12337,0.42124 0.21664,0.92372c0.77328,4.04096 2.04004,5.37089 4.08608,5.37089l8.9304,0c2.05207,0 3.31882,-1.32993 4.08608,-5.37389c0.08726,-0.43027 0.33098,-1.27276 0.33098,-1.27276c0.13239,-0.32797 0.37009,-0.55364 0.75523,-0.65594c0.67099,-0.17452 0.42125,-0.11735 0.92373,-0.21664c3.39706,-0.64992 4.07706,-2.72005 4.20644,-3.36696c0.00903,-0.06018 0.02106,-0.14442 0.0301,-0.25275c0,0 0.00902,-6.47815 0.00902,-6.49018c0.00301,-0.28886 -0.02407,-0.47842 -0.04814,-0.58974m-14.99032,-9.16811c0,1.68498 -1.03807,2.32286 -2.09419,2.32286l-9.71573,-0.00902c-1.0832,0 -1.79932,0.31293 -2.1303,0.68302l-1.5887,1.81436c-0.44231,0.51753 -0.17151,1.0471 0.45133,1.0471c0.05116,0 12.98339,-0.00301 12.98339,-0.00301c1.06213,0 2.09419,0.62585 2.09419,2.31384l0,0.73116c0,1.68498 -1.03506,2.31985 -2.09419,2.31985c0,0 -20.36121,0.00301 -20.67714,0.00301c-0.94178,0 -1.80534,-0.50248 -1.80534,-1.6579c0,-0.71612 -0.00301,-0.86055 -0.00301,-1.66693c0,-1.22462 0.56266,-2.0972 1.51648,-3.11722l12.95932,-14.83686c0,0 1.43524,-1.78127 3.64377,-1.87454c0.31293,0 4.36591,-0.01204 4.36591,-0.01204c1.06213,0 2.09419,0.62585 2.09419,2.31685l0,0.7432c0,1.68197 -1.03506,2.31986 -2.09419,2.31986l-2.44322,0c-1.04108,0 -1.73313,0.3039 -2.0581,0.65293l-1.62178,1.86552c-0.42727,0.49948 -0.1685,1.00497 0.43328,1.00497l5.68982,0c1.05913,0 2.09419,0.62585 2.09419,2.31685l0,0.72214z" />
		<path fill="#6D368F" d="m64.96736,0.99784l-0.3039,0.00903c-4.67281,0.21664 -8.44597,1.85348 -11.55416,5.00079l-0.14443,0.15044l-16.80769,19.25995c-3.1473,3.59864 -3.61068,8.26243 -3.61068,10.72371l0.00602,8.37074c0,2.72005 1.08019,5.31071 3.05403,7.29658c1.81436,1.82339 5.25955,4.00183 11.38566,4.00183c0,0 11.28938,-0.00301 12.33949,-0.00301c0.5085,1.31489 1.12833,2.44322 1.89861,3.40908c1.95277,2.44322 4.78716,3.78519 7.97057,3.78519l8.9304,0c3.18642,0 6.01779,-1.34197 7.97057,-3.78519c1.01399,-1.26675 1.78127,-2.83438 2.35596,-4.75406c3.57156,-1.51347 6.11409,-4.44715 6.81215,-7.94649c0.00903,-0.04213 0.17752,-0.8756 0.17752,-1.61578l0.00602,-6.50222c0,-0.66798 -0.06319,-1.30286 -0.17451,-1.8926l-0.02708,-0.14142l-0.0301,-0.14142c-0.27681,-1.16745 -1.49242,-5.01884 -5.82523,-7.24542l0,-14.75262c0,-3.49935 -1.37506,-6.80612 -3.86944,-9.3005c-2.48534,-2.49438 -5.82523,-3.92661 -9.16509,-3.92661l-11.39469,0m11.39469,1.68197c2.89455,0 5.80415,1.2517 7.9796,3.43315s3.37898,5.06096 3.37898,8.11198l0,15.80874l0.48745,0.22567c4.04093,1.8595 5.13316,5.32876 5.37388,6.34577c0,0 0.02106,0.08424 0.02407,0.10831c0.00602,0.02708 0.02106,0.11133 0.02106,0.11133c0.09328,0.47841 0.14142,1.01099 0.14142,1.57065l-0.00601,6.50222c0,0.5747 -0.13842,1.27879 -0.13842,1.28481c-0.22868,1.14639 -1.354,5.03087 -6.1562,6.88435l-0.39718,0.15044l-0.10831,0.40921c-0.52356,1.88056 -1.23666,3.36395 -2.17844,4.54043c-1.6218,2.03401 -3.98979,3.15633 -6.65568,3.15633l-8.9304,0c-2.66589,0 -5.03088,-1.12231 -6.65869,-3.15633c-0.75825,-0.94781 -1.36002,-2.08517 -1.83843,-3.47528l-0.19558,-0.56567l-13.51295,0.00903c-5.5484,0 -8.60545,-1.91066 -10.19414,-3.50536c-1.6549,-1.67295 -2.5696,-3.84236 -2.5696,-6.11408l-0.00301,-8.37376c0,-2.22358 0.41222,-6.42701 3.19545,-9.61343c0,0 16.41353,-18.79958 16.7746,-19.22083c0.03009,-0.03009 0.10832,-0.11434 0.10832,-0.11434c2.79827,-2.83137 6.20435,-4.30874 10.4198,-4.50131c0.00904,0 0.22568,-0.00602 0.25577,-0.00903l11.38265,0l0,-0.00301z" />
	</g>
</svg>