<svg xmlns="http://www.w3.org/2000/svg" width="128" height="64"><path d="M88.422 37.81c-.166-.723-.92-2.66-4.192-3.284-.496-.096-.25-.045-.92-.217-.674-.18-.888-.73-.888-1.57v-18.5c.003-3.782-3.307-6.265-6.066-6.265H64.964C62.04 8.11 59.9 9.055 58.08 10.9L41.408 30.01c-1.366 1.57-1.887 3.965-1.887 6.132l.01 8.343c-.014 2.212 2.22 4.348 7.466 4.348H60.19l3.15-.003c.83 0 1.38.23 1.56.903.176.67.122.42.215.924.773 4.04 2.04 5.37 4.086 5.37h8.93c2.05 0 3.32-1.33 4.09-5.373.088-.43.33-1.273.33-1.273.134-.32.37-.55.757-.65.673-.173.423-.115.925-.215 3.397-.65 4.077-2.72 4.207-3.367.01-.06.02-.143.03-.25l.01-6.492a2.722 2.722 0 0 0-.05-.59M73.44 28.65c0 1.685-1.04 2.322-2.096 2.322l-9.716-.01c-1.082 0-1.798.315-2.13.685L57.91 33.46c-.443.517-.17 1.047.45 1.047l12.984-.004c1.063 0 2.095.625 2.095 2.313v.73c0 1.686-1.038 2.32-2.097 2.32l-20.676.004c-.944 0-1.807-.503-1.807-1.658l-.002-1.668c0-1.224.564-2.096 1.518-3.116l12.96-14.837s1.435-1.78 3.643-1.872l4.37-.01c1.06 0 2.09.625 2.09 2.316v.744c0 1.68-1.032 2.32-2.09 2.32H68.9c-1.04 0-1.733.304-2.058.653L65.22 24.6c-.427.5-.168 1.004.433 1.004h5.69c1.06 0 2.094.625 2.094 2.316v.723zM64.967.997l-.305.01c-4.672.216-8.446 1.852-11.554 5l-.15.15-16.81 19.26c-3.146 3.6-3.61 8.262-3.61 10.724l.007 8.37c0 2.72 1.08 5.31 3.054 7.298 1.814 1.82 5.26 4 11.385 4l12.34-.008c.51 1.315 1.13 2.443 1.9 3.41C63.18 61.66 66.015 63 69.2 63h8.93c3.188 0 6.02-1.342 7.972-3.785 1.014-1.267 1.78-2.834 2.356-4.754 3.57-1.51 6.114-4.44 6.812-7.94.01-.042.177-.875.177-1.615l.006-6.502c0-.667-.063-1.3-.174-1.89l-.03-.143-.03-.14c-.28-1.17-1.498-5.02-5.83-7.247V14.226c0-3.5-1.375-6.806-3.87-9.3C83.04 2.43 79.7.998 76.36.998H64.967M76.362 2.68c2.895 0 5.804 1.252 7.98 3.433s3.38 5.06 3.38 8.112v15.81l.486.224c4.04 1.86 5.133 5.32 5.374 6.34 0 0 .02.082.024.11l.02.11c.094.48.143 1.01.143 1.57l-.01 6.502c0 .574-.14 1.278-.14 1.284-.23 1.147-1.357 5.03-6.16 6.885l-.396.15-.11.41c-.522 1.88-1.235 3.364-2.177 4.54-1.62 2.035-3.99 3.157-6.656 3.157h-8.93c-2.665 0-5.03-1.12-6.66-3.156-.756-.947-1.36-2.084-1.836-3.474l-.194-.564-13.512.01c-5.546 0-8.603-1.912-10.192-3.506-1.657-1.672-2.57-3.842-2.57-6.113l-.005-8.374c0-2.223.415-6.426 3.198-9.613 0 0 16.413-18.8 16.775-19.22l.108-.113c2.8-2.83 6.205-4.31 10.42-4.5.01 0 .226-.007.256-.01h11.38V2.68z" fill="#6D368F"/></svg>