<svg xmlns="http://www.w3.org/2000/svg" width="128" height="64"><path fill="#fff" d="M56.006 1.595H67.34c3.18 0 6.37 1.368 8.746 3.747 1.618 1.618 2.762 3.63 3.313 5.82l.13.544h16.89c.31-.008 2.96-.008 5.02 1.98 1.602 1.544 2.42 3.86 2.42 6.874v17.824c-.06 2.202-1.47 6.396-6.42 6.396H85.79v1.2l-.16 1.503c-.55 2.724-2.576 4.722-6.39 6.28l-.315.13-.1.328c-.553 1.83-1.28 3.29-2.21 4.46-1.844 2.3-4.514 3.57-7.524 3.57h-8.88c-3.003 0-5.674-1.26-7.512-3.57-.7-.87-1.276-1.89-1.766-3.14l-.18-.45-12.65.01c-5.92 0-9.23-2.08-10.96-3.83-1.86-1.87-2.89-4.32-2.89-6.88l-.004-8.332c0-2.37.45-6.87 3.46-10.32L44.452 6.55c3.11-3.16 6.76-4.737 11.275-4.944l.275-.008"/><path fill="#6d368f" d="M101.946 13.165c-2.286-2.197-5.21-2.186-5.52-2.178h-16.33c-.583-2.315-1.78-4.428-3.502-6.154C74.084 2.32 70.71.876 67.34.876H56.002l-.305.008c-4.713.218-8.512 1.863-11.632 5.034l-.15.154-16.74 19.177c-3.165 3.62-3.636 8.31-3.636 10.79v8.33c0 2.76 1.1 5.38 3.09 7.39 1.83 1.84 5.3 4.04 11.46 4.04l12.155-.01c.505 1.28 1.116 2.38 1.872 3.323 1.98 2.474 4.85 3.84 8.074 3.84h8.89c3.23 0 6.1-1.366 8.08-3.84 1.005-1.26 1.77-2.81 2.345-4.7 4.035-1.65 6.22-3.817 6.82-6.803.006-.036.173-.887.173-1.644v-.48h10.93c5.504 0 7.076-4.658 7.14-7.118V20.55c0-3.224-.89-5.71-2.643-7.397m.6 25.173c-.02.552-.32 5.117-5.096 5.117H84.47v1.1l-.003 1.427c0 .552-.13 1.24-.133 1.25-.476 2.374-2.33 4.07-6.014 5.49l-.476.18-.137.497c-.515 1.845-1.21 3.302-2.13 4.45-1.583 1.983-3.887 3.073-6.485 3.073h-8.89c-2.594 0-4.896-1.09-6.48-3.072-.74-.924-1.33-2.04-1.802-3.403l-.24-.686-13.583.002c-5.46 0-8.46-1.87-10.016-3.44-1.61-1.625-2.5-3.74-2.5-5.954v-8.33c0-2.19.41-6.328 3.14-9.453l16.7-19.13.107-.11c2.74-2.79 6.09-4.238 10.243-4.428l.26-.008h11.32c2.83 0 5.68 1.222 7.81 3.354 1.633 1.64 2.713 3.685 3.123 5.92l.155.837h18.04c.025-.003 2.348-.05 4.074 1.623 1.326 1.29 1.996 3.275 1.996 5.905v17.78zm-27.36-3.9c-.496-.097-.25-.04-.916-.216-.67-.176-.887-.725-.887-1.55V14.24c.007-3.765-3.29-6.24-6.03-6.24h-11.33c-2.92.136-5.05 1.08-6.858 2.917l-16.6 19.02c-1.364 1.57-1.878 3.95-1.878 6.11l.006 8.31c-.017 2.2 2.207 4.33 7.43 4.33l13.136-.01h3.13c.82 0 1.37.236 1.55.9.17.67.12.42.22.92.76 4.026 2.03 5.345 4.06 5.345h8.89c2.04 0 3.3-1.32 4.07-5.346.08-.43.33-1.266.33-1.266.13-.33.363-.552.75-.65.67-.18.42-.122.92-.22 3.38-.643 4.053-2.71 4.182-3.353.01-.06.02-.14.03-.25l.01-6.463c0-.283-.027-.477-.046-.582-.17-.716-.92-2.65-4.176-3.27M64.42 19.73c0 1.676-1.03 2.314-2.082 2.314l-2.438.003c-1.03 0-1.723.3-2.043.65l-1.616 1.856c-.42.495-.16 1 .43 1h5.67c1.05 0 2.09.623 2.09 2.3v.722c0 1.674-1.03 2.315-2.083 2.315l-9.672-.01c-1.074 0-1.785.31-2.12.677l-1.576 1.806c-.445.514-.176 1.042.446 1.042l12.93-.003c1.05 0 2.083.625 2.083 2.3v.73c0 1.673-1.03 2.314-2.086 2.314H41.76c-.94 0-1.8-.5-1.8-1.653 0-.708-.003-.853-.003-1.658 0-1.22.562-2.084 1.51-3.102L54.37 18.568s1.424-1.774 3.626-1.868l4.347-.01c1.054 0 2.085.623 2.085 2.3v.738zm23.59 6.156h-1.18c-.355-.022-1.02-.178-1.02-1.045 0-.03 0-.07-.003-.1v-.98c0-.92-.73-1.67-1.623-1.67h-1.89c-.89 0-1.62.76-1.62 1.68v1.554c-.283.66-1.147.57-1.147.57l.005.006H78.44c-.89 0-1.62.753-1.62 1.674v1.79c0 .923.73 1.677 1.62 1.677h.963-.003.22c.36.02 1.038.177 1.057 1.04V33.1c0 .924.73 1.678 1.62 1.678h1.89c.894 0 1.623-.753 1.623-1.677v-.84c.003-.04.006-.09.006-.148 0-.893.69-1.054 1.052-1.076h.22-.002.926c.89 0 1.623-.758 1.623-1.68v-1.79c0-.92-.732-1.678-1.623-1.678m8.006-9.27h-3.693c-1.26 0-2.53.9-2.53 2.907v.533c0 2.595 1.598 2.875 2.285 2.875h.54c.017.053.04.15.04.343v13.87c0 1.34.84 2.692 2.723 2.692h.66c1.865 0 2.7-1.35 2.7-2.693V19.3c0-1.34-.843-2.69-2.725-2.69"/></svg>