<?xml version="1.0" encoding="UTF-8" standalone="no"?>

<svg xmlns:svg="http://www.w3.org/2000/svg" xmlns="http://www.w3.org/2000/svg" version="1.1" width="128" height="64" xmlns:xlink="http://www.w3.org/1999/xlink">
	<g transform="translate(-413.9915,-512.04568)">
		<g transform="matrix(2.6918177,0,0,-2.6918177,-468.99131,1700.7965)">
			<g transform="translate(348.8072,440.994)">
				<path fill="#ffffff" fill-rule="nonzero" d="M 0,0 4.21,0 C 5.392,0 6.576,-0.508 7.459,-1.392 8.06,-1.993 8.485,-2.74 8.69,-3.554 l 0.051,-0.202 6.273,0 c 0.116,0.003 1.099,0.003 1.866,-0.735 0.597,-0.574 0.9,-1.434 0.9,-2.554 l 0,-6.621 c -0.021,-0.818 -0.546,-2.376 -2.385,-2.376 l -4.328,0 0,-0.446 -0.059,-0.558 C 10.804,-18.058 10.051,-18.8 8.635,-19.379 L 8.517,-19.427 8.48,-19.549 C 8.273,-20.228 8.004,-20.77 7.657,-21.205 6.973,-22.059 5.981,-22.531 4.863,-22.531 l -3.301,0 c -1.117,0 -2.109,0.471 -2.792,1.326 -0.26,0.324 -0.474,0.705 -0.656,1.166 l -0.067,0.169 -4.697,-0.002 c -2.198,0 -3.427,0.773 -4.07,1.423 -0.691,0.696 -1.072,1.605 -1.072,2.558 l -0.002,3.095 c 0,0.881 0.167,2.552 1.286,3.834 l 6.217,7.123 c 1.155,1.173 2.511,1.759 4.188,1.836 C -0.1,-0.003 0,0 0,0" />
			</g>
			<g transform="translate(365.8725,436.696)">
				<path fill="#6d368f" fill-rule="nonzero" d="m 0,0 c -0.849,0.816 -1.935,0.812 -2.051,0.809 l -6.065,0 c -0.217,0.86 -0.661,1.645 -1.301,2.286 -0.933,0.934 -2.186,1.47 -3.438,1.47 l -4.212,0 c -0.009,0 -0.113,-0.003 -0.113,-0.003 -1.751,-0.081 -3.162,-0.692 -4.321,-1.87 l -0.056,-0.057 -6.218,-7.124 c -1.176,-1.347 -1.351,-3.09 -1.351,-4.009 l 0.001,-3.095 c 0,-1.024 0.409,-2 1.15,-2.747 0.679,-0.684 1.97,-1.501 4.259,-1.501 0,0 4.052,0.002 4.516,0.002 0.188,-0.475 0.415,-0.884 0.696,-1.235 0.735,-0.919 1.801,-1.426 3,-1.426 l 3.302,0 c 1.2,0 2.266,0.507 3.002,1.427 0.373,0.468 0.657,1.044 0.871,1.745 1.499,0.613 2.311,1.418 2.533,2.527 0.003,0.014 0.065,0.33 0.065,0.611 0,0 0,0.099 0,0.179 l 4.06,0 c 2.045,0 2.629,1.729 2.652,2.643 l 0.001,6.621 C 0.982,-1.55 0.651,-0.627 0,0 m 0.223,-9.351 c -0.007,-0.205 -0.119,-1.901 -1.894,-1.901 l -4.818,0 0,-0.409 -0.001,-0.529 c 0,-0.206 -0.049,-0.461 -0.05,-0.464 -0.177,-0.883 -0.866,-1.513 -2.234,-2.04 l -0.177,-0.068 -0.051,-0.184 c -0.191,-0.686 -0.45,-1.227 -0.791,-1.654 -0.588,-0.736 -1.444,-1.141 -2.409,-1.141 l -3.302,0 c -0.964,0 -1.819,0.405 -2.408,1.141 -0.275,0.344 -0.494,0.758 -0.669,1.265 l -0.089,0.255 -5.046,-0.002 c -2.028,0 -3.142,0.694 -3.721,1.277 -0.599,0.604 -0.929,1.389 -0.929,2.212 l -0.002,3.095 c 0,0.813 0.152,2.35 1.165,3.511 0,0 6.045,6.925 6.203,7.106 0.01,0.011 0.039,0.041 0.039,0.041 1.02,1.035 2.264,1.573 3.807,1.644 0.003,0 0.096,0.002 0.096,0.002 l 4.203,0 c 1.052,0 2.11,-0.455 2.901,-1.247 0.607,-0.608 1.009,-1.368 1.161,-2.198 l 0.057,-0.311 6.697,0 0.007,0 c 0.009,10e-4 0.872,0.019 1.513,-0.603 0.493,-0.479 0.742,-1.217 0.742,-2.194 l 0,-6.604 z m -10.168,1.45 c -0.184,0.036 -0.092,0.015 -0.34,0.08 -0.248,0.065 -0.329,0.269 -0.329,0.575 l 0,0.176 0,6.67 c 0.002,1.398 -1.222,2.317 -2.241,2.317 l -4.212,0 c -1.084,-0.05 -1.875,-0.401 -2.547,-1.083 L -25.78,-6.23 c -0.507,-0.581 -0.698,-1.468 -0.698,-2.268 l 0.002,-3.086 c -0.006,-0.817 0.82,-1.609 2.76,-1.609 l 4.88,0.003 1.165,0 c 0.307,0 0.511,-0.087 0.575,-0.334 0.066,-0.249 0.046,-0.157 0.081,-0.342 0.285,-1.495 0.754,-1.985 1.511,-1.985 l 3.302,0 c 0.758,0 1.227,0.49 1.512,1.986 0.031,0.16 0.123,0.47 0.123,0.47 0.048,0.122 0.136,0.205 0.279,0.242 0.248,0.066 0.155,0.045 0.341,0.081 1.257,0.239 1.507,1.007 1.555,1.246 0.004,0.022 0.008,0.053 0.011,0.093 0,0 0.004,2.398 0.004,2.401 0,0.105 -0.01,0.177 -0.017,0.216 -0.063,0.267 -0.342,0.984 -1.551,1.215 m -3.993,5.463 c 0,-0.623 -0.383,-0.86 -0.774,-0.86 l -0.906,-10e-4 c -0.383,0 -0.64,-0.111 -0.759,-0.241 l -0.6,-0.69 c -0.157,-0.184 -0.062,-0.371 0.159,-0.371 l 2.104,0 c 0.391,0 0.775,-0.232 0.775,-0.855 l 0,-0.268 c 0,-0.622 -0.384,-0.86 -0.775,-0.86 l -3.593,0.003 c -0.4,0 -0.664,-0.115 -0.788,-0.251 l -0.586,-0.671 c -0.165,-0.191 -0.065,-0.387 0.166,-0.387 0.019,0 4.803,10e-4 4.803,10e-4 0.391,0 0.774,-0.232 0.774,-0.854 l 0,-0.271 c 0,-0.622 -0.383,-0.86 -0.774,-0.86 0,0 -7.53,0 -7.646,0 -0.349,0 -0.669,0.186 -0.669,0.614 0,0.263 -10e-4,0.317 -10e-4,0.616 0,0.453 0.209,0.774 0.561,1.152 l 4.793,5.485 c 0,0 0.529,0.659 1.347,0.694 0.116,0 1.615,0.004 1.615,0.004 0.391,0 0.774,-0.232 0.774,-0.855 l 0,-0.274 z m 8.762,-2.287 -0.358,0 0,0 -0.003,0 -0.077,0 c -0.132,0.008 -0.379,0.066 -0.379,0.388 0,0.014 0,0.027 -10e-4,0.038 l 0,0.365 c 0,0.342 -0.271,0.623 -0.603,0.623 l -0.702,0 c -0.331,0 -0.602,-0.281 -0.602,-0.623 l 0,-0.577 c -0.105,-0.246 -0.426,-0.212 -0.426,-0.212 0,0 10e-4,-0.001 0.002,-0.002 l -0.406,0 c -0.331,0 -0.602,-0.281 -0.602,-0.623 l 0,-0.665 c 0,-0.343 0.271,-0.623 0.602,-0.623 l 0.358,0 -0.001,0 c 0,0 0.002,0 0.006,0 l 0.075,0 c 0.133,-0.008 0.385,-0.066 0.392,-0.387 l 0,-0.378 c 0,-0.343 0.271,-0.623 0.602,-0.623 l 0.702,0 c 0.332,0 0.603,0.28 0.603,0.623 l 0,0.311 c 10e-4,0.015 0.002,0.033 0.002,0.054 0,0.332 0.256,0.392 0.391,0.4 l 0.078,0 c 0.002,0 0.004,0 0.004,0 l -10e-4,0 0.344,0 c 0.331,0 0.603,0.28 0.603,0.623 l 0,0.665 c 0,0.342 -0.272,0.623 -0.603,0.623 m 2.974,3.443 -1.372,0 c -0.468,0 -0.94,-0.334 -0.94,-1.079 l 0,-0.198 c 0,-0.964 0.594,-1.068 0.849,-1.068 l 0.201,0 c 0.006,-0.02 0.014,-0.057 0.014,-0.128 l 0,-5.154 c 0,-0.498 0.313,-1 1.012,-1 l 0.245,0 c 0.693,0 1.003,0.502 1.003,1 l 0,6.627 c 0,0.498 -0.313,1 -1.012,1" />
			</g>
		</g>
	</g>
</svg>
