<svg xmlns="http://www.w3.org/2000/svg" xmlns:xlink="http://www.w3.org/1999/xlink" width="128" height="64"><defs><linearGradient id="a"><stop offset="0" stop-color="#026a39"/><stop offset="1" stop-color="#37b24a"/></linearGradient><linearGradient xlink:href="#a" id="b" x1="145" y1="943.851" x2="572.001" y2="943.851" gradientUnits="userSpaceOnUse" gradientTransform="matrix(.29953 0 0 .29953 101.61 606.001)"/></defs><path d="M204.956 863.406c0-2.996 4.194-2.996 4.194 0v20.97c0-4.803 5.692-12.583 16.476-12.583 9.59 0 13.18 5.692 13.18 5.692v-2.396c0-2.996 4.195-2.996 4.195 0v2.396s4.793-5.392 12.881-5.392c8.089 0 17.076 5.388 17.076 16.776v14.379c0 2.996-4.194 2.996-4.194 0v-14.38c0-16.775-25.763-16.775-25.763 0v14.38c0 2.996-4.194 2.996-4.194 0v-2.696s-3.595 5.991-13.181 5.991c-9.586 0-16.476-6.59-16.476-12.582v9.287c0 2.996-4.194 2.996-4.194 0v-2.696s-3.895 5.392-12.882 5.392-13.63-5.392-14.828-7.789c0 0-3.445 8.388-15.128 8.388-9.292 0-17.076-5.991-17.076-18.273 0-7.795 5.393-16.477 17.076-16.477s15.128 7.79 15.128 7.79c2.546-3.296 5.537-7.49 14.828-7.49 9.292 0 12.882 5.093 12.882 5.093zm-13.477 12.581h1.191c6.806 0 12.286 5.48 12.286 12.286v1.491c0 6.806-5.48 12.286-12.286 12.286h-1.191a12.259 12.259 0 0 1-12.286-12.286v-1.491c0-6.806 5.48-12.286 12.286-12.286zm-41.643 10.485c0-5.953 5.57-10.784 12.432-10.784s12.432 4.831 12.432 10.784m38.344 0c0-5.953 5.57-10.784 12.432-10.784 6.863 0 12.432 4.831 12.432 10.784m-88.372 3.595c0 5.392 3.894 12.282 13.18 12.282 4.794 0 7.49-2.396 8.688-3.595 1.737-1.736 1.837-4.193 3.595-4.193.6 0 .899.3.899.3s-.899-1.499-.899-4.794h-25.463zm63.209 0c0 5.392 3.894 12.282 13.18 12.282 4.794 0 7.49-2.396 8.688-3.595 1.737-1.736 1.498-3.894 3.894-3.894l.3.03v-4.823h-26.062z" fill="url(#b)" fill-rule="evenodd" transform="translate(-145 -851.851)"/></svg>