<svg xmlns="http://www.w3.org/2000/svg" xmlns:xlink="http://www.w3.org/1999/xlink" width="128" height="64"><defs><radialGradient xlink:href="#a" id="b" cx="699.837" cy="19.381" fx="699.837" fy="19.381" r="52.4" gradientUnits="userSpaceOnUse" gradientTransform="matrix(.26379 .06167 -.04479 .19157 -184.33 -129.362)"/><radialGradient id="a" gradientUnits="userSpaceOnUse" cy="13.896" cx="703.81" gradientTransform="matrix(.9603 .279 -.2068 .7118 30.821 -370.738)" r="120.09"><stop stop-color="#E0C479" offset=".223"/><stop stop-color="#907231" offset="1"/></radialGradient></defs><path d="M20.37 16.402C7.82 16.402.264 26.252.264 38.397c0 12.145 6.918 21.995 20.106 21.995 10.081 0 16.432-5.482 18.866-13.49l-10.79-1.714c-1.622 2.943-4.38 4.913-8.111 4.913-4.867 0-7.869-3.001-8.97-7.474h28.763a30.48 30.48 0 00.232-3.743c0-12.157-7.452-22.482-19.99-22.482zm-8.82 17.244c1.275-4.172 4.346-6.942 8.785-6.942 4.67 0 7.857 2.677 9.016 6.942zM59.203 17.26h-17.87v42.297h10.8V47.98h7.232c8.39 0 15.03-6.941 15.03-15.54-.012-8.378-6.548-15.18-15.193-15.18zm4.334 15.482c0 2.653-1.935 4.6-4.334 4.6h-7.069v-9.908h7.07c2.398 0 4.333 1.935 4.333 4.6zm64.2 26.815H114.85l-8.24-12.805-8.262 12.805H75.415V17.26h10.8v40.802l14.184-20.951L88.197 17.26h12.469l5.945 11.298 6.327-11.298h12.713l-12.817 19.85z"/><path d="M4.439-78.162a6.203 6.203 0 01-6.203 6.203 6.203 6.203 0 01-6.203-6.203 6.203 6.203 0 016.203-6.203 6.203 6.203 0 016.203 6.203z" fill="url(#b)" fill-rule="evenodd" transform="translate(65.727 86.194) scale(.97891)"/></svg>