<svg xmlns="http://www.w3.org/2000/svg" width="128" height="64"><path d="M41.857 16.28c-4.744-.007-7.885 2.494-8.327 6.232a368.276 368.276 0 01-.318 2.591h61.715s.116-.91.206-1.642c.464-3.766-1.136-7.18-6.957-7.18 0 0-43.819.001-46.32-.001zm-37.664 0L3.11 25.104h27.987l1.08-8.822H4.191zm93.949 0l-1.081 8.823h30.34s.038-.319.172-1.357c.738-5.791-2.998-7.465-6.605-7.465zm-1.5 12.182L94.28 47.717l10.467-.004 2.366-19.247-10.47-.004zm19.887 0l-2.368 19.255 10.468-.004 2.366-19.247-10.466-.004zM2.7 28.465L.333 47.718h27.986l1.031-8.352-17.524-.002.443-3.602h17.517l.897-7.296H2.703zm30.1 0c-.768 5.025 1.747 7.297 5.312 7.297l14.16-.006-.442 3.607-20.367.002-1.025 8.352s22.173.008 23.071 0c.742-.053 5.93-.195 7.695-4.437.573-1.378 1.079-6.316 1.22-7.353.816-6.02-3.352-7.456-6.635-7.456L32.8 28.465zm32.58 0l-2.364 19.253h10.462l1.473-11.956h13.142c3.726 0 5.73-2.004 6.102-4.694a99.193 99.193 0 00.322-2.602H65.38z" fill="#e52534"/></svg>