<svg xmlns="http://www.w3.org/2000/svg" width="128" height="64"><defs><linearGradient x2="1" gradientUnits="userSpaceOnUse" gradientTransform="matrix(-3.5 -7.2 -7.2 3.5 51 552.7)" id="a"><stop stop-color="#2e4988" offset="0"/><stop stop-color="#0a0d0f" offset="1"/></linearGradient></defs><path fill="url(#a)" d="M45.614 550.516h7.95l-.86-3.065h-7.96l.87 3.07" transform="matrix(5.5 0 0 -5.5 -234.1 3076)"/><path fill="#fff" d="M62.83 23.904h51.37l-4.828 16.992H58.057l4.773-16.992m-41.824 3.02h6.875l-.6 2.135h-4.46l-.58 2.07h4.12l-.603 2.12h-4.12l-.703 2.46h4.464l-.594 2.13h-6.88l3.09-10.93m6.623 8.316c.02-.177.054-.377.11-.56l2.195-7.756h2.407l-2.105 7.43c-.056.186-.09.347-.106.51-.066.657.24 1.02 1.386 1.02 1.32 0 1.85-.524 2.11-1.43l2.14-7.53h2.41l-2.197 7.76c-.528 1.844-1.603 3.335-4.935 3.335-2.638 0-3.564-1.33-3.41-2.77M45.13 30.3c.05-.18.09-.375.1-.46.06-.56-.26-.785-1.1-.785h-2l-.927 3.298h2.06c1.07 0 1.39-.393 1.624-1.23l.238-.82zm-2.873 4.138H40.6l-.955 3.41H37.23l3.088-10.928H44.5c2.346 0 3.4.882 3.228 2.49-.022.216-.078.427-.14.67l-.37 1.315c-.377 1.363-.96 2.233-2.373 2.704l1.663 3.74h-2.705l-1.553-3.41m13.49-4.46c.07-.67-.328-1.08-1.492-1.08-1.248 0-1.963.54-2.218 1.41l-1.186 4.17c-.028.13-.06.26-.072.37-.072.653.316 1.03 1.496 1.03 1.248 0 1.952-.476 2.218-1.408l1.186-4.17c.028-.114.056-.225.067-.325zM48.3 35.1c.016-.16.054-.344.104-.51l1.27-4.508c.576-2.037 1.962-3.335 5.05-3.335 2.59 0 3.648 1.475 3.488 2.972-.017.14-.056.323-.106.484l-1.264 4.463C56.26 36.753 54.892 38 51.66 38c-2.58 0-3.53-1.425-3.36-2.905"/><path fill="#aa0c31" d="M61.527 37.292l.72-1.852c1.02.31 1.864.538 2.917.538 1.275 0 1.597-.244 1.863-1.197.077-.22.116-.42.127-.57.056-.49-.26-.62-1.552-.97-1.77-.46-2.373-1.09-2.234-2.38.033-.34.127-.73.255-1.18.737-2.42 1.447-2.92 4.413-2.92.837 0 2.195.19 3.138.43l-.644 2.02c-.942-.22-2.173-.37-2.91-.37-1.18 0-1.43.168-1.67 1.038-.06.244-.115.444-.132.588-.055.528.266.61 1.508.94 1.98.504 2.473 1.13 2.35 2.245-.033.345-.127.72-.254 1.165-.632 2.25-1.525 3.214-4.624 3.214-.904 0-2.462-.31-3.27-.72m16.702-6.95c.056-.2.09-.36.1-.477.062-.553-.238-.82-.975-.82H75.32l-.953 3.383h1.985c1.114 0 1.402-.394 1.635-1.215l.244-.87zm-4.462 4.17l-.953 3.325h-2.412l3.093-10.92h4.17c2.345 0 3.38.897 3.21 2.455-.023.24-.11.58-.19.84l-.343 1.23c-.576 2.04-1.524 3.07-4.413 3.07h-2.162m14.61-4.54c.07-.67-.328-1.08-1.49-1.08-1.25 0-1.965.535-2.22 1.405l-1.186 4.17c-.034.13-.06.26-.072.378-.072.655.316 1.03 1.496 1.03 1.248 0 1.952-.474 2.218-1.406l1.186-4.17c.028-.115.056-.226.067-.326zm-7.44 5.132c.016-.16.05-.345.1-.51l1.274-4.51c.576-2.033 1.962-3.33 5.05-3.33 2.59 0 3.648 1.474 3.488 2.97-.017.145-.056.33-.106.49l-1.264 4.46c-.587 2.085-1.95 3.333-5.183 3.333-2.573 0-3.52-1.424-3.36-2.904m17.43-4.81c.055-.18.09-.373.1-.46.06-.56-.26-.783-1.098-.783h-2.01l-.93 3.297h2.07c1.07 0 1.39-.393 1.63-1.23l.23-.82zm-2.872 4.14h-1.657l-.954 3.41h-2.412l3.088-10.93h4.186c2.345 0 3.4.886 3.227 2.49-.022.22-.078.43-.14.67l-.37 1.318c-.372 1.364-.96 2.234-2.373 2.705l1.67 3.74h-2.712l-1.553-3.41m9.408 3.42h-2.428l2.483-8.793h-2.95l.605-2.14h8.333l-.604 2.134h-2.955l-2.484 8.795"/><path fill="#b3b5b7" d="M47.76 20.616l-2.838-2.03-4.435 2.024 2.756-3.237-2.756-1.963h4.435l2.84-3.326v3.326h4.074l-4.075 1.874v3.332m13.19-7.834l-2.84-2.035-4.43 2.03 2.75-3.237-2.75-1.965h4.436l2.84-3.332v3.332h4.075L60.95 9.45v3.332m14.647-3.62l-2.84-2.03-4.434 2.024L71.08 5.92l-2.757-1.97h4.434l2.84-3.32v3.32h4.074l-4.073 1.88v3.33m13.383 3.625l-2.84-2.035-4.435 2.03 2.77-3.237-2.76-1.963h4.437l2.84-3.33v3.33h4.075l-4.08 1.875v3.332m9.174 7.828l-2.84-2.035-4.433 2.03 2.76-3.23-2.76-1.96h4.43l2.84-3.33v3.33h4.073l-4.075 1.87v3.33M86.13 52.495l-2.838-2.035-4.435 2.02 2.76-3.237-2.76-1.963h4.435l2.84-3.33v3.332h4.074L86.13 49.16v3.333M58.108 63.948l-2.84-2.035-4.434 2.03 2.756-3.238-2.757-1.963h4.435l2.84-3.326v3.326h4.074l-4.073 1.874v3.332M35.57 52.505l-2.84-2.035-4.434 2.03 2.756-3.238-2.756-1.963h4.435l2.84-3.34v3.34h4.08l-4.07 1.86v3.34m37.2 8.404l-2.84-2.036-4.43 2.03 2.757-3.238-2.757-1.96h4.432l2.84-3.33v3.33h4.076l-4.077 1.87v3.336m-28.18 0l-2.84-2.036-4.432 2.03 2.756-3.238-2.76-1.962h4.434l2.84-3.33v3.33h4.077L44.6 57.57v3.336"/></svg>