<svg xmlns="http://www.w3.org/2000/svg" width="128" height="64"><defs><linearGradient x2="1" gradientUnits="userSpaceOnUse" gradientTransform="rotate(-115.1 300.877 104.932) scale(7.46)" id="b"><stop stop-color="#a1173b" offset="0"/><stop stop-color="#160707" offset=".775"/><stop stop-color="#160707" offset="1"/></linearGradient><linearGradient x2="1" gradientUnits="userSpaceOnUse" gradientTransform="rotate(-116.1 292.336 112.508) scale(8.305)" id="a"><stop stop-color="#2e4988" offset="0"/><stop stop-color="#0a0d0f" offset="1"/></linearGradient></defs><path fill="url(#a)" d="M314.304 422.266h8.184l-.886-3.155h-8.194l.896 3.16" transform="matrix(5.37 0 0 -5.37 -1676.492 2291.553)"/><path fill="#fff" d="M55.27 23.985h51.22l-4.818 16.942h-51.16l4.758-16.942m-41.698 3.013h6.852l-.6 2.127H15.37l-.58 2.078h4.104l-.602 2.11h-4.108l-.703 2.454h4.46l-.59 2.127h-6.86l3.082-10.896m6.6 8.292c.02-.178.06-.377.107-.56L22.47 27h2.4l-2.1 7.41a3.1 3.1 0 00-.106.505c-.07.655.236 1.015 1.38 1.015 1.31 0 1.842-.526 2.1-1.423L28.274 27h2.407l-2.19 7.733c-.52 1.837-1.59 3.325-4.92 3.325-2.63 0-3.55-1.327-3.39-2.766m17.44-4.927c.054-.183.09-.376.097-.456.06-.56-.256-.79-1.09-.79H34.63l-.93 3.29h2.06c1.066 0 1.38-.39 1.62-1.23l.235-.818zm-2.86 4.124H33.1l-.95 3.39h-2.41l3.082-10.894h4.172c2.336 0 3.39.886 3.217 2.486-.02.214-.08.43-.14.67l-.37 1.31c-.37 1.36-.95 2.224-2.36 2.702l1.66 3.73h-2.7l-1.546-3.4m13.452-4.45c.07-.67-.328-1.08-1.487-1.08-1.24 0-1.956.537-2.214 1.407l-1.18 4.157c-.034.13-.06.26-.077.38-.07.65.316 1.03 1.492 1.03 1.247 0 1.95-.48 2.214-1.41l1.18-4.154c.033-.113.06-.23.07-.328zm-7.42 5.117c.02-.16.052-.343.106-.504l1.268-4.5c.575-2.026 1.96-3.32 5.032-3.32 2.582 0 3.64 1.47 3.48 2.96-.02.15-.06.327-.108.493L49.3 34.73c-.584 2.08-1.943 3.323-5.165 3.323-2.568 0-3.513-1.422-3.357-2.9"/><path fill="#aa0c31" d="M53.97 37.335l.72-1.847c1.016.31 1.86.537 2.906.537 1.272 0 1.595-.242 1.863-1.192.07-.23.1-.425.12-.575.05-.49-.26-.618-1.55-.96-1.768-.463-2.37-1.102-2.235-2.375.04-.343.13-.735.26-1.176.734-2.422 1.442-2.916 4.4-2.916.834 0 2.19.19 3.127.43l-.64 2.01c-.94-.22-2.17-.37-2.906-.37-1.176 0-1.423.167-1.664 1.03-.06.248-.113.44-.13.59-.053.52.264.6 1.504.93 1.978.51 2.466 1.13 2.348 2.245-.038.343-.13.72-.26 1.16-.632 2.24-1.52 3.206-4.61 3.206-.897 0-2.454-.313-3.26-.72m16.66-6.923c.052-.2.084-.36.1-.473.06-.557-.24-.82-.977-.82h-2.03l-.95 3.37h1.98c1.113 0 1.4-.39 1.634-1.21l.243-.866zm-4.454 4.156l-.944 3.317H62.82l3.086-10.9h4.153c2.333 0 3.37.9 3.2 2.453-.02.23-.11.575-.19.838l-.344 1.226c-.575 2.03-1.52 3.06-4.398 3.06h-2.16m14.57-4.53c.07-.67-.328-1.08-1.487-1.08-1.244 0-1.96.538-2.216 1.408l-1.18 4.156c-.033.13-.06.26-.076.38-.07.65.317 1.03 1.493 1.03 1.246 0 1.95-.477 2.213-1.406l1.18-4.155c.033-.116.06-.23.07-.33zm-7.42 5.118c.015-.16.052-.344.106-.505l1.268-4.5c.57-2.027 1.96-3.32 5.03-3.32 2.58 0 3.64 1.47 3.48 2.96a3.77 3.77 0 01-.1.492l-1.264 4.45c-.586 2.08-1.945 3.323-5.167 3.323-2.566 0-3.51-1.423-3.355-2.9m17.377-4.79c.054-.182.09-.375.097-.455.063-.56-.26-.79-1.09-.79h-2l-.923 3.287h2.062c1.06 0 1.38-.39 1.614-1.23l.237-.816zm-2.86 4.126H86.18l-.95 3.397h-2.4l3.082-10.895h4.172c2.336 0 3.39.887 3.217 2.487-.02.21-.08.43-.14.67l-.37 1.31c-.37 1.36-.95 2.22-2.36 2.7l1.66 3.723h-2.7l-1.542-3.4m9.387 3.4H94.81l2.48-8.77h-2.95l.607-2.124h8.307l-.6 2.126H99.7l-2.475 8.767"/><path fill="#b3b5b7" d="M40.25 20.71l-2.83-2.025-4.42 2.02 2.746-3.23L33 15.515h4.42l2.83-3.316v3.31h4.066l-4.065 1.87v3.324m13.14-7.815l-2.83-2.024-4.42 2.02 2.75-3.23-2.75-1.96h4.42l2.83-3.317V7.7h4.07l-4.063 1.87v3.324M68 9.28l-2.83-2.023-4.42 2.02 2.744-3.23-2.744-1.96h4.42L67.998.77v3.32h4.064l-4.065 1.87v3.323m13.34 3.617l-2.83-2.023-4.42 2.02 2.75-3.23-2.75-1.96h4.42l2.83-3.317v3.318H85.4l-4.064 1.87V12.9m9.156 7.804l-2.83-2.024-4.42 2.02 2.75-3.23-2.75-1.96h4.42l2.83-3.317v3.318h4.065l-4.065 1.87v3.33M78.506 52.49l-2.83-2.025-4.42 2.02 2.75-3.23-2.75-1.96h4.42l2.83-3.317v3.318h4.065l-4.06 1.87v3.323M50.56 63.91l-2.83-2.023-4.418 2.02 2.75-3.23-2.75-1.96h4.42l2.83-3.317v3.318h4.064l-4.065 1.87v3.323M28.1 52.5l-2.83-2.024-4.42 2.02 2.75-3.23-2.75-1.96h4.42l2.83-3.317v3.31h4.065L28.1 49.17v3.33m37.085 8.382l-2.83-2.024-4.42 2.012 2.743-3.228-2.745-1.96h4.42l2.83-3.32v3.32h4.065l-4.065 1.87v3.322m-28.09 0l-2.83-2.024-4.42 2.017 2.743-3.228-2.743-1.96h4.42l2.83-3.32v3.32h4.064l-4.064 1.87v3.32"/><path fill="url(#b)" d="M332.026 422.267h2.83l-.896-3.156h-2.83l.896 3.16" transform="matrix(5.37 0 0 -5.37 -1676.492 2291.553)"/><path fill="#fff" d="M107.378 35.847c1.52-1.208 1.756-1.407 3.083-2.52.85-.735 1.36-1.18 2.02-1.814.35-.392.485-.703.646-1.278l.08-.296c.16-.59-.13-.8-1.095-.8-.77 0-1.912.12-2.664.29l-.007-1.866a12.885 12.885 0 013.366-.478c2.03 0 2.995.767 2.85 2.11-.02.2-.054.36-.108.542l-.102.36c-.397 1.39-.423 1.814-2.416 3.613a57.678 57.678 0 01-2.4 2.094h3.236l-.558 2.013h-6.483l.558-1.983"/></svg>