<?xml version="1.0" encoding="UTF-8" standalone="no"?>

<svg xmlns:svg="http://www.w3.org/2000/svg" xmlns="http://www.w3.org/2000/svg" version="1.1" width="128" height="64" xmlns:xlink="http://www.w3.org/1999/xlink">
	<defs>
		<linearGradient x1="0" y1="0" x2="1" y2="0" gradientUnits="userSpaceOnUse" gradientTransform="matrix(-3.1662,-6.7544,-6.7544,3.1662,333.539,421.854)" spreadMethod="pad" id="linearGradient1">
			<stop stop-opacity="1" stop-color="#a1173b" offset="0" />
			<stop stop-opacity="1" stop-color="#160707" offset="0.775017" />
			<stop stop-opacity="1" stop-color="#160707" offset="1" />
		</linearGradient>
		<linearGradient x1="0" y1="0" x2="1" y2="0" gradientUnits="userSpaceOnUse" gradientTransform="matrix(-3.6519,-7.4594,-7.4594,3.6519,319.832,424.526)" spreadMethod="pad" id="linearGradient2">
			<stop stop-opacity="1" stop-color="#2e4988" offset="0" />
			<stop stop-opacity="1" stop-color="#0a0d0f" offset="1" />
		</linearGradient>
		<linearGradient x1="0" y1="0" x2="1" y2="0" gradientUnits="userSpaceOnUse" gradientTransform="matrix(-3.1662,-6.7544,-6.7544,3.1662,333.539,421.854)" spreadMethod="pad" id="linearGradient3">
			<stop stop-opacity="1" stop-color="#a1173b" offset="0" />
			<stop stop-opacity="1" stop-color="#160707" offset="0.775017" />
			<stop stop-opacity="1" stop-color="#160707" offset="1" />
		</linearGradient>
		<linearGradient x1="0" y1="0" x2="1" y2="0" gradientUnits="userSpaceOnUse" gradientTransform="matrix(-3.6519,-7.4594,-7.4594,3.6519,319.832,424.526)" spreadMethod="pad" id="linearGradient4">
			<stop stop-opacity="1" stop-color="#2e4988" offset="0" />
			<stop stop-opacity="1" stop-color="#0a0d0f" offset="1" />
		</linearGradient>
		<clipPath clipPathUnits="userSpaceOnUse">
			<path d="m 67.936,554.715 -23.193,0 0,-11.422 23.193,0 0,11.422 z" />
		</clipPath>
	</defs>
	<g transform="translate(-263.73783,-753.18706)">
		<g transform="matrix(0.35166625,0,0,0.35166625,177.45535,488.77547)">
			<g transform="matrix(15.256081,0,0,-15.256081,-4517.64,7261.2634)">
				<path fill="url(#linearGradient4)" d="m 314.304,422.266 8.184,0 -0.886,-3.155 -8.194,0 0.896,3.155" />
			</g>
			<g transform="matrix(15.256081,0,0,-15.256081,-4517.64,7261.2634)">
				<g transform="translate(322.488,422.266)">
					<path fill="#ffffff" fill-rule="nonzero" d="m 0,0 9.538,0 -0.897,-3.155 -9.527,0 L 0,0" />
					<g transform="translate(-7.765,-0.561)">
						<path fill="#ffffff" fill-rule="nonzero" d="m 0,0 1.276,0 -0.112,-0.396 -0.829,0 -0.108,-0.387 0.764,0 -0.112,-0.393 -0.765,0 -0.131,-0.457 0.829,0 -0.11,-0.396 -1.276,0 L 0,0" />
						<g transform="translate(1.229,-1.544)">
							<path fill="#ffffff" fill-rule="nonzero" d="m 0,0 c 0.004,0.033 0.011,0.07 0.02,0.104 l 0.408,1.44 0.447,0 -0.391,-1.38 C 0.474,0.131 0.468,0.101 0.464,0.07 0.451,-0.052 0.508,-0.119 0.721,-0.119 c 0.244,0 0.343,0.098 0.391,0.265 l 0.397,1.398 0.448,0 -0.408,-1.44 C 1.452,-0.238 1.252,-0.515 0.633,-0.515 0.143,-0.515 -0.029,-0.268 0,0" />
							<g transform="translate(3.248,0.917)">
								<path fill="#ffffff" fill-rule="nonzero" d="M 0,0 C 0.01,0.034 0.017,0.07 0.018,0.085 0.029,0.189 -0.03,0.231 -0.185,0.231 l -0.372,0 -0.172,-0.612 0.384,0 c 0.198,0 0.257,0.073 0.301,0.229 L 0,0 Z m -0.533,-0.768 -0.308,0 -0.177,-0.633 -0.448,0 0.574,2.029 0.777,0 C 0.32,0.628 0.516,0.463 0.484,0.165 0.479,0.125 0.469,0.085 0.458,0.04 L 0.389,-0.204 C 0.32,-0.457 0.211,-0.618 -0.0509999,-0.707 L 0.258,-1.401 l -0.503,0 -0.288,0.633" />
								<g transform="translate(1.972,0.061)">
									<path fill="#ffffff" fill-rule="nonzero" d="m 0,0 c 0.013,0.125 -0.061,0.201 -0.277,0.201 -0.231,0 -0.364,-0.1 -0.412,-0.262 l -0.22,-0.774 c -0.006,-0.024 -0.011,-0.048 -0.014,-0.07 -0.013,-0.121 0.059,-0.192 0.278,-0.192 0.232,0 0.363,0.089 0.412,0.262 l 0.22,0.774 C -0.007,-0.04 -0.002,-0.018 0,0 Z m -1.382,-0.953 c 0.004,0.03 0.01,0.064 0.02,0.094 l 0.236,0.838 c 0.107,0.377 0.365,0.618 0.937,0.618 0.482,0 0.678,-0.274 0.648,-0.551 C 0.456,0.018 0.449,-0.015 0.44,-0.046 L 0.205,-0.874 c -0.109,-0.387 -0.362,-0.619 -0.962,-0.619 -0.478,0 -0.654,0.265 -0.625,0.54" />
									<g transform="translate(1.074,-1.359)">
										<path fill="#aa0c31" fill-rule="nonzero" d="m 0,0 0.134,0.344 c 0.189,-0.058 0.346,-0.1 0.541,-0.1 0.237,0 0.297,0.045 0.347,0.222 0.013,0.043 0.02,0.079 0.023,0.107 0.01,0.091 -0.048,0.115 -0.288,0.179 -0.329,0.086 -0.441,0.205 -0.416,0.442 0.007,0.064 0.024,0.137 0.048,0.219 0.137,0.451 0.269,0.543 0.82,0.543 0.155,0 0.408,-0.034 0.582,-0.08 L 1.672,1.502 C 1.497,1.544 1.268,1.572 1.131,1.572 0.912,1.572 0.866,1.541 0.821,1.38 0.81,1.334 0.8,1.298 0.797,1.27 0.787,1.173 0.846,1.158 1.077,1.097 1.445,1.002 1.536,0.886 1.514,0.679 1.507,0.615 1.49,0.545 1.466,0.463 1.348,0.046 1.183,-0.134 0.607,-0.134 0.44,-0.134 0.15,-0.076 0,0" />
										<g transform="translate(3.102,1.289)">
											<path fill="#aa0c31" fill-rule="nonzero" d="M 0,0 C 0.01,0.037 0.016,0.067 0.019,0.088 0.03,0.192 -0.026,0.241 -0.163,0.241 l -0.378,0 -0.177,-0.628 0.369,0 c 0.207,0 0.26,0.073 0.304,0.226 L 0,0 Z m -0.829,-0.774 -0.176,-0.618 -0.448,0 0.574,2.029 0.774,0 C 0.33,0.637 0.523,0.469 0.491,0.18 0.487,0.137 0.471,0.073 0.456,0.024 L 0.392,-0.204 c -0.107,-0.378 -0.283,-0.57 -0.819,-0.57 l -0.402,0" />
											<g transform="translate(1.884,0.0699999)">
												<path fill="#aa0c31" fill-rule="nonzero" d="m 0,0 c 0.013,0.125 -0.061,0.201 -0.277,0.201 -0.231,0 -0.364,-0.1 -0.412,-0.262 l -0.22,-0.774 c -0.006,-0.024 -0.011,-0.048 -0.014,-0.07 -0.013,-0.121 0.059,-0.192 0.278,-0.192 0.232,0 0.363,0.089 0.412,0.262 l 0.22,0.774 C -0.007,-0.04 -0.002,-0.018 0,0 Z m -1.382,-0.953 c 0.003,0.03 0.01,0.064 0.02,0.094 l 0.236,0.838 c 0.107,0.377 0.365,0.618 0.937,0.618 0.481,0 0.678,-0.274 0.648,-0.551 C 0.456,0.018 0.449,-0.015 0.44,-0.046 L 0.205,-0.874 c -0.109,-0.387 -0.362,-0.619 -0.962,-0.619 -0.478,0 -0.654,0.265 -0.625,0.54" />
												<g transform="translate(1.854,-0.061)">
													<path fill="#aa0c31" fill-rule="nonzero" d="M 0,0 C 0.01,0.034 0.017,0.07 0.018,0.085 0.03,0.189 -0.03,0.231 -0.185,0.231 l -0.372,0 -0.172,-0.612 0.384,0 c 0.198,0 0.257,0.073 0.301,0.229 L 0,0 Z m -0.533,-0.768 -0.308,0 -0.177,-0.633 -0.448,0 0.574,2.029 0.777,0 C 0.32,0.628 0.516,0.463 0.484,0.165 0.48,0.125 0.469,0.085 0.458,0.04 L 0.389,-0.204 C 0.32,-0.457 0.211,-0.618 -0.0509999,-0.707 L 0.258,-1.401 l -0.503,0 -0.288,0.633" />
													<g transform="translate(1.215,-1.401)">
														<path fill="#aa0c31" fill-rule="nonzero" d="m 0,0 -0.451,0 0.462,1.633 -0.549,0 0.113,0.396 1.547,0 L 1.01,1.633 0.461,1.633 0,0" />
														<g transform="translate(-10.61,3.199)">
															<path fill="#b3b5b7" fill-rule="nonzero" d="m 0,0 -0.527,0.377 -0.823,-0.376 0.511,0.601 -0.511,0.365 0.823,0 L 0,1.585 0,0.967 0.757,0.967 0,0.619 0,0" />
															<g transform="translate(2.447,1.455)">
																<path fill="#b3b5b7" fill-rule="nonzero" d="m 0,0 -0.527,0.377 -0.823,-0.376 0.512,0.601 -0.512,0.365 0.823,0 L 0,1.585 0,0.967 0.757,0.967 0,0.619 0,0" />
																<g transform="translate(2.72,0.673)">
																	<path fill="#b3b5b7" fill-rule="nonzero" d="m 0,0 -0.527,0.377 -0.823,-0.376 0.511,0.601 -0.511,0.365 0.823,0 L 0,1.585 0,0.967 0.757,0.967 0,0.619 0,0" />
																	<g transform="translate(2.484,-0.674)">
																		<path fill="#b3b5b7" fill-rule="nonzero" d="m 0,0 -0.527,0.377 -0.823,-0.376 0.512,0.601 -0.512,0.365 0.823,0 L 0,1.585 0,0.967 0.757,0.967 0,0.619 0,0" />
																		<g transform="translate(1.705,-1.453)">
																			<path fill="#b3b5b7" fill-rule="nonzero" d="m 0,0 -0.527,0.377 -0.823,-0.376 0.512,0.601 -0.512,0.365 0.823,0 L 0,1.585 0,0.967 0.757,0.967 0,0.619 0,0" />
																			<g transform="translate(-2.232,-5.919)">
																				<path fill="#b3b5b7" fill-rule="nonzero" d="m 0,0 -0.527,0.377 -0.823,-0.376 0.512,0.601 -0.512,0.365 0.823,0 L 0,1.585 0,0.967 0.757,0.967 0,0.619 0,0" />
																				<g transform="translate(-5.204,-2.127)">
																					<path fill="#b3b5b7" fill-rule="nonzero" d="m 0,0 -0.527,0.377 -0.823,-0.376 0.512,0.601 -0.512,0.365 0.823,0 L 0,1.585 0,0.967 0.757,0.967 0,0.619 0,0" />
																					<g transform="translate(-4.184,2.125)">
																						<path fill="#b3b5b7" fill-rule="nonzero" d="m 0,0 -0.527,0.377 -0.823,-0.376 0.512,0.601 -0.512,0.365 0.823,0 L 0,1.585 0,0.967 0.757,0.967 0,0.619 0,0" />
																						<g transform="translate(6.906,-1.561)">
																							<path fill="#b3b5b7" fill-rule="nonzero" d="m 0,0 -0.527,0.377 -0.823,-0.376 0.511,0.601 -0.511,0.365 0.823,0 L 0,1.585 0,0.967 0.757,0.967 0,0.619 0,0" />
																							<g transform="translate(-5.231,0)">
																								<path fill="#b3b5b7" fill-rule="nonzero" d="m 0,0 -0.527,0.377 -0.823,-0.376 0.511,0.601 -0.511,0.365 0.823,0 L 0,1.585 0,0.967 0.757,0.967 0,0.619 0,0" />
																							</g>
																						</g>
																					</g>
																				</g>
																			</g>
																		</g>
																	</g>
																</g>
															</g>
														</g>
													</g>
												</g>
											</g>
										</g>
									</g>
								</g>
							</g>
						</g>
					</g>
				</g>
			</g>
			<g transform="matrix(15.256081,0,0,-15.256081,-4517.64,7261.2634)">
				<path fill="url(#linearGradient3)" d="m 332.026,422.267 2.83,0 -0.896,-3.156 -2.831,0 0.897,3.156" />
			</g>
			<path fill="#ffffff" fill-rule="nonzero" d="m 550.1708,853.00796 c 4.31747,-3.43261 4.98875,-3.99709 8.757,-7.1551 2.41046,-2.09009 3.84454,-3.35634 5.72103,-5.15655 0.99226,-1.11432 1.37305,-1.99855 1.83073,-3.63095 l 0.22945,-0.8397 c 0.45768,-1.67817 -0.36615,-2.27316 -3.11224,-2.27316 -2.18162,0 -5.43117,0.36615 -7.56701,0.83848 l -0.0244,-5.29387 c 2.86815,-0.83969 6.54487,-1.35779 9.56557,-1.35779 5.7668,0 8.51289,2.18163 8.10098,5.99565 -0.061,0.56386 -0.15256,1.02276 -0.30512,1.54086 l -0.29048,1.02155 c -1.12896,3.95132 -1.20462,5.15655 -6.86523,10.26734 -2.9902,2.7461 -4.68362,4.18017 -6.81948,5.94987 l 9.19942,0 -1.58663,5.72103 -18.4141,0 1.58664,-5.62949" />
		</g>
	</g>
</svg>
