<svg xmlns="http://www.w3.org/2000/svg" width="128" height="64"><g fill="#1877f2"><path d="M15.246 37.875H2.396a2.39 2.39 0 01-2.387-2.387v-9.179a2.39 2.39 0 012.387-2.386h12.85a2.389 2.389 0 012.387 2.386v9.179a2.39 2.39 0 01-2.387 2.387m-12.85-12.85c-.709 0-1.285.576-1.285 1.284v9.18c0 .708.576 1.284 1.285 1.284h12.85c.709 0 1.285-.576 1.285-1.285V26.31c0-.708-.576-1.285-1.285-1.285H2.396z"/><path fill-rule="evenodd" clip-rule="evenodd" d="M11.488 31.371L7.46 33.756a.556.556 0 01-.84-.472v-4.771c0-.428.47-.693.84-.473l4.03 2.385c.36.214.36.733 0 .946"/><path d="M12.26 40.077H5.383a.418.418 0 01-.418-.417v-.266c0-.231.187-.418.418-.418h6.875c.23 0 .418.187.418.418v.266c0 .23-.187.417-.418.417M23.13 35.761h-1.358v-9.696h6.593v1.178h-5.236v3.393h4.543v1.178H23.13zM36.08 35.761h-1.26l-.028-1.045c-.282.37-.649.663-1.101.882-.453.22-.944.33-1.475.33a3.196 3.196 0 01-1.722-.472 3.323 3.323 0 01-1.194-1.291c-.291-.547-.437-1.17-.437-1.867 0-.697.146-1.32.437-1.866.29-.547.689-.978 1.194-1.292a3.195 3.195 0 011.722-.47c.53 0 1.022.109 1.475.328.452.22.82.514 1.1.883l.029-1.046h1.26zm-3.587-.983c.447 0 .845-.106 1.19-.319.347-.212.618-.504.815-.876.196-.371.294-.8.294-1.285 0-.484-.098-.913-.294-1.284a2.226 2.226 0 00-.814-.877 2.233 2.233 0 00-1.191-.318c-.448 0-.845.106-1.192.318a2.223 2.223 0 00-.813.877c-.197.371-.295.8-.295 1.284 0 .485.098.914.295 1.285.196.372.467.664.813.876.347.213.744.319 1.192.319zM42.978 34.002l.61.984a4.193 4.193 0 01-2.673.942c-.721 0-1.354-.155-1.898-.465a3.3 3.3 0 01-1.275-1.28c-.305-.546-.457-1.173-.457-1.885 0-.71.152-1.339.457-1.883a3.3 3.3 0 011.275-1.282c.544-.309 1.177-.464 1.897-.464.49 0 .947.074 1.372.222.424.148.808.346 1.15.596l-.61.983a3.21 3.21 0 00-.89-.457c-.33-.11-.66-.166-.987-.166-.688 0-1.244.226-1.67.678-.424.453-.636 1.044-.636 1.774s.212 1.32.637 1.773c.425.452.98.678 1.669.678.356 0 .71-.066 1.063-.197.353-.132.675-.315.966-.55zM50.202 34.03l.581.983c-.387.291-.839.516-1.354.676a5.373 5.373 0 01-1.596.239c-.739 0-1.385-.15-1.94-.45a3.205 3.205 0 01-1.291-1.268c-.307-.545-.46-1.182-.46-1.912 0-.715.147-1.345.443-1.89.295-.545.705-.97 1.229-1.278.524-.307 1.128-.46 1.811-.46 1.002 0 1.793.303 2.372.91.58.607.87 1.444.87 2.51v.776h-5.361c.101.596.363 1.064.786 1.403.422.34.968.509 1.638.509.402 0 .792-.065 1.17-.194.379-.13.746-.314 1.102-.554zm-2.577-4.266c-.605 0-1.093.18-1.465.54-.371.36-.596.859-.675 1.496h4.066v-.07c0-.59-.175-1.066-.523-1.426-.35-.36-.816-.54-1.403-.54zM53.47 35.761h-1.26v-10.32l1.302-.138v4.557a3.051 3.051 0 011.101-.869 3.337 3.337 0 011.462-.322c.641 0 1.215.157 1.72.471.506.314.905.745 1.195 1.292.291.547.437 1.17.437 1.866 0 .698-.146 1.32-.437 1.867-.29.547-.689.978-1.194 1.291a3.196 3.196 0 01-1.721.472c-.531 0-1.023-.11-1.476-.33a3.004 3.004 0 01-1.1-.882zm2.327-.983c.448 0 .846-.106 1.192-.319.346-.212.617-.504.813-.876.197-.371.295-.8.295-1.285 0-.484-.098-.913-.295-1.284a2.226 2.226 0 00-.813-.877 2.233 2.233 0 00-1.192-.318c-.447 0-.844.106-1.19.318a2.223 2.223 0 00-.814.877c-.197.371-.295.8-.295 1.284 0 .485.098.914.295 1.285.196.372.467.664.813.876.347.213.744.319 1.191.319zM63.887 35.928c-.72 0-1.353-.155-1.898-.465a3.3 3.3 0 01-1.274-1.28c-.305-.546-.457-1.173-.457-1.885 0-.71.152-1.339.457-1.883a3.3 3.3 0 011.274-1.282c.545-.309 1.177-.464 1.898-.464.72 0 1.352.155 1.897.464.545.31.97.737 1.275 1.282.304.544.457 1.172.457 1.883 0 .712-.153 1.34-.457 1.884-.305.545-.73.972-1.275 1.281-.545.31-1.177.465-1.897.465zm0-1.15c.448 0 .845-.106 1.191-.319.346-.212.617-.504.814-.876.196-.371.294-.8.294-1.285 0-.484-.098-.913-.294-1.284a2.227 2.227 0 00-.814-.877 2.233 2.233 0 00-1.191-.318c-.448 0-.845.106-1.191.318a2.224 2.224 0 00-.814.877c-.196.371-.295.8-.295 1.284 0 .485.099.914.295 1.285.196.372.467.664.814.876.346.213.743.319 1.19.319zM71.976 35.928c-.72 0-1.353-.155-1.898-.465a3.297 3.297 0 01-1.274-1.28c-.305-.546-.457-1.173-.457-1.885 0-.71.152-1.339.457-1.883.305-.545.73-.972 1.274-1.282.545-.309 1.178-.464 1.898-.464s1.353.155 1.897.464a3.3 3.3 0 011.275 1.282c.305.544.457 1.172.457 1.883 0 .712-.152 1.34-.457 1.884-.305.545-.73.972-1.275 1.281-.544.31-1.177.465-1.897.465zm0-1.15c.448 0 .845-.106 1.191-.319.347-.212.618-.504.814-.876.196-.372.294-.8.294-1.285 0-.484-.098-.913-.294-1.284a2.224 2.224 0 00-.814-.877 2.232 2.232 0 00-1.191-.318c-.448 0-.845.106-1.191.318a2.225 2.225 0 00-.814.877c-.196.371-.294.8-.294 1.284 0 .485.098.914.294 1.285.196.372.467.664.814.876.346.213.743.319 1.191.319zM78.126 35.761h-1.302v-10.32l1.302-.138v6.594l3.096-3.061h1.6l-3.311 3.268 3.795 3.657h-1.78l-3.4-3.29zM97.628 35.761h-1.426l-2.403-7.383-2.404 7.383H89.97l-3.172-9.696h1.447l2.48 7.826 2.437-7.521h1.33l2.438 7.521 2.48-7.826h1.392zM108.045 35.761h-1.26l-.029-1.045a3 3 0 01-1.1.882c-.454.22-.945.33-1.476.33a3.195 3.195 0 01-1.721-.472 3.321 3.321 0 01-1.195-1.291c-.29-.547-.436-1.17-.436-1.867 0-.697.145-1.32.436-1.866.291-.547.69-.978 1.195-1.292a3.196 3.196 0 011.72-.47c.532 0 1.023.109 1.476.328.453.22.82.514 1.101.883l.028-1.046h1.26zm-3.588-.983c.448 0 .845-.106 1.191-.319.347-.212.618-.504.814-.876.196-.372.294-.8.294-1.285 0-.484-.098-.913-.294-1.284a2.224 2.224 0 00-.814-.877 2.232 2.232 0 00-1.19-.318c-.449 0-.846.106-1.192.318a2.225 2.225 0 00-.814.877c-.196.371-.294.8-.294 1.284 0 .485.098.914.294 1.285.196.372.468.664.814.876.346.213.743.319 1.191.319zM113.64 34.598v1.108c-.175.028-.357.05-.546.07-.19.018-.377.027-.561.027-.85 0-1.466-.215-1.85-.644-.383-.43-.574-1.085-.574-1.967v-3.235h-1.289v-1.122h1.289v-2.091h1.301v2.092h2.258l-.166 1.122h-2.092v3.158c0 .582.12.983.357 1.205.238.221.613.332 1.126.332.263 0 .512-.018.748-.055zM119.79 34.002l.61.984a4.192 4.192 0 01-2.673.942c-.72 0-1.353-.155-1.898-.465a3.297 3.297 0 01-1.274-1.28c-.305-.546-.457-1.173-.457-1.885 0-.71.152-1.339.457-1.883.304-.545.73-.972 1.274-1.282.545-.309 1.177-.464 1.898-.464.49 0 .946.074 1.371.222.425.148.808.346 1.15.596l-.61.983a3.212 3.212 0 00-.89-.457c-.33-.11-.659-.166-.987-.166-.688 0-1.244.226-1.669.678-.425.453-.637 1.044-.637 1.774s.212 1.32.637 1.773c.425.452.981.678 1.67.678.355 0 .71-.066 1.062-.197.354-.132.676-.315.967-.55zM127.99 35.761h-1.302v-4.03c0-.596-.152-1.064-.456-1.403-.305-.34-.726-.51-1.261-.51-.665 0-1.196.213-1.593.638-.397.425-.596.974-.596 1.648v3.657h-1.301v-10.32l1.301-.138v4.557c.273-.36.628-.648 1.067-.865a3.205 3.205 0 011.44-.326c.84 0 1.501.258 1.982.773.48.514.72 1.222.72 2.122v4.197z"/></g></svg>