<svg xmlns="http://www.w3.org/2000/svg" width="128" height="64"><g transform="matrix(.08046 0 0 .08046 39.378 .261)"><path d="M287.252-3.111h.052-.052zM287.356-3.111h-.052.052z" fill="#d7df23"/><circle cx="301.392" cy="336.654" r="151.751" transform="matrix(1.86527 0 0 1.86564 -279.365 -337.484)" fill="#fff" stroke="#000" stroke-width="8"/><path d="M-56.008 608.52c-5.432-1.62-10.862-2.546-16.596-2.546-9.654 0-17.197 5.093-17.197 12.27v18.287h33.19v29.027H-89.8V744.6h-57.809v-79.042h-19.31v-29.027h19.31v-19.446c0-30.667 19.27-40.56 49.98-40.56 13.562 0 27.14.69 41.622 5.028zM53.951 710.811c-.602 7.85-12.046 15.472-26.502 15.472-9.637 0-19.273-5.08-19.273-13.625 0-18.24 35.236-14.548 47.584-24.477zm-41.56-43.46c.603-10.289 10.24-13.97 22.286-13.97 11.444 0 21.384 3.222 21.384 13.347 0 7.364-11.145 12.888-37.647 12.888-48.256 0-66.963 11.518-66.963 35.708 0 28.429 35.604 33.944 54.613 33.944 13.492.056 37.63-5.013 49.696-19.756h.603c.602 6.388 1.205 11.424 4.217 15.088h58.452c-7.845-6.41-9.957-16.255-9.957-28.214v-39.134c0-27.643-17.17-45.387-79.26-45.387-34.096 0-66.984 6.685-73.018 35.486zM135.94 744.6V636.535h55.401v15.667h.603c10.003-15.714 31.254-20.337 45.773-20.337 19.87 0 34.325 6.474 43.056 19.414 8.737-13.407 28.168-19.414 45.168-19.414 30.715 0 58.112 9.246 58.112 46.594v66.14h-57.808v-66.14c0-11.48-9.108-14.7-18.52-14.7-9.413 0-18.823 3.22-18.823 14.7v66.14h-57.808v-66.14c0-11.48-9.108-14.7-18.52-14.7-9.41 0-18.823 3.22-18.823 14.7v66.14zM407.26 636.5h57.81v108.098h-57.81zm0-16.877v-39.507h57.81v39.507zM496.266 744.6V580.116h57.808V744.6zM743.941 636.5l-53.113 108.08C671.515 783.938 662.763 792 620.517 792c-9.356 0-18.407-.69-27.763-2.07v-27.181c3.62.918 7.845 1.608 11.77 1.608 14.183 0 20.822-5.06 29.27-19.778L567.707 636.5h60.957l30.177 70.83h.602l26.554-70.83z"/><circle cx="301.392" cy="336.653" r="125.492" transform="matrix(1.86527 0 0 1.86564 -279.365 -337.484)" fill="#00b6dc"/><path d="M379.151 177.191c-10.307-3.62-20.619-5.688-31.499-5.688-18.326 0-32.644 11.378-32.644 27.408v40.85h62.998v64.597h-62.998v175.999H205.135V304.358h-36.653v-64.597h36.653v-43.438c0-68.224 36.624-90.183 94.994-90.183 25.761 0 51.534 1.532 79.022 11.425zM748.502 637.035h11.706v2.418h-4.456v13.566h-2.82v-13.566H748.5v-2.418zM776.1 640.391h-.042l-4.613 12.628h-2.328l-4.566-12.628h-.043v12.628h-2.822v-15.984h4.342l4.253 11.73 4.342-11.73h4.298v15.984h-2.82z"/></g></svg>