<?xml version="1.0" encoding="UTF-8" standalone="no"?>

<svg xmlns:svg="http://www.w3.org/2000/svg" xmlns="http://www.w3.org/2000/svg" version="1.1" width="128" height="64" xmlns:xlink="http://www.w3.org/1999/xlink">
	<g stroke="null">
		<polyline stroke="null" points="95.70299530029297,0.3044051672331989 86.85234069824219,0.3044051672331989 86.85234069824219,51.63998603820801 95.70299530029297,51.63998603820801 95.70299530029297,0.3044051672331989 " fill="#D8182A"/>
		<rect y="0.30144" stroke="null" height="51.33558" width="39.60283" fill="#D8182A" x="44.166"/>
		<polyline stroke="null" points="95.70299530029297,63.698556900024414 95.70299530029297,54.64943885803223 86.85234069824219,54.64943885803223 86.85234069824219,63.698556900024414 " fill="#D8182A"/>
		<polyline stroke="null" points="83.73921203613281,63.69559669494629 83.73921203613281,54.64943885803223 41.04694366455078,54.64943885803223 41.04694366455078,54.52207374572754 41.023250579833984,54.52207374572754 41.023250579833984,0.3044051672331989 32.297000885009766,0.3044051672331989 32.297000885009766,63.69559669494629 83.73921203613281,63.69559669494629 " fill="#D8182A"/>
		<polygon stroke="null" points="46.272029876708984,34.5903263092041 46.272029876708984,49.61393165588379 49.00898361206055,49.61393165588379 49.00898361206055,43.32546043395996 54.11854553222656,43.32546043395996 54.11854553222656,40.68033409118652 49.00898361206055,40.68033409118652 49.00898361206055,37.23841667175293 54.183712005615234,37.23841667175293 54.183712005615234,34.5903263092041 " fill="#FFFFFF"/>
		<rect stroke="null" height="15.0236" width="2.79027" fill="#FFFFFF" y="34.59033" x="55.6529"/>
		<polygon stroke="null" points="59.93012237548828,34.5903263092041 59.93012237548828,49.61393165588379 67.70851135253906,49.61393165588379 67.70851135253906,47.03397178649902 62.69668960571289,47.03397178649902 62.69668960571289,34.5903263092041 " fill="#FFFFFF"/>
		<polygon stroke="null" points="69.05329132080078,34.575517654418945 69.05329132080078,49.62578010559082 71.77838897705078,49.62578010559082 71.77838897705078,37.241376876831055 73.97032165527344,37.241376876831055 73.97032165527344,49.62578010559082 76.69837951660156,49.62578010559082 76.69837951660156,37.241376876831055 78.88734436035156,37.241376876831055 78.88734436035156,49.62578010559082 81.61540985107422,49.62578010559082 81.61540985107422,34.575517654418945 " fill="#FFFFFF"/>
	</g>
</svg>