<svg xmlns="http://www.w3.org/2000/svg" width="128" height="64"><g stroke="null"><path fill="#D8182A" d="M95.703.304h-8.85V51.64h8.85V.304M44.166.3H83.77v51.337H44.165zm51.537 63.4v-9.05h-8.85v9.05m-3.113-.004V54.65H41.046v-.128h-.024V.304h-8.726v63.392H83.74"/><path fill="#fff" d="M46.272 34.59v15.024h2.737v-6.29h5.11V40.68h-5.11v-3.442h5.17V34.59zm9.38 0h2.79v15.024h-2.79zm4.278 0v15.024h7.78v-2.58h-5.013V34.59zm9.123-.014v15.05h2.725V37.24h2.192v12.386h2.728V37.24h2.19v12.386h2.727v-15.05z"/></g></svg>