<svg xmlns="http://www.w3.org/2000/svg" width="128" height="64"><path d="M124.58 58.045h-16.565c-.152 0-.43-.67-.51-.808-2.278-4.114-4.557-8.247-6.822-12.354-2.425 4.372-4.783 8.817-7.2 13.195-5.425.013-10.804-.027-16.182-.013.61-1.14 1.26-2.252 1.91-3.372 4.53-7.816 8.98-15.738 13.52-23.56-4.81-8.413-9.7-16.76-14.54-25.15-.012 0-.045-.054-.012-.048h16.64c2.047 3.723 4.04 7.492 6.054 11.24 2.095-3.715 4.115-7.504 6.188-11.24h16.09c.02.067-.03.14-.06.192-4.695 8.254-9.504 16.533-14.194 24.8 5.215 9.048 10.527 18.09 15.707 27.118zM84.362 26.158c.423 1.722.67 3.616.67 5.61 0 6.22-1.803 10.83-4.307 14.58-.424.635-.854 1.244-1.318 1.827-1.358 1.723-3 3.292-4.835 4.597-1.232.875-2.517 1.67-3.942 2.338-2.835 1.332-6.26 2.372-10.207 2.372-6.173 0-10.73-1.88-14.42-4.465-3.69-2.59-6.564-6.014-8.518-10.333-1.312-2.894-2.173-6.233-2.272-10.3-.046-2.013.205-4 .57-5.723.927-4.34 2.748-7.75 5.054-10.68 2.305-2.93 5.226-5.22 8.756-6.95 1.385-.67 2.935-1.25 4.624-1.67 1.69-.41 3.557-.7 5.577-.7h.033c1.974-.09 4.067.23 5.71.59 1.71.38 3.292.96 4.703 1.59 4.37 1.98 7.63 4.93 10.253 8.62 1.73 2.42 3.027 5.32 3.87 8.71zM64.49 43.418c.16-.634.113-1.45.113-2.29V21.985c0-.822-.093-1.457-.33-2.054-.22-.54-.558-1.04-.955-1.44-.775-.79-1.94-1.49-3.405-1.38-.71.06-1.298.28-1.815.61-.96.61-1.69 1.544-1.987 2.78-.15.63-.14 1.43-.14 2.26V41.9c0 .41-.02.81.04 1.16.14 1.007.59 1.815 1.18 2.42.76.773 1.94 1.422 3.467 1.26 1.967-.215 3.41-1.52 3.848-3.31zM35.89 20.15h-17.6c-.074 2.186-.014 4.604-.034 6.803 4.756.04 9.585.006 14.374.013v14.26c-4.822.014-9.684-.02-14.48.014.007 5.657.033 11.208.033 16.864 0 .02-.006.027-.013.034H3.498c-.026.006-.026-.014-.046-.014-.033-17.367-.033-34.848-.007-52.222 0-.02 0-.046.013-.046h31.43c.02 0 .027 0 .034.013.33 4.75.65 9.51.967 14.28z" stroke="null" fill="#002885"/></svg>