<?xml version="1.0" encoding="UTF-8" standalone="no"?>

<svg xmlns:svg="http://www.w3.org/2000/svg" xmlns="http://www.w3.org/2000/svg" version="1.1" width="128" height="64" xmlns:xlink="http://www.w3.org/1999/xlink">
	<g stroke="null">
		<path stroke="null" fill="#002885" d="m124.58128,58.04479c-5.51099,0 -11.12134,0 -16.56612,0c-0.15234,0 -0.43056,-0.66901 -0.51001,-0.80811c-2.27859,-4.11338 -4.55721,-8.24663 -6.82254,-12.35339c-2.42432,4.37171 -4.78236,8.81628 -7.20004,13.19462c-5.42491,0.01324 -10.80344,-0.02649 -16.18196,-0.01326c0.60938,-1.13929 1.25851,-2.25209 1.90765,-3.37151c4.52409,-7.81608 8.98186,-15.73815 13.51254,-23.56086c-4.81548,-8.41223 -9.70387,-16.75822 -14.54585,-25.15058c-0.01324,0 -0.04635,-0.05298 -0.01324,-0.04637c5.55074,0 11.09486,0 16.6456,0c2.04678,3.72258 4.04053,7.49152 6.05418,11.24059c2.09309,-3.71595 4.11334,-7.50476 6.18659,-11.24059c5.3653,0 10.72394,0 16.08925,0c0.01322,0.06624 -0.03315,0.1391 -0.06626,0.19209c-4.69627,8.25325 -9.50514,16.53301 -14.19479,24.79951c5.21292,9.04811 10.52521,18.0896 15.70501,27.11785z"/>
		<path stroke="null" fill="#002885" d="m84.36156,26.15781c0.4239,1.72218 0.66901,3.61659 0.66901,5.61036c0,6.21976 -1.80166,10.82992 -4.30546,14.57899c-0.42393,0.63589 -0.85449,1.24527 -1.31816,1.82817c-1.35789,1.72218 -3.00057,3.29202 -4.83537,4.59692c-1.23203,0.87433 -2.51703,1.6692 -3.94115,2.3382c-2.83498,1.33138 -6.25951,2.37132 -10.20729,2.37132c-6.17337,0 -10.73055,-1.88116 -14.42001,-4.46444c-3.68946,-2.5899 -6.56418,-6.0144 -8.5182,-10.33313c-1.31152,-2.8946 -2.17261,-6.233 -2.27197,-10.30001c-0.04635,-2.01364 0.20534,-4.00078 0.56964,-5.72297c0.92735,-4.34521 2.74889,-7.74984 5.05397,-10.68419c2.30509,-2.92772 5.22618,-5.21955 8.75667,-6.94837c1.38438,-0.67563 2.93434,-1.2519 4.62341,-1.6692c1.68907,-0.4173 3.55699,-0.70213 5.57725,-0.70213c0.01325,0 0.01987,0 0.03312,0c1.97389,-0.09273 4.06703,0.22521 5.70971,0.58952c1.70895,0.37756 3.29205,0.95383 4.70291,1.58972c4.3717,1.97389 7.6306,4.92811 10.25365,8.61756c1.72881,2.41769 3.02707,5.31891 3.86829,8.70368zm-19.87139,17.26163c0.15894,-0.63589 0.11259,-1.45061 0.11259,-2.29184c0,-6.41846 0,-12.70445 0,-19.14279c0,-0.82135 -0.09274,-1.45724 -0.33119,-2.05338c-0.21858,-0.54315 -0.55639,-1.03993 -0.95383,-1.44398c-0.77497,-0.78823 -1.94076,-1.49698 -3.40462,-1.38438c-0.70874,0.05299 -1.29827,0.2782 -1.81493,0.60277c-0.96046,0.60939 -1.68907,1.54334 -1.98713,2.78199c-0.15234,0.62927 -0.14573,1.43074 -0.14573,2.25872c0,6.33236 0,12.75082 0,19.14278c0,0.41069 -0.01987,0.80811 0.03313,1.15917c0.13909,1.00681 0.58952,1.81492 1.17903,2.41769c0.76175,0.77498 1.94077,1.42411 3.46425,1.25852c1.96726,-0.21196 3.41125,-1.51685 3.84843,-3.30527z"/>
		<path stroke="null" fill="#002885" d="m35.88859,20.15002c-5.86868,0 -11.73075,0 -17.59945,0c-0.07285,2.18586 -0.01324,4.60355 -0.03311,6.80265c4.7559,0.03974 9.58464,0.00662 14.37366,0.01325c0,4.75588 0,9.50516 0,14.26104c-4.82213,0.01325 -9.684,-0.01987 -14.47963,0.01325c0.00661,5.65673 0.03311,11.20747 0.03311,16.86419c0,0.01987 -0.00663,0.0265 -0.01324,0.03312c-4.88838,0 -9.78336,0 -14.67172,0c-0.0265,0.00663 -0.0265,-0.01325 -0.04637,-0.01325c-0.03311,-17.3676 -0.03311,-34.84782 -0.00661,-52.22205c0,-0.01987 0,-0.04637 0.01325,-0.04637c10.47884,0 20.95769,0 31.42993,0c0.01987,0 0.0265,0 0.03312,0.01325c0.33119,4.7559 0.64912,9.51841 0.96708,14.28091z"/>
	</g>
</svg>