<svg xmlns="http://www.w3.org/2000/svg" width="128" height="64"><path d="M-.273-.034h128.546v64.068H-.273z" fill="#183059" fill-rule="evenodd"/><path d="M24.978 53.984V39.29l-2.013-2.226h16.587v-9.287H24.978v-7.69h15.019l8.905-9.302H10.87v43.198zm49.794-.054H44.368v-1.77l7.45-7.482h13.487l1.28-1.273v-5.383l-1.038-1.043-14.49-.024-5.168-5.117V20.39l9.563-9.579h24.923v5.893L77.042 20.1H61.031l-1.087 1.286v5.408l.99.994h14.563l5.143 5.408v14.89zm43.358.074H86.897V34.273l4.848-4.961h13.756l1.24-1.353v-7.892l-1.015-.79h-6.314l-.902.902v3.947h-11.5v-7.329l5.863-6.088h19.392l5.863 6.314v16.235l-4.735 4.848H95.58l3.27 3.044v3.496h19.392z" fill="#fff"/></svg>