<svg xmlns="http://www.w3.org/2000/svg" width="128" height="64"><path d="M-.721-.053h129.442v64.106H-.721z" fill="#19315a"/><path d="M106.144 10.95c-2.59.003-5.179.012-7.768.006-2.98 2.948-5.987 5.861-8.942 8.82-.156.16-.095.402-.113.601.01 1.55-.008 3.1.01 4.65 3.736.003 7.472.011 11.2-.004a2.515 2.515 0 01-.374.45c-.721.681-1.399 1.403-2.129 2.073-.052.95-.008 1.9-.026 2.851.009 7.586-.017 15.174.018 22.762 5.3-.023 10.6.01 15.902-.018 0-14.055-.01-28.11 0-42.164-2.59-.025-5.18-.028-7.778-.026zm-84.972.003c-2.367-.002-4.732 0-7.096.022.006 14.056 0 28.112.001 42.168 4.7.012 9.402.013 14.104-.002-.032-4.773-.008-9.547-.01-14.32-.753-.71-1.416-1.507-2.19-2.195.175-.02.35-.031.526-.037 5.125.007 10.25-.005 15.375.005.229-.012.471.03.692-.049.046-3.013-.005-6.027.026-9.041-4.8-.038-9.601-.018-14.401-.012a195.047 195.047 0 01-.004-7.546c4.876.01 9.755.038 14.63-.014 1.736-1.82 3.596-3.524 5.33-5.349 1.208-1.211 2.445-2.395 3.635-3.623-7.84-.013-15.68-.001-23.52-.006-2.366.007-4.733.001-7.098-.001zm49.469 0c-4.147-.003-8.295-.001-12.44.022-1.902 1.966-3.887 3.85-5.809 5.796-1.205 1.202-2.452 2.365-3.613 3.606-.051 2.09 0 4.188-.03 6.282.062.714-.062 1.431.007 2.146.071.84-.005 1.686.039 2.526 1.69 1.797 3.503 3.482 5.2 5.275 4.686.02 9.374 0 14.061.012.304-.035.45.287.66.446.165.213.494.367.464.676-.003 1.684-.005 3.366 0 5.05-.386.37-.77.74-1.127 1.136l-.255.125c-4.409-.015-8.82-.022-13.231.004-2.394 2.468-4.88 4.85-7.312 7.282.007.603.008 1.206-.002 1.81 9.98.01 19.957.002 29.935.001 1.994-2.009 4.024-3.983 6.024-5.988 0-4.815.01-9.633-.002-14.448-.75-.89-1.642-1.664-2.454-2.502-.964-.908-1.866-1.88-2.833-2.786-4.744.004-9.488.003-14.232.001-.311-.416-.959-.7-.88-1.298.02-1.662-.026-3.324.023-4.986.357-.33.684-.69 1.031-1.03a.447.447 0 01.403-.153c5.11.001 10.22.003 15.33 0 1.155-1.076 2.303-2.163 3.456-3.242.07-1.916.007-3.842.027-5.763-4.146.008-8.293.002-12.44 0z" fill="#fff"/></svg>