<svg xmlns="http://www.w3.org/2000/svg" width="128" height="64"><g style="fill:#5ecab8;fill-opacity:1" transform="matrix(0.2031379,0,0,0.2031379,0.1316515,20.220612)"><path style="fill:#5ecab8;fill-opacity:1;fill-rule:evenodd;" d="M 5.1875,0 C 2.31478,0 0,2.31479 0,5.1875 L 0,35.65625 0,54.125 0,95.40625 c 0,2.87271 2.31478,5.1875 5.1875,5.1875 l 10.59375,0 c 2.87272,0 5.1875,-2.31479 5.1875,-5.1875 l 0,-41.28125 51.5299,0 0,-18.46875 -51.5299,0 0,-18.4375 39.40625,0 c 2.98763,0 5.375,-2.41863 5.375,-5.40625 l 0,-6.4375 0,-5.375 -49.96875,0 z"/><path style="fill:#5ecab8;fill-opacity:1;fill-rule:evenodd;" d="m 101.8125,15.125 c -5.32683,0.0225 -10.49544,0.15913 -13.875,0.25 -0.0623,-0.006 -0.12462,0.004 -0.1875,0 -0.12634,-0.008 -0.24643,-0.0312 -0.375,-0.0312 l -9.40625,0 c -3.08099,0 -5.5625,2.38738 -5.5625,5.375 l 0,90.03125 c 0,2.98763 2.48151,5.40625 5.5625,5.40625 l 9.40625,0 c 3.081,0 5.5625,-2.41862 5.5625,-5.40625 l 0,-38.5 c 3.60696,-0.23163 7.9131,-0.2279 10.625,0.6875 2.84637,0.96078 5.21432,2.02037 7.15625,4.3125 4.40906,5.20417 5.95038,13.55407 9.625,19 2.46446,3.65243 5.15316,4.71191 8.8125,4.90625 4.88611,0.25949 15.4375,0 15.4375,0 l -17.75,-32.625 c 0,0 9.26474,-7.89927 11.15625,-12.78125 2.87771,-7.42734 2.67098,-17.27545 -0.75,-24.46875 -3.71711,-7.81595 -12.08951,-15.14759 -20.71875,-15.8125 -3.79707,-0.29257 -9.31476,-0.36661 -14.71875,-0.34375 z M 99.5,32.95341 l 8.00417,-0.0694 c 19.40809,4.60255 12.39854,21.18252 1.58958,22.14723 l -16.375,-0.0625 0,-18.0625 C 92.70755,33.31144 95.6524,33.24065 99.5,32.95341 Z"/><path style="fill:#5ecab8;fill-opacity:1;fill-rule:evenodd;" d="m 491.97656,18.30221 c -5.98561,0.0253 -11.79343,0.17881 -15.59095,0.28092 -0.07,-0.007 -0.14003,0.004 -0.21068,0 -0.14197,-0.009 -0.27691,-0.0351 -0.42138,-0.0351 l -10.56954,0 c -3.46202,0 -6.25042,2.68263 -6.25042,6.03974 l 0,84.64651 c 0,3.35712 2.7884,6.07485 6.25042,6.07485 l 10.56954,0 c 3.46203,0 6.25042,-2.71773 6.25042,-6.07485 l 0,-26.74231 c 4.05304,-0.26028 8.89173,-0.25609 11.93901,0.77252 3.19839,1.0796 5.85919,2.27023 8.04128,4.84583 4.95433,5.84778 6.68627,15.23033 10.81534,21.34976 2.76924,4.10413 5.79045,5.29464 9.90235,5.51302 5.49038,0.29158 17.34668,0 17.34668,0 L 520.10346,78.31331 c 0,0 10.41053,-8.87618 12.53596,-14.36192 3.2336,-8.3459 3.00131,-19.41194 -0.84275,-27.49484 -4.17681,-8.78256 -13.58464,-17.02092 -23.28107,-17.76806 -4.26666,-0.32875 -10.46673,-0.41195 -16.53904,-0.38626 z m -2.59849,19.68401 9.11439,-0.078 c 21.80832,2.21337 14.9949,24.15146 1.66583,25.23548 l -17.12942,-0.0702 0,-20.29632 c -0.0123,-3.9407 6.3492,-4.79096 6.3492,-4.79096 z"/><path style="fill:#5ecab8;fill-opacity:1;stroke:none;stroke-width:1px;stroke-linecap:butt;stroke-linejoin:miter;stroke-opacity:1" d="m 198.04017,83.99479 c 5.14447,-0.11977 9.78688,4.78108 14.30107,10.96417 0.99291,2.23778 2.65299,4.69795 0,5.72043 l -50.29212,0 c -4.74081,-0.57172 -7.73216,-3.2428 -9.2957,-7.62724 l -5.00537,-9.53406 0,-67.45341 c 0.89413,-1.8819 -0.3308,-4.29357 5.24372,-5.00538 l 58.87277,0 0,12.15592 c -0.117,6.57995 -3.47177,5.0655 -5.95878,5.72043 l -37.89786,0 0,18.35305 31.46237,0 c 5.34752,0 5.46568,16.92294 0,16.92294 l -32.41577,0 0,19.54481 z"/><path style="fill:#5ecab8;fill-opacity:1;fill-rule:evenodd;" d="m 225.9375,15.75 c -2.98763,0 -5.40625,2.4909 -5.40625,5.59375 l 0,6.46875 0,27.03125 0,6.46875 0,33.0625 0,0.21875 c 0.004,0.11758 0.02,0.22818 0.0312,0.34375 0.17448,2.93691 2.5017,5.25 5.375,5.25 l 50.96875,0 c 2.98763,0 5.40625,-2.4909 5.40625,-5.59375 l 0,-6.5 c 0,-3.10285 -2.41862,-5.59375 -5.40625,-5.59375 l -37.875,0 0,-15.59375 30.1875,0 c 2.98762,0 5.375,-2.4909 5.375,-5.59375 l 0,-6.46875 c 0,-3.10286 -2.38738,-5.625 -5.375,-5.625 l -30.1875,0 0,-15.8125 37.875,0 c 2.98763,0 7.39874,-2.14644 5.40625,-5.59375 l -3.75,-6.46875 C 277.00974,18.65734 272.83133,15.75 269.8437,15.75 l -36.1875,0 -7.71875,0 z"/><path style="fill:#5ecab8;fill-opacity:1;fill-rule:evenodd;" d="m 298.90625,13.90625 c -2.98762,0 -5.40625,2.4909 -5.40625,5.59375 -0.005,0.10042 0,0.21071 0,0.3125 l 0,8.78125 0,31.5 0,9.09375 0,40.875 c 0,3.10285 2.41863,5.625 5.40625,5.625 l 13.3125,0 c 2.98762,0 5.40625,-2.52215 5.40625,-5.625 l 0,-35.28125 40.1875,0 c 2.98763,0 5.40625,-2.4909 5.40625,-5.59375 l 0,-9.09375 c 0,-3.10285 -2.41862,-5.59375 -5.40625,-5.59375 l -40.1875,0 0,-20.3125 45,0 c 2.98763,0 5.40625,-2.4909 5.40625,-5.59375 0,-9.38381 -0.004,-14.78961 -0.0625,-14.6875 l -69.0625,0 z"/><path style="fill:#5ecab8;fill-opacity:1;fill-rule:evenodd;" d="m 412.25,17.34375 c -22.4213,0 -40.59375,19.10831 -40.59375,42.65625 0,23.54794 18.17245,42.625 40.59375,42.625 22.42132,0 40.59375,-19.07706 40.59375,-42.625 0,-23.54794 -18.17243,-42.65625 -40.59375,-42.65625 z m -0.4375,18.8125 c 12.46499,0 22.5625,10.82891 22.5625,24.15625 0,13.32735 -10.09751,24.125 -22.5625,24.125 -12.46499,0 -22.5625,-10.79765 -22.5625,-24.125 0,-13.32734 10.09751,-24.15625 22.5625,-24.15625 z"/><path style="fill:#5ecab8;fill-opacity:1;" d="m 564.65822,113.87435 -6.25778,0 c -4.26141,0.0857 -5.83271,-2.99928 -7.47569,-5.73041 l -6.24329,-9.67336 0,-65.46602 c -0.13035,-2.33914 0.51855,-4.48347 4.57299,-5.77642 l 9.62736,0 c 4.06985,1.52433 3.08461,1.57904 6.32752,4.48115 l 22.48481,26.41824 23.34634,-27.52981 c 0.53846,-1.25588 2.15493,-2.36121 4.40205,-3.1289 l 9.78895,0 c 3.18263,0.62906 4.45912,3.27886 4.57299,4.64274 l -0.64296,76.70843 c -0.2601,3.8425 -1.01142,5.44661 -3.36957,5.05436 l -11.31214,0 c -3.21333,-0.23732 -4.2098,-2.24812 -4.81368,-4.57299 l 0,-49.82157 -15.76341,17.79615 -4.01908,3.8654 c -0.48104,0.96323 -4.19321,0.90739 -4.97892,0 l -3.56676,-3.36958 -16.43904,-17.56992 z"/></g></svg>