<svg xmlns="http://www.w3.org/2000/svg" width="128" height="64"><g fill="#5ecab8"><path d="M1.185 20.22c-.583 0-1.053.47-1.053 1.054V39.6c0 .585.47 1.055 1.053 1.055h2.152c.584 0 1.054-.47 1.054-1.054v-8.385h10.47v-3.75H4.39v-3.747h8.006c.607 0 1.092-.49 1.092-1.098v-2.398H3.338z" fill-rule="evenodd"/><path d="M20.814 23.293c-1.082.005-2.132.032-2.82.05-.012 0-.024.002-.037 0-.026 0-.05-.005-.076-.005h-1.91c-.626 0-1.13.484-1.13 1.09v18.29c0 .607.504 1.098 1.13 1.098h1.91c.627 0 1.13-.49 1.13-1.098v-7.82c.733-.048 1.608-.047 2.16.14.577.194 1.058.41 1.453.875.895 1.057 1.21 2.753 1.955 3.86.5.742 1.047.957 1.79.996.993.052 3.136 0 3.136 0l-3.606-6.628s1.882-1.605 2.267-2.596c.584-1.51.542-3.51-.153-4.97-.755-1.59-2.456-3.078-4.208-3.213-.772-.06-1.893-.075-2.99-.07zm-.47 3.622l1.626-.014c3.942.936 2.518 4.304.323 4.5l-3.327-.013v-3.67c-.002-.73.596-.744 1.378-.802zM100.07 23.938a140.11 140.11 0 0 0-3.166.058c-.015-.002-.03 0-.043 0-.028-.002-.055-.008-.085-.008h-2.147c-.703 0-1.27.545-1.27 1.227V42.41c0 .682.567 1.234 1.27 1.234h2.147c.703 0 1.27-.552 1.27-1.234v-5.432c.823-.053 1.806-.052 2.425.157.65.22 1.19.46 1.634.984 1.006 1.187 1.358 3.093 2.197 4.336.563.834 1.177 1.076 2.012 1.12 1.116.06 3.524 0 3.524 0l-4.052-7.447s2.115-1.804 2.547-2.918c.658-1.696.61-3.944-.17-5.586-.85-1.784-2.76-3.457-4.73-3.61-.866-.066-2.126-.083-3.36-.078zm-.527 4l1.85-.017c4.43.45 3.047 4.907.34 5.127l-3.48-.014V28.91c-.002-.8 1.29-.973 1.29-.973z" fill-rule="evenodd"/><path d="M40.36 37.283c1.046-.024 1.99.97 2.906 2.227.202.455.54.955 0 1.162H33.05c-.963-.116-1.57-.658-1.888-1.55l-1.017-1.936V23.484c.182-.382-.067-.872 1.065-1.017h11.96v2.47c-.024 1.336-.706 1.028-1.21 1.162h-7.7v3.727h6.392c1.086 0 1.11 3.437 0 3.437h-6.585v3.97z"/><path d="M46.028 23.42c-.607 0-1.098.506-1.098 1.136V39.436c0 .024.004.047.006.07.036.597.508 1.066 1.092 1.066h10.354c.607 0 1.098-.506 1.098-1.136v-1.32c0-.63-.49-1.137-1.098-1.137h-7.694V33.81h6.132c.607 0 1.092-.506 1.092-1.136V31.36c0-.63-.485-1.14-1.092-1.14h-6.132v-3.213h7.694c.607 0 1.503-.436 1.098-1.137l-.762-1.314c-.315-.545-1.164-1.136-1.77-1.136h-8.92zM60.85 23.045c-.606 0-1.097.506-1.097 1.137v18.395c0 .63.49 1.143 1.098 1.143h2.705c.607 0 1.098-.51 1.098-1.142v-7.166h8.164c.607 0 1.098-.506 1.098-1.137v-1.847c0-.63-.49-1.136-1.098-1.136h-8.164v-4.127h9.142c.606 0 1.098-.506 1.098-1.136 0-1.907 0-3.005-.013-2.985H60.85zM83.875 23.744c-4.554 0-8.246 3.88-8.246 8.665 0 4.782 3.69 8.658 8.245 8.658s8.246-3.876 8.246-8.66c0-4.783-3.69-8.664-8.245-8.664zm-.09 3.82c2.533 0 4.585 2.2 4.585 4.908s-2.052 4.9-4.584 4.9c-2.532 0-4.583-2.192-4.583-4.9 0-2.707 2.05-4.907 4.583-4.907z" fill-rule="evenodd"/><path d="M114.835 43.353h-1.27c-.867.017-1.186-.61-1.52-1.164l-1.268-1.966v-13.3c-.026-.474.105-.91.93-1.172h1.955c.826.31.626.32 1.285.91l4.568 5.367 4.742-5.594c.11-.255.438-.48.894-.635h1.99c.646.128.906.667.93.944l-.132 15.582c-.053.78-.205 1.106-.684 1.027h-2.298c-.653-.048-.855-.457-.978-.93v-10.12l-3.202 3.615-.817.785c-.098.196-.852.185-1.012 0l-.725-.684-3.34-3.57z"/></g></svg>