<?xml version="1.0" encoding="UTF-8" standalone="no"?>

<svg xmlns:svg="http://www.w3.org/2000/svg" xmlns="http://www.w3.org/2000/svg" version="1.1" width="128" height="64" xmlns:xlink="http://www.w3.org/1999/xlink">
	<g stroke="null">
		<path stroke="null" fill="#221e1f" d="m28.69028,1.00508l0,44.17125l15.394,0l0,-14.36536l14.98532,0l0,-12.0282l-14.98532,0l0,-5.33524l17.69706,0l0,-12.44246l-33.09106,0"/>
		<path stroke="null" fill="#221e1f" d="m87.33696,18.8219l-17.56248,0l-5.39414,9.85248l-5.52479,-9.85248l-17.4523,0l14.2343,21.14288l-14.16712,23.04056l17.37231,0l5.52479,-10.44305l5.44892,10.44305l17.4521,0l-14.04826,-23.07901l14.11668,-21.10443"/>
		<path stroke="null" fill="#221e1f" d="m99.30972,0.99464l-17.56248,0l-5.39414,9.85245l-5.52479,-9.85245l-17.45231,0l14.2343,21.14287l-14.16712,23.04056l17.37231,0l5.52479,-10.44305l5.44893,10.44305l17.45209,0l-14.04824,-23.07898l14.11668,-21.10445"/>
	</g>
</svg>