<svg xmlns="http://www.w3.org/2000/svg" width="128" height="64"><path d="M22.412 50.616V26.133h-4.96v-9.286h4.96v-4.538C22.412 5.615 25.8.806 35.072.806h2.326L40.14 9.25h-1.799c-3.079 0-4.321 1.652-4.321 4.56v3.038h4.115l3.32 9.286H34.02v24.483zm18.785-33.769h11.027l6.86 18.968 6.847-18.968h11.04L64.583 51.314c-2.83 8.418-7.33 12.177-14.1 12.177l-3.166-8.76c2.965 0 4.99-1.247 6.212-3.584zm35.495 9.286l3.34-9.286h14.985v33.77H83.409V26.132zM95.355 6.765a6.256 6.256 0 11-12.511 0 6.256 6.256 0 0112.511 0z" fill="#106755"/><path d="M104.304 50.933c-4.11 0-6.269-3.13-6.269-6.216 0-3.665 2.929-6.242 6.243-6.242 3.019 0 6.27 2.463 6.27 6.269 0 1.292-.556 2.583-1.077 4.1l-3.268 8.843h-1.9z" fill="#57b6a5"/></svg>