<svg xmlns="http://www.w3.org/2000/svg" width="128" height="64"><path d="M45.15 64.002H67.7v-9.49h5.784v-6.085h15.707V18.554h-4.462V7.748H72.631v-7.75H53.02v15.384H38.81v32.927h6.332l.01 15.693z" fill="#100f0d"/><path d="M82.873 33.485l-1.839-1.715s-.613-.491-1.103 0c0 0-.432.72-1.307.857 0 0 2.124-6.007 3.186-7.601 0 0 .695-1.348-1.062-2.085 0 0-.94-.447-2.535-.776 0 0-1.02-.408-1.103 1.146-.081 1.551-2.288 6.864-2.697 7.805-.407.94-.775 2.37-3.268 2.204l4.454-12.217s.776-1.756-1.063-1.798l-1.84-.081s-1.306-.123-1.715 1.388L66.73 32.177s-.474 1.46-1.414 1.787c0 0-1.588.427-.832 2.055.9 1.942 2.942 2.86 4.782 1.92 0 0 2.247-1.348 3.023-1.348 0 0-1.022 4.618-.898 5.843.122 1.227.654 1.92 2.369 1.962 1.718.04 1.84.04 1.84.04s1.021.082.817-1.512c-.204-1.593-.041-3.473.286-4.738.327-1.268.9-2.863.9-2.863l4.82.124s.941.122.9-.982c0 0 .081-.571-.449-.98m-17.711-3.043s1.187-.677.112-1.809c0 0-.791-1.639-5.825-1.243-5.032.396-5.427.282-5.427.282s-1.357-.396-1.357 1.131c0 1.527 2.318 4.015 6.22 1.866l-6.842 6.276s-1.922 1.697-2.037-.847c-.112-2.546-.055-11.197 1.867-11.309 1.922-.115 10.856-.51 11.931-.228 1.074.284 3.393.962 2.544-1.809-.848-2.77-2.6-2.205-2.6-2.205s-9.783.283-13.063.225c0 0-2.148-1.073-3.562.454-1.64 1.753-.17 3.336-.17 3.336s-2.261 7.18-1.074 15.72l2.996 2.149s1.81 1.131 3.507-.396c0 0 3.788-3.45 7.463-8.538 0 0-2.035 6.05-2.035 9.443 0 0-.112 1.412 1.019 1.412l2.036-.056s1.696-.056 1.41-1.753c0 0-1.186-9.273 2.887-12.1m13.129 13.09c.152 0 .393.024.393-.175 0-.138-.157-.158-.286-.158h-.316v.333h.209zm.5.61h-.155l-.304-.491h-.25v.491h-.122V43.08h.466c.28 0 .378.106.378.281 0 .208-.145.286-.334.29l.322.492zm.375-.554a.847.847 0 0 0-.852-.85" fill="#f89d21"/></svg>