<svg xmlns="http://www.w3.org/2000/svg" width="128" height="64"><path d="M11.529 44.577h5.293c-1.43 3.034-5.009 4.753-8.048 2.895-2.62-1.601-3.682-4.961-3.227-7.886.432-2.772 2.38-5.551 5.33-5.93a5.796 5.796 0 0 1 4.107 1.066 5.625 5.625 0 0 1 1.476 1.627c.265.44.198.703.69.703h4.738c-.513-3.755-3.326-6.866-6.908-7.944-3.59-1.081-7.778-.361-10.666 2.067-5.62 4.723-5.596 15.136.317 19.617 3.565 2.702 9.407 3.313 12.762-.04 0 .25-.086 1.804.075 1.804h2.547c.121 0 1.973.002 1.973-.002v-1.07-10.962c0-.099.066-.594-.053-.594H12.232c-.186 0-.703-.118-.703.113v4.536m76.663-7.218c-.955-1.314-2.508-1.972-4.07-2.232-1.824-.304-3.737-.304-5.551.061-1.557.319-3.07 1.028-4.095 2.274-.883 1.072-1.187 2.34-1.247 3.7h5.42c-.14 0 .374-1.5.5-1.65.814-.984 3.52-1.043 4.183.127 1.049 1.885-1.46 2.21-2.7 2.328-1.85.178-3.96.378-5.592 1.345-3.19 1.89-3 7.077.197 8.858 2.506 1.395 6.33 1.005 8.59-.703.079.237-.15 1.083.12 1.083h5.003l-.004-7.18-.003-4.279c0-1.288.053-2.635-.751-3.732m-4.68 8.427c0 1.204-.368 2.527-1.586 3.024-.93.38-2.832.496-3.484-.44-.824-1.18.167-2.323 1.281-2.662 1.206-.366 2.651-.193 3.79-.762v.84m-58.273 6.76h4.843c.227 0 .6.137.6-.136v-1.077-10.861-10.424-.831c0-.079-1.078-.035-1.186-.035-.358 0-4.256-.037-4.256.035v23.329m23.188-15.148c-2.563-2.62-6.993-3.176-10.298-1.755-3.525 1.517-5.152 5.101-5.016 8.8.136 3.687 2.212 7.015 5.845 8.108 3.523 1.06 7.865.224 10.146-2.823 2.591-3.46 2.396-9.219-.677-12.33m-3.18 8.388c-.215 1.067-.766 2.108-1.781 2.6-.869.42-2.12.433-2.987 0-2.125-1.061-2.157-4.216-1.76-6.214.404-2.19 2.609-3.665 4.747-2.605 2.135 1.058 2.185 4.21 1.781 6.22m23.19-8.676c-2.38-2.583-6.98-3.07-9.616-.537v-4.666-2.446c0-.47-.339-.283-.778-.283-.374 0-4.66-.004-4.66.004V52.31c0 .193-.056.24.146.24h4.731c.107 0 .316.06.316-.066v-1.128c1.453 1.434 3.935 1.831 5.891 1.538 2.224-.333 4.057-1.771 5.092-3.74 1.872-3.555 1.68-8.995-1.121-12.043m-3.368 8.71c-.467 2.01-2.484 3.721-4.56 2.505-2.005-1.166-2.127-4.208-1.665-6.206.468-2.011 2.52-3.716 4.584-2.5 1.978 1.196 2.113 4.196 1.641 6.202m26.865 6.724h4.834c.227 0 .599.137.599-.136v-1.077-10.861-10.424-.831c0-.079-1.077-.035-1.185-.035-.358 0-4.248-.037-4.248.035v23.329"/><path d="M127.625 27.742C126.46 26.517 91.913 1.92 91.913 1.92v17.86l21.703 15.638c.035.032.962.593 1.025 1.366-.063.774-1.025 1.359-1.025 1.359l-9.566 6.872v17.063s22.41-15.96 23.552-17.106l.251-.248V27.98z" fill="#e31b23"/></svg>