<svg xmlns="http://www.w3.org/2000/svg" width="128" height="64" xmlns:xlink="http://www.w3.org/1999/xlink"><defs><linearGradient id="d"><stop stop-opacity="0" offset="0"/><stop stop-color="#1e1e1e" offset="1"/></linearGradient><linearGradient id="c"><stop stop-opacity=".813" offset="0"/><stop stop-opacity="0" offset="1"/></linearGradient><linearGradient><stop stop-opacity=".502" offset="0"/><stop stop-color="#796510" stop-opacity=".251" offset=".934"/><stop stop-opacity="0" offset="1"/></linearGradient><linearGradient><stop stop-opacity=".439" offset="0"/><stop stop-color="#f3ca20" stop-opacity="0" offset="1"/></linearGradient><linearGradient id="b"><stop stop-color="#0f0f0f" offset="0"/><stop stop-color="#2c2c2c" offset=".701"/><stop stop-color="#1e1e1e" offset="1"/></linearGradient><linearGradient id="a"><stop stop-color="#d3a11a" offset="0"/><stop stop-color="#f3c000" offset=".201"/><stop stop-color="#ffd309" offset=".401"/><stop stop-color="#ffd92c" offset=".605"/><stop stop-color="#fcd738" offset=".802"/><stop stop-color="#f3ca20" offset="1"/></linearGradient><linearGradient y2=".228" x2=".991" y1=".228" x1=".002" id="g" xlink:href="#a"/><linearGradient y2=".473" x2="1" y1=".473" x1=".001" id="h" xlink:href="#b"/><radialGradient gradientUnits="userSpaceOnUse" gradientTransform="matrix(-1.134 0 0 -.067 844.349 -70.287)" r="108.307" fy="-63.573" fx="399.392" cy="-63.573" cx="399.392" id="f" xlink:href="#c"/><linearGradient y2=".489" x2=".401" y1=".543" x1=".505" id="e" xlink:href="#d"/></defs><g stroke="null"><path fill="url(#e)" fill-opacity=".522" fill-rule="evenodd" d="M122.485 9.984l2.89 2.89-8.71 32.51-20.024-11.56 3.63-13.547 22.22-10.293z"/><path fill="url(#f)" fill-rule="evenodd" d="M122.516 49.04a59.907 6.675 0 1 1-119.814 0 59.907 6.675 0 1 1 119.814 0z"/><rect fill="#040404" fill-rule="evenodd" ry="2.271" rx="2.271" y="8.285" x="2.625" height="43.039" width="2.862"/><path fill="url(#g)" d="M4.15 49.627h118.344l-16.456-19.45 16.456-20.195c-32.453-.26-93.925-.554-118.345 0v39.645z"/><path fill="url(#h)" d="M23.223 19.264c-1.562 0-2.998.268-4.306.824-1.307.557-2.44 1.322-3.397 2.288-.957.966-1.7 2.085-2.237 3.364-.537 1.278-.808 2.657-.808 4.12v.068c0 1.523.264 2.916.79 4.205.528 1.288 1.257 2.41 2.204 3.347.94.937 2.08 1.66 3.39 2.186 1.318.527 2.773.79 4.374.79 1.873 0 3.54-.306 4.995-.94 1.454-.635 2.713-1.407 3.767-2.305v-8.89H23.1v3.88l4.54-.002v2.927c-1.15.82-2.576 1.245-4.255 1.245-.916 0-1.753-.166-2.505-.488-.75-.322-1.394-.777-1.95-1.362-.557-.586-.993-1.28-1.296-2.07-.304-.79-.456-1.652-.456-2.59v-.05c0-.88.15-1.718.455-2.49.302-.77.724-1.442 1.26-2.018.537-.575 1.155-1.02 1.868-1.362.715-.342 1.487-.52 2.307-.52.585 0 1.127.052 1.615.15s.943.228 1.363.404c.42.175.82.385 1.21.64.39.253.77.558 1.16.89l2.843-3.43c-.527-.45-1.065-.844-1.63-1.195-.568-.358-1.174-.66-1.818-.9-.646-.233-1.35-.41-2.104-.537-.752-.128-1.572-.186-2.49-.186zm23.11 0c-1.58 0-3.052.268-4.39.824-1.337.557-2.48 1.322-3.447 2.288-.967.966-1.725 2.085-2.27 3.364-.548 1.278-.825 2.657-.825 4.12v.068c0 1.464.27 2.825.81 4.104.54 1.28 1.29 2.4 2.258 3.347.966.94 2.12 1.69 3.448 2.25 1.328.553 2.776.82 4.357.82 1.58 0 3.036-.267 4.373-.823 1.336-.557 2.498-1.32 3.464-2.288.966-.967 1.723-2.086 2.27-3.365.546-1.28.807-2.657.807-4.12v-.05c0-1.466-.254-2.844-.79-4.12-.537-1.28-1.288-2.386-2.254-3.33-.965-.95-2.12-1.717-3.447-2.274-1.328-.555-2.775-.823-4.356-.823zm14.852.353v20.487H75.92v-4.087H65.692v-16.4h-4.508zm19.074 0v20.487h7.982c1.6 0 3.07-.264 4.407-.79 1.337-.528 2.482-1.236 3.45-2.154.965-.917 1.71-2.013 2.236-3.263.526-1.25.79-2.592.79-4.036v-.05c0-1.44-.264-2.79-.79-4.03-.528-1.24-1.27-2.313-2.238-3.23-.968-.917-2.11-1.635-3.45-2.153-1.337-.516-2.806-.773-4.407-.773h-7.99zm-34 3.803c.897 0 1.727.178 2.49.52.76.342 1.427.794 1.983 1.38.556.585.975 1.27 1.28 2.05.3.782.452 1.612.452 2.49v.068c0 .878-.153 1.7-.455 2.472-.303.772-.725 1.45-1.262 2.036-.537.585-1.173 1.03-1.934 1.362-.76.332-1.59.504-2.49.504-.917 0-1.754-.162-2.506-.504-.75-.342-1.41-.81-1.968-1.396-.557-.586-.993-1.27-1.296-2.052-.3-.78-.453-1.61-.453-2.49v-.05c0-.88.154-1.718.456-2.49.304-.77.726-1.45 1.263-2.034.536-.586 1.18-1.03 1.933-1.363.752-.332 1.59-.504 2.506-.504zm38.5.268h3.48c.92 0 1.746.15 2.507.454.763.302 1.416.715 1.95 1.26.54.548.96 1.208 1.264 1.97.304.76.455 1.59.455 2.49v.066c0 .917-.15 1.747-.454 2.49-.302.74-.724 1.37-1.26 1.917-.537.546-1.19.968-1.95 1.26-.763.294-1.59.438-2.508.438h-3.48V23.688z"/></g></svg>