<svg xmlns="http://www.w3.org/2000/svg" width="128" height="64" xmlns:xlink="http://www.w3.org/1999/xlink"><defs><linearGradient id="c"><stop stop-opacity="0" offset="0"/><stop stop-color="#1e1e1e" offset="1"/></linearGradient><linearGradient id="d"><stop stop-opacity=".813" offset="0"/><stop stop-opacity="0" offset="1"/></linearGradient><linearGradient id="b"><stop stop-color="#0f0f0f" offset="0"/><stop stop-color="#2c2c2c" offset=".701"/><stop stop-color="#1e1e1e" offset="1"/></linearGradient><linearGradient id="a"><stop stop-color="#d3a11a" offset="0"/><stop stop-color="#f3c000" offset=".201"/><stop stop-color="#ffd309" offset=".401"/><stop stop-color="#ffd92c" offset=".605"/><stop stop-color="#fcd738" offset=".802"/><stop stop-color="#f3ca20" offset="1"/></linearGradient><linearGradient y2=".228" x2=".991" y1=".228" x1=".002" id="g" xlink:href="#a"/><linearGradient y2=".473" x2="1" y1=".473" x1=".001" id="h" xlink:href="#b"/><linearGradient y2=".489" x2=".401" y1=".543" x1=".505" id="e" xlink:href="#c"/><radialGradient gradientUnits="userSpaceOnUse" gradientTransform="matrix(-1.134 0 0 -.067 844.35 -70.287)" r="108.307" fy="-63.573" fx="399.392" cy="-63.573" cx="399.392" id="f" xlink:href="#d"/></defs><g stroke="null"><path fill="url(#e)" fill-opacity=".522" fill-rule="evenodd" d="M122.485 9.984l2.89 2.89-8.71 32.51-20.024-11.56 3.63-13.547 22.22-10.293z"/><path fill="url(#f)" fill-rule="evenodd" d="M122.516 49.04a59.907 6.675 0 11-119.814 0 59.907 6.675 0 11119.814 0z"/><rect fill="#040404" fill-rule="evenodd" ry="2.271" rx="2.271" y="8.285" x="2.625" height="43.039" width="2.862"/><path fill="url(#g)" d="M4.15 49.627h118.344l-16.456-19.45 16.456-20.195c-32.453-.26-93.925-.554-118.345 0v39.645z"/><path fill="url(#h)" d="M23.223 19.264c-1.562 0-2.998.268-4.306.824a10.555 10.555 0 00-3.397 2.288 10.548 10.548 0 00-3.045 7.484v.068c0 1.523.264 2.916.79 4.205.528 1.288 1.257 2.41 2.204 3.347.94.937 2.08 1.66 3.39 2.186 1.317.527 2.772.79 4.373.79 1.873 0 3.54-.306 4.995-.94 1.454-.635 2.713-1.407 3.767-2.305v-8.89H23.1v3.88h4.54v2.926c-1.15.82-2.576 1.245-4.255 1.245-.916 0-1.753-.165-2.505-.487a5.834 5.834 0 01-1.95-1.362 6.205 6.205 0 01-1.296-2.07c-.304-.79-.456-1.65-.456-2.59v-.05c0-.88.15-1.717.455-2.49a6.157 6.157 0 013.128-3.38 5.293 5.293 0 012.307-.52c.585 0 1.127.053 1.615.15s.943.23 1.363.405c.42.175.82.385 1.21.64.39.253.77.558 1.16.89l2.843-3.43a13.327 13.327 0 00-1.63-1.195 9.86 9.86 0 00-1.82-.9 12.16 12.16 0 00-2.103-.537 14.837 14.837 0 00-2.49-.186zm23.11 0c-1.58 0-3.052.268-4.39.824a10.562 10.562 0 00-3.447 2.288 10.557 10.557 0 00-2.27 3.364 10.365 10.365 0 00-.825 4.12v.068c0 1.464.27 2.825.81 4.104.54 1.28 1.29 2.4 2.26 3.347.965.94 2.12 1.69 3.447 2.25 1.328.552 2.776.82 4.357.82 1.58 0 3.036-.268 4.373-.824 1.336-.557 2.498-1.32 3.464-2.288a10.622 10.622 0 002.27-3.365c.547-1.28.808-2.657.808-4.12v-.05c0-1.466-.254-2.844-.79-4.12a10.016 10.016 0 00-2.254-3.33 10.875 10.875 0 00-3.447-2.274c-1.328-.556-2.775-.824-4.356-.824zm14.852.353v20.487H75.92v-4.087H65.692v-16.4h-4.508zm19.074 0v20.487h7.98c1.6 0 3.07-.264 4.408-.79 1.337-.528 2.482-1.236 3.45-2.154a9.58 9.58 0 002.236-3.263c.526-1.25.79-2.592.79-4.036v-.05c0-1.44-.264-2.79-.79-4.03a9.536 9.536 0 00-2.238-3.23c-.968-.916-2.11-1.634-3.45-2.152-1.337-.516-2.806-.773-4.407-.773h-7.99zm-34 3.803a6.02 6.02 0 012.49.52 6.2 6.2 0 011.982 1.38c.556.585.975 1.27 1.28 2.05.3.782.452 1.612.452 2.49v.068c0 .878-.153 1.7-.455 2.472a6.497 6.497 0 01-1.263 2.036 5.616 5.616 0 01-1.934 1.362c-.76.332-1.59.504-2.49.504-.917 0-1.754-.162-2.506-.504a6.316 6.316 0 01-1.968-1.396 6.206 6.206 0 01-1.297-2.052c-.3-.78-.453-1.61-.453-2.49v-.05c0-.88.154-1.718.456-2.49a6.51 6.51 0 011.263-2.034 5.68 5.68 0 011.932-1.363c.752-.332 1.59-.504 2.506-.504zm38.5.268h3.48c.92 0 1.745.15 2.506.454.763.302 1.416.715 1.95 1.26a5.87 5.87 0 011.264 1.97c.304.76.455 1.59.455 2.49v.066c0 .917-.15 1.747-.454 2.49a5.873 5.873 0 01-1.26 1.917 5.435 5.435 0 01-1.95 1.26c-.762.294-1.59.438-2.507.438h-3.48V23.688z"/></g></svg>