<?xml version="1.0" encoding="UTF-8" standalone="no"?>

<svg xmlns:svg="http://www.w3.org/2000/svg" xmlns="http://www.w3.org/2000/svg" version="1.1" width="128" height="64" xmlns:xlink="http://www.w3.org/1999/xlink">
	<defs>
		<linearGradient id="linearGradient4731">
			<stop stop-color="#000000" stop-opacity="0" offset="0" id="stop4733"/>
			<stop stop-color="#1e1e1e" offset="1" id="stop4737"/>
		</linearGradient>
		<linearGradient id="linearGradient4719">
			<stop stop-color="#000000" stop-opacity="0.8125" offset="0" id="stop4723"/>
			<stop stop-color="#000000" stop-opacity="0" id="stop4725" offset="1"/>
		</linearGradient>
		<linearGradient id="linearGradient3811">
			<stop stop-color="#000000" stop-opacity="0.50196" offset="0" id="stop3813"/>
			<stop stop-color="#796510" stop-opacity="0.25098" id="stop3825" offset="0.93351"/>
			<stop stop-color="#000000" stop-opacity="0" offset="1" id="stop3823"/>
		</linearGradient>
		<linearGradient id="linearGradient3025">
			<stop stop-color="#000000" stop-opacity="0.43922" offset="0" id="stop3027"/>
			<stop stop-color="#f3ca20" stop-opacity="0" offset="1" id="stop3037"/>
		</linearGradient>
		<linearGradient id="linearGradient3009">
			<stop stop-color="#0f0f0f" id="stop3011" offset="0"/>
			<stop stop-color="#2c2c2c" offset="0.70131" id="stop3017"/>
			<stop stop-color="#1e1e1e" id="stop3013" offset="1"/>
		</linearGradient>
		<linearGradient id="linearGradient3012">
			<stop stop-color="#d3a11a" id="stop3014" offset="0"/>
			<stop stop-color="#f3c000" offset="0.20066" id="stop3026"/>
			<stop stop-color="#ffd309" offset="0.40131" id="stop3024"/>
			<stop stop-color="#ffd92c" offset="0.6046" id="stop3022"/>
			<stop stop-color="#fcd738" offset="0.80208" id="stop3020"/>
			<stop stop-color="#f3ca20" id="stop3016" offset="1"/>
		</linearGradient>
		<linearGradient y2="0.22774" x2="0.99055" y1="0.22774" x1="0.00236" id="linearGradient3018" xlink:href="#linearGradient3012"/>
		<linearGradient y2="0.47308" x2="1.00018" y1="0.47308" x1="0.0007" id="linearGradient3015" xlink:href="#linearGradient3009"/>
		<radialGradient gradientUnits="userSpaceOnUse" gradientTransform="matrix(-1.1342008,0,0,-0.06713845,844.34874,-70.286628)" r="108.30685" fy="-63.57336" fx="399.39209" cy="-63.57336" cx="399.39209" id="radialGradient4717" xlink:href="#linearGradient4719"/>
		<linearGradient y2="0.48925" x2="0.40066" y1="0.543" x1="0.50497" id="linearGradient4729" xlink:href="#linearGradient4731"/>
	</defs>

	<g stroke="null" id="layer1">
		<path fill="url(#linearGradient4729)" fill-opacity="0.52157" fill-rule="evenodd" id="path4727" d="m122.48478,9.98357l2.89022,2.89024l-8.71114,32.51051l-20.02319,-11.56039l3.62978,-13.54653l22.21433,-10.29382z"/>
		<path fill="url(#radialGradient4717)" fill-rule="evenodd" d="m122.5162,49.04061a59.9072,6.67459 0 1 1 -119.81439,0a59.9072,6.67459 0 1 1 119.81439,0z" id="path4715"/>
		<rect fill="#040404" fill-rule="evenodd" ry="2.27053" rx="2.27053" y="8.2848" x="2.625" height="43.03901" width="2.86221" id="rect3019"/>
		<path fill="url(#linearGradient3018)" id="path3006" d="m4.14903,49.62674l118.34509,0l-16.45599,-19.4485l16.45599,-20.1965c-32.45324,-0.25996 -93.92469,-0.55398 -118.34498,0.00025l-0.00012,39.64475z"/>
		<path fill="url(#linearGradient3015)" id="path3029" d="m23.22327,19.26413c-1.56204,0.00003 -2.9979,0.26776 -4.30585,0.82417c-1.30791,0.55645 -2.44113,1.32122 -3.39757,2.28747c-0.95648,0.96631 -1.70026,2.08522 -2.23704,3.36395c-0.53674,1.27877 -0.80733,2.65711 -0.80733,4.12083l0,0.06728c0,1.52272 0.2636,2.91665 0.79052,4.20492c0.52696,1.2883 1.25647,2.41005 2.20338,3.34713c0.94691,0.93711 2.08008,1.65962 3.39761,2.18657c1.31745,0.52692 2.77235,0.79052 4.3731,0.79052c1.87419,0 3.54126,-0.30743 4.99547,-0.94191c1.45417,-0.63445 2.71315,-1.40652 3.76761,-2.3043l0,-8.89762l-8.89761,0l0,3.88536l4.54129,0l0,2.92662c-1.15214,0.82033 -2.57658,1.24467 -4.25538,1.24467c-0.91744,0 -1.75462,-0.16548 -2.50614,-0.48777c-0.75152,-0.3223 -1.39466,-0.77677 -1.95109,-1.3624c-0.55639,-0.58558 -0.99249,-1.27827 -1.2951,-2.06882c-0.30264,-0.79052 -0.45414,-1.65312 -0.45414,-2.59024l0,-0.05042c0,-0.87869 0.15149,-1.71811 0.45414,-2.48932c0.30261,-0.77117 0.7247,-1.44256 1.26148,-2.01837c0.53674,-0.57575 1.15445,-1.02073 1.86699,-1.36239c0.71247,-0.34166 1.48395,-0.52141 2.30429,-0.52142c0.58559,0.00001 1.12679,0.0537 1.61471,0.15138c0.48788,0.09769 0.94267,0.22795 1.36238,0.40368c0.41967,0.17574 0.82049,0.38538 1.211,0.63913c0.39051,0.25382 0.77033,0.55964 1.16057,0.89146l2.84252,-3.43122c-0.52723,-0.44919 -1.06524,-0.843 -1.63148,-1.1942c-0.56628,-0.35118 -1.17257,-0.65699 -1.81656,-0.89145c-0.64399,-0.2344 -1.35092,-0.41129 -2.10243,-0.53823c-0.75155,-0.12686 -1.57193,-0.18499 -2.48933,-0.18502l0,-0.00003zm23.11026,0c-1.58109,0.00003 -3.0528,0.26776 -4.38995,0.82417c-1.3371,0.55645 -2.48175,1.32122 -3.44804,2.28747c-0.9663,0.96631 -1.72408,2.08522 -2.27063,3.36395c-0.54659,1.27877 -0.82418,2.65711 -0.82418,4.12083l0,0.06728c0,1.46373 0.2706,2.82526 0.80733,4.10402c0.53677,1.27875 1.28756,2.40049 2.25385,3.34712c0.96629,0.94662 2.12074,1.69743 3.44804,2.25384c1.3273,0.55642 2.77459,0.82417 4.35632,0.82417c1.58105,0 3.03595,-0.26775 4.3731,-0.82417c1.33711,-0.55642 2.49856,-1.32119 3.46486,-2.28749c0.96629,-0.96628 1.72404,-2.08546 2.27066,-3.36394c0.54659,-1.27845 0.80733,-2.65649 0.80733,-4.12083l0,-0.05042c0,-1.4643 -0.25379,-2.84207 -0.79052,-4.12083c-0.53677,-1.27874 -1.28756,-2.38364 -2.25381,-3.33031c-0.96633,-0.94661 -2.12044,-1.71421 -3.44804,-2.27065c-1.32761,-0.55641 -2.77524,-0.82415 -4.35633,-0.82418l0,-0.00003zm14.85183,0.35321l0,20.4864l14.73404,0l0,-4.08718l-10.22637,0l0,-16.39923l-4.50767,0zm19.07351,0l0,20.4864l7.98936,0c1.60075,0 3.06966,-0.26358 4.4068,-0.79053c1.33711,-0.52691 2.4817,-1.23518 3.448,-2.15291c0.96631,-0.91773 1.70978,-2.01375 2.23705,-3.26302c0.52719,-1.24925 0.79048,-2.59206 0.79053,-4.03673l0,-0.05042c-0.00005,-1.44466 -0.26334,-2.79698 -0.79053,-4.03673c-0.52727,-1.23972 -1.27074,-2.31192 -2.23705,-3.22938c-0.96629,-0.91743 -2.11089,-1.63551 -3.448,-2.15293c-1.33714,-0.51739 -2.80605,-0.77368 -4.4068,-0.77371l-7.98936,0l0,-0.00003zm-33.99259,3.80126c0.89774,0.00001 1.72793,0.17975 2.48929,0.5214c0.76136,0.34166 1.42828,0.79363 1.98471,1.37922c0.55643,0.58562 0.97595,1.27102 1.27832,2.052c0.3023,0.78103 0.4541,1.61122 0.4541,2.48932l0,0.06728c0,0.87812 -0.1518,1.70133 -0.4541,2.4725c-0.30238,0.77119 -0.72443,1.44957 -1.26147,2.03518c-0.53708,0.5856 -1.17295,1.03058 -1.93428,1.36239c-0.76136,0.33183 -1.59155,0.50461 -2.48933,0.50459c-0.91743,0.00002 -1.75462,-0.16293 -2.50614,-0.50459c-0.75151,-0.34165 -1.41151,-0.8104 -1.9679,-1.39602c-0.55643,-0.58561 -0.99245,-1.2713 -1.2951,-2.05201c-0.30265,-0.7807 -0.45414,-1.61059 -0.45414,-2.48932l0,-0.05042c0,-0.87869 0.15149,-1.71811 0.45414,-2.48932c0.30264,-0.77116 0.7247,-1.44957 1.26147,-2.03519c0.53677,-0.58559 1.18242,-1.03056 1.93424,-1.36239c0.75182,-0.33179 1.5887,-0.50458 2.50618,-0.50459l0,-0.00003zm38.5003,0.26912l3.4817,0c0.91739,0.00001 1.74477,0.1515 2.50613,0.45412c0.76132,0.30264 1.41428,0.7149 1.95105,1.26149c0.53678,0.5466 0.95884,1.20657 1.26147,1.9679c0.30266,0.76138 0.4541,1.59155 0.45415,2.48932l0,0.06728c-0.00005,0.91746 -0.15149,1.74762 -0.45415,2.48933c-0.30264,0.74168 -0.72469,1.37086 -1.26147,1.91744c-0.53677,0.5466 -1.18973,0.96867 -1.95105,1.26148c-0.76136,0.29281 -1.58875,0.43733 -2.50613,0.43731l-3.4817,0l0,-12.34566z"/>
	</g>
</svg>