<?xml version="1.0" encoding="UTF-8" standalone="no"?>

<svg xmlns:svg="http://www.w3.org/2000/svg" xmlns="http://www.w3.org/2000/svg" version="1.1" width="128" height="64" xmlns:xlink="http://www.w3.org/1999/xlink">
	<g>
		<path d="m63.71,6.8c3.705,0 14.25,2.0235 14.25,12.3975c0,8.3505 -3.99001,10.83 -7.125,11.4c-2.28,0.4275 6.555,0 6.555,10.4595c0,14.82 -12.825,14.25 -12.825,14.25l-21.375,0l0,-48.507l20.52,0zm-8.55,11.8275l0,7.3245l7.125,0c0,0 2.84999,-0.342 2.84999,-3.8475c0,-3.5055 -2.84999,-3.477 -2.84999,-3.477l-7.125,0zm0,17.8695l0,7.41l7.125,0c0,0 2.84999,-0.285 2.84999,-3.99c0,-3.42 -2.84999,-3.42 -2.84999,-3.42l-7.125,0zm-50.16,-29.697l0,48.507l13.395,0l0,-17.955l8.55,0l0,17.955l13.395,0l0,-48.507l-13.395,0l0,18.297l-8.55,0l0,-18.297l-13.395,0z" fill="#017AC3" fill-rule="nonzero" stroke="null"/>
		<circle cx="100.475" cy="31.082" r="18.525" stroke-width="14" fill="none" stroke="#017AC3"/>
		<circle cx="100.475" cy="31.082" r="9.975" fill="#017AC3" stroke="null"/>
	</g>
</svg>