<svg xmlns="http://www.w3.org/2000/svg" width="128" height="64"><path d="M63.71 6.8c3.705 0 14.25 2.023 14.25 12.398 0 8.35-3.99 10.83-7.125 11.4-2.28.427 6.555 0 6.555 10.46 0 14.82-12.825 14.25-12.825 14.25H43.19V6.8h20.52zm-8.55 11.828v7.324h7.125s2.85-.342 2.85-3.848c0-3.505-2.85-3.476-2.85-3.476H55.16zm0 17.87v7.41h7.125s2.85-.286 2.85-3.99c0-3.42-2.85-3.42-2.85-3.42H55.16zM5 6.8v48.507h13.395V37.352h8.55v17.955H40.34V6.8H26.945v18.297h-8.55V6.8H5z" fill="#017AC3" stroke="null"/><circle cx="100.475" cy="31.082" r="18.525" stroke-width="14" fill="none" stroke="#017AC3"/><circle cx="100.475" cy="31.082" r="9.975" fill="#017AC3" stroke="null"/></svg>