<svg xmlns="http://www.w3.org/2000/svg" xmlns:xlink="http://www.w3.org/1999/xlink" width="128" height="64"><linearGradient id="a" gradientUnits="userSpaceOnUse" x1="3080.638" y1="-104.745" x2="3700" y2="-104.745" gradientTransform="translate(0 .1)"><stop offset="0" stop-color="#991eeb"/><stop offset=".399" stop-color="#5822b4"/><stop offset=".727" stop-color="#5822b4"/><stop offset="1" stop-color="#991eeb"/></linearGradient><path d="M15.83 42.982H9.938V34.58H6.127v8.402H.084V21.309h6.031v8.088h3.812v-8.088h5.891v21.673zm27.007.093c6.03 0 10.958-5.02 10.958-11.133 0-6.206-4.927-11.005-10.958-11.005-6.113 0-9.204 4.44-9.948 6.252 0-2.684-2.684-5.892-5.799-5.892H17.027v21.685h9.366c3.812 0 6.496-3.254 6.496-6.113.849 1.766 3.847 6.206 9.948 6.206zM25.65 34.266c.871 0 1.568.848 1.568 1.813 0 1.01-.697 1.86-1.568 1.86H22.65v-3.673zm0-8.134c.871 0 1.568.848 1.568 1.812 0 .965-.697 1.813-1.568 1.813H22.65v-3.625zm3.962 5.81c.697-.047 1.836-.848 2.266-1.325-.162.581-.162 2.417 0 2.998-.476-.709-1.569-1.545-2.266-1.673zm7.728 0a5.508 5.508 0 1111.016.081c-.046 3.022-2.486 5.45-5.508 5.45a5.51 5.51 0 01-5.508-5.531zm5.497 4.346c2.347 0 4.322-1.929 4.322-4.346s-1.975-4.323-4.322-4.323c-2.418 0-4.347 1.906-4.347 4.323a4.325 4.325 0 004.347 4.346z"/><path d="M3333.2-130.7c-1-45.2-33-69.1-72.2-69.1-21.5 0-40.9 7.2-54.1 21.2-13.2-14-32.6-21.2-54.1-21.2-39.2 0-71.2 24-72.2 69.2V-27.2c0 9.5 7.7 17.1 17.1 17.1h16.2c1.6 0 2.9-1.3 2.9-2.9v-117.4c.7-22.3 16.5-34.1 36-34.1s35.3 11.8 36 34.1v103.1c0 9.5 7.7 17.1 17.1 17.1h16.2c1.6 0 2.9-1.3 2.9-2.9v-117.4c.7-22.3 16.5-34.1 36-34.1s35.3 11.8 36 34.1v103.1c0 9.5 7.7 17.1 17.1 17.1h16.2c1.6 0 2.9-1.3 2.9-2.9v-117.4c.1.1 0 0 0-.1zm364.7-66.2h-27.5c-7.6 0-14.7 3.8-19 10.1l-30.4 45c-4 5.9-12.6 5.9-16.6 0l-30.4-45c-4.2-6.3-11.4-10.1-19-10.1h-27.5c-1.7 0-2.7 1.9-1.8 3.3l54.2 80.4c3.9 5.8 3.9 13.4 0 19.2l-54.2 80.4c-1 1.4.1 3.3 1.8 3.3h27.5c7.6 0 14.7-3.8 19-10.1l30.4-45c4-5.9 12.6-5.9 16.6 0l30.4 45c4.2 6.3 11.4 10.1 19 10.1h27.5c1.7 0 2.7-1.9 1.8-3.3l-54.3-80.3c-3.9-5.8-3.9-13.4 0-19.2l54.2-80.4c1-1.4 0-3.4-1.7-3.4zm-184.6 0h-16.2c-8.2 0-15.1 5.8-16.8 13.5-14.4-11-32.5-16.6-52-16.6-47.4 0-85.9 33-85.9 95.3s38.4 95.3 85.9 95.3c19.4 0 37.3-5.5 51.7-16.3.8 8.7 8.1 15.6 17.1 15.6h16.2c1.6 0 2.9-1.3 2.9-2.9v-181c-.1-1.6-1.3-2.9-2.9-2.9zm-85 152.1c-28.3 0-51.3-20.7-51.3-59.8 0-39.1 23-59.8 51.3-59.8 28.3 0 51.3 20.7 51.3 59.8 0 39.1-23 59.8-51.3 59.8z" fill="url(#a)" transform="matrix(.1162 0 0 .1162 -302.054 44.167)"/><g transform="matrix(.1162 0 0 .1162 -302.054 44.178)"><defs><path id="b" d="M3333.2-130.8c-1-45.2-33-69.1-72.2-69.1-21.5 0-40.9 7.2-54.1 21.2-13.2-14-32.6-21.2-54.1-21.2-39.2 0-71.2 24-72.2 69.2V-27.3c0 9.5 7.7 17.1 17.1 17.1h16.2c1.6 0 2.9-1.3 2.9-2.9v-117.4c.7-22.3 16.5-34.1 36-34.1s35.3 11.8 36 34.1v103.1c0 9.5 7.7 17.1 17.1 17.1h16.2c1.6 0 2.9-1.3 2.9-2.9v-117.4c.7-22.3 16.5-34.1 36-34.1s35.3 11.8 36 34.1v103.1c0 9.5 7.7 17.1 17.1 17.1h16.2c1.6 0 2.9-1.3 2.9-2.9v-117.4c.1.1 0 0 0-.1zm364.7-66.2h-27.5c-7.6 0-14.7 3.8-19 10.1l-30.4 45c-4 5.9-12.6 5.9-16.6 0l-30.4-45c-4.2-6.3-11.4-10.1-19-10.1h-27.5c-1.7 0-2.7 1.9-1.8 3.3l54.2 80.4c3.9 5.8 3.9 13.4 0 19.2l-54.2 80.4c-1 1.4.1 3.3 1.8 3.3h27.5c7.6 0 14.7-3.8 19-10.1l30.4-45c4-5.9 12.6-5.9 16.6 0l30.4 45c4.2 6.3 11.4 10.1 19 10.1h27.5c1.7 0 2.7-1.9 1.8-3.3L3645.4-94c-3.9-5.8-3.9-13.4 0-19.2l54.2-80.4c1-1.4 0-3.4-1.7-3.4zm-184.6 0h-16.2c-8.2 0-15.1 5.8-16.8 13.5-14.4-11-32.5-16.6-52-16.6-47.4 0-85.9 33-85.9 95.3s38.4 95.3 85.9 95.3c19.4 0 37.3-5.5 51.7-16.3.8 8.7 8.1 15.6 17.1 15.6h16.2c1.6 0 2.9-1.3 2.9-2.9v-181c-.1-1.6-1.3-2.9-2.9-2.9zm-85 152.1c-28.3 0-51.3-20.7-51.3-59.8 0-39.1 23-59.8 51.3-59.8 28.3 0 51.3 20.7 51.3 59.8 0 39.1-23 59.8-51.3 59.8z"/></defs><clipPath id="c"><use xlink:href="#b" width="100%" height="100%" overflow="visible"/></clipPath><radialGradient id="d" cx="1494.392" cy="-276.441" r="164.575" gradientTransform="matrix(.672 0 0 .8748 2225.512 101.993)" gradientUnits="userSpaceOnUse"><stop offset="0" stop-color="#7ba7f2" stop-opacity=".5"/><stop offset="1" stop-color="#7ba7f2" stop-opacity="0"/></radialGradient><ellipse cx="3229.7" cy="-139.8" rx="110.6" ry="144" clip-path="url(#c)" fill="url(#d)"/><radialGradient id="e" cx="3339.858" cy="-386.742" r="227.558" gradientTransform="matrix(1 0 0 .7081 0 254.023)" gradientUnits="userSpaceOnUse"><stop offset=".2" stop-color="#7ba7f2"/><stop offset="1" stop-color="#7ba7f2" stop-opacity="0"/></radialGradient><ellipse cx="3339.9" cy="-19.8" rx="227.6" ry="161.1" clip-path="url(#c)" fill="url(#e)"/><radialGradient id="f" cx="3479.585" cy="-189.161" r="123.773" gradientUnits="userSpaceOnUse"><stop offset="0" stop-color="#7ba7f2"/><stop offset="1" stop-color="#7ba7f2" stop-opacity="0"/></radialGradient><circle cx="3479.6" cy="-189.2" r="123.8" clip-path="url(#c)" fill="url(#f)"/></g></svg>