<?xml version="1.0" encoding="UTF-8" standalone="no"?>

<svg xmlns:svg="http://www.w3.org/2000/svg" xmlns="http://www.w3.org/2000/svg" version="1.1" width="128" height="64" xmlns:xlink="http://www.w3.org/1999/xlink">
	<defs>
		<linearGradient xlink:href="#id0" id="linearGradient2487" y2="1.00835" x2="0.97249" y1="-0.00835" x1="0.02751"/>
		<linearGradient xlink:href="#id1" id="linearGradient2485" y2="0.5" x2="1" y1="0.5" x1="0"/>
		<linearGradient xlink:href="#id3" id="linearGradient2483" y2="0.50005" x2="1" y1="0.50005" x1="0"/>
		<linearGradient xlink:href="#id5" id="linearGradient2481" y2="-0.00208" x2="0.03837" y1="1.00208" x1="0.96149"/>
		<radialGradient gradientUnits="userSpaceOnUse" id="id10" fy="175.75999" fx="84.3235" r="0.8717" cy="175.75999" cx="84.3235">
			<stop stop-color="#aa722a" offset="0" id="stop49"/>
			<stop stop-color="#aa722a" offset="0.83922" id="stop51"/>
			<stop stop-color="#c28d29" offset="1" id="stop53"/>
		</radialGradient>
		<linearGradient xlink:href="#id5" id="id9" y2="0.23119" x2="-0.14797" y1="0.76881" x1="1.14798"/>
		<linearGradient xlink:href="#id5" id="id8" y2="0.1788" x2="-0.06684" y1="0.82123" x1="1.06675"/>
		<linearGradient xlink:href="#id0" id="id7" y2="0.87866" x2="1.32835" y1="0.12134" x1="-0.32849"/>
		<linearGradient gradientUnits="userSpaceOnUse" id="id6" y2="207.95799" x2="81.7227" y1="161.93201" x1="57.2797">
			<stop stop-color="#966724" offset="0" id="stop37"/>
			<stop stop-color="#865625" offset="0.43137" id="stop39"/>
			<stop stop-color="#e2c937" offset="0.92157" id="stop41"/>
			<stop stop-color="#e2c937" offset="1" id="stop43"/>
		</linearGradient>
		<linearGradient gradientUnits="userSpaceOnUse" id="id5" y2="122.815" x2="38.6974" y1="210.27299" x1="58.1848">
			<stop stop-color="#eeb62d" offset="0" id="stop30"/>
			<stop stop-color="#d67c2a" offset="0.5098" id="stop32"/>
			<stop stop-color="#f2ea83" offset="1" id="stop34"/>
		</linearGradient>
		<linearGradient xlink:href="#id3" id="id4" y2="0.50005" x2="1" y1="0.50005" x1="0"/>
		<linearGradient gradientUnits="userSpaceOnUse" id="id3" y2="127.888" x2="80.0159" y1="127.888" x1="37.8985">
			<stop stop-color="#f6d73b" offset="0" id="stop22"/>
			<stop stop-color="#f6da52" offset="0.47843" id="stop24"/>
			<stop stop-color="#f6ecad" offset="1" id="stop26"/>
		</linearGradient>
		<linearGradient xlink:href="#id1" id="id2" y2="0.5" x2="1" y1="0.5" x1="0"/>
		<linearGradient gradientUnits="userSpaceOnUse" id="id1" y2="205.22" x2="80.0103" y1="205.22" x1="37.9125">
			<stop stop-color="#9d6b2d" offset="0" id="stop16"/>
			<stop stop-color="#facb32" offset="1" id="stop18"/>
		</linearGradient>
		<linearGradient gradientUnits="userSpaceOnUse" id="id0" y2="160.099" x2="79.4377" y1="122.7" x1="59.576">
			<stop stop-color="#966724" offset="0" id="stop9"/>
			<stop stop-color="#7c511c" offset="0.52157" id="stop11"/>
			<stop stop-color="#e2c937" offset="1" id="stop13"/>
		</linearGradient>
		<linearGradient xlink:href="#id0" id="linearGradient2701" y2="0.87866" x2="1.32835" y1="0.12134" x1="-0.32849"/>
		<linearGradient xlink:href="#id3" id="linearGradient2703" y2="0.50005" x2="1" y1="0.50005" x1="0"/>
		<linearGradient xlink:href="#id5" id="linearGradient2705" y2="-0.00208" x2="0.03837" y1="1.00208" x1="0.96149"/>
		<linearGradient xlink:href="#id3" id="linearGradient2707" y2="0.50005" x2="1" y1="0.50005" x1="0"/>
		<linearGradient xlink:href="#id1" id="linearGradient2709" y2="0.5" x2="1" y1="0.5" x1="0"/>
		<linearGradient xlink:href="#id5" id="linearGradient2711" y2="0.1788" x2="-0.06684" y1="0.82123" x1="1.06675"/>
		<linearGradient xlink:href="#id5" id="linearGradient2713" y2="0.23119" x2="-0.14797" y1="0.76881" x1="1.14798"/>
		<linearGradient xlink:href="#id1" id="linearGradient2715" y2="0.5" x2="1" y1="0.5" x1="0"/>
		<linearGradient xlink:href="#id0" id="linearGradient2717" y2="1.00835" x2="0.97249" y1="-0.00835" x1="0.02751"/>
		<linearGradient xlink:href="#id6" id="linearGradient2719" y2="0.95751" x2="1.08116" y1="0.04249" x1="-0.08116"/>
		<radialGradient gradientUnits="userSpaceOnUse" xlink:href="#id10" id="radialGradient2721" fy="175.75999" fx="84.3235" r="0.8717" cy="175.75999" cx="84.3235"/>
		<linearGradient xlink:href="#id6" id="linearGradient2723" y2="0.95751" x2="1.08116" y1="0.04249" x1="-0.08116"/>
		<radialGradient gradientUnits="userSpaceOnUse" xlink:href="#id10" id="radialGradient2725" fy="175.75999" fx="84.3235" r="0.8717" cy="175.75999" cx="84.3235"/>
	</defs>

	<g stroke="null" id="layer1">
		<g stroke="null" id="g2542">
			<path stroke="null" fill="#e83032" fill-opacity="0.94118" fill-rule="nonzero" id="path57" d="m44.86274,37.38938c0.0842,-0.08554 0.0842,-0.22185 0,-0.3114l-3.80491,-3.80486c-0.0842,-0.08554 -0.15501,-0.05616 -0.15501,0.06544l0,7.78888c0,0.1176 0.0708,0.14702 0.15501,0.06149l3.80491,-3.79956l0,0l0,0z"/>
			<path stroke="null" fill="#e83032" fill-opacity="0.94118" fill-rule="nonzero" id="path59" d="m40.00335,45.19669c0.08023,-0.0842 0.24462,-0.15103 0.36355,-0.15103l47.27448,0c0.11759,0 0.28197,0.06683 0.36216,0.15103l3.23956,3.24358c0.08956,0.0855 0.06148,0.15099 -0.05745,0.15099l-54.36459,0c-0.11893,0 -0.14697,-0.06549 -0.06679,-0.15099l3.24889,-3.24358l0.00013,0l0.00006,0z"/>
			<path stroke="null" fill="#e83032" fill-opacity="0.94118" fill-rule="nonzero" id="path61" d="m35.06918,46.93957c0,0.12295 0.07081,0.15099 0.16037,0.06549l3.4748,-3.4748c0.0842,-0.08419 0.16037,-0.26328 0.16037,-0.39024l0,-11.83965c0,-0.12162 -0.07616,-0.29672 -0.16037,-0.38628l-3.4748,-3.46939c-0.08956,-0.08554 -0.16037,-0.06148 -0.16037,0.06544l0,19.42943l0,0z"/>
			<g stroke="null" id="g3594" transform="matrix(0.4784182992343682,0,0,0.4784182992343682,-9.846952615867362,86.29173066698043) ">
				<polygon stroke="null" fill="url(#linearGradient2701)" id="polygon63" points="199.8193359375,-90.63772583007812 199.8193359375,-90.63772583007812 199.8223419189453,-90.63772583007812 190.14834594726562,-100.30372619628906 190.1403350830078,-167.9367218017578 199.82533264160156,-177.7337188720703 178.6973419189453,-167.94772338867188 178.68634033203125,-100.3817138671875 "/>
				<polygon stroke="null" fill="url(#linearGradient2703)" id="polygon65" points="178.6923370361328,-167.95071411132812 178.70333862304688,-167.95071411132812 199.82533264160156,-177.7337188720703 157.84434509277344,-177.7337188720703 178.6923370361328,-167.95071411132812 "/>
				<polygon stroke="null" fill="url(#linearGradient2705)" id="polygon67" points="108.90804290771484,-90.63772583007812 108.90804290771484,-90.63772583007812 108.91084289550781,-90.63772583007812 129.99603271484375,-100.3817138671875 129.99603271484375,-167.94772338867188 108.88563537597656,-177.7337188720703 118.66283416748047,-167.9367218017578 118.66283416748047,-100.40072631835938 "/>
				<polygon stroke="null" fill="url(#linearGradient2707)" id="polygon69" points="129.99044799804688,-167.95071411132812 130.00164794921875,-167.95071411132812 151.0142364501953,-177.72271728515625 108.89683532714844,-177.7337188720703 129.99044799804688,-167.95071411132812 "/>
				<polygon stroke="null" fill="url(#linearGradient2709)" id="polygon71" points="108.91084289550781,-90.63772583007812 108.91084289550781,-90.63772583007812 151.00863647460938,-90.63772583007812 129.99603271484375,-100.3817138671875 "/>
				<polygon stroke="null" fill="url(#linearGradient2711)" id="polygon73" points="178.6973419189453,-140.93771362304688 178.6973419189453,-167.94772338867188 157.84434509277344,-177.7337188720703 167.5712432861328,-167.94772338867188 167.5712432861328,-149.23171997070312 178.69534301757812,-140.93771362304688 178.69534301757812,-140.93771362304688 "/>
				<polygon stroke="null" fill="url(#linearGradient2713)" id="polygon75" points="178.68634033203125,-100.36172485351562 178.6973419189453,-140.93472290039062 167.5824432373047,-130.29171752929688 167.5824432373047,-130.29171752929688 167.5601348876953,-100.40072631835938 157.8359375,-90.646728515625 "/>
				<polygon stroke="null" fill="url(#linearGradient2715)" id="polygon77" points="189.3273468017578,-90.63772583007812 199.8193359375,-90.63772583007812 178.68634033203125,-100.3817138671875 157.8359375,-90.646728515625 189.3273468017578,-90.63772583007812 "/>
				<polygon stroke="null" fill="url(#linearGradient2717)" id="polygon79" points="129.99884033203125,-140.93771362304688 141.2594451904297,-149.2427215576172 141.2594451904297,-167.9677276611328 151.0142364501953,-177.72271728515625 129.99603271484375,-167.94772338867188 129.99603271484375,-140.93771362304688 129.99603271484375,-140.93771362304688 "/>
				<polygon stroke="null" fill="url(#linearGradient2719)" id="polygon81" points="141.2594451904297,-130.29171752929688 129.99603271484375,-140.93472290039062 129.98484802246094,-100.3817138671875 129.98484802246094,-100.3817138671875 151.0142364501953,-90.63471984863281 141.2594451904297,-100.3817138671875 "/>
				<polygon stroke="null" fill="url(#radialGradient2721)" id="polygon83" points="141.2594451904297,-130.29171752929688 167.5824432373047,-130.29171752929688 178.6973419189453,-140.93472290039062 129.99603271484375,-140.93472290039062 141.2594451904297,-130.29171752929688 "/>
				<polygon stroke="null" fill="#f2e666" fill-rule="nonzero" id="polygon85" points="178.69534301757812,-140.9407196044922 167.5796356201172,-149.23672485351562 141.2566375732422,-149.23672485351562 129.9932403564453,-140.9407196044922 178.69534301757812,-140.9407196044922 "/>
			</g>
			<path fill="#000000" fill-rule="nonzero" id="polygon87" d="m30.61075,52.41792l3.08858,0l0,3.84743l3.06446,0l0,-3.84743l3.08857,0l0,10.13147l-3.08857,0l0,-4.03497l-3.06446,0l0,4.03497l-3.08858,0l0,-10.13147z"/>
			<path fill="#000000" fill-rule="nonzero" id="polygon89" d="m41.95323,52.4165l3.08857,0l0,10.13146l-3.08857,0l0,-10.13146z"/>
			<path fill="#000000" fill-rule="nonzero" id="path91" d="m53.51493,55.21908c-0.59874,-0.64013 -1.31507,-0.89542 -2.25861,-0.89542c-0.7738,0 -1.3057,0.25528 -1.3057,0.7217c0,1.6358 5.94052,0.18845 5.94052,4.31409c0,1.67859 -1.43401,3.37988 -4.59205,3.37988c-1.93386,0 -3.63517,-0.429 -4.7805,-1.96993l1.86167,-1.35382c0.6696,0.77781 1.61715,1.23088 2.7157,1.23088c1.21618,0 1.70264,-0.44371 1.70264,-0.88206c0,-1.54094 -5.85101,-0.36216 -5.85101,-4.1965c0,-1.98462 1.75747,-3.33711 4.3515,-3.33711c1.51285,0 3.05915,0.429 4.01603,1.59304l-1.80019,1.39526l0,0z"/>
			<path fill="#000000" fill-rule="nonzero" id="polygon93" d="m59.25102,54.42776l-2.97495,0l0,-2.00745l9.04243,0l0,2.00745l-2.97896,0l0,8.12402l-3.08852,0l0,-8.12402z"/>
			<path fill="#000000" fill-rule="nonzero" id="path95" d="m68.93631,57.48438c0,2.72102 0.84331,3.24358 1.90445,3.24358c1.04242,0 1.90047,-0.52257 1.90047,-3.24358c0,-2.57404 -0.70299,-3.24358 -1.90047,-3.24358c-1.24423,0 -1.90445,0.79251 -1.90445,3.24358zm1.90445,5.25227c-3.21953,0 -5.16673,-2.02204 -5.16673,-5.25227c0,-3.2289 1.9472,-5.25227 5.16673,-5.25227c3.21549,0 5.16275,2.02337 5.16275,5.25227c0,3.23023 -1.94726,5.25227 -5.16275,5.25227z"/>
			<path fill="#000000" fill-rule="nonzero" id="path97" d="m80.36711,56.46583l1.60242,0c0.88608,0 1.5329,-0.36355 1.5329,-1.0184c0,-0.64146 -0.44904,-1.09854 -1.40593,-1.09854l-1.72939,0l0,2.11694zm-3.08856,-4.04546l5.1761,0c3.60713,0 4.30475,1.60773 4.30475,2.91884c0,1.25891 -0.8433,2.10758 -2.04613,2.54595l2.01806,4.66689l-3.43203,0l-1.5329,-4.15771l-1.39928,0l0,4.15771l-3.08857,0l0,-10.13168l0,0l0.00001,0z"/>
			<path fill="#000000" fill-rule="nonzero" id="polygon99" d="m90.58039,58.24841l-3.91729,-5.83192l3.50298,0l2.26244,3.44653l2.15957,-3.44653l2.80116,0l-3.72067,5.59176l0,4.54497l-3.08819,0l0,-4.30481z"/>
			<g stroke="null" id="g3608" transform="matrix(0.4784182992343682,0,0,0.4784182992343682,-9.846952615867362,86.29173066698043) ">
				<polygon stroke="null" fill="url(#id7)" id="polygon3610" points="199.8193359375,-90.63772583007812 199.8193359375,-90.63772583007812 199.8223419189453,-90.63772583007812 190.14834594726562,-100.30372619628906 190.1403350830078,-167.9367218017578 199.82533264160156,-177.7337188720703 178.6973419189453,-167.94772338867188 178.68634033203125,-100.3817138671875 "/>
				<polygon stroke="null" fill="url(#id4)" id="polygon3612" points="178.6923370361328,-167.95071411132812 178.70333862304688,-167.95071411132812 199.82533264160156,-177.7337188720703 157.84434509277344,-177.7337188720703 178.6923370361328,-167.95071411132812 "/>
				<polygon stroke="null" fill="url(#linearGradient2481)" id="polygon3614" points="108.90804290771484,-90.63772583007812 108.90804290771484,-90.63772583007812 108.91084289550781,-90.63772583007812 129.99603271484375,-100.3817138671875 129.99603271484375,-167.94772338867188 108.88563537597656,-177.7337188720703 118.66283416748047,-167.9367218017578 118.66283416748047,-100.40072631835938 "/>
				<polygon stroke="null" fill="url(#linearGradient2483)" id="polygon3616" points="129.99044799804688,-167.95071411132812 130.00164794921875,-167.95071411132812 151.0142364501953,-177.72271728515625 108.89683532714844,-177.7337188720703 129.99044799804688,-167.95071411132812 "/>
				<polygon stroke="null" fill="url(#linearGradient2485)" id="polygon3618" points="108.91084289550781,-90.63772583007812 108.91084289550781,-90.63772583007812 151.00863647460938,-90.63772583007812 129.99603271484375,-100.3817138671875 "/>
				<polygon stroke="null" fill="url(#id8)" id="polygon3620" points="178.6973419189453,-140.93771362304688 178.6973419189453,-167.94772338867188 157.84434509277344,-177.7337188720703 167.5712432861328,-167.94772338867188 167.5712432861328,-149.23171997070312 178.69534301757812,-140.93771362304688 178.69534301757812,-140.93771362304688 "/>
				<polygon stroke="null" fill="url(#id9)" id="polygon3622" points="178.68634033203125,-100.36172485351562 178.6973419189453,-140.93472290039062 167.5824432373047,-130.29171752929688 167.5824432373047,-130.29171752929688 167.5601348876953,-100.40072631835938 157.8359375,-90.646728515625 "/>
				<polygon stroke="null" fill="url(#id2)" id="polygon3624" points="189.3273468017578,-90.63772583007812 199.8193359375,-90.63772583007812 178.68634033203125,-100.3817138671875 157.8359375,-90.646728515625 189.3273468017578,-90.63772583007812 "/>
				<polygon stroke="null" fill="url(#linearGradient2487)" id="polygon3626" points="129.99884033203125,-140.93771362304688 141.2594451904297,-149.2427215576172 141.2594451904297,-167.9677276611328 151.0142364501953,-177.72271728515625 129.99603271484375,-167.94772338867188 129.99603271484375,-140.93771362304688 129.99603271484375,-140.93771362304688 "/>
				<polygon stroke="null" fill="url(#linearGradient2723)" id="polygon3628" points="141.2594451904297,-130.29171752929688 129.99603271484375,-140.93472290039062 129.98484802246094,-100.3817138671875 129.98484802246094,-100.3817138671875 151.0142364501953,-90.63471984863281 141.2594451904297,-100.3817138671875 "/>
				<polygon stroke="null" fill="url(#radialGradient2725)" id="polygon3630" points="141.2594451904297,-130.29171752929688 167.5824432373047,-130.29171752929688 178.6973419189453,-140.93472290039062 129.99603271484375,-140.93472290039062 141.2594451904297,-130.29171752929688 "/>
				<polygon stroke="null" fill="#f2e666" fill-rule="nonzero" id="polygon3632" points="178.69534301757812,-140.9407196044922 167.5796356201172,-149.23672485351562 141.2566375732422,-149.23672485351562 129.9932403564453,-140.9407196044922 178.69534301757812,-140.9407196044922 "/>
			</g>
		</g>
	</g>
</svg>