<svg xmlns="http://www.w3.org/2000/svg" width="128" height="64" xmlns:xlink="http://www.w3.org/1999/xlink"><defs><linearGradient xlink:href="#a" id="z" y2="1.008" x2=".972" y1="-.008" x1=".028"/><linearGradient xlink:href="#b" id="v" y2=".5" x2="1" y1=".5"/><linearGradient xlink:href="#c" id="u" y2=".5" x2="1" y1=".5"/><linearGradient xlink:href="#d" id="t" y2="-.002" x2=".038" y1="1.002" x1=".961"/><radialGradient gradientUnits="userSpaceOnUse" id="f" fy="175.76" fx="84.323" r=".872" cy="175.76" cx="84.323"><stop stop-color="#aa722a" offset="0"/><stop stop-color="#aa722a" offset=".839"/><stop stop-color="#c28d29" offset="1"/></radialGradient><linearGradient xlink:href="#d" id="x" y2=".231" x2="-.148" y1=".769" x1="1.148"/><linearGradient xlink:href="#d" id="w" y2=".179" x2="-.067" y1=".821" x1="1.067"/><linearGradient xlink:href="#a" id="r" y2=".879" x2="1.328" y1=".121" x1="-.328"/><linearGradient gradientUnits="userSpaceOnUse" id="e" y2="207.958" x2="81.723" y1="161.932" x1="57.28"><stop stop-color="#966724" offset="0"/><stop stop-color="#865625" offset=".431"/><stop stop-color="#e2c937" offset=".922"/><stop stop-color="#e2c937" offset="1"/></linearGradient><linearGradient gradientUnits="userSpaceOnUse" id="d" y2="122.815" x2="38.697" y1="210.273" x1="58.185"><stop stop-color="#eeb62d" offset="0"/><stop stop-color="#d67c2a" offset=".51"/><stop stop-color="#f2ea83" offset="1"/></linearGradient><linearGradient xlink:href="#c" id="s" y2=".5" x2="1" y1=".5"/><linearGradient gradientUnits="userSpaceOnUse" id="c" y2="127.888" x2="80.016" y1="127.888" x1="37.898"><stop stop-color="#f6d73b" offset="0"/><stop stop-color="#f6da52" offset=".478"/><stop stop-color="#f6ecad" offset="1"/></linearGradient><linearGradient xlink:href="#b" id="y" y2=".5" x2="1" y1=".5"/><linearGradient gradientUnits="userSpaceOnUse" id="b" y2="205.22" x2="80.01" y1="205.22" x1="37.913"><stop stop-color="#9d6b2d" offset="0"/><stop stop-color="#facb32" offset="1"/></linearGradient><linearGradient gradientUnits="userSpaceOnUse" id="a" y2="160.099" x2="79.438" y1="122.7" x1="59.576"><stop stop-color="#966724" offset="0"/><stop stop-color="#7c511c" offset=".522"/><stop stop-color="#e2c937" offset="1"/></linearGradient><linearGradient xlink:href="#a" id="g" y2=".879" x2="1.328" y1=".121" x1="-.328"/><linearGradient xlink:href="#c" id="h" y2=".5" x2="1" y1=".5"/><linearGradient xlink:href="#d" id="i" y2="-.002" x2=".038" y1="1.002" x1=".961"/><linearGradient xlink:href="#c" id="j" y2=".5" x2="1" y1=".5"/><linearGradient xlink:href="#b" id="k" y2=".5" x2="1" y1=".5"/><linearGradient xlink:href="#d" id="l" y2=".179" x2="-.067" y1=".821" x1="1.067"/><linearGradient xlink:href="#d" id="m" y2=".231" x2="-.148" y1=".769" x1="1.148"/><linearGradient xlink:href="#b" id="n" y2=".5" x2="1" y1=".5"/><linearGradient xlink:href="#a" id="o" y2="1.008" x2=".972" y1="-.008" x1=".028"/><linearGradient xlink:href="#e" id="p" y2=".958" x2="1.081" y1=".042" x1="-.081"/><radialGradient gradientUnits="userSpaceOnUse" xlink:href="#f" id="q" fy="175.76" fx="84.323" r=".872" cy="175.76" cx="84.323"/><linearGradient xlink:href="#e" id="A" y2=".958" x2="1.081" y1=".042" x1="-.081"/><radialGradient gradientUnits="userSpaceOnUse" xlink:href="#f" id="B" fy="175.76" fx="84.323" r=".872" cy="175.76" cx="84.323"/></defs><g stroke="null"><path fill="#e83032" fill-opacity=".941" d="M44.863 37.39a.225.225 0 0 0 0-.312l-3.805-3.805c-.084-.085-.155-.056-.155.066v7.78c0 .12.07.147.155.062l3.805-3.8zm-4.86 7.807a.57.57 0 0 1 .364-.15H87.64a.57.57 0 0 1 .364.15l3.24 3.243c.09.086.06.15-.058.15H36.82c-.118 0-.146-.064-.066-.15l3.25-3.243zM35.07 46.94c0 .123.07.15.16.065l3.474-3.475a.64.64 0 0 0 .16-.39V31.3a.663.663 0 0 0-.16-.386l-3.474-3.47c-.09-.085-.16-.06-.16.066v19.43z"/><path fill="url(#g)" d="M199.82-90.638h.002l-9.674-9.666-.008-67.633 9.685-9.797-21.128 9.786-.01 67.566z" transform="matrix(.478 0 0 .478 -9.847 86.292)"/><path fill="url(#h)" d="M178.692-167.95h.01l21.123-9.784h-41.98l20.847 9.783z" transform="matrix(.478 0 0 .478 -9.847 86.292)"/><path fill="url(#i)" d="M108.908-90.638h.003l21.09-9.744v-67.566l-21.11-9.786 9.78 9.797v67.536z" transform="matrix(.478 0 0 .478 -9.847 86.292)"/><path fill="url(#j)" d="M129.99-167.95h.012l21.012-9.773-42.117-.01 21.093 9.782z" transform="matrix(.478 0 0 .478 -9.847 86.292)"/><path fill="url(#k)" d="M108.91-90.638h42.1l-21.014-9.744z" transform="matrix(.478 0 0 .478 -9.847 86.292)"/><path fill="url(#l)" d="M178.697-140.938v-27.01l-20.853-9.786 9.727 9.786v18.716l11.13 8.294z" transform="matrix(.478 0 0 .478 -9.847 86.292)"/><path fill="url(#m)" d="M178.686-100.362l.01-40.573-11.114 10.643-.022 29.89-9.724 9.755z" transform="matrix(.478 0 0 .478 -9.847 86.292)"/><path fill="url(#n)" d="M189.327-90.638h10.492l-21.14-9.744-20.85 9.735 31.49.01z" transform="matrix(.478 0 0 .478 -9.847 86.292)"/><path fill="url(#o)" d="M130-140.938l11.26-8.305v-18.725l9.754-9.755-21.018 9.775v27.01z" transform="matrix(.478 0 0 .478 -9.847 86.292)"/><path fill="url(#p)" d="M141.26-130.292l-11.264-10.643-.01 40.553 21.028 9.747-9.755-9.747z" transform="matrix(.478 0 0 .478 -9.847 86.292)"/><path fill="url(#q)" d="M141.26-130.292h26.322l11.115-10.643h-48.7l11.262 10.643z" transform="matrix(.478 0 0 .478 -9.847 86.292)"/><path fill="#f2e666" d="M75.57 18.922l-5.314-3.965H57.674l-5.384 3.965h23.28z"/><path d="M30.61 52.418h3.09v3.847h3.064v-3.847h3.088v10.13h-3.088v-4.034H33.7v4.035h-3.09V52.41zm11.343-.002h3.09v10.132h-3.09v-10.13zm11.562 2.804c-.6-.64-1.315-.896-2.26-.896-.772 0-1.304.255-1.304.72 0 1.637 5.94.19 5.94 4.315 0 1.67-1.43 3.38-4.59 3.38-1.93 0-3.63-.43-4.78-1.97l1.86-1.36c.67.776 1.62 1.23 2.72 1.23 1.22 0 1.706-.444 1.706-.88 0-1.54-5.85-.36-5.85-4.198 0-1.985 1.756-3.337 4.35-3.337 1.513 0 3.06.43 4.016 1.593l-1.8 1.396zm5.735-.792h-2.974V52.42h9.042v2.008H62.34v8.124h-3.09v-8.124zm9.686 3.056c0 2.72.844 3.244 1.905 3.244 1.05 0 1.9-.523 1.9-3.244 0-2.574-.7-3.243-1.9-3.243-1.24 0-1.9.8-1.9 3.25zm1.905 5.253c-3.22 0-5.16-2.022-5.16-5.253 0-3.23 1.948-5.252 5.168-5.252 3.216 0 5.164 2.023 5.164 5.252 0 3.23-1.95 5.253-5.163 5.253zm9.53-6.27h1.605c.887 0 1.533-.365 1.533-1.02 0-.64-.45-1.098-1.406-1.098h-1.73v2.11zm-3.09-4.047h5.178c3.607 0 4.304 1.608 4.304 2.92 0 1.258-.847 2.107-2.05 2.545l2.02 4.667H83.3l-1.534-4.158h-1.4v4.158H77.28V52.42zm13.3 5.828l-3.914-5.832h3.503l2.262 3.447 2.155-3.447h2.8l-3.72 5.592v4.545H90.58v-4.305z"/><path fill="url(#r)" d="M199.82-90.638h.002l-9.674-9.666-.008-67.633 9.685-9.797-21.128 9.786-.01 67.566z" transform="matrix(.478 0 0 .478 -9.847 86.292)"/><path fill="url(#s)" d="M178.692-167.95h.01l21.123-9.784h-41.98l20.847 9.783z" transform="matrix(.478 0 0 .478 -9.847 86.292)"/><path fill="url(#t)" d="M108.908-90.638h.003l21.09-9.744v-67.566l-21.11-9.786 9.78 9.797v67.536z" transform="matrix(.478 0 0 .478 -9.847 86.292)"/><path fill="url(#u)" d="M129.99-167.95h.012l21.012-9.773-42.117-.01 21.093 9.782z" transform="matrix(.478 0 0 .478 -9.847 86.292)"/><path fill="url(#v)" d="M108.91-90.638h42.1l-21.014-9.744z" transform="matrix(.478 0 0 .478 -9.847 86.292)"/><path fill="url(#w)" d="M178.697-140.938v-27.01l-20.853-9.786 9.727 9.786v18.716l11.13 8.294z" transform="matrix(.478 0 0 .478 -9.847 86.292)"/><path fill="url(#x)" d="M178.686-100.362l.01-40.573-11.114 10.643-.022 29.89-9.724 9.755z" transform="matrix(.478 0 0 .478 -9.847 86.292)"/><path fill="url(#y)" d="M189.327-90.638h10.492l-21.14-9.744-20.85 9.735 31.49.01z" transform="matrix(.478 0 0 .478 -9.847 86.292)"/><path fill="url(#z)" d="M130-140.938l11.26-8.305v-18.725l9.754-9.755-21.018 9.775v27.01z" transform="matrix(.478 0 0 .478 -9.847 86.292)"/><path fill="url(#A)" d="M141.26-130.292l-11.264-10.643-.01 40.553 21.028 9.747-9.755-9.747z" transform="matrix(.478 0 0 .478 -9.847 86.292)"/><path fill="url(#B)" d="M141.26-130.292h26.322l11.115-10.643h-48.7l11.262 10.643z" transform="matrix(.478 0 0 .478 -9.847 86.292)"/><path fill="#f2e666" d="M75.57 18.922l-5.314-3.965H57.674l-5.384 3.965h23.28z"/></g></svg>