<svg xmlns="http://www.w3.org/2000/svg" xmlns:xlink="http://www.w3.org/1999/xlink" width="128" height="64"><defs><linearGradient xlink:href="#a" id="c" gradientUnits="userSpaceOnUse" gradientTransform="translate(.02 10.926) scale(.1279)" x1="500.199" x2="500.199" y2="329.519"/><linearGradient xlink:href="#a" id="b" gradientUnits="userSpaceOnUse" gradientTransform="translate(.02 10.926) scale(.1279)" x1="500.199" x2="500.199" y2="329.519"/></defs><linearGradient id="a" gradientUnits="userSpaceOnUse" x1="500.199" x2="500.199" y2="329.519" gradientTransform="scale(.1279)"><stop offset="0" stop-color="#a5cd39"/><stop offset=".248" stop-color="#a1ca3a"/><stop offset=".504" stop-color="#95c33d"/><stop offset=".764" stop-color="#81b941"/><stop offset="1" stop-color="#66ae45"/></linearGradient><path d="M78.398 53.074h10.165V10.926H78.398zM60.49 41.084a2.722 2.722 0 01-2.72 2.722h-5.913a2.721 2.721 0 01-2.725-2.723V24.078H38.97V41.93c0 7.297 4.668 11.143 11.57 11.143h9.95v-.053c6.357 0 10.165-4.523 10.165-11.09V24.078H60.489v17.005zm57.328-17.006v17.005a2.722 2.722 0 01-2.72 2.723h-5.913a2.72 2.72 0 01-2.723-2.723V24.078H96.296V41.93c0 7.297 4.668 11.143 11.571 11.143h9.95v-.053c6.357 0 10.162-4.523 10.162-11.09V24.078zm-97.682 0h-6.517c-2.289 0-3.435.616-3.435.616V10.926H.021v42.148h10.162V36.066a2.722 2.722 0 012.723-2.723h5.914a2.72 2.72 0 012.721 2.723v17.008h10.165V34.749c0-7.706-5.14-10.671-11.571-10.671z" fill="url(#b)"/><path d="M78.398 53.074h10.165V10.926H78.398zM60.49 41.084a2.722 2.722 0 01-2.72 2.722h-5.913a2.721 2.721 0 01-2.725-2.723V24.078H38.97V41.93c0 7.297 4.668 11.143 11.57 11.143h9.95v-.053c6.357 0 10.165-4.523 10.165-11.09V24.078H60.489v17.005zm57.328-17.006v17.005a2.722 2.722 0 01-2.72 2.723h-5.913a2.72 2.72 0 01-2.723-2.723V24.078H96.296V41.93c0 7.297 4.668 11.143 11.571 11.143h9.95v-.053c6.357 0 10.162-4.523 10.162-11.09V24.078zm-97.682 0h-6.517c-2.289 0-3.435.616-3.435.616V10.926H.021v42.148h10.162V36.066a2.722 2.722 0 012.723-2.723h5.914a2.72 2.72 0 012.721 2.723v17.008h10.165V34.749c0-7.706-5.14-10.671-11.571-10.671z" fill="url(#c)"/></svg>