<svg xmlns="http://www.w3.org/2000/svg" width="128" height="64"><g transform="matrix(1.10675 0 0 1.10598 -351.04 -556.726)"><path style="line-height:125%;text-align:start" d="M330.308 547.537v-31.2h8.983v31.2zm29.41-8.724c8.646-.039 10.514-13.525.148-14.44-9.336.184-9.511 14.053-.148 14.44zm-15.749-7.453c0-2.164.393-4.21 1.18-6.139.785-1.929 1.943-3.689 3.474-5.281a15.766 15.766 0 015.067-3.475 15.008 15.008 0 015.955-1.21c2.123 0 4.138.404 6.047 1.21a15.337 15.337 0 015.066 3.475 15.795 15.795 0 013.399 5.22c.775 1.95 1.163 4.016 1.163 6.2s-.388 4.25-1.163 6.2a15.794 15.794 0 01-3.399 5.22 15.336 15.336 0 01-11.113 4.684c-2.082 0-4.067-.403-5.955-1.21a15.765 15.765 0 01-5.067-3.474c-1.53-1.593-2.689-3.353-3.475-5.282-.786-1.929-1.179-3.975-1.179-6.138zm54.92 16.177v-17.298c0-1.45-.42-2.628-1.256-3.536-.837-.909-1.919-1.363-3.245-1.363-1.327 0-2.414.454-3.26 1.363-.848.908-1.272 2.087-1.272 3.536v17.298h-9.705V531.8c0-4.857 1.301-8.725 3.904-11.603 2.602-2.878 6.046-4.317 10.333-4.317 2.326 0 4.505.515 6.536 1.546 2.031 1.03 3.74 2.495 5.128 4.393a12.952 12.952 0 011.96 4.195c.408 1.53.612 3.46.612 5.786v15.737z" font-weight="400" font-size="353.016" font-family="Bitstream Vera Sans" fill="#5ca8c5"/><circle style="marker:none" transform="matrix(.72193 0 0 .72193 119.907 157.953)" cx="297.575" cy="485.013" r="6.384" overflow="visible" fill="#5ca8c5"/><circle style="marker:none" transform="matrix(.7563 0 0 .7563 190.002 175.296)" cx="297.575" cy="485.013" r="6.384" overflow="visible" fill="#ff7200"/><path style="marker:none" overflow="visible" fill="#fff" d="M413.851 538.734h2.295v6.418h-2.295z"/><path style="marker:none" overflow="visible" fill="#fff" d="M418.208 540.796v2.295h-6.418v-2.295z"/><path style="line-height:125%;text-align:start" d="M333.506 561.107v-8.59h-3.216v-1.483h7.94v1.482h-3.216v8.591zm6.908 0v-10.073h6.375v1.52h-4.494v2.17h2.872v1.565h-2.872v3.214h4.487v1.604zm7.982 0v-10.11h1.728v8.506h4.659v1.604zm7.995 0v-10.073h6.375v1.52h-4.8v2.17h3.178v1.603h-3.177v3.176h4.792v1.604zm10.69.008l-3.801-10.119h1.794l2.533 6.39 2.594-6.39h1.88l-3.917 10.12-1.083-.001zm6.35.017v-10.156h1.62v10.156zm7.846-2.637c0-.27-.072-.515-.217-.734-.144-.213-.508-.49-1.093-.831l-.629-.36c-.898-.52-1.753-1-2.07-1.44a2.53 2.53 0 01-.483-1.533c0-.73.268-1.353.803-1.873.536-.52 1.313-.666 2.31-.779.846-.096 1.867.093 2.578.545l-.506 1.51c-1.035-.56-2.098-.924-3.178-.408-.243.212-.365.466-.365.763 0 .227.072.438.216.635.14.196.502.465 1.087.805l.673.387c1.03.598 1.983 1.117 2.266 1.558.28.445.42.945.42 1.5 0 .794-.291 1.473-.874 2.036-1.856 1.381-4.167.956-5.804-.242l.841-1.381c.628.923 3.588 1.554 4.025-.158zm3.924 2.637v-10.156h1.536v10.156zm7.961-.011c-.979 0-1.83-.209-2.555-.626a4.045 4.045 0 01-1.652-1.8c-.377-.784-.566-1.671-.566-2.662 0-.987.189-1.873.566-2.659a4.032 4.032 0 011.659-1.804c.728-.417 1.578-.625 2.548-.625.966 0 1.813.208 2.542.625a4.032 4.032 0 011.659 1.804c.377.786.565 1.672.565 2.659 0 .99-.188 1.878-.565 2.662a4.05 4.05 0 01-1.65 1.8c-.722.417-1.572.626-2.55.626zm0-1.336c.907 0 1.581-.381 2.024-1.143.443-.762.664-1.634.664-2.616 0-.986-.222-1.858-.667-2.616-.445-.757-1.119-1.136-2.02-1.136-.908 0-1.583.379-2.028 1.136-.445.758-.667 1.63-.667 2.616 0 .982.22 1.854.664 2.616.442.762 1.12 1.143 2.03 1.143zm6.328 1.347v-10.156h1.427l4.57 5.903v-5.86h1.655v10.113h-1.248l-4.834-6.494v6.494z" font-weight="400" font-size="89.257" font-family="Bitstream Vera Sans" fill="#5ca8c5"/></g></svg>