<svg xmlns="http://www.w3.org/2000/svg" width="128" height="64"><path fill="#00beca" d="M1.396 8.946C1.396 4.434 4.593.74 9.73.74c5.408 0 8.308 3.875 8.308 8.425 0 5.004-3.664 8.038-8.27 8.038-5.012 0-8.372-3.42-8.372-8.257zm.042 15.11c0-.767.43-1.322 1.29-1.322h14.04c.743 0 1.233.587 1.233 1.31v21.524c0 3.67 2.09 7.938 8.54 7.938 6.28 0 9.53-3.908 9.53-11.887v-1.68l6.67 12.69.86 4.3s-6.54 6.32-18.4 6.32c-5.88 0-23.76-.97-23.76-20.52V24.05z"/><path fill="#8c7b11" d="M43.598 56.934l6.668-17.208 2.15-2.15v3.01c0 7.244 3.515 12.817 12.607 12.817 8.29 0 14.126-4.697 14.126-11.985 0-3.705-1.8-6.644-1.8-6.644l9.4 4.696.82 11.44s-6.26 12.284-23.916 12.284c-13.785 0-20.07-6.26-20.07-6.26z"/><path d="M43.598 56.934s-7.53-5.753-7.53-16.51V9.61c0-2.477 1.6-4.624 8.265-4.624 7.284 0 8.084 2.835 8.084 4.963v12.78h12.906c.93 0 1.29.54 1.29 1.4v7.62c0 .72-.294 1.29-1.14 1.29h-8.54c-2.213 0-4.516-.86-4.516-.86v5.163c0 6.435-1.663 13.01-8.82 19.572z"/><path fill="#ffab00" d="M87.585 50.91l2.05-22.514.926-3.918s4.09 5.963 14.51 25.146c6.62-12.032 10.84-26.41 10.84-26.41.3-.982 1.08-1.22 2.22-.92l7.15 2.207c.87.31 1.34.66.85 2.27-5.94 17.29-15.244 31.55-15.244 31.55-1.79 2.66-3.614 4.91-9.66 4.91-4.876 0-6.574-1.66-8.273-4.19L87.6 50.92z"/><path fill="#c80063" d="M87.585 50.91L76.45 33.367c-.668-1.25-1.177-2.01-1.177-3.495.008-2.182 1.143-3.76 4.99-6.17.83-.546 3.826-1.737 6.253-1.737 3.273 0 5.715 3.388 5.715 10.476 0 11.53-4.64 18.47-4.64 18.47z"/></svg>