<?xml version="1.0" encoding="UTF-8" standalone="no"?>

<svg xmlns:svg="http://www.w3.org/2000/svg" xmlns="http://www.w3.org/2000/svg" version="1.1" width="128" height="64" xmlns:xlink="http://www.w3.org/1999/xlink">
	<g transform="matrix(0.21509872040913103,0,0,0.21509872040913103,-10.215022887684135,-82.52353950684243) " id="g3030">
		<path fill="#00beca" id="path3018" d="m53.97845,425.24472c0,-20.97791 14.86242,-38.14517 38.74494,-38.14517c25.14388,0 38.625,18.01001 38.625,39.16479c0,23.26379 -17.03438,37.36548 -38.44507,37.36548c-23.3032,0 -38.92487,-15.89551 -38.92487,-38.3851z"/>
		<path fill="#00beca" id="path3020" d="m54.17701,495.49475c0,-3.57074 2.00231,-6.15179 6,-6.15179l65.2723,0c3.44819,0 5.7277,2.73282 5.7277,6.09155l0,100.06647c0,17.06097 9.71449,36.90332 39.69604,36.90332c29.19891,0 44.30396,-18.16852 44.30396,-55.26318l0,-7.79816l31,59l4,20c0,0 -30.41502,29.40375 -85.54153,29.40375c-27.36142,-0.00006 -110.45846,-4.48859 -110.45846,-95.40375l0,-86.84821z"/>
		<path fill="#8c7b11" id="path3024" d="m250.177,648.34296l31,-80l10,-10l0,14c0,33.67377 16.33606,59.58154 58.60657,59.58154c38.54376,0 65.6745,-21.8349 65.6745,-55.71838c0,-17.22247 -8.33679,-30.888 -8.33679,-30.888l43.72302,21.83154l3.8327,53.1933c0,0 -29.1163,57.10382 -111.19098,57.10382c-64.0896,0 -93.30902,-29.10382 -93.30902,-29.10382z"/>
		<path fill="#000000" id="path3022" d="m250.177,648.34296c0,0 -35,-26.74652 -35,-76.75903l0,-143.24097c0,-11.51807 7.43234,-21.49933 38.41957,-21.49933c33.86427,0 37.58043,13.18152 37.58043,23.07086l0,59.42847l60,0c4.32932,0 6,2.53061 6,6.54022l0,35.45978c0,3.35303 -1.36798,6 -5.30359,6l-39.69641,0c-10.29404,0 -21,-4 -21,-4l0,24c0,29.92444 -7.73251,60.49109 -41,91z"/>
		<path fill="#ffab00" id="path3028" d="m454.677,620.34296l9.52731,-104.67542l4.3046,-18.21509c0,0 19.01379,27.72198 67.453,116.90302c30.76373,-55.93604 50.38306,-122.77679 50.38306,-122.77679c1.37744,-4.56897 5.02527,-5.67511 10.3056,-4.28339l33.20697,10.26318c4.0318,1.43878 6.21918,3.03159 3.94891,10.52817c-27.62067,80.38034 -70.87183,146.68546 -70.87183,146.68546c-8.3269,12.34015 -16.8092,22.81659 -44.91211,22.81659c-22.67267,0 -30.56873,-7.72241 -38.46582,-19.50861l-24.8797,-37.73712z"/>
		<path fill="#c80063" id="path3026" d="m454.677,620.34296l-51.76794,-81.57153c-3.10693,-5.81384 -5.47488,-9.33966 -5.47488,-16.24445c0.04001,-10.14929 5.31369,-17.48764 23.19571,-28.69122c3.86407,-2.53909 17.7908,-8.07452 29.07489,-8.07452c15.21701,0 26.56967,15.74988 26.56967,48.70111c0,53.61536 -21.59744,85.88062 -21.59744,85.88062z"/>
	</g>
</svg>