<svg xmlns="http://www.w3.org/2000/svg" width="128" height="64"><g transform="matrix(.75 0 0 .75 .2 13.378)"><path d="M126.25 21.616c0 8.797-4.176 13.862-18.332 23.665-.557.39-.412.9.03.9h16.58c1.175 0 1.788.45 1.943 1.58.19 1.37.28 2.48.28 3.91 0 1.458-.14 2.68-.37 3.79-.25 1.18-.77 1.647-1.904 1.647H92.05c-1.43 0-2.036-.465-2.566-1.694l-1.103-2.84c-.38-1.102-.65-1.99-.65-2.976 0-1.636.88-2.454 2.02-3.266 17.09-12.196 23.03-16.604 23.03-23.154 0-3.392-2.53-5.778-6.904-5.778-4.344 0-8.27 1.762-12.445 5.054-1.11.875-2.083.75-2.676-.353-.824-1.543-1.974-4.193-2.68-6.696-.414-1.476-.132-2.6.806-3.254 1.15-.804 3.8-2.124 5.156-2.662C97.81 7.99 102.536 6.9 107.92 6.9c10.28 0 18.332 5.497 18.332 14.717m-97.024-7.212c-2.027 0-3.69.367-4.512 1.116-.557.51-.813 1.19-.813 2.18v20.25c0 3.368-.54 5.19-1.73 6.47-1.047 1.126-2.69 1.735-4.5 1.735-1.764 0-3.33-.587-4.262-1.572-.97-1.03-1.424-2.454-1.424-4.563V26.83c0-.578-.216-.834-.853-.834H2.16c-.63 0-.838.247-.838.836v11.92c0 4.76 1.227 7.477 3.37 9.62 2.782 2.783 7.54 4.025 12.06 4.025 4.514 0 9.22-1.6 12.002-4.17 2.73 2.49 7.69 4.168 13.166 4.168 7.233 0 12.55-2.99 15.654-8.075 1.378 2.134 2.396 3.72 3.374 5.167 1.44 2.13 2.752 2.91 5.686 2.91 2.778 0 4.446-.667 5.95-2.965 3.94-6.028 7.3-13.155 9.72-19.713.305-.83.52-1.42.52-1.8 0-.386-.25-.688-.846-.876-.578-.184-2.132-.66-2.912-.898-1.295-.396-1.765-.51-2.046-.51-.524 0-.81.292-.99.897-1.817 6.044-4.58 12.834-7.045 17.05-.807-1.54-2.3-4.22-3.685-6.634-2.142-3.74-4.26-7.51-5.32-9.244-1.075-1.75-1.794-2.22-3.207-2.22-2.913 0-7.228 2.614-7.228 5.05 0 .83.23 1.448 1.09 2.914.975 1.668 1.465 3.02 1.465 4.68 0 4.147-3.094 7.9-9.07 7.9-2.84 0-5.028-.804-6.455-2.27-1.36-1.396-2.023-3.276-2.023-6.413V32.08c.996.427 2.22.643 3.696.643h4.732c.638 0 .862-.256.862-.832v-5.07c0-.573-.224-.83-.862-.83h-8.428V17.7c0-.992-.26-1.672-.816-2.18-.822-.75-2.516-1.116-4.513-1.116M6.65 22.32c-3.34 0-5.4-2.37-5.4-5.354 0-2.987 2.06-5.355 5.4-5.355 3.337 0 5.398 2.37 5.398 5.36 0 2.988-2.06 5.358-5.4 5.358" fill="#ee263a"/><circle fill="#ee263a" fill-rule="evenodd" cx="150.712" cy="11.162" r="18.506"/><path d="M143.377 14.6h-3.275c-.31 0-.467-.3-.467-1.217 0-.855.118-1.197.508-1.197h3.234V8.62h2.556v3.566h3.808V14.6h-3.8v3.273c0 .34-.27.507-1.34.507-1.017 0-1.216-.17-1.216-.487zm13.856 4.37c-.944 0-1.545-.05-1.545-.67V7.246a62.616 62.616 0 01-3.842 2.26l-1.197-2.412c2.59-1.543 4.04-2.406 5-3.046.26-.17.505-.292 1.23-.292h1.074c.713 0 .87.162.87.65V18.36c0 .504-.572.61-1.6.61z" fill="#fff"/></g></svg>