<?xml version="1.0" encoding="UTF-8" standalone="no"?>

<svg xmlns:svg="http://www.w3.org/2000/svg" xmlns="http://www.w3.org/2000/svg" version="1.1" width="128" height="64" xmlns:xlink="http://www.w3.org/1999/xlink">
	<g transform="matrix(0.74853543,0,0,0.74853543,0.19941113,13.37785)">
		<g transform="matrix(1.1245277,0,0,-1.1245277,-25.031694,915.11272)">
			<path fill="#ee263a" fill-rule="nonzero" d="m 134.52856,794.55328 c 0,-7.823 -3.713,-12.32703 -16.30099,-21.04498 -0.49599,-0.34399 -0.367,-0.79803 0.025,-0.79803 l 14.745,0 c 1.045,0 1.59,-0.401 1.728,-1.40698 0.168,-1.21802 0.248,-2.20099 0.248,-3.47003 0,-1.297 -0.127,-2.38196 -0.33501,-3.37 -0.22099,-1.04895 -0.68399,-1.46497 -1.69299,-1.46497 l -28.828,0 c -1.273,0 -1.812,0.414 -2.283,1.50696 l -0.981,2.52606 c -0.339,0.97998 -0.581,1.76794 -0.581,2.646 0,1.45398 0.783,2.18195 1.794,2.90399 15.201,10.84296 20.48199,14.763 20.48199,20.58795 0,3.01605 -2.248,5.138 -6.141,5.138 -3.863,0 -7.354,-1.56696 -11.06699,-4.49396 -0.98701,-0.77802 -1.85201,-0.66901 -2.37901,0.31396 -0.73399,1.37103 -1.757,3.72705 -2.384,5.953 -0.369,1.31403 -0.118,2.31201 0.716,2.89502 1.023,0.71503 3.379,1.88898 4.587,2.367 3.355,1.328 7.559,2.297 12.345,2.297 9.14101,0 16.30299,-4.88702 16.30299,-13.086" />
			<path fill="#ee263a" fill-rule="nonzero" d="m 48.24648,800.96619 c -1.802,0 -3.282,-0.32599 -4.012,-0.992 -0.497,-0.45203 -0.725,-1.05701 -0.725,-1.94 l 0,-18.00598 c 0,-2.99304 -0.481,-4.61603 -1.539,-5.75299 -0.93,-1 -2.391,-1.54102 -3.999,-1.54102 -1.57,0 -2.962,0.52197 -3.791,1.39801 -0.865,0.91498 -1.269,2.18298 -1.269,4.05798 l 0,11.72699 c 0,0.513 -0.192,0.74103 -0.759,0.74103 l -7.971,0 c -0.561,0 -0.746,-0.22003 -0.746,-0.74402 l 0,-10.60101 c 0,-4.23199 1.091,-6.64801 2.996,-8.55298 2.475,-2.47504 6.705,-3.58002 10.725,-3.58002 4.014,0 8.2,1.42303 10.673,3.70801 2.428,-2.21301 6.839,-3.70599 11.708,-3.70599 6.432,0 11.161,2.659 13.921,7.18097 1.22501,-1.89795 2.13,-3.30896 3,-4.59497 1.28101,-1.89301 2.447,-2.58801 5.05601,-2.58801 2.47099,0 3.95399,0.59302 5.29099,2.63702 3.505,5.35999 6.492,11.698 8.645,17.52997 0.27,0.73004 0.46201,1.26202 0.46201,1.59503 0,0.34198 -0.222,0.60999 -0.75301,0.77795 -0.51399,0.16302 -1.896,0.58704 -2.58899,0.79803 -1.15201,0.35101 -1.57001,0.45398 -1.82001,0.45398 -0.466,0 -0.71899,-0.26099 -0.881,-0.79901 -1.61501,-5.37299 -4.072,-11.41095 -6.264,-15.16199 -0.718,1.37 -2.04501,3.75299 -3.277,5.901 -1.905,3.32501 -3.787,6.67999 -4.732,8.22101 -0.95499,1.55798 -1.594,1.97302 -2.851,1.97302 -2.59,0 -6.427,-2.32404 -6.427,-4.49103 0,-0.73596 0.205,-1.28699 0.968,-2.58997 0.868,-1.48206 1.304,-2.685 1.304,-4.16302 0,-3.685 -2.752,-7.02301 -8.067,-7.02301 -2.523,0 -4.47,0.716 -5.739,2.01801 -1.21,1.24298 -1.799,2.914 -1.799,5.70398 l 0,4.68201 c 0.886,-0.38 1.975,-0.57196 3.287,-0.57196 l 4.208,0 c 0.567,0 0.766,0.22797 0.766,0.73999 l 0,4.508 c 0,0.513 -0.199,0.74097 -0.766,0.74097 l -7.495,0 0,7.37402 c 0,0.883 -0.23,1.48798 -0.726,1.94 -0.731,0.66602 -2.237,0.992 -4.013,0.992 m -20.074,-7.03998 c -2.968,0 -4.801,2.10699 -4.801,4.76196 0,2.65601 1.833,4.76202 4.801,4.76202 2.968,0 4.801,-2.10602 4.801,-4.76202 0,-2.65497 -1.83301,-4.76196 -4.801,-4.76196" />
		</g>
		<circle fill="#ee263a" fill-opacity="1" fill-rule="evenodd" cx="150.71162" cy="11.162201" r="18.50598" />
		<g transform="matrix(0.02028725,0,0,0.02028725,124.12099,-0.91812296)">
			<path fill="#ffffff" fill-opacity="1" d="m 949.16553,764.90898 -161.43075,0 c -15.34633,0 -23,-14.82515 -23,-60 0,-42.12619 5.79062,-59 25,-59 l 159.43075,0 0,-175.79779 125.99997,0 0,175.79779 187.6967,0 0,119 -187.6967,0 0,161.32965 c 0,16.72978 -13.2231,25 -66,25 -50.1718,0 -59.99997,-8.42839 -59.99997,-24 z" />
			<path fill="#ffffff" fill-opacity="1" d="m 1632.1429,980.3979 c -46.5146,0 -76.1429,-2.47709 -76.1429,-33.03572 l 0,-545 c -67.5356,43.02833 -129.9211,79.18982 -189.3899,111.46243 l -58.9676,-118.94547 c 127.7314,-76.0379 199.3666,-118.59056 246.856,-150.13392 12.828,-8.40252 24.8774,-14.38304 60.5015,-14.38304 l 53,0 c 35.1679,0 43,7.95975 43,32 l 0,688 c 0,24.84715 -28.2533,30.03572 -78.8571,30.03572 z" />
		</g>
	</g>
</svg>
