<?xml version="1.0" encoding="UTF-8" standalone="no"?>

<svg xmlns:svg="http://www.w3.org/2000/svg" xmlns="http://www.w3.org/2000/svg" version="1.1" width="128" height="64" xmlns:xlink="http://www.w3.org/1999/xlink">
	<defs>
		<clipPath clipPathUnits="userSpaceOnUse" id="clipPath3401">
			<path d="m491.35699,699.25403l49.26501,0l0,48.86499l-49.26501,0l0,-48.86499z" id="path3403"/>
		</clipPath>
		<clipPath clipPathUnits="userSpaceOnUse" id="clipPath3381">
			<path d="m229.295,390.88901l166.13802,0l0,134.905l-166.13802,0l0,-134.905z" id="path3383"/>
		</clipPath>
		<clipPath clipPathUnits="userSpaceOnUse" id="clipPath3369">
			<path d="m229.295,534.29797l166.13802,0l0,134.90497l-166.13802,0l0,-134.90497z" id="path3371"/>
		</clipPath>
		<clipPath clipPathUnits="userSpaceOnUse" id="clipPath3357">
			<path d="m54.653,534.29797l166.138,0l0,134.90497l-166.138,0l0,-134.90497z" id="path3359"/>
		</clipPath>
		<clipPath clipPathUnits="userSpaceOnUse" id="clipPath3345">
			<path d="m54.653,390.88901l166.138,0l0,134.905l-166.138,0l0,-134.905z" id="path3347"/>
		</clipPath>
		<clipPath clipPathUnits="userSpaceOnUse" id="clipPath3329">
			<path d="m0,0l595.276,0l0,841.89001l-595.276,0l0,-841.89001z" id="path3331"/>
		</clipPath>
		<clipPath clipPathUnits="userSpaceOnUse" id="clipPath3313">
			<path d="m23.37157,762.99817l111.602,0l0,44.64099l-111.602,0l0,-44.64099z" id="path3315"/>
		</clipPath>
		<clipPath clipPathUnits="userSpaceOnUse" id="clipPath3273">
			<path d="m502.866,289.86401l36.88303,0l0,36.582l-36.88303,0l0,-36.582z" id="path3275"/>
		</clipPath>
		<clipPath clipPathUnits="userSpaceOnUse" id="clipPath3241">
			<path d="m418.98001,462.61301l52.84399,0l0,52.41501l-52.84399,0l0,-52.41501z" id="path3243"/>
		</clipPath>
		<clipPath clipPathUnits="userSpaceOnUse" id="clipPath2999">
			<path d="m0,0l595.27502,0l0,841.89001l-595.27502,0l0,-841.89001z" id="path3001"/>
		</clipPath>
	</defs>

	<g stroke="null" id="layer1">
		<g stroke="null" id="g2993" transform="matrix(1.1245277301594971,0,0,-1.1245277301594971,-25.031693919741393,915.1127191149146) ">
			<g stroke="null" id="g2995"/>
			<g stroke="null" fill="#ee263a" id="g3309">
				<g stroke="null" fill="#ee263a" id="g3311" clip-path="url(#clipPath3313)">
					<g stroke="null" fill="#ee263a" id="g3317">
						<path fill="#ee263a" fill-rule="nonzero" d="m134.52856,794.55328c0,-7.823 -3.713,-12.32703 -16.30099,-21.04498c-0.49599,-0.34399 -0.367,-0.79803 0.025,-0.79803l14.745,0c1.045,0 1.59,-0.401 1.728,-1.40698c0.168,-1.21802 0.248,-2.20099 0.248,-3.47003c0,-1.297 -0.127,-2.38196 -0.33501,-3.37c-0.22099,-1.04895 -0.68399,-1.46497 -1.69299,-1.46497l-28.828,0c-1.273,0 -1.812,0.414 -2.283,1.50696l-0.981,2.52606c-0.339,0.97998 -0.581,1.76794 -0.581,2.646c0,1.45398 0.783,2.18195 1.794,2.90399c15.201,10.84296 20.48199,14.763 20.48199,20.58795c0,3.01605 -2.248,5.138 -6.141,5.138c-3.863,0 -7.354,-1.56696 -11.06699,-4.49396c-0.98701,-0.77802 -1.85201,-0.66901 -2.37901,0.31396c-0.73399,1.37103 -1.757,3.72705 -2.384,5.953c-0.369,1.31403 -0.118,2.31201 0.716,2.89502c1.023,0.71503 3.379,1.88898 4.587,2.367c3.355,1.328 7.559,2.297 12.345,2.297c9.14101,0 16.30299,-4.88702 16.30299,-13.086" id="path3319"/>
					</g>
					<g stroke="null" fill="#ee263a" id="g3321">
						<path fill="#ee263a" fill-rule="nonzero" d="m48.24648,800.96619c-1.802,0 -3.282,-0.32599 -4.012,-0.992c-0.497,-0.45203 -0.725,-1.05701 -0.725,-1.94l0,-18.00598c0,-2.99304 -0.481,-4.61603 -1.539,-5.75299c-0.93,-1 -2.391,-1.54102 -3.999,-1.54102c-1.57,0 -2.962,0.52197 -3.791,1.39801c-0.865,0.91498 -1.269,2.18298 -1.269,4.05798l0,11.72699c0,0.513 -0.192,0.74103 -0.759,0.74103l-7.971,0c-0.561,0 -0.746,-0.22003 -0.746,-0.74402l0,-10.60101c0,-4.23199 1.091,-6.64801 2.996,-8.55298c2.475,-2.47504 6.705,-3.58002 10.725,-3.58002c4.014,0 8.2,1.42303 10.673,3.70801c2.428,-2.21301 6.839,-3.70599 11.708,-3.70599c6.432,0 11.161,2.659 13.921,7.18097c1.22501,-1.89795 2.13,-3.30896 3,-4.59497c1.28101,-1.89301 2.447,-2.58801 5.05601,-2.58801c2.47099,0 3.95399,0.59302 5.29099,2.63702c3.505,5.35999 6.492,11.698 8.645,17.52997c0.27,0.73004 0.46201,1.26202 0.46201,1.59503c0,0.34198 -0.222,0.60999 -0.75301,0.77795c-0.51399,0.16302 -1.896,0.58704 -2.58899,0.79803c-1.15201,0.35101 -1.57001,0.45398 -1.82001,0.45398c-0.466,0 -0.71899,-0.26099 -0.881,-0.79901c-1.61501,-5.37299 -4.072,-11.41095 -6.264,-15.16199c-0.718,1.37 -2.04501,3.75299 -3.277,5.901c-1.905,3.32501 -3.787,6.67999 -4.732,8.22101c-0.95499,1.55798 -1.594,1.97302 -2.851,1.97302c-2.59,0 -6.427,-2.32404 -6.427,-4.49103c0,-0.73596 0.205,-1.28699 0.968,-2.58997c0.868,-1.48206 1.304,-2.685 1.304,-4.16302c0,-3.685 -2.752,-7.02301 -8.067,-7.02301c-2.523,0 -4.47,0.716 -5.739,2.01801c-1.21,1.24298 -1.799,2.914 -1.799,5.70398l0,4.68201c0.886,-0.38 1.975,-0.57196 3.287,-0.57196l4.208,0c0.567,0 0.766,0.22797 0.766,0.73999l0,4.508c0,0.513 -0.199,0.74097 -0.766,0.74097l-7.495,0l0,7.37402c0,0.883 -0.23,1.48798 -0.726,1.94c-0.731,0.66602 -2.237,0.992 -4.013,0.992m-20.074,-7.03998c-2.968,0 -4.801,2.10699 -4.801,4.76196c0,2.65601 1.833,4.76202 4.801,4.76202c2.968,0 4.801,-2.10602 4.801,-4.76202c0,-2.65497 -1.83301,-4.76196 -4.801,-4.76196" id="path3323"/>
					</g>
				</g>
			</g>
		</g>
	</g>
</svg>