<svg xmlns="http://www.w3.org/2000/svg" width="128" height="64"><path d="M105.597 16.812c-4.147 0-8.648 1.826-12.092 4.238-1.177.825-2.252.51-2.755-.542-.667-1.394-1.733-4.622-2.338-6.59-.45-1.468.19-2.71 1.193-3.272 4.244-2.368 10.968-4.13 18.29-4.13h.012c11.118 0 17.198 4.288 17.198 12.273h.014c0 5.01-3.54 10-9.19 11.88 7.17.85 10.93 4.96 10.93 10.86 0 9.07-6.88 15.2-21.257 15.2-7.27 0-12.31-1.22-15.96-2.85-1.245-.56-1.825-1.29-1.825-2.22 0-1.81.94-5.29 1.693-7.96.327-1.16 1.26-1.465 2.396-.78 3.435 2.07 8.272 3.5 12.64 3.5 6.12 0 8.522-2.06 8.522-5.596 0-3.31-1.837-4.78-5.99-4.78h-7.54c-.666 0-1.06-.513-1.12-1.004-.244-1.995-.244-5.2-.04-7.64.05-.604.504-1.04 1.235-1.04h4.433c6.003 0 7.426-2.037 7.426-5.054v.003c0-2.68-1.848-4.517-5.9-4.517M29.3 14.02c-2.027 0-3.692.366-4.513 1.116-.558.507-.815 1.19-.815 2.18v20.26c0 3.367-.542 5.192-1.732 6.47-1.046 1.126-2.69 1.735-4.5 1.735-1.765 0-3.33-.58-4.264-1.57-.975-1.03-1.43-2.452-1.43-4.56V26.46c0-.58-.215-.836-.853-.836H2.23c-.63 0-.84.248-.84.837v11.92c0 4.76 1.23 7.48 3.372 9.624 2.784 2.785 7.543 4.028 12.065 4.028 4.516 0 9.225-1.6 12.008-4.17 2.73 2.49 7.693 4.18 13.17 4.18 7.237 0 12.557-2.99 15.662-8.08 1.378 2.14 2.398 3.727 3.375 5.17 1.442 2.13 2.753 2.91 5.688 2.91 2.78 0 4.45-.662 5.953-2.962 3.943-6.03 7.304-13.16 9.726-19.72.3-.822.51-1.42.51-1.795 0-.385-.25-.687-.85-.876-.58-.186-2.137-.66-2.917-.9-1.296-.394-1.766-.51-2.046-.51-.52 0-.81.294-.99.9-1.817 6.043-4.58 12.836-7.047 17.056-.807-1.54-2.3-4.222-3.686-6.64-2.14-3.74-4.26-7.514-5.322-9.247-1.074-1.754-1.793-2.22-3.206-2.22-2.916 0-7.23 2.614-7.23 5.052 0 .826.23 1.446 1.09 2.912.973 1.665 1.464 3.02 1.464 4.682 0 4.147-3.096 7.9-9.076 7.9-2.838 0-5.03-.803-6.456-2.27-1.363-1.4-2.026-3.28-2.026-6.415v-5.27c.997.427 2.22.64 3.7.64h4.732c.637 0 .86-.254.86-.83v-5.07c0-.576-.225-.832-.863-.832h-8.43V17.33c0-.993-.26-1.674-.815-2.182-.822-.75-2.516-1.116-4.514-1.116m-22.58 7.91c-3.34 0-5.4-2.37-5.4-5.357 0-2.988 2.06-5.357 5.4-5.357 3.34 0 5.4 2.364 5.4 5.352 0 2.987-2.06 5.358-5.4 5.358" fill="#434697"/></svg>