<?xml version="1.0" encoding="UTF-8" standalone="no"?>

<svg xmlns:svg="http://www.w3.org/2000/svg" xmlns="http://www.w3.org/2000/svg" version="1.1" width="128" height="64" xmlns:xlink="http://www.w3.org/1999/xlink">
	<defs>
		<clipPath clipPathUnits="userSpaceOnUse" id="clipPath3401">
			<path d="m491.35699,699.25403l49.26501,0l0,48.86499l-49.26501,0l0,-48.86499z" id="path3403"/>
		</clipPath>
		<clipPath clipPathUnits="userSpaceOnUse" id="clipPath3381">
			<path d="m229.295,390.88901l166.13802,0l0,134.905l-166.13802,0l0,-134.905z" id="path3383"/>
		</clipPath>
		<clipPath clipPathUnits="userSpaceOnUse" id="clipPath3369">
			<path d="m229.295,534.29797l166.13802,0l0,134.90497l-166.13802,0l0,-134.90497z" id="path3371"/>
		</clipPath>
		<clipPath clipPathUnits="userSpaceOnUse" id="clipPath3357">
			<path d="m54.653,534.29797l166.138,0l0,134.90497l-166.138,0l0,-134.90497z" id="path3359"/>
		</clipPath>
		<clipPath clipPathUnits="userSpaceOnUse" id="clipPath3345">
			<path d="m54.653,390.88901l166.138,0l0,134.905l-166.138,0l0,-134.905z" id="path3347"/>
		</clipPath>
		<clipPath clipPathUnits="userSpaceOnUse" id="clipPath3329">
			<path d="m0,0l595.276,0l0,841.89001l-595.276,0l0,-841.89001z" id="path3331"/>
		</clipPath>
		<clipPath clipPathUnits="userSpaceOnUse" id="clipPath3313">
			<path d="m54.567,770.56897l111.60201,0l0,44.64099l-111.60201,0l0,-44.64099z" id="path3315"/>
		</clipPath>
		<clipPath clipPathUnits="userSpaceOnUse" id="clipPath3273">
			<path d="m502.866,289.86401l36.88303,0l0,36.582l-36.88303,0l0,-36.582z" id="path3275"/>
		</clipPath>
		<clipPath clipPathUnits="userSpaceOnUse" id="clipPath3241">
			<path d="m418.98001,462.61301l52.84399,0l0,52.41501l-52.84399,0l0,-52.41501z" id="path3243"/>
		</clipPath>
		<clipPath clipPathUnits="userSpaceOnUse" id="clipPath2999">
			<path d="m0,0l595.27502,0l0,841.89001l-595.27502,0l0,-841.89001z" id="path3001"/>
		</clipPath>
		<clipPath clipPathUnits="userSpaceOnUse" id="clipPath3980">
			<path d="m419.52802,306.62399l36.883,0l0,36.58301l-36.883,0l0,-36.58301z" id="path3982"/>
		</clipPath>
		<clipPath clipPathUnits="userSpaceOnUse" id="clipPath3960">
			<path d="m418.98001,463.73401l52.84399,0l0,52.41498l-52.84399,0l0,-52.41498z" id="path3962"/>
		</clipPath>
		<clipPath clipPathUnits="userSpaceOnUse" id="clipPath3752">
			<path d="m491.35699,699.25403l49.26501,0l0,48.86499l-49.26501,0l0,-48.86499z" id="path3754"/>
		</clipPath>
		<clipPath clipPathUnits="userSpaceOnUse" id="clipPath3736">
			<path d="m167.4155,846.97229l111.60202,0l0,44.64099l-111.60202,0l0,-44.64099z" id="path3738"/>
		</clipPath>
		<clipPath clipPathUnits="userSpaceOnUse" id="clipPath3724">
			<path d="m229.295,503.85199l166.13802,0l0,165.35199l-166.13802,0l0,-165.35199z" id="path3726"/>
		</clipPath>
		<clipPath clipPathUnits="userSpaceOnUse" id="clipPath3712">
			<path d="m54.653,208.951l340.78001,0l0,285.68797l-340.78001,0l0,-285.68797z" id="path3714"/>
		</clipPath>
		<clipPath clipPathUnits="userSpaceOnUse" id="clipPath3700">
			<path d="m54.653,503.85199l166.138,0l0,165.35199l-166.138,0l0,-165.35199z" id="path3702"/>
		</clipPath>
		<clipPath clipPathUnits="userSpaceOnUse" id="clipPath3642">
			<path d="m0.007,841.888l595.26204,0l0,-841.88599l-595.26204,0l0,841.88599z" id="path3644"/>
		</clipPath>
	</defs>

	<g stroke="null" id="layer1">
		<g stroke="null" id="g3636" transform="matrix(0.6338487338301185,0,0,-0.6338487338301185,-293.4243759834459,389.74656975817913) ">
			<g stroke="null" fill="#434697" transform="matrix(1.7741935,0,0,1.7741935,167.86631,-977.89038) " id="g3732">
				<g stroke="null" fill="#434697" id="g3734" clip-path="url(#clipPath3736)">
					<g stroke="null" fill="#434697" id="g3740">
						<path stroke="null" fill="#434697" fill-rule="nonzero" d="m260.10629,882.461c-3.686,0 -7.68698,-1.62299 -10.74799,-3.76703c-1.04601,-0.73297 -2.00201,-0.45398 -2.44902,0.48206c-0.59297,1.23895 -1.53999,4.10797 -2.07799,5.85699c-0.401,1.30597 0.168,2.41095 1.06,2.909c3.77301,2.10498 9.75,3.67096 16.258,3.67096l0.01102,-0.00098c9.88199,0 15.28699,-3.81 15.28699,-10.90802l0.01199,0c0,-4.45496 -3.14398,-8.88995 -8.16098,-10.56201c6.37698,-0.75494 9.71899,-4.41199 9.71899,-9.65698c0,-8.065 -6.11401,-13.51196 -18.892,-13.51196c-6.46402,0 -10.94101,1.08099 -14.18701,2.53198c-1.10599,0.495 -1.62198,1.14801 -1.62198,1.96899c0,1.60797 0.83698,4.70398 1.50598,7.07599c0.29102,1.03101 1.121,1.29999 2.12999,0.69202c3.05501,-1.83801 7.35402,-3.11304 11.23601,-3.11304c5.43802,0 7.57599,1.83203 7.57599,4.97504c0,2.94299 -1.63199,4.24701 -5.32397,4.24701l-6.703,0c-0.591,0 -0.94,0.45697 -0.99301,0.89301c-0.21597,1.77399 -0.21597,4.62201 -0.03497,6.79095c0.04398,0.53705 0.44797,0.92401 1.09799,0.92401l3.94199,0c5.33698,0 6.60199,1.81201 6.60199,4.49304l-0.00198,-0.00403c0,2.38397 -1.642,4.013 -5.24301,4.013" id="path3742"/>
					</g>
					<g stroke="null" fill="#434697" id="g3744">
						<path stroke="null" fill="#434697" fill-rule="nonzero" d="m192.29041,884.93988c-1.80202,0 -3.28198,-0.32599 -4.01199,-0.992c-0.496,-0.45197 -0.72501,-1.05701 -0.72501,-1.94l0,-18.00598c0,-2.99402 -0.48099,-4.61603 -1.53902,-5.75299c-0.92999,-1 -2.39098,-1.54102 -3.99899,-1.54102c-1.56998,0 -2.96199,0.52197 -3.791,1.39801c-0.86501,0.91498 -1.26898,2.18298 -1.26898,4.05798l0,11.72699c0,0.513 -0.19202,0.74103 -0.759,0.74103l-7.97099,0c-0.56102,0 -0.74602,-0.22003 -0.74602,-0.74402l0,-10.60101c0,-4.23199 1.09099,-6.64899 2.996,-8.55298c2.47499,-2.47504 6.705,-3.58002 10.72501,-3.58002c4.01401,0 8.20001,1.422 10.673,3.70801c2.42799,-2.21301 6.839,-3.70697 11.70801,-3.70697c6.43198,0 11.16098,2.65997 13.92099,7.18195c1.22499,-1.89795 2.131,-3.30896 3,-4.59497c1.28201,-1.89301 2.44699,-2.58801 5.05598,-2.58801c2.47102,0 3.955,0.59302 5.291,2.63702c3.50502,5.35999 6.49301,11.698 8.64603,17.52997c0.26898,0.73004 0.461,1.26202 0.461,1.59503c0,0.34198 -0.22202,0.60999 -0.75201,0.77802c-0.51501,0.16296 -1.89702,0.58698 -2.59,0.79797c-1.15199,0.35101 -1.57001,0.45398 -1.819,0.45398c-0.46599,0 -0.72,-0.26099 -0.882,-0.79901c-1.61499,-5.37299 -4.07201,-11.41095 -6.26399,-15.16199c-0.71802,1.37 -2.04501,3.75299 -3.27701,5.90204c-1.90498,3.32397 -3.78699,6.67896 -4.73201,8.21997c-0.955,1.55798 -1.59399,1.97302 -2.84998,1.97302c-2.59102,0 -6.42702,-2.32404 -6.42702,-4.49103c0,-0.73596 0.20401,-1.28699 0.96701,-2.58997c0.868,-1.48199 1.30399,-2.685 1.30399,-4.16302c0,-3.685 -2.75198,-7.02301 -8.06699,-7.02301c-2.522,0 -4.47002,0.716 -5.73801,2.01801c-1.211,1.24298 -1.79999,2.914 -1.79999,5.70398l0,4.68201c0.88599,-0.38 1.97498,-0.57196 3.28699,-0.57196l4.20801,0c0.56699,0 0.76599,0.22797 0.76599,0.73999l0,4.508c0,0.513 -0.19901,0.74097 -0.76599,0.74097l-7.495,0l0,7.37402c0,0.883 -0.23003,1.48804 -0.72601,1.94c-0.73102,0.66602 -2.237,0.992 -4.013,0.992m-20.07401,-7.03998c-2.96799,0 -4.80099,2.10699 -4.80099,4.76196c0,2.65601 1.83301,4.76202 4.80099,4.76202c2.96802,0 4.80099,-2.10602 4.80099,-4.76202c0,-2.65497 -1.83298,-4.76196 -4.80099,-4.76196" id="path3746"/>
					</g>
				</g>
			</g>
		</g>
	</g>
</svg>