<svg xmlns="http://www.w3.org/2000/svg" width="128" height="64"><g transform="matrix(.749 0 0 .749 .199 13.378)"><path d="M105.263 16.74c-4.108 0-8.567 1.824-11.98 4.235-1.164.824-2.23.51-2.728-.542-.66-1.393-1.716-4.62-2.316-6.586-.45-1.47.18-2.712 1.18-3.272 4.2-2.367 10.86-4.128 18.12-4.128h.01c11.01 0 17.034 4.286 17.034 12.268h.013c0 5.01-3.504 9.997-9.096 11.877 7.108.85 10.833 4.96 10.833 10.86 0 9.07-6.815 15.194-21.056 15.194-7.203 0-12.193-1.216-15.81-2.847-1.233-.56-1.81-1.298-1.81-2.22 0-1.81.935-5.29 1.68-7.96.325-1.16 1.25-1.46 2.374-.777 3.406 2.066 8.198 3.5 12.524 3.5 6.06 0 8.443-2.06 8.443-5.595 0-3.31-1.82-4.775-5.935-4.775h-7.47c-.66 0-1.05-.514-1.108-1.005-.24-1.993-.24-5.195-.04-7.634.05-.605.5-1.04 1.224-1.04h4.396c5.95 0 7.36-2.038 7.36-5.053l-.003.006c0-2.68-1.83-4.514-5.843-4.514M29.68 13.95c-2.008 0-3.657.368-4.47 1.117-.554.508-.81 1.188-.81 2.18v20.25c0 3.366-.535 5.19-1.714 6.47C21.65 45.09 20.02 45.7 18.23 45.7c-1.75 0-3.303-.59-4.227-1.574-.964-1.03-1.415-2.455-1.415-4.563V26.376c0-.577-.215-.833-.846-.833H2.86c-.626 0-.832.247-.832.837V38.3c0 4.76 1.216 7.478 3.34 9.62 2.758 2.782 7.472 4.025 11.953 4.025 4.48 0 9.14-1.6 11.9-4.17 2.708 2.488 7.62 4.168 13.05 4.168 7.17 0 12.44-2.99 15.516-8.076 1.366 2.134 2.376 3.72 3.345 5.167 1.43 2.13 2.727 2.91 5.635 2.91 2.753 0 4.407-.666 5.896-2.965 3.906-6.03 7.236-13.16 9.636-19.72.3-.82.514-1.42.514-1.793 0-.385-.25-.686-.84-.875-.575-.184-2.116-.66-2.888-.898-1.282-.395-1.75-.51-2.025-.51-.52 0-.804.292-.984.897-1.8 6.043-4.538 12.833-6.98 17.05-.8-1.54-2.28-4.22-3.653-6.636-2.123-3.736-4.22-7.51-5.274-9.242-1.064-1.752-1.777-2.22-3.176-2.22-2.89 0-7.163 2.615-7.163 5.05 0 .83.226 1.45 1.076 2.914.97 1.665 1.455 3.02 1.455 4.68 0 4.144-3.07 7.9-8.99 7.9-2.812 0-4.983-.807-6.396-2.27-1.35-1.4-2.008-3.278-2.008-6.416v-5.26c.988.428 2.202.643 3.664.643h4.69c.63 0 .853-.256.853-.832v-5.07c0-.57-.22-.83-.85-.83h-8.36v-8.29c0-.99-.255-1.67-.81-2.18-.812-.75-2.49-1.114-4.47-1.114M7.308 21.87c-3.308 0-5.35-2.37-5.35-5.355 0-2.987 2.042-5.355 5.35-5.355s5.35 2.368 5.35 5.355c0 2.986-2.042 5.355-5.35 5.355" fill="#434697"/><circle fill="#434697" fill-rule="evenodd" cx="150.712" cy="11.162" r="18.506"/><path d="M143.377 14.6h-3.275c-.31 0-.467-.3-.467-1.217 0-.855.118-1.197.508-1.197h3.234V8.62h2.556v3.566h3.808V14.6h-3.8v3.273c0 .34-.27.507-1.34.507-1.018 0-1.217-.17-1.217-.487zm13.856 4.37c-.944 0-1.545-.05-1.545-.67V7.246c-1.37.873-2.636 1.606-3.842 2.26l-1.197-2.412c2.59-1.543 4.04-2.406 5-3.046.26-.17.506-.292 1.23-.292h1.075c.713 0 .87.162.87.65V18.36c0 .504-.572.61-1.6.61z" fill="#fff"/></g></svg>