<svg xmlns="http://www.w3.org/2000/svg" width="128" height="64"><path d="M105.597 16.812c-4.147 0-8.648 1.826-12.092 4.238-1.177.825-2.252.51-2.755-.542-.667-1.394-1.733-4.622-2.338-6.59-.45-1.468.19-2.71 1.193-3.272 4.244-2.368 10.968-4.13 18.29-4.13h.012c11.118 0 17.198 4.288 17.198 12.273h.014c0 5.01-3.54 10-9.188 11.88 7.174.85 10.933 4.96 10.933 10.86 0 9.073-6.878 15.2-21.253 15.2-7.272 0-12.31-1.216-15.96-2.848-1.245-.557-1.825-1.292-1.825-2.215 0-1.81.94-5.29 1.693-7.96.328-1.16 1.26-1.463 2.397-.78 3.436 2.07 8.273 3.503 12.64 3.503 6.12 0 8.523-2.06 8.523-5.596 0-3.312-1.836-4.78-5.99-4.78h-7.54c-.665 0-1.058-.513-1.118-1.004-.245-1.995-.245-5.2-.04-7.64.05-.604.503-1.04 1.234-1.04h4.434c6.003 0 7.426-2.037 7.426-5.054v.003c0-2.68-1.847-4.516-5.898-4.516M29.3 14.022c-2.027 0-3.692.366-4.513 1.116-.558.507-.815 1.19-.815 2.18v20.26c0 3.367-.542 5.192-1.732 6.47-1.046 1.126-2.69 1.735-4.5 1.735-1.765 0-3.33-.588-4.264-1.573-.975-1.03-1.43-2.456-1.43-4.565v-13.19c0-.578-.215-.835-.853-.835H2.23c-.63 0-.84.248-.84.837v11.926c0 4.76 1.23 7.48 3.372 9.622 2.784 2.785 7.543 4.028 12.065 4.028 4.516 0 9.225-1.6 12.008-4.172 2.73 2.49 7.693 4.178 13.17 4.178 7.237 0 12.557-2.993 15.662-8.08 1.378 2.135 2.398 3.723 3.375 5.17 1.442 2.13 2.753 2.91 5.688 2.91 2.78 0 4.45-.666 5.953-2.966 3.943-6.03 7.304-13.16 9.726-19.72.3-.822.512-1.42.512-1.795 0-.384-.25-.686-.846-.875-.58-.185-2.134-.66-2.914-.9-1.296-.393-1.766-.51-2.046-.51-.522 0-.81.295-.99.9-1.817 6.044-4.58 12.837-7.047 17.057-.808-1.54-2.3-4.223-3.687-6.64-2.143-3.74-4.26-7.515-5.324-9.248-1.074-1.753-1.793-2.22-3.206-2.22-2.915 0-7.23 2.615-7.23 5.053 0 .827.23 1.447 1.088 2.913.976 1.667 1.467 3.02 1.467 4.684 0 4.144-3.096 7.9-9.076 7.9-2.837 0-5.028-.806-6.455-2.27-1.363-1.4-2.026-3.28-2.026-6.418v-5.27c.997.428 2.222.643 3.698.643h4.734c.636 0 .86-.256.86-.832v-5.07c0-.576-.226-.832-.864-.832H34.63V17.33c0-.993-.26-1.674-.816-2.182-.822-.75-2.516-1.116-4.514-1.116m-22.58 7.91c-3.34 0-5.4-2.37-5.4-5.357 0-2.988 2.06-5.357 5.4-5.357 3.34 0 5.402 2.364 5.402 5.352 0 2.987-2.063 5.358-5.402 5.358" fill="#434697"/></svg>