<svg xmlns="http://www.w3.org/2000/svg" width="128" height="64"><g transform="matrix(.7 0 0 .7 .2 13.4)"><path d="M119.426 25.234c-4.514 0-6.69.706-6.69 2.694v8.19H100.81c-.5 0-.732-.358-.416-.86 4.83-7.682 10.238-16.253 15.687-24.636.92-1.413 1.29-2.4 1.29-2.913 0-.91-.54-1.4-1.47-1.56-1.33-.23-3.36-.48-5.42-.48-2.072 0-4.13.14-5.62.41-1.47.27-2.3 1.093-3 2.34-4.21 7.542-9.98 18.27-13.572 25.224-.62 1.195-.88 2.18-.88 3.17 0 1.02.35 2.13.75 3.364l1.02 2.984c.61 1.486 1.624 2.063 3.64 2.063h19.937v8.15c0 1.707 1.6 2.482 6.67 2.482 4.486 0 6.657-.76 6.657-2.494v-25.4c0-2.04-2.034-2.75-6.64-2.75M29.68 13.95c-2.008 0-3.657.368-4.47 1.117-.554.508-.81 1.188-.81 2.18v20.25c0 3.366-.535 5.19-1.714 6.47C21.65 45.09 20.02 45.7 18.23 45.7c-1.75 0-3.303-.59-4.227-1.574-.964-1.03-1.415-2.455-1.415-4.563V26.376c0-.577-.215-.833-.846-.833H2.86c-.626 0-.832.247-.832.837V38.3c0 4.76 1.216 7.478 3.34 9.62 2.758 2.782 7.472 4.025 11.953 4.025 4.48 0 9.14-1.6 11.9-4.17 2.71 2.488 7.62 4.168 13.05 4.168 7.17 0 12.44-2.99 15.52-8.076 1.37 2.134 2.38 3.72 3.35 5.167 1.43 2.13 2.727 2.91 5.635 2.91 2.753 0 4.407-.666 5.896-2.965 3.9-6.03 7.23-13.16 9.63-19.72.3-.82.514-1.42.514-1.796 0-.385-.25-.686-.84-.875-.575-.18-2.116-.66-2.888-.89-1.282-.397-1.75-.51-2.025-.51-.52 0-.803.29-.983.895-1.8 6.044-4.538 12.834-6.98 17.05-.8-1.54-2.28-4.22-3.653-6.635-2.123-3.735-4.22-7.51-5.274-9.24-1.07-1.753-1.78-2.22-3.18-2.22-2.89 0-7.167 2.614-7.167 5.05 0 .83.225 1.45 1.075 2.913.97 1.666 1.455 3.02 1.455 4.68 0 4.145-3.07 7.9-8.99 7.9-2.81 0-4.982-.806-6.395-2.27-1.35-1.4-2.006-3.28-2.006-6.415v-5.26c.988.43 2.202.644 3.664.644h4.69c.63 0 .854-.256.854-.832v-5.07c0-.57-.22-.83-.85-.83h-8.36v-8.29c0-.99-.254-1.67-.81-2.18-.81-.75-2.49-1.113-4.47-1.113M7.31 21.87c-3.308 0-5.35-2.37-5.35-5.355 0-2.987 2.042-5.355 5.35-5.355s5.35 2.368 5.35 5.355c0 2.986-2.042 5.355-5.35 5.355" fill="#7d959f"/><circle fill="#7d959f" fill-rule="evenodd" cx="150.712" cy="11.162" r="18.506"/><path d="M143.377 14.6h-3.275c-.31 0-.467-.3-.467-1.217 0-.855.118-1.197.508-1.197h3.234V8.62h2.556v3.566h3.808V14.6h-3.8v3.273c0 .34-.27.507-1.34.507-1.01 0-1.21-.17-1.21-.487zm13.856 4.37c-.944 0-1.545-.05-1.545-.67V7.246c-1.37.873-2.636 1.606-3.842 2.26l-1.197-2.412c2.59-1.543 4.04-2.406 5-3.046.26-.17.5-.292 1.23-.292h1.07c.71 0 .87.162.87.65V18.36c0 .504-.57.61-1.6.61z" fill="#fff"/></g></svg>