<?xml version="1.0" encoding="UTF-8" standalone="no"?>

<svg xmlns:svg="http://www.w3.org/2000/svg" xmlns="http://www.w3.org/2000/svg" version="1.1" width="128" height="64" xmlns:xlink="http://www.w3.org/1999/xlink">
	<defs>
		<clipPath clipPathUnits="userSpaceOnUse" id="clipPath3401">
			<path d="m491.35699,699.25403l49.26501,0l0,48.86499l-49.26501,0l0,-48.86499z" id="path3403"/>
		</clipPath>
		<clipPath clipPathUnits="userSpaceOnUse" id="clipPath3381">
			<path d="m229.295,390.88901l166.13802,0l0,134.905l-166.13802,0l0,-134.905z" id="path3383"/>
		</clipPath>
		<clipPath clipPathUnits="userSpaceOnUse" id="clipPath3369">
			<path d="m229.295,534.29797l166.13802,0l0,134.90497l-166.13802,0l0,-134.90497z" id="path3371"/>
		</clipPath>
		<clipPath clipPathUnits="userSpaceOnUse" id="clipPath3357">
			<path d="m54.653,534.29797l166.138,0l0,134.90497l-166.138,0l0,-134.90497z" id="path3359"/>
		</clipPath>
		<clipPath clipPathUnits="userSpaceOnUse" id="clipPath3345">
			<path d="m54.653,390.88901l166.138,0l0,134.905l-166.138,0l0,-134.905z" id="path3347"/>
		</clipPath>
		<clipPath clipPathUnits="userSpaceOnUse" id="clipPath3329">
			<path d="m0,0l595.276,0l0,841.89001l-595.276,0l0,-841.89001z" id="path3331"/>
		</clipPath>
		<clipPath clipPathUnits="userSpaceOnUse" id="clipPath3313">
			<path d="m54.567,770.56897l111.60201,0l0,44.64099l-111.60201,0l0,-44.64099z" id="path3315"/>
		</clipPath>
		<clipPath clipPathUnits="userSpaceOnUse" id="clipPath3273">
			<path d="m502.866,289.86401l36.88303,0l0,36.582l-36.88303,0l0,-36.582z" id="path3275"/>
		</clipPath>
		<clipPath clipPathUnits="userSpaceOnUse" id="clipPath3241">
			<path d="m418.98001,462.61301l52.84399,0l0,52.41501l-52.84399,0l0,-52.41501z" id="path3243"/>
		</clipPath>
		<clipPath clipPathUnits="userSpaceOnUse" id="clipPath2999">
			<path d="m0,0l595.27502,0l0,841.89001l-595.27502,0l0,-841.89001z" id="path3001"/>
		</clipPath>
		<clipPath clipPathUnits="userSpaceOnUse" id="clipPath3980">
			<path d="m419.52802,306.62399l36.883,0l0,36.58301l-36.883,0l0,-36.58301z" id="path3982"/>
		</clipPath>
		<clipPath clipPathUnits="userSpaceOnUse" id="clipPath3960">
			<path d="m418.98001,463.73401l52.84399,0l0,52.41498l-52.84399,0l0,-52.41498z" id="path3962"/>
		</clipPath>
		<clipPath clipPathUnits="userSpaceOnUse" id="clipPath3752">
			<path d="m491.35699,699.25403l49.26501,0l0,48.86499l-49.26501,0l0,-48.86499z" id="path3754"/>
		</clipPath>
		<clipPath clipPathUnits="userSpaceOnUse" id="clipPath3736">
			<path d="m54.567,768.33502l111.60201,0l0,44.64099l-111.60201,0l0,-44.64099z" id="path3738"/>
		</clipPath>
		<clipPath clipPathUnits="userSpaceOnUse" id="clipPath3724">
			<path d="m229.295,503.85199l166.13802,0l0,165.35199l-166.13802,0l0,-165.35199z" id="path3726"/>
		</clipPath>
		<clipPath clipPathUnits="userSpaceOnUse" id="clipPath3712">
			<path d="m54.653,208.951l340.78001,0l0,285.68797l-340.78001,0l0,-285.68797z" id="path3714"/>
		</clipPath>
		<clipPath clipPathUnits="userSpaceOnUse" id="clipPath3700">
			<path d="m54.653,503.85199l166.138,0l0,165.35199l-166.138,0l0,-165.35199z" id="path3702"/>
		</clipPath>
		<clipPath clipPathUnits="userSpaceOnUse" id="clipPath3642">
			<path d="m0.007,841.888l595.26204,0l0,-841.88599l-595.26204,0l0,841.88599z" id="path3644"/>
		</clipPath>
		<clipPath clipPathUnits="userSpaceOnUse" id="clipPath4581">
			<path d="m491.35699,699.25403l49.26501,0l0,48.86499l-49.26501,0l0,-48.86499z" id="path4583"/>
		</clipPath>
		<clipPath clipPathUnits="userSpaceOnUse" id="clipPath4561">
			<path d="m0,0l595.276,0l0,841.89001l-595.276,0l0,-841.89001z" id="path4563"/>
		</clipPath>
		<clipPath clipPathUnits="userSpaceOnUse" id="clipPath4541">
			<path d="m418.10999,403.939l52.845,0l0,52.41501l-52.845,0l0,-52.41501z" id="path4543"/>
		</clipPath>
		<clipPath clipPathUnits="userSpaceOnUse" id="clipPath4525">
			<path d="m136.00568,852.40857l111.60202,0l0,44.64099l-111.60202,0l0,-44.64099z" id="path4527"/>
		</clipPath>
		<clipPath clipPathUnits="userSpaceOnUse" id="clipPath4513">
			<path d="m229.295,489.18799l166.13802,0l0,180.01501l-166.13802,0l0,-180.01501z" id="path4515"/>
		</clipPath>
		<clipPath clipPathUnits="userSpaceOnUse" id="clipPath4501">
			<path d="m54.653,250.63l340.78001,0l0,228.94299l-340.78001,0l0,-228.94299z" id="path4503"/>
		</clipPath>
		<clipPath clipPathUnits="userSpaceOnUse" id="clipPath4261">
			<path d="m54.653,489.189l166.138,0l0,180.01401l-166.138,0l0,-180.01401z" id="path4263"/>
		</clipPath>
		<clipPath clipPathUnits="userSpaceOnUse" id="clipPath4247">
			<path d="m0,0l595.27502,0l0,841.89001l-595.27502,0l0,-841.89001z" id="path4249"/>
		</clipPath>
	</defs>

	<g stroke="null" id="layer1">
		<g stroke="null" id="g4241" transform="matrix(0.633843901283393,0,0,-0.633843901283393,-377.95781816871937,280.0934343274305) ">
			<g stroke="null" fill="#7d959f" transform="matrix(1.7741697,0,0,1.7741697,356.96817,-1160.5074) " id="g4521">
				<g stroke="null" fill="#7d959f" id="g4523" clip-path="url(#clipPath4525)">
					<g stroke="null" fill="#7d959f" id="g4529">
						<path fill="#7d959f" fill-rule="nonzero" d="m241.64807,879.65894c-4.04999,0 -6.00099,-0.62799 -6.00099,-2.396l0,-7.284l-10.701,0c-0.45099,0 -0.658,0.31897 -0.375,0.76501c4.33499,6.83197 9.186,14.45398 14.07501,21.909c0.82401,1.25598 1.15799,2.13397 1.15799,2.58997c0,0.80701 -0.492,1.24402 -1.323,1.38599c-1.19901,0.20502 -3.017,0.42102 -4.86801,0.42102c-1.86499,0 -3.70798,-0.12299 -5.043,-0.36798c-1.319,-0.24402 -2.06598,-0.97601 -2.69098,-2.08502c-3.77902,-6.70599 -8.95401,-16.245 -12.18301,-22.42999c-0.556,-1.065 -0.78899,-1.94202 -0.78899,-2.82098c0,-0.90698 0.31398,-1.89203 0.67101,-2.992l0.91699,-2.65503c0.548,-1.32196 1.45599,-1.83496 3.26401,-1.83496l17.88898,0l0,-7.24805c0,-1.51794 1.43602,-2.20697 5.98801,-2.20697c4.02399,0 5.97202,0.67297 5.97202,2.216l0,22.58899c0,1.81702 -1.82602,2.44501 -5.96002,2.44501" id="path4531"/>
					</g>
					<g stroke="null" fill="#7d959f" id="g4533">
						<path fill="#7d959f" fill-rule="nonzero" d="m160.8806,890.38037c-1.80202,0 -3.28201,-0.32599 -4.01201,-0.992c-0.496,-0.45197 -0.72501,-1.05701 -0.72501,-1.94l0,-18.00598c0,-2.99298 -0.48102,-4.61603 -1.539,-5.75299c-0.92999,-1 -2.39099,-1.54102 -3.99899,-1.54102c-1.57001,0 -2.96199,0.52197 -3.79102,1.39899c-0.86497,0.914 -1.26898,2.18201 -1.26898,4.05701l0,11.72699c0,0.513 -0.19202,0.74103 -0.759,0.74103l-7.97101,0c-0.561,0 -0.74599,-0.22003 -0.74599,-0.74402l0,-10.60101c0,-4.23199 1.09099,-6.64801 2.99599,-8.55298c2.47501,-2.47498 6.70499,-3.58002 10.72501,-3.58002c4.01401,0 8.20001,1.42303 10.67299,3.70801c2.42802,-2.21301 6.839,-3.70599 11.70802,-3.70599c6.43198,0 11.16098,2.659 13.92097,7.18097c1.22501,-1.89795 2.13101,-3.30896 3,-4.59497c1.28203,-1.89301 2.44701,-2.58801 5.05602,-2.58801c2.47101,0 3.95499,0.59302 5.29099,2.63702c3.50502,5.35999 6.49301,11.698 8.64601,17.52997c0.26901,0.73004 0.46098,1.26202 0.46098,1.59503c0,0.34198 -0.22198,0.60999 -0.75198,0.77802c-0.51501,0.16296 -1.89699,0.58698 -2.59001,0.79797c-1.15198,0.35101 -1.56998,0.45398 -1.81898,0.45398c-0.466,0 -0.72,-0.26099 -0.88202,-0.79901c-1.61499,-5.37299 -4.07199,-11.41095 -6.26398,-15.16199c-0.71802,1.37 -2.04501,3.75299 -3.27701,5.90204c-1.90498,3.32397 -3.78702,6.67896 -4.73199,8.21997c-0.95502,1.55798 -1.59399,1.97302 -2.85001,1.97302c-2.591,0 -6.42699,-2.32404 -6.42699,-4.49103c0,-0.73596 0.20399,-1.28699 0.967,-2.58997c0.86798,-1.48199 1.30399,-2.685 1.30399,-4.16302c0,-3.685 -2.75198,-7.02301 -8.06699,-7.02301c-2.522,0 -4.47,0.716 -5.73801,2.01801c-1.211,1.24298 -1.79999,2.914 -1.79999,5.70398l0,4.68103c0.886,-0.37903 1.97499,-0.57098 3.28699,-0.57098l4.20799,0c0.567,0 0.76602,0.22797 0.76602,0.73999l0,4.508c0,0.513 -0.19902,0.74103 -0.76602,0.74103l-7.49498,0l0,7.37396c0,0.883 -0.23,1.48804 -0.726,1.94c-0.73103,0.66602 -2.23701,0.992 -4.013,0.992m-20.07402,-7.03998c-2.96799,0 -4.80099,2.10699 -4.80099,4.76196c0,2.65601 1.83301,4.76202 4.80099,4.76202c2.96802,0 4.80101,-2.10602 4.80101,-4.76202c0,-2.65497 -1.83299,-4.76196 -4.80101,-4.76196" id="path4535"/>
					</g>
				</g>
			</g>
		</g>
	</g>
</svg>