<svg xmlns="http://www.w3.org/2000/svg" width="128" height="64"><path d="M120.158 26.058c-4.556 0-6.75.706-6.75 2.695v8.195h-12.04c-.507 0-.74-.36-.422-.86 4.877-7.687 10.335-16.262 15.835-24.65.93-1.412 1.31-2.4 1.31-2.912 0-.908-.55-1.4-1.49-1.56-1.35-.23-3.39-.473-5.47-.473-2.1 0-4.17.138-5.67.414-1.484.274-2.324 1.098-3.027 2.345-4.25 7.545-10.073 18.276-13.706 25.234-.625 1.198-.89 2.185-.89 3.174 0 1.02.355 2.128.756 3.366l1.03 2.987c.615 1.487 1.64 2.064 3.67 2.064h20.126v8.154c0 1.71 1.617 2.49 6.74 2.49 4.525 0 6.716-.75 6.716-2.49V28.81c0-2.044-2.054-2.75-6.705-2.75M29.3 13.996c-2.028 0-3.693.367-4.514 1.116-.553.51-.81 1.19-.81 2.183V37.55c0 3.368-.542 5.194-1.732 6.473-1.046 1.125-2.69 1.734-4.5 1.734-1.765 0-3.33-.587-4.264-1.574-.972-1.028-1.426-2.455-1.426-4.564v-13.2c0-.58-.216-.84-.854-.84H2.22c-.632 0-.84.244-.84.834v11.93c0 4.76 1.228 7.48 3.37 9.62C7.535 50.76 12.294 52 16.816 52c4.516 0 9.225-1.6 12.008-4.17 2.73 2.49 7.693 4.17 13.17 4.17 7.237 0 12.557-2.99 15.662-8.08 1.378 2.137 2.398 3.724 3.375 5.17 1.45 2.13 2.76 2.912 5.69 2.912 2.78 0 4.45-.667 5.96-2.966 3.95-6.03 7.31-13.162 9.73-19.723.306-.82.52-1.42.52-1.794 0-.39-.25-.69-.844-.88-.58-.19-2.134-.66-2.914-.9-1.297-.4-1.767-.51-2.047-.51-.522 0-.81.29-.99.9-1.816 6.04-4.58 12.84-7.046 17.05-.81-1.54-2.3-4.22-3.688-6.64-2.146-3.74-4.26-7.513-5.327-9.247-1.073-1.75-1.792-2.22-3.205-2.22-2.916 0-7.23 2.616-7.23 5.054 0 .83.23 1.45 1.087 2.914.976 1.67 1.467 3.02 1.467 4.684 0 4.146-3.097 7.9-9.077 7.9-2.84 0-5.03-.805-6.457-2.27-1.36-1.398-2.024-3.278-2.024-6.416v-5.26c.996.425 2.22.64 3.697.64h4.735c.64 0 .864-.256.864-.832v-5.07c0-.58-.225-.84-.863-.84h-8.43v-8.29c0-.996-.26-1.676-.816-2.185-.822-.75-2.516-1.115-4.514-1.115M6.71 21.92c-3.338 0-5.4-2.37-5.4-5.355 0-2.99 2.062-5.36 5.4-5.36 3.34 0 5.403 2.37 5.403 5.357 0 2.985-2.063 5.355-5.402 5.355" fill="#7d959f"/></svg>