<?xml version="1.0" encoding="UTF-8" standalone="no"?>

<svg xmlns:svg="http://www.w3.org/2000/svg" xmlns="http://www.w3.org/2000/svg" version="1.1" width="128" height="64" xmlns:xlink="http://www.w3.org/1999/xlink">
	<g transform="matrix(0.74853543,0,0,0.74853543,0.19941113,13.37785)">
		<g transform="matrix(1.1145277,0,0,-1.1245277,-184.63229,1009.0907)">
			<path fill="#7d959f" fill-rule="nonzero" d="m 272.81327,874.90692 c -4.04999,0 -6.00099,-0.62799 -6.00099,-2.396 l 0,-7.284 -10.701,0 c -0.45099,0 -0.658,0.31897 -0.375,0.76501 4.33499,6.83197 9.186,14.45398 14.07501,21.909 0.82401,1.25598 1.15799,2.13397 1.15799,2.58997 0,0.80701 -0.492,1.24402 -1.323,1.38599 -1.19901,0.20502 -3.017,0.42102 -4.86801,0.42102 -1.86499,0 -3.70798,-0.12299 -5.043,-0.36798 -1.319,-0.24402 -2.06598,-0.97601 -2.69098,-2.08502 -3.77902,-6.70599 -8.95401,-16.245 -12.18301,-22.42999 -0.556,-1.065 -0.78899,-1.94202 -0.78899,-2.82098 0,-0.90698 0.31398,-1.89203 0.67101,-2.992 l 0.91699,-2.65503 c 0.548,-1.32196 1.45599,-1.83496 3.26401,-1.83496 l 17.88898,0 0,-7.24805 c 0,-1.51794 1.43602,-2.20697 5.98801,-2.20697 4.02399,0 5.97202,0.67297 5.97202,2.216 l 0,22.58899 c 0,1.81702 -1.82602,2.44501 -5.96002,2.44501" />
			<path fill="#7d959f" fill-rule="nonzero" d="m 192.29041,884.93988 c -1.80202,0 -3.28198,-0.32599 -4.01199,-0.992 -0.496,-0.45197 -0.72501,-1.05701 -0.72501,-1.94 l 0,-18.00598 c 0,-2.99402 -0.48099,-4.61603 -1.53902,-5.75299 -0.92999,-1 -2.39098,-1.54102 -3.99899,-1.54102 -1.56998,0 -2.96199,0.52197 -3.791,1.39801 -0.86501,0.91498 -1.26898,2.18298 -1.26898,4.05798 l 0,11.72699 c 0,0.513 -0.19202,0.74103 -0.759,0.74103 l -7.97099,0 c -0.56102,0 -0.74602,-0.22003 -0.74602,-0.74402 l 0,-10.60101 c 0,-4.23199 1.09099,-6.64899 2.996,-8.55298 2.47499,-2.47504 6.705,-3.58002 10.72501,-3.58002 4.01401,0 8.20001,1.422 10.673,3.70801 2.42799,-2.21301 6.839,-3.70697 11.70801,-3.70697 6.43198,0 11.16098,2.65997 13.92099,7.18195 1.22499,-1.89795 2.131,-3.30896 3,-4.59497 1.28201,-1.89301 2.44699,-2.58801 5.05598,-2.58801 2.47102,0 3.955,0.59302 5.291,2.63702 3.50502,5.35999 6.49301,11.698 8.64603,17.52997 0.26898,0.73004 0.461,1.26202 0.461,1.59503 0,0.34198 -0.22202,0.60999 -0.75201,0.77802 -0.51501,0.16296 -1.89702,0.58698 -2.59,0.79797 -1.15199,0.35101 -1.57001,0.45398 -1.819,0.45398 -0.46599,0 -0.72,-0.26099 -0.882,-0.79901 -1.61499,-5.37299 -4.07201,-11.41095 -6.26399,-15.16199 -0.71802,1.37 -2.04501,3.75299 -3.27701,5.90204 -1.90498,3.32397 -3.78699,6.67896 -4.73201,8.21997 -0.955,1.55798 -1.59399,1.97302 -2.84998,1.97302 -2.59102,0 -6.42702,-2.32404 -6.42702,-4.49103 0,-0.73596 0.20401,-1.28699 0.96701,-2.58997 0.868,-1.48199 1.30399,-2.685 1.30399,-4.16302 0,-3.685 -2.75198,-7.02301 -8.06699,-7.02301 -2.522,0 -4.47002,0.716 -5.73801,2.01801 -1.211,1.24298 -1.79999,2.914 -1.79999,5.70398 l 0,4.68201 c 0.88599,-0.38 1.97498,-0.57196 3.28699,-0.57196 l 4.20801,0 c 0.56699,0 0.76599,0.22797 0.76599,0.73999 l 0,4.508 c 0,0.513 -0.19901,0.74097 -0.76599,0.74097 l -7.495,0 0,7.37402 c 0,0.883 -0.23003,1.48804 -0.72601,1.94 -0.73102,0.66602 -2.237,0.992 -4.013,0.992 m -20.07401,-7.03998 c -2.96799,0 -4.80099,2.10699 -4.80099,4.76196 0,2.65601 1.83301,4.76202 4.80099,4.76202 2.96802,0 4.80099,-2.10602 4.80099,-4.76202 0,-2.65497 -1.83298,-4.76196 -4.80099,-4.76196" />
		</g>
		<circle fill="#7d959f" fill-opacity="1" fill-rule="evenodd" cx="150.71162" cy="11.162201" r="18.50598" />
		<g transform="matrix(0.02028725,0,0,0.02028725,124.12099,-0.91812296)">
			<path fill="#ffffff" d="m 949.16553,764.90898 -161.43075,0 c -15.34633,0 -23,-14.82515 -23,-60 0,-42.12619 5.79062,-59 25,-59 l 159.43075,0 0,-175.79779 125.99997,0 0,175.79779 187.6967,0 0,119 -187.6967,0 0,161.32965 c 0,16.72978 -13.2231,25 -66,25 -50.1718,0 -59.99997,-8.42839 -59.99997,-24 z" />
			<path fill="#ffffff" d="m 1632.1429,980.3979 c -46.5146,0 -76.1429,-2.47709 -76.1429,-33.03572 l 0,-545 c -67.5356,43.02833 -129.9211,79.18982 -189.3899,111.46243 l -58.9676,-118.94547 c 127.7314,-76.0379 199.3666,-118.59056 246.856,-150.13392 12.828,-8.40252 24.8774,-14.38304 60.5015,-14.38304 l 53,0 c 35.1679,0 43,7.95975 43,32 l 0,688 c 0,24.84715 -28.2533,30.03572 -78.8571,30.03572 z" />
		</g>
	</g>
</svg>
