<svg xmlns="http://www.w3.org/2000/svg" width="128" height="64"><path d="M120.158 26.058c-4.556 0-6.75.706-6.75 2.695v8.195h-12.04c-.507 0-.74-.36-.422-.86 4.877-7.687 10.335-16.262 15.835-24.65.93-1.412 1.31-2.4 1.31-2.912 0-.908-.554-1.4-1.49-1.56-1.35-.23-3.393-.473-5.475-.473-2.1 0-4.172.138-5.674.414-1.484.274-2.324 1.098-3.027 2.345-4.25 7.545-10.073 18.276-13.706 25.234-.625 1.198-.888 2.185-.888 3.174 0 1.02.353 2.128.754 3.366l1.03 2.987c.617 1.487 1.64 2.064 3.673 2.064h20.125v8.154c0 1.71 1.618 2.49 6.74 2.49 4.526 0 6.717-.757 6.717-2.493V28.81c0-2.044-2.055-2.75-6.706-2.75M29.296 13.996c-2.028 0-3.693.367-4.514 1.116-.553.51-.81 1.19-.81 2.183V37.55c0 3.368-.542 5.194-1.732 6.473-1.046 1.125-2.69 1.734-4.5 1.734-1.765 0-3.33-.587-4.264-1.574-.972-1.028-1.426-2.455-1.426-4.564v-13.2c0-.578-.216-.834-.854-.834H2.22c-.632 0-.84.247-.84.837V38.35c0 4.76 1.228 7.48 3.37 9.62C7.535 50.76 12.294 52 16.816 52c4.516 0 9.225-1.6 12.008-4.17 2.73 2.49 7.693 4.17 13.17 4.17 7.237 0 12.557-2.99 15.662-8.08 1.378 2.137 2.398 3.724 3.375 5.17 1.448 2.13 2.76 2.912 5.69 2.912 2.78 0 4.45-.667 5.958-2.966 3.943-6.03 7.304-13.162 9.726-19.723.303-.82.52-1.42.52-1.794 0-.39-.25-.69-.847-.88-.58-.183-2.134-.66-2.914-.897-1.297-.395-1.767-.51-2.047-.51-.522 0-.81.293-.99.898-1.816 6.046-4.58 12.84-7.046 17.058-.81-1.54-2.3-4.22-3.688-6.64-2.144-3.74-4.26-7.513-5.325-9.247-1.074-1.752-1.793-2.22-3.206-2.22-2.915 0-7.23 2.616-7.23 5.054 0 .83.23 1.45 1.088 2.914.976 1.67 1.467 3.02 1.467 4.685 0 4.146-3.095 7.9-9.075 7.9-2.84 0-5.03-.805-6.457-2.27-1.36-1.398-2.024-3.278-2.024-6.416V31.68c.995.426 2.22.642 3.696.642h4.734c.64 0 .863-.257.863-.833v-5.07c0-.577-.224-.834-.862-.834h-8.43V17.29c0-.994-.26-1.674-.815-2.183-.823-.75-2.517-1.116-4.515-1.116M6.71 21.918c-3.338 0-5.4-2.37-5.4-5.355 0-2.99 2.062-5.36 5.4-5.36 3.34 0 5.403 2.37 5.403 5.357 0 2.985-2.063 5.355-5.402 5.355" fill="#7d959f"/></svg>