<svg xmlns="http://www.w3.org/2000/svg" width="128" height="64"><g fill="#7f482e"><path d="M31.651 5.905c0-3.227-2.225-5.787-5.833-5.787-3.607 0-5.835 2.56-5.835 5.787 0 3.228 2.228 5.786 5.835 5.786 3.608 0 5.833-2.558 5.833-5.786m18.566-2.768c2.157 0 3.988.394 4.877 1.204.604.552.881 1.288.881 2.36v8.961h9.11c.69 0 .93.278.93.9v5.48c0 .624-.24.9-.93.9h-5.114c-1.594 0-2.92-.235-3.996-.697v5.692c0 3.39.717 5.425 2.189 6.932 1.54 1.583 3.907 2.457 6.973 2.457 6.46 0 9.805-4.061 9.805-8.539 0-1.798-.53-3.256-1.587-5.06-.923-1.584-1.173-2.252-1.173-3.15 0-2.632 4.664-5.458 7.81-5.458 1.53 0 2.303.504 3.466 2.399 1.147 1.873 3.433 5.951 5.75 9.992 1.498 2.61 3.11 5.508 3.985 7.171 2.662-4.554 5.648-11.896 7.61-18.428.2-.651.505-.97 1.075-.97.302 0 .809.128 2.208.553.847.257 2.527.773 3.148.967.65.206.917.534.917.946 0 .406-.233 1.051-.56 1.94-2.617 7.088-6.25 14.791-10.51 21.306-1.625 2.486-3.426 3.204-6.429 3.204-3.17 0-4.589-.844-6.145-3.144-1.06-1.563-2.158-3.277-3.647-5.59-3.357 5.503-9.103 8.734-16.92 8.734-5.919 0-11.278-1.812-14.232-4.505-3.004 2.777-8.09 4.505-12.97 4.505-4.888 0-10.028-1.34-13.034-4.346-2.317-2.319-3.643-5.255-3.643-10.4V16.57c0-.636.224-.903.906-.903h9.69c.689 0 .92.278.92.899V30.82c0 2.277.494 3.818 1.542 4.929 1.01 1.066 2.7 1.701 4.607 1.701 1.955 0 3.733-.66 4.863-1.874 1.286-1.382 1.869-3.354 1.869-6.991V6.702c0-1.073.278-1.809.882-2.36.888-.811 2.686-1.205 4.877-1.205M72.27 62.41c-.893.94-2.1 1.444-3.865 1.444-1.764 0-3.006-.503-3.896-1.445-.992-1.042-1.428-2.568-1.428-4.52 0-1.946.436-3.46 1.428-4.497.89-.941 2.132-1.446 3.896-1.446 1.765 0 2.972.505 3.865 1.446.99 1.038 1.425 2.55 1.425 4.497 0 1.952-.436 3.478-1.425 4.52zm-2.034-7.76c-.437-.404-.989-.656-1.83-.656-.84 0-1.429.252-1.865.656-.723.671-.957 1.763-.957 3.24 0 1.478.234 2.588.957 3.259.436.404 1.025.654 1.864.654.842 0 1.394-.25 1.831-.654.722-.671.956-1.78.956-3.26 0-1.476-.234-2.568-.956-3.239zm11.25 8.617c0 .334-.284.502-1.225.502-.973 0-1.227-.168-1.227-.52V52.114h4.67c1.31 0 2.386.185 3.175.805.704.555 1.125 1.444 1.125 2.771 0 1.229-.42 2.202-1.159 2.839-.385.319-.825.554-1.326.705l2.467 3.83c.134.217.168.304.168.386 0 .185-.353.319-1.192.319-.99 0-1.36-.134-1.528-.421L83.1 59.454h-1.614zM85.114 57c.269-.284.385-.72.385-1.31 0-.52-.134-.924-.385-1.174-.337-.337-.823-.42-1.595-.42h-2.035v3.375h2.134c.707 0 1.177-.134 1.496-.47zm-34.147 5.56c-1.042-.973-1.544-2.57-1.544-4.636 0-2.03.486-3.544 1.529-4.567.938-.924 2.333-1.411 4.215-1.411.99 0 2.154.12 2.922.319l-.12 2.05c-.888-.17-1.846-.27-2.57-.27-1.158 0-1.878.27-2.383.69-.74.62-1.09 1.661-1.09 3.157 0 1.325.284 2.35.938 3.004.556.555 1.395.857 2.487.857.62 0 1.426-.099 1.863-.2.32-.067.555-.134.69-.134.134 0 .235.084.286.285.099.369.167.973.167 1.293 0 .32-.068.388-.32.47-.67.235-1.896.387-2.971.387-1.762 0-3.158-.404-4.1-1.293zm50.578-10.446v1.984H96.12V56.8l4.633-.003.004 1.967H96.12v2.94h5.526v1.981h-7.39c-.436 0-.589-.134-.589-.537V52.65c0-.403.153-.537.59-.537zm-73.82 0v1.984h-5.425V56.8l4.644-.012-.007 1.976H22.3v2.94h5.527v1.981h-7.39c-.436 0-.589-.134-.589-.537V52.65c0-.403.153-.537.589-.537zm8.704 11.21c0 .383-.25.572-1.19.557-.974-.017-1.119-.178-1.129-.572V52.146l2.87.013 4.772 8.611-.017-8.614h2.282l.02 10.95c0 .554-.656.688-1.562.688-1.126 0-1.58-.233-1.831-.689l-4.249-7.59z"/></g></svg>