<svg xmlns="http://www.w3.org/2000/svg" width="128" height="64"><g transform="matrix(.57 0 0 .57 -56.661 -272.704)"><path fill="#00beca" d="M99.924 503.845c0-6.002 4.253-10.915 11.086-10.915 7.195 0 11.052 5.154 11.052 11.207 0 6.656-4.874 10.69-11 10.69-6.668 0-11.138-4.547-11.138-10.982zm.056 20.1c0-1.02.574-1.76 1.718-1.76h18.676c.987 0 1.64.783 1.64 1.744v28.63c0 4.88 2.78 10.56 11.357 10.56 8.36 0 12.68-5.2 12.68-15.818v-2.232l8.87 16.883 1.15 5.723s-8.704 8.413-24.477 8.413c-7.83 0-31.606-1.285-31.606-27.3z"/><path fill="#8c7b11" d="M156.063 567.68l8.87-22.89 2.86-2.86v4.005c0 9.635 4.676 17.048 16.77 17.048 11.03 0 18.792-6.248 18.792-15.943 0-4.928-2.385-8.838-2.385-8.838l12.51 6.247 1.097 15.22S206.247 576 182.762 576c-18.34 0-26.7-8.327-26.7-8.327z"/><path d="M156.063 567.68s-10.015-7.652-10.015-21.962v-40.986c0-3.296 2.127-6.152 10.993-6.152 9.69 0 10.76 3.772 10.76 6.6v17.006h17.168c1.24 0 1.717.724 1.717 1.87v10.147c0 .96-.39 1.717-1.52 1.717H173.81c-2.946 0-6.01-1.144-6.01-1.144v6.867c0 8.562-2.21 17.308-11.73 26.038z"/><path fill="#ffab00" d="M214.577 559.67l2.726-29.952 1.232-5.212s5.44 7.932 19.3 33.45c8.803-16.005 14.417-35.13 14.417-35.13.394-1.308 1.437-1.624 2.948-1.226l9.502 2.936c1.154.412 1.78.868 1.13 3.013-7.903 22.992-20.28 41.97-20.28 41.97-2.382 3.53-4.81 6.53-12.85 6.53-6.487 0-8.746-2.21-11.006-5.59z"/><path fill="#c80063" d="M214.577 559.67l-14.813-23.34c-.89-1.665-1.566-2.674-1.566-4.65.01-2.903 1.52-5.003 6.637-8.21 1.106-.725 5.09-2.31 8.32-2.31 4.353 0 7.602 4.507 7.602 13.936 0 15.34-6.18 24.573-6.18 24.573z"/><circle fill-rule="evenodd" transform="matrix(1.183 0 0 1.183 -40.692 -83.593)" cx="286.757" cy="508.521" r="21.087"/><path d="M288.553 522.434h-4.413c-.42 0-.63-.405-.63-1.64 0-1.152.16-1.613.684-1.613h4.36v-4.8h3.444v4.807h5.13v3.254H292v4.41c0 .458-.362.684-1.805.684-1.37 0-1.64-.23-1.64-.655zm18.672 5.892c-1.272 0-2.082-.068-2.082-.904v-14.9c-1.846 1.177-3.552 2.166-5.178 3.048l-1.612-3.252c3.492-2.078 5.45-3.242 6.75-4.104.35-.23.68-.393 1.653-.393h1.45c.96 0 1.174.22 1.174.88v18.81c0 .68-.772.82-2.155.82z" fill="#fff"/></g></svg>