<svg xmlns="http://www.w3.org/2000/svg" width="128" height="64"><path fill="#848481" d="M78.054 20.007c-2.18 0-4.085.466-5.99 1.063-2.033.92-2.842 1.455-2.842 3.18v14.44c0 6.52 4.53 8.707 9.64 8.707 4.345 0 8-2.26 9.038-5.566 1.484 3.72 3.977 5.46 8.12 5.46 3.34.06 5.443-1.36 6.78-2.84.418-.46.772-1.21.772-1.71 0-.41-.237-.763-.592-1.088-.47-.39-1.078-.37-1.744.207-.744.66-2.667 1.543-4.522 1.5-1.782 0-3.39-.775-4.033-2.313 6.95-.175 10.04-2.616 10.04-6.05 0-3.626-3.19-5.59-6.37-5.59-3.85 0-7.87 2.795-8.47 6.206-.71-1.605-2.3-2.893-4.292-3.464 1.466-.45 3.133-2.34 3.133-5.22 0-4.1-3.11-6.913-8.65-6.913zm0 4.262c2.294 0 3.363 1.46 3.363 3.03 0 2.95-3.26 3.72-6.695 3.98V25.3s.888-1.03 3.332-1.03zm17.64 8.91c1.357 0 2.415.87 2.415 1.94 0 2.09-3.33 2.87-5.85 2.87 0-3.08 1.21-4.82 3.43-4.82zm-17.036 2.04c3.114 0 4.413 1.73 4.413 3.76 0 2.32-1.86 3.76-4.13 3.76-2.84 0-4.21-2.01-4.21-4.51v-2.49s1.63-.49 3.94-.52z"/><path d="M15.72 24.792c0-1.81 1.282-3.29 3.342-3.29 2.17 0 3.333 1.553 3.333 3.378 0 2.007-1.47 3.223-3.317 3.223-2.01 0-3.36-1.37-3.36-3.31zm.017 6.06c0-.31.172-.53.517-.53h5.632c.297 0 .494.236.494.525v8.634c0 1.48.838 3.19 3.425 3.19 2.52 0 3.822-1.56 3.822-4.76v-.67l2.674 5.09.35 1.725s-2.62 2.537-7.38 2.537c-2.36 0-9.53-.39-9.53-8.23v-7.5zm16.91 13.188l2.674-6.903.87-.862v1.208c0 2.905 1.41 5.14 5.06 5.14 3.33 0 5.67-1.884 5.67-4.807 0-1.486-.72-2.665-.72-2.665l3.775 1.89.33 4.59s-2.512 4.93-9.593 4.93c-5.53 0-8.05-2.51-8.05-2.51zm0 0s-3.02-2.308-3.02-6.623V25.06c0-.995.64-1.856 3.315-1.856 2.92 0 3.242 1.137 3.242 1.99v5.128h5.176c.374 0 .518.218.518.564v3.06c0 .29-.118.517-.458.517h-3.424c-.89 0-1.812-.345-1.812-.345v2.07c0 2.582-.667 5.22-3.537 7.852zm17.643-2.416l.822-9.03.37-1.573s1.642 2.4 5.82 10.09c2.655-4.82 4.347-10.59 4.347-10.59.11-.39.43-.49.89-.37l2.86.89c.34.13.53.26.34.91-2.39 6.93-6.12 12.65-6.12 12.65-.72 1.07-1.45 1.97-3.88 1.97-1.957 0-2.638-.67-3.32-1.68l-2.14-3.26zm0 0l-4.467-7.038c-.268-.5-.472-.806-.472-1.4.01-.877.46-1.51 2.01-2.477.34-.22 1.54-.7 2.51-.7 1.31 0 2.29 1.36 2.29 4.2 0 4.62-1.86 7.41-1.86 7.41z" fill="#BB7BAE"/><path fill="#BB7BAE" fill-rule="evenodd" d="M111.61 43.787c0 1.633-1.325 2.957-2.96 2.957-1.632 0-2.957-1.324-2.957-2.957 0-1.634 1.325-2.958 2.958-2.958 1.64 0 2.96 1.32 2.96 2.95z"/></svg>