<svg xmlns="http://www.w3.org/2000/svg" width="128" height="64"><path fill="#848481" d="M78.054 20.007c-2.18 0-4.085.466-5.99 1.063-2.033.92-2.842 1.455-2.842 3.18v14.44c0 6.52 4.53 8.707 9.64 8.707 4.345 0 8-2.26 9.038-5.566 1.484 3.72 3.977 5.46 8.12 5.46 3.34.06 5.443-1.365 6.78-2.844.418-.465.772-1.214.772-1.715 0-.41-.237-.762-.592-1.087-.47-.39-1.078-.37-1.744.207-.744.66-2.667 1.544-4.522 1.5-1.782 0-3.39-.774-4.033-2.312 6.95-.176 10.04-2.617 10.04-6.05 0-3.627-3.194-5.59-6.373-5.59-3.85 0-7.873 2.794-8.47 6.205-.71-1.605-2.306-2.893-4.297-3.464 1.465-.45 3.132-2.34 3.132-5.22 0-4.1-3.11-6.913-8.65-6.913zm0 4.262c2.294 0 3.363 1.46 3.363 3.03 0 2.952-3.26 3.72-6.695 3.983V25.3s.888-1.03 3.332-1.03zm17.64 8.91c1.357 0 2.415.87 2.415 1.94 0 2.09-3.33 2.87-5.85 2.87 0-3.08 1.21-4.817 3.43-4.817zm-17.036 2.04c3.114 0 4.413 1.73 4.413 3.76 0 2.32-1.86 3.76-4.13 3.76-2.84 0-4.21-2.01-4.21-4.51v-2.49s1.63-.49 3.935-.52z"/><path d="M15.72 24.792c0-1.81 1.282-3.29 3.342-3.29 2.17 0 3.333 1.553 3.333 3.378 0 2.007-1.47 3.223-3.317 3.223-2.01 0-3.36-1.37-3.36-3.31zm.017 6.06c0-.31.172-.53.517-.53h5.632c.297 0 .494.236.494.525v8.634c0 1.48.838 3.19 3.425 3.19 2.52 0 3.822-1.566 3.822-4.766v-.673l2.674 5.09.35 1.726s-2.62 2.537-7.38 2.537c-2.36 0-9.53-.39-9.53-8.23V30.86zm16.91 13.188l2.674-6.903.87-.862v1.208c0 2.905 1.41 5.14 5.057 5.14 3.326 0 5.667-1.884 5.667-4.807 0-1.486-.72-2.665-.72-2.665l3.773 1.89.33 4.59s-2.512 4.927-9.593 4.927c-5.53 0-8.05-2.51-8.05-2.51zm0 0s-3.02-2.308-3.02-6.623V25.06c0-.995.64-1.856 3.315-1.856 2.92 0 3.242 1.137 3.242 1.99v5.128h5.176c.374 0 .518.218.518.564v3.06c0 .29-.118.517-.458.517h-3.424c-.89 0-1.812-.345-1.812-.345v2.07c0 2.582-.667 5.22-3.537 7.852zm17.643-2.416l.822-9.03.37-1.573s1.642 2.4 5.82 10.09c2.655-4.822 4.347-10.59 4.347-10.59.11-.393.43-.49.89-.37l2.86.888c.344.125.533.262.34.91C63.353 38.88 59.622 44.6 59.622 44.6c-.72 1.064-1.45 1.97-3.876 1.97-1.956 0-2.637-.67-3.32-1.685l-2.145-3.256zm0 0l-4.467-7.038c-.268-.5-.472-.806-.472-1.4.01-.877.46-1.51 2.01-2.477.333-.22 1.534-.7 2.51-.7 1.31 0 2.29 1.36 2.29 4.2 0 4.623-1.863 7.41-1.863 7.41z" fill="#BB7BAE"/><path fill="#BB7BAE" fill-rule="evenodd" d="M111.61 43.787a2.958 2.958 0 11-2.96-2.958 2.95 2.95 0 012.96 2.95z"/></svg>