<?xml version="1.0" encoding="UTF-8" standalone="no"?>

<svg xmlns:svg="http://www.w3.org/2000/svg" xmlns="http://www.w3.org/2000/svg" version="1.1" width="128" height="64" xmlns:xlink="http://www.w3.org/1999/xlink">
	<g stroke="null" id="layer1">
		<rect fill="#4a7280" fill-rule="evenodd" y="-3.35227" x="-4" height="70.70454" width="135.99999" id="rect3369"/>
		<path fill="#efeaea" id="path3036" d="m78.05396,20.0071c-2.18014,0 -4.08487,0.46633 -5.98862,1.0625c-2.03415,0.91907 -2.84341,1.45527 -2.84341,3.18146l0,14.44035c0,6.51975 4.52944,8.70525 9.64098,8.70525c4.3444,0 7.99875,-2.26063 9.03728,-5.56606c1.4843,3.71558 3.97636,5.45134 8.11968,5.45134c3.33974,0.06126 5.44307,-1.36405 6.77947,-2.8434c0.41882,-0.46427 0.77272,-1.21326 0.77272,-1.71449c0,-0.41065 -0.2372,-0.76171 -0.59161,-1.08664c-0.47093,-0.38898 -1.07861,-0.37119 -1.74468,0.20526c-0.74327,0.65908 -2.66696,1.54634 -4.52167,1.5032c-1.78197,0 -3.38918,-0.77386 -4.03266,-2.31215c6.94093,-0.17482 10.03339,-2.61598 10.03339,-6.04902c0,-3.62635 -3.1958,-5.59019 -6.375,-5.59019c-3.85082,0 -7.87424,2.79416 -8.46981,6.20596c-0.71221,-1.60632 -2.30724,-2.8945 -4.29829,-3.46519c1.46616,-0.45173 3.13316,-2.33883 3.13316,-5.21592c0,-4.09729 -3.11008,-6.91228 -8.65093,-6.91228zm0,4.26207c2.29446,0 3.36259,1.46651 3.36259,3.03658c0,2.95298 -3.25953,3.72196 -6.69495,3.98438l0,-5.98864c0,0 0.88834,-1.03232 3.33237,-1.03232zm17.63993,8.91052c1.35697,0 2.41476,0.8746 2.41476,1.94389c0,2.09309 -3.3255,2.87356 -5.84375,2.87356c0,-3.07932 1.20953,-4.81746 3.42899,-4.81746zm-17.03622,2.04048c3.11471,0 4.41299,1.73738 4.41299,3.76101c0,2.32289 -1.86237,3.76101 -4.13531,3.76101c-2.83963,0 -4.21377,-2.01072 -4.21377,-4.50959l0,-2.49326c0,0 1.62988,-0.48788 3.93608,-0.51917z"/>
		<g stroke="null" fill="#bcfd58" id="g3030" transform="matrix(0.0862751259775485,0,0,0.0862751259775485,206.3941598374462,222.53766879288247) ">
			<path fill="#bcfd58" d="m-2210.07739,-2292.03931c0,-20.97803 14.86255,-38.14526 38.74512,-38.14526c25.1438,0 38.625,18.01001 38.625,39.16479c0,23.26392 -17.03442,37.36548 -38.44507,37.36548c-23.30322,0 -38.92505,-15.89551 -38.92505,-38.38501z" id="path3018"/>
			<path fill="#bcfd58" d="m-2209.87866,-2221.78931c0,-3.5708 2.0022,-6.15186 6,-6.15186l65.27222,0c3.44824,0 5.72778,2.73291 5.72778,6.09155l0,100.06641c0,17.06104 9.71436,36.90332 39.69604,36.90332c29.19897,0 44.30396,-18.16846 44.30396,-55.26318l0,-7.7981l31,59l4,20c0,0 -30.41504,29.40393 -85.5415,29.40393c-27.36157,-0.00012 -110.4585,-4.48853 -110.4585,-95.40393l0,-86.84814z" id="path3020"/>
			<path fill="#bcfd58" d="m-2013.87866,-2068.94116l31,-80l10,-10l0,14c0,33.67383 16.33594,59.58154 58.60645,59.58154c38.5437,0 65.67456,-21.83496 65.67456,-55.71851c0,-17.22241 -8.33691,-30.88794 -8.33691,-30.88794l43.72314,21.83154l3.83276,53.19336c0,0 -29.11646,57.104 -111.19116,57.104c-64.0896,0 -93.30884,-29.104 -93.30884,-29.104z" id="path3024"/>
			<path fill="#bcfd58" d="m-2013.87866,-2068.94116c0,0 -35,-26.74658 -35,-76.75903l0,-143.24097c0,-11.51807 7.43237,-21.49927 38.41943,-21.49927c33.86426,0 37.58057,13.1814 37.58057,23.0708l0,59.42847l60,0c4.32935,0 6,2.53052 6,6.54028l0,35.45972c0,3.35303 -1.36816,6 -5.30371,6l-39.69629,0c-10.29419,0 -21,-4 -21,-4l0,24c0,29.92432 -7.73267,60.49097 -41,91z" id="path3022"/>
			<path fill="#bcfd58" d="m-1809.37866,-2096.94116l9.52734,-104.67554l4.30444,-18.21509c0,0 19.01392,27.72217 67.45313,116.90308c30.76367,-55.93604 50.38306,-122.77686 50.38306,-122.77686c1.37744,-4.56885 5.02515,-5.67505 10.30566,-4.2832l33.20679,10.26318c4.03198,1.43872 6.21924,3.03149 3.94897,10.52808c-27.62061,80.38037 -70.87183,146.68555 -70.87183,146.68555c-8.3269,12.34033 -16.80933,22.81665 -44.91211,22.81665c-22.67261,0 -30.56885,-7.72241 -38.46582,-19.50854l-24.87964,-37.7373z" id="path3028"/>
			<path fill="#bcfd58" d="m-1809.37866,-2096.94116l-51.76807,-81.57153c-3.10693,-5.81396 -5.47485,-9.3396 -5.47485,-16.24438c0.04004,-10.14941 5.31372,-17.48779 23.1958,-28.69116c3.86401,-2.53931 17.79077,-8.07471 29.07471,-8.07471c15.21704,0 26.56982,15.75 26.56982,48.70117c0,53.61523 -21.59741,85.88062 -21.59741,85.88062z" id="path3026"/>
		</g>
		<path fill="#bcfd58" fill-rule="evenodd" d="m111.60871,43.78663c0,1.63346 -1.32419,2.95763 -2.95764,2.95763c-1.63346,0 -2.95765,-1.32417 -2.95765,-2.95763c0,-1.63346 1.32419,-2.95765 2.95765,-2.95765c1.63345,0 2.95764,1.32418 2.95764,2.95765z" id="path3367"/>
	</g>
</svg>