<svg xmlns="http://www.w3.org/2000/svg" width="128" height="64"><path d="M58.767 51.894C50.077 49.47 44.24 41.87 44.24 32.98c0-6.52 4.019-16.06 11.723-27.825L59.018.489l6.705-.141 6.705-.141-.922 1.4c-.507.77-2.34 3.723-4.074 6.562-3.001 4.913-3.095 5.162-1.946 5.162 2.177 0 7.041 1.807 9.689 3.6 9.589 6.492 11.327 19.75 3.754 28.643-4.844 5.69-13.121 8.284-20.162 6.32zm8.816-11.32c2.965-1.354 4.386-3.615 4.604-7.329.155-2.652 0-3.317-1.218-5.177-2.46-3.758-6.894-5.026-10.695-3.06-5.193 2.688-6.572 9.096-2.869 13.336 2.806 3.213 6.333 3.986 10.178 2.23z" fill="#de022a"/><path d="M22.108 63.005c0-1.023 9.278-59.67 9.825-62.104.258-1.148.976-.528 8.657 7.479l8.375 8.731-1.87 4.544c-2.513 6.105-3.247 10.427-2.458 14.475 1.24 6.361 5.255 11.568 11.035 14.31 2.427 1.152 3.382 1.308 8.023 1.308 4.92 0 5.484-.106 8.55-1.614 4.196-2.064 7.2-5.062 9.117-9.1 3.016-6.35 2.187-14.356-2.055-19.844l-1.937-2.505 2.273-2.505c4.066-4.482 15.679-16.374 15.82-16.2.075.094 2.333 13.921 5.019 30.728 2.685 16.807 5 31.178 5.146 31.936l.264 1.378H84.858l-.264-1.629c-.145-.895-.668-5.178-1.161-9.518-.493-4.34-1.056-7.89-1.251-7.89-.267 0-16.068 16.398-18.006 18.687-.187.22-4.486-4.01-9.554-9.402-5.068-5.392-9.284-9.593-9.37-9.335-.086.257-.65 4.6-1.256 9.652l-1.1 9.184-10.394.135c-10.222.134-10.394.119-10.394-.901zm37.235-22.499c-.874-.533-2.17-1.824-2.88-2.87-2.072-3.049-1.63-8.534.854-10.595.574-.477 1.262-.009 3.612 2.455l2.903 3.043 3.146-3.118 3.146-3.118 1.038 1.701c2.834 4.647 1.284 10.266-3.517 12.749-2.043 1.056-6.376.927-8.302-.247z"/></svg>