<?xml version="1.0" encoding="UTF-8" standalone="no"?>

<svg xmlns:svg="http://www.w3.org/2000/svg" xmlns="http://www.w3.org/2000/svg" version="1.1" width="128" height="64" xmlns:xlink="http://www.w3.org/1999/xlink">
	<g transform="matrix(1.1525549,0,0,1.2012714,-0.62127304,9.6376374)">
		<path d="m 2.399999,9.453347 c 0.5722704,0 1.3394947,0 1.9633372,0 0,8.72301 0,17.459544 0,26.177811 3.885909,-0.242795 3.9455552,-0.243569 8.5084948,-0.64 0,-8.073891 0,-16.162013 0,-24.228919 1.635736,0.309631 1.696339,0.329854 3.271347,0.654447 0,7.846469 2e-5,15.567994 2e-5,23.414472 4.198389,-0.328775 4.23766,-0.331762 8.507957,-0.64 0,-8.888431 -1.9e-4,-9.228918 -1.9e-4,-21.46558 1.708522,0.307896 1.756991,0.313794 3.272435,0.597895 0,9.743167 -1.7e-5,10.150808 -1.7e-5,20.707685 4.636908,-0.368793 4.684365,-0.371344 8.507795,-0.64 0,-9.156111 0,-18.053931 0,-27.2100414 C 20.86555,4.3658122 20.275972,4.2907419 2.399999,1.6 c 0,2.6220656 0,5.2394556 0,7.853347 z m 39.266745,24.21448 c 10.467153,0 20.946248,0 31.413389,0 0,-6.326433 0,-12.655979 0,-18.978917 -1.956754,0 -3.941307,0 -5.890006,0 0,-3.704212 0,-7.4248532 0,-11.1255714 -8.507434,0 -17.01802,0 -25.523383,0 0,10.0383564 0,20.0724234 0,30.1044884 z m 9.16224,-18.978917 c 2.619077,0 5.234273,0 7.853349,0 0,-1.098046 0,-2.179703 0,-3.272224 -2.620741,0 -5.233368,0 -7.853349,0 0,1.095504 0,2.182053 0,3.272224 z m 0,11.780009 c 4.578087,0 9.165272,0 13.743365,0 0,-1.173327 0,-2.651889 0,-3.926664 -4.582476,0 -9.160888,0 -13.743365,0 0,1.173327 0,2.651882 0,3.926664 z M 77.66125,23.851141 c 12.196166,-0.740348 12.525115,-0.759836 23.56005,-1.308886 0,1.363538 0,3.09964 0,4.58111 -8.276006,-0.326693 -8.345151,-0.336715 -17.670041,-0.654283 0,2.619626 0,4.275168 0,6.885058 13.230557,0.938283 13.490341,0.964552 26.177841,1.855931 -0.0107,-9.977312 0.0192,-16.209316 0,-21.961183 -11.443554,1.193789 -11.621717,1.199587 -23.560056,2.094467 0,-1.098046 0,-2.310375 0,-3.402897 11.769662,-1.055802 12.201942,-1.131382 23.560056,-2.094467 0,-4.0610394 0,-4.981195 0,-7.5910766 -15.934216,1.4585573 -16.360897,1.5129439 -32.06785,2.6175266 0,6.330517 0,12.653149 0,18.9787 z" style="fill:#bed500;fill-opacity:1;fill-rule:evenodd;stroke:none" />
	</g>
</svg>
