<svg xmlns="http://www.w3.org/2000/svg" width="128" height="64"><path d="M2.145 20.994h2.263V52.44c4.478-.29 4.547-.292 9.806-.768V22.566c1.885.372 1.955.396 3.77.786V51.48c4.84-.396 4.885-.4 9.807-.77V24.925c1.97.37 2.03.376 3.778.718v24.875c5.344-.443 5.4-.446 9.806-.77V17.064c-17.94-2.18-18.62-2.27-39.223-5.503V21zm45.257 29.088h36.206v-22.8h-6.79V13.92H47.403v36.164zm10.56-22.8h9.05v-3.93h-9.05v3.93zm0 14.152h15.84v-4.717h-15.84v4.717zm30.926-3.145c14.056-.89 14.435-.92 27.154-1.58v5.504c-9.54-.393-9.618-.405-20.366-.787v8.27c15.25 1.13 15.548 1.16 30.172 2.23-.013-11.985.022-19.47 0-26.38-13.19 1.433-13.395 1.44-27.155 2.515v-4.09c13.565-1.267 14.064-1.358 27.155-2.515v-9.12c-18.366 1.756-18.857 1.82-36.96 3.148v22.8z" fill="#bed500" fill-rule="evenodd"/></svg>