<svg xmlns="http://www.w3.org/2000/svg" width="128" height="64" xmlns:xlink="http://www.w3.org/1999/xlink"><defs><linearGradient id="a"><stop stop-color="#2e363d" offset="0"/><stop stop-color="#3b484e" offset="1"/></linearGradient><linearGradient gradientUnits="userSpaceOnUse" y2="3603.132" x2="1868.545" y1="2019.996" x1="-393.078" xlink:href="#a"/><linearGradient gradientTransform="translate(5300.479 -944.338)" y2="3603.132" x2="1868.545" y1="2019.996" x1="-393.078" gradientUnits="userSpaceOnUse" xlink:href="#a"/></defs><g stroke="null"><path fill="#fa9228" d="M50.477 37.158c0 1.44-.48 1.92-1.92 1.92h-11.84c-.865 0-1.12-.2-1.12-.64 0-.257.163-.368.637-.807l12.803-12.79c.474-.46.604-.64.86-.64.386 0 .58.28.58.77v12.19z"/><path fill="#80c93a" d="M67.117 41.478c0-1.44.48-1.92 1.92-1.92h11.84c.866 0 1.12.2 1.12.64 0 .138-.046.234-.163.36-.1.11.223.877.003 1.08l-12.48 12.64c-.128.126-1.12-.164-1.12-.164-.233.23-.353.324-.54.324-.385 0-.58-.274-.58-.768V41.478z"/><path fill="#0083bc" d="M82.797 53.318c0 1.44-.48 1.92-1.92 1.92h-11.84c-.865 0-1.12-.2-1.12-.64 0-.257.163-.368.637-.807L81.357 41c.474-.464.604-.64.86-.64.386 0 .58.274.58.768V53.32z"/><path fill="#919583" d="M66.637 20.998c0 1.44-.48 1.92-1.92 1.92h-11.84c-.865 0-1.12-.2-1.12-.64 0-.257.163-.368.637-.807L65.197 8.68c.474-.464.604-.64.86-.64.386 0 .58.274.58.768V21z"/><path fill="#f83237" d="M34.797 41.478c0-1.44.48-1.92 1.92-1.92h11.84c.866 0 1.12.2 1.12.64 0 .138-.046.234-.163.36-.1.11.223.877.003 1.08l-12.48 12.64c-.128.126-1.118-.164-1.118-.164-.24.23-.36.324-.55.324-.384 0-.58-.274-.58-.768V41.478z"/><path fill="#007db6" d="M50.957 41.478c0-1.44.48-1.92 1.92-1.92h11.84c.866 0 1.12.2 1.12.64 0 .138-.046.234-.163.36-.1.11.223.877.003 1.08l-12.48 12.64c-.128.126-1.12-.164-1.12-.164-.233.23-.353.324-.54.324-.385 0-.58-.274-.58-.768V41.478z"/><path fill="#ff007f" d="M67.117 57.63c0-1.44.48-1.92 1.92-1.92h11.84c.866 0 1.12.2 1.12.64 0 .26-.162.37-.636.808L68.56 69.95c-.473.465-.604.64-.86.64-.385 0-.58-.273-.58-.767V57.63z"/><path fill="#331e61" d="M67.117 25.318c0-1.44.48-1.92 1.92-1.92h11.84c.866 0 1.12.2 1.12.64 0 .138-.046.234-.163.36-.1.11.223.877.003 1.08l-12.48 12.64c-.128.126-1.12-.164-1.12-.164-.233.23-.353.324-.54.324-.385 0-.58-.274-.58-.768V25.318z"/><path fill="#00b538" d="M50.957 25.318c0-1.44.48-1.92 1.92-1.92h11.84c.866 0 1.12.2 1.12.64 0 .138-.046.234-.163.36-.1.11.223.877.003 1.08l-12.48 12.64c-.128.126-1.118-.164-1.118-.164-.24.23-.36.324-.55.324-.384 0-.58-.274-.58-.768V25.318z"/><path fill="#ff7a7f" d="M67.117 9.158c0-1.44.48-1.92 1.92-1.92h11.84c.866 0 1.12.2 1.12.64 0 .138-.046.234-.163.36-.1.11.223.877.003 1.08l-12.48 12.64c-.128.126-1.12-.164-1.12-.164-.233.23-.353.324-.54.324-.385 0-.58-.274-.58-.768V9.158z"/><path fill="#7db5e2" d="M66.637 37.158c0 1.44-.48 1.92-1.92 1.92h-11.84c-.865 0-1.12-.2-1.12-.64 0-.257.163-.368.637-.807l12.803-12.79c.474-.46.604-.64.86-.64.386 0 .58.28.58.77v12.19z"/><path fill="#ffe100" d="M82.797 37.158c0 1.44-.48 1.92-1.92 1.92h-11.84c-.865 0-1.12-.2-1.12-.64 0-.257.163-.368.637-.807l12.803-12.79c.474-.46.604-.64.86-.64.386 0 .58.28.58.77v12.19z"/><path fill="#b10562" d="M82.797 20.998c0 1.44-.48 1.92-1.92 1.92h-11.84c-.865 0-1.12-.2-1.12-.64 0-.257.163-.368.637-.807L81.357 8.68c.474-.464.604-.64.86-.64.386 0 .58.274.58.768V21z"/><path fill="#87cfb4" d="M66.637 53.318c0 1.44-.48 1.92-1.92 1.92h-11.84c-.865 0-1.12-.2-1.12-.64 0-.257.163-.368.637-.807L65.197 41c.474-.464.604-.64.86-.64.386 0 .58.274.58.768V53.32z"/><path fill="#f88eaf" d="M50.477 53.318c0 1.44-.48 1.92-1.92 1.92h-11.84c-.865 0-1.12-.2-1.12-.64 0-.257.163-.368.637-.807L49.037 41c.474-.464.604-.64.86-.64.386 0 .58.274.58.768V53.32z"/><path stroke="#fff" fill="none" stroke-width="1.44.5" d="M39.117 51.238v-6.88h.69l2.35 3.52h.64l2.34-3.52h.7v6.88m9.92-3.68c0 4.264 6.1 4.198 6.1 0 0-4.614-6.1-4.648-6.1 0zm16.8 3.68v-7.04h2.88c2.644 0 2.686 3.36.094 3.36h-2.97"/><path stroke="#fff" fill="#fff" d="M74.984 48.147l1.06-.985 1.882 2.85-.003 1.226h-.876l-2.063-3.09z" stroke-width=".16"/><path fill="none" stroke-width="1.44.5" d="M92.402 50.546l-4.64.003V44.19h4.64m-.24 3.165h-4.4" stroke="#8f9289"/></g></svg>