<svg xmlns="http://www.w3.org/2000/svg" width="128" height="64"><path d="M14.615 1.458c11.26-.005 22.516-.01 33.776.004 3.85 4.08 7.71 8.135 11.58 12.192 3.83-4.087 7.72-8.122 11.56-12.196 11.32-.005 22.65-.005 33.97 0 .01 8.373 0 16.742.01 25.12-.028.38.08.806-.106 1.162-2.81 4.59-5.244 9.418-7.073 14.48-.234.546-.45 1.174-.98 1.508-.45.19-1.114.108-1.356-.368-.32-.603-.304-1.305-.395-1.964-.295-2.552-.564-5.118-.984-7.658-.25-1.296-.535-2.696-1.5-3.67-.904-.885-2.29-.972-3.47-.686-1.083.24-2.1.884-2.65 1.868-.71 1.218-.7 2.696-.444 4.044.446 2.362 1.24 4.637 2.058 6.895 1.613 4.25 3.247 8.51 4.863 12.76.4 1.09 1.04 2.21 2.153 2.7.96.4 2.043.4 3.057.25.88-.14 1.64-.72 2.077-1.48.816-1.39 1.13-2.99 1.613-4.51.96-3.11 1.884-6.24 3.124-9.24.026 6.62 0 13.25.01 19.87H84.3c-.287-2.46-.494-4.946-.365-7.42.035-2.42.135-4.825.108-7.24.076-3.508-.38-6.98-.58-10.48-.224-2.715.07-5.445-.172-8.158 2.01-1.257 4.1-2.36 6.12-3.598 1.36-.843 2.817-1.566 3.978-2.685.64-.625 1.14-1.578.754-2.47-.814-1.657-2.96-2.554-4.69-1.826-1.416.65-2.26 2.07-3.55 2.89-1.61.996-3.236 1.976-4.892 2.907-1.25-.653-2.755-.87-4.11-.445-.735.24-1.42.74-1.71 1.476-.346.807-.056 1.69-.21 2.52-.1.51-.5.875-.934 1.12-1.83 1.083-3.675 2.14-5.5 3.233-1.876 1.095-3.697 2.357-5.807 2.97-1.285.375-2.79.81-3.41 2.117-.593 1.277.11 2.74 1.1 3.59.855.817 2.16.99 3.25.6 1.427-.464 2.6-1.452 3.785-2.34 1.476-1.123 2.984-2.2 4.49-3.28.817-.56 1.636-1.17 2.594-1.47.65-.24 1.47.04 1.74.7.647 1.45.443 3.087.474 4.63.04 5.15-.43 10.28-.61 15.423-.01 2.414-.034 4.824.08 7.238-1.873-.01-3.74.02-5.614-.012.016-5.696.01-11.395.003-17.09-3.557 2.99-7.107 5.99-10.657 8.976-3.56-2.98-7.105-5.98-10.655-8.962-.01 5.696-.005 11.4 0 17.095-11.564.01-23.13.003-34.69 0 .01-20.367.01-40.728.01-61.094zm36.953.01c3.428 1.485 6.835 3.002 10.258 4.493.52.22.854.69 1.244 1.07-1.018 1.12-2.093 2.19-3.112 3.31-2.79-2.96-5.62-5.88-8.39-8.86zm56.208-.04c1.877 1.126 3.758 2.245 5.62 3.384-.012 4.148-.003 8.3-.003 12.452-1.998 2.198-3.866 4.516-5.608 6.926-.02-7.584-.004-15.173-.01-22.762zm.424 35.432c1.535-2.866 3.252-5.644 5.184-8.258.01 11.316 0 22.633.004 33.945-1.872.004-3.744.004-5.617 0 0-8.118.01-16.24 0-24.362-.04-.48.22-.91.44-1.326zM51.585 50.38c1.552 1.288 3.077 2.62 4.646 3.884.03 2.76.01 5.522.02 8.287h-4.66V50.38zm11.74 4.21c1.65-1.396 3.308-2.788 4.964-4.18-.02 1.124.01 2.246-.03 3.36-.35.273-.69.546-1.02.828-1.31.004-2.61.017-3.92-.01z"/></svg>