<?xml version="1.0" encoding="UTF-8" standalone="no"?>

<svg xmlns:svg="http://www.w3.org/2000/svg" xmlns="http://www.w3.org/2000/svg" version="1.1" width="128" height="64" xmlns:xlink="http://www.w3.org/1999/xlink">
	<g>
		<path d="m 14.61541,1.45779 c 11.25988,-0.00438 22.51543,-0.00858 33.77544,0.00438 3.84441,4.07841 7.71028,8.13498 11.5764,12.19171 3.83119,-4.08699 7.72323,-8.12201 11.56317,-12.19609 11.32062,-0.00438 22.64571,-0.00438 33.96182,0 0.004,8.37348 -0.004,16.74258 0.004,25.12026 -0.0262,0.38144 0.0823,0.80613 -0.10423,1.16157 -2.80827,4.58974 -5.24406,9.41795 -7.07304,14.48014 -0.23412,0.54614 -0.45074,1.17453 -0.97954,1.50821 -0.45074,0.19074 -1.11395,0.10831 -1.35651,-0.36835 -0.32089,-0.60248 -0.30344,-1.30451 -0.39442,-1.96334 -0.29465,-2.55272 -0.56342,-5.11854 -0.98377,-7.6583 -0.25157,-1.29594 -0.53751,-2.69571 -1.50414,-3.67105 -0.90575,-0.88406 -2.29269,-0.97083 -3.47144,-0.68474 -1.0835,0.23833 -2.10197,0.88419 -2.64821,1.86798 -0.71078,1.21792 -0.70206,2.69584 -0.44628,4.04374 0.44628,2.36199 1.24384,4.63751 2.05862,6.89551 1.61231,4.25602 3.24631,8.51208 4.86287,12.76389 0.40314,1.08777 1.04014,2.2103 2.15408,2.7001 0.95787,0.40302 2.0414,0.39877 3.05535,0.25142 0.87981,-0.13441 1.63849,-0.71955 2.07602,-1.47793 0.81503,-1.38694 1.1314,-2.98617 1.61232,-4.50747 0.96238,-3.1032 1.88532,-6.23236 3.1249,-9.2402 0.0259,6.62237 0,13.24918 0.009,19.87169 -7.06456,0.0044 -14.13337,0 -21.20243,0.0044 -0.28596,-2.46184 -0.49387,-4.94527 -0.36398,-7.41998 0.03042,-2.41846 0.13014,-4.82387 0.10397,-7.2422 0.07381,-3.50635 -0.38117,-6.98228 -0.58063,-10.47992 -0.22538,-2.71304 0.06929,-5.44351 -0.17353,-8.15668 2.00671,-1.25692 4.1002,-2.36199 6.11992,-3.59724 1.35651,-0.84081 2.81276,-1.56469 3.9743,-2.68288 0.64149,-0.62402 1.13986,-1.57751 0.75418,-2.47034 -0.81504,-1.6557 -2.96035,-2.55286 -4.68961,-1.82473 -1.41711,0.65007 -2.25806,2.06743 -3.54948,2.89078 -1.61231,0.99688 -3.23759,1.97643 -4.8933,2.90825 -1.25255,-0.65444 -2.75642,-0.87123 -4.10871,-0.4464 -0.7367,0.23832 -1.41711,0.74108 -1.71204,1.47358 -0.34655,0.80614 -0.05634,1.6902 -0.21215,2.51806 -0.09973,0.51146 -0.49863,0.87548 -0.93196,1.11819 -1.82896,1.08352 -3.67538,2.14112 -5.49985,3.23322 -1.87682,1.09647 -3.69709,2.35778 -5.80779,2.96884 -1.2827,0.37711 -2.78685,0.81052 -3.40662,2.11941 -0.5936,1.27413 0.10843,2.73909 1.10098,3.58862 0.85389,0.81477 2.15833,0.98816 3.25056,0.60234 1.42582,-0.46808 2.60035,-1.45625 3.7836,-2.34031 1.47372,-1.1269 2.9818,-2.20184 4.49014,-3.28098 0.81477,-0.55909 1.63401,-1.17016 2.59187,-1.46921 0.64993,-0.24271 1.46921,0.03901 1.7422,0.69783 0.64575,1.44749 0.44203,3.08577 0.47247,4.62875 0.03887,5.14884 -0.43358,10.28034 -0.61107,15.42493 -0.01296,2.41412 -0.03467,4.82387 0.07806,7.23795 -1.87235,-0.0087 -3.74049,0.01734 -5.61279,-0.01733 0.01746,-5.69511 0.01295,-11.39428 0.0045,-17.08934 -3.55399,2.98631 -7.10372,5.9854 -10.65319,8.97158 -3.55819,-2.98179 -7.10373,-5.98102 -10.6532,-8.96282 -0.0087,5.69497 -0.0042,11.39862 0,17.09359 -11.56344,0.0086 -23.13099,0.0044 -34.68993,0 0.01295,-20.36586 0.01295,-40.7273 0.01295,-61.09316 l 0,0 -8e-5,1.3e-4 z" />
		<path d="m 51.56759,1.46651 c 3.42834,1.48654 6.83497,3.00347 10.25875,4.49439 0.52009,0.21679 0.8539,0.68487 1.24383,1.06618 -1.01846,1.11832 -2.09322,2.18438 -3.11194,3.3069 C 57.16743,7.37389 54.3372,4.45269 51.56759,1.46651 Z" />
		<path d="m 107.77615,1.4275 c 1.87659,1.1269 3.75764,2.24509 5.62132,3.38495 -0.013,4.14771 -0.004,8.2998 -0.004,12.45175 -1.99802,2.19747 -3.86614,4.5162 -5.60836,6.92594 -0.0216,-7.58463 -0.004,-15.17364 -0.009,-22.7626 l 0,-4e-5 z" />
		<path d="m 108.20099,36.85865 c 1.53426,-2.86487 3.25055,-5.64296 5.18346,-8.25641 0.009,11.31623 0,22.63262 0.004,33.94448 -1.87234,0.0044 -3.74467,0.0044 -5.61703,0 -0.004,-8.11781 0.004,-16.23982 -0.004,-24.36184 -0.0434,-0.48117 0.21665,-0.91024 0.43332,-1.32623 l 0,0 z" />
		<path d="m 51.58507,50.38092 c 1.55172,1.28722 3.07727,2.61778 4.64621,3.88333 0.03016,2.76076 0.0085,5.5217 0.01296,8.28684 -1.55173,0 -3.10745,0 -4.65917,0 0,-4.05687 -0.0042,-8.11781 0,-12.17012 l 0,-5e-5 z" />
		<path d="m 63.32598,54.58921 c 1.6512,-1.39552 3.3069,-2.78685 4.9626,-4.178 -0.01295,1.12253 0.0172,2.24509 -0.02167,3.35886 -0.34682,0.273 -0.68488,0.54613 -1.01846,0.82785 -1.31339,0.0044 -2.61358,0.01733 -3.92247,-0.0087 z" />
	</g>
</svg>
