<svg xmlns="http://www.w3.org/2000/svg" width="128" height="64"><path d="M14.615 1.458c11.26-.005 22.516-.01 33.776.004 3.85 4.08 7.71 8.135 11.58 12.192 3.83-4.087 7.72-8.122 11.56-12.196 11.32-.005 22.65-.005 33.967 0 .004 8.373-.004 16.742.004 25.12-.027.38.08.806-.105 1.162-2.808 4.59-5.244 9.418-7.073 14.48-.234.546-.45 1.174-.98 1.508-.45.19-1.114.108-1.356-.368-.32-.603-.304-1.305-.395-1.964-.294-2.552-.563-5.118-.983-7.658-.252-1.296-.538-2.696-1.504-3.67-.903-.885-2.29-.972-3.47-.686-1.082.24-2.1.884-2.65 1.868-.71 1.218-.7 2.696-.443 4.044.444 2.362 1.24 4.637 2.056 6.895 1.613 4.25 3.247 8.51 4.863 12.76.4 1.09 1.04 2.21 2.152 2.7.96.4 2.044.4 3.058.25.88-.137 1.64-.72 2.078-1.48.815-1.387 1.13-2.986 1.612-4.508.96-3.104 1.884-6.233 3.124-9.24.026 6.622 0 13.248.01 19.87-7.066.005-14.135 0-21.204.005-.287-2.46-.494-4.945-.365-7.42.034-2.418.134-4.824.107-7.24.075-3.507-.38-6.98-.58-10.48-.225-2.714.07-5.444-.173-8.157 2.006-1.256 4.1-2.36 6.12-3.597 1.356-.842 2.812-1.565 3.973-2.684.64-.625 1.14-1.578.754-2.47-.815-1.657-2.96-2.554-4.69-1.826-1.417.65-2.258 2.07-3.55 2.892a139.32 139.32 0 01-4.893 2.906c-1.252-.654-2.756-.87-4.11-.446-.736.24-1.42.74-1.712 1.475-.345.807-.055 1.69-.21 2.52-.1.51-.5.875-.933 1.12-1.83 1.083-3.676 2.14-5.5 3.233-1.877 1.096-3.698 2.358-5.808 2.97-1.283.376-2.787.81-3.407 2.118-.593 1.275.11 2.74 1.1 3.59.855.815 2.16.988 3.25.6 1.427-.466 2.6-1.454 3.785-2.34 1.475-1.125 2.983-2.2 4.49-3.28.816-.56 1.635-1.17 2.593-1.47.65-.24 1.47.04 1.74.7.647 1.447.443 3.085.474 4.628.04 5.15-.432 10.28-.61 15.422-.012 2.414-.034 4.824.08 7.238-1.873-.01-3.74.02-5.614-.016.017-5.695.012-11.394.004-17.09C67.05 48.43 63.5 51.43 59.95 54.416c-3.56-2.982-7.104-5.98-10.654-8.963-.01 5.695-.006 11.4 0 17.094-11.565.01-23.13.003-34.69 0 .01-20.367.01-40.728.01-61.094zm36.953.01c3.428 1.485 6.835 3.002 10.258 4.493.52.22.854.69 1.244 1.07-1.018 1.12-2.093 2.188-3.112 3.31-2.79-2.96-5.62-5.88-8.39-8.866zm56.208-.04c1.877 1.126 3.758 2.245 5.62 3.384-.012 4.148-.003 8.3-.003 12.452a79.713 79.713 0 00-5.608 6.926c-.02-7.584-.004-15.173-.01-22.762zm.424 35.432c1.535-2.866 3.252-5.644 5.184-8.258.01 11.316 0 22.633.004 33.945-1.872.004-3.744.004-5.617 0 0-8.118.01-16.24 0-24.362-.04-.48.22-.91.438-1.326zM51.585 50.38c1.552 1.288 3.077 2.62 4.646 3.884.03 2.76.01 5.522.02 8.287h-4.66c0-4.05-.002-8.11 0-12.17zm11.74 4.21c1.65-1.396 3.308-2.788 4.964-4.18-.02 1.124.01 2.246-.03 3.36-.347.273-.685.546-1.02.828-1.31.004-2.61.017-3.92-.01z"/></svg>