<svg xmlns="http://www.w3.org/2000/svg" width="128" height="64"><path d="M57.36 8.945h1.994c.023.227.06.452.118.673 1.353 4.372 2.72 8.74 4.042 13.123-.864.01-1.73.05-2.59-.03-.307-1.234-.675-2.454-1.01-3.682-1.343-.014-2.686-.013-4.028 0-.366 1.237-.774 2.46-1.122 3.705-.66.028-1.324.038-1.984.017 1.48-4.615 3.06-9.198 4.58-13.8m.176 4.76c-.295 1.2-.72 2.365-1.002 3.57 1.01-.01 2.02.05 3.028-.04-.535-1.824-1.012-3.663-1.472-5.507-.28.63-.362 1.32-.554 1.978zm4.936-4.762h9.303c.01.628-.005 1.257-.023 1.886-1.16-.006-2.32-.04-3.48.015.007 3.97.014 7.94-.005 11.91-.767.02-1.536.02-2.3-.01.003-3.97.006-7.945-.002-11.916-1.165-.022-2.33-.006-3.495-.01-.002-.624-.003-1.25.002-1.874zm-20.847.205c.57-.04 1.14-.053 1.71-.03 1.85 2.644 3.646 5.326 5.365 8.056.373.56.67 1.18 1.122 1.69-.002-3.25-.012-6.5.006-9.75.607-.02 1.217-.016 1.825.012.005 4.594.008 9.19-.002 13.785-.53.007-1.07.055-1.6-.014-.252-.166-.374-.465-.55-.703-1.942-2.845-3.88-5.7-5.65-8.66-.1-.143-.205-.282-.32-.415-.04 3.264-.004 6.533-.02 9.8-.625.01-1.254.04-1.88-.047.03-4.574.035-9.148 0-13.722zm38.908.775c1.78-.775 3.936-.613 5.54.497-.184.517-.417 1.01-.613 1.52-.583-.062-1.086-.412-1.666-.5-1.252-.27-2.648.12-3.49 1.11-1.057 1.224-1.296 2.94-1.142 4.503.125 1.422.768 2.894 2.002 3.69.927.612 2.134.612 3.148.22.014-1.364-.002-2.73.01-4.094.744-.01 1.495-.063 2.24.04-.03 1.8-.024 3.6-.007 5.4-1.957.86-4.32 1.23-6.305.254-1.638-.766-2.752-2.367-3.206-4.086-.426-1.672-.396-3.492.247-5.107.58-1.51 1.74-2.817 3.25-3.446zm20.13-.148c1.134-.273 2.358-.09 3.367.49 1.28.707 2.168 1.984 2.634 3.35.617 1.796.54 3.78-.014 5.58-.438 1.357-1.258 2.66-2.52 3.383-1.58.913-3.685.847-5.167-.232-1.482-1.04-2.238-2.843-2.49-4.59-.338-2.054.013-4.292 1.27-5.99.695-.982 1.75-1.71 2.92-1.99m.3 1.884c-.965.295-1.602 1.193-1.906 2.113-.48 1.463-.456 3.05-.173 4.548.208.92.563 1.877 1.316 2.49.986.808 2.607.66 3.402-.35.94-1.13 1.124-2.666 1.173-4.082-.02-1.413-.22-2.975-1.226-4.052-.64-.712-1.69-.912-2.59-.66zM88.97 9.876c1.916-.034 3.833-.004 5.75-.018.022.586.03 1.173.015 1.76-1.19.003-2.378.014-3.567-.01-.063 1.183-.026 2.366-.017 3.55 1.15.027 2.3.027 3.45 0 .1.585.05 1.178.04 1.77-1.15.013-2.31.014-3.47-.003-.07 1.4-.02 2.805-.02 4.206 1.418.02 2.837-.02 4.256.03-.015.572-.015 1.144 0 1.716-2.146.05-4.3.053-6.443 0 .03-4.33.007-8.662.013-12.994zM39.1 26.643c2.41-.23 4.806-.593 7.22-.788 1.07 6.744 2.19 13.482 3.278 20.224.035.16.093.31.148.47 1.644-6.77 3.464-13.5 5.124-20.27 2.012-.05 4.033-.08 6.045.01 1.716 6.437 3.54 12.846 5.283 19.275.053.192.13.374.226.55.993-6.754 1.908-13.518 2.883-20.274 2.074.29 4.14.65 6.21.97-1.828 9.347-3.772 18.673-5.584 28.02-.972.077-1.95.115-2.923.054-1.64-.077-3.28.126-4.916-.035-1.442-5.316-2.903-10.628-4.352-15.944-.102-.406-.212-.81-.378-1.195-1.433 5.72-2.915 11.428-4.348 17.146-1.696.085-3.393 0-5.09.037-.918-.003-1.84.083-2.752-.067-1.96-9.408-4.102-18.78-6.074-28.187zm48.43-.335c2.322.02 4.644-.002 6.967.012.002 7.692-.014 15.386.007 23.078 2.895.022 5.79-.026 8.683.025.014 1.81.007 3.624.006 5.436-.693.12-1.394.02-2.09.02-4.362.07-8.724-.04-13.086.02l-.504-.04c-.037-5.12-.005-10.245-.016-15.367.023-4.396-.044-8.795.032-13.19zm17.848-.028c1.987-.06 3.973.054 5.96.04 2.297.072 4.635-.148 6.89.42 2.276.523 4.418 1.69 6.006 3.416 2.34 2.464 3.4 5.888 3.544 9.23v.956c-.127 1.815-.4 3.636-1.053 5.343-1.05 2.888-2.965 5.514-5.58 7.166-2.21 1.44-4.88 2.05-7.494 2.03-2.75-.01-5.51.028-8.27-.02V26.28m7.06 5.306c-.012 5.945.005 11.892-.01 17.838 1.33.05 2.74.143 3.975-.456 1.616-.758 2.66-2.348 3.24-3.986 1.005-2.935.968-6.214-.052-9.14-.567-1.583-1.55-3.155-3.122-3.886-1.266-.584-2.684-.302-4.027-.367zm-35.25-5.172c2.32-.004 4.63-.01 6.95.002.01 9.487 0 18.972.005 28.458-2.317.056-4.634.033-6.95.01-.027-9.49-.03-18.98 0-28.47z" fill="#808285"/><path fill="#ffd600" d="M.222 9.178c10.644.026 21.29.012 31.937.007.02 9.932 0 19.866.01 29.8-.03 5.357.04 10.716-.04 16.07H.222V9.178m4.63 4.602c-.044.684-.026 1.37-.026 2.055-.003 11.508.005 23.015-.003 34.52 7.56.035 15.123-.013 22.686.024.01-.21.03-.42.03-.63-.003-11.988 0-23.975 0-35.96-7.563-.01-15.126.02-22.69-.016z"/></svg>