<svg xmlns="http://www.w3.org/2000/svg" width="128" height="64"><path d="M57.36 8.945h1.994c.023.227.06.452.118.673 1.353 4.372 2.72 8.74 4.042 13.123-.864.01-1.73.05-2.59-.03-.307-1.23-.675-2.45-1.01-3.68-1.343-.01-2.686-.01-4.028 0-.366 1.24-.774 2.46-1.122 3.71-.66.03-1.324.04-1.984.02 1.48-4.615 3.06-9.198 4.58-13.8m.176 4.76c-.295 1.2-.72 2.365-1.002 3.57 1.01-.01 2.02.05 3.028-.04-.535-1.824-1.012-3.663-1.472-5.507-.28.63-.362 1.32-.554 1.978zm4.936-4.76h9.303c.01.626-.005 1.255-.023 1.884-1.16-.006-2.32-.04-3.48.015.007 3.97.014 7.94-.005 11.91-.767.02-1.536.02-2.3-.01.003-3.97.006-7.946-.002-11.917-1.165-.022-2.33-.006-3.495-.01-.002-.624-.003-1.25.002-1.874zm-20.847.203c.57-.04 1.14-.053 1.71-.03 1.85 2.644 3.646 5.326 5.365 8.056.373.56.67 1.18 1.122 1.69-.002-3.25-.012-6.5.006-9.75.607-.02 1.217-.017 1.825.01.005 4.595.008 9.19-.002 13.786-.53.007-1.07.055-1.6-.014-.25-.166-.37-.465-.55-.703-1.94-2.846-3.88-5.7-5.65-8.66-.1-.144-.2-.283-.32-.416-.04 3.265 0 6.534-.02 9.8-.62.01-1.25.04-1.88-.046.03-4.573.04-9.147 0-13.72zm38.908.775c1.78-.775 3.936-.613 5.54.497-.184.518-.417 1.01-.613 1.52-.583-.06-1.086-.41-1.666-.5-1.252-.27-2.648.12-3.49 1.11-1.057 1.225-1.296 2.94-1.142 4.504.125 1.42.768 2.892 2.002 3.69.927.61 2.134.61 3.148.22.014-1.366-.002-2.73.01-4.096.744-.01 1.495-.063 2.24.04-.03 1.8-.024 3.6-.007 5.4-1.957.86-4.32 1.23-6.305.254-1.638-.766-2.752-2.37-3.206-4.086-.426-1.67-.396-3.49.247-5.106.58-1.51 1.74-2.817 3.25-3.446zm20.13-.15c1.134-.27 2.358-.09 3.367.49 1.28.71 2.168 1.986 2.634 3.35.617 1.798.54 3.78-.014 5.58-.438 1.36-1.258 2.66-2.52 3.385-1.58.91-3.685.845-5.167-.234-1.482-1.04-2.238-2.844-2.49-4.59-.338-2.055.013-4.293 1.27-5.99.695-.983 1.75-1.71 2.92-1.99m.3 1.883c-.965.295-1.602 1.193-1.906 2.113-.48 1.462-.456 3.05-.173 4.547.208.92.563 1.875 1.316 2.49.986.806 2.607.66 3.402-.35.94-1.13 1.124-2.668 1.173-4.084-.02-1.414-.22-2.976-1.226-4.053-.64-.712-1.69-.912-2.59-.66zM88.97 9.877c1.916-.035 3.833-.005 5.75-.02.022.587.03 1.174.015 1.76-1.19.004-2.378.015-3.567-.01-.063 1.184-.026 2.367-.017 3.55 1.15.028 2.3.028 3.45 0 .1.586.05 1.18.04 1.77-1.15.014-2.31.015-3.47-.002-.07 1.4-.02 2.805-.02 4.206 1.42.02 2.84-.02 4.26.03-.01.58-.01 1.15 0 1.72-2.14.05-4.3.056-6.44 0 .03-4.33.01-8.66.015-12.99zM39.1 26.642c2.41-.23 4.806-.593 7.22-.788 1.07 6.744 2.19 13.482 3.278 20.224.035.16.093.31.148.47 1.644-6.77 3.464-13.5 5.124-20.27 2.012-.05 4.033-.08 6.045.01 1.716 6.435 3.54 12.844 5.283 19.273.053.2.13.38.226.55.993-6.75 1.908-13.51 2.883-20.27 2.074.29 4.14.65 6.21.97-1.828 9.35-3.772 18.67-5.584 28.02-.972.08-1.95.117-2.923.056-1.64-.076-3.28.127-4.916-.034-1.442-5.317-2.903-10.63-4.352-15.945-.102-.405-.212-.81-.378-1.194-1.433 5.72-2.915 11.428-4.348 17.146-1.696.085-3.393 0-5.09.037-.918-.002-1.84.084-2.752-.066-1.96-9.407-4.102-18.78-6.074-28.186zm48.43-.335c2.322.02 4.644-.002 6.967.012.002 7.69-.014 15.38.007 23.07 2.895.023 5.79-.025 8.683.026.014 1.81.007 3.624.006 5.436-.693.12-1.394.02-2.09.02-4.362.07-8.724-.04-13.086.02l-.504-.04c-.037-5.12-.005-10.247-.016-15.37.023-4.395-.044-8.794.032-13.19zm17.848-.028c1.987-.06 3.973.05 5.96.04 2.297.07 4.635-.15 6.89.42 2.276.52 4.418 1.69 6.006 3.41 2.34 2.463 3.4 5.89 3.544 9.23v.955c-.127 1.815-.4 3.636-1.053 5.343-1.05 2.89-2.965 5.514-5.58 7.166-2.21 1.44-4.88 2.05-7.494 2.03-2.75-.01-5.51.03-8.27-.02V26.28m7.06 5.306c-.01 5.945.01 11.892-.01 17.838 1.33.05 2.74.143 3.98-.456 1.62-.758 2.66-2.348 3.24-3.986 1.01-2.935.97-6.214-.05-9.14-.565-1.583-1.55-3.155-3.12-3.886-1.266-.584-2.684-.302-4.027-.367zm-35.25-5.172c2.32-.004 4.63-.01 6.95.002.01 9.487 0 18.972.01 28.458-2.313.056-4.63.033-6.95.01-.023-9.49-.03-18.98 0-28.47z" fill="#808285"/><path fill="#ffd600" d="M.222 9.178c10.644.026 21.29.012 31.937.007.02 9.932 0 19.866.01 29.8-.03 5.357.04 10.716-.04 16.07H.22V9.178m4.63 4.602c-.044.684-.026 1.37-.026 2.055-.003 11.508.005 23.015-.003 34.52 7.56.035 15.13-.013 22.69.024.01-.21.03-.42.03-.63V13.79c-7.56-.01-15.123.02-22.69-.02z"/></svg>