<svg xmlns="http://www.w3.org/2000/svg" width="128" height="64"><path fill="#fdd700" d="M.56 6.59h30.967v50.72H.56V6.59zm26.488 5.11H5.018v40.504h22.03V11.7z"/><path fill="#010101" d="M47.96 20.78h-1.532c-2.012-3.244-4.004-6.466-5.996-10.11h-.015v10.11h-1.692V6.68h1.532c2.012 3.222 4 6.43 5.977 10.048h.034V6.68h1.692v14.1zm4.018-5.578c.494-1.855.987-3.565 1.427-5.746h.038c.494 2.18.933 3.89 1.392 5.746h-2.857zm.812-8.522l-4.263 14.1h1.83l1.074-3.846h3.73l.967 3.845h2.365l-3.93-14.1h-1.77zm9.8 14.1h-2.115V8.573h-3.24V6.68h8.598v1.894H62.59z"/><path fill="none" stroke="#010101" stroke-width="5" stroke-miterlimit="10" d="M158.427 29.67V.498" transform="matrix(.423 0 0 .483 .56 6.44)"/><path fill="#010101" d="M75.146 18.997c-2.203 0-2.977-2.78-2.977-5.476 0-2.59.88-5.07 2.97-5.07 2.1 0 2.976 2.48 2.976 5.078 0 2.697-.774 5.477-2.977 5.477m0 2.013c3.225 0 5.233-3.283 5.233-7.49 0-3.947-2.22-7.08-5.234-7.08s-5.234 3.133-5.234 7.08c0 4.208 2.01 7.49 5.233 7.49m15.76-.246h-1.53c-2.008-3.24-4.003-6.46-5.992-10.1h-.012v10.1h-1.698V6.68H83.2c2.008 3.22 4.003 6.424 5.974 10.04h.04V6.68h1.688v14.086zm4.023-5.572c.493-1.853.985-3.562 1.425-5.74h.035c.492 2.178.935 3.887 1.393 5.74H94.92zm.812-8.514l-4.27 14.087H93.3l1.08-3.84h3.72l.967 3.84h2.36L97.5 6.68h-1.76zm12.58 12.198v1.89h-6.274V6.68h2.1v12.197zm-61.65 13.67v5.82c-1.13.507-2.31.868-3.51.868-3.63 0-5.924-3.22-5.924-7.365 0-3.85 2.298-7.21 5.997-7.21 1.145 0 2.29.485 2.994 1.087l-.685 1.678c-.565-.403-1.446-.746-2.255-.746-2.26 0-3.79 2.034-3.79 5.23 0 3.345 1.76 5.32 3.58 5.32.56 0 1.035-.08 1.48-.344v-4.33h2.113zm7.487-1.89v1.89H50.7v4.55h4.16V39h-6.274V24.903h5.64V26.8H50.7v3.864zm6.594 6.564c-2.2 0-2.978-2.776-2.978-5.475 0-2.59.88-5.07 2.973-5.07 2.1 0 2.98 2.48 2.98 5.075 0 2.7-.775 5.476-2.98 5.476m0 2.014c3.23 0 5.238-3.283 5.238-7.49 0-3.944-2.22-7.085-5.235-7.085s-5.233 3.14-5.233 7.085c0 4.207 2.01 7.49 5.233 7.49m15.398-6.696v5.82c-1.125.506-2.308.867-3.504.867-3.634 0-5.93-3.22-5.93-7.366 0-3.85 2.296-7.21 5.998-7.21 1.146 0 2.292.485 2.993 1.087l-.682 1.68c-.57-.402-1.45-.745-2.262-.745-2.25 0-3.79 2.034-3.79 5.23 0 3.345 1.77 5.32 3.58 5.32.57 0 1.05-.08 1.49-.344v-4.33h2.115zm4.055-5.753h.936c1.24 0 1.95.822 1.95 2.276 0 1.885-1 2.735-2.01 2.794-.21.025-.707.04-.88.064V26.8zM85.55 39l-2.482-5.838c1.357-.828 2.132-2.498 2.132-4.19 0-2.737-1.463-4.067-3.83-4.067h-3.29V39h2.113v-5.32h.947L83.137 39h2.414zm3.49-5.576c.49-1.854.99-3.566 1.43-5.738h.034c.493 2.172.935 3.884 1.394 5.738H89.04zm.813-8.52L85.583 39h1.835l1.075-3.846h3.72l.97 3.846h2.367l-3.932-14.095h-1.763zM98.33 39h-2.116V24.904h3.3c2.36 0 3.826 1.33 3.826 4.068 0 2.37-1.534 4.71-4.06 4.71h-.988v-1.75c.106-.023.69-.038.918-.063 1.01-.06 2.01-.91 2.01-2.8 0-1.455-.703-2.276-1.94-2.276h-.95V39zm8.303-6.786V39h-2.095V24.904h2.095v5.42h4.39v-5.377h2.116v14.05h-2.12v-6.784z"/><path fill="none" stroke="#010101" stroke-width="5" stroke-miterlimit="10" d="M273.417 67.412v-29.18" transform="matrix(.423 0 0 .483 .56 6.44)"/><path fill="#010101" d="M126.783 27.466c-.515-.364-1.357-.788-2.17-.788-2.15 0-3.72 2.034-3.72 5.232 0 3.343 1.73 5.317 3.77 5.317.812 0 1.575-.3 2.12-.704l.582 1.75c-.638.504-1.76.967-2.785.967-3.634 0-5.923-3.22-5.923-7.37 0-3.844 2.27-7.205 5.957-7.205 1.097 0 2.113.524 2.838 1.087l-.67 1.714z"/><path fill="#818285" d="M45.294 45.77c-.508-.36-1.35-.785-2.16-.785-2.145 0-3.71 2.03-3.71 5.222 0 3.332 1.72 5.3 3.76 5.3.81 0 1.568-.305 2.11-.705l.58 1.748c-.63.498-1.757.965-2.775.965-3.63 0-5.92-3.22-5.92-7.35 0-3.832 2.273-7.19 5.946-7.19 1.092 0 2.11.524 2.827 1.09l-.667 1.705zm3.413 4.74v6.76h-2.092V43.217h2.092v5.4h4.377V43.26h2.11v14.01h-2.11v-6.76zm10.69 1.203c.493-1.847.985-3.552 1.42-5.724h.04c.49 2.17.934 3.87 1.39 5.72H59.4zm.807-8.497l-4.25 14.055h1.825l1.07-3.83h3.71l.962 3.83h2.358l-3.92-14.05h-1.757zM75.85 57.27h-1.53c-2.004-3.233-3.99-6.44-5.976-10.078h-.02v10.08H66.64V43.215h1.53c2.002 3.212 3.985 6.41 5.96 10.022h.032v-10.02h1.685V57.27zm11.2 0h-1.53c-2.005-3.233-3.993-6.44-5.98-10.078h-.015v10.08H77.84V43.215h1.53c2 3.212 3.986 6.41 5.957 10.022h.034v-10.02h1.69V57.27zm7.21-8.31v1.89h-3.447v4.535h4.152v1.886h-6.258V43.22h5.623v1.892h-3.517v3.852zm8.14 6.425v1.886h-6.258V43.22h2.088v12.17z"/></svg>