<?xml version="1.0" encoding="UTF-8" standalone="no"?>

<svg xmlns:svg="http://www.w3.org/2000/svg" xmlns="http://www.w3.org/2000/svg" version="1.1" width="128" height="64" xmlns:xlink="http://www.w3.org/1999/xlink">
	<g transform="matrix(0.42296305,0,0,0.48343366,0.55956065,6.4389287)">
		<path fill="#fdd700" d="m 0,0.315 73.216,0 0,104.912 L 0,105.227 0,0.315 Z m 62.625,10.569 -52.082,0 0,83.782 52.083,0 0,-83.782 z" />
		<path fill="#010101" d="m 112.067,29.663 -3.622,0 C 103.688,22.954 98.979,16.289 94.269,8.752 l -0.036,0 0,20.911 -3.999,0 0,-29.165 3.622,0 c 4.757,6.665 9.459,13.301 14.132,20.786 l 0.08,0 0,-20.786 3.999,0 0,29.165 z" />
		<path fill="#010101" d="m 121.567,18.127 c 1.168,-3.838 2.333,-7.375 3.373,-11.887 l 0.091,0 c 1.168,4.512 2.205,8.049 3.292,11.887 l -6.756,0 z m 1.919,-17.629 -10.078,29.165 4.325,0 2.542,-7.954 8.8,0 2.285,7.954 5.589,0 -9.291,-29.165 -4.172,0 z" />
		<polygon fill="#010101" points="146.66,29.663 141.657,29.663 141.657,4.417 133.993,4.417 133.993,0.498 154.325,0.498 154.325,4.417 146.66,4.417 " />
		<line fill="none" stroke="#010101" stroke-width="5" stroke-miterlimit="10" y2="0.498" x2="158.427" y1="29.67" x1="158.427" />
		<path fill="#010101" d="m 176.327,26.001 c -5.208,0 -7.039,-5.757 -7.039,-11.338 0,-5.376 2.08,-10.503 7.039,-10.503 4.965,0 7.038,5.127 7.038,10.503 0,5.581 -1.831,11.338 -7.038,11.338 m 0,4.167 c 7.624,0 12.37,-6.797 12.37,-15.505 C 188.697,6.489 183.453,0 176.327,0 169.2,0 163.956,6.489 163.956,14.663 c 0,8.709 4.746,15.505 12.371,15.505" />
		<path fill="#010101" d="m 213.585,29.663 -3.633,0 C 205.206,22.954 200.489,16.289 195.787,8.752 l -0.029,0 0,20.911 -4.014,0 0,-29.165 3.633,0 c 4.746,6.665 9.463,13.301 14.121,20.786 l 0.095,0 0,-20.786 3.992,0 0,29.165 z" />
		<path fill="#010101" d="m 223.092,18.127 c 1.165,-3.838 2.329,-7.375 3.369,-11.887 l 0.088,0 c 1.165,4.512 2.212,8.049 3.296,11.887 l -6.753,0 z m 1.919,-17.629 -10.1,29.165 4.336,0 2.549,-7.954 8.796,0 2.285,7.954 5.581,0 -9.287,-29.165 -4.16,0 z" />
		<polygon fill="#010101" points="254.755,25.752 254.755,29.663 239.923,29.663 239.923,0.498 244.889,0.498 244.889,25.752 " />
		<path fill="#010101" d="m 108.995,54.067 0,12.048 c -2.67,1.048 -5.46,1.795 -8.295,1.795 -8.58,0 -14.004,-6.665 -14.004,-15.249 0,-7.969 5.424,-14.927 14.169,-14.927 2.706,0 5.416,1.003 7.079,2.249 l -1.619,3.464 c -1.336,-0.835 -3.42,-1.545 -5.332,-1.545 -5.339,0 -8.961,4.211 -8.961,10.833 0,6.922 4.167,11.008 8.467,11.008 1.326,0 2.45,-0.168 3.494,-0.71 l 0,-8.965 5.002,0 z" />
		<polygon fill="#010101" points="126.698,50.156 126.698,54.067 118.531,54.067 118.531,63.486 128.371,63.486 128.371,67.412 113.536,67.412 113.536,38.232 126.87,38.232 126.87,42.158 118.531,42.158 118.531,50.156 " />
		<path fill="#010101" d="m 142.287,63.742 c -5.204,0 -7.042,-5.749 -7.042,-11.337 0,-5.369 2.084,-10.503 7.042,-10.503 4.966,0 7.042,5.134 7.042,10.503 0.001,5.588 -1.838,11.337 -7.042,11.337 m 0,4.168 c 7.628,0 12.374,-6.797 12.374,-15.505 0,-8.167 -5.247,-14.67 -12.374,-14.67 -7.126,0 -12.374,6.504 -12.374,14.67 0,8.708 4.746,15.505 12.374,15.505" />
		<path fill="#010101" d="m 178.671,54.067 0,12.048 c -2.659,1.048 -5.457,1.795 -8.284,1.795 -8.591,0 -14.019,-6.665 -14.019,-15.249 0,-7.969 5.428,-14.927 14.18,-14.927 2.71,0 5.42,1.003 7.075,2.249 l -1.611,3.464 c -1.348,-0.835 -3.428,-1.545 -5.347,-1.545 -5.332,0 -8.965,4.211 -8.965,10.833 0,6.922 4.175,11.008 8.467,11.008 1.333,0 2.461,-0.168 3.501,-0.71 l 0,-8.965 5.003,0 z" />
		<path fill="#010101" d="m 188.258,42.158 2.212,0 c 2.951,0 4.614,1.699 4.614,4.709 0,3.904 -2.366,5.662 -4.746,5.786 -0.498,0.051 -1.663,0.081 -2.08,0.132 l 0,-10.627 z m 12.663,25.254 -5.866,-12.085 c 3.208,-1.714 5.039,-5.171 5.039,-8.672 0,-5.669 -3.457,-8.423 -9.053,-8.423 l -7.778,0 0,29.18 4.995,0 0,-11.008 2.168,0 0.073,0 4.717,11.008 5.705,0 z" />
		<path fill="#010101" d="m 209.176,55.869 c 1.157,-3.838 2.337,-7.383 3.376,-11.88 l 0.081,0 c 1.165,4.497 2.212,8.042 3.296,11.88 l -6.753,0 z m 1.919,-17.637 -10.093,29.18 4.336,0 2.542,-7.961 8.796,0 2.285,7.961 5.596,0 -9.294,-29.18 -4.168,0 z" />
		<path fill="#010101" d="m 231.134,67.412 -5.002,0 0,-29.18 7.8,0 c 5.581,0 9.046,2.754 9.046,8.423 0,4.907 -3.626,9.749 -9.596,9.749 l -2.336,0 0,-3.619 c 0.249,-0.051 1.633,-0.081 2.168,-0.132 2.388,-0.125 4.754,-1.882 4.754,-5.786 0,-3.01 -1.663,-4.709 -4.586,-4.709 l -2.248,0 0,25.254 z" />
		<polygon fill="#010101" points="250.763,53.364 250.763,67.412 245.812,67.412 245.812,38.232 250.763,38.232 250.763,49.453 261.142,49.453 261.142,38.32 266.144,38.32 266.144,67.412 261.142,67.412 261.142,53.364 " />
		<line fill="none" stroke="#010101" stroke-width="5" stroke-miterlimit="10" y2="38.231998" x2="273.41699" y1="67.412003" x1="273.41699" />
		<path fill="#010101" d="m 298.399,43.535 c -1.216,-0.754 -3.208,-1.633 -5.127,-1.633 -5.083,0 -8.797,4.211 -8.797,10.833 0,6.922 4.088,11.008 8.914,11.008 1.919,0 3.721,-0.622 5.01,-1.457 l 1.377,3.625 c -1.509,1.041 -4.16,2 -6.584,2 -8.592,0 -14.004,-6.665 -14.004,-15.256 0,-7.961 5.368,-14.919 14.084,-14.919 2.593,0 4.995,1.084 6.709,2.249 l -1.582,3.55 z" />
		<path fill="#818285" d="m 105.754,81.431 c -1.201,-0.747 -3.193,-1.626 -5.108,-1.626 -5.068,0 -8.767,4.204 -8.767,10.811 0,6.899 4.065,10.972 8.888,10.972 1.911,0 3.706,-0.63 4.987,-1.458 l 1.374,3.619 c -1.494,1.032 -4.157,1.999 -6.563,1.999 -8.566,0 -13.975,-6.665 -13.975,-15.22 0,-7.932 5.373,-14.883 14.055,-14.883 2.582,0 4.988,1.084 6.684,2.256 l -1.575,3.53 z" />
		<polygon fill="#818285" points="113.822,91.245 113.822,105.242 108.878,105.242 108.878,76.143 113.822,76.143 113.822,87.326 124.171,87.326 124.171,76.23 129.159,76.23 129.159,105.242 124.171,105.242 124.171,91.245 " />
		<path fill="#818285" d="m 139.098,93.735 c 1.161,-3.823 2.325,-7.354 3.351,-11.851 l 0.092,0 c 1.161,4.497 2.212,8.027 3.292,11.851 l -6.735,0 z m 1.904,-17.592 -10.049,29.1 4.317,0 2.538,-7.933 8.767,0 2.285,7.933 5.574,0 -9.276,-29.1 -4.156,0 z" />
		<path fill="#818285" d="m 177.989,105.242 -3.611,0 C 169.64,98.547 164.944,91.904 160.25,84.375 l -0.044,0 0,20.867 -3.984,0 0,-29.1 3.618,0 c 4.731,6.65 9.419,13.271 14.092,20.75 l 0.073,0 0,-20.75 3.984,0 0,29.1 z" />
		<path fill="#818285" d="m 204.466,105.242 -3.61,0 c -4.739,-6.695 -9.44,-13.338 -14.136,-20.867 l -0.037,0 0,20.867 -3.991,0 0,-29.1 3.618,0 c 4.731,6.65 9.426,13.271 14.084,20.75 l 0.081,0 0,-20.75 3.991,0 0,29.1 z" />
		<polygon fill="#818285" points="221.51,88.037 221.51,91.948 213.365,91.948 213.365,101.338 223.18,101.338 223.18,105.242 208.385,105.242 208.385,76.143 221.679,76.143 221.679,80.061 213.365,80.061 213.365,88.037 " />
		<polygon fill="#818285" points="240.758,101.338 240.758,105.242 225.963,105.242 225.963,76.143 230.899,76.143 230.899,101.338 " />
	</g>
</svg>