<?xml version="1.0" encoding="UTF-8" standalone="no"?>

<svg xmlns:svg="http://www.w3.org/2000/svg" xmlns="http://www.w3.org/2000/svg" version="1.1" width="128" height="64" xmlns:xlink="http://www.w3.org/1999/xlink">
	<g stroke="null">
		<path stroke="null" fill="#FFFFFF" d="m64.26713,7.70686c-0.94888,-2.36386 -3.26081,-4.91708 -7.59125,-4.56638c-5.51568,0.59818 -7.23499,5.87194 -6.4013,9.01799c-2.19695,-1.48401 -5.93242,-2.13669 -9.19323,0.64968c-4.21012,4.21012 -1.95845,9.90383 0.35647,11.26966c-2.55064,-0.23572 -6.5821,1.4838 -7.47392,5.98136c-0.94888,5.58428 3.31851,8.83975 7.47392,8.83975l46.07623,0c4.8051,0 7.47094,-4.14665 7.17194,-8.05757c-0.47166,-5.10408 -5.15343,-7.06253 -7.70686,-6.6428c2.1337,-1.1876 4.98333,-6.76611 0.64989,-11.1519c-3.43926,-3.2638 -7.82441,-2.07621 -9.36591,-0.65268c0.83091,-2.72632 -0.53192,-8.36232 -6.11066,-9.25393c-0.38532,-0.04296 -0.75654,-0.06625 -1.11044,-0.06625c-4.25884,0.00064 -6.17371,3.10608 -6.77488,4.63305"/>
		<path stroke="null" fill="#F37021" d="m41.84879,13.69677c-2.43246,2.19696 -3.3183,7.17473 1.06706,10.08463l17.49508,11.97384l-8.48285,-19.38707c-1.77744,-4.57492 -6.64002,-5.57274 -10.07928,-2.6714"/>
		<path stroke="null" fill="#CC004C" d="m56.90841,4.27059c-2.84408,0.0577 -7.11425,3.43627 -5.2135,8.59505l8.77328,20.64134l3.08258,-21.71075c0.71337,-5.39472 -3.37857,-7.8851 -6.64237,-7.52564"/>
		<path stroke="null" fill="#6460AA" d="m64.92002,10.9681l1.65904,0c0,0 0.88584,0 1.00616,0.41695c-0.65269,0.53193 -2.42948,0.59839 -2.19397,3.43926l2.78915,18.67968l8.71324,-20.69563c1.78256,-4.62087 -1.95867,-8.48008 -5.27698,-8.59804c-0.15515,-0.01133 -0.31051,-0.0203 -0.47144,-0.0203c-2.97893,0 -6.3919,2.15977 -6.22521,6.77808"/>
		<path stroke="null" fill="#0089D0" d="m76.54316,16.54384l-8.24158,19.15455l17.4893,-12.03709c4.03188,-2.85262 3.38178,-7.41344 1.12477,-9.66789c-0.94631,-1.06108 -2.68314,-1.88066 -4.5232,-1.88066c-2.1743,-0.00043 -4.50056,1.14998 -5.84929,4.4311"/>
		<path stroke="null" fill="#0DB14B" d="m83.83286,26.38697l-16.42502,11.44511l20.22395,0c4.14922,0 6.81527,-4.26782 5.63023,-8.1843c-0.79372,-2.46153 -3.14306,-4.39391 -5.86917,-4.39669c-1.14741,0.00021 -2.36406,0.34514 -3.56,1.13588"/>
		<path stroke="null" fill="#FCB711" d="m41.37733,37.83208l19.92519,0l-16.42865,-11.44511c-3.79573,-2.43289 -8.06313,-1.00936 -9.60421,3.02765c-1.30577,4.62151 1.95525,8.41746 6.10767,8.41746"/>
		<path stroke="null" d="m62.97867,52.07489l3.57732,0c0.82236,0.0515 2.28009,0.76787 2.28009,2.46431c0,1.77445 -1.51265,2.49038 -2.33245,2.57073l-3.52517,0l0.00021,-5.03504m-0.05428,-7.89921l2.94452,0c1.00636,0.05449 2.19653,0.79629 2.19653,2.17387c0,1.35151 -0.89973,2.25167 -2.06424,2.4128l-3.07681,0l0,-4.58668m-4.0259,-3.2871l0,19.50568l9.48666,0c2.25145,0 4.92883,-2.25188 4.92883,-5.19362c0,-3.07403 -2.01294,-4.58369 -3.28688,-5.19341c0,0 2.33223,-1.35151 2.2288,-4.26739c-0.10642,-3.92246 -3.73846,-4.85125 -4.98376,-4.85125l-8.37365,0"/>
		<polygon stroke="null" points="40.21239471435547,60.394051909446716 44.347503662109375,60.394051909446716 44.347503662109375,49.15922677516937 56.643829345703125,61.135838866233826 56.643829345703125,40.88858926296234 52.5117073059082,40.88858926296234 52.5117073059082,51.835965514183044 40.21239471435547,40.09550225734711 "/>
		<path stroke="null" d="m73.97798,50.42995c0.10365,6.16793 4.54607,10.78026 10.2573,10.78026c1.35429,0 2.78081,-0.2556 4.23875,-0.81617l0,-3.9744c-1.15554,0.70439 -2.44144,1.04398 -3.70106,1.04398c-3.45636,0 -6.71717,-2.55108 -6.58232,-7.19183c0.23295,-3.76432 3.32172,-6.36369 6.65135,-6.36369c1.21922,0 2.47307,0.35049 3.63181,1.11557l0,-3.86776c-1.3513,-0.54646 -2.69427,-0.79073 -3.98808,-0.79073c-5.69691,0 -10.39856,4.79398 -10.50777,10.06475"/>
	</g>
</svg>