<svg xmlns="http://www.w3.org/2000/svg" width="128" height="64"><g stroke="null"><path fill="#fff" d="M64.267 7.707c-.95-2.364-3.26-4.917-7.59-4.567-5.517.6-7.236 5.872-6.402 9.018-2.197-1.484-5.933-2.136-9.194.65-4.21 4.21-1.95 9.904.36 11.27-2.55-.236-6.58 1.484-7.47 5.98-.95 5.585 3.32 8.84 7.48 8.84h46.07c4.808 0 7.47-4.146 7.17-8.057-.47-5.1-5.15-7.06-7.702-6.64 2.134-1.19 4.983-6.76.65-11.15-3.44-3.26-7.824-2.07-9.366-.65.83-2.72-.532-8.36-6.11-9.25-.386-.04-.757-.06-1.11-.06-4.26 0-6.175 3.106-6.776 4.633"/><path fill="#F37021" d="M41.85 13.697c-2.434 2.197-3.32 7.175 1.066 10.084L60.41 35.76l-8.48-19.39c-1.777-4.576-6.64-5.574-10.08-2.67"/><path fill="#CC004C" d="M56.908 4.27c-2.844.058-7.114 3.437-5.213 8.596l8.773 20.64 3.083-21.71c.72-5.394-3.37-7.885-6.64-7.525"/><path fill="#6460AA" d="M64.92 10.968h1.66s.885 0 1.005.417c-.652.532-2.43.598-2.194 3.44l2.79 18.68 8.72-20.697c1.79-4.62-1.96-8.48-5.27-8.598-.152-.01-.31-.02-.47-.02-2.98 0-6.39 2.16-6.223 6.778"/><path fill="#0089D0" d="M76.543 16.544l-8.24 19.154L85.79 23.66c4.033-2.85 3.383-7.412 1.126-9.667-.947-1.06-2.683-1.88-4.524-1.88-2.174 0-4.5 1.15-5.85 4.43"/><path fill="#0DB14B" d="M83.833 26.387L67.408 37.832h20.224c4.15 0 6.815-4.268 5.63-8.184-.794-2.462-3.143-4.394-5.87-4.397-1.147 0-2.363.35-3.56 1.14"/><path fill="#FCB711" d="M41.377 37.832h19.926l-16.43-11.445c-3.795-2.433-8.062-1.01-9.603 3.028-1.306 4.62 1.955 8.417 6.107 8.417"/><path d="M62.98 52.075h3.576c.822.05 2.28.768 2.28 2.464 0 1.77-1.513 2.49-2.332 2.57h-3.526v-5.04m-.054-7.9h2.945c1 .05 2.19.79 2.19 2.17 0 1.35-.9 2.25-2.07 2.41h-3.07v-4.58m-4.03-3.29v19.51h9.487c2.252 0 4.93-2.257 4.93-5.198 0-3.074-2.014-4.584-3.288-5.194 0 0 2.33-1.35 2.23-4.267-.11-3.923-3.74-4.85-4.986-4.85h-8.38M40.21 60.394h4.135V49.16L56.64 61.136V40.89h-4.13v10.946l-12.3-11.74zm33.765-9.963c.104 6.168 4.546 10.78 10.257 10.78 1.355 0 2.78-.255 4.24-.816V56.42c-1.157.704-2.442 1.044-3.702 1.044-3.456 0-6.717-2.55-6.582-7.192.24-3.765 3.328-6.364 6.658-6.364 1.22 0 2.473.35 3.632 1.116v-3.868c-1.35-.547-2.695-.79-3.99-.79-5.697 0-10.4 4.793-10.51 10.064"/></g></svg>