<svg xmlns="http://www.w3.org/2000/svg" width="128" height="64"><path d="M108.558 46.918c1.755.17 3.508.353 5.258.542l3.864-9.54 3.672 10.42c1.885.236 3.767.483 5.645.742l-6.437-18.27L127 14.908h-5.454l-.057.077-3.48 8.59-3.06-8.668h-5.385l5.56 15.776-6.574 16.232zm-4.074-.373V14.91H99.1V46.1c1.798.14 3.593.288 5.384.445m-40.436-1.77c1.453 0 2.904.01 4.353.023V33.176h6.47v-4.95H68.4v-8.362h7.45V14.91H62.995v29.87c.35 0 .7-.005 1.052-.005m-16.713.303a457.81 457.81 0 015.386-.162V19.864h5.03V14.91H42.3v4.954h5.034v25.214zm-41.17 3.336V29.566l6.374 18.086a458.7 458.7 0 015.89-.622V14.91h-5.163v19.523L6.385 14.91H1v34.18h.032c1.707-.235 3.42-.46 5.133-.676m30.947-28.55V14.91H24.258v31.58a464.45 464.45 0 0112.843-.928v-4.958c-2.48.144-4.96.31-7.43.496v-7.925h6.467v-4.952H29.67v-8.36h7.45zM86.518 40.37V14.91h-5.406v30.186c4.3.157 8.584.378 12.854.654v-4.96c-2.478-.16-4.96-.3-7.448-.42" stroke="null" fill="#b81d24"/></svg>