<?xml version="1.0" encoding="UTF-8" standalone="no"?>

<svg xmlns:svg="http://www.w3.org/2000/svg" xmlns="http://www.w3.org/2000/svg" version="1.1" width="128" height="64" xmlns:xlink="http://www.w3.org/1999/xlink">
	<g stroke="null" transform="matrix(1.068705185801536,0,0,1.068705185801536,486.0117743103688,-612.304144116286) ">
		<path fill="#b81d24" fill-rule="nonzero" d="m-353.18781,616.84198c1.64249,0.15875 3.2825,0.33002 4.91998,0.50751l3.61502,-8.92627l3.43625,9.74878c1.76376,0.22125 3.52499,0.45245 5.2825,0.69501l-6.02374,-17.09625l6.02621,-14.88l-5.10373,0l-0.05252,0.07251l-3.25497,8.0387l-2.85748,-8.11121l-5.03876,0l5.20248,14.76245l-6.15125,15.18878z"/>
		<path fill="#b81d24" fill-rule="nonzero" d="m-356.99957,616.49261l0,-29.60126l-5.03751,0l0,29.18628c1.68127,0.12872 3.36127,0.26874 5.03751,0.41498"/>
		<path fill="#b81d24" fill-rule="nonzero" d="m-394.83667,614.83673c1.35999,0 2.71747,0.01001 4.07373,0.0213l0,-10.875l6.05124,0l0,-4.63123l-6.05124,0l0,-7.82501l6.96875,0l0,-4.63629l-12.02625,0l0,27.95001c0.32748,0 0.655,-0.00397 0.98376,-0.00397"/>
		<path fill="#b81d24" fill-rule="nonzero" d="m-410.47617,615.11975c1.67749,-0.06 3.35748,-0.10999 5.03998,-0.15125l0,-23.44128l4.70749,0l0,-4.63623l-14.45624,0l0,4.63623l4.70877,0l0,23.59253z"/>
		<path fill="#b81d24" fill-rule="nonzero" d="m-448.99869,618.24164l0,-17.63623l5.96375,16.92371c1.8338,-0.20624 3.67126,-0.39996 5.51251,-0.58246l0,-30.05499l-4.83249,0l0,18.26746l-6.43625,-18.26746l-0.20752,0l-4.83246,0l0,31.9837l0.02997,0c1.59753,-0.22125 3.19873,-0.43121 4.80249,-0.63373"/>
		<path fill="#b81d24" fill-rule="nonzero" d="m-420.04105,591.52692l0,-4.63623l-12.0275,0l0,24.91248l0,4.63751l0,0.00397c3.99121,-0.34497 7.99625,-0.63373 12.01749,-0.86871l0,-0.00403l0,-1.33624l0,-3.29999c-2.32498,0.13501 -4.64502,0.29126 -6.96002,0.46375l0,-7.41498l6.05127,0l0,-4.63379l-6.05127,0l0,-7.82373l6.97003,0z"/>
		<path fill="#b81d24" fill-rule="nonzero" d="m-373.81082,610.71423l0,-23.82373l-5.05872,0l0,23.60498l0,4.63623l0,0.005c4.02374,0.14752 8.0325,0.35376 12.02747,0.61249l0,-0.00598l0,-1.4975l0,-3.13873c-2.31873,-0.15002 -4.64124,-0.28003 -6.96875,-0.39252"/>
	</g>
</svg>