<svg xmlns="http://www.w3.org/2000/svg" width="128" height="64"><g stroke="null"><path fill="#f57c14" d="M8.755 28.92c-1.68-.003-3.224.687-4.324 1.79-1.1 1.1-1.79 2.64-1.79 4.325v5.585H7.29v-5.49c.002-.67.16-1.242.432-1.685.273-.437.626-.696 1.04-.698.414.002.767.262 1.04.698.27.443.43 1.014.43 1.684v5.49h4.644v-5.59c0-1.686-.69-3.228-1.79-4.326-1.1-1.104-2.643-1.794-4.325-1.79m111.115 0c-1.682-.004-3.224.686-4.324 1.79-1.1 1.1-1.79 2.64-1.79 4.324v5.584h4.64v-5.49c.006-.67.165-1.243.436-1.686.274-.437.627-.696 1.04-.698.415.002.768.262 1.042.698.27.444.43 1.015.43 1.685v5.49h4.643v-5.58c0-1.685-.69-3.227-1.79-4.325-1.1-1.103-2.643-1.793-4.324-1.79m-100.01-1.5c.468-.466.756-1.11.756-1.823 0-.715-.284-1.36-.75-1.825-.47-.467-1.114-.757-1.826-.757-.71 0-1.356.29-1.823.757-.467.466-.757 1.11-.757 1.825 0 .712.29 1.357.757 1.824l.57.57c.95.952 1.016 1.203.112 2.107l-.518.52c-.425.425-.688 1.01-.688 1.66v8.346h4.69v-8.35c0-.65-.26-1.24-.685-1.66l-.518-.52c-.904-.906-.837-1.16.114-2.11l.57-.57zm8.315 9.57c-.27.504-.626.804-1.04.806-.413 0-.77-.3-1.04-.8-.27-.51-.43-1.17-.43-1.944 0-.772.16-1.43.43-1.943.273-.504.63-.804 1.043-.806.416.003.77.303 1.04.807.2.38.34.84.4 1.37h4.65c-.136-1.455-.79-2.775-1.762-3.75-1.1-1.103-2.643-1.79-4.322-1.79-1.68 0-3.227.687-4.324 1.79-1.104 1.1-1.794 2.644-1.792 4.325-.002 1.682.688 3.225 1.792 4.324.844.845 2.32 1.79 4.322 1.79 1.504 0 2.898-.553 3.963-1.46.775-.658 1.926-1.98 2.124-4.08h-4.65c-.057.53-.196.99-.396 1.37m21.505-3.05c.084-.36.196-.673.306-.908.207-.443.627-.804 1.04-.806.42 0 .76.297 1.05.82.127.225.24.62.294.88l-2.69.01zm1.347-5.026c-1.68-.002-3.223.688-4.323 1.79-1.103 1.1-1.793 2.644-1.793 4.326 0 1.684.69 3.227 1.796 4.327 1.07 1.07 2.59 1.79 4.35 1.79 1.818 0 3.32-.81 4.336-1.83 1.276-1.463 1.34-3.03 1.34-3.03H52.6s-.574 1.444-1.56 1.444c-.416-.003-.77-.3-1.043-.807-.185-.35-.318-.77-.383-1.248h7.205s.49-2.94-1.48-4.93c-1.147-1.16-2.606-1.83-4.306-1.83m42.106 5.02c.084-.358.197-.672.307-.907.204-.443.624-.804 1.04-.806.417.002.76.298 1.047.822.127.22.24.62.294.88l-2.69.01zm1.348-5.025c-1.682-.002-3.225.688-4.325 1.79-1.1 1.1-1.79 2.644-1.79 4.326 0 1.688.69 3.23 1.79 4.33 1.072 1.07 2.588 1.79 4.35 1.79 1.817 0 3.32-.81 4.335-1.83 1.278-1.463 1.34-3.03 1.34-3.03h-4.14s-.573 1.444-1.56 1.444c-.415-.002-.768-.3-1.04-.806-.187-.35-.32-.77-.385-1.248h7.206s.49-2.94-1.48-4.93c-1.146-1.16-2.605-1.83-4.305-1.83M59.8 22.99c-1.282 0-2.32 1.04-2.32 2.32l.005 15.308h4.643l-.006-15.31c0-1.28-1.04-2.32-2.323-2.32m9.08 14.8c-.81 0-1.475-1.233-1.475-2.755 0-1.52.66-2.753 1.472-2.753.813 0 1.472 1.233 1.472 2.753 0 1.522-.66 2.755-1.474 2.755m0-8.868c-3.378 0-6.117 2.736-6.117 6.113 0 3.377 2.74 6.116 6.115 6.116 3.377 0 6.117-2.74 6.117-6.12s-2.74-6.117-6.118-6.117m38.187 8.868c-.81 0-1.472-1.232-1.472-2.754 0-1.52.66-2.754 1.472-2.754.812 0 1.473 1.233 1.473 2.753s-.66 2.754-1.472 2.754m0-8.868c-3.376 0-6.115 2.736-6.115 6.113 0 3.376 2.74 6.115 6.116 6.115 3.378 0 6.117-2.74 6.117-6.116s-2.74-6.113-6.117-6.113m-25.4 8.87c-.812 0-1.473-1.233-1.473-2.755 0-1.52.66-2.753 1.473-2.753.814 0 1.474 1.234 1.474 2.754 0 1.522-.66 2.755-1.474 2.755m6.114-2.753l.01.003-.006-9.734c0-1.28-1.04-2.32-2.32-2.317-1.283 0-2.32 1.04-2.32 2.32v3.8c-.475-.12-.97-.18-1.477-.18-1.68-.005-3.223.684-4.323 1.79-1.103 1.096-1.793 2.64-1.79 4.32-.003 1.68.687 3.226 1.79 4.323.703.71 2.215 1.795 4.323 1.793 2.11.002 3.62-1.084 4.324-1.792 1.102-1.096 1.792-2.64 1.792-4.323 0-.002-.003-.004-.003-.004m-42.19 4.776c0-.155-.045-.3-.12-.422l-2.544-3.84 1.76-3.19c.65-1.105.284-2.53-.82-3.18-1.104-.65-2.528-.284-3.18.822l-2.1 3.754V31.24c0-1.282-1.04-2.32-2.32-2.32-1.283 0-2.323 1.038-2.323 2.32v9.38h4.643v-3.673l2.45 3.67h3.747c.447 0 .808-.362.808-.81"/><path fill="#f58113" d="M127.438 28.92h.027l.435.486.434-.487h.027v.91h-.16v-.57l-.28.337h-.03l-.282-.336v.566h-.164v-.913zm-.63.154h-.27v-.14h.705v.14h-.27v.758h-.165v-.758z"/></g></svg>