<?xml version="1.0" encoding="UTF-8" standalone="no"?>

<svg xmlns:svg="http://www.w3.org/2000/svg" xmlns="http://www.w3.org/2000/svg" version="1.1" width="128" height="64" xmlns:xlink="http://www.w3.org/1999/xlink">
	<g stroke="null">
		<path fill="#f57c14" fill-rule="nonzero" d="m8.75507,28.91911c-1.68146,-0.00204 -3.22416,0.68769 -4.32406,1.79166c-1.10193,1.09785 -1.79166,2.64055 -1.78962,4.32405l0,5.58516l4.64035,0l0,-2.44465l0,-3.04663c0.00205,-0.66932 0.16121,-1.24069 0.43261,-1.6835c0.27344,-0.4367 0.62647,-0.69585 1.04071,-0.69789c0.41424,0.00206 0.76727,0.2612 1.04071,0.69789c0.2714,0.44281 0.43057,1.01418 0.43261,1.6835l0,5.49129l4.64239,0l0,-5.58516c0,-1.6835 -0.68973,-3.22621 -1.79166,-4.32405c-1.09989,-1.10397 -2.64259,-1.7937 -4.32405,-1.79166"/>
		<path fill="#f57c14" fill-rule="nonzero" d="m119.87388,28.91911c-1.68147,-0.00205 -3.22417,0.68769 -4.32405,1.79166c-1.10194,1.09785 -1.79166,2.64055 -1.78962,4.32405l0,5.58516l4.64034,0l0,-2.44465l0,-3.04663c0.00196,-0.66932 0.16121,-1.24069 0.43262,-1.6835c0.27344,-0.4367 0.62646,-0.69585 1.04071,-0.69789c0.41425,0.00206 0.76727,0.2612 1.04071,0.69789c0.2714,0.44281 0.43056,1.01418 0.4326,1.6835l0,5.49129l4.6424,0l0,-5.58516c0,-1.6835 -0.68973,-3.22621 -1.79166,-4.32405c-1.09988,-1.10397 -2.64259,-1.7937 -4.32405,-1.79166"/>
		<path fill="#f57c14" fill-rule="nonzero" d="m19.86558,27.41599c0.4673,-0.4673 0.75503,-1.11213 0.75503,-1.82431c0,-0.71421 -0.28773,-1.35905 -0.75503,-1.82431c-0.4673,-0.4673 -1.11213,-0.75706 -1.8243,-0.75706c-0.71218,0 -1.35701,0.28977 -1.82431,0.75706c-0.4673,0.46526 -0.75706,1.11009 -0.75706,1.82431c0,0.71217 0.28977,1.35701 0.75706,1.82431l0.56933,0.56933c0.95093,0.95297 1.01827,1.20396 0.11427,2.10795c0,0 -0.51832,0.51831 -0.51832,0.51831c-0.42445,0.42649 -0.68768,1.01214 -0.68768,1.66106l0,8.34609l4.69137,0l0,-8.34609c0,-0.64892 -0.2612,-1.23457 -0.68565,-1.66106l-0.51832,-0.51627c-0.90399,-0.90399 -0.83665,-1.15703 0.11428,-2.10999l0.56933,-0.56933z"/>
		<path fill="#f57c14" fill-rule="nonzero" d="m28.18127,36.98503c-0.27344,0.50403 -0.62851,0.804 -1.04071,0.80604c-0.41425,-0.00205 -0.76931,-0.30201 -1.04275,-0.80604c-0.26936,-0.51015 -0.43057,-1.17131 -0.43057,-1.9447c0,-0.77339 0.16121,-1.43251 0.43057,-1.9447c0.27344,-0.50403 0.62851,-0.804 1.04275,-0.80604c0.4122,0.00205 0.76727,0.30201 1.04071,0.80604c0.19998,0.37955 0.33874,0.84073 0.39792,1.36925l4.64851,0c-0.13672,-1.45496 -0.78767,-2.77523 -1.76309,-3.7486c-1.09989,-1.10397 -2.64463,-1.79166 -4.32406,-1.79166c-1.68146,0 -3.22621,0.68768 -4.32405,1.79166c-1.10397,1.09989 -1.7937,2.64259 -1.79166,4.32405c-0.00205,1.68147 0.68769,3.22417 1.79166,4.32405c0.84686,0.84686 2.32017,1.79166 4.32405,1.79166c1.50393,0 2.89767,-0.553 3.96287,-1.45904c0.77543,-0.65912 1.92633,-1.98143 2.12428,-4.08122l-4.64851,0c-0.05918,0.52852 -0.19794,0.9897 -0.39792,1.36925"/>
		<path fill="#f57c14" fill-rule="nonzero" d="m49.69033,33.93901c0.08367,-0.35711 0.1959,-0.67136 0.30609,-0.90603c0.2061,-0.44281 0.62646,-0.804 1.04071,-0.80605c0.41833,0.00206 0.75911,0.29793 1.04887,0.82237c0.12652,0.22651 0.23875,0.62035 0.29385,0.88154l-2.68953,0.00816zm1.3468,-5.02398c-1.68147,-0.00205 -3.22416,0.68769 -4.32406,1.78962c-1.10192,1.09989 -1.79166,2.64463 -1.79166,4.3261c0,1.68146 0.68974,3.22416 1.79166,4.32405c1.07133,1.07132 2.5875,1.78962 4.35059,1.78962c1.81614,0 3.32007,-0.81013 4.33426,-1.8284c1.27742,-1.46516 1.33864,-3.03234 1.33864,-3.03234l-4.13836,0c0,0 -0.57341,1.44476 -1.56107,1.44476c-0.41425,-0.00206 -0.76727,-0.29997 -1.04071,-0.80605c-0.1857,-0.34895 -0.31833,-0.77135 -0.38364,-1.24885l7.2054,0c0,0 0.49383,-2.94052 -1.4774,-4.93011c-1.14479,-1.15907 -2.60382,-1.83043 -4.30365,-1.82839"/>
		<path fill="#f57c14" fill-rule="nonzero" d="m93.14269,33.93901c0.08367,-0.35711 0.1959,-0.67136 0.3061,-0.90603c0.20609,-0.44281 0.62646,-0.804 1.04071,-0.80605c0.41832,0.00206 0.7591,0.29793 1.04887,0.82237c0.12652,0.22651 0.23876,0.62035 0.29385,0.88154l-2.68953,0.00816zm1.34681,-5.02398c-1.68147,-0.00205 -3.22417,0.68769 -4.32406,1.78962c-1.10193,1.09989 -1.79165,2.64463 -1.79165,4.3261c0,1.68146 0.68972,3.22416 1.79165,4.32405c1.07131,1.07132 2.58749,1.78962 4.35058,1.78962c1.81615,0 3.31804,-0.81013 4.33426,-1.8284c1.27743,-1.46516 1.33864,-3.03234 1.33864,-3.03234l-4.13835,0c0,0 -0.57341,1.44476 -1.56107,1.44476c-0.41425,-0.00206 -0.76727,-0.29997 -1.04071,-0.80605c-0.1857,-0.34895 -0.31834,-0.77135 -0.38364,-1.24885l7.20539,0c0,0 0.49383,-2.94052 -1.4774,-4.93011c-1.14478,-1.15907 -2.60382,-1.83043 -4.30364,-1.82839"/>
		<path fill="#f57c14" fill-rule="nonzero" d="m59.79932,22.98889c-1.2815,0 -2.32018,1.04071 -2.32018,2.32221l0.00613,15.30662l4.64239,0l-0.00613,-15.30866c0,-1.28151 -1.04071,-2.32018 -2.32222,-2.32018"/>
		<path fill="#f57c14" fill-rule="nonzero" d="m68.88309,37.78801c-0.81216,0 -1.47332,-1.23253 -1.47332,-2.75482c0,-1.52026 0.66116,-2.75278 1.47332,-2.75278c0.8142,0 1.47332,1.23253 1.47332,2.75278c0,1.52229 -0.65912,2.75482 -1.47332,2.75482m0,-8.86849c-3.37721,0 -6.11571,2.73646 -6.11571,6.11367c0,3.37721 2.7385,6.11571 6.11571,6.11571c3.37721,0 6.11571,-2.7385 6.11571,-6.11571c0,-3.37721 -2.73849,-6.11367 -6.11571,-6.11367"/>
		<path fill="#f57c14" fill-rule="nonzero" d="m107.07007,37.78801c-0.81216,0 -1.47333,-1.23253 -1.47333,-2.75482c0,-1.52026 0.66116,-2.75278 1.47333,-2.75278c0.81216,0 1.47332,1.23253 1.47332,2.75278c0,1.52229 -0.66116,2.75482 -1.47332,2.75482m0,-8.86849c-3.37721,0 -6.11572,2.73646 -6.11572,6.11367c0,3.37721 2.7385,6.11571 6.11572,6.11571c3.37721,0 6.11572,-2.7385 6.11572,-6.11571c0,-3.37721 -2.7385,-6.11367 -6.11572,-6.11367"/>
		<path fill="#f57c14" fill-rule="nonzero" d="m81.67018,37.78801c-0.81216,0 -1.47332,-1.23253 -1.47332,-2.75482c0,-1.52026 0.66116,-2.75278 1.47332,-2.75278c0.81419,0 1.47332,1.23253 1.47332,2.75278c0,1.52229 -0.65913,2.75482 -1.47332,2.75482m6.11366,-2.75278l0.01021,0.00409l-0.00612,-9.73168c-0.00196,-1.2815 -1.04071,-2.32018 -2.32222,-2.31813c-1.28149,0 -2.32018,1.04071 -2.32018,2.32221l0.00196,3.79554c-0.47546,-0.11835 -0.9693,-0.18161 -1.47741,-0.18161c-1.68147,-0.00205 -3.22416,0.68768 -4.32406,1.79165c-1.10192,1.09785 -1.79166,2.64259 -1.7896,4.32202c-0.00196,1.68147 0.68768,3.22621 1.7896,4.32405l0,0c0.70402,0.7081 2.21611,1.7937 4.32406,1.79166c2.10999,0.00205 3.62005,-1.08356 4.32407,-1.79166l0,0c1.10192,-1.09784 1.79164,-2.64259 1.79164,-4.32405c0,-0.00206 -0.00195,-0.00408 -0.00195,-0.00408"/>
		<path fill="#f57c14" fill-rule="nonzero" d="m45.59544,39.80801c0,-0.15509 -0.04694,-0.29997 -0.12244,-0.42241l-2.5426,-3.84451l1.76105,-3.19559c0.65095,-1.10397 0.28364,-2.52832 -0.82033,-3.17927c-1.10397,-0.65096 -2.52831,-0.28365 -3.17927,0.82237l-2.10183,3.75677l0,-2.50587c0,-1.2815 -1.03867,-2.32018 -2.32018,-2.32018c-1.2815,0 -2.32221,1.03867 -2.32221,2.32018l0,9.38069l4.64239,0l0,-3.6731l2.44873,3.67106l3.7486,-0.00205l0,0c0.44689,0 0.80808,-0.36119 0.80808,-0.80809"/>
		<path fill="#f58113" fill-rule="nonzero" d="m127.4382,28.9191l0.02672,0l0.43546,0.48702l0.43355,-0.48702l0.02672,0l0,0.91292l-0.16234,0l0,-0.56532l-0.28266,0.33614l-0.03053,0l-0.28267,-0.33614l0,0.56532l-0.16425,0l0,-0.91292l0.00002,0zm-0.63026,0.1547l-0.2712,0l0,-0.13942l0.70666,0l0,0.13942l-0.2712,0l0,0.75822l-0.16425,0l0,-0.75822z"/>
	</g>
</svg>