<svg xmlns="http://www.w3.org/2000/svg" width="128" height="64"><g stroke="null"><path fill="#f57c14" d="M8.755 28.92a6.1 6.1 0 00-4.324 1.79 6.12 6.12 0 00-1.79 4.325v5.585h4.65v-5.49c.002-.67.16-1.242.432-1.685.273-.437.626-.696 1.04-.698.414.002.767.262 1.04.698.27.443.43 1.014.43 1.684v5.49h4.644v-5.59c0-1.687-.69-3.23-1.79-4.327a6.092 6.092 0 00-4.325-1.79m111.116 0a6.09 6.09 0 00-4.324 1.79 6.12 6.12 0 00-1.79 4.324v5.584h4.64v-5.49c.006-.67.165-1.242.436-1.685.274-.437.627-.696 1.04-.698.415.002.768.262 1.042.698.27.444.43 1.015.43 1.685v5.49h4.643v-5.58c0-1.685-.69-3.227-1.79-4.325a6.1 6.1 0 00-4.324-1.79m-100.01-1.5c.467-.466.755-1.11.755-1.823 0-.715-.284-1.36-.75-1.825a2.574 2.574 0 00-3.65 0 2.568 2.568 0 00-.757 1.825c0 .712.29 1.357.756 1.824l.57.57c.95.952 1.016 1.203.112 2.107l-.518.52a2.337 2.337 0 00-.688 1.66v8.346h4.69v-8.35c0-.65-.26-1.24-.685-1.66l-.518-.52c-.905-.907-.838-1.16.113-2.11l.57-.57zm8.314 9.57c-.27.504-.626.804-1.04.806-.413 0-.77-.3-1.04-.8-.27-.51-.43-1.17-.43-1.943 0-.772.16-1.43.43-1.943.273-.504.63-.804 1.043-.806.416.003.77.303 1.04.807.2.38.34.84.4 1.37h4.65a6.11 6.11 0 00-6.084-5.54c-1.68 0-3.227.687-4.324 1.79a6.103 6.103 0 00-1.793 4.325 6.098 6.098 0 001.792 4.324 6.11 6.11 0 008.284.33 6.058 6.058 0 002.124-4.08h-4.65a3.81 3.81 0 01-.396 1.37m21.505-3.05c.084-.36.196-.673.306-.908.207-.443.627-.804 1.04-.806.42 0 .76.297 1.05.82.127.225.24.62.294.88l-2.69.01zm1.347-5.026a6.117 6.117 0 00-6.116 6.116c0 1.684.69 3.227 1.797 4.327a6.118 6.118 0 004.35 1.79c1.818 0 3.32-.81 4.336-1.83 1.276-1.462 1.34-3.03 1.34-3.03H52.6s-.574 1.445-1.56 1.445c-.416-.003-.77-.3-1.043-.807a3.75 3.75 0 01-.383-1.248h7.205s.49-2.94-1.48-4.93c-1.148-1.16-2.607-1.83-4.307-1.83m42.106 5.02a4.75 4.75 0 01.306-.907c.204-.443.624-.804 1.04-.806.417.002.76.298 1.047.822.127.22.24.62.294.88l-2.69.01zm1.347-5.025a6.108 6.108 0 00-6.115 6.116c0 1.69.69 3.23 1.79 4.33a6.118 6.118 0 004.35 1.79c1.817 0 3.32-.81 4.335-1.83 1.278-1.462 1.34-3.03 1.34-3.03h-4.14s-.573 1.445-1.56 1.445c-.415-.002-.768-.3-1.04-.806-.187-.35-.32-.77-.385-1.25h7.206s.49-2.94-1.48-4.93c-1.146-1.16-2.605-1.83-4.305-1.83M59.8 22.99a2.32 2.32 0 00-2.32 2.32l.005 15.308h4.643l-.006-15.31c0-1.28-1.04-2.32-2.323-2.32m9.08 14.8c-.81 0-1.476-1.233-1.476-2.755 0-1.52.66-2.753 1.472-2.753.813 0 1.472 1.233 1.472 2.753 0 1.522-.66 2.755-1.474 2.755m0-8.868a6.115 6.115 0 00-.002 12.23 6.12 6.12 0 000-12.238m38.186 8.868c-.81 0-1.472-1.232-1.472-2.754 0-1.52.66-2.754 1.472-2.754.812 0 1.473 1.233 1.473 2.753s-.66 2.754-1.47 2.754m0-8.87a6.114 6.114 0 000 12.23 6.115 6.115 0 000-12.23m-25.4 8.87c-.812 0-1.473-1.233-1.473-2.755 0-1.52.66-2.753 1.473-2.753.814 0 1.474 1.234 1.474 2.754 0 1.522-.66 2.755-1.474 2.755m6.114-2.752l.01.003-.006-9.733a2.32 2.32 0 10-4.64.003v3.8c-.475-.12-.97-.18-1.477-.18a6.078 6.078 0 00-4.322 1.79 6.085 6.085 0 00-1.79 4.32 6.093 6.093 0 001.79 4.323c.703.71 2.215 1.795 4.323 1.793 2.11.002 3.62-1.084 4.325-1.792a6.105 6.105 0 001.792-4.323l-.003-.003m-42.19 4.776c0-.155-.045-.3-.12-.422l-2.544-3.84 1.76-3.19a2.324 2.324 0 00-.82-3.18 2.323 2.323 0 00-3.18.823l-2.1 3.754v-2.51a2.32 2.32 0 00-4.643 0v9.38h4.643v-3.673l2.45 3.67h3.747a.808.808 0 00.808-.81"/><path fill="#f58113" d="M127.438 28.92h.027l.435.486.434-.487h.027v.91h-.16v-.57l-.28.336h-.03l-.28-.336v.566h-.165v-.913zm-.63.154h-.27v-.14h.705v.14h-.27v.758h-.165v-.758z"/></g></svg>