<svg xmlns="http://www.w3.org/2000/svg" width="128" height="64"><g stroke="null"><path fill="#f57c14" d="M8.755 28.92c-1.68-.003-3.224.687-4.324 1.79-1.1 1.1-1.79 2.64-1.79 4.325v5.585h4.65v-5.49c.01-.67.16-1.242.44-1.685.273-.437.626-.696 1.04-.698.414.002.767.262 1.04.698.27.443.43 1.014.43 1.684v5.49h4.644v-5.59c0-1.69-.69-3.23-1.79-4.33-1.1-1.11-2.643-1.8-4.325-1.79m111.115 0c-1.682-.01-3.224.68-4.324 1.79-1.1 1.1-1.79 2.64-1.79 4.32v5.583h4.64v-5.49c.006-.67.165-1.243.436-1.686.277-.437.63-.696 1.04-.698.418 0 .77.26 1.045.697.27.446.43 1.017.43 1.687v5.49H126v-5.58c0-1.686-.69-3.228-1.79-4.326-1.1-1.1-2.643-1.79-4.324-1.79m-100.01-1.5c.468-.464.756-1.11.756-1.82 0-.715-.285-1.36-.75-1.825-.47-.467-1.115-.757-1.827-.757-.71 0-1.357.29-1.824.755-.47.467-.76 1.11-.76 1.826 0 .712.29 1.357.76 1.824l.57.57c.95.952 1.017 1.203.11 2.107l-.52.52c-.422.426-.69 1.01-.69 1.66v8.347h4.69v-8.35c0-.65-.26-1.24-.68-1.66l-.52-.52c-.905-.908-.84-1.16.11-2.11l.57-.57zm8.315 9.57c-.27.506-.623.806-1.04.81-.41 0-.77-.3-1.04-.8-.27-.51-.43-1.17-.43-1.944s.16-1.43.43-1.943c.276-.503.63-.803 1.046-.805.417 0 .77.3 1.04.805.2.38.34.84.4 1.37h4.65c-.135-1.453-.79-2.773-1.76-3.75-1.1-1.1-2.644-1.79-4.323-1.79-1.68 0-3.227.69-4.324 1.79-1.106 1.1-1.796 2.646-1.794 4.327-.003 1.68.687 3.224 1.79 4.323.843.846 2.32 1.79 4.32 1.79 1.505 0 2.9-.552 3.964-1.46.774-.657 1.925-1.98 2.123-4.08h-4.65c-.056.53-.195.99-.395 1.37m21.506-3.05c.085-.36.197-.672.307-.907.21-.443.63-.804 1.04-.806.42 0 .76.3 1.05.82.13.228.24.62.296.88l-2.69.01zm1.348-5.025c-1.68-.006-3.223.684-4.323 1.79-1.104 1.1-1.794 2.64-1.794 4.322 0 1.684.69 3.227 1.796 4.327 1.07 1.07 2.59 1.79 4.35 1.79 1.817 0 3.32-.81 4.335-1.83 1.276-1.46 1.34-3.03 1.34-3.03H52.6s-.574 1.445-1.56 1.445c-.416-.004-.77-.3-1.043-.808-.185-.35-.318-.77-.383-1.25h7.205s.49-2.94-1.48-4.93c-1.15-1.16-2.61-1.83-4.31-1.83m42.1 5.02c.084-.358.197-.67.307-.907.204-.443.624-.804 1.04-.806.417 0 .76.296 1.047.82.127.22.24.62.294.88l-2.69.01zm1.348-5.025c-1.68 0-3.225.69-4.325 1.79s-1.79 2.645-1.79 4.327c0 1.69.69 3.23 1.79 4.33 1.07 1.07 2.587 1.79 4.35 1.79 1.816 0 3.32-.81 4.334-1.83 1.28-1.463 1.34-3.03 1.34-3.03h-4.14s-.573 1.444-1.56 1.444c-.415 0-.768-.3-1.04-.805-.187-.35-.32-.77-.385-1.25h7.205s.49-2.94-1.48-4.93c-1.143-1.16-2.602-1.83-4.302-1.83M59.8 22.99c-1.282 0-2.32 1.04-2.32 2.32l.005 15.308h4.643l-.006-15.31c0-1.28-1.04-2.32-2.323-2.32m9.08 14.8c-.81 0-1.48-1.233-1.48-2.755 0-1.52.66-2.753 1.47-2.753.81 0 1.47 1.233 1.47 2.753 0 1.522-.66 2.755-1.474 2.755m0-8.868c-3.378 0-6.117 2.736-6.117 6.113 0 3.377 2.74 6.116 6.115 6.116 3.376 0 6.116-2.74 6.116-6.12s-2.74-6.12-6.12-6.12m38.19 8.87c-.81 0-1.473-1.24-1.473-2.76 0-1.52.66-2.756 1.472-2.756.81 0 1.472 1.233 1.472 2.753s-.66 2.754-1.47 2.754m0-8.87c-3.38 0-6.118 2.738-6.118 6.115s2.74 6.114 6.115 6.114c3.376 0 6.115-2.74 6.115-6.118s-2.74-6.114-6.116-6.114m-25.4 8.87c-.814 0-1.475-1.233-1.475-2.755 0-1.52.66-2.753 1.474-2.753.812 0 1.472 1.232 1.472 2.752 0 1.52-.66 2.754-1.475 2.754m6.113-2.75h.01l-.004-9.733c0-1.28-1.04-2.32-2.32-2.316-1.285 0-2.32 1.04-2.32 2.32v3.8c-.477-.12-.97-.18-1.48-.18-1.68-.006-3.22.683-4.32 1.79-1.104 1.095-1.794 2.64-1.79 4.32-.004 1.68.686 3.225 1.79 4.322.702.71 2.214 1.793 4.322 1.79 2.11 0 3.62-1.084 4.325-1.792 1.1-1.095 1.79-2.64 1.79-4.322l-.002-.004M45.58 39.8c0-.155-.044-.3-.12-.422l-2.543-3.84 1.76-3.19c.65-1.103.285-2.53-.82-3.18-1.103-.65-2.527-.282-3.18.824l-2.1 3.754V31.24c0-1.282-1.04-2.32-2.32-2.32-1.282 0-2.322 1.038-2.322 2.32v9.38h4.643v-3.673l2.45 3.67h3.748c.447 0 .808-.362.808-.81"/><path fill="#f58113" d="M127.438 28.92h.027l.435.486.434-.487h.027v.91h-.16v-.57l-.28.33h-.03l-.28-.338v.565h-.16v-.913zm-.63.154h-.27v-.14h.705v.14h-.27v.758h-.165v-.758z"/></g></svg>