<svg xmlns="http://www.w3.org/2000/svg" width="128" height="64"><g fill="#0051aa"><path d="M7.455 2.426c-2.002.152-3.734.915-5.082 2.237A7.522 7.522 0 00.94 6.586C-.22 8.768-.31 11.536.702 13.83a7.81 7.81 0 002.846 3.35c1.068.693 2.199 1.095 3.548 1.259.388.046 1.493.046 1.894 0 1.217-.144 2.309-.508 3.3-1.103a7.749 7.749 0 003.129-3.589 8.533 8.533 0 00.002-6.6 7.784 7.784 0 00-5.23-4.467c-.732-.19-1.214-.25-2.038-.257a23.636 23.636 0 00-.698.002zM30.37 2.435a8.172 8.172 0 00-2.996.827 7.672 7.672 0 00-3.159 2.884c-.169.273-.496.921-.599 1.192a8.623 8.623 0 00-.539 2.182c-.025.213-.03.423-.03.928 0 .506.005.715.03.929.09.774.263 1.474.54 2.182.102.27.43.919.598 1.191a7.672 7.672 0 003.159 2.885 8.17 8.17 0 002.748.805c.395.046 1.52.046 1.903 0 1.296-.158 2.4-.539 3.42-1.179a7.783 7.783 0 002.104-1.95c1.092-1.47 1.638-3.313 1.552-5.245a8.303 8.303 0 00-.486-2.497 7.783 7.783 0 00-3.17-3.934c-1.017-.638-2.126-1.02-3.411-1.176a15.172 15.172 0 00-1.664-.024zM53.506 2.427c-1.621.103-3.217.706-4.452 1.683-.353.279-.804.707-1.085 1.035a8.504 8.504 0 00-.845 1.204c-1.252 2.178-1.41 4.998-.416 7.36a7.781 7.781 0 003.02 3.552c1.02.64 2.124 1.02 3.42 1.179.382.046 1.507.046 1.903 0a8.17 8.17 0 002.748-.805 7.687 7.687 0 003.49-3.484c.716-1.43.992-3.127.782-4.797-.28-2.237-1.44-4.2-3.233-5.476a8.618 8.618 0 00-1.636-.888 8.381 8.381 0 00-2.444-.557 16.683 16.683 0 00-1.252-.006zM74.73 2.427a6.987 6.987 0 00-1.788.403c-.292.11-.872.395-1.116.55a6.206 6.206 0 00-2.515 3.026c-.3.763-.441 1.47-.482 2.391-.024.561-.024 22.532 0 23.157.037.963.164 1.684.427 2.448.63 1.828 1.94 3.135 3.774 3.767a7.53 7.53 0 001.995.388c.185.011 7.078.019 19.805.019h19.518v9.081l-19.803.006c-18.934.003-19.816.005-20.063.037-1.055.136-1.915.426-2.739.926a6.596 6.596 0 00-3.08 4.482c-.082.452-.1.677-.098 1.269 0 .485.007.614.042.864a7.073 7.073 0 001.658 3.713c.315.37.815.816 1.22 1.092.766.519 1.484.804 2.428.963l.239.04 23.641.006c17.099.004 23.726 0 23.945-.014 2.449-.164 4.214-1.168 5.267-2.997.519-.899.826-1.893.969-3.144.02-.174.024-4.301.024-23.329 0-22.154-.002-23.128-.033-23.384-.164-1.322-.596-2.405-1.324-3.316a7.103 7.103 0 00-1.18-1.118c-1.013-.73-2.3-1.19-3.67-1.31-.284-.025-2.829-.028-23.649-.025-12.83.002-23.365.006-23.411.01zm39.618 18.463v4.817h-31.86v-9.633h31.86zM7.653 24.11c-1.73.07-3.375.672-4.677 1.707a7.765 7.765 0 00-2.514 3.554 8.363 8.363 0 00-.258 4.54 8.137 8.137 0 003.831 5.198 7.96 7.96 0 003.05 1.015c.43.055 1.43.058 1.877.009 1.287-.146 2.447-.544 3.475-1.195a7.785 7.785 0 003.33-4.48c.61-2.157.334-4.534-.744-6.416-1.05-1.831-2.774-3.138-4.851-3.677a8.021 8.021 0 00-1.623-.248 36.152 36.152 0 01-.414-.017c-.07-.004-.289 0-.482.01zM30.674 24.11a8.083 8.083 0 00-3.705 1.055 7.76 7.76 0 00-3.29 3.713 8.567 8.567 0 00-.56 2.013 9.67 9.67 0 00-.067 1.82 8.058 8.058 0 002.432 5.195 7.906 7.906 0 003.318 1.947c.482.14.838.212 1.384.28.374.046 1.412.046 1.811 0 1.736-.203 3.227-.853 4.477-1.954a7.827 7.827 0 001.956-2.697c.404-.932.625-1.91.67-2.964.078-1.798-.372-3.474-1.312-4.9a7.761 7.761 0 00-2.629-2.464 8.147 8.147 0 00-3.585-1.037 83.88 83.88 0 01-.404-.017c-.08-.002-.303.002-.496.01zM53.716 24.11a8.146 8.146 0 00-3.206.786c-2.45 1.179-4.074 3.486-4.394 6.243a8.073 8.073 0 001.568 5.83 8 8 0 005 3.085c.54.095.758.112 1.438.112.76-.002 1.13-.039 1.784-.177A7.83 7.83 0 0060.79 36.7c1.081-1.617 1.528-3.586 1.283-5.647a8.464 8.464 0 00-.514-2.019c-.087-.22-.346-.759-.473-.98a7.781 7.781 0 00-3.682-3.29c-.905-.384-1.897-.614-2.804-.647a36.152 36.152 0 01-.413-.017c-.07-.004-.284 0-.471.01zM7.473 45.536c-1.528.117-2.825.553-4.008 1.345a7.824 7.824 0 00-3.29 4.96 8.663 8.663 0 00.233 4.328 7.784 7.784 0 002.653 3.778c.445.342.8.56 1.324.818.86.423 1.645.65 2.684.785.207.026.393.033.974.033.75 0 .9-.011 1.447-.103a7.894 7.894 0 004.26-2.167 7.81 7.81 0 002.169-4.072c.513-2.561-.173-5.218-1.822-7.07a7.843 7.843 0 00-4.04-2.415c-.66-.161-1.11-.213-1.894-.22a19.58 19.58 0 00-.69 0zM30.49 45.536a8.684 8.684 0 00-2.532.57c-.264.103-.878.41-1.158.58a7.728 7.728 0 00-2.436 2.34c-.7 1.052-1.128 2.251-1.287 3.604-.046.392-.046 1.463 0 1.857a8.13 8.13 0 00.76 2.673c.193.397.296.58.518.917a7.562 7.562 0 002.173 2.182c1.07.71 2.204 1.12 3.576 1.29.206.027.402.034.974.034.8 0 1.035-.02 1.673-.147 2.06-.408 3.851-1.588 4.995-3.29.835-1.247 1.285-2.643 1.355-4.201.095-2.18-.6-4.214-1.976-5.773-1.273-1.441-3.041-2.353-5.032-2.594a7.852 7.852 0 00-.914-.044c-.329-.002-.638-.002-.69.002zM53.506 45.538a8.781 8.781 0 00-2.031.393c-2.781.9-4.798 3.254-5.295 6.173a8.974 8.974 0 00-.016 2.806c.377 2.399 1.774 4.447 3.84 5.629.912.522 1.914.851 3.052 1.002.289.037.395.042 1.039.042.768 0 .928-.013 1.507-.112a7.84 7.84 0 005.216-3.39c.871-1.324 1.32-2.86 1.32-4.523 0-2.696-1.199-5.072-3.322-6.583a7.302 7.302 0 00-1.063-.623 7.256 7.256 0 00-1.511-.56c-.728-.188-1.213-.25-2.028-.258-.329-.002-.647-.002-.708.004z"/></g></svg>