<?xml version="1.0" encoding="UTF-8" standalone="no"?>

<svg xmlns:svg="http://www.w3.org/2000/svg" xmlns="http://www.w3.org/2000/svg" version="1.1" width="128" height="64" xmlns:xlink="http://www.w3.org/1999/xlink">
	<g id="layer1">
		<path style="fill:#000000" d="m 41.200443,60.49958 c 0,-0.777075 -0.0086,-0.786214 -0.737053,-0.788354 -1.493158,-0.0044 -2.244039,-0.240363 -2.92196,-0.918282 l -0.665042,-0.665044 0,-16.32572 c 0,-15.956557 0.0088,-16.338084 0.389226,-16.87234 0.830952,-1.166961 0.974764,-1.184719 9.593976,-1.184719 l 7.860042,0 0.128877,-0.513489 c 0.196197,-0.781695 2.017252,-2.464868 3.485327,-3.221418 l 1.311286,-0.675756 -6.421485,-4.280446 c -5.822925,-3.881452 -6.48002,-4.269467 -7.049418,-4.162651 -0.504515,0.09465 -0.726651,0.0191 -1.130195,-0.384466 -1.125726,-1.1257209 -0.06602,-2.8331106 1.410074,-2.2719014 0.622309,0.2365996 0.832119,0.5080819 0.836321,1.0821495 0.0025,0.321189 1.50886,1.4144519 6.871234,4.9863729 l 6.868219,4.574992 1.927299,-0.224686 c 1.060013,-0.123571 2.205224,-0.244724 2.544907,-0.269228 0.536381,-0.03866 1.473058,-0.949351 7.121454,-6.923721 5.639327,-5.9647739 6.504291,-6.9600367 6.507249,-7.4874945 0.0044,-0.7822351 0.539536,-1.2588876 1.413398,-1.2588876 0.844388,0 1.341687,0.4921894 1.341687,1.3279085 0,0.7235146 -0.815225,1.4738254 -1.503428,1.3837074 -0.359192,-0.047034 -1.636885,1.2044269 -6.652524,6.5159752 l -6.207944,6.574187 1.52003,0.358673 c 2.97316,0.701561 5.846275,2.571145 6.545526,4.259274 l 0.253044,0.610905 6.579938,0 c 7.213792,0 7.499249,0.04068 8.313883,1.184719 0.380424,0.534256 0.389221,0.915783 0.389221,16.87234 l 0,16.32572 -0.665037,0.665044 c -0.701371,0.70137 -1.424124,0.914354 -3.116182,0.918282 l -0.931281,0.0019 -0.125716,0.786194 -0.125723,0.786189 -1.133132,0 c -1.204934,0 -1.371745,-0.133414 -1.371745,-1.097084 l 0,-0.475293 -19.949617,0 -19.949611,0 0,0.786188 0,0.786189 -1.277566,0 -1.277559,0 0,-0.786189 z" id="path2890"/>
		<text xml:space="preserve" style="font-style:normal;font-weight:normal;font-size:32.65818405px;line-height:125%;font-family:sans-serif;letter-spacing:0px;word-spacing:0px;fill:#000000;fill-opacity:1;stroke:none;stroke-width:1px;stroke-linecap:butt;stroke-linejoin:miter;stroke-opacity:1" x="55.30125" y="54.119247" id="text3336">
			<tspan id="tspan3338" x="55.30125" y="54.119247" style="fill:#ffffff">?</tspan>
		</text>
	</g>
</svg>