<svg xmlns="http://www.w3.org/2000/svg" width="128" height="64"><path d="M41.2 60.5c0-.777-.008-.787-.737-.79-1.493-.003-2.244-.24-2.922-.917l-.66-.665V41.802c0-15.956.01-16.338.39-16.872.83-1.167.977-1.185 9.597-1.185h7.86l.13-.513c.196-.782 2.017-2.465 3.485-3.222l1.31-.676-6.42-4.28c-5.823-3.88-6.48-4.27-7.05-4.163-.504.1-.726.02-1.13-.38-1.126-1.122-.066-2.83 1.41-2.27.62.24.83.51.836 1.08.004.32 1.51 1.418 6.873 4.99l6.868 4.575 1.928-.224a85.157 85.157 0 0 1 2.545-.27c.535-.04 1.47-.95 7.12-6.923 5.64-5.963 6.504-6.96 6.507-7.486.005-.782.54-1.26 1.414-1.26.847 0 1.344.494 1.344 1.33 0 .723-.815 1.473-1.504 1.383-.36-.048-1.64 1.204-6.655 6.515L67.53 18.52l1.52.36c2.972.7 5.845 2.57 6.545 4.257l.253.61h6.58c7.214 0 7.5.042 8.314 1.186.38.535.39.917.39 16.873V58.13l-.663.664c-.707.7-1.43.914-3.12.918l-.93.003-.13.786-.124.79h-1.14c-1.206 0-1.373-.13-1.373-1.1v-.47h-39.9v1.57H41.2v-.79z"/><text style="line-height:125%" x="55.301" y="54.119" font-size="32.658" font-family="sans-serif" letter-spacing="0" word-spacing="0"><tspan x="55.301" y="54.119" fill="#fff">?</tspan></text></svg>