<svg xmlns="http://www.w3.org/2000/svg" width="128" height="64"><path d="M41.2 60.5c0-.777-.008-.787-.737-.79-1.493-.003-2.244-.24-2.922-.917l-.66-.665V41.802c0-15.956.01-16.338.39-16.872.83-1.167.98-1.185 9.6-1.185h7.86l.13-.513c.2-.782 2.02-2.465 3.49-3.222l1.31-.676-6.42-4.28c-5.823-3.88-6.48-4.27-7.05-4.163-.504.1-.726.02-1.13-.38-1.126-1.12-.066-2.83 1.41-2.27.62.24.83.51.836 1.08.004.32 1.51 1.42 6.873 4.99l6.867 4.58 1.93-.22c1.06-.125 2.204-.246 2.544-.27.535-.04 1.47-.95 7.12-6.924 5.64-5.963 6.504-6.96 6.507-7.486.006-.783.54-1.26 1.415-1.26.848 0 1.345.493 1.345 1.33 0 .722-.816 1.472-1.505 1.382-.36-.05-1.64 1.204-6.656 6.515l-6.21 6.57 1.52.36c2.97.7 5.844 2.57 6.544 4.258l.253.61h6.58c7.216 0 7.5.042 8.316 1.186.38.536.39.918.39 16.874v16.32l-.66.666c-.71.7-1.43.913-3.12.917l-.93.003-.13.785-.127.79h-1.14c-1.207 0-1.374-.13-1.374-1.1v-.47h-39.9v1.57H41.2v-.79z"/><text style="line-height:125%" x="55.301" y="54.119" font-size="32.658" font-family="sans-serif" letter-spacing="0" word-spacing="0"><tspan x="55.301" y="54.119" fill="#fff">?</tspan></text></svg>