<svg xmlns="http://www.w3.org/2000/svg" width="128" height="64"><g transform="translate(-491.94 -341.055) scale(1.34665)"><circle transform="matrix(1.03071 0 0 1.03071 295.417 173.987)" cx="141.5" cy="99.967" r="18.5" fill="#00b8f0"/><path d="M371.971 286.522v-18.976h-6.64v18.976zM384.307 286.522h6.64v-18.976h-6.64zM405.968 286.522v-18.976h-6.64v18.976zM394.812 267.162l-.295.03-.324.059-.295.118-.266.089-.295.147-.266.148-.236.206-.236.177-.206.236-.207.237-.177.236-.148.265-.147.266-.089.295-.088.295-.089.325-.03.295-.029.354.03.325.03.295.088.324.088.295.089.296.147.265.148.266.177.265.207.236.206.207.236.177.236.177.266.177.295.148.266.088.295.118.324.06.295.029.355.03.295-.03.324-.03.325-.059.295-.118.295-.088.266-.148.265-.177.236-.177.237-.177.206-.207.207-.236.177-.265.147-.266.148-.265.118-.296.088-.295.06-.324.058-.295v-.679l-.059-.295-.059-.325-.088-.295-.118-.295-.148-.266-.147-.265-.177-.236-.207-.237-.206-.236-.237-.177-.236-.206-.265-.148-.266-.147-.295-.089-.295-.118-.325-.059-.324-.03-.295-.029zM414.083 277.55l-.088-.354v-.324l.088-.325.177-.354v-.03l.06-.088.088-.148.118-.177.118-.206.177-.266.177-.295.177-.325.207-.354.236-.354.236-.413.265-.384.266-.442.236-.414.266-.442.265-.413.266-.443.265-.413.237-.413.236-.384.236-.384.206-.354.207-.324.177-.295.147-.237.148-.236.118-.177.06-.147.058-.06.03-.029h-7.32l-.029.03-.03.059-.088.147-.118.148-.118.236-.147.236-.177.266-.177.324-.207.325-.236.354-.236.384-.236.383-.236.413-.236.414-.266.413-.236.413-.266.413-.236.384-.236.413-.236.354-.236.384-.207.324-.177.325-.177.265-.147.266-.148.207-.088.177-.089.118-.177.354-.148.354-.088.295v.62l.118.295.118.354.207.384.088.118.089.177.147.206.148.266.177.266.177.324.206.325.207.354.236.384.236.413.236.383.266.414.265.413.237.413.236.413.265.384.236.383.207.384.236.354.207.325.177.324.177.266.147.236.118.236.118.148.089.147.03.06.029.029h7.319l-5.253-8.617-.207-.355zM383.864 286.492v-.059l-.03-.088-.03-.118-.029-.177-.03-.207-.058-.207-.06-.265-.058-.266-.06-.324-.088-.325-.088-.354-.06-.354-.088-.384-.088-.413-.118-.413-.089-.443-.089-.443-.118-.472-.088-.472-.118-.472-.089-.472-.118-.473-.118-.501-.118-.502-.088-.472-.118-.502-.089-.472-.118-.443-.118-.472-.089-.472-.118-.443-.088-.442-.089-.413-.088-.414-.089-.383-.088-.354-.089-.354-.059-.355-.059-.295-.059-.265-.059-.266-.059-.236-.059-.177-.03-.177-.029-.118v-.089l-.03-.059v-.03l-.088-.324-.089-.295-.118-.295-.177-.295-.177-.266-.177-.265-.236-.207-.236-.236-.236-.177-.266-.177-.295-.148-.295-.118-.295-.118-.325-.059-.354-.059h-4.603l4.308 18.976h7.23l-.03-.03z" fill="#909193"/><path d="M435.675 272.534h2.744v13.988h6.67v-18.976h-9.414z" fill="#fff"/></g></svg>