<svg xmlns="http://www.w3.org/2000/svg" width="128" height="64"><g transform="matrix(1.29199 0 0 1.29199 -451.56 -174.902)"><circle transform="matrix(1.07411 0 0 1.07411 276.686 52.767)" cx="141.5" cy="99.967" r="18.5" fill="#91c63d"/><g fill="#909193"><path d="M356.464 170.04v-19.774h-6.92v19.774zM369.319 170.04h6.92v-19.774h-6.92zM391.892 170.04v-19.774h-6.92v19.774zM380.267 149.866l-.307.03-.339.062-.307.123-.277.092-.307.154-.277.154-.246.215-.246.185-.216.246-.215.246-.184.246-.154.277-.154.276-.092.308-.092.307-.093.339-.03.307-.031.37.03.338.031.307.093.338.092.308.092.307.154.277.154.277.184.277.215.246.216.215.246.185.246.184.277.185.307.153.277.093.307.123.339.061.307.031.37.03.307-.03.338-.03.338-.062.308-.123.307-.093.277-.153.277-.185.246-.184.246-.185.215-.215.216-.246.184-.277.154-.277.154-.277.123-.307.092-.308.061-.338.062-.307v-.708l-.062-.307-.061-.339-.092-.307-.123-.308-.154-.276-.154-.277-.184-.246-.216-.246-.215-.246-.246-.185-.246-.215-.277-.154-.277-.154-.307-.092-.308-.123-.338-.061-.338-.031-.308-.03zM400.35 160.691l-.093-.369v-.338l.092-.339.185-.369v-.03l.061-.093.093-.153.123-.185.123-.215.184-.277.185-.307.184-.339.215-.369.246-.369.247-.43.276-.4.277-.462.246-.43.277-.461.277-.43.276-.462.277-.43.246-.431.246-.4.246-.4.216-.369.215-.338.184-.308.154-.246.154-.246.123-.184.061-.154.062-.062.03-.03h-7.626l-.031.03-.03.062-.093.154-.123.153-.123.246-.154.246-.184.277-.185.339-.215.338-.246.369-.246.4-.246.4-.246.43-.246.43-.277.431-.246.43-.277.431-.246.4-.246.43-.246.37-.246.4-.215.338-.185.338-.184.277-.154.277-.154.215-.092.184-.092.123-.185.37-.154.368-.092.308v.646l.123.307.123.37.215.4.093.122.092.185.154.215.154.277.184.277.185.338.215.338.215.37.246.399.246.43.246.4.277.43.277.431.246.43.246.432.277.4.246.4.215.399.246.369.215.338.185.339.184.276.154.246.123.246.123.154.092.154.031.061.03.031h7.628l-5.474-8.98-.216-.369zM368.858 170.01v-.062l-.031-.092-.03-.123-.032-.185-.03-.215-.062-.216-.061-.276-.062-.277-.061-.338-.093-.339-.092-.369-.061-.369-.093-.4-.092-.43-.123-.43-.092-.462-.092-.461-.123-.492-.093-.492-.123-.492-.092-.492-.123-.493-.123-.522-.123-.523-.092-.492-.123-.523-.093-.492-.123-.461-.123-.492-.092-.492-.123-.462-.092-.461-.092-.43-.093-.431-.092-.4-.092-.369-.092-.369-.062-.37-.061-.307-.062-.276-.061-.277-.062-.246-.062-.185-.03-.184-.031-.123v-.092l-.03-.062v-.03l-.093-.34-.092-.307-.123-.307-.185-.308-.184-.276-.185-.277-.246-.215-.246-.247-.246-.184-.277-.185-.307-.153-.308-.123-.307-.123-.339-.062-.369-.061h-4.797l4.49 19.774h7.534l-.03-.03z"/></g><path d="M420.96 150.26h15.334l-3.734 5.547s-.396.172.113.4c.51.23 4.527 2.63 4.074 6.977-.453 4.345-4.017 6.861-7.525 6.861h-8.261V164.9h8.713s1.118-.052 1.64-.927c.617-1.034.514-2.944-1.64-3.362-.047-.009-5.432 0-5.432 0l3.735-5.375h-6.903z" fill="#fff" fill-rule="evenodd"/></g></svg>