<svg xmlns="http://www.w3.org/2000/svg" width="128" height="64"><path d="M48.363 5.492l1.368-.7-.25-1.464 1.072 1.053 1.38-.694-.686 1.378 1.111 1.062-1.523-.237-.682 1.352-.245-1.507zM83.16 46.126l-1.197-2.473-1.832-1.857-4.609-10.105-2.053-.625-.593.666h-.362l-1.03-2.716-1.03-1.826-1.422-2.292-2.013-5.986-1.962-1.928v6.35l-1.631 4.45 2.214 1.414-3.774 10.165.725.626-1.963 4.43 2.456 2.666h3.703l-.634-1.615 5.596 2.06h6.35l-1.339-2.313-.694-1.816-.272-1.373 3.3 4.098zm-44.722-14.43c0 3.866.858 7.53 2.394 10.812l9.697-11.159.838-.272 3.736-5.27 1.63-1.407 2.445-3.838 1.472-1.408 2.378-3.339 1.494-1.135 2.785 1.998 1.38 2.566 1.767 5.27 2.06 3.656 4.325 1.93 3.917 8.017.951 3.202.928.682.816.954 1.513 2.879a25.413 25.413 0 004.267-14.138c0-14.069-11.37-25.473-25.397-25.473-14.026 0-25.396 11.404-25.396 25.473zm15.674 12.886h.476l1.562-1.863.634-2.907.634-1.65-.287-.485-2.445 4.422zm-18.002-.608l.66 1.355.309-1.499 1.548-.181-1.354-.721.29-1.477-1.126 1.047-1.38-.71.66 1.364-1.11 1.01zm18.704-38.99l.94-1.2 1.448.517-.884-1.263.936-1.207-1.483.414-.848-1.23-.04 1.484-1.482.424 1.467.533zm-6.775 31.77l-2.655 4.38.091.14 2.903-4.11 1.02-.795 1.878-3.786-1.72 1.81zM59.992 3.882l1.155-1.003 1.32.78-.615-1.398L63 1.237l-1.537.138-.584-1.37-.341 1.453-1.53.144 1.335.793zM57.796 28.32l-1.525 1.923-.378.136-2.762 4.194.392.409-2.853 6.36 1.918-1.984 1.071-1.847.635-.909.588-.151 1.796-3.422.212-2.226.981-2.195zm32.14-7.473l1.27.865-.47 1.437 1.25-.917 1.285.868-.495-1.427 1.221-.888-1.515.036-.496-1.433-.484 1.443zm3.278 5.3l-1.53-.276 1.067 1.085-.738 1.322 1.402-.67 1.097 1.098-.205-1.493 1.368-.648-1.497-.253-.202-1.49zM88.959 16.7l-.173 1.493 1.035-1.134 1.438.618-.766-1.309 1.023-1.098-1.475.312-.766-1.312-.195 1.513-1.53.303zM70.798 4.301l1.449-.517.94 1.2-.056-1.528 1.468-.533-1.482-.424-.04-1.483-.848 1.23-1.483-.415.936 1.207zm22.91 28.866l.862 1.28.088-1.5 1.472-.375-1.41-.526.081-1.51-1.001 1.165-1.453-.56.84 1.267-.987 1.162zM77.164 5.89l.683 1.352.245-1.507 1.545-.243-1.369-.7.25-1.464-1.07 1.053-1.38-.694.685 1.378-1.111 1.062zm6.927 6.145l1.504.342.114 1.493.803-1.302 1.526.332-1.001-1.138.789-1.27-1.39.586-1.01-1.148.103 1.52zm-2.385-3.482l.404 1.454.535-1.431 1.571.04-1.207-.93.524-1.395-1.258.832-1.211-.938.4 1.474-1.295.842zM65.532 3.658l1.321-.78 1.155 1.003-.352-1.486 1.336-.793-1.53-.144L67.12.004l-.584 1.371L65 1.237l1.148 1.023zm-14.297 58.79h1.335v-.627h-1.335v-.765h1.538v-.641h-2.271v3.529h2.276v-.647h-1.543zm43.197-26.311l-1.214.957-1.318-.815.58 1.397-1.192.95 1.563-.105.598 1.417.37-1.456 1.523-.096-1.288-.78zM71.337 60.863c.345.33.516.769.515 1.316 0 .548-.17.987-.515 1.321-.346.33-.786.496-1.32.496-.54 0-.98-.165-1.326-.496-.345-.334-.515-.773-.515-1.32 0-.548.17-.986.515-1.317.345-.335.786-.5 1.326-.5.534 0 .974.165 1.32.5zm-.232 1.316c0-.363-.1-.646-.303-.854-.199-.212-.46-.316-.786-.316s-.59.104-.795.316c-.203.208-.302.49-.302.854 0 .359.1.642.302.854.204.213.469.316.795.316.326 0 .587-.103.786-.316.203-.211.303-.495.303-.854zm-15.637-1.123h1.188v2.888h.728v-2.888h1.183v-.641h-3.1zm9.085 1.652l-.757-2.293h-.6l-.752 2.293-.758-2.293h-.795l1.235 3.53h.62l.752-2.238.752 2.237h.616l1.235-3.53h-.795zm28.39-20.92l-1.38.71-1.126-1.047.29 1.477-1.354.72 1.548.182.308 1.5.66-1.356 1.505.188-1.112-1.01zM76.635 62.555l.752 1.388h-.823l-.691-1.27h-.591v1.27h-.734v-3.53h1.514c.345 0 .62.1.829.303.208.198.312.477.312.83 0 .486-.208.835-.568 1.01zm-.175-1.008c0-.317-.199-.491-.488-.491h-.695v.972h.695c.29 0 .488-.18.488-.481zm6.546-1.133h-.937l-1.202 1.457v-1.457h-.733v3.53h.733v-.978l.435-.524.985 1.501h.861l-1.358-2.086zM45.355 8.576l.535 1.43.404-1.453 1.537-.052-1.295-.842.4-1.474-1.211.938-1.259-.832.525 1.394-1.207.93zM34.729 23.1l1.284-.868 1.251.917-.47-1.437 1.27-.865-1.566-.016-.485-1.443-.495 1.433-1.516-.036 1.222.888zM46.75 62.603l-1.557-2.188h-.62v3.53h.734v-2.186l1.552 2.185h.62v-3.53h-.729zm-5.262-50.035l.803 1.302.114-1.493 1.504-.342-1.439-.585.103-1.52-1.009 1.148-1.39-.586.789 1.27L39.96 12.9zm-8 16.138l1.097-1.098 1.401.67-.737-1.322 1.067-1.085-1.53.276-.762-1.325-.202 1.49-1.497.253 1.368.648zm3.252-11.03l1.438-.618 1.036 1.134-.173-1.493 1.409-.614-1.53-.303-.195-1.513-.766 1.312-1.475-.312 1.023 1.098zm50.829 37.68c-.277.69-.454 1.209-.454 1.595 0 .392.192.546.492.546.249 0 .5-.112.746-.294.393-.29.777-.763 1.125-1.255l.249.24c-.377.534-.822 1.11-1.374 1.493-.38.264-.812.437-1.31.437-.706 0-1.217-.422-1.217-1.262 0-.276.065-.626.168-.915-.45.625-1.312 1.435-2.152 1.435-.562 0-.817-.35-.817-.809 0-.261.114-.663.254-.995.157-.376.382-.853.685-1.477.336-.692.69-1.376.69-1.624 0-.13-.067-.217-.199-.217-.616 0-1.281.895-1.94 2.383l-1.165 2.639h-1.462l.448-1.015c-.53.63-1.07 1.136-1.768 1.136-.603 0-.734-.41-.734-.836 0-.117.033-.336.065-.49h-.017c-.571.776-1.382 1.33-1.973 1.33-.59 0-.872-.366-.872-.884 0-.237.096-.592.258-.97.219-.513.514-1.129.779-1.682l.23-.499c-.225.115-.44.152-.623.152-.195 0-.35-.039-.473-.1-.038.42-.18.973-.471 1.623-.651 1.448-1.723 2.365-3.045 2.365-1.117 0-1.545-.655-1.598-1.413l-.003-.205c-.72.955-1.365 1.588-2.204 1.588-.645 0-.877-.375-.877-.793 0-.262.105-.601.212-.837l1.294-2.758c.112-.245.14-.39.14-.478 0-.158-.062-.232-.206-.232-.477 0-1.12.645-1.7 1.949l-1.351 3.045-1.48.003 1.934-4.362c.083-.196.118-.344.118-.424 0-.134-.077-.195-.191-.195-.386 0-1.169.686-1.745 1.989l-1.319 2.992h-1.445l.443-1.004c-.6.73-1.092 1.105-1.688 1.105-.543 0-.809-.392-.809-.862 0-.093.014-.257.028-.332-.385.478-1.087 1.195-1.851 1.195-.725 0-1.085-.437-1.076-1.129.011-.827.487-1.836 1.197-2.8-.299.184-.638.331-.94.331-.379 0-.528-.187-.528-.461 0-.268.212-.554.212-.662 0-.04-.02-.06-.066-.06-.14 0-.664.529-1.116 1.548l-1.382 3.131h-1.411l.45-1.02c-.557.688-1.248 1.121-1.765 1.121-.585 0-.778-.349-.778-.831 0-.06.036-.237.045-.287-.385.478-1.03 1.119-1.836 1.119-.725 0-1.084-.437-1.074-1.129.011-.862.526-1.92 1.286-2.921.697-.92 1.995-1.817 3.328-1.817.903 0 1.612.155 1.502.405l-1.478 3.354c-.135.292-.374.845-.374 1.069 0 .144.065.202.178.202.485 0 1.36-1.238 1.893-2.422l1.115-2.514h1.293l-.39.927c.462-.526 1.085-1.034 1.616-1.034.274 0 .382.133.382.332 0 .437-.492 1.014-.492 1.22 0 .059.04.108.132.108.187 0 .55-.205 1.04-.609.701-.577 1.648-1.038 2.576-1.038.903 0 1.613.155 1.503.405l-1.478 3.354c-.1.229-.35.785-.35 1.018 0 .144.065.202.178.202.485 0 1.336-1.187 1.87-2.371l1.116-2.514h1.333l-.391.942c.59-.68 1.234-1.05 1.861-1.05.506 0 .74.254.74.73 0 .12-.009.225-.028.317.587-.655 1.335-1.046 2.02-1.046.494 0 .798.31.798.745 0 .404-.184.815-.447 1.439l-.946 2.013c-.055.117-.195.43-.195.588 0 .143.067.207.176.207.423 0 .97-.663 1.486-1.51.228-.717.484-1.34.86-1.915.564-.859 1.424-1.572 2.63-1.572.871 0 1.454.494 1.54 1.419.068.107.194.217.472.217.57 0 .941-.496 1.151-.912l.286-.619h1.461l-1.264 2.748h-.002l-.611 1.338c-.085.196-.193.458-.193.605 0 .147.078.207.197.207.585 0 1.497-1.398 1.864-2.226l1.167-2.672h1.461l-1.2 2.748-.714 1.65a.946.946 0 00-.081.307c0 .116.05.187.166.187.562 0 1.47-1.478 1.911-2.371l1.11-2.514h1.364l-.358.87c.552-.575 1.15-.977 1.816-.977.59 0 .892.363.892.84 0 .474-.482 1.426-.78 2.032-.206.42-.482.99-.654 1.39-.14.326-.172.447-.172.56 0 .119.072.172.187.172.541 0 1.489-1.288 2.086-2.596l.836-1.859h-.694l.201-.432h.677l.562-1.272.332-.752h1.443l-.893 2.024h.944l-.192.432h-.948c-.059.142-.367.838-.686 1.556-.377.85-.77 1.73-.784 1.764zm-36.511-1.344l.918-2.043c-.721 0-1.398.514-1.912 1.21-.742 1.006-1.33 2.262-1.34 2.975.005.271.145.34.354.34.55 0 1.3-.938 1.98-2.482zm8.995 0h-.003l.919-2.043c-.721 0-1.398.514-1.912 1.21-.742 1.006-1.33 2.262-1.34 2.975.005.271.146.34.354.34.575 0 1.29-.916 1.982-2.482zm14.002-1.49c.01-.298-.088-.535-.364-.535-.279 0-.537.216-.911.735-.823 1.14-1.409 2.787-1.481 3.5-.041.407.058.685.39.685.242 0 .521-.132.847-.59.805-1.13 1.493-3.023 1.519-3.796zM51.04 48.662c0-2.597-2.753-3.842-6.033-3.842-3.5 0-6.712 1.551-7.903 3.949a4.609 4.609 0 00-.49 2.067c0 .669.162 1.27.49 1.755.505.748 1.406 1.218 2.736 1.218 1.621 0 2.913-.89 2.913-2.439 0 0 .024-.434-.48-.434-.415 0-.522.284-.512.434.06 1.217-.659 2.184-1.947 2.184-1.44 0-2.044-1.224-2.044-2.536 0-2.68 2.022-4.457 4.127-5.218 1.08-.393 1.947-.535 3.079-.535 2.38 0 4.328.915 4.328 3.358 0 2.046-1.718 3.786-3.783 3.932l.082-.282c.423-1.499.934-3.138 1.776-4.358.05-.077.138-.19.234-.313l-.116-.143a6.29 6.29 0 00-.526.366c-3.951 3.077-4.07 11.712-9.331 11.712a3.42 3.42 0 01-.536-.041c-1.098-.177-1.672-.914-1.669-1.939.001-.201.07-.479.07-.636 0-.266-.18-.542-.575-.542-.47 0-.662.365-.671.904-.025 1.539 1.105 2.428 2.845 2.589.19.017.387.027.592.027 4.104 0 6.626-3.094 7.689-6.853.494-.057 1.3-.219 1.607-.33 1.898-.529 4.048-1.799 4.048-4.054zM33.43 34.447l.861-1.28 1.509.403-.987-1.162.84-1.266-1.453.559-1.002-1.164.081 1.51-1.409.525 1.472.375zm1.719 4.074l1.563.105-1.192-.95.58-1.397-1.318.815-1.214-.957.378 1.47-1.288.78 1.522.095.371 1.456z" fill="#010101"/></svg>