<svg xmlns="http://www.w3.org/2000/svg" width="128" height="64"><path fill="#fff" d="M68.383 31.862c0 16.283-13.198 29.48-29.48 29.48-16.283 0-29.48-13.197-29.48-29.48 0-16.282 13.197-29.48 29.48-29.48 16.282 0 29.48 13.198 29.48 29.48"/><path stroke="#221e1f" fill="transparent" stroke-width="1.372" d="M68.383 31.862c0 16.283-13.198 29.48-29.48 29.48-16.283 0-29.48-13.197-29.48-29.48 0-16.282 13.197-29.48 29.48-29.48 16.282 0 29.48 13.198 29.48 29.48z"/><path d="M39.983 29.878a3.222 3.222 0 100-6.441 3.222 3.222 0 000 6.442m-6.9-15.131c-7.669 0-13.982 5.356-13.982 13.302 0 6.68 4.023 11.45 10.027 12.364v9.294H41.62V40.77h1.733c2.029-.195 3.4-1.533 3.423-3.413v-5.166h3.4l-7.742-17.444h-9.35zm24.053 17.444h3.404L52.9 14.748h-5.01l7.67 17.444h-3.494v4.628c.01 2.804-1.167 4.004-4.975 3.951v8.937h4.96V40.77h1.638c1.457.043 3.419-1.137 3.447-3.427v-5.152zm-49.542-.228c0-17.392 14.102-31.49 31.489-31.49 17.392 0 31.489 14.098 31.489 31.49 0 17.391-14.097 31.489-31.49 31.489-17.386 0-31.488-14.098-31.488-31.49m76.239-.804h2.114c1.8 0 2.785-1.124 2.785-2.505 0-1.433-1.033-2.509-2.785-2.509h-2.114v5.014zm-3.175-5.009h-2.19v-2.714h7.246c3.937 0 6.19 2.028 6.19 5.218 0 3.247-2.357 5.228-6.085 5.228-.31.005-1.986 0-1.986 0v4.128H86.4v2.728h-7.96V38.01h2.218V26.15zm17.511 4.212h1.895c1.428 0 2.39-.843 2.39-2.11 0-1.251-.953-2.103-2.39-2.103h-1.895v4.213zm0 7.646h2.018c1.667 0 2.795-.914 2.795-2.466 0-1.31-.876-2.447-2.795-2.447H98.17v4.913zm-3.171-11.86h-1.99v-2.713h6.956c4.303 0 5.675 2.58 5.675 4.456 0 1.595-.848 2.876-2.086 3.48 1.738.724 2.714 2.514 2.714 4.08 0 3.771-2.956 5.285-5.79 5.285H92.78v-2.728h2.219v-11.86zm21.477-.031c-.566-.219-1.31-.419-2.052-.419-2.123 0-2.8 1.229-2.8 2.19 0 1.252.81 1.619 1.815 1.89l1.833.515c2.251.637 4.746 1.475 4.746 5.037 0 3.266-1.966 5.646-6.318 5.646-1.685 0-3.432-.195-5.484-.957v-4.542h3.19v2.257c.809.371 1.685.443 2.58.443 1.88 0 2.709-1.01 2.709-2.31 0-.885-.438-1.518-2.49-2.113l-1.685-.49c-3.147-.91-4.219-2.281-4.219-4.938 0-2.723 1.705-5.132 6.033-5.132 1.861 0 3.718.343 5.027.91v4.103h-2.885v-2.09z"/></svg>