<svg xmlns="http://www.w3.org/2000/svg" width="128" height="64"><path d="M8.231 24.465c-4.536 0-8.224 3.688-8.224 8.224v19.024h3.9v-10.56l1.433 1.512 5.73-2.254c3.264-1.274 5.386-4.22 5.386-7.72 0-4.537-3.687-8.226-8.225-8.226zm1.46 12.497l-5.783 2.255V32.69c0-2.627 1.963-4.51 4.324-4.51 2.361 0 4.325 1.91 4.325 4.51 0 1.645-.796 3.45-2.866 4.272zm67.362-12.497c-4.536 0-8.224 3.688-8.224 8.224 0 4.537 3.688 8.225 8.224 8.225 4.537 0 8.225-3.688 8.225-8.225 0-4.536-3.688-8.224-8.225-8.224zm0 12.735c-2.493 0-4.324-1.989-4.324-4.51 0-2.52 1.884-4.51 4.324-4.51 2.494 0 4.325 1.99 4.325 4.51 0 2.521-1.831 4.51-4.325 4.51zm17.803-9.02c1.697 0 3.076.929 3.794 2.308l3.05-2.334c-1.485-2.202-3.979-3.662-6.844-3.662-4.537 0-8.225 3.688-8.225 8.225 0 4.536 3.688 8.224 8.225 8.224 2.839 0 5.358-1.46 6.844-3.661l-3.05-2.335c-.718 1.38-2.097 2.308-3.794 2.308-2.494 0-4.325-1.989-4.325-4.51 0-2.52 1.884-4.563 4.325-4.563zm-33.27 0c1.698 0 3.078.929 3.794 2.308l3.05-2.334c-1.485-2.202-3.98-3.662-6.844-3.662-4.537 0-8.225 3.688-8.225 8.225 0 4.536 3.688 8.224 8.225 8.224 2.838 0 5.36-1.46 6.845-3.661l-3.051-2.335c-.716 1.38-2.096 2.308-3.794 2.308-2.494 0-4.325-1.989-4.325-4.51 0-2.52 1.858-4.563 4.325-4.563zm-13.637-1.75c-1.327-1.38-3.078-1.963-4.909-1.963-3.82 0-7.693 3.476-7.693 8.224 0 4.749 3.872 8.224 7.693 8.224 1.831 0 3.582-.583 4.909-1.962v1.485h3.9V24.97h-3.9zM43.624 37.2c-2.493 0-4.377-1.989-4.377-4.51 0-2.52 1.937-4.51 4.377-4.51 2.494 0 4.325 1.99 4.325 4.51 0 2.521-1.83 4.51-4.325 4.51zm68.927-5.067h-1.75l6.765-7.19h-5.015l-5.465 5.89V16.507h-3.9v23.931h3.9v-4.404l2.149-2.282 4.59 6.686h4.722zm-86.597-7.668c-4.536 0-8.224 3.688-8.224 8.224 0 4.537 3.688 8.225 8.224 8.225 2.707 0 5.253-1.3 6.713-3.316l-3.131-2.176c-.372.61-1.565 1.777-3.582 1.777-1.856 0-3.37-1.114-4.005-2.732h11.86a7.89 7.89 0 00.185-1.778c.026-4.535-3.502-8.224-8.04-8.224zm-3.979 6.447c.637-1.619 2.15-2.732 3.98-2.732 1.857 0 3.263 1.114 3.847 2.732z"/><path d="M125.632 38.103c-1.3 0-2.362 1.06-2.362 2.362 0 1.299 1.06 2.36 2.362 2.36 1.3 0 2.36-1.06 2.36-2.36a2.365 2.365 0 00-2.36-2.362z" fill="#069de0"/><path d="M125.632 31.656c-1.3 0-2.362 1.06-2.362 2.362 0 1.299 1.06 2.36 2.362 2.36 1.3 0 2.36-1.06 2.36-2.36-.026-1.328-1.06-2.362-2.36-2.362z" fill="#6e55dc"/><path d="M125.632 44.55c-1.3 0-2.362 1.06-2.362 2.362 0 1.3 1.06 2.36 2.362 2.36 1.3 0 2.36-1.06 2.36-2.36a2.365 2.365 0 00-2.36-2.362z" fill="#05ac3f"/><path d="M125.632 25.182c-1.3 0-2.362 1.06-2.362 2.361 0 1.3 1.06 2.361 2.362 2.361 1.3 0 2.36-1.06 2.36-2.36-.026-1.3-1.06-2.362-2.36-2.362z" fill="#ef1541"/><path d="M125.632 18.735c-1.3 0-2.362 1.06-2.362 2.361 0 1.3 1.06 2.361 2.362 2.361 1.3 0 2.36-1.06 2.36-2.36-.026-1.3-1.06-2.362-2.36-2.362z" fill="#ff7112"/><path d="M125.632 12.287a2.367 2.367 0 00-2.362 2.362c0 1.3 1.06 2.361 2.362 2.361 1.3 0 2.36-1.06 2.36-2.36-.026-1.3-1.06-2.363-2.36-2.363z" fill="#fccc12"/></svg>