<?xml version="1.0" encoding="UTF-8" standalone="no"?>

<svg xmlns:svg="http://www.w3.org/2000/svg" xmlns="http://www.w3.org/2000/svg" version="1.1" width="128" height="64" xmlns:xlink="http://www.w3.org/1999/xlink">
	<g stroke="null">
		<g stroke="null" transform="matrix(0.8238419130266905,0,0,0.8238419130266905,229.12766247670066,335.63224156115086) ">
			<g stroke="null" fill="#000000" transform="matrix(1.25,0,0,-1.25,516.43204,730.70481) ">
				<path fill="#000000" fill-rule="nonzero" d="m-628.92029,880.73486l1.91498,0c2.96301,0 4.44403,1.35602 4.44403,4.06897c0,2.51501 -2.57599,3.77203 -5.53802,3.77203l-0.82098,0l0,-7.841zm-5.75098,-14.63702l0,26.69702l6.57196,0c6.84601,0 11.36304,-2.73798 11.36304,-8.21399c0,-2.56403 -0.84003,-4.58704 -2.52002,-6.06799c-1.68103,-1.48102 -4.01501,-2.22198 -7.00201,-2.22198l-2.66199,0l0,-10.19305l-5.75098,0z"/>
			</g>
			<path fill="#000000" fill-rule="nonzero" d="m-251.29794,-385.28876l7.14124,0l0,33.3725l-7.14124,0l0,-33.3725z"/>
			<g stroke="null" fill="#000000" transform="matrix(1.25,0,0,-1.25,573.60853,724.38906) ">
				<path fill="#000000" fill-rule="nonzero" d="m-628.92029,880.73486c-2.23999,1.99103 -4.81097,3.04999 -7.54901,3.04999c-2.86298,0 -5.13501,-0.85297 -6.815,-2.55798c-1.67999,-1.70502 -2.521,-3.98999 -2.521,-6.85199c0,-2.78802 0.77899,-5.00903 2.33502,-6.66504c1.55499,-1.65601 3.70099,-2.48297 6.44,-2.48297c3.08698,0 5.87897,1.15399 8.11896,3.21997l-0.008,-5.93896c-2.41595,-1.41901 -5.24799,-2.17303 -8.185,-2.17303c-4.28198,0 -7.77899,1.32605 -10.49298,3.97705c-2.71301,2.65198 -4.07001,6.00598 -4.07001,10.06299c0,4.008 1.35004,7.34296 4.05103,10.008c2.70099,2.66296 6.242,3.995 10.62299,3.995c2.86298,0 5.49103,-0.58099 8.08002,-1.82599l-0.00702,-5.81702z"/>
			</g>
			<g stroke="null" fill="#000000" transform="matrix(1.25,0,0,-1.25,615.26966,725.68818) ">
				<path fill="#000000" fill-rule="nonzero" d="m-628.92029,880.73486l0,-13.66498l-3.57501,0l0,13.66498l-4.08698,0l0,3.03699l11.77301,0l0,-3.03699l-4.11102,0z"/>
			</g>
			<g stroke="null" fill="#000000" transform="matrix(1.25,0,0,-1.25,630.04454,742.76981) ">
				<path fill="#000000" fill-rule="nonzero" d="m-628.92029,880.73486l-6.16699,16.70203l3.948,0l3.948,-13.57104l3.97101,13.57104l3.901,0l-6.21301,-16.70203l-3.388,0z"/>
			</g>
			<g stroke="null" fill="#000000" transform="matrix(1.25,0,0,-1.25,642.86403,715.62931) ">
				<path fill="#000000" fill-rule="nonzero" d="m-628.92029,880.73486l9.38202,-13.31799l-9.35602,-13.38l6.36798,0l9.06299,13.38l-9.13898,13.31799l-6.31799,0z"/>
			</g>
			<g stroke="null" fill="#000000" transform="matrix(1.25,0,0,-1.25,604.56541,749.00156) ">
				<path fill="#000000" fill-rule="nonzero" d="m-628.92029,880.73486l-9.16803,13.37903l9.14203,13.31897l-6.36798,0l-9.12604,-13.31897l9.20203,-13.37903l6.31799,0z"/>
			</g>
			<path fill="#000000" fill-rule="nonzero" d="m-201.4642,-351.91754l-7.14124,0l0,-33.3725l7.14124,0l0,33.3725z"/>
		</g>
	</g>
</svg>