<svg xmlns="http://www.w3.org/2000/svg" width="128" height="64"><path d="M6.798 30.46H8.77c3.052 0 4.578-1.397 4.578-4.19 0-2.59-2.653-3.886-5.704-3.886h-.846v8.076zM.875 45.536V18.038h6.77c7.05 0 11.703 2.82 11.703 8.46 0 2.642-.866 4.725-2.596 6.25-1.73 1.526-4.135 2.29-7.212 2.29H6.798v10.498H.875zm21.223-27.32h5.883V45.71H22.1V18.214zm31.804 7.04c-2.307-2.05-4.955-3.14-7.775-3.14-2.95 0-5.29.878-7.02 2.634-1.73 1.756-2.596 4.11-2.596 7.058 0 2.872.81 5.16 2.41 6.865 1.6 1.706 3.81 2.557 6.636 2.557 3.18 0 6.055-1.188 8.36-3.316l-.006 6.117c-2.49 1.47-5.406 2.24-8.43 2.24-4.41 0-8.014-1.36-10.81-4.09-2.795-2.732-4.192-6.186-4.192-10.365 0-4.13 1.39-7.563 4.172-10.31 2.78-2.74 6.43-4.113 10.94-4.113 2.95 0 5.656.598 8.322 1.88l-.01 5.99zm34.323 1.072v14.075h-3.682V26.328h-4.21V23.2H92.46v3.128h-4.235zM100.397 40.4l-6.352-17.203h4.067l4.066 13.978 4.09-13.978h4.018l-6.4 17.203h-3.49zm10.56-22.36l9.665 13.72-9.637 13.78h6.56l9.334-13.78-9.42-13.72h-6.51zm-31.55 27.494l-9.444-13.78 9.416-13.72h-6.56l-9.4 13.72 9.48 13.78h6.5zm-16.254.174H57.27V18.214h5.883v27.494z"/></svg>