<svg xmlns="http://www.w3.org/2000/svg" width="128" height="64"><g fill-rule="evenodd" stroke-width=".1" stroke="null"><path fill="#ffb202" d="M1.28 13.19v37.62h117.662L126.72 32l-7.778-18.81H1.28z"/><path fill="#fff" d="M56.06 18.913h17.17v5.723H62.603v4.416h10.63v5.723H62.6v4.58h10.63v5.722H56.06V18.913zm35.976 0v5.723h5.724v20.44h6.54v-20.44h5.724v-5.723H92.036zm-1.636 0h-9.81c-3.27 0-6.05 3.27-6.05 6.54 0 8.177 10.955 8.995 10.955 12.265 0 1.543-1.635 1.636-3.27 1.636h-7.36v5.723h11.448c3.27 0 6.132-4.088 6.132-7.36.082-7.357-11.038-8.175-11.038-11.445 0-1.636 1.635-1.636 3.27-1.636H90.4v-5.723zM19.105 45.895c-8.177 0-13.9-6.54-13.9-13.9s5.723-13.9 13.9-13.9c8.176 0 13.9 6.54 13.9 13.9 0 1.635 0 4.906-2.454 8.176l4.91 4.91h-6.87l-9.65-9.65s3.22-3.28 3.44-3.43c.113-.077 3.27 3.27 3.27 3.27.82-.817.82-3.055.82-3.27 0-6.54-6.54-7.36-7.36-7.36-2.452 0-7.36 1.637-7.36 7.36 0 1.848 1.637 7.36 7.36 7.36.818 0 1.273-.12 1.273-.12l5.186 5.188S23.2 45.9 19.11 45.9zm14.88-26.972v16.353c0 6.54 5.724 10.63 10.302 10.63 4.415 0 10.14-4.09 10.14-10.63V18.923h-6.542v15.535c0 3.27-1.635 4.906-3.598 4.906-2.126 0-3.76-1.636-3.76-4.906V18.923h-6.542z"/></g></svg>