<?xml version="1.0" encoding="UTF-8" standalone="no"?>

<svg xmlns:svg="http://www.w3.org/2000/svg" xmlns="http://www.w3.org/2000/svg" version="1.1" width="128" height="64" xmlns:xlink="http://www.w3.org/1999/xlink">
	<g stroke="null">
		<g transform="matrix(0.817621040442109,0,0,0.817621040442109,120.5717943167789,406.9136448908792) ">
			<path fill="#ffb202" fill-rule="evenodd" stroke-width="0.1" stroke-miterlimit="4" d="m-145.90062,-481.54816l0,46.01227l143.90674,0l9.51306,-23.00616l-9.51306,-23.0061l-143.90674,0z"/>
			<path fill="#ffffff" fill-rule="evenodd" stroke-width="0.1" stroke-miterlimit="4" d="m-78.90062,-474.54816l21,0l0,7l-13,0l0,5.40002l13,0l0,7l-13,0l0,5.59998l13,0l0,7l-21,0l0,-32z"/>
			<path fill="#ffffff" fill-rule="evenodd" stroke-width="0.1" stroke-miterlimit="4" d="m-34.90062,-474.54816l0,7l7,0l0,25l8,0l0,-25l7,0l0,-7l-22,0z"/>
			<path fill="#ffffff" fill-rule="evenodd" stroke-width="0.1" stroke-miterlimit="4" d="m-36.90062,-474.54816l-12,0c-4,0 -7.39999,4 -7.39999,8c0,10 13.39999,11 13.39999,15c0,1.88721 -2,2 -4,2c-2.1452,0 -7.51627,0 -9,0l0,7l14,0c4,0 7.5,-5 7.5,-9c0.10001,-9 -13.5,-10 -13.5,-14c0,-2 2,-2 4,-2c1,0 5.01294,0 7,0l0,-7z"/>
			<path fill="#ffffff" fill-rule="evenodd" stroke-width="0.1" stroke-miterlimit="4" d="m-124.10063,-441.54816c-10,0 -17,-8 -17,-17c0,-9 7,-17 17,-17c10,0 17,8 17,17c0,2 0,6 -3,10c0,0 6,6 6,6c0.23758,0 -8.39999,0 -8.39999,0c0,0 -11.79999,-11.79999 -11.79999,-11.79999c0,0 3.93073,-4.013 4.19998,-4.20001c0.13651,-0.09479 4,4 4,4c1,-1 1,-3.73706 1,-4c0,-8 -8,-9 -9,-9c-3,0 -9,2 -9,9c0,2.2597 2,9 9,9c1,0 1.55585,-0.14417 1.55585,-0.14417c0,0 6.34418,6.34418 6.34418,6.34418c0,0 -2.90002,1.79999 -7.90002,1.79999z"/>
			<path fill="#ffffff" fill-rule="evenodd" stroke-width="0.1" stroke-miterlimit="4" d="m-105.90062,-474.53589l0,20c0,8 7,13 12.60001,13c5.39999,0 12.39999,-5 12.39999,-13l0,-20l-8,0l0,19c0,4 -2,6 -4.39999,6c-2.60001,0 -4.60001,-2 -4.60001,-6l0,-19l-8,0z"/>
		</g>
	</g>
</svg>