<svg xmlns="http://www.w3.org/2000/svg" width="128" height="64" version="1.1" id="svg176"><defs id="defs31"><clipPath transform="translate(0 9)" id="clip-path"><path id="path4" d="M1058.73 670.49a203.74 203.74 0 00-52.73-35.91c52.5-213.35-37.87-444.55-237-561.65C526.12-70 213.33 11.13 70.43 254.07-72.47 497.01 9.11 809 251.58 952.71c167.19 99.08 381.76 88.61 515.07 1.47 4 4.52 8.22 8.92 12.71 13.14 82 77.15 210.95 73.24 288.1-8.73 77.15-81.97 73.24-210.95-8.73-288.1zm-376.68-56.66a199 199 0 01-272.74 70.72c-94.85-55.79-126.51-177.9-70.72-272.74 55.79-94.84 177.9-126.51 272.74-70.72 94.84 55.79 126.51 177.91 70.72 272.74z" class="cls-1"/></clipPath><clipPath transform="translate(0 9)" id="clip-path-2"><path id="path7" d="M1029.66 472.46a523.09 523.09 0 00-75.29-232.12A520.56 520.56 0 00510.8-8.15h-.5V324.1h.21A187.74 187.74 0 01606 350.18a189.9 189.9 0 0130.85 22.59 187.79 187.79 0 0143.75 58.66 189.63 189.63 0 0116.34 53.37q1.23 8.18 1.75 16.42a189 189 0 01-72.95 160.94l5.26 9.21c43-28.83 71.46-39.84 95.44-48.18 107-37.24 204.4-14.33 244.75-1.76 14.8 4.61 31 11.19 34.85 13.15l12.27-5.68h-.07a518.43 518.43 0 0011.37-74q1.13-13.92 1.48-27.93a523.13 523.13 0 00-1.43-54.51z" class="cls-1"/></clipPath><clipPath transform="translate(0 9)" id="clip-path-3"><path id="path23" d="M1021.31 1007.36q-9.12 4.95-18.67 9a215.06 215.06 0 01-83.64 16.91 217.05 217.05 0 01-39.34-3.63A213.56 213.56 0 01772.13 975a204.17 204.17 0 01-7.26-7.19l1.82-13.66 78.46-57.61c26.35-18.14 131.47-108.7 165.18 6.32 7.65 26.15 10.78 42.3 11.21 58.13.01.34.19 27.29-.23 46.37z" class="cls-1"/></clipPath><linearGradient gradientUnits="userSpaceOnUse" y2="109.7" x2="570.49" y1="699.49" x1="1083.43" id="linear-gradient"><stop id="stop10" stop-opacity=".9" stop-color="#1f1f1f" offset=".12"/><stop id="stop12" stop-opacity=".78" stop-color="#333" offset=".381"/><stop id="stop14" stop-opacity=".5" stop-color="#616161" offset=".54"/><stop id="stop16" stop-opacity=".29" stop-color="#a3a3a3" offset=".664"/><stop id="stop18" stop-opacity=".08" stop-color="#e6e6e6" offset=".787"/><stop id="stop20" stop-opacity="0" stop-color="#fff" offset=".893"/></linearGradient><linearGradient gradientUnits="userSpaceOnUse" y2="1062.85" x2="1137.73" y1="854.13" x1="717.91" id="linear-gradient-2"><stop id="stop26" offset=".213"/><stop id="stop28" stop-opacity="0" stop-color="#fff" offset=".71"/></linearGradient><style id="style2">.cls-1{fill:none}</style></defs><g id="g340" transform="translate(.01 7.291) scale(.07745)"><g transform="translate(0 -7.176) scale(.63057)" id="Gradient"><path id="path35" transform="translate(0 9)" d="M1058.73 670.49a203.74 203.74 0 00-52.73-35.91c52.5-213.35-37.87-444.55-237-561.65C526.12-70 213.33 11.13 70.43 254.07-72.47 497.01 9.11 809 251.58 952.71c167.19 99.08 381.76 88.61 515.07 1.47 4 4.52 8.22 8.92 12.71 13.14 82 77.15 210.95 73.24 288.1-8.73 77.15-81.97 73.24-210.95-8.73-288.1zm-376.68-56.66a199 199 0 01-272.74 70.72c-94.85-55.79-126.51-177.9-70.72-272.74 55.79-94.84 177.9-126.51 272.74-70.72 94.84 55.79 126.51 177.91 70.72 272.74z" fill="#8401ff" fill-opacity="1"/><g id="g45" clip-path="url(#clip-path)"><g id="g39" clip-path="url(#clip-path-2)"><path id="rect37" fill="url(#linear-gradient)" opacity=".22" d="M509.86 0h522.77v681.08H509.86z"/></g><g id="g43" clip-path="url(#clip-path-3)"><path id="rect41" fill="url(#linear-gradient-2)" opacity=".4" d="M761.64 846.75h276.62v195.76H761.64z"/></g></g></g><path class="cls-8" d="M838.04 320.437c0-70.42 56.26-126.32 127-126.32 70.74 0 127 55.9 127 126.32 0 35.93-14.88 67.87-41 90h46.82v36.3H963.99c-70.05.01-125.95-55.89-125.95-126.3zm214.88 0a87.84 87.84 0 10-87.84 87.47 87.37 87.37 0 0087.84-87.47z" id="path1061" fill="#414141" fill-opacity="1"/><path class="cls-8" d="M1249.29 446.747v-18.15c-9.08 12.34-26.5 21.06-42.83 21.06-45.38 0-75.87-31.95-75.87-79.5v-87.84h37.39v86.39c0 26.5 15.61 43.2 40.29 43.2 24 0 41-17.06 41-41.75v-87.84h37.38v164.43z" id="path1063" fill="#414141" fill-opacity="1"/><path class="cls-8" d="M1324.78 236.947a21.78 21.78 0 1121.74 21.78 21.84 21.84 0 01-21.74-21.78zm3.27 45.37h37.38v164.43h-37.38z" id="path1065" fill="#414141" fill-opacity="1"/><path class="cls-8" d="M1443.52 427.507v19.24h-37.38v-226.86h37.38v82c12.71-12.34 32.31-20.69 48.28-20.69 50.82 0 84.57 33.4 84.57 84.21 0 50.81-33.75 84.22-84.57 84.22-15.66.03-35.99-9.41-48.28-22.12zm-.36-63.15c0 26.86 21.78 49 47.91 49 26.13 0 47.55-22.14 47.55-49s-21.41-49-47.91-49c-26.19-.01-47.6 21.8-47.6 49z" id="path1067" fill="#414141" fill-opacity="1"/><path class="cls-8" d="M1608.99 236.947a21.78 21.78 0 1121.78 21.78 21.84 21.84 0 01-21.78-21.78zm3.26 45.37h37.39v164.43h-37.39z" id="path1069" fill="#414141" fill-opacity="1"/></g></svg>