<svg xmlns="http://www.w3.org/2000/svg" width="128" height="64"><path d="M.483 14.963V48.33h6.13V35.61l8.67 12.72h7.712L13.85 35.967c4.3-.532 8.743-4.29 8.743-10.34 0-5.332-3.76-10.665-11.727-10.665H.483zm6.13 6.03h4.303c2.498 0 5.47 1.274 5.47 4.925 0 3.715-2.993 4.924-5.256 4.924H6.613v-9.85zm18.09-6.03V48.33H35.66c5.255 0 7.658-1.832 9.585-4.247l2.582-3.392H58.37v7.64h6.232V14.968H57.75l-15.73 23.29C40.15 40.98 38.7 42.3 35.86 42.3h-5.026v-7.64h7.638l4.02-6.03H30.834v-7.637h11.658l4.077-6.03H24.7zM58.37 24.21v10.45h-7.034l7.035-10.45zm25.528 18.087v6.03H66.813V14.96h6.23v27.337zm20.755 6.03H86.11V14.96h6.23v27.337h9.178l6.902-10.203L96.874 14.96h7.325l7.93 11.56 7.804-11.56h7.223z" fill="#ffcf25"/></svg>