<svg xmlns="http://www.w3.org/2000/svg" width="128" height="64"><g fill="#42a769"><path fill-rule="evenodd" stroke-width="1.158" d="M-5.19-1.65h136.248v69.086H-5.19z"/><g fill="#fff"><path d="M75.312 43.385c-5.157 0-9.51-3.694-10.287-8.917h9.772c1.08 0 3.442.23 3.442.23v-4.324s-2.319.164-3.601.164h-9.613c.964-5.119 5.184-8.654 10.287-8.654 2.696 0 6.018 1.228 6.018 1.228l.06-4.55s-2.357-.892-6.078-.892c-8.594 0-16.124 6.565-16.124 14.945 0 9.049 7.53 15.165 16.124 15.165 4.05 0 6.462-1.08 6.462-1.08l-.116-4.713s-2.981 1.398-6.346 1.398m-29.261 4.284s.33-2.187.33-4.105V22.792h-1.415c-1.913 0-4.872 0-7.059.214l-.186-4.828h22.816l-.105 4.828c-2.269-.214-5.173-.214-7.14-.214h-1.738v20.772c0 1.918.389 4.105.389 4.105z"/><path d="M81.434 15.77c-1.683-.472-3.875-.795-5.722-.795-5.01 0-9.328 1.523-12.929 4.724l.06-3.551c3.815-2.593 8.145-3.76 12.869-3.76 2.072 0 3.88.285 5.777.778zM24.179 32.495H19.92v-10.72s2.072-.066 4.538-.066l1.052.05c3.963.323 5.596 2.477 5.596 5.075 0 2.915-2.296 5.108-5.596 5.579l-1.331.082m11.646 11.131l-7.93-7.64c4.888-.46 8.988-4.055 8.988-8.714 0-4.949-2.856-9.333-11.373-9.69l-1.101-.027c-5.892 0-9.942.28-9.942.28s.274 2.915.274 4.373v21.418c0 1.973-.384 4.045-.384 4.045h5.947s-.384-2.072-.384-4.428v-8.709l5.59 5.842 2.828 2.922c1.738 1.901 4.78 4.373 4.78 4.373h7.864s-3.524-2.472-5.157-4.045"/></g></g><path d="M90.072 20.512l6.975 3.673c1.718-3.074 3.328-4.29 5.28-4.29 2.415 0 4.008 2.156 4.008 3.778 0 1.815-1.942 3.093-3.479 4.309l-6.004 4.485c-3.21 2.367-6.722 6.284-6.722 10.773v4.694h24.439v-7.93h-14.143c.15-.986 2.232-2.212 3.56-3.105l5.995-4.496c2.416-1.887 4.794-4.983 4.794-8.447 0-6.528-4.423-11.831-12.502-11.831-6.75 0-10.032 4.209-12.201 8.387z" fill="#fff"/></svg>