<svg xmlns="http://www.w3.org/2000/svg" width="128" height="64"><g fill="#1076db"><path d="M46.2 41.874c-3.916 0-7.208-2.797-7.802-6.755h7.41c.819 0 2.604.173 2.604.173V32.01s-1.75.13-2.73.13h-7.284c.734-3.882 3.928-6.56 7.801-6.56 2.044 0 4.558.935 4.558.935l.045-3.452s-1.787-.677-4.603-.677c-6.52 0-12.22 4.98-12.22 11.324 0 6.863 5.701 11.498 12.22 11.498 3.062 0 4.893-.818 4.893-.818l-.088-3.57s-2.256 1.054-4.805 1.054zM24.02 45.12s.247-1.656.247-3.105V26.268h-1.065c-1.452 0-3.697 0-5.355.163l-.14-3.66H35l-.084 3.66c-1.712-.163-3.917-.163-5.41-.163h-1.313v15.747c0 1.449.29 3.106.29 3.106z"/><path d="M50.835 20.945a17.302 17.302 0 00-4.334-.602c-3.798 0-7.068 1.15-9.799 3.58l.042-2.686c2.891-1.969 6.173-2.852 9.757-2.852 1.569 0 2.934.215 4.375.591zm-34.56 21.113l-6.009-5.788c3.698-.356 6.808-3.075 6.808-6.603 0-3.752-2.165-7.077-8.617-7.345-.268-.013-.547-.02-.838-.02-4.465 0-7.529.214-7.529.214s.204 2.203.204 3.312v16.23c0 1.495-.29 3.063-.29 3.063H4.51s-.29-1.568-.29-3.356v-6.603l4.237 4.431L10.6 41.81c1.321 1.442 3.624 3.312 3.624 3.312h5.958s-2.668-1.87-3.906-3.063zm-8.828-8.435H4.22v-8.128s1.57-.045 3.44-.045c.28 0 .551.023.797.035 3 .248 4.24 1.88 4.24 3.849 0 2.204-1.744 3.872-4.24 4.228a7.74 7.74 0 01-1.01.06zM71.78 22.498c-5.89 0-11.373 4.672-11.373 11.584 0 5.235 3.647 11.533 11.411 11.533 7.335 0 11.45-6.065 11.45-11.571 0-6.566-5.38-11.546-11.488-11.546zm0 3.295c3.774 0 7.86 2.841 7.86 8.206 0 4.439-3.357 8.282-7.822 8.282-4.555 0-7.84-3.902-7.84-8.25 0-4.18 2.912-8.238 7.802-8.238zM87.781 45.1c-.512 0-.82-.293-.82-.82V23.56c0-.45.305-.82.82-.82h1.847c.419 0 .63.338 1.023.792l12.516 15.209v-15.18c0-.508.275-.821.82-.821h1.847c.494 0 .82.263.82.82v20.925c0 .31-.298.615-.615.615h-2.101c-.395 0-.594-.32-.795-.537l-12.44-15.26-.255.002V44.28c0 .646-.317.82-.82.82zm25.439 0c-1.03 0-1.847-.95-1.847-1.846V24.791c0-.96.948-2.051 2.051-2.051h13.95c.58 0 .69.187.588.712l-.346 1.863c-.085.338-.18.502-.652.502H115.68c-.558 0-.82.322-.82.82v5.334h11.147c.465 0 .41.363.304.97l-.218 1.355c-.08.362-.227.752-.771.752H114.86v6.155c0 .5.256.82.82.82h11.489c.57 0 .82.363.82.82v1.437c0 .512-.267.82-.82.82z"/></g></svg>