<svg xmlns="http://www.w3.org/2000/svg" width="128" height="64"><defs id="defs2411"><style id="style6">.fil9{fill:none;fill-rule:nonzero}.fil4{fill:#1f1a17}.fil3{fill:#255393}.fil1{fill:#b63546}.fil2{fill:#e2ac19}.fil0,.fil8{fill:#fff}.fil5,.fil8{fill-rule:nonzero}.fil5{fill:#235598}.fil6,.fil7{fill:#bd4748;fill-rule:nonzero}.fil7{fill:#edac2f}</style><defs id="defs10"><path id="XMLID_24_" d="M0 0h737.343v365.832H0z"/></defs><clipPath id="XMLID_33_"><use id="use14" width="587" height="161"/></clipPath><defs id="defs18"><path id="XMLID_23_" d="M0 0h737.343v365.832H0z"/></defs><clipPath id="XMLID_34_"><use height="161" width="587" id="use22"/></clipPath><defs id="defs26"><path id="XMLID_22_" d="M0 0h737.343v365.832H0z"/></defs><clipPath id="XMLID_35_"><use id="use30" width="587" height="161"/></clipPath><defs id="defs34"><path id="XMLID_21_" d="M32.162 78.613v160.35H618.64V78.613"/></defs><clipPath id="XMLID_36_"><use height="161" width="587" id="use38"/></clipPath></defs><g id="layer1"><path d="M1.424 44.793v-.453h4.58v.453H4.097v3.53h-.753v-3.53h-1.92zm18.434 3.53h-4.186V44.34h4.05v.453h-3.298v1.258h3.17v.46h-3.17v1.37h3.434zm13.505 0h-3.626V44.34h.752v3.53h2.87zm13.897 0h-4.19V44.34h4.052v.453h-3.3v1.258h3.17v.46h-3.17v1.37h3.435zm12.35 0h-.808l-2.065-3.983h.8l1.69 3.373 1.632-3.373h.8zm12.586-3.983v3.984h-.754V44.34zm13.056.566c-.392-.158-.672-.152-.968-.152-1.345 0-1.585.847-.913 1.098.21.082.5.148.89.197.48.08.96.18 1.44.26.51.12.97.5 1 .89.06.8-1.04 1.32-2.295 1.29-.77-.018-1.345-.08-1.866-.5-.39-.326-.408-.578-.424-.89h.696c-.01.235.12.787 1.13.908.175.02.47.04.768.02.305-.02.617-.07.826-.19.373-.22.66-.678-.035-1.006-.344-.12-.825-.196-1.22-.257-.79-.126-.406-.06-1.19-.24-.257-.06-.706-.236-.778-.734-.095-.643.545-1.287 1.963-1.287.49 0 1.06.06 1.414.207.792.333.84.84.816 1.02h-.73c.018-.234-.08-.458-.52-.644zm12.118-.566v3.984h-.752V44.34zm15.473 2.07c.008.562-.272 1.235-1.025 1.677-.28.164-.985.405-1.793.41-.81-.005-1.514-.246-1.794-.41-.75-.442-1.03-1.115-1.02-1.677.01-.564.27-1.236 1.03-1.68.28-.163.986-.403 1.795-.41.808.007 1.513.247 1.793.41.754.444 1.018 1.116 1.026 1.68zm-4.876 0c-.016.486.248.967.64 1.245.36.257.897.383 1.418.383.52 0 1.057-.126 1.416-.383.4-.278.66-.76.65-1.245.017-.487-.25-.968-.64-1.247-.36-.257-.896-.383-1.416-.383s-1.057.126-1.417.383c-.393.28-.657.76-.64 1.247zm18.225 1.914l-2.954-3.19v3.19h-.75V44.34h.888l2.922 3.223V44.34h.75v3.984z" fill="#1f1a17" fill-rule="evenodd"/><path fill="#fff" d="M47.792 19.768h30.876v15.426H47.792zm43.368-1.043h30.69v18.028H91.16z"/><path d="M120.142 31.148h-14.788V21.146H93.716V34.39h26.426v-3.242m-33.58-15.624h40.623V40.01H86.562V15.523z" fill="#2056ae" fill-rule="evenodd"/><path d="M69.216 24.345h7.598v-3.18H50.72v3.18h7.747v10.023h10.75V24.345m-25.427-8.82h40.4V40.01h-40.4V15.522z" fill="#f9a70c" fill-rule="evenodd"/><path fill="#fff" stroke-width="10.876" d="M3.322 19.202h34.953v17.16H3.322z"/><path d="M29 21.155H7.316v13.183h10.23v-4.33h2.002l5.227 4.33H35.71L29 29.77c2.37.06 4.374-1.977 4.336-4.337-.036-2.344-2-4.332-4.336-4.275M.94 15.525h40.44V40.01H.94V15.522zm16.606 8.75h5.04c1.225.423 1.3 2.21.15 2.747l-5.19.013v-2.76z" fill="#e23" fill-rule="evenodd"/></g></svg>