<svg xmlns="http://www.w3.org/2000/svg" width="128" height="64"><path clip-rule="evenodd" fill="#5b9cd4" fill-rule="evenodd" d="M.027 15.358l-.047 47.09h47.246l14.78-14.78V.579H14.806z"/><path d="M32.545 14.662c0-3.773-3.263-7.689-8.157-7.689-5.615 0-8.398 4.155-8.398 9.313 0 4.25 1.104 7.02 5.327 8.74l3.503 1.433c2.399.955 2.83 1.528 2.83 5.157 0 3.105-.24 5.063-3.55 5.063-2.496 0-3.455-1.72-3.455-3.486v-1.529H15.75v1.815c0 4.585 3.6 8.071 8.35 8.071 6.334 0 8.445-4.25 8.445-9.981 0-4.967-.816-7.689-5.134-9.313l-3.743-1.48c-2.543-1.003-2.784-1.91-2.784-4.538 0-2.244.624-4.394 3.311-4.394 2.495 0 3.456 1.863 3.456 4.108v1.098h4.894v-2.388zM50.417 31.569h-4.856v1.671c0 2.675-1.715 3.439-3.047 3.439-2.191 0-2.953-1.528-2.953-3.486V15.808c0-2.292.572-3.964 3-3.964 1.857 0 3 1.624 3 3.535v1.623h4.856v-1.91c0-4.728-3.333-8.119-7.809-8.119-4.713 0-7.904 3.39-7.904 7.833v18.721c0 6.209 4.286 8.023 8 8.023 4.332 0 7.713-3.677 7.713-7.88zM57.961 41.264V7.259h-4.834v34.005z" fill="#fff"/><path clip-rule="evenodd" fill="#5b9cd4" fill-rule="evenodd" d="M126.974 26.41v-4.584H118.5v-9.982h9.7V7.26h-14.507v34.005H128.2v-4.872H118.5v-9.981zM110.864 31.569h-4.807v1.671c0 2.675-1.696 3.439-3.016 3.439-2.168 0-2.922-1.528-2.922-3.486V15.808c0-2.292.566-3.964 2.97-3.964 1.837 0 2.968 1.624 2.968 3.535v1.623h4.807v-1.91c0-4.728-3.299-8.119-7.73-8.119-4.664 0-7.822 3.39-7.822 7.833v18.721c0 6.209 4.242 8.023 7.918 8.023 4.288 0 7.634-3.677 7.634-7.88zM92.449 41.443V7.44H87.61v20.488h-.094L80.213 7.44h-4.649v34.004h4.838v-20.44h.095l7.399 20.44zM72.23 26.41v-4.584h-7.845v-9.982h9.07V7.26H59.578v34.005h13.877v-4.872h-9.07v-9.981zM128.008 48.54v14.535h-2.324V48.54zM93.541 53.33h2.266v1.242c.61-.98 1.68-1.59 2.935-1.59 2.563 0 3.505 2.079 3.505 3.634v6.46h-2.266v-5.653c0-1.247-.81-2.214-2.03-2.214-1.204 0-2.144.955-2.144 2.498v5.368H93.54V53.33zM72.8 48.54h2.267v5.772c.661-.831 1.7-1.33 2.847-1.33 2.54 0 3.531 2.079 3.531 3.634v6.46H79.2v-5.653c0-1.247-.804-2.214-2.013-2.214-1.142 0-2.043.874-2.12 2.301v5.565h-2.265zM104.322 53.33h2.267v1.242c.609-.98 1.679-1.59 2.935-1.59 2.563 0 3.505 2.079 3.505 3.634v6.46h-2.266v-5.653c0-1.247-.811-2.214-2.03-2.214-1.205 0-2.144.955-2.144 2.498v5.368h-2.267zM123.95 60.398l-1.996-.663c-.373 1.168-1.29 1.738-2.514 1.738-1.398 0-2.486-1.168-2.618-2.518l-.008-.073h7.183c.045-.946.063-1.926-.26-2.829-.69-1.92-2.232-3.015-4.297-3.015-2.987 0-5 2.308-5 5.227 0 2.87 2.063 5.227 5 5.227 2.143 0 3.777-1.082 4.51-3.094zm-7.112-3.324c.254-1.236 1.25-2.11 2.522-2.11 1.288 0 2.214.86 2.406 2.113l.012.077h-4.957zM71.473 60.306l-2.149-.767c-.4 1.085-1.305 1.783-2.487 1.783-1.673 0-2.708-1.482-2.708-3.057 0-1.577 1.041-3.058 2.708-3.058 1.15 0 2.05.692 2.464 1.738l2.144-.765c-.752-1.957-2.497-3.142-4.608-3.142-2.923 0-4.986 2.36-4.986 5.227 0 2.864 2.05 5.227 4.986 5.227 2.151 0 3.903-1.174 4.636-3.186zM83.131 56.206c.597-2.465 2.463-3.148 4.18-3.148 2.488 0 4.172.945 4.172 3.785v6.232h-2.097v-1.198c-.622.938-1.59 1.633-3.086 1.633-1.943 0-3.306-1.36-3.306-2.88 0-1.105.332-2.09 1.457-2.65 1.01-.492 2.285-.63 3.62-.782.833-.057 1.274-.305 1.05-1.176-.187-.72-.855-1.044-1.81-1.044-.995 0-1.71.577-2.01 1.758zm6.011 2.396c-.71.278-1.76.33-2.55.48-.762.145-1.127.662-1.152 1.184-.031.63.207 1.268 1.495 1.268 1.75-.093 2.185-1.466 2.185-2.06z"/></svg>