<svg xmlns="http://www.w3.org/2000/svg" width="128" height="64"><g stroke="null"><path fill="#b11016" d="M22.53 53.428c-5.15-.604-9.422-2.574-13.113-6.046-.573-.54-1.008-1.033-.968-1.097.04-.065.26-.118.49-.118.73 0 2.22-.82 3.09-1.705 2.37-2.408 2.88-6.363 1.27-9.764-.9-1.883-1.84-2.86-5.13-5.335-3.13-2.356-3.87-3.367-3.96-5.413-.05-1.05-.02-1.246.26-1.76.4-.747.84-1.07 1.58-1.155 1.48-.167 2.45 1.225 2.45 3.535v.89h4.89l-.076-1.47c-.095-1.853-.386-3.167-.98-4.42-.505-1.06-1.684-2.188-2.245-2.487-.56-.3-.756-.384-1.24-.52l-.63-.18.63-.65c2.506-2.55 5.52-4.293 8.84-5.52 2.61-.872 4.99-1.205 7.843-1.095 5.39.206 10.507 2.31 14.172 5.827 1.302 1.25 1.53 1.608 1.027 1.608-1.05 0-3.2 1.833-4.236 3.604-3.548 6.083-3.37 17.68.353 23.136.943 1.384 2.317 2.58 3.46 3.013l.58.22-1.22 1.15c-2.89 2.717-6.686 4.633-10.81 5.453-1.378.27-5.098.45-6.34.31zM21.35 39.94v-6.357h5.375V46.3h5.113V17.07h-5.112v11.667H21.35V17.07h-5.24V46.3h5.242v-6.36zm32.714 5.473c-.044-.27-.874-6.478-1.845-13.796-.98-7.317-1.8-13.496-1.84-13.73l-.08-.426h4.67l.91 8.39c.502 4.62.944 8.39.98 8.39.038 0 .628-3.76 1.31-8.35l1.244-8.35 2.324-.034c1.777-.026 2.33.004 2.33.126 0 .3 2.24 16.543 2.285 16.59.09.09.194-.694 1.12-8.424.51-4.252.954-7.865.99-8.03l.064-.293h22.54v28.44h-5.11V21.79h-4.85v24.117H76v-24.12h-2.23c-1.505 0-2.226.047-2.226.143 0 .076-.44 3.482-.975 7.57-.54 4.083-1.22 9.313-1.517 11.62-.293 2.307-.574 4.61-.61 4.77-.19.012-.072.014-2.34.014-1.542 0-2.286.006-2.285.01-.004-.003-.168-.854-.258-1.582-.288-2.36-2.258-16.446-2.306-16.494-.103-.106-.36 1.606-1.83 12.233-.4 2.89-.755 5.68-.792 5.85-.01 0-.094-.01-2.283-.01h-2.21l-.08-.49zm39.64-13.73V17.46h6.894l1.154 7.243c.634 3.983 1.177 7.267 1.206 7.297.03.03.073.03.097 0 .025-.03.56-3.18 1.19-7.002.632-3.82 1.18-7.08 1.216-7.242l.07-.295h6.66v28.45h-4.59V35.47c0-5.744-.03-10.41-.07-10.373-.04.04-.83 4.607-1.77 10.15-.93 5.54-1.71 10.513-1.75 10.675-.28-.01-.14-.01-1.44-.01-1.19 0-1.28-.007-1.43-.02-.033-.126-.813-4.982-1.73-10.533-.92-5.55-1.72-10.15-1.78-10.22-.06-.07-.11 4.57-.11 10.32V45.9h-3.8V31.68zm21.104 0V17.46h11.667v4.327h-6.554v7.34h4.85v4.588h-4.85v7.865h6.82v4.324h-11.93v-14.22zM5.875 41.32c-1.093-.578-2.186-2.397-2.733-4.547-.295-1.16-.665-4.013-.665-5.127v-.694l.784.653c.44.36 1.39 1.08 2.13 1.603 2.88 2.032 3.81 3.302 3.83 5.225.01 1.45-.44 2.416-1.37 2.887-.63.323-1.36.323-1.97 0zm36.374-.25c-3.04-1.38-4.24-11.212-2.05-16.83.45-1.17 1.16-2.197 1.8-2.59.56-.344 1.41-.377 1.99-.076 1.62.838 2.91 5.204 2.91 9.818 0 4.87-1.35 8.934-3.24 9.744-.55.236-.78.225-1.42-.067z"/><path d="M43.66 581.546c-21.226-2.49-38.84-10.61-54.055-24.922-2.36-2.22-4.155-4.255-3.99-4.522.166-.267 1.083-.486 2.04-.486 3.026 0 9.15-3.377 12.746-7.028 9.78-9.925 11.89-26.223 5.24-40.245-3.68-7.76-7.56-11.79-21.13-21.988-12.92-9.71-15.98-13.877-16.35-22.313-.19-4.323-.07-5.127 1.07-7.25 1.65-3.076 3.49-4.417 6.528-4.76 6.11-.688 10.087 5.05 10.103 14.577l.007 3.64H6.01l-.31-6.08c-.386-7.64-1.587-13.06-4.04-18.23-2.074-4.37-6.26-9.01-9.247-10.246-.932-.387-1.695-.917-1.695-1.178 0-.26-.182-.42-.405-.356-.224.066-1.577-.213-3.008-.62l-2.602-.743 2.602-2.666c5.663-5.802 19.118-15.916 20.247-15.22.25.157.45.03.45-.275 0-.82 9.27-5.095 15.73-7.255 10.77-3.605 20.58-4.977 32.34-4.527 22.225.85 43.31 9.524 58.42 24.02 5.363 5.15 6.304 6.624 4.23 6.624-4.32 0-13.194 7.554-17.452 14.856-14.62 25.07-13.888 72.866 1.46 95.358 3.892 5.705 9.553 10.635 14.263 12.42l2.39.91-5.032 4.736c-11.9 11.2-27.55 19.1-44.55 22.48-5.67 1.126-21 1.873-26.13 1.272zm-4.863-55.592V499.75h22.15v52.407h21.07v-120.48h-21.07v48.085h-22.15V431.68h-21.61v120.476h21.61v-26.202zm444.745 24.22c-6.312-3.11-6.045-12.383.432-14.974 2.84-1.137 4.047-1.1 6.75.208 5.816 2.816 6.137 11.065.557 14.336-2.62 1.536-5.2 1.68-7.73.43zm8.89-2.52c1.576-1.718 1.803-2.33 1.803-4.87 0-2.13-.302-3.29-1.128-4.342-3.637-4.623-10.415-3.73-12.718 1.676-.99 2.316-.94 3.863.2 5.98 1.54 2.86 3.69 3.992 7.11 3.74 2.54-.188 3.16-.473 4.72-2.183zm-8.462-4.952v-4.592h2.197c1.208 0 2.666.25 3.24.56 1.25.668 1.362 2.517.228 3.77-.73.807-.73 1.115.007 2.88.454 1.085.598 1.974.32 1.974-.278 0-.786-.85-1.13-1.89-.524-1.588-.877-1.892-2.203-1.892-1.45 0-1.58.16-1.58 1.89 0 1.04-.25 1.892-.54 1.892-.32 0-.54-1.89-.54-4.592zm5.383-1.313c.746-1.4-.59-2.74-2.72-2.74-1.448 0-1.582.16-1.582 1.89 0 1.79.1 1.89 1.88 1.89 1.3 0 2.05-.32 2.43-1.05zm-315.724 7.12c-.19-1.12-3.61-26.71-7.61-56.87-4-30.16-7.41-55.63-7.58-56.59l-.31-1.76h19.26l3.767 34.57c2.073 19.02 3.896 34.578 4.05 34.578.155 0 2.586-15.498 5.403-34.44l5.128-34.44 9.59-.15c7.315-.11 9.59.01 9.59.52 0 1.25 9.224 68.19 9.424 68.39.372.372.802-2.865 4.62-34.726 2.096-17.53 3.933-32.42 4.08-33.09l.265-1.215h92.903v117.24h-21.07V451.12h-19.99v99.408h-21.07v-99.4h-9.19c-6.21 0-9.183.19-9.183.587 0 .32-1.81 14.36-4.022 31.2-2.21 16.84-5.017 38.398-6.23 47.906-1.21 9.51-2.325 17.836-2.47 18.505-.256 1.202-.35 1.214-9.69 1.214-10.846 0-9.597.773-10.485-6.48-1.19-9.72-9.31-67.784-9.508-67.98-.433-.43-1.49 6.624-7.55 50.424-1.644 11.887-3.115 22.16-3.27 22.827-.275 1.2-.383 1.218-9.405 1.218h-9.127l-.33-2.027zm163.39-56.6V433.3h28.41l4.75 29.85c2.61 16.416 4.85 29.95 4.97 30.073.12.124.3.124.4 0 .1-.124 2.31-13.11 4.91-28.86 2.6-15.747 4.85-29.18 5.01-29.848l.28-1.215h27.43v117.236h-18.91v-43.04c0-23.673-.13-42.91-.29-42.75-.16.16-3.44 18.98-7.285 41.825-3.847 22.85-7.124 42.08-7.283 42.75-.276 1.17-.526 1.22-5.915 1.22-4.9 0-5.66-.12-5.89-.94-.15-.52-3.364-19.66-7.147-42.54-3.783-22.88-7.084-41.83-7.334-42.112-.25-.283-.457 18.863-.457 42.545v43.06h-15.66v-58.62zm86.98 0V433.3h48.08v17.828h-27.01v30.255h19.99v18.91h-19.99v32.413h28.09v17.83H424v-58.618zm-449 39.72c-4.51-2.38-9.01-9.88-11.27-18.74-1.22-4.79-2.746-16.548-2.746-21.14v-2.86l3.232 2.693c1.78 1.48 5.73 4.45 8.78 6.604 11.864 8.375 15.694 13.61 15.76 21.537.045 5.98-1.84 9.956-5.65 11.9-2.607 1.33-5.602 1.33-8.12 0zm149.92-1.03c-12.51-5.68-17.44-46.21-8.45-69.37 1.87-4.83 4.82-9.05 7.44-10.67 2.3-1.42 5.81-1.56 8.21-.318 6.67 3.45 12.01 21.446 12.007 40.47-.003 20.07-5.57 36.82-13.35 40.16-2.268.97-3.21.93-5.864-.28z"/></g></svg>