<?xml version="1.0" encoding="UTF-8" standalone="no"?>

<svg xmlns:svg="http://www.w3.org/2000/svg" xmlns="http://www.w3.org/2000/svg" version="1.1" width="128" height="64" xmlns:xlink="http://www.w3.org/1999/xlink">
	<g stroke="null">
		<path stroke="null" fill="#b11016" d="m22.53103,53.42813c-5.14975,-0.60378 -9.4231,-2.57407 -13.11441,-6.04661c-0.57249,-0.53854 -1.00809,-1.03218 -0.96804,-1.09702c0.04008,-0.06485 0.26274,-0.11788 0.4948,-0.11788c0.7343,0 2.22016,-0.81929 3.09232,-1.70512c2.37082,-2.40788 2.88485,-6.36206 1.26925,-9.76396c-0.894,-1.88247 -1.83406,-2.86068 -5.12669,-5.33475c-3.13555,-2.35606 -3.87627,-3.36686 -3.96704,-5.41343c-0.04651,-1.04896 -0.01788,-1.2439 0.25848,-1.75916c0.40014,-0.74607 0.84641,-1.07141 1.58356,-1.15451c1.48236,-0.16707 2.44707,1.22474 2.45115,3.5363l0.00161,0.88476l2.44438,0l2.44437,0l-0.07428,-1.4746c-0.09332,-1.85267 -0.38476,-3.16758 -0.98006,-4.42152c-0.50304,-1.05958 -1.68262,-2.18682 -2.2434,-2.48521c-0.56075,-0.29839 -0.75561,-0.38395 -1.23922,-0.52184l-0.63127,-0.17997l0.63127,-0.64692c2.50567,-2.55037 5.51834,-4.29411 8.83799,-5.5199c2.61335,-0.87391 4.99327,-1.20679 7.84652,-1.09758c5.39153,0.20641 10.50805,2.31035 14.1729,5.82794c1.30173,1.24944 1.52999,1.60646 1.02708,1.60646c-1.04814,0 -3.20163,1.83301 -4.23482,3.60458c-3.54688,6.08174 -3.36912,17.67768 0.35462,23.13479c0.94411,1.38354 2.31762,2.57969 3.46039,3.01346l0.57923,0.21987l-1.22086,1.14927c-2.88705,2.71776 -6.68427,4.63363 -10.80853,5.45334c-1.37696,0.27367 -5.09705,0.45509 -6.34124,0.3092l0,0l-0.00006,0zm-1.17968,-13.48758l0,-6.35715l2.68704,0l2.68704,0l0,6.35715l0,6.35717l2.55596,0l2.55598,0l0,-14.61491l0,-14.61489l-2.55598,0l-2.55596,0l0,5.83285l0,5.83284l-2.68704,0l-2.68704,0l0,-5.83284l0,-5.83285l-2.62151,0l-2.62149,0l0,14.61489l0,14.61491l2.62149,0l2.62151,0l0,-6.35717zm32.71231,5.47241c-0.04374,-0.27034 -0.87378,-6.47839 -1.8445,-13.79568c-0.97073,-7.31728 -1.79806,-13.49583 -1.8385,-13.73014l-0.07355,-0.42599l2.33567,0l2.33567,0l0.91438,8.38871c0.50292,4.61382 0.94508,8.38876 0.98258,8.3888c0.03754,0.00009 0.62737,-3.76009 1.31077,-8.35594l1.24255,-8.35604l2.32658,-0.03581c1.77429,-0.02727 2.32658,0.00271 2.32658,0.12557c0,0.30319 2.23768,16.54432 2.28611,16.59276c0.09061,0.09062 0.19507,-0.69475 1.12057,-8.4248c0.50924,-4.25339 0.9549,-7.86617 0.99038,-8.02836l0.06451,-0.29491l11.26997,0l11.26997,0l0,14.22166l0,14.22167l-2.55597,0l-2.55596,0l0,-12.05893l0,-12.05892l-2.42489,0l-2.4249,0l0,12.05892l0,12.05893l-2.55596,0l-2.55598,0l0,-12.05893l0,-12.05892l-2.22828,0c-1.50712,0 -2.22827,0.04574 -2.22827,0.14143c0,0.07781 -0.43919,3.48411 -0.97596,7.56961c-0.5368,4.08547 -1.21728,9.31562 -1.51219,11.62254c-0.29492,2.30695 -0.57635,4.60803 -0.61115,4.77023c-0.19136,0.01127 -0.07285,0.01402 -2.34034,0.01402c-1.5423,0 -2.28692,0.00597 -2.2858,0.00887c-0.004,-0.00216 -0.1682,-0.85338 -0.25732,-1.58176c-0.28869,-2.35919 -2.25855,-16.44555 -2.30647,-16.49345c-0.1049,-0.10492 -0.36117,1.60695 -1.83128,12.23349c-0.39893,2.88365 -0.75585,5.68002 -0.79316,5.84222c-0.0085,-0.00108 -0.09326,-0.00935 -2.28205,-0.00935l-2.21426,0l-0.07956,-0.49152zm39.64125,-13.73014l0,-14.22166l3.44673,0l3.44676,0l1.15318,7.24191c0.63422,3.98306 1.17712,7.26647 1.20644,7.2965c0.02928,0.03005 0.07307,0.03005 0.09732,0c0.02431,-0.03004 0.56015,-3.18075 1.1908,-7.00159c0.63065,-3.82085 1.17755,-7.07972 1.21532,-7.24192l0.06868,-0.29491l3.32822,0l3.32817,0l0,14.22166l0,14.22167l-2.29382,0l-2.29379,0l0,-10.44234c0,-5.74329 -0.0318,-10.41054 -0.07068,-10.37167c-0.03886,0.03885 -0.83423,4.60519 -1.76749,10.14741c-0.93327,5.54221 -1.71669,10.51375 -1.75522,10.67596c-0.27774,-0.01012 -0.13933,-0.00937 -1.4467,-0.00937c-1.18803,0 -1.27968,-0.00632 -1.42926,-0.01874c-0.0354,-0.12614 -0.81543,-4.98179 -1.73343,-10.53282c-0.91794,-5.55106 -1.71873,-10.14885 -1.77953,-10.21733c-0.06079,-0.06848 -0.1105,4.57651 -0.1105,10.32218l0,10.44671l-1.9006,0l-1.90059,0l0,-14.22167l0,-0.00001l0,0.00001zm21.10313,0l0,-14.22166l5.83282,0l5.83287,0l0,2.16275l0,2.16275l-3.27689,0l-3.27689,0l0,3.6701l0,3.67009l2.4249,0l2.4249,0l0,2.29383l0,2.2938l-2.4249,0l-2.4249,0l0,3.93227l0,3.93224l3.40796,0l3.40797,0l0,2.16277l0,2.16273l-5.96394,0l-5.96391,0l0,-14.22167zm-108.93319,9.63699c-1.09242,-0.57753 -2.18572,-2.39644 -2.73268,-4.54643c-0.29533,-1.16084 -0.66567,-4.01342 -0.66567,-5.12732l0,-0.69371l0.78445,0.65283c0.43145,0.35905 1.38994,1.08017 2.12999,1.60253c2.87926,2.03229 3.80855,3.30215 3.82388,5.22547c0.01157,1.45083 -0.4462,2.41532 -1.37006,2.88665c-0.63267,0.32277 -1.35936,0.32277 -1.96992,-0.00002zm36.37374,-0.25105c-3.03376,-1.37791 -4.23135,-11.21111 -2.04967,-16.82962c0.45456,-1.1706 1.16934,-2.19583 1.80476,-2.58854c0.55823,-0.34497 1.41073,-0.37755 1.99359,-0.07615c1.61875,0.83709 2.91437,5.20327 2.91338,9.81796c-0.00101,4.87016 -1.35202,8.93353 -3.23952,9.74346c-0.55021,0.2361 -0.77872,0.2253 -1.42254,-0.0671z"/>
		<path stroke="null" fill="#000000" d="m43.65953,581.54608c-21.22591,-2.48865 -38.83953,-10.60962 -54.05423,-24.92255c-2.35957,-2.2196 -4.15501,-4.25446 -3.98989,-4.52167c0.16513,-0.26715 1.08289,-0.48572 2.03944,-0.48572c3.02655,0 9.15093,-3.37695 12.7457,-7.02814c9.7719,-9.92468 11.89054,-26.22272 5.23151,-40.24451c-3.68486,-7.75903 -7.55956,-11.79099 -21.13083,-21.98846c-12.92393,-9.71112 -15.97704,-13.87741 -16.35114,-22.31262c-0.19176,-4.32367 -0.07371,-5.12708 1.06542,-7.25104c1.64927,-3.07504 3.48864,-4.41595 6.52697,-4.75842c6.10985,-0.68863 10.08623,5.04807 10.10298,14.57565l0.00644,3.64676l10.07506,0l10.07508,0l-0.30613,-6.07794c-0.38459,-7.63605 -1.58593,-13.05594 -4.03959,-18.22427c-2.07338,-4.36737 -6.26146,-9.00693 -9.24668,-10.24338c-0.93247,-0.38626 -1.69542,-0.91605 -1.69542,-1.17712c0,-0.26102 -0.18234,-0.4201 -0.40518,-0.35327c-0.22286,0.06677 -1.57609,-0.21249 -3.00718,-0.62054l-2.60195,-0.74176l2.60195,-2.66647c5.66276,-5.80301 19.1178,-15.91614 20.24717,-15.21817c0.24941,0.15424 0.45346,0.02914 0.45346,-0.27707c0,-0.82037 9.26669,-5.09598 15.72718,-7.25632c10.77163,-3.60211 20.58102,-4.97424 32.34137,-4.52393c22.22251,0.85077 43.31144,9.52255 58.41702,24.02133c5.36536,5.14984 6.30618,6.62134 4.23335,6.62134c-4.32022,0 -13.19624,7.55499 -17.4548,14.85709c-14.61933,25.06732 -13.8867,72.86273 1.46165,95.35559c3.89134,5.7027 9.55257,10.63275 14.26279,12.42059l2.38745,0.90643l-5.03209,4.73688c-11.89967,11.2019 -27.55084,19.09857 -44.54996,22.47729c-5.67545,1.12799 -21.00864,1.87567 -26.13692,1.27441l0,0zm-4.86234,-55.59222l0,-26.20251l11.0753,0l11.07531,0l0,26.20251l0,26.20258l10.53503,0l10.53503,0l0,-60.23874l0,-60.23889l-10.53503,0l-10.53503,0l0,24.04147l0,24.04144l-11.07531,0l-11.0753,0l0,-24.04144l0,-24.04147l-10.80515,0l-10.80517,0l0,60.23889l0,60.23874l10.80517,0l10.80515,0l0,-26.20258zm444.74522,24.22095c-6.31268,-3.11127 -6.04541,-12.38348 0.43158,-14.97516c2.84137,-1.13678 4.04669,-1.09955 6.74939,0.2088c5.81708,2.81604 6.13788,11.06488 0.55743,14.33527c-2.6217,1.53638 -5.20398,1.6803 -7.7384,0.43109zm8.89069,-2.51941c1.57538,-1.71912 1.80182,-2.33154 1.80182,-4.87274c0,-2.12946 -0.30157,-3.28998 -1.12817,-4.34088c-3.6366,-4.62299 -10.41455,-3.72968 -12.71802,1.67657c-0.98663,2.31549 -0.93365,3.86237 0.20471,5.97888c1.53796,2.85931 3.69324,3.9928 7.1123,3.7403c2.54303,-0.18774 3.16095,-0.47302 4.72736,-2.18213zm-8.46307,-4.95355l0,-4.5921l2.19659,0c1.20807,0 2.66675,0.25165 3.24152,0.55914c1.24969,0.66888 1.36096,2.51813 0.22705,3.77124c-0.73059,0.80719 -0.7298,1.11499 0.0072,2.87897c0.45392,1.08618 0.59772,1.97498 0.31958,1.97498c-0.27808,0 -0.78638,-0.85083 -1.12958,-1.89093c-0.52393,-1.58728 -0.87756,-1.89087 -2.20294,-1.89087c-1.44421,0 -1.57886,0.16119 -1.57886,1.89087c0,1.0401 -0.24323,1.89093 -0.54028,1.89093c-0.31787,0 -0.54028,-1.89093 -0.54028,-4.59222zm5.38251,-1.31317c0.74609,-1.39392 -0.58936,-2.73877 -2.71979,-2.73877c-1.44806,0 -1.58215,0.16034 -1.58215,1.89093c0,1.79712 0.09271,1.89093 1.87183,1.89093c1.29657,0 2.04346,-0.32056 2.43011,-1.04309zm-315.72371,7.12103c-0.18036,-1.11426 -3.6015,-26.70233 -7.60255,-56.86224c-4.00102,-30.15982 -7.41106,-55.62631 -7.57779,-56.59207l-0.30318,-1.75583l9.62701,0l9.62704,0l3.76886,34.57614c2.07283,19.01691 3.89536,34.57626 4.05,34.57651c0.15463,0.00024 2.58575,-15.49832 5.40256,-34.44104l5.12148,-34.44144l9.58954,-0.14749c7.31317,-0.11261 9.5896,0.01016 9.5896,0.51755c0,1.24969 9.22304,68.19131 9.42271,68.39108c0.3735,0.37335 0.80399,-2.86359 4.61868,-34.72485c2.09894,-17.5314 3.93594,-32.42233 4.08212,-33.09091l0.26584,-1.21555l46.45193,0l46.45193,0l0,58.61813l0,58.61795l-10.53503,0l-10.53503,0l0,-49.70367l0,-49.70386l-9.99481,0l-9.99475,0l0,49.70386l0,49.70367l-10.53503,0l-10.53503,0l0,-49.70367l0,-49.70386l-9.18439,0c-6.21194,0 -9.18442,0.18872 -9.18442,0.58304c0,0.32062 -1.81015,14.3606 -4.02267,31.19992c-2.21246,16.83923 -5.01721,38.39655 -6.23282,47.90515c-1.21558,9.50842 -2.32739,17.83527 -2.47073,18.50378c-0.25815,1.20428 -0.34854,1.21564 -9.69449,1.21564c-10.84372,0 -9.59416,0.77277 -10.48209,-6.48309c-1.18999,-9.724 -9.30922,-67.78421 -9.50667,-67.98178c-0.4324,-0.43228 -1.48863,6.62341 -7.54803,50.42337c-1.64438,11.88568 -3.11545,22.15735 -3.26917,22.82587c-0.27631,1.2016 -0.38448,1.21564 -9.40611,1.21564l-9.12659,0l-0.32793,-2.02594zm163.39091,-56.59201l0,-58.61813l14.20663,0l14.20654,0l4.75308,29.84927c2.61423,16.41708 4.8519,29.95059 4.9726,30.0744c0.12073,0.12381 0.30133,0.12381 0.40134,0c0.10001,-0.12381 2.30865,-13.11023 4.90802,-28.85883c2.59943,-15.74854 4.85358,-29.18073 5.00925,-29.8493l0.28299,-1.21555l13.71802,0l13.71805,0l0,58.61813l0,58.61795l-9.45453,0l-9.45456,0l0,-43.04065c0,-23.67242 -0.1311,-42.90958 -0.29126,-42.74927c-0.16019,0.16025 -3.43851,18.98138 -7.28525,41.82489c-3.84662,22.84369 -7.12384,42.08087 -7.28262,42.74939c-0.27649,1.16437 -0.52597,1.21564 -5.9147,1.21564c-4.89688,0 -5.66034,-0.12256 -5.8912,-0.9455c-0.14587,-0.51996 -3.3609,-19.66528 -7.14447,-42.54529c-3.78366,-22.88004 -7.08432,-41.83093 -7.3349,-42.1131c-0.25046,-0.28232 -0.45544,18.86313 -0.45544,42.54529l0,43.05859l-7.83377,0l-7.8338,0l0,-58.61795l0,0zm86.98163,0l0,-58.61813l24.0415,0l24.04153,0l0,8.91425l0,8.91431l-13.50653,0l-13.50647,0l0,15.12726l0,15.12717l9.99481,0l9.99484,0l0,9.45453l0,9.45462l-9.99484,0l-9.99481,0l0,16.2077l0,16.2077l14.04681,0l14.04669,0l0,8.91425l0,8.91431l-24.58176,0l-24.58179,0l0,-58.61795zm-448.99427,39.72098c-4.50269,-2.38037 -9.00892,-9.87744 -11.26337,-18.73914c-1.21726,-4.78467 -2.74374,-16.54236 -2.74374,-21.13345l0,-2.85934l3.23333,2.69086c1.77833,1.47992 5.72898,4.45233 8.7792,6.60516c11.8677,8.37659 15.69789,13.61078 15.76109,21.53821c0.04771,5.97974 -1.83912,9.9552 -5.647,11.89789c-2.6077,1.33032 -5.60297,1.33032 -8.11952,-0.00018zm149.92306,-1.03467c-12.50435,-5.67938 -17.44046,-46.20923 -8.4482,-69.36722c1.87354,-4.82501 4.81976,-9.05066 7.43883,-10.66931c2.30087,-1.42194 5.81461,-1.55634 8.21701,-0.31396c6.67207,3.45032 12.0123,21.44647 12.00824,40.46704c-0.00435,20.0737 -5.57274,36.82175 -13.35251,40.16006c-2.26781,0.97296 -3.20963,0.92865 -5.86337,-0.27661l0,0z"/>
	</g>
</svg>