<?xml version="1.0" encoding="UTF-8" standalone="no"?>

<svg xmlns:svg="http://www.w3.org/2000/svg" xmlns="http://www.w3.org/2000/svg" version="1.1" width="128" height="64" xmlns:xlink="http://www.w3.org/1999/xlink">
	<g stroke="null">
		<path fill="#e22739" fill-rule="evenodd" d="m4.41446,39.64391c1.29015,0 2.2029,-1.13217 2.2029,-2.77776c0,-3.41846 -2.99279,-4.0767 -6.18744,-6.96417c-0.04827,5.84955 1.75969,9.74193 3.98454,9.74193"/>
		<path fill="#e22739" fill-rule="evenodd" d="m33.56523,30.12139c0,-4.45408 1.29893,-8.92133 3.66859,-8.92133c2.81287,0 3.52377,6.89395 3.52377,9.07053c0,4.77442 -1.50078,9.09247 -3.52377,9.09247c-2.4311,0 -3.66859,-4.54185 -3.66859,-9.24167"/>
		<path fill="#e22739" fill-rule="evenodd" d="m28.97511,30.54705c0,-8.07879 2.99279,-13.17794 6.56045,-13.70892c-3.56766,-4.38826 -9.5313,-6.73598 -14.94641,-6.73598c-5.95925,0 -11.31293,2.58907 -15.00784,6.70087c3.52377,0.69334 4.72615,3.64664 4.72615,8.21482l-4.30927,0c0,-2.69439 -0.5617,-4.08986 -2.15902,-4.08986c-0.71529,0 -1.2726,0.36423 -1.6061,0.98297c-0.04388,0.10532 -0.09215,0.21064 -0.13604,0.31596c-0.12287,0.34228 -0.19308,0.746 -0.19308,1.18921c0,5.58626 9.17146,5.30541 9.17146,13.89762c0,3.35263 -2.56713,6.48146 -5.46338,6.48146c3.80462,4.1513 9.00032,6.63944 14.97712,6.63944c5.81883,0 11.05403,-2.45742 14.73577,-6.40247c-3.39212,-0.85132 -6.34981,-5.73107 -6.34981,-13.48512m-1.92206,13.31398l-4.61206,0l0,-11.47969l-4.98067,0l0,11.47969l-4.62523,0l0,-26.49193l4.62084,0l0,10.67664l4.98506,0l0,-10.67664l4.61206,0l0,26.49193z"/>
		<path fill="#e22739" fill-rule="nonzero" d="m47.30486,17.60124l0.99613,11.09791c0.17554,1.78163 0.28085,3.56326 0.35106,5.34489c0.10971,-2.45303 0.42566,-4.30926 0.60558,-5.60819l1.48762,-10.83461l4.43214,0l1.49201,10.83461c0.14042,1.11462 0.45638,2.97085 0.56608,5.60819c0.10532,-2.59785 0.25013,-4.37948 0.35545,-5.34489l1.34719,-11.09791l3.58081,0l-3.5106,26.20229l-4.36193,0l-1.52272,-12.06333c-0.28524,-2.29945 -0.46077,-4.48919 -0.53537,-6.56922c0,2.48814 -0.39056,4.63839 -0.6714,6.56922l-1.70265,12.06333l-4.43214,0l-2.87431,-26.20229l4.39704,0z"/>
		<path fill="#e22739" fill-rule="nonzero" d="m70.28223,44.28405c-4.64717,0 -6.59556,-4.19518 -6.59556,-12.98925c0,-9.46108 2.27312,-14.21357 6.9159,-14.21357c3.97137,0 6.13918,3.15516 6.13918,9.20218l0,0.5968l-4.75688,0l0,-1.22432c0,-3.12005 -0.28085,-4.64278 -1.45251,-4.64278c-1.66753,0 -1.87816,3.34385 -1.87816,10.61519c0,5.5687 0.24573,8.16655 1.91328,8.16655c1.27698,0 1.80795,-1.85624 1.80795,-5.67841l0,-0.373l4.29172,0c-0.1097,7.05193 -2.19851,10.5406 -6.38491,10.5406"/>
		<path fill="#e22739" fill-rule="nonzero" d="m81.38277,17.60124l6.42002,0l3.22538,26.20229l-4.32683,0l-0.7065,-5.60381l-3.58521,0l-0.6363,5.60381l-3.93188,0l3.54133,-26.20229zm4.1118,16.2936l-1.3077,-11.61572l-1.31648,11.61572l2.62418,0z"/>
		<path fill="#e22739" fill-rule="nonzero" d="m96.38271,35.93539c-0.0351,0.36862 -0.0351,0.70212 -0.0351,1.04002c0,2.11075 0.6363,3.19026 1.95278,3.19026c1.09706,0 1.87817,-0.89081 1.87817,-2.41354c0,-1.59732 -0.88644,-2.59785 -2.37844,-4.04159c-1.23749,-1.22871 -2.72949,-2.41792 -3.93626,-4.16006c-1.02686,-1.52272 -1.59295,-3.30436 -1.59295,-5.1957c0,-4.30488 2.6944,-7.23623 6.27521,-7.23623c3.54572,0 5.84956,2.63734 5.84956,7.27573c0,0.25452 -0.03072,0.51781 -0.03072,0.81622l-4.25661,0c0.0351,-0.40811 0.07022,-0.81622 0.07022,-1.18922c0,-1.82113 -0.6758,-2.78216 -1.84307,-2.78216c-0.95664,0 -1.77286,0.96103 -1.77286,2.22485c0,1.26381 0.6714,2.29945 1.94839,3.52816c1.70264,1.62804 3.15515,2.81726 3.97137,3.89677c1.48763,1.92644 2.26874,3.78268 2.26874,6.04702c0,4.45408 -2.5847,7.35033 -6.67016,7.35033c-4.0767,0 -6.09529,-2.78216 -6.09529,-8.35086l4.39703,0z"/>
		<path fill="#e22739" fill-rule="nonzero" d="m107.05408,17.60124l10.74684,0l0,4.33999l-5.91975,0l0,6.08652l4.46724,0l0,4.30927l-4.46724,0l0,7.16164l6.13039,0l0,4.30488l-10.95748,0l0,-26.20229z"/>
		<path fill="#e22739" fill-rule="nonzero" d="m127.61834,21.85478l-1.82552,0c0,0 0,23.91162 0,25.61427l-3.13321,0l0,-27.15454l-1.4613,0c0,0 0,18.11034 0,27.15454l-66.49089,0l0,1.82552l66.49089,0l0,3.14199l-62.40103,0l0,1.46129l63.86233,0l0,-4.60328l4.95872,0l0,-27.43979z"/>
	</g>
</svg>