<svg xmlns="http://www.w3.org/2000/svg" width="128" height="64"><g stroke="null" fill="#e22739"><path fill-rule="evenodd" d="M4.414 39.644c1.29 0 2.203-1.132 2.203-2.778 0-3.418-2.992-4.077-6.187-6.964-.048 5.85 1.76 9.742 3.984 9.742m29.15-9.524c0-4.453 1.3-8.92 3.67-8.92 2.813 0 3.524 6.894 3.524 9.07 0 4.775-1.5 9.093-3.524 9.093-2.43 0-3.67-4.542-3.67-9.242"/><path fill-rule="evenodd" d="M28.975 30.547c0-8.08 2.993-13.178 6.56-13.71-3.567-4.387-9.53-6.735-14.946-6.735-5.96 0-11.32 2.59-15.01 6.7 3.52.694 4.72 3.648 4.72 8.216H5.99c0-2.695-.56-4.09-2.157-4.09-.716 0-1.273.364-1.607.983-.044.11-.09.22-.136.32a3.57 3.57 0 00-.192 1.19c0 5.59 9.17 5.31 9.17 13.9 0 3.35-2.566 6.48-5.46 6.48 3.803 4.15 9 6.64 14.975 6.64a20.082 20.082 0 0014.735-6.4c-3.39-.85-6.35-5.73-6.35-13.486m-1.92 13.31h-4.61V32.38h-4.98v11.48h-4.625V17.37h4.62v10.676h4.986V17.37h4.614v26.49z"/><path d="M47.305 17.6l.996 11.1c.18 1.78.29 3.562.36 5.344.11-2.453.425-4.31.605-5.608l1.48-10.836h4.433l1.492 10.836c.14 1.114.452 2.97.56 5.608.107-2.598.25-4.38.357-5.345l1.347-11.1h3.58l-3.51 26.2h-4.362l-1.52-12.066a75.65 75.65 0 01-.536-6.57c0 2.49-.39 4.64-.67 6.57L50.214 43.8h-4.432l-2.875-26.2h4.397zm22.977 26.684c-4.647 0-6.595-4.195-6.595-12.99 0-9.46 2.273-14.213 6.916-14.213 3.97 0 6.14 3.16 6.14 9.21v.597h-4.758V25.66c0-3.12-.28-4.644-1.453-4.644-1.667 0-1.878 3.344-1.878 10.615 0 5.57.246 8.17 1.913 8.17 1.277 0 1.808-1.854 1.808-5.68v-.37h4.292c-.11 7.05-2.198 10.54-6.385 10.54"/><path d="M81.383 17.6h6.42l3.225 26.204H86.7l-.705-5.604H82.41l-.637 5.604H77.84L81.384 17.6zm4.112 16.295L84.187 22.28 82.87 33.894h2.625zm10.888 2.04c-.035.37-.035.703-.035 1.04 0 2.11.636 3.19 1.952 3.19 1.097 0 1.88-.89 1.88-2.413 0-1.597-.888-2.598-2.38-4.04-1.237-1.23-2.73-2.42-3.936-4.162a9.233 9.233 0 01-1.593-5.195c0-4.305 2.7-7.236 6.28-7.236 3.55 0 5.85 2.63 5.85 7.27 0 .252-.03.52-.03.814h-4.26c.04-.41.07-.817.07-1.19 0-1.82-.67-2.78-1.84-2.78-.955 0-1.77.96-1.77 2.223 0 1.264.67 2.3 1.947 3.53 1.704 1.63 3.156 2.816 3.972 3.896 1.487 1.924 2.27 3.78 2.27 6.045 0 4.454-2.587 7.35-6.67 7.35-4.08 0-6.097-2.78-6.097-8.35h4.397zm10.67-18.335H117.8v4.34h-5.92v6.088h4.468v4.31h-4.467v7.16h6.14v4.306h-10.96V17.6zm20.565 4.255h-1.825V47.47h-3.133V20.314h-1.462V47.47h-66.49v1.825h66.49v3.142h-62.4v1.46h63.862v-4.602h4.958v-27.44z"/></g></svg>