<svg xmlns="http://www.w3.org/2000/svg" width="128" height="64"><g stroke="null"><path fill="#b11016" d="M22.53 53.428c-5.15-.604-9.422-2.574-13.113-6.046-.573-.54-1.008-1.033-.968-1.097.04-.065.26-.118.49-.118.732 0 2.22-.82 3.09-1.705 2.37-2.408 2.885-6.363 1.27-9.764-.895-1.883-1.835-2.86-5.128-5.335-3.13-2.356-3.873-3.367-3.963-5.413-.046-1.05-.018-1.246.26-1.76.4-.747.845-1.07 1.582-1.155 1.483-.167 2.447 1.224 2.45 3.536l.003.89h4.89l-.076-1.474c-.094-1.852-.385-3.166-.98-4.42-.504-1.06-1.683-2.187-2.244-2.486-.56-.3-.756-.385-1.24-.52l-.63-.18.63-.65c2.506-2.55 5.52-4.294 8.84-5.52 2.61-.873 4.99-1.206 7.843-1.096 5.39.206 10.507 2.31 14.172 5.827 1.302 1.25 1.53 1.608 1.027 1.608-1.05 0-3.2 1.833-4.236 3.604-3.546 6.083-3.37 17.68.355 23.136.943 1.384 2.317 2.58 3.46 3.013l.58.22-1.22 1.15c-2.89 2.717-6.686 4.633-10.81 5.453-1.378.275-5.098.456-6.34.31zM21.35 39.94v-6.357h5.375V46.3h5.113V17.07h-5.112v11.667H21.35V17.07h-5.24V46.3h5.242v-6.36zm32.714 5.473c-.044-.27-.874-6.478-1.845-13.796-.978-7.317-1.8-13.496-1.84-13.73l-.08-.426h4.673l.915 8.39c.503 4.62.945 8.39.982 8.39.038 0 .628-3.76 1.31-8.35l1.244-8.357 2.324-.036c1.777-.026 2.33.004 2.33.126 0 .302 2.24 16.543 2.285 16.59.09.09.195-.694 1.12-8.424.51-4.254.955-7.867.99-8.03l.065-.295h22.54v28.443h-5.11v-24.12h-4.85v24.118h-5.11v-24.12h-2.23c-1.506 0-2.227.047-2.227.143 0 .077-.44 3.483-.975 7.57-.537 4.084-1.217 9.314-1.512 11.62-.295 2.308-.576 4.61-.61 4.77-.192.013-.074.015-2.34.015-1.544 0-2.288.006-2.287.01-.004-.003-.168-.854-.258-1.582-.288-2.36-2.258-16.446-2.306-16.494-.105-.106-.36 1.606-1.83 12.233-.4 2.883-.757 5.68-.794 5.842-.01 0-.094-.01-2.283-.01H54.14l-.08-.49zm39.64-13.73V17.46h6.894l1.154 7.243c.634 3.983 1.177 7.267 1.206 7.297.03.03.073.03.097 0 .025-.03.56-3.18 1.19-7.002.632-3.82 1.18-7.08 1.216-7.242l.07-.295h6.66v28.45h-4.59V35.47c0-5.744-.03-10.41-.07-10.373-.04.04-.832 4.607-1.77 10.15-.93 5.54-1.71 10.513-1.75 10.675-.28-.01-.14-.01-1.446-.01-1.19 0-1.28-.007-1.43-.02-.036-.126-.816-4.982-1.734-10.533-.92-5.55-1.72-10.15-1.78-10.218-.06-.07-.11 4.574-.11 10.32v10.445h-3.8v-14.22zm21.104 0V17.46h11.667v4.327h-6.554v7.34h4.85v4.588h-4.85v7.865h6.82v4.324h-11.93v-14.22zM5.875 41.32c-1.093-.578-2.186-2.397-2.733-4.547-.295-1.16-.665-4.013-.665-5.127v-.694l.784.653c.438.36 1.39 1.08 2.13 1.603 2.88 2.032 3.81 3.302 3.83 5.225.01 1.45-.444 2.416-1.37 2.887-.63.323-1.36.323-1.97 0zm36.374-.25c-3.04-1.38-4.24-11.212-2.05-16.83.45-1.17 1.162-2.197 1.8-2.59.56-.344 1.41-.377 1.99-.076 1.62.838 2.916 5.204 2.915 9.818 0 4.87-1.35 8.934-3.24 9.744-.55.236-.78.225-1.42-.067z"/><path d="M43.66 581.546c-21.226-2.49-38.84-10.61-54.055-24.922-2.36-2.22-4.155-4.255-3.99-4.522.166-.267 1.083-.486 2.04-.486 3.026 0 9.15-3.377 12.746-7.028 9.778-9.925 11.89-26.223 5.238-40.245-3.685-7.76-7.56-11.79-21.13-21.988-12.925-9.71-15.978-13.877-16.352-22.313-.19-4.323-.073-5.127 1.067-7.25 1.65-3.076 3.488-4.417 6.526-4.76 6.11-.688 10.086 5.05 10.102 14.577l.007 3.64H6.01l-.31-6.08c-.386-7.636-1.587-13.056-4.04-18.224-2.074-4.367-6.26-9.007-9.247-10.243-.932-.387-1.695-.917-1.695-1.178 0-.26-.182-.42-.405-.355-.224.066-1.577-.213-3.008-.62l-2.602-.743 2.602-2.667c5.663-5.803 19.118-15.917 20.247-15.22.25.156.45.03.45-.276 0-.82 9.27-5.094 15.73-7.254 10.77-3.603 20.58-4.975 32.34-4.525 22.225.85 43.31 9.525 58.42 24.02 5.363 5.15 6.304 6.625 4.23 6.625-4.32 0-13.194 7.555-17.452 14.857-14.62 25.068-13.888 72.864 1.46 95.356 3.892 5.703 9.553 10.633 14.263 12.42l2.39.907-5.032 4.737c-11.9 11.2-27.55 19.1-44.55 22.477-5.673 1.127-21.006 1.874-26.134 1.273zm-4.863-55.592V499.75h22.15v52.407h21.07v-120.48h-21.07v48.085h-22.15V431.68h-21.61v120.476h21.61v-26.202zm444.745 24.22c-6.312-3.11-6.045-12.383.432-14.974 2.84-1.137 4.047-1.1 6.75.208 5.816 2.816 6.137 11.065.557 14.336-2.62 1.536-5.2 1.68-7.732.43zm8.89-2.52c1.576-1.718 1.803-2.33 1.803-4.87 0-2.13-.302-3.29-1.128-4.342-3.637-4.623-10.415-3.73-12.718 1.676-.99 2.316-.94 3.863.2 5.98 1.54 2.86 3.69 3.992 7.11 3.74 2.543-.188 3.16-.473 4.727-2.183zm-8.462-4.952v-4.592h2.197c1.208 0 2.666.25 3.24.56 1.25.668 1.362 2.517.228 3.77-.73.807-.73 1.115.007 2.88.454 1.085.598 1.974.32 1.974-.278 0-.786-.85-1.13-1.89-.524-1.588-.877-1.892-2.203-1.892-1.45 0-1.58.16-1.58 1.89 0 1.04-.25 1.892-.54 1.892-.32 0-.54-1.89-.54-4.592zm5.383-1.313c.746-1.4-.59-2.74-2.72-2.74-1.448 0-1.582.16-1.582 1.89 0 1.792.1 1.89 1.878 1.89 1.297 0 2.044-.32 2.43-1.047zm-315.724 7.12c-.188-1.12-3.61-26.71-7.61-56.87-4-30.16-7.41-55.625-7.578-56.59l-.303-1.755h19.26l3.767 34.575c2.073 19.02 3.896 34.578 4.05 34.578.155 0 2.586-15.498 5.403-34.44l5.127-34.44 9.59-.15c7.313-.11 9.59.01 9.59.52 0 1.25 9.222 68.19 9.422 68.39.372.372.802-2.865 4.62-34.726 2.096-17.53 3.933-32.42 4.08-33.09l.265-1.215h92.905V550.53h-21.07v-99.407h-19.99v99.408h-21.07v-99.404h-9.19c-6.21 0-9.183.19-9.183.583 0 .32-1.81 14.36-4.023 31.2-2.212 16.84-5.017 38.397-6.232 47.905-1.21 9.51-2.323 17.835-2.47 18.504-.254 1.203-.35 1.215-9.69 1.215-10.844 0-9.595.772-10.483-6.483-1.19-9.723-9.31-67.784-9.508-67.98-.433-.43-1.49 6.624-7.55 50.424-1.644 11.886-3.115 22.158-3.27 22.826-.275 1.2-.383 1.215-9.405 1.215h-9.126l-.33-2.026zm163.39-56.598V433.3h28.41l4.75 29.85c2.614 16.416 4.852 29.95 4.973 30.073.12.124.3.124.4 0 .1-.124 2.31-13.11 4.908-28.86 2.6-15.747 4.855-29.18 5.01-29.848l.283-1.215h27.436v117.236h-18.91v-43.04c0-23.673-.13-42.91-.29-42.75-.16.16-3.44 18.98-7.285 41.825-3.847 22.85-7.124 42.08-7.283 42.75-.276 1.17-.526 1.22-5.915 1.22-4.898 0-5.66-.12-5.89-.944-.148-.52-3.363-19.664-7.146-42.544-3.783-22.88-7.084-41.83-7.334-42.113-.25-.284-.457 18.862-.457 42.544v43.06h-15.66v-58.62zm86.98 0V433.3h48.08v17.828h-27.01v30.255h19.99v18.91h-19.99v32.413h28.093v17.83H424v-58.618zm-449 39.72c-4.503-2.38-9.01-9.876-11.263-18.737-1.218-4.786-2.744-16.544-2.744-21.135v-2.86l3.232 2.693c1.78 1.48 5.73 4.452 8.78 6.605 11.865 8.375 15.695 13.61 15.76 21.537.046 5.98-1.84 9.956-5.648 11.9-2.608 1.33-5.603 1.33-8.12 0zm149.923-1.033c-12.505-5.68-17.44-46.21-8.45-69.368 1.875-4.825 4.82-9.05 7.44-10.67 2.3-1.42 5.814-1.556 8.217-.313 6.672 3.45 12.012 21.447 12.008 40.47-.003 20.07-5.572 36.82-13.35 40.16-2.268.97-3.21.93-5.864-.28z"/></g></svg>