<svg xmlns="http://www.w3.org/2000/svg" width="128" height="64"><defs><clipPath id="a"><path d="M1603 12h605.48v323H1603zm0 0"/></clipPath><clipPath id="b"><path d="M266 15h712v343.55H266zm0 0"/></clipPath></defs><path d="M57.573 21.873c.14-.01.184.077.347.044 0 .203-.353.133-.347-.044M59.485 22.004c-.02.14-.066.252-.26.217.01-.15.129-.19.26-.217M46.968 29.045c.132.065-.036.19 0 .304-.14-.012-.103-.286 0-.304M46.534 30.175c.155.09.1.39.304.434-.222.148-.351-.169-.304-.434M47.533 30.175c.18.052-.033.148-.043.26-.175-.046-.046-.227.043-.26M46.925 30.566c.217-.063.212.223.043.217-.036-.05-.057-.116-.043-.217M46.1 30.696h.13c-.085.302.186.248.13.522-.27.008-.172-.35-.26-.522M47.012 31.478c.09-.018.115.03.173.044.01.155-.062.227-.217.217-.031-.132.045-.158.044-.26M45.577 31.522c.14-.038.09.113.174.13-.134.04-.166.182-.347.174.008-.15.153-.165.173-.304M47.446 32c.095.006.094.11.087.217-.129.01-.153-.155-.087-.217" fill="#ca1e23" fill-rule="evenodd"/><path d="M57.92 40.04c.125.014.306-.297.13-.304.012.156-.13.16-.13.304zm8.04-.043c.064-.11.238-.11.174-.348-.175.028-.461-.056-.564.044.132.1.252.211.39.304zm-6.257-.13c.1-.005.238-.192.13-.261-.042.088-.09.172-.13.26zm-1.087-.957c-.008.153.147.143.173.261h-.173v.26c-.132.179.022-.06.043-.086.206-.254.553-.77.522-.87-.162.15-.219.612-.565.435zm4.607-.13c.223-.066.179-.401.304-.565h-.391c.047.17-.1.535.087.565zm-3.042-.913c.024-.162.325-.467.26-.434-.111.092-.41.226-.26.434zm.738-1.086c-.288.305.094-.014 0 0zm1.739-2c-.026.442.732.852 1.13.87.322.014.657-.2.956-.174.305.027.214.145.391.13.453-.198 1.085-.497 1.39-1 .42-.687.261-1.863.261-3.042 0-.79.164-1.67.044-2.13-.081-.308-.565-.641-.609-.912-.35.048-.535-.287-.825-.435-.72-.365-1.838-.313-2.608-.086.033 2.125.09 4.228.087 6.388-.047.243-.204.156-.217.391zM58.18 22.786c-.058-.014-.083-.062-.174-.043-.011.127.169.167.174.043zm-.565-.26c.105.223.113-.15 0 0zm.956.043h.087v-.174h-.087v.174zm1.348-.217c.036-.05.057-.117.043-.218h-.173c-.035.15.04.191.13.218zm.304-.305c.262.074.261.013.565.13-.01-.383-.436-.408-.565-.13zm.608-.13c.112.047.07-.27.13-.13.152-.03.157.152.088.217.077.102.338.184.217.348.14.053.033-.141.174-.087-.005.078.053.091.043.174.907.23 2.692-.061 3.738.173.096.024.062-.083.13-.086 1.984.577 4.006 1.18 5.346 2.52.426.426.749.988 1.044 1.565.297.584.584 1.271.651 1.955.023.233-.015.473 0 .696.044.656.131 1.201.174 1.956.219 3.856-.909 6.974-3.52 8.475-.113-.062-.2-.148-.305-.218-.183.049-.566-.102-.608.087.07.192.484.037.695.087v.174c-.133.203-.41.22-.608.304-.572.245-1.195.562-1.826.783v-.13c-.054-.107-.126.13-.217.13-1.143-.16-2.36.22-3.39.043-.178-.03-.312-.2-.478-.217-.36-.037-.774.27-1.086.217-.203-.035-.352-.291-.478-.391-.25.042-.272.332-.478.391-.43.123-1.038-.239-1.566-.217-.32.013-.48.209-.782.217-.05-.219.151-.343.261-.478.294-.36.633-.742.913-1.173.352.048.304-.305.696-.218-.023-.299-.249.045-.348-.087-.002-.19.108-.268.174-.39-.111.077-.197.179-.391.173-.09.694-.624.941-.87 1.478-.1.014-.167-.007-.217-.044-.12.098-.127.308-.218.435-.157-.03-.186-.19-.434-.13.051-.602-.116-.986-.217-1.435 0-.16.152-.166.217-.26.029-.684-.44-1.459-.087-2.043.184-.04.044.245.217.217.069-.157-.2-.35-.347-.435v-3.042c0-1.02-.107-2.079 0-2.999.031-.27.201-.524.217-.782.043-.715-.501-1.525-.13-2.173-.045-.17-.19-.33-.218-.522-.069-.473.185-1.004.174-1.564-.012-.62-.167-1.14-.217-1.695.398-.237.1-.777 0-1.13.213-.011.378.027.478.13a1.229 1.229 0 010-.478c-.076-.036-.277.194-.478.044-.023-.183.076-.243.087-.392h.347c.087.1-.01.049-.043.131.362.203.517.017.695.217.13-.189.239-.155.521-.13-.013-.091-.25-.133 0-.13-.078-.206-.228.027-.39 0 .01-.19-.314-.21-.174-.392.22-.003.22.214.347.304.036-.109.199-.091.348-.087.097.367.45.477.74.653.066-.155-.149-.027-.131-.13.112-.076.072-.306.26-.305-.01-.063-.13-.015-.13-.087.017-.157.238-.11.174-.348.18.05.405.05.478-.043.154.128.775-.04.608.304" fill="#ca1e23" fill-rule="evenodd"/><g clip-path="url(#a)" transform="translate(.02 21.613) scale(.05794)"><path d="M2113.969 119.266c.52.59 4.18 1.671 4.5 0-2.04.004-3.508-3.153-4.5 0zm6.75 2.25c2.68 2.777 8.972 4.379 12 2.254-2.91-1.094-5.988-2.012-8.25-3.754-.11-.996 3.05-2.262.75-3-2 1.007-2.23 3.773-4.5 4.5zm-14.25-3.75c-.707 2.879 5.86-2.993.75 0-.07.039-.738-.051-.75 0zm-17.258 1.5c1.309-.692 4.027.027 3.758-2.25-2.36-.356-3.07.937-3.758 2.25zm-93.012 54.007c6.77-.656 12.14-6.941 19.5-6.75 2.211-6.046 7.66-8.84 12.762-12 5.23-14.175 14.789-32.597 3.75-45.007-11.18-12.559-34.871-8.762-54.762-6.75-2.918 13.086-2.16 29.84-2.25 45.754-.32 2.015 2.262 2.578 3 4.5.301.792-1.46.847-1.5 1.503 0-.046 1.461 1.348 1.5 1.5 1.711 7.122-1.05 8.684-2.25 14.25 7.832-.199 13.742 3.637 20.25 3zm135.02-84.011c-3.117 4.21 1.25 2.144 0 0zm-9 15.754c2.91-6.004-3.117-12.274 1.5-15.754-2.29.547-2.207-1.293-4.5-.75-.75 5.812.062 12.386 3 16.504zm6-19.504c2.16-.383 5.742-3.215 3.75-5.25-.098 2.898-3.04 2.957-3.75 5.25zm-306.79-5.25h3.75c.243-3.516-3.468-2.008-3.75 0zm6.75-3.75c-.327-1.719-4.327-3.602-6-1.5 1.81.242 3.981 3.949 6 1.5zm311.29-4.5c-1.528-1.223-3.059-2.438-5.25-3-.45 2.738 3.73 4.71 5.25 3zm-19.5 9.75c3.472-4.922-3.89-8.774-1.5-17.254-2.77.984-1.438 5.828-1.5 9.004-.11 5.375.46 11.418-.75 14.25 4.36-.899 8.36-6.125 9-8.25-1.258 1.742-3.43 5.277-5.25 2.25zm-291.04-15.754c.7-2.051 2.301-3.195 3-5.25-2.16.133-4.73 3.715-3 5.25zm12.75-8.25c-1.6 2.32-7.109 8.152-6 8.25 1.63-1.121 1.75-3.75 4.5-3.75-2.148 5.902 5.192 8.625 3.75 18.004 3.41-1.293.942-5.63.75-8.25-.378-5.196-.75-10.016-.75-15.004-1.71.21-2.82-.18-3-1.5.583-6.086-1.5-10.672-4.5-15-1.62 6.637 3.821 11.601 0 15.75 2.372-.121 4.532-.028 5.25 1.5zm-28.5-20.254c4.95-.55 4.47-3.52 2.25-6.75-.109 2.894-2.538 3.469-2.25 6.75zm30-10.5c.95-2.524-3.8-3.102-4.5-1.5 1.571.433 2.141 1.86 4.5 1.5zm-18.75-4.5c2.34 1.402 5.962 1.535 8.25 3 .551 2.047-1.488 1.512-1.5 3 3.41.164 3.04-3.461 4.5-5.25-2.738-1.176-9.37-3.313-11.25-.75zm384.051 72.008v.754c-24.628 1.867-50.351 2.652-75.761 3.75 10.453 61.453-16.68 102.789-52.508 125.265 15.308 27.192 30.23 54.305 45.008 81.012 4.91 8.879 10.75 18.309 13.5 28.504-14.43.715-30.59-.75-46.5-.75-16.84 0-35.27 2.672-47.258-.75-18.54-5.29-26.031-29.48-33.012-46.508-7.437-18.152-16.61-36.129-39.75-37.504-3.758 2.992-4.14 9.363-3.75 16.504-1.597 4.344 5.34.152 3.75 4.5.281 17.281-1.328 32.672-.75 50.254-.12 2.117 2.121 1.883 3 3 2.43 2.363-1.96.562-2.25 2.25 4.16-.164 2.781 5.223 3 9.004-31.11.394-63.86-.852-93.758.75.887-19.356-2.16-38.406-3-57.758-.863-19.41-3.152-38.898-2.25-58.508 1.77-39.148 1.309-78.668-.75-118.515-8.672-.41-16.93-.75-25.511-.75-8.871 0-23.739-2.645-29.25 0-6.559 3.144-19.711-.594-28.508 0-6.5.437-10.774 1.043-17.25.75-1.781-.082-3.692.91-5.25.75-4.403-.457-8.192-2.274-12.75-2.25-7.742.035-15.723 4.207-23.262 0-3.531.437-5.11 3.972-8.25.75-5.531 1.18-11.512.464-21.75 1.5-1.02 10.015-4.582 21.367-3 31.504 37.961 2.41 80.16 4.265 117.77.75-1.961 5.296.37 11.52.75 18 .398 7.003.36 14.398.75 21.753.742 14.07 4.11 29.016-.75 40.508-4.578.078-6.38-2.629-9.75-3.75-.02 1.98.691 4.7-2.25 3.75-2.16-1.344-5.961-1.043-8.258-2.25-.961 3.621-5.082 1.723-5.25-1.5.098-1.66 3.18-.32 4.5-.75-2.133-3.832-6.531 2.242-10.5 1.5-1.852-.426-2.094.215-3.75.75-1.8.574-3.832 2.239-5.25 2.25-2.344.016-2.262-3.597-4.5-3.75-2.89-.203-1.953 4.465-5.25 3.75-.633-2.676-3.871-2.676-4.5 0-2.781-.226-2.703-3.304-6.75-2.25-4.133 2.293-6.871 2.274-11.25 0-.91 4.094-8.453 1.555-12.762 2.25-2.808.742-1.629-3.687-3.75-1.5-2.32-.078-3.582.914-5.25 1.5-2.398.332-1.219-4.097-3.75-1.5-7.308.93-14.75 1.742-21 3.75 2.86.477 1.04 4.84.75 6.75-1.058 7.098-2.89 17.149-.75 24.754 5.2 2.711 12.418 5.305 18.75 5.25 4.2-.035 8.38-2.074 12.75-2.25 9.012-.363 23.54 3.531 29.262 1.5.207-.074.27-1.277.75-1.5.668-.312 2.238.016 3 0 4.617-.101 9.5 1.918 14.25 2.25 13.258.93 27.008-.691 41.258 0-.5 26.754 1 55.508-.75 81.012-8.532-.465-17.84.621-25.508 0-2.692-.219-5-1.574-7.5-1.5-2.41.07-4.942 1.508-7.5 1.5-5.992-.02-12.461-1.938-18.75-2.25-10.621-.531-21.184.476-30.762 0-4.87-.242-9.691-1.934-14.25-1.5-4.75.453-8.61 3.48-12.75 3.75-2.66.172-5.48-1.54-8.25-1.5-1.18.015-2.27 1.328-3 1.5-1.62.379-3.762.125-5.25 0-7.71-.66-14.59-5.598-20.25-9.004 1.3 7.668-2.68 7.969-8.262 7.504-1-.082-.918-1.344-1.5-1.5-1.449-.39-1.828 1.523-2.25 1.5-4.488-.254-9.046-1.176-11.25-2.25-1.109.824-3.789 2.047-6 2.25-1.02.094-.738-1.43-2.25-1.5-1.027-.047-2.27 1.531-3 1.5-2.039-.086-4.539-1.445-6.75-1.5-2.976-.078-5.367 1.797-7.5 1.5-2.687-.379-7.629-2.336-7.5-6.004-3.398-1.145.391 4.902-3 3.754-3.117-2.5-2.796-4.504-3-8.254-.059-1.047 1.301-.906 1.5-1.5.32-.957-.77-2.137-.75-2.25.5-4.25-.976-8.402-.75-13.5.16-3.738 1.461-7.191 1.5-11.25.082-9.527-1.5-19.277-1.5-29.258 0-14.308 1.5-28.676 1.5-45.754 0-6.047 1.25-12.578-1.5-18.004 1.121-2.347 1.371-4.601 1.5-7.5.051-1.148-1.457-1.875-1.5-3-.039-.988 1.473-2.808 1.5-3.75.16-6.156-.699-13.05 0-19.504.301-2.847 2.172-6.128 2.25-9 .102-3.82-1.968-8.242-2.25-12.003-.789-10.594-.859-22.739 0-32.254.172-1.938 1.454-3.758 1.5-5.25.062-2.079-.738-3.989-.75-6 0-.18 1.41-1.125 1.5-2.25.282-3.868-3.257-6.852-1.5-9.754h24c-1.367-6.477 1.461-13.14 1.5-18.75.012-1.676-1.187-2.125-1.5-3.754-.75-4 1.153-5.813.75-8.25-1.359-8.36.782-16.16.75-24.004-.02-6.215-1.449-12.567-.75-18.75 14.653-2.664 28.93.387 39.762.75 1.371.043 1.84-1.496 2.25-1.5 1.219-.024.52 1.672 2.25 1.5.149-.016 1.961-1.45 2.25-1.5 1.418-.25 2.11.758 3.75.75 4.578-.027 8.7-.863 12.75-.75 3.02.082 5.942 1.34 9 1.5 1.59.082.942-1.317 1.5-1.5 1.41-.465 1.899 1.531 2.25 1.5 2.5-.25 3.461-1.54 6-1.5 2.23.031 3.719 1.683 6 1.5 2.3-.188 3.762-1.504 6-1.5 6.238.008 12.75 1.223 19.512 1.5 25.039 1.016 47.558-1.293 72.758.75-5.461 2.473.832 7.117.75 12.75-.72-5.52 2.23-6.918 3.75-8.25 1.398-1.227-3.239-1.192-.75-4.5 8.98 1.27 20.89-.39 28.5 2.25.77 2.644-.72 4.734-.75 6.75-.078 4.816.539 12.41 3 18.004-6.18 9.207-.16 24.601-4.5 33.004 3.52 2.218 1.53 6.625 1.5 11.25h46.511c2.168-22.832.598-49.403 2.25-72.758 25.668-2.145 58.7-1.5 86.258-1.5 10.192 0 20.621-1.367 29.25-.75 5.121.363 10.332 3.976 15.012 3.75 4.367-.215 8.187-4.406 12-4.5-.79 8.781 10.8 5.195 15.75 8.25 3.578 1.074-.582-5.578 3-4.5 11.848 1.238 25.808 5.598 34.508 9 2.96 1.16 6.082 1.851 9 3 15.23 6.016 33.02 20.32 36.75 34.504.652 2.472 1.75 3.086-.75 5.254 7.68 1.07 6.832 15.8 9.75 23.25 20.96.547 40.582 2.433 61.511 3" fill="#ca1e23" fill-rule="evenodd"/></g><g clip-path="url(#b)" transform="translate(.02 21.613) scale(.05794)"><path d="M828.29 171.023v2.25c-.606-.394-1.22-.78-2.25-.75.14-.605.75-.746.75-1.5zm1.5-35.253c-.642 3.859-1.77 7.23-3 10.5-.286 2.285 2.726 1.273 3 3-3.833 2.171-3.774 8.23-7.5 10.503.32 1.676 3.694.301 5.25.75-1.466 1.536-5.036.965-6.75 2.25-.673 2.422 2.444 1.055 3 2.25-5.356 2.207-1.56 4.696-4.505 8.25 1.512 1.493 2.098 3.907 4.504 4.5 1.113-.632 1.086-2.414 1.5-3.75 5.152 4.618 3 14.961 3 23.254 0 8.883 1.32 18.883 0 26.254-1.633 9.102-11.644 23.992-18.754 29.254-6.34 4.695-13.937 4.5-25.504 4.5-13.82 0-20.66-.062-26.254-8.25-8.386-12.281-11.734-35.101-15-53.258-.132-2.632 2.535-2.468 3-4.5-1.554-12.699-4.273-24.23-6.75-36.004 3.211-3.289 4.618-8.386 3.75-15.753-2.562-2.27-2.941 4.027-6.75 3 10.621-9.149 6.567-34.083 3-48.008 20.653-5.399 58.489-2.684 86.262-3.75.016 1.77-1.293 2.21-.75 4.504.32 1.675 3.695.3 5.25.75-2.117 1.82-2.77 11.254.75 12-4.144.98-.656 4.87-.75 8.25-2.281.722-3.617 2.382-4.5 4.5 1.863 2.449 4.23-3.262 5.25-1.5 4.254 6.554-1.977 10.156-4.5 14.254.242 1.753 3.273.726 3.75 2.25zM561.25 73.512c-.11-1.64-1.89-1.614-3.75-1.5-.535-2.04 3.54.535 3-1.5.605 3.144 7.395.105 9.004 2.25-.344 3.129-5.734-1.86-8.254.75zm-18.75-9.754c3.8-1.047 2.059 3.441 5.25 3-1.156 1.347-4.45-1.504-5.25-3zm-51.758 50.258c-.11 8.894-2.305 15.699-3.75 23.254h-6.004v-6c-9.804 1.69-17.77 5.23-27.004 7.5-.52-4.024 3.715-3.29 3.754-6.75-21.808-.055-42.199 1.308-63.761 1.5 4.246-2.477.492-4.524-1.5-6.75 7.25-6.778.906-21.622.75-32.258 31.558.449 64.941-.926 95.265.754.645 5.351 1.871 10.129 2.25 15.75.809 2.191 6.692-.692 7.5 1.5.106 3.105-5.219.78-7.5 1.5zM975.31 86.262c-6.196 2.062-20.602 4.48-26.254 0V20.254h-94.512c-.55 19.8.168 38.336 3 54.758-.363 2.36 3.437.558 3.75 2.25-3.297 2.64-4.106 7.707-8.25 9-5.273 1.644-14.602 0-21.754 0-7.32 0-15.062-.313-21.754 0-26.207 1.218-55.726 3.054-75.762.75 9.739-2.016 20.778-2.727 31.508-3.75-5.46-7.332-2.183-14.668 0-23.254-.039-3.461-4.273-2.727-3.754-6.75.102-2.899 3.043-2.957 3.754-5.25-3.71-9.278 3.297-22.887-.875-28.88-.191.192-.41.345-.683.423-.336.09-.711.125-1.098.133-4.965 4.308-20.2 1.324-23.863-1.52-.555-.434-.606-.984-.387-1.469-6.375.266-12.758.586-19.176.657-.367.003-.664-.098-.89-.274-3.684.262-7.34.106-11.059.219-4.895.144-9.785.515-14.688.547-8.964.05-17.933.105-26.902.031-1.484 6.824-1.242 15.984-1.644 24.883-.653 14.379.34 28.527-.75 41.254-7.73 2.023-20.274-.774-25.504 3.75-10.278-1.723-23.735-.27-35.254-.75-.508-24.274-2.45-51.121 3-71.258-31.727 1.277-69.238-3.23-95.266 3.75 7.64 20.789-3.113 43.902 1.504 68.258-26.91 1.531-55.059-1.387-81.012-3-4.324-.27-8.87.879-12.754-1.5-3.87-23.211.536-42.375.739-66.59-1.098.012-2.285.098-3.38-.07-2.429.218-4.944.027-7.37.043a.463.463 0 01-.356-.149c-13.742.625-27.21.172-41.004.04a.446.446 0 01-.37.171h-10.977a.446.446 0 01-.38-.187H338.81c-4.254 1.738-7.88 5.5-11.59 5.984-1.492 21.879-.258 42.516-.75 63.008-3.074.074-6.149.148-8.25-.75-1.215 1.539-3.61 1.89-5.25 3-14.203-1.301-28.88-2.13-42.758-3.75.469 4.218-5.742 4.914-3.75 8.25 2.312 2.906 7.168 2.96 11.25 3.004 6.879.07 15.32-1.989 22.504-1.504.258 22.246.93 44.078 2.25 65.261-.91 2.586-4.492 2.508-3.75 6.75-.535 2.036 3.539-.535 3 1.5-1.906.09-2.91 1.094-3 3 3.59 8.875 2.344 18.079 3.75 26.254-.707 2.293-3.649 2.352-3.75 5.25 2.281.47 3.836 1.668 3.75 4.5-10.195 6.668 5.496 26.313-2.25 36.008 2.527 2.38 2.754 6.606 2.25 10.5-.555 4.29-.531 5.293 0 9.75 1.82 15.223-2.387 37.387 0 49.508.336 1.695.844 3.152 2.25 4.5-3.168 2.012-3.348 13.566-.75 16.504a44.114 44.114 0 00-3.75 10.5c2.812 2.883 1.203 2.965 0 6.754h6.75c3.101-2.871-3.914-4.696-.75-7.504.754.594-.278 2.625 1.5 3.75 3.683-3.512 7.758.723 9.754.75.058 4.578-3.813 7.46-2.25 11.254 3.703-.547 1.726-6.774 5.25-7.5 2.691.804 2.453 4.547 4.5 6 2.648-2.18 4.183-1.719 7.5-2.25 1.804 3.73 8.078 4.758 12.004 2.25-.196-3.442-.801-3.625 0-6.75.617-1.883 2.625-2.375 3.75-3.754-1.856-.875-2.77-1.961-.75-3 .125 3.058 8.34-.375 10.5-2.25-.871 4.125 1.113 5.39 4.5 5.25 1.093-1.738-2.04-3.77 2.25-4.5 3.652-1.149 2.824 2.18 5.254 2.25-.04-1.852 3.265-3.34 1.5-.75 1.062 2.644 6.359-2.047 8.25.75 1.835-.996-.825-2.79.75-3 9.62-1.977 17.437-9.43 15.753-20.254.133-2.113 3.563-.934 3-3.75-.625-1.629-2.832-1.668-3-3.75v-81.762c-.753-1.496-3.32-1.183-3.003-3.75 1.328-3.672 1.742-8.258 3.753-11.25h63.008c7.824 0 17.367-1.562 21.75 0 6.23 2.219 6.727 12.477 9.004 18h-3c2.086 6.164 6.856 9.649 9 15.754-3.762.867-3.68-4.773-6.75-2.25-3.785 5.02-2.25 14.09-2.25 23.254 0 8.668-1.512 19.809 0 26.254 1.055 4.504 5.68 6.457 6 9.75-1.734 1.016-2.484 3.016-6 2.25 4.778 3.723 2.516 14.488 3 22.504 12.344-1.16 29.528 2.523 38.254-2.25 1.281 1.715 3.371 1.937 5.25 2.25 6.414 1.062 33.64 1.453 38.258 0 9.3-2.926 8.7-17.676 3-24.004.855-4.547 3.043-4.61 3.75-9 1.594-9.887.766-24.168.75-36.758-.012-10.539.473-22.781-.75-31.504-.637-4.535-3.465-8.86-3.75-13.5-.695-11.297 1.71-24.144 2.25-36.004 1.176-25.89 3.324-51.265-2.25-71.261 6.543-2.38 1.766-10.41 2.25-17.254 19.652-1.098 40.371-1.133 60.758-1.5-1.325 13.718-3.262 27.3-1.5 42.008 1.355 11.32 7.883 22.183 6.75 30.753-.7 5.325-5.942 8.735-6.75 13.5 9.226 7.774-.922 37.352 6 48.008-1.95-.449-2.7.301-2.25 2.25 1.05 5.86 3.16 11.125 3.75 17.254.851 8.797-2.188 18.973 0 27.004.894 3.277 6.703 8.504 9.754 12.75 3.472 4.84 6.925 9.375 9.75 12.754 21.203 25.375 54.343 38.805 88.511 47.254 1.993.242-.703-4.2 2.25-3 7.078 4.637 19.778 3 33.754 3 20.059 0 35.828-.61 46.508-6 1.11.14.688 1.812.75 3 21.406-4.848 37.133-15.375 54.758-24.004 1.46-3.996-2.387-6.563-1.5-7.5 5.574-1.32 5.351 3.148 9 3.75.39-7.863 3.125-13.375 10.504-14.25-.32-2.93-4.442-2.063-3.75-6 1.605 1.645 3.64 2.855 7.5 2.25 4.273-10.727 5.457-24.547 14.25-30.754.144-3.144-3.68-2.32-3-6.004 3.086-13.418 7.261-25.742 9.754-39.754-6.633-8.238-1.543-36.777.75-49.508-2.758-3.742-4.414-8.59-6.754-12.75.027-3.226 3.984-2.515 3.004-6.753-1.13-5.137-8.918-3.122-11.254-6 3.222-5.84 11.187 3.433 11.254.75 1.457-5.54 2.078-11.922 3.75-17.25-2.434-2.907-3.98-8.07-6.754-12.004-1.551-2.2-3.27-2.621-3.75-5.25-.79-4.34 1.511-9.278 3-14.25 16.203-.453 30.504 1 45.008 2.25 2.957-2.73 9.347-8.211 3.75-12.754" fill="#ca1e23" fill-rule="evenodd"/></g><path d="M31.887 24.134c0 .228.183.045 0 0M46.838 31.261c.05-.26.075-.259 0-.521.134.01.135.154.174.26a.856.856 0 00.565-.304c-.032.133.044.159.043.261-.174 0-.26.087-.435.087v.26c.076.113.297.08.261.305-.168.008-.25-.07-.26-.217-.154-.146-.202-.14-.348-.13M4.028 39.215c-.01.034-.036.05-.086.043-.05.28.562.195.434.174-.221.033-.283-.094-.348-.217zm-.347.087a.306.306 0 00-.087-.13c-.007.057.068.239.087.13zm-1.087-.218c-.127.011-.15-.082-.217-.13-.127.085.138.263.217.13zm2.651 0c-.036-.123.062-.112.044-.217-.134-.011-.196-.094-.305-.13-.043.245.157.249.261.347zm-2.434-.174c-.006-.153-.194-.123-.304-.173.026.133.215.104.304.173zm1.913-.304c-.046.252.188.018 0 0zm-.435-.043c-.05-.11-.02-.299-.174-.305 0 .16.02.3.174.305zM.9 38.128c.074-.174-.3-.343-.521-.478-.004-.281-.428-.342-.348-.565.285.03.314.307.565.26.247.118.11.352.435.392.165-.326-.26-.435-.435-.565.005-.096.184-.019.26-.043.044-.2-.185-.27-.043-.435-.115 0-.248.016-.304-.044.39-.062.777-.856.304-1 .486-.231.091-.817 0-1.216.486.003.91.292 1.348.478 1.557.662 3.39 1.527 5.867 1.26a1.886 1.886 0 001.173-.565c-.219-.455-.724-.68-1.13-.869-1.105-.513-2.409-.856-3.694-1.217-.255-.071-.56-.08-.782-.174-.335-.142-.762-.527-1.13-.825C1.446 31.697.473 30.46.334 28.87c-.033-.375 0-.788 0-1.174 0-.382-.066-.806 0-1.173.077-.43.676-1.256.956-1.608 1.237-1.552 3.154-2.597 5.868-2.477 2.402.105 4.67.553 6.171 1.738v4.694c-.471-.009-.902-.318-1.347-.522a13.979 13.979 0 00-2.738-.912c-.503-.116-1.088-.311-1.521-.305-.611.01-1.442.361-1.782.74.346.69 1.23.895 2.042 1.13.396.113.83.25 1.26.347.437.099.91.12 1.305.26.544.193 1.14.662 1.651 1.044 1.288.962 2.401 2.01 2.782 3.911.129.645.217 1.295-.087 1.782-.02.121.237-.034.217.087-.23 2.37-2.293 3.532-4.216 4.433-.293.138-.582.346-.826.391-.486.09-1.119 0-1.695 0-.578 0-1.19.05-1.695 0-.443-.043-.954-.193-1.477-.304-1.26-.267-3.009-.676-3.868-1.347-.256-.2-.484-.494-.565-.783-.132-.033-.246-.2-.348-.304-.09-.092-.294-.17-.217-.304.287.09.343.41.652.478.238-.051-.18-.295.13-.304-.201-.147-.49-.206-.652-.391.206.025.428.035.565.13M83.084 27.958c-.737-.068-1.778-.272-2.39.044.03 1.263.021 2.98.087 4.476.028.634.105 1.373 0 1.869-.032.153-.221.323-.217.478.01.396.669.805 1.13.826.353.015.667-.22 1.043-.174.22-.076.101.189.26.174.498-.31 1.265-.518 1.565-1.304.356-.934.078-2.752.13-3.912.016-.331.097-.73.044-.956-.096-.409-.558-.66-.608-.956-.215-.003-.307-.128-.522-.13-.18-.269-.357-.542-.522-.826-.05-.006-.098-.077-.13 0 .146.028.14.208.13.391zm-5.432-2.825c-.034-.11.17-.2.043-.26-.03.046-.17.2-.043.26zm-1.13-.13c.101-.015.187-.045.217-.13-.075.04-.233-.002-.217.13zm.826-.565c.12.07.12-.188.043-.174.004.076-.01.135-.043.174zm-.087-.956c.328.143.212-.116 0 0zM78 23.09c.012-.089.161-.04.173-.13-.05-.036-.116-.057-.217-.043.008.065-.016.16.044.173zm-.218-.217c.007-.051.078-.098 0-.13-.006.051-.077.098 0 .13zm.044 1.825c.227-.246.373-.553.521-.869.205-.436.446-.816.652-1.303h1.87c.634 0 1.341-.107 1.824 0 .188.04.26.208.435.217.183.067.007-.225.13-.217 1.722.485 3.306.963 4.65 1.955.613.452 1.108 1.036 1.522 1.782.393.708.79 1.488.87 2.39.018.214-.015.445 0 .652.051.79.182 1.55.216 2.304.167 3.67-1.041 6.462-3.477 8.04-.136.049-.098.004-.26 0-.086.03.01.243-.087.26-.765.336-1.57.633-2.303 1-.131.044-.077-.096-.087-.173-.318.32-1.241.133-2.174.174-.836.036-1.478.165-1.912-.174-.598.115-1.293.403-1.565-.174-.26.068-.276.33-.521.391-.419.103-1.029-.237-1.521-.217-.28.011-.453.167-.695.217-.181.035-.022-.268-.131-.304-.078-.11-.27-.106-.391-.174.125-.732-.462-1.317 0-1.738-.189-.737-.311-1.56-.261-2.695.005-.102.036-.21.043-.304.14-1.704-.177-3.842 0-5.26.036-.277.216-.555.218-.825.005-.677-.573-1.5-.13-2.086-.018-.17-.228-.281-.261-.478-.068-.403.198-.92.217-1.434.024-.675-.18-1.239-.217-1.826.064-.194.192-.196.217-.39.034-.265-.214-.515-.217-.783.22.031.329-.048.434-.13.228.062.287.292.479.39.452-.065.775-.355 1.26-.26-.007-.051-.08-.037-.13-.044.416-.192 1.18-.036 1.738-.086.071.177-.155.222-.218.347-.097.197-.155.578-.26.826-.156.368-.354.629-.478 1M31.539 22.552h3.548v-.026H31.54v.026M19.657 22.566a.123.123 0 00-.01.004l-.004.003c-.002 0-.003 0-.005.002v.063h4.642v-.072h-4.623M44.303 22.552h-5.811v1.645h5.81v-1.645" fill="#ca1e23" fill-rule="evenodd"/></svg>