<svg xmlns="http://www.w3.org/2000/svg" width="128" height="64"><path d="M57.26 45.9c0 3.336-1.308 5.23-7.791 5.23a16.57 16.57 0 0 1-2.331-.154V6.848C47.138 3.499 48.273 0 54.814 0c.855 0 1.65.075 2.445.256zm-13.877-6.683c0 6.203-4.039 10.742-12.23 11.63-5.971.641-14.617-.109-18.71-.575a9.479 9.479 0 0 1-.285-2.178c0-5.42 2.9-6.673 5.688-6.673 2.843 0 7.336.518 10.694.518 3.637 0 4.776-1.24 4.776-2.433 0-1.56-1.479-2.207-4.322-2.746l-7.85-1.509c-6.484-1.25-9.953-5.734-9.953-10.504 0-5.818 4.095-10.675 12.172-11.557 6.086-.672 13.536.078 17.632.575a8.69 8.69 0 0 1 .225 2.075c0 5.426-2.842 6.598-5.63 6.598-2.046 0-5.346-.392-9.098-.392-3.813 0-5.406 1.057-5.406 2.33 0 1.353 1.536 1.895 3.87 2.332l7.507 1.376c7.622 1.4 10.92 5.764 10.92 11.133M84.446 62.98c.855.448 2.56.96 4.779 1.018 3.752.072 5.8-1.35 7.335-4.75l20.249-45.125c-.795-.44-2.674-.94-4.21-.957-2.56-.058-6.086.46-8.302 5.778l-6.541 15.467L84.9 13.497c-.852-.256-2.842-.614-4.32-.614-4.551 0-7.11 1.659-9.728 4.51L58.397 31.072l10.01 15.795c1.88 2.888 4.324 4.36 8.248 4.36 2.617 0 4.776-.596 5.8-1.09L70.398 31.917l8.53-9.103 14.049 22.082" stroke-width=".106"/></svg>