<svg xmlns="http://www.w3.org/2000/svg" width="128" height="64"><path d="M59.082 49.75H2.37a2.374 2.374 0 01-2.367-2.366V16.587c0-1.243 1.036-2.338 2.338-2.338h56.742z" fill="#a9a9a9" fill-opacity=".949"/><path d="M59.467 48.863H2.665c-1.222 0-1.775-.612-1.775-1.775V16.912c0-1.168.553-1.775 1.775-1.775h56.802l11.538 17.75z" fill="#fff"/><path d="M59.082 14.25h66.543c1.375 0 2.373 1.111 2.373 2.29v30.867a2.355 2.355 0 01-2.343 2.344H59.082zM39.941 45.816c.385.207 1.154.444 2.16.444 1.686.03 2.603-.622 3.284-2.13l9.053-20.177c-.385-.207-1.213-.414-1.864-.444-1.154-.03-2.722.207-3.728 2.604l-2.929 6.922-5.769-9.319c-.384-.118-1.272-.266-1.952-.266-2.012 0-3.166.74-4.35 2.012l-5.561 6.094 4.497 7.07c.828 1.303 1.923 1.953 3.698 1.953 1.154 0 2.13-.266 2.574-.473l-5.414-8.165 3.846-4.053 6.301 9.88zm-11.863-7.633c0 1.48-.592 2.337-3.491 2.337-.385 0-.71-.03-1.035-.088V20.728c0-1.508.502-3.047 3.431-3.047.355 0 .74.03 1.095.118zm-6.006-2.958c0 2.78-1.804 4.792-5.502 5.207-2.663.295-6.539-.06-8.373-.267a5.5 5.5 0 01-.118-.976c0-2.426 1.302-2.988 2.544-2.988 1.272 0 3.284.207 4.793.207 1.657 0 2.13-.562 2.13-1.095 0-.71-.651-.976-1.953-1.242l-3.461-.621c-2.9-.563-4.438-2.574-4.438-4.704 0-2.604 1.835-4.763 5.444-5.178 2.722-.295 6.065.03 7.87.267.058.325.088.621.088.946 0 2.426-1.272 2.93-2.515 2.93-.946 0-2.396-.178-4.082-.178-1.716 0-2.397.473-2.397 1.035 0 .592.68.858 1.746 1.036l3.343.62c3.432.652 4.881 2.604 4.881 5" fill="#0081dc"/><path d="M2.37 14.25h123.26c1.418 0 2.368 1.166 2.368 2.357v12.909L3.405 34.515a3.525 3.525 0 00-3.403 3.52V16.616A2.374 2.374 0 012.37 14.25z" opacity=".2" fill="#fff"/><path d="M118.735 33.237h-12.838c.448 3.137 2.625 4.994 5.922 4.994 1.377 0 2.498-.352 3.554-.704.704-.256 1.089-.352 1.345-.352.736 0 1.248.704 1.088 2.177-1.44.672-3.746 1.376-6.115 1.376-5.122 0-8.708-3.553-8.708-8.74 0-4.93 3.554-8.516 8.228-8.516 5.123 0 7.652 4.002 7.652 8.004a11.4 11.4 0 01-.128 1.76m-12.87-2.304h10.18c-.096-2.818-1.92-4.995-4.834-4.995-2.625 0-4.93 1.73-5.346 4.995M65.85 32.078c0-4.94 3.657-8.596 8.532-8.596 4.94 0 8.564 3.688 8.564 8.596 0 4.94-3.656 8.66-8.564 8.66-4.907 0-8.532-3.753-8.532-8.66m14.21 0c0-3.785-2.567-6.095-5.678-6.095-3.079 0-5.645 2.31-5.645 6.095 0 3.784 2.566 6.126 5.645 6.126 3.111 0 5.677-2.342 5.677-6.126m5.748 8.275v-16.55a7.081 7.081 0 011.347-.129c1.09 0 1.411.45 1.411 1.123v1.218c1.283-1.41 3.144-2.533 5.613-2.533 3.4 0 6.223 2.149 6.223 7.088v8.885c0 .673-.385 1.09-1.54 1.09a6.989 6.989 0 01-1.315-.128v-9.494c0-3.336-1.636-4.94-4.105-4.94-1.957 0-3.978 1.315-4.844 2.887v10.553c0 .673-.353 1.09-1.507 1.09-.45-.032-1.027-.096-1.283-.16" fill="#fff"/></svg>