<svg xmlns="http://www.w3.org/2000/svg" width="128" height="64" xmlns:xlink="http://www.w3.org/1999/xlink"><defs><linearGradient id="j"><stop stop-color="#004d9d" offset="0"/><stop stop-color="#4976b8" offset=".5"/><stop stop-color="#4875b8" offset="1"/></linearGradient><linearGradient id="c"><stop stop-color="#eeeff1" stop-opacity=".133" offset="0"/><stop stop-color="#fff5f5" stop-opacity=".851" offset="1"/></linearGradient><linearGradient id="b"><stop stop-color="#dbdbdb" offset="0"/><stop stop-color="#dadada" offset=".1"/><stop stop-color="#d9d9d9" offset=".2"/><stop stop-color="#e0e0e0" offset=".3"/><stop stop-color="#e9e9e9" offset=".4"/><stop stop-color="#f1f1f1" offset=".5"/><stop stop-color="#f7f7f7" offset=".6"/><stop stop-color="#fbfbfb" offset=".7"/><stop stop-color="#fefefe" offset=".8"/><stop stop-color="#fff" offset=".9"/><stop stop-color="#fff" offset="1"/></linearGradient><linearGradient id="a"><stop stop-color="#101112" offset="0"/><stop stop-color="#636364" offset="1"/></linearGradient><linearGradient y2="1" x2="1" x1="1" id="k" xlink:href="#b"/><linearGradient x2="1.662" y1="1" x1="1.662" id="m" xlink:href="#c"/><linearGradient xlink:href="#g" id="o" x1=".5" y1="1" x2=".5"/><linearGradient id="f"><stop stop-color="#272727" offset="0"/><stop stop-color="#949494" offset="1"/></linearGradient><linearGradient id="d"><stop stop-color="#5f8ac5" offset="0"/><stop stop-color="#93bcdd" offset="1"/></linearGradient><clipPath id="n"><path d="M565.468 1159.28v-26.07h30.454v26.07h-30.454z"/></clipPath><clipPath id="p"><path d="M-165.126 611.438h1v1.168h-1v-1.168z"/></clipPath><linearGradient id="g" gradientTransform="matrix(0 -26.1 -26.1 0 745.8 547.3)" gradientUnits="userSpaceOnUse" x2="1"><stop offset="0"/><stop offset=".533"/><stop offset="1"/></linearGradient><clipPath id="h"><path d="M682.9 546.71h115.934v-11.928H682.9v11.928z"/></clipPath><clipPath id="i"><path d="M-.015-9.154H.94V9.154h-.955V-9.154z"/></clipPath><linearGradient id="e"><stop stop-color="#005fae" offset="0"/><stop stop-color="#4878bc" offset="1"/></linearGradient><linearGradient x2=".378" y1="1" x1=".378" id="l" xlink:href="#j"/></defs><g stroke="null"><g stroke="#000" fill="#9d9d9d" stroke-width="16.763" fill-rule="evenodd"><path stroke="#9b9b9b" fill="#9b9b9b" d="M7.928 12.942H122.45c1.91 0 4.01 1.337 4.01 4.01v32.47c0 2.675-2.1 4.012-4.01 4.012H7.928c-1.91 0-4.01-1.337-4.01-4.01v-32.47c0-2.675 2.1-4.012 4.01-4.012z" stroke-width=".191"/><path stroke="#fff" fill="#fff" stroke-width="1.528.382" d="M7.928 12.942H122.45c1.91 0 4.01 1.337 4.01 4.01v32.47c0 2.675-2.1 4.012-4.01 4.012H7.928c-1.91 0-4.01-1.337-4.01-4.01v-32.47c0-2.675 2.1-4.012 4.01-4.012z"/></g><path fill="url(#k)" fill-rule="evenodd" d="M-722.242-3708.856l1-1v-210l-1-1h-364c-10 0-21 7-21 21v170c0 14 11 21 21 21h364z" transform="matrix(.2 0 0 .2 215.4 761.9)"/><path fill="url(#l)" fill-rule="evenodd" d="M-722.242-3708.856v-212h235.592c10 0 21 7 21 21v170c0 14-11 21-21 21h-235.592z" transform="matrix(.2 0 0 .2 215.4 761.9)"/><path fill="url(#m)" fill-rule="evenodd" d="M-976.853-3815.857c-57 0-109.336-69.91-114.39-100h604.587c-5.054 30.09-57.054 100.09-114.054 100.09" transform="matrix(.2 0 0 .2 215.4 761.9)"/><path fill="#0071bb" d="M37.66 40.853c0 1.847-.723 2.893-4.305 2.893-.47 0-.88-.025-1.288-.084v-24.38c0-1.85.63-3.785 4.242-3.785.47 0 .91.044 1.35.145v25.21zm-7.667-3.69c0 3.43-2.23 5.936-6.755 6.426-3.3.35-8.075-.06-10.337-.32-.09-.38-.15-.84-.15-1.21 0-3 1.61-3.69 3.14-3.69 1.57 0 4.06.29 5.91.29 2.01 0 2.64-.69 2.64-1.35 0-.86-.82-1.218-2.39-1.52l-4.33-.83c-3.58-.69-5.5-3.17-5.5-5.8 0-3.21 2.267-5.89 6.73-6.39 3.36-.37 7.477.046 9.74.32.093.385.125.76.125 1.146 0 2.997-1.57 3.644-3.11 3.644-1.13 0-2.952-.215-5.026-.215-2.108 0-2.957.583-2.957 1.29 0 .74.817 1.04 2.106 1.282l4.145.764c4.21.77 6.033 3.18 6.033 6.15m22.68 13.13c.47.245 1.415.53 2.64.56 2.074.05 3.205-.745 4.054-2.62L70.564 23.3c-.44-.242-1.478-.52-2.326-.53-1.413-.03-3.36.256-4.586 3.197l-3.61 8.54-7.1-11.55c-.472-.145-1.57-.346-2.39-.346-2.513 0-3.93.92-5.372 2.49l-6.88 7.56 5.53 8.73c1.03 1.6 2.38 2.41 4.55 2.41 1.445 0 2.64-.33 3.205-.6L44.92 33.14l4.718-5.04 7.76 12.2"/><g clip-path="url(#n)" transform="matrix(1.6 0 0 -1.6 -858.8 2195)"><path fill="url(#o)" d="M565.468 1159.28v-26.07h30.454v26.07h-30.454z" clip-path="url(#p)"/></g><path d="M103.4 49.74c-.71 0-1.413-.033-2.108-.102-.694-.068-1.28-.153-1.752-.255V25.448l-5.59 2.54c-.274-.337-.56-.71-.864-1.118-.308-.406-.58-.915-.814-1.525-.238-.61-.357-1.22-.357-1.83 0-.813.22-1.506.66-2.083.44-.575 1.05-1.05 1.832-1.423l7.417-3.51h5.95v29.68c0 .98-.307 1.82-.917 2.51-.61.69-1.762 1.04-3.456 1.04" fill="#fff"/></g></svg>