<svg xmlns="http://www.w3.org/2000/svg" width="128" height="64" xmlns:xlink="http://www.w3.org/1999/xlink"><defs><linearGradient id="j"><stop stop-color="#004d9d" offset="0"/><stop stop-color="#4976b8" offset=".5"/><stop stop-color="#4875b8" offset="1"/></linearGradient><linearGradient id="c"><stop stop-color="#eeeff1" stop-opacity=".133" offset="0"/><stop stop-color="#fff5f5" stop-opacity=".851" offset="1"/></linearGradient><linearGradient id="b"><stop stop-color="#dbdbdb" offset="0"/><stop stop-color="#dadada" offset=".1"/><stop stop-color="#d9d9d9" offset=".2"/><stop stop-color="#e0e0e0" offset=".3"/><stop stop-color="#e9e9e9" offset=".4"/><stop stop-color="#f1f1f1" offset=".5"/><stop stop-color="#f7f7f7" offset=".6"/><stop stop-color="#fbfbfb" offset=".7"/><stop stop-color="#fefefe" offset=".8"/><stop stop-color="#fff" offset=".9"/><stop stop-color="#fff" offset="1"/></linearGradient><linearGradient><stop stop-color="#101112" offset="0"/><stop stop-color="#151617" offset=".2"/><stop stop-color="#1a1b1c" offset=".4"/><stop stop-color="#242526" offset=".603"/><stop stop-color="#393a3b" offset=".8"/><stop stop-color="#636364" offset="1"/></linearGradient><linearGradient y2="1092.357" x2="468" y1="1192.362" x1="468" gradientUnits="userSpaceOnUse" xlink:href="#a" gradientTransform="translate(-379.159 -3.205)"/><linearGradient id="a"><stop stop-color="#101112" offset="0"/><stop stop-color="#636364" offset="1"/></linearGradient><linearGradient y2="1" x2="1" x1="1" id="n" xlink:href="#b"/><linearGradient x2="1.662" y1="1" x1="1.662" id="p" xlink:href="#c"/><linearGradient xlink:href="#d" gradientUnits="userSpaceOnUse" x1="1265" y1="1192.362" x2="1265" y2="1092.362"/><linearGradient xlink:href="#e" gradientUnits="userSpaceOnUse" x1="767.251" y1="1297.88" x2="767.251" y2="1087.127"/><linearGradient gradientTransform="translate(-21.173 222.741)" xlink:href="#f" gradientUnits="userSpaceOnUse" x1="468" y1="1192.362" x2="468" y2="1092.357"/><linearGradient xlink:href="#e" x1="767.251" y1="1297.88" x2="767.251" y2="1087.127" gradientUnits="userSpaceOnUse"/><linearGradient xlink:href="#g" gradientUnits="userSpaceOnUse" gradientTransform="matrix(0 -26.068 -26.068 0 745.822 547.257)" x2="1"/><linearGradient id="f"><stop stop-color="#272727" offset="0"/><stop stop-color="#949494" offset="1"/></linearGradient><linearGradient id="d"><stop stop-color="#5f8ac5" offset="0"/><stop stop-color="#93bcdd" offset="1"/></linearGradient><linearGradient y2="1092.357" x2="468" y1="1192.362" x1="468" gradientUnits="userSpaceOnUse" xlink:href="#f"/><linearGradient y2="1092.362" x2="1265" y1="1192.362" x1="1265" gradientUnits="userSpaceOnUse" xlink:href="#d"/><clipPath><path d="M0 0h841.89v595.276H0V0z"/></clipPath><clipPath><path d="M0 0h841.89v595.276H0V0z"/></clipPath><clipPath><path d="M0 0h841.89v595.276H0V0z"/></clipPath><clipPath><path d="M0 0h841.89v595.276H0V0z"/></clipPath><clipPath><path d="M0 0h841.89v595.276H0V0z"/></clipPath><clipPath><path d="M0 0h841.89v595.276H0V0z"/></clipPath><clipPath><path d="M679.85 520.147h122.355v27.825H679.85v-27.825z"/></clipPath><clipPath><path d="M679.85 547.973h122.355v-27.826H679.85v27.826z"/></clipPath><clipPath><path d="M679.85 520.147h122.355v27.826H679.85v-27.826z"/></clipPath><clipPath><path d="M730.595 547.258V521.19h30.454v26.068h-30.46z"/></clipPath><clipPath><path d="M0-.584h1V.584H0V-.584z"/></clipPath><linearGradient id="g" gradientTransform="matrix(0 -26.068 -26.068 0 745.822 547.257)" gradientUnits="userSpaceOnUse" x2="1"><stop offset="0"/><stop offset=".533"/><stop offset="1"/></linearGradient><clipPath><path d="M679.85 520.147h122.355v27.825H679.85v-27.825z"/></clipPath><clipPath id="h"><path d="M682.9 546.71h115.934v-11.928H682.9v11.928z"/></clipPath><clipPath><path d="M682.9 546.71h115.934v-11.928H682.9v11.928z"/></clipPath><clipPath><path d="M682.9 534.783h115.934v11.927H682.9v-11.927z"/></clipPath><clipPath id="i"><path d="M-.015-9.154H.94V9.154h-.955V-9.154z"/></clipPath><linearGradient gradientTransform="matrix(0 -13.298 -13.298 0 797.305 546.987)" gradientUnits="userSpaceOnUse" x2="1"><stop offset="0"/><stop offset="1"/></linearGradient><mask height="1" width="1" y="0" x="0" maskUnits="userSpaceOnUse"><g opacity=".6" clip-path="url(#h)"><path d="M682.9 546.71h115.934v-11.927H682.9v11.927z"/><path fill="url(#linearGradient3148) #000000" d="M682.9 534.783h115.934v11.927H682.9v-11.927z" clip-path="url(#i)"/></g></mask><clipPath><path d="M682.9 546.71h115.934v-11.928H682.9v11.928z"/></clipPath><clipPath><path d="M682.9 534.782h115.934v11.927H682.9v-11.93z"/></clipPath><clipPath><path d="M352.44 44.41h461.103v215.433H352.44V44.41z"/></clipPath><clipPath><path d="M0 0h841.89v595.276H0V0z"/></clipPath><clipPath><path d="M0 0h841.89v595.276H0V0z"/></clipPath><clipPath><path d="M0 0h841.89v595.276H0V0z"/></clipPath><linearGradient id="e"><stop stop-color="#005fae" offset="0"/><stop stop-color="#4878bc" offset="1"/></linearGradient><linearGradient x2=".378" y1="1" x1=".378" id="o" xlink:href="#j"/><clipPath id="q"><path d="M466.772 1199.033h182.706v27.42H466.772v-27.42z"/></clipPath><linearGradient id="k"><stop stop-color="#5f8ac5" offset="0"/><stop stop-color="#93bcdd" offset="1"/></linearGradient><linearGradient xlink:href="#k" gradientUnits="userSpaceOnUse" x1="1265" y1="1192.362" x2="1265" y2="1092.362"/><linearGradient id="l"><stop stop-color="#005fae" offset="0"/><stop stop-color="#4878bc" offset="1"/></linearGradient><linearGradient xlink:href="#l" gradientUnits="userSpaceOnUse" x1="767.251" y1="1297.88" x2="767.251" y2="1087.127"/><linearGradient id="m"><stop stop-color="#272727" offset="0"/><stop stop-color="#949494" offset="1"/></linearGradient><linearGradient xlink:href="#m" gradientUnits="userSpaceOnUse" x1="468" y1="1192.362" x2="468" y2="1092.357"/></defs><g stroke="null"><g stroke="#000" fill="#9d9d9d" stroke-width="16.763" fill-rule="evenodd"><path stroke="#9b9b9b" fill="#9b9b9b" d="M7.928 12.78H122.45c1.91 0 4.01 1.337 4.01 4.01v32.47c0 2.675-2.1 4.012-4.01 4.012H7.928c-1.91 0-4.01-1.337-4.01-4.01V16.79c0-2.675 2.1-4.012 4.01-4.012z" stroke-width=".191"/><path stroke="#fff" fill="#fff" stroke-width="1.528.382" d="M7.928 12.78H122.45c1.91 0 4.01 1.337 4.01 4.01v32.47c0 2.675-2.1 4.012-4.01 4.012H7.928c-1.91 0-4.01-1.337-4.01-4.01V16.79c0-2.675 2.1-4.012 4.01-4.012z"/></g><path fill="url(#n)" fill-rule="evenodd" d="M-723.412-4152.886l1-1v-210l-1-1h-364c-10 0-21 7-21 21v170c0 14 11 21 21 21h364z" transform="matrix(.191 0 0 .191 215.631 846.509)"/><path fill="url(#o)" fill-rule="evenodd" d="M-723.412-4152.886v-212h235.592c10 0 21 7 21 21v170c0 14-11 21-21 21h-235.592z" transform="matrix(.191 0 0 .191 215.631 846.509)"/><path fill="url(#p)" fill-rule="evenodd" d="M-978.023-4259.886c-57 0-109.336-69.91-114.39-100h604.587c-5.054 30.09-57.054 100.09-114.054 100.09" transform="matrix(.191 0 0 .191 215.631 846.509)"/><path fill="#0071bb" d="M37.66 40.69c0 1.847-.723 2.893-4.305 2.893-.47 0-.88-.025-1.288-.085V19.12c0-1.85.628-3.786 4.24-3.786.473 0 .912.044 1.352.144v25.21zM29.992 37c0 3.428-2.23 5.936-6.755 6.426-3.3.355-8.075-.057-10.337-.314-.093-.377-.156-.836-.156-1.207 0-2.994 1.602-3.685 3.142-3.685 1.57 0 4.053.29 5.906.29 2.01 0 2.64-.693 2.64-1.35 0-.86-.817-1.215-2.388-1.52l-4.336-.83c-3.582-.69-5.498-3.17-5.498-5.803 0-3.21 2.262-5.89 6.723-6.384 3.362-.37 7.478.044 9.74.317.095.387.126.76.126 1.147 0 2.997-1.578 3.645-3.11 3.645-1.14 0-2.96-.217-5.03-.217-2.11 0-2.958.588-2.958 1.29 0 .743.817 1.045 2.105 1.286l4.147.77c4.21.77 6.032 3.18 6.032 6.147m22.69 13.124c.47.246 1.414.53 2.64.56 2.073.047 3.204-.745 4.052-2.62l11.185-24.93c-.44-.24-1.477-.517-2.326-.53-1.414-.03-3.36.258-4.588 3.2l-3.614 8.54-7.1-11.55c-.473-.143-1.573-.344-2.39-.344-2.513 0-3.927.915-5.37 2.492l-6.88 7.552 5.53 8.726c1.036 1.597 2.387 2.41 4.555 2.41 1.447 0 2.64-.33 3.206-.603l-6.66-10.06 4.712-5.034 7.76 12.2"/><g clip-path="url(#q)" transform="matrix(1.725 0 0 -1.536 -926.043 1894.065)" stroke="#fff" fill="#fff" stroke-width=".395"><path d="M594.75 1205.51v.068l3.372 3.192c2.366 2.232 4.15 4.263 4.15 7.522 0 3.95-2.945 6.383-6.784 6.383-2.9 0-5.202-1.607-6.585-3.348.625-1.674 1.54-2.746 2.48-2.657 1.382.134 1.872 1.83 4.128 1.83 1.278 0 2.35-.758 2.35-2.543 0-1.74-1.45-3.304-3.683-5.558l-3.37-3.46c-1.316-1.34-1.606-2.93-1.606-3.8 0-.626.11-1.296.246-1.74h11.27c1.006 0 1.81.556 1.81 2.23 0 .76-.135 1.474-.225 1.874h-7.544z"/></g></g></svg>