<svg xmlns="http://www.w3.org/2000/svg" width="128" height="64" xmlns:xlink="http://www.w3.org/1999/xlink"><defs><linearGradient id="c"><stop stop-color="#004d9d" offset="0"/><stop stop-color="#4976b8" offset=".5"/><stop stop-color="#4875b8" offset="1"/></linearGradient><linearGradient id="b"><stop stop-color="#eeeff1" stop-opacity=".133" offset="0"/><stop stop-color="#fff5f5" stop-opacity=".851" offset="1"/></linearGradient><linearGradient id="a"><stop stop-color="#dbdbdb" offset="0"/><stop stop-color="#dadada" offset=".1"/><stop stop-color="#d9d9d9" offset=".2"/><stop stop-color="#e0e0e0" offset=".3"/><stop stop-color="#e9e9e9" offset=".4"/><stop stop-color="#f1f1f1" offset=".5"/><stop stop-color="#f7f7f7" offset=".6"/><stop stop-color="#fbfbfb" offset=".7"/><stop stop-color="#fefefe" offset=".8"/><stop stop-color="#fff" offset=".9"/><stop stop-color="#fff" offset="1"/></linearGradient><linearGradient y2="1" x2="1" x1="1" id="d" xlink:href="#a"/><linearGradient x2="1.662" y1="1" x1="1.662" id="f" xlink:href="#b"/><linearGradient x2=".378" y1="1" x1=".378" id="e" xlink:href="#c"/><clipPath id="g"><path d="M466.772 1199.033h182.706v27.42H466.772v-27.42z"/></clipPath></defs><g stroke="null"><g stroke="#000" fill="#9d9d9d" stroke-width="16.763" fill-rule="evenodd"><path stroke="#9b9b9b" fill="#9b9b9b" d="M7.928 12.78H122.45c1.91 0 4.01 1.337 4.01 4.01v32.47c0 2.675-2.1 4.012-4.01 4.012H7.928c-1.91 0-4.01-1.337-4.01-4.01V16.79c0-2.675 2.1-4.012 4.01-4.012z" stroke-width=".191"/><path stroke="#fff" fill="#fff" stroke-width="1.528.382" d="M7.928 12.78H122.45c1.91 0 4.01 1.337 4.01 4.01v32.47c0 2.675-2.1 4.012-4.01 4.012H7.928c-1.91 0-4.01-1.337-4.01-4.01V16.79c0-2.675 2.1-4.012 4.01-4.012z"/></g><path fill="url(#d)" fill-rule="evenodd" d="M-723.412-4152.886l1-1v-210l-1-1h-364c-10 0-21 7-21 21v170c0 14 11 21 21 21h364z" transform="matrix(.19 0 0 .19 215.63 846.51)"/><path fill="url(#e)" fill-rule="evenodd" d="M-723.412-4152.886v-212h235.592c10 0 21 7 21 21v170c0 14-11 21-21 21h-235.592z" transform="matrix(.19 0 0 .19 215.63 846.51)"/><path fill="url(#f)" fill-rule="evenodd" d="M-978.023-4259.886c-57 0-109.336-69.91-114.39-100h604.587c-5.054 30.09-57.054 100.09-114.054 100.09" transform="matrix(.19 0 0 .19 215.63 846.51)"/><path fill="#0071bb" d="M37.66 40.69c0 1.847-.723 2.893-4.305 2.893-.47 0-.88-.025-1.288-.085V19.12c0-1.85.628-3.786 4.24-3.786.473 0 .912.044 1.352.144v25.21zM29.992 37c0 3.428-2.23 5.936-6.755 6.426-3.3.355-8.075-.057-10.337-.314a5.415 5.415 0 0 1-.156-1.207c0-2.994 1.602-3.685 3.142-3.685 1.57 0 4.053.29 5.906.29 2.01 0 2.64-.693 2.64-1.35 0-.86-.817-1.215-2.388-1.52l-4.336-.83c-3.582-.69-5.498-3.17-5.498-5.803 0-3.21 2.262-5.89 6.723-6.384 3.362-.37 7.478.044 9.74.317.095.387.126.76.126 1.147 0 2.997-1.58 3.645-3.11 3.645-1.14 0-2.96-.217-5.03-.217-2.11 0-2.96.588-2.96 1.29 0 .743.818 1.045 2.106 1.286l4.147.77c4.21.77 6.032 3.18 6.032 6.148m22.69 13.124c.47.246 1.414.53 2.64.56 2.073.047 3.204-.745 4.052-2.62l11.185-24.93c-.44-.24-1.477-.517-2.326-.53-1.414-.03-3.36.258-4.588 3.2l-3.614 8.54-7.1-11.55c-.473-.143-1.573-.344-2.39-.344-2.513 0-3.927.915-5.37 2.492l-6.88 7.552 5.53 8.726c1.036 1.597 2.387 2.41 4.555 2.41 1.446 0 2.64-.33 3.205-.603l-6.66-10.06 4.712-5.034 7.76 12.2"/><g clip-path="url(#g)" transform="matrix(1.725 0 0 -1.536 -926.043 1894.065)" stroke="#fff" fill="#fff" stroke-width=".395"><path d="M594.75 1205.51v.068l3.372 3.192c2.366 2.232 4.15 4.263 4.15 7.522 0 3.95-2.945 6.383-6.784 6.383-2.9 0-5.202-1.607-6.585-3.348.625-1.674 1.54-2.746 2.48-2.657 1.382.134 1.872 1.83 4.128 1.83 1.28 0 2.35-.758 2.35-2.543 0-1.74-1.45-3.304-3.682-5.558l-3.37-3.46c-1.316-1.34-1.606-2.93-1.606-3.8 0-.627.11-1.297.246-1.74h11.27c1.006 0 1.81.555 1.81 2.23 0 .76-.135 1.473-.225 1.873h-7.544z"/></g></g></svg>