<svg xmlns="http://www.w3.org/2000/svg" width="128" height="64"><g style="text-align:center;line-height:125%" font-size="40" font-weight="400" letter-spacing="1.451" word-spacing="0" text-anchor="middle" font-family="Sans"><path d="M57.662 49.324H2.312c-1.27 0-2.31-1.04-2.31-2.31V16.957c0-1.213 1.01-2.281 2.281-2.281h55.38z" fill="#a9a9a9" fill-opacity=".949"/><path d="M58.038 48.458H2.6c-1.193 0-1.733-.598-1.733-1.733v-29.45c0-1.14.54-1.733 1.733-1.733h55.437l11.26 17.324z" fill="#fff"/><path d="M57.662 14.676h68.02c1.343 0 2.316 1.085 2.316 2.236v30.125a2.298 2.298 0 01-2.286 2.287h-68.05zM38.981 45.484c.376.202 1.126.433 2.108.433 1.646.029 2.54-.606 3.205-2.079l8.835-19.692c-.375-.202-1.184-.404-1.819-.433-1.126-.029-2.656.202-3.638 2.541l-2.858 6.757-5.63-9.096c-.376-.115-1.242-.26-1.906-.26-1.964 0-3.09.722-4.245 1.964l-5.428 5.948 4.389 6.9c.808 1.271 1.877 1.906 3.61 1.906 1.125 0 2.078-.26 2.511-.462l-5.284-7.969 3.754-3.955 6.15 9.643zm-11.578-7.449c0 1.443-.577 2.28-3.407 2.28-.375 0-.693-.028-1.01-.086v-19.23c0-1.472.49-2.974 3.349-2.974.346 0 .722.03 1.068.116zm-5.861-2.888c0 2.714-1.762 4.678-5.37 5.082-2.6.289-6.382-.058-8.172-.26a5.367 5.367 0 01-.115-.953c0-2.367 1.27-2.916 2.483-2.916 1.241 0 3.205.202 4.677.202 1.617 0 2.08-.548 2.08-1.068 0-.693-.636-.953-1.907-1.213l-3.378-.606c-2.83-.549-4.33-2.512-4.33-4.591 0-2.54 1.79-4.649 5.312-5.053 2.656-.289 5.919.029 7.68.26.058.318.087.606.087.924 0 2.367-1.242 2.858-2.454 2.858-.924 0-2.34-.173-3.985-.173-1.674 0-2.339.462-2.339 1.01 0 .578.665.838 1.704 1.011l3.263.607c3.349.635 4.764 2.54 4.764 4.88" fill="#0081dc"/><path d="M2.312 14.676h123.374c1.385 0 2.312 1.139 2.312 2.3v12.53L3.323 34.453a3.44 3.44 0 00-3.32 3.436V16.986c0-1.27 1.039-2.31 2.31-2.31z" opacity=".2" fill="#fff"/><path d="M103.098 32.076c0-4.821 3.568-8.39 8.326-8.39 4.821 0 8.359 3.6 8.359 8.39 0 4.82-3.57 8.452-8.359 8.452s-8.326-3.663-8.326-8.452m13.867 0c0-3.694-2.504-5.948-5.54-5.948-3.006 0-5.51 2.254-5.51 5.948 0 3.694 2.504 5.979 5.51 5.979 3.036 0 5.54-2.285 5.54-5.98m-41.378 7.219a10.732 10.732 0 01-4.656 1.08c-3.137 0-5.061-1.822-5.061-4.96V21.04c0-.64.405-1.079 1.417-1.079.472 0 .945.101 1.215.168v3.847h6.343c.068.203.135.64.135 1.045 0 .912-.405 1.249-.978 1.249h-5.534v8.94c0 1.958.946 2.801 2.766 2.801 1.654 0 2.599-.64 3.375-.64.742 0 1.08.674.978 1.923" fill="#fff"/><path d="M82.462 39.979c1.928.478 3.078.26 3.494-.956l3.895-12.18 4.131 13.131c1.91.465 3.035.245 3.414-.83l4.346-14.915c-1.508-.646-2.69-.52-2.961.455L95.62 36.98l-3.908-12.095c-.537-1.527-2.681-1.048-3.483-.643L84.16 37.215l-3.348-12.549c-.41-1.243-2.098-.826-2.955-.407z" fill="#fff" fill-rule="evenodd"/></g></svg>