<svg xmlns="http://www.w3.org/2000/svg" width="128" height="64" xmlns:xlink="http://www.w3.org/1999/xlink"><defs><linearGradient y2="1" x2=".23" x1=".23" id="n" xlink:href="#a"/><linearGradient id="b"><stop stop-color="#5c0300" stop-opacity="0" offset="0"/><stop stop-color="#5c0300" stop-opacity="0" offset=".2"/><stop stop-color="#5c0300" stop-opacity="0" offset=".4"/><stop stop-color="#5c0300" offset=".6"/><stop stop-color="#5c0300" offset=".801"/><stop stop-color="#5c0300" offset="1"/></linearGradient><linearGradient id="c"><stop stop-color="#eb3e2e" offset="0"/><stop stop-color="#cb1e24" offset=".027"/><stop stop-color="#bd1920" offset=".2"/><stop stop-color="#ac171d" offset=".3"/><stop stop-color="#991216" offset=".4"/><stop stop-color="#890e11" offset=".5"/><stop stop-color="#7b0909" offset=".6"/><stop stop-color="#730506" offset=".7"/><stop stop-color="#6a0000" offset=".8"/><stop stop-color="#640000" offset=".9"/><stop stop-color="#5b0300" offset="1"/></linearGradient><linearGradient id="m"><stop stop-color="#e5382c" offset="0"/><stop stop-color="#e84836" offset=".608"/><stop stop-color="#c34832" offset=".719"/><stop stop-color="#a01f19" offset=".819"/><stop stop-color="#940f10" offset=".911"/><stop stop-color="#940f10" offset="1"/></linearGradient><linearGradient id="e"><stop stop-color="#440301" offset="0"/><stop stop-color="#500a03" offset=".1"/><stop stop-color="#611306" offset=".2"/><stop stop-color="#7b1910" offset=".3"/><stop stop-color="#7b1910" offset=".4"/><stop stop-color="#7b1910" offset=".5"/><stop stop-color="#68080a" offset=".6"/><stop stop-color="#68080a" offset=".7"/><stop stop-color="#540403" offset=".8"/><stop stop-color="#540403" offset=".9"/><stop stop-color="#540403" offset="1"/></linearGradient><linearGradient id="d"><stop stop-color="#690805" offset="0"/><stop stop-color="#802417" offset=".1"/><stop stop-color="#7a2216" offset=".2"/><stop stop-color="#732012" offset=".3"/><stop stop-color="#68190a" offset=".4"/><stop stop-color="#631606" offset=".5"/><stop stop-color="#591001" offset=".6"/><stop stop-color="#4e0401" offset=".7"/><stop stop-color="#450102" offset=".8"/><stop stop-color="#3e0100" offset=".9"/><stop stop-color="#440301" offset="1"/></linearGradient><linearGradient id="a"><stop stop-color="#eb3e30" offset="0"/><stop stop-color="#e4563e" offset=".2"/><stop stop-color="#c04631" offset=".4"/><stop stop-color="#9f1e18" offset=".6"/><stop stop-color="#940f10" offset=".801"/><stop stop-color="#940f10" offset="1"/></linearGradient><linearGradient id="f"><stop stop-color="#dedfe1" offset="0"/><stop stop-color="#e6e6e8" offset=".1"/><stop stop-color="#f9f9f9" offset=".2"/><stop stop-color="#fff" offset=".3"/><stop stop-color="#fff" offset=".4"/><stop stop-color="#fff" offset=".5"/><stop stop-color="#fff" offset=".6"/><stop stop-color="#fff" offset=".7"/><stop stop-color="#fefefe" offset=".8"/><stop stop-color="#f0f1f1" offset=".9"/><stop stop-color="#efefef" offset="1"/></linearGradient><linearGradient id="k"><stop stop-color="#e6e6e8" offset="0"/><stop stop-color="#f4f4f4" offset=".608"/><stop stop-color="#e3e3e5" offset=".719"/><stop stop-color="#c3c4c6" offset=".819"/><stop stop-color="#a8acad" offset=".911"/><stop stop-color="#a8acad" offset="1"/></linearGradient><linearGradient id="i"><stop stop-color="#f0f0f0" offset="0"/><stop stop-color="#dcdddf" offset=".182"/><stop stop-color="#c4c5c7" offset=".459"/><stop stop-color="#a9aaae" offset=".731"/><stop stop-color="#a8acad" offset="1"/></linearGradient><linearGradient id="g"><stop stop-color="#f5f7f6" offset="0"/><stop stop-color="#e1e1e3" offset=".182"/><stop stop-color="#c2c3c5" offset=".459"/><stop stop-color="#a9adae" offset=".731"/><stop stop-color="#a8acad" offset="1"/></linearGradient><linearGradient id="h"><stop stop-color="#e0e1e3" offset="0"/><stop stop-color="#d9dadc" offset=".182"/><stop stop-color="#c2c3c5" offset=".459"/><stop stop-color="#a8acad" offset=".731"/><stop stop-color="#a8acad" offset="1"/></linearGradient><linearGradient id="j"><stop stop-color="#e6e6e8" offset="0"/><stop stop-color="#e6e6e8" offset=".2"/><stop stop-color="#e6e6e8" offset=".4"/><stop stop-color="#e6e7e9" offset=".5"/><stop stop-color="#e7e8ea" offset=".6"/><stop stop-color="#dadbdd" offset=".7"/><stop stop-color="#c3c4c6" offset=".8"/><stop stop-color="#a8acad" offset=".9"/><stop stop-color="#a8acad" offset="1"/></linearGradient><linearGradient id="l"><stop stop-color="#420201" offset="0"/><stop stop-color="#410101" offset=".581"/><stop stop-color="#7b1910" offset=".675"/><stop stop-color="#7b1910" offset=".76"/><stop stop-color="#68080a" offset=".871"/><stop stop-color="#540403" offset="1"/></linearGradient><linearGradient y2="1" x2="1" id="z" xlink:href="#b"/><linearGradient y2=".019" x2=".941" y1=".981" x1=".941" id="p" xlink:href="#c"/><linearGradient y2=".043" x2=".011" y1="1.021" x1=".011" id="q" xlink:href="#d"/><linearGradient x2=".002" y1="1" x1=".002" id="r" xlink:href="#e"/><linearGradient y2=".027" x2=".992" y1=".972" x1=".992" id="s" xlink:href="#f"/><linearGradient y2=".034" x2="0" y1=".034" x1="1" id="t" xlink:href="#g"/><linearGradient y2=".999" x2=".043" y1="-.001" x1=".043" id="u" xlink:href="#h"/><linearGradient y2=".001" x2=".966" y1="1.001" x1=".966" id="w" xlink:href="#i"/><radialGradient r="4.5" fy="200.537" fx="195.331" cy="200.537" cx="195.331" gradientTransform="matrix(-2 0 0 -2 584.658 599.43)" gradientUnits="userSpaceOnUse" id="v" xlink:href="#j"/><radialGradient r="4.5" fy="200.537" fx="195.331" cy="200.537" cx="195.331" gradientTransform="matrix(0 -2 2 0 -207.07 532.02)" gradientUnits="userSpaceOnUse" id="x" xlink:href="#k"/><radialGradient r="4.5" fy="200.537" fx="195.331" cy="200.537" cx="195.331" gradientTransform="matrix(2 0 0 2 85.342 -259.706)" gradientUnits="userSpaceOnUse" id="y" xlink:href="#l"/><radialGradient r="4.5" fy="200.537" fx="195.331" cy="200.537" cx="195.331" gradientTransform="matrix(0 2 -2 0 877.068 -192.296)" gradientUnits="userSpaceOnUse" id="o" xlink:href="#m"/><clipPath id="A"><path d="M183.17 464.8h43.06v10.808h-43.06V464.8z"/></clipPath></defs><g stroke="null"><path fill="url(#n)" d="M15.235-150.512h171l.575 1.952-.575 2.048h-171v-4z" transform="matrix(.42 0 0 .42 45 109.286)"/><path fill="url(#o)" d="M186.235-146.512v-4c3 0 5-2 5-5h4c0 5-4.03 9.003-8.957 9" transform="matrix(.42 0 0 .42 45 109.286)"/><path fill="#940f10" d="M125.87 42.76H127v1.21l-.42.42-.71-.42v-1.21z"/><path fill="url(#p)" d="M15.235-201.512l180-1v45c0 5-5.712 7.375-9.712 7.375l-170.288.625v-52z" transform="matrix(.42 0 0 .42 45 109.286)"/><path fill="#5c0300" d="M125.32 20.03l1.26-.42.42.42v4.62h-1.68v-4.62z"/><path fill="url(#q)" d="M15.235-195.012c83.346 0 128.817-1.977 177-6.5v-13l-1-3-4-1h-172v23.5z" transform="matrix(.42 0 0 .42 45 109.286)"/><path fill="url(#r)" d="M15.235-221.512h171l1 1-1 3h-171v-4z" transform="matrix(.42 0 0 .42 45 109.286)"/><path fill="url(#s)" d="M-101.765-218.512l5-2 113 1v71l-111.06 1.033-6.94-2.03-2-64 2-5z" transform="matrix(.42 0 0 .42 45 109.286)"/><path fill="url(#t)" d="M-101.765-212.512v57l-2 1-1-1v-57l1-1 2 1z" transform="matrix(.42 0 0 .42 45 109.286)"/><path fill="url(#u)" d="M-95.765-149.512h112v3h-112l-1-1 1-2z" transform="matrix(.42 0 0 .42 45 109.286)"/><path fill="url(#v)" d="M-104.765-155.512h3c0 3 3 6 6 6v3c-5 0-9.003-4.03-9-8.958" transform="matrix(.42 0 0 .42 45 109.286)"/><path fill="url(#w)" d="M16.235-218.512h-112l-1-2 1-1h112v3z" transform="matrix(.42 0 0 .42 45 109.286)"/><path fill="url(#x)" d="M-95.765-221.512v3c-3 0-6 3-6 6h-3c0-5 4.03-9.004 8.958-9" transform="matrix(.42 0 0 .42 45 109.286)"/><path d="M5.248 39.337s-.092-.46-.092-.92c0-1.748.644-2.668 2.484-2.668 1.38 0 2.668.18 4.232.18 1.288 0 2.024-.28 2.024-1.01 0-2.3-9.108 0-9.108-6.07 0-2.2 1.084-3.48 2.73-4.17l4.48-.16 5.11 1c-.1 1.894-.99 2.31-2.292 2.31-1.656 0-2.3-.09-3.588-.09-.828 0-2.392.092-2.392.92 0 2.024 9.2.092 9.2 6.164 0 3.22-2.116 4.874-7.36 4.874-3.404 0-5.428-.37-5.428-.37zm15.456.368c-.736 0-1.104-.092-1.104-.092V25.71l2.186-1.8L23.74 26v11.68c0 2.025-1.84 2.025-2.76 2.025h-.276zm13.432-.368s-.92.46-2.3.46c-1.638.01-2.576-.552-3.404-1.748l-4.176-6.58 4.674-5.16 4.39-2.055 3.4 2.43 3.764 6.205 2.6-5.983 2.674-2.22L47.236 27l-7.304 16.2c-.368.83-.92 1.84-2.852 1.84-1.472 0-2.06-.404-2.06-.404l3.532-7.507-5.842-9.14-3.542 3.8 4.968 7.54z" fill-rule="evenodd"/><path fill="#37373f" fill-rule="evenodd" d="M19.898 26.025v-3.933c0-2.386.918-3.118 3.21-3.118.643 0 .918.09.918.09v7.253c-1.445-.1-2.548-.17-4.128-.292zm17.07.977c-3.25-.114-5.78-.256-7.766-.37l.75-.87c.918-1.008 2.11-1.466 3.67-1.466 1.284 0 1.87.273 1.87.273L36.968 27zm10.484.318c-1.308-.032-2.51-.05-4.14-.095l.437-1.005c.45-1.1 1.46-1.834 3.02-1.834 1.1 0 1.833.367 1.833.367l-1.16 2.567zM7.848 25.002c.357-.177 1.962-.745 4.528-.708 1.743 0 4.954.367 4.954.367s.092.28.092.83c0 .13-.008.31-.008.36l-9.566-.84z"/><path fill="url(#y)" d="M195.235-212.512h-3c0-3-3-5-6-5v-4c5 0 9.004 4.03 9 8.957" transform="matrix(.42 0 0 .42 45 109.286)"/><path fill="url(#z)" d="M195.235-212.512h-3c0-3-3-5-6-5v-4c5 0 9.004 4.03 9 8.957" transform="matrix(.42 0 0 .42 45 109.286)"/></g><g clip-path="url(#A)" transform="matrix(2.933 0 0 -2.933 -536.368 1411.155)" stroke="null" fill="#fff"><path d="M223.36 470.644l-.81.267c-.545.19-.77.39-.77.79 0 .41.33.64 1.114.64.457 0 .95-.11 1.303-.25.12-.05.173-.024.19.08l.138.8c.017.087-.01.12-.078.148a4.67 4.67 0 01-1.596.302c-1.38 0-2.26-.597-2.26-1.736 0-.88.43-1.415 1.34-1.743l.82-.292c.74-.268.89-.43.89-.82 0-.543-.32-.768-1.12-.768-.49 0-1.12.163-1.604.38-.094.042-.155.05-.172-.05l-.146-.805c-.016-.11-.016-.136.105-.19.51-.214 1.294-.36 1.89-.36 1.337 0 2.225.647 2.225 1.89 0 .922-.373 1.37-1.45 1.725m-3.327 2.655h-.8c-.125 0-.184-.026-.2-.13-.21-1.432-.5-3.097-.91-4.625h-.087c-.288 1.287-.554 2.874-.84 4.46-.018.088-.05.114-.145.114h-1.26c-.085 0-.127-.025-.144-.11-.28-1.57-.546-3.133-.86-4.46h-.09c-.363 1.45-.593 3.216-.808 4.623-.016.104-.068.13-.203.13h-.853c-.12 0-.176-.026-.153-.156.294-1.66.63-3.62 1.253-5.82.044-.13.12-.18.247-.18h1.064c.135 0 .194.05.228.19.35 1.51.66 3.06.916 4.287h.067c.255-1.218.57-2.728.89-4.29.025-.146.09-.19.227-.19h1.066c.127 0 .203.052.245.182.61 2.14 1.04 4.18 1.3 5.823.02.13-.033.157-.15.157m-8.05-5.118h-2.776v1.594h2.267c.08 0 .113.037.113.123v.8c0 .084-.035.12-.113.12h-2.267v1.43h2.72c.08 0 .113.034.113.12v.803c0 .087-.034.122-.112.122h-3.79c-.093 0-.137-.043-.137-.12v-5.912c0-.103.028-.13.14-.13h3.844c.075 0 .11.035.11.12v.804c0 .084-.035.12-.11.12m-5 5.116h-.853c-.12 0-.15-.035-.15-.147v-3.754h-.05l-2.97 3.83c-.034.052-.06.07-.155.07h-.707c-.095 0-.138-.052-.138-.12v-5.895c0-.112.024-.146.145-.146h.856c.12 0 .15.037.15.15v3.753h.052l2.96-3.744c.08-.11.14-.155.254-.155h.61c.12 0 .147.035.147.147v5.87c0 .113-.023.15-.144.15"/></g></svg>