<svg xmlns="http://www.w3.org/2000/svg" width="128" height="64" id="svg513"><style id="style462">.st0{fill:url(#path4169_1_)}.st1{fill:#a1a2a2}.st2{fill:url(#path4217_1_)}.st3{fill:#fff}.st4{fill:#ae2c3f}.st5{opacity:.4}</style><linearGradient id="path4169_1_" gradientUnits="userSpaceOnUse" x1="-913.145" y1="5.03" x2="-912.145" y2="5.03" gradientTransform="matrix(0 21.13063 21.13063 0 -47.96 19296.294)"><stop offset="0" id="stop464" stop-color="#868685"/><stop offset=".02" id="stop466" stop-color="#d8d9d9"/><stop offset=".052" id="stop468" stop-color="#f5f5f5"/><stop offset=".488" id="stop470" stop-color="#edeeee"/><stop offset=".895" id="stop472" stop-color="#f5f5f5"/><stop offset=".929" id="stop474" stop-color="#ebebec"/><stop offset=".964" id="stop476" stop-color="#d8d9d9"/><stop offset="1" id="stop478" stop-color="#868685"/></linearGradient><g id="g546" transform="translate(-.544 19.225) scale(1.10632)"><path d="M3.534 1.148c-1.644 0-2.223.973-2.223 2.571v15.633c0 1.61.579 2.57 2.223 2.57h109.603c1.645 0 2.224-.972 2.224-2.57V3.719c0-1.61-.58-2.57-2.224-2.57H3.534z" class="st0" id="path4169" fill="url(#path4169_1_)" stroke-width=".116"/><g transform="translate(.442 .442) scale(.1158)" id="g511"><path d="M972.1 191.3c21 0 27.4-13.1 27.4-26.1V26.6c0-13.1-6.4-26.1-27.4-26.1H27.9C6.9.5.5 13.6.5 26.6v138.5c0 13.1 6.4 26.1 27.4 26.1zm-943.2-1.8c-14.1 0-23.7-8.3-23.7-22.2V24.5c0-13.9 9.6-22.2 23.7-22.2h942.3c14.1 0 23.7 8.3 23.7 22.2v142.8c0 13.9-9.6 22.2-23.7 22.2H28.9z" class="st1" id="path4181" fill="#a1a2a2"/><linearGradient gradientTransform="rotate(-90 -82851.922 -82599.058) scale(179.4669)" y2="5.115" x2="-921.937" y1="5.115" x1="-922.937" gradientUnits="userSpaceOnUse" id="path4217_1_"><stop id="stop483" offset="0" stop-color="#820021"/><stop id="stop485" offset=".104" stop-color="#ae2c3f"/><stop id="stop487" offset="1" stop-color="#ba3c4c"/></linearGradient><path d="M337.9 6.1v179.5h635.4c14.2 0 19.2-8.4 19.2-22.2v-135c0-13.9-5-22.2-19.2-22.2H337.9z" class="st2" id="path4217" fill="url(#path4217_1_)"/><g id="g497"><path d="M426.5 152.5c-8 0-15.3-1.4-22-4.3-6.7-2.9-12.5-6.8-17.5-11.9-4.9-5.1-8.8-11.1-11.6-18-2.8-7-4.2-14.5-4.2-22.6 0-7.9 1.4-15.2 4.2-22.1 2.8-6.8 6.7-12.8 11.6-17.9 4.9-5.1 10.8-9 17.5-11.9 6.7-2.9 14.1-4.3 22-4.3 5.7 0 11.3.6 16.6 1.9 5.4 1.2 10.4 2.8 15 4.7 1 14.9-2.6 22.4-10.9 22.4-1.5 0-2.8-.2-4-.5-1.2-.3-2.6-.7-4-1-1.5-.3-3.1-.7-4.9-1-1.8-.3-3.9-.5-6.4-.5-3.9 0-7.6.7-11.1 2.1-3.5 1.4-6.5 3.4-9 6.1-2.5 2.6-4.5 5.8-6 9.5s-2.2 7.9-2.2 12.5c0 4.8.7 9.2 2.2 13 1.5 3.8 3.4 7 6 9.7 2.5 2.6 5.5 4.7 9 6.1 3.5 1.4 7.2 2.1 11.1 2.1 2.5 0 4.7-.2 6.6-.5 1.9-.3 3.6-.7 5.1-1 1.5-.3 2.9-.7 4.3-1 1.3-.3 2.7-.5 4.2-.5 8.2 0 11.8 7.5 10.9 22.4-4.6 1.9-9.7 3.5-15.4 4.7-5.7 1.1-11.4 1.8-17.1 1.8" class="st3" id="path4229" fill="#fff"/><path d="M484.5 151.1c-2.4 0-4.7-.1-7-.3-2.3-.2-4.2-.5-5.8-.8V52.4c0-3.3 1-6 3-8.3 2-2.3 5.8-3.5 11.4-3.5 2.3 0 4.7.1 7 .3 2.3.2 4.2.5 5.8.8v97.6c0 3.3-1 6-3 8.3-2 2.4-5.8 3.5-11.4 3.5" class="st3" id="path4233" fill="#fff"/><path d="M530.4 151.1c-2.2 0-4.4-.1-6.6-.3-2.1-.2-3.9-.5-5.4-.8V42.6c1.7-.6 3.9-1 6.6-1.4 2.7-.4 5-.6 6.9-.6 6.2 0 10.6.8 13.4 2.4 2.8 1.6 5.1 3.9 7.1 6.9l38.2 60.2V51.4c0-1.5.2-2.8.6-4.1.4-1.3 1.1-2.4 2-3.5 1-1 2.3-1.8 4-2.4 1.7-.6 3.8-.9 6.4-.9 2.2 0 4.4.1 6.5.3 2.1.2 3.8.4 5.3.7V149c-1.6.8-3.5 1.3-5.7 1.6-2.2.3-4.4.4-6.6.4-5.3 0-9.2-.7-11.8-2.2-2.6-1.5-4.7-3.5-6.4-6.1L544 77.5V140c0 3.1-1 5.8-2.9 7.9-1.8 2.2-5.4 3.2-10.7 3.2" class="st3" id="path4237" fill="#fff"/><path d="M649.8 150.4c-3.1 0-5.7-.3-7.6-1-1.9-.7-3.5-1.6-4.5-2.8-1.1-1.2-1.8-2.6-2.2-4.3-.4-1.7-.6-3.5-.6-5.4V54.4c0-1.9.2-3.7.6-5.4.4-1.7 1.1-3.1 2.2-4.3 1.1-1.2 2.6-2.1 4.5-2.8 1.9-.7 4.5-1 7.6-1h55.6c.2 1.2.5 2.9.7 5.1.2 2.1.3 4.3.3 6.6 0 4.7-.9 8.1-2.9 10-1.9 2-4.3 3-7.2 3H662v19.2h39.5c.2 1.1.5 2.6.7 4.5.2 1.9.3 3.9.3 6 0 4.5-.9 7.6-2.7 9.2-1.8 1.6-4 2.4-6.7 2.4H662v19h45c.2 1.2.5 2.9.7 5.1.2 2.2.3 4.4.3 6.5 0 4.8-1 8.2-2.9 10.1-1.9 1.9-4.3 2.9-7.2 2.9h-48.1z" class="st3" id="path4241" fill="#fff"/><path d="M730.6 151.1c-2.6 0-4.9-.3-6.8-.8-2-.5-3.7-1.1-5.1-1.8l10.3-105c2.1-.9 4.9-1.6 8.4-2.2 3.5-.6 6.4-.9 8.9-.9 3.5 0 6.5.2 9 .7 2.5.4 4.7 1.2 6.5 2.3 1.8 1.1 3.2 2.6 4.3 4.5 1.1 1.9 1.9 4.3 2.4 7.1l4.4 20.4c1.2 5.6 2.5 11.8 3.9 18.6 1.4 6.8 2.7 13.8 3.8 21h.7c1.2-7.2 2.5-14.2 3.9-20.9 1.3-6.7 2.7-12.9 4.2-18.5l5.4-21.4c1.3-5.3 3.5-8.9 6.5-10.8 3-1.9 7.6-2.9 13.8-2.9 3.1 0 6.3.3 9.5.8s5.8 1 8 1.6l9.8 105.6c-1.6.6-3.5 1.1-5.6 1.7-2.2.6-4.6.8-7.1.8-3.6 0-6.6-.6-9.1-1.9-2.5-1.2-3.8-3.5-4-6.9l-2.5-36.4c-.6-6.4-1-13.1-1.4-20.1-.4-7-.6-13.7-.8-20h-.3c-1.5 5.9-2.9 12.2-4.5 19-1.5 6.8-3.1 13.1-4.6 18.8l-6.9 28.6c-1.7 6.7-7 10.1-16 10.1-2.2 0-4.5-.2-6.9-.7-2.3-.4-4.4-.9-6-1.5l-8.6-35.7c-1.7-6.6-3.3-13.1-4.7-19.5-1.5-6.4-2.8-12.8-4-19.2h-.5c-.3 9-.8 17.2-1.3 24.7-.6 7.5-1.1 13.9-1.5 19.3l-2.7 32.9c-.2 3.3-1.5 5.5-3.7 6.7-2.6 1.3-5.5 1.9-9.1 1.9" class="st3" id="path4245" fill="#fff"/><path d="M889.2 105.1h25.1l-12.5-41.3zM863 151.5c-2.1 0-4.6-.2-7.3-.6-2.8-.4-5-.9-6.8-1.6l34.9-106.8c3-.8 6.1-1.4 9.2-1.7 3.1-.3 5.9-.5 8.5-.5 3.7 0 6.9.3 9.5.8 2.6.6 4.9 1.4 6.7 2.5 1.8 1.1 3.3 2.6 4.5 4.5 1.2 1.9 2.2 4 3 6.5l29.9 94.5c-1.9.8-4.2 1.4-6.9 1.8-2.7.4-5.3.6-7.9.6-2.9 0-5.7-.5-8.5-1.4-2.7-1-4.7-3.1-6-6.5l-5.7-17.4h-36.7l-4.9 16.3c-1.2 3.9-3.3 6.4-6.2 7.4-2.9 1-6.1 1.6-9.3 1.6" class="st3" id="path4249" fill="#fff"/></g><path d="M121.8 113.1c0 15.4-10 26.6-30.4 28.8-14.8 1.6-36.2-.3-46.3-1.5-.4-1.7-.7-3.7-.7-5.3 0-13.4 7.3-16.5 14.1-16.5 7.1 0 18.2 1.2 26.5 1.2 9.1 0 11.9-3.1 11.9-6 0-3.9-3.7-5.5-10.7-6.8l-19.3-3.7C50.6 100.1 42 89 42 77.2c0-14.4 10.2-26.4 30.2-28.6 15.1-1.6 33.5.2 43.6 1.5.4 1.7.6 3.4.6 5.2 0 13.4-7.1 16.3-13.9 16.3-5.2 0-13.4-1-22.6-1-9.4 0-13.4 2.6-13.4 5.8 0 3.4 3.7 4.7 9.6 5.8l18.5 3.4c19 3.4 27.2 14.2 27.2 27.5m33.2 16.5c0 8.2-3.2 13-19.3 13-2.1 0-4-.2-5.8-.4V32.8c0-8.3 2.8-17 19.1-17 2 0 4.1.2 6 .6zm65.7 42.3c2.1 1.1 6.4 2.4 11.9 2.5 9.3.2 14.4-3.4 18.2-11.7l50.1-111.8c-2.1-1.1-6.6-2.3-10.4-2.4-6.4-.1-15.1 1.2-20.6 14.4l-16.2 38.3-31.8-51.8c-2.1-.6-7.1-1.5-10.7-1.5-11.2 0-17.5 4.1-24 11.2l-30.9 33.8L181 132c4.6 7.1 10.7 10.8 20.5 10.8 6.4 0 11.8-1.5 14.3-2.7l-30-45.2L207 72.4l34.8 54.7z" class="st4" id="path4253" fill="#ae2c3f"/><g id="g509"><g id="g507"><g id="g4255"><g class="st5" id="g4269" opacity=".4"><g id="g4271"><g id="g4273"><g id="g4275"><g transform="translate(504.166 519.887)" id="g4277"><path d="M470.4-376.4c12.2 12 13.8 23.4 14.2 25.9 1.2 0 1.6-5.3 1.6-13.3v-127.4c0-14.8-4.8-19.7-17.3-19.7-4.2 0-8.5 2.3-14.1 2.3h-918.6c-5.6 0-9.9-2.3-14.1-2.3-12.5 0-17.3 5-17.3 19.7v127.4c0 7.9.4 13.3 1.6 13.3.4-2.5.8-14.8 14.2-25.9 107.4-82.8 834-108.3 949.8 0" class="st3" id="path4279" fill="#fff"/></g></g></g></g></g></g></g></g></g></g></svg>