<svg xmlns="http://www.w3.org/2000/svg" xmlns:xlink="http://www.w3.org/1999/xlink" width="128" height="64"><defs><linearGradient id="b"><stop offset="0" stop-color="#fff"/><stop offset="1" stop-color="#fff" stop-opacity=".369"/></linearGradient><linearGradient id="a"><stop offset="0" stop-color="#0e002e"/><stop offset=".05" stop-color="#0e002e"/><stop offset=".1" stop-color="#0e002e"/><stop offset=".15" stop-color="#1f0139"/><stop offset=".195" stop-color="#5a1254"/><stop offset=".25" stop-color="#8c195e"/><stop offset=".3" stop-color="#a11761"/><stop offset=".35" stop-color="#ab1661"/><stop offset=".4" stop-color="#ad1561"/><stop offset=".45" stop-color="#ae1561"/><stop offset=".5" stop-color="#ae1561"/><stop offset=".55" stop-color="#ae1561"/><stop offset=".6" stop-color="#ae1561"/><stop offset=".65" stop-color="#ad1561"/><stop offset=".699" stop-color="#a91661"/><stop offset=".75" stop-color="#9e1860"/><stop offset=".8" stop-color="#82185d"/><stop offset=".85" stop-color="#561153"/><stop offset=".902" stop-color="#0e002e"/><stop offset=".951" stop-color="#0e002e"/><stop offset="1" stop-color="#0e002e"/></linearGradient><linearGradient xlink:href="#a" id="c" x1="-109.904" y1="1266.26" x2="1131.079" y2="1266.26" gradientUnits="userSpaceOnUse"/><linearGradient xlink:href="#b" id="d" x1="374.563" y1="1092.362" x2="374.563" y2="1192.464" gradientUnits="userSpaceOnUse"/></defs><g style="line-height:125%;-inkscape-font-specification:'Sky Text Bold';text-align:start" font-weight="700" font-size="10" font-family="Sky Text"><path d="M13.328 51.953c-.412 0-.747-.044-1.005-.132a1.389 1.389 0 0 1-.596-.364 1.246 1.246 0 0 1-.288-.564 3.096 3.096 0 0 1-.077-.707V39.36c0-.25.026-.486.077-.707.052-.22.148-.408.288-.563.14-.155.338-.276.596-.364.258-.089.593-.133 1.005-.133h3.425c1.001 0 1.844.096 2.53.287.684.192 1.24.457 1.667.796.427.338.737.736.928 1.193.192.456.288.95.288 1.48 0 .721-.2 1.351-.597 1.889-.398.537-.95.946-1.657 1.226 1.002.31 1.712.755 2.132 1.336.42.582.63 1.234.63 1.956 0 1.355-.483 2.393-1.447 3.115-.965.722-2.42 1.082-4.364 1.082zm1.458-2.85h1.746c.869 0 1.494-.125 1.877-.375s.575-.685.575-1.303c0-.177-.03-.362-.089-.553a1.096 1.096 0 0 0-.342-.508c-.17-.147-.409-.269-.718-.365-.31-.095-.714-.143-1.215-.143h-1.834zm0-5.744h1.746c.427 0 .777-.044 1.05-.132.272-.089.49-.206.651-.354.162-.147.276-.313.343-.497.066-.184.099-.372.099-.564 0-.515-.17-.89-.508-1.126-.34-.236-.906-.353-1.701-.353h-1.68zm15.371 8.904c-1.104 0-2.106-.199-3.004-.597a7.086 7.086 0 0 1-2.31-1.612 7.082 7.082 0 0 1-1.48-2.387 8.223 8.223 0 0 1-.518-2.938c0-1.03.173-2 .519-2.905a6.99 6.99 0 0 1 1.48-2.364 6.89 6.89 0 0 1 2.309-1.58c.898-.383 1.9-.574 3.004-.574 1.105 0 2.107.191 3.005.574a6.89 6.89 0 0 1 2.309 1.58 6.99 6.99 0 0 1 1.48 2.364 8.07 8.07 0 0 1 .52 2.905 8.222 8.222 0 0 1-.52 2.938 7.082 7.082 0 0 1-1.48 2.387 7.086 7.086 0 0 1-2.309 1.612c-.898.398-1.9.597-3.005.597zm-.022-3.182c.5 0 .972-.11 1.414-.331a3.667 3.667 0 0 0 1.16-.917c.33-.39.589-.847.773-1.37a5.05 5.05 0 0 0 .276-1.69 5.24 5.24 0 0 0-.265-1.69 4.242 4.242 0 0 0-.74-1.359 3.482 3.482 0 0 0-1.138-.906 3.215 3.215 0 0 0-1.458-.331c-.515 0-.99.107-1.425.32a3.508 3.508 0 0 0-1.138.896 4.279 4.279 0 0 0-.762 1.358 5.055 5.055 0 0 0-.276 1.69c0 .619.092 1.193.276 1.723.184.53.434.99.75 1.381.317.39.693.693 1.128.906.434.214.91.32 1.425.32z"/><path d="M37.85 52.086c-.31 0-.67-.03-1.083-.088a4.707 4.707 0 0 1-1.016-.243l4.573-7.136-4.507-6.695c.295-.118.648-.21 1.06-.276.413-.066.825-.1 1.238-.1.412 0 .821.06 1.226.178s.755.42 1.05.906l2.209 3.777 2.23-3.822c.28-.471.612-.762.995-.872a4.184 4.184 0 0 1 1.171-.166c.295 0 .644.03 1.05.088.404.059.74.14 1.004.243l-4.396 6.938 4.64 6.893a5.01 5.01 0 0 1-1.094.276c-.434.066-.858.1-1.27.1a4.13 4.13 0 0 1-1.226-.188c-.405-.126-.755-.424-1.05-.895l-2.32-3.778-2.275 3.8c-.295.47-.634.765-1.017.883-.383.118-.78.177-1.192.177zm22.5.177c-1.104 0-2.106-.199-3.004-.597a7.086 7.086 0 0 1-2.309-1.612 7.082 7.082 0 0 1-1.48-2.387 8.223 8.223 0 0 1-.52-2.938c0-1.03.174-2 .52-2.905a6.989 6.989 0 0 1 1.48-2.364 6.89 6.89 0 0 1 2.309-1.58c.898-.383 1.9-.574 3.004-.574 1.105 0 2.107.191 3.005.574a6.89 6.89 0 0 1 2.31 1.58 6.99 6.99 0 0 1 1.48 2.364 8.07 8.07 0 0 1 .518 2.905 8.222 8.222 0 0 1-.519 2.938 7.083 7.083 0 0 1-1.48 2.387 7.086 7.086 0 0 1-2.309 1.612c-.898.398-1.9.597-3.005.597zm-.022-3.182c.5 0 .972-.11 1.414-.331a3.667 3.667 0 0 0 1.16-.917c.33-.39.589-.847.773-1.37a5.05 5.05 0 0 0 .276-1.69 5.24 5.24 0 0 0-.265-1.69 4.242 4.242 0 0 0-.74-1.359 3.482 3.482 0 0 0-1.138-.906 3.215 3.215 0 0 0-1.458-.331c-.515 0-.99.107-1.425.32a3.508 3.508 0 0 0-1.138.896 4.28 4.28 0 0 0-.762 1.358 5.055 5.055 0 0 0-.276 1.69c0 .619.092 1.193.276 1.723.184.53.434.99.75 1.381.317.39.693.693 1.128.906.434.214.91.32 1.425.32zm9.929 2.961c-.31 0-.615-.015-.917-.044a6.978 6.978 0 0 1-.762-.11V39.36c0-.25.026-.486.077-.707.052-.22.148-.408.287-.563.14-.155.339-.276.597-.364.258-.089.593-.133 1.005-.133h7.644c.03.177.06.401.089.674.03.272.044.556.044.85 0 .663-.136 1.112-.409 1.348a1.45 1.45 0 0 1-.983.354h-4.772V44h5.523c.03.162.063.376.1.64.036.266.055.538.055.818 0 .604-.126 1.013-.376 1.226-.25.214-.567.32-.95.32h-4.352v3.491a1.6 1.6 0 0 1-.398 1.094c-.265.302-.766.453-1.502.453zm10.511 0c-.31 0-.615-.015-.917-.044a6.976 6.976 0 0 1-.762-.11V39.36c0-.25.025-.486.077-.707.052-.22.148-.408.287-.563.14-.155.339-.276.597-.364.258-.089.593-.133 1.005-.133H88.7c.03.177.06.401.089.674.029.272.044.556.044.85 0 .663-.136 1.112-.409 1.348a1.45 1.45 0 0 1-.983.354h-4.772V44h5.523c.03.162.063.376.1.64.036.266.055.538.055.818 0 .604-.126 1.013-.376 1.226-.25.214-.567.32-.95.32h-4.352v3.491a1.6 1.6 0 0 1-.398 1.094c-.265.302-.766.453-1.502.453zm10.672 0c-.31 0-.616-.015-.918-.044a6.976 6.976 0 0 1-.762-.11V39.094a1.6 1.6 0 0 1 .398-1.093c.265-.302.765-.453 1.502-.453.309 0 .615.014.917.044.302.03.556.066.762.11v12.792a1.6 1.6 0 0 1-.398 1.094c-.265.302-.766.453-1.502.453zm10.207.176c-1.046 0-2.01-.187-2.894-.563a7.009 7.009 0 0 1-2.298-1.557 7.183 7.183 0 0 1-1.524-2.364 7.84 7.84 0 0 1-.553-2.961c0-1.03.185-1.995.553-2.894a7.24 7.24 0 0 1 1.524-2.342 7.01 7.01 0 0 1 2.298-1.557c.884-.376 1.848-.563 2.894-.563.751 0 1.48.08 2.187.243a12.3 12.3 0 0 1 1.966.618c.133 1.96-.346 2.938-1.436 2.938a2.02 2.02 0 0 1-.53-.066 13.633 13.633 0 0 0-1.17-.265 4.607 4.607 0 0 0-.84-.066 3.86 3.86 0 0 0-1.458.276 3.35 3.35 0 0 0-1.182.795 3.788 3.788 0 0 0-.784 1.248 4.427 4.427 0 0 0-.288 1.635c0 .633.096 1.2.288 1.701.191.501.452.925.784 1.271a3.35 3.35 0 0 0 1.182.795 3.86 3.86 0 0 0 1.458.276c.324 0 .611-.022.862-.066a16.145 16.145 0 0 0 1.237-.265c.177-.044.36-.067.552-.067 1.075 0 1.554.98 1.436 2.939-.604.25-1.277.456-2.021.618-.744.162-1.492.243-2.243.243zm7.325-.265c-.412 0-.747-.044-1.005-.132a1.399 1.399 0 0 1-.597-.364 1.246 1.246 0 0 1-.287-.564 3.096 3.096 0 0 1-.077-.707V39.36c0-.25.026-.486.077-.707.052-.22.148-.408.287-.563.14-.155.34-.276.597-.364.258-.089.593-.133 1.005-.133h7.313a9.562 9.562 0 0 1 .132 1.525c0 .618-.125 1.056-.375 1.314s-.567.387-.95.387h-4.507v2.518h5.192a7.57 7.57 0 0 1 .132 1.37c0 .59-.118.99-.353 1.204-.236.214-.53.32-.884.32h-4.087v2.497h5.921c.03.162.059.386.088.674.03.287.044.57.044.85 0 .634-.125 1.076-.375 1.326s-.567.375-.95.375z"/></g><path transform="translate(11.556 -99.95) scale(.10271)" d="M1110.078 1087.362c10 0 21 7 21 21v170c0 14-11 21-21 21H-88.902c-10 0-21-7-21-21v-170c0-14 11-21 21-21h1198.98z" fill="url(#c)" fill-rule="evenodd"/><path transform="translate(11.556 -99.95) scale(.10271)" d="M1001.024 1192.451c57 0 109-70 114.054-100.089H-93.902c5.053 30.09 57.388 100 114.388 100l980.538.09z" opacity=".47" fill="url(#d)" fill-rule="evenodd"/><g fill="#fff"><path d="M18.844 26.738c0 .966-.377 1.512-2.249 1.512-.246 0-.46-.013-.673-.044V15.469c0-.967.329-1.978 2.216-1.978.247 0 .476.023.706.076v13.171zm-4.005-1.927c0 1.791-1.166 3.101-3.53 3.357-1.723.186-4.218-.03-5.4-.164a2.791 2.791 0 0 1-.082-.63c0-1.565.837-1.926 1.641-1.926.821 0 2.118.151 3.086.151 1.051 0 1.38-.36 1.38-.704 0-.45-.427-.635-1.248-.794l-2.266-.434c-1.87-.361-2.872-1.656-2.872-3.032 0-1.677 1.182-3.078 3.513-3.335 1.756-.194 3.907.023 5.088.165.05.202.066.398.066.6 0 1.566-.82 1.904-1.625 1.904-.591 0-1.543-.113-2.626-.113-1.1 0-1.544.306-1.544.674 0 .388.427.545 1.1.672l2.167.398c2.2.403 3.152 1.662 3.152 3.211M26.69 31.67c.246.128.738.277 1.379.292 1.083.024 1.674-.39 2.117-1.37l5.844-13.023c-.23-.127-.771-.271-1.215-.278-.738-.014-1.756.135-2.396 1.672l-1.888 4.461-3.71-6.034a5.326 5.326 0 0 0-1.248-.179c-1.313 0-2.051.478-2.807 1.302l-3.594 3.948 2.889 4.558c.541.834 1.247 1.26 2.38 1.26.755 0 1.379-.173 1.674-.316l-3.48-5.256 2.462-2.63 4.055 6.374"/><path d="M92.2 30.21V16.885c0-1.057.846-1.48 2.115-1.48 1.058 0 1.481.211 1.481.211v13.326c0 .847-.635 1.481-1.904 1.481-1.057 0-1.692-.211-1.692-.211zm24.114.212c-2.538 0-3.994-.4-5.288-.846v-.635c0-1.48.634-2.326 1.692-2.326.846 0 2.327.634 3.808.634 1.269 0 2.115-.423 2.115-1.269 0-1.915-7.615-.846-7.615-6.134 0-3.808 3.165-4.442 5.923-4.442 2.961 0 4.653.846 4.653.846 0 1.904-.211 2.75-1.692 2.75-1.058 0-2.115-.423-3.384-.423-1.27 0-1.904.423-1.904 1.057 0 2.539 7.826.423 7.826 6.346 0 3.173-2.538 4.442-6.134 4.442zM76.547 15.615s.423-.211 1.904-.211c1.48 0 2.115.846 2.327 1.48l2.75 9.73 2.75-9.73c.422-1.269 1.268-1.48 2.326-1.48 1.27 0 1.692.211 1.692.211l-4.019 12.903c-.423 1.27-1.269 1.904-2.961 1.904-1.48 0-2.115-.211-2.115-.211l-4.654-14.596z" fill-rule="evenodd"/><path d="M68.747 15.406c-4.145 0-7.51 3.344-7.51 7.464 0 4.12 3.365 7.464 7.51 7.464s7.51-3.344 7.51-7.464c0-4.12-3.365-7.464-7.51-7.464zm-.238 3.364c.07-.003.14 0 .212 0 2.277 0 4.124 1.837 4.124 4.1s-1.847 4.1-4.124 4.1c-2.277 0-4.125-1.837-4.125-4.1 0-2.192 1.735-3.99 3.913-4.1z"/><path d="M98.757 30.21V15.616h9.942s.212.423.212 1.481-.423 1.692-1.481 1.692h-5.077v2.539h5.923s.212.211.212 1.269c0 1.269-.423 1.692-1.693 1.692h-4.442v2.75h6.77s.21.423.21 1.269c0 1.48-.845 1.904-1.903 1.904h-8.673zm-39.343 0h-3.596V19l-3.596 9.307c-.635 1.269-1.481 1.904-3.596 1.904-1.693 0-2.75-.212-2.75-.212V19l-5.077 11.212H36.78l5.923-12.903c.635-1.27 1.48-1.956 3.807-1.904 1.904 0 2.75.211 2.75.211v11.211l3.808-9.73c.423-1.058 1.48-1.692 3.807-1.692 1.48 0 2.539.211 2.539.211v14.596z" fill-rule="evenodd"/></g></svg>