<svg xmlns="http://www.w3.org/2000/svg" width="128" height="64" xmlns:xlink="http://www.w3.org/1999/xlink"><defs><linearGradient id="b"><stop stop-color="#eeeff1" stop-opacity=".133" offset="0"/><stop stop-color="#fff5f5" stop-opacity=".851" offset="1"/></linearGradient><linearGradient id="a"><stop stop-color="#dbdbdb" offset="0"/><stop stop-color="#dadada" offset=".1"/><stop stop-color="#d9d9d9" offset=".2"/><stop stop-color="#e0e0e0" offset=".3"/><stop stop-color="#e9e9e9" offset=".4"/><stop stop-color="#f1f1f1" offset=".5"/><stop stop-color="#f7f7f7" offset=".6"/><stop stop-color="#fbfbfb" offset=".7"/><stop stop-color="#fefefe" offset=".8"/><stop stop-color="#fff" offset=".9"/><stop stop-color="#fff" offset="1"/></linearGradient><linearGradient y2="1" x2="1" x1="1" id="c" xlink:href="#a"/><linearGradient x2=".778" y1="1" x1=".778" id="d" xlink:href="#b"/></defs><g stroke="null"><g stroke="#000" fill="#9d9d9d" stroke-width="16.763" fill-rule="evenodd"><path stroke="#9b9b9b" fill="#9b9b9b" d="M3.67 21.856h120.57c.94 0 1.974.658 1.974 1.974v15.98c0 1.316-1.034 1.974-1.974 1.974H3.67c-.94 0-1.974-.658-1.974-1.974V23.83c0-1.316 1.034-1.974 1.974-1.974z" stroke-width=".094"/><path stroke="#fff" fill="#fff" stroke-width=".752.382" d="M3.67 21.856h120.57c.94 0 1.974.658 1.974 1.974v15.98c0 1.316-1.034 1.974-1.974 1.974H3.67c-.94 0-1.974-.658-1.974-1.974V23.83c0-1.316 1.034-1.974 1.974-1.974z"/></g><path fill="url(#c)" fill-rule="evenodd" d="M-737.354-3986.46l1-1v-210l-1-1h-364c-10 0-21 7-21 21v170c0 14 11 21 21 21h364z" transform="matrix(.094 0 0 .094 107.207 416.56)"/><path fill="#00345e" fill-rule="evenodd" d="M37.896 41.834V21.906h86.354c.94 0 1.974.658 1.974 1.974v15.98c0 1.316-1.034 1.974-1.974 1.974H37.896z"/><path fill="url(#d)" fill-rule="evenodd" d="M-991.964-4093.46c-57 0-109.336-69.91-114.39-100H185.884c-5.053 30.09-57.053 100.09-114.053 100.09" transform="matrix(.094 0 0 .094 107.207 416.56)"/><path fill="#fff" d="M118.163 38.897c-1.105-.11-1.99-.46-2.814-1.11a8.065 8.065 0 01-.98-.976 8.36 8.36 0 01-.65-.97c-.44-.786-.74-1.79-.86-2.85a12.928 12.928 0 01-.03-1.654c.074-1.1.345-2.14.78-3.012.49-.97 1.285-1.89 2.11-2.434.725-.48 1.67-.777 2.584-.813.274-.01.35-.004 1.11.09.45.055.872.11.942.12.326.055.944.246 1.394.43l.298.125c.044.018.053.036.062.124a6.28 6.28 0 01-.054.936c-.06.366-.16.663-.31.914-.05.08-.108.136-.25.238-.157.11-.22.14-.38.188l-.19.056-.3-.063a10.475 10.475 0 01-.58-.14c-.99-.267-1.67-.275-2.295-.026-.45.175-.94.58-1.3 1.052-.45.6-.713 1.28-.823 2.108a8.432 8.432 0 000 1.524c.113.804.33 1.4.72 1.973.567.83 1.33 1.306 2.17 1.36.16.01.27-.004.946-.11.42-.068.922-.153 1.115-.19l.35-.067.196.046a.83.83 0 01.364.17c.2.143.237.187.35.43.175.365.256.8.258 1.38l.002.39-.208.09c-.27.112-.82.296-1.187.395-.25.07-.412.098-1.165.19-.84.106-1.104.125-1.38.097zm-76.677-.23a17.223 17.223 0 01-.66-.09c-.012-.012-.094.24 1.333-4.106l2.41-7.36c.28-.85.51-1.55.52-1.56.01-.01.41-.07.886-.13.86-.115.874-.116 1.233-.107.2.006.454.024.565.04.25.04.626.16.793.253.316.177.565.58.78 1.27.078.25.404 1.278 1.24 3.92L52 35.237c.916 2.883 1.05 3.32 1.022 3.33-.018.01-.37.056-.78.107-.644.08-.776.09-.97.08a2.11 2.11 0 01-.758-.18 1.15 1.15 0 01-.468-.435 33.63 33.63 0 01-.455-1.32l-.406-1.222h-4.61l-.04.125c-.023.067-.178.59-.345 1.16-.18.62-.33 1.1-.374 1.186-.046.1-.11.19-.196.28-.2.21-.243.226-.84.326a6.71 6.71 0 01-.583.085c-.038 0-.36-.038-.72-.083zm7.162-5.222c-.136-.482-1.718-5.73-1.727-5.73 0 0-.06.178-.13.397-.22.72-1.37 4.534-1.49 4.945l-.13.427c-.007.02.35.025 1.75.025h1.754l-.02-.07zm7.29 5.26c-.31-.026-.563-.048-.566-.05-.003 0-.005-2.444-.005-5.43v-5.432h-3.453l-.01-.074c-.007-.04-.03-.27-.054-.51-.068-.69-.037-1.046.118-1.378a.89.89 0 01.35-.41c.218-.118-.073-.11 4.86-.112h4.513l.01.046c.01.024.03.256.06.515.066.74.036 1.074-.13 1.42a.878.878 0 01-.365.39c-.207.106-.232.108-1.702.108H58.2l-.005 5.045-.004 5.043-.05.158a.856.856 0 01-.453.53c-.347.184-.772.217-1.743.136zm15.855-.04c-.36-.045-.657-.086-.66-.09-.006-.005.44-1.37.99-3.033l2.14-6.502c.63-1.912 1.15-3.484 1.16-3.494.01-.01.404-.07.877-.134.85-.114.864-.115 1.224-.106.415.01.66.045.958.13.5.145.74.358.988.87.103.215.11.24.705 2.116.742 2.34 1.106 3.487 2.162 6.806.918 2.884 1.052 3.32 1.024 3.332-.01.008-.36.055-.78.106-.64.08-.77.09-.97.08a1.997 1.997 0 01-.75-.18c-.186-.09-.39-.276-.47-.437-.03-.06-.23-.63-.443-1.26l-.413-1.22-.022-.066H74.9l-.05.162-.347 1.173c-.17.566-.33 1.074-.367 1.153-.076.16-.236.344-.378.435-.085.054-.142.07-.636.15-.3.046-.574.085-.61.084-.036 0-.36-.04-.72-.083zm7.163-5.22c-.136-.482-1.718-5.73-1.727-5.73-.01 0-.07.178-.14.397-.22.72-1.374 4.534-1.497 4.945l-.13.427c-.007.02.35.025 1.747.025h1.757l-.018-.07zm6.2 5.258l-.556-.047c-.003 0-.005-2.97-.005-6.6v-6.6l.044-.01c.2-.043 1.44-.187 1.62-.187.61 0 1.16.11 1.5.31.17.1.402.32.55.524.06.087.405.704.764 1.372l3.12 5.776.734 1.36.01-4.308c.01-3.525.015-4.323.036-4.387.047-.138.144-.303.22-.373.18-.16.486-.26.863-.28.2-.008 1.225.05 1.45.085l.063.01v13.24l-.064.01c-.205.035-1.34.15-1.477.15a4.5 4.5 0 01-1.22-.19c-.365-.12-.67-.316-.85-.543-.07-.084-.755-1.355-2.23-4.13-1.17-2.202-2.216-4.164-2.32-4.36l-.19-.352.01 1.748c.008.96.015 2.937.017 4.39.005 2.517.004 2.647-.03 2.76-.05.165-.1.25-.195.347-.155.16-.37.25-.683.308-.227.037-.536.03-1.19-.023zm15.977 0l-.564-.047c-.01 0-.01-2.445-.01-5.432v-5.43h-3.45l-.01-.104c-.076-.666-.09-1.167-.047-1.44.068-.414.22-.683.458-.81.244-.13-.09-.12 4.88-.122h4.514l.01.045c.027.13.073 1.034.063 1.242-.024.536-.21.923-.523 1.08-.207.106-.232.108-1.702.108h-1.36l-.005 5.043c-.004 4.77-.006 5.05-.04 5.16-.104.354-.273.523-.65.648-.35.12-.67.13-1.563.06zm7.78.002l-.566-.048c-.003 0-.005-2.797-.004-6.213 0-6.81-.008-6.343.116-6.608.17-.367.64-.576 1.29-.576.15 0 1.195.084 1.35.11l.064.01-.005 6.25-.005 6.25-.052.16a.858.858 0 01-.452.528c-.346.184-.77.218-1.742.137zm-44.598-.07c-.513-.076-.852-.272-.993-.574-.137-.29-.126.23-.132-6.1-.006-5.09-.003-5.72.024-5.84a.977.977 0 01.717-.764c.17-.05.47-.09.66-.09.16 0 1.23.085 1.38.11l.07.01v10.8h4.454l.01.095c.007.05.028.313.047.58.038.543.025.814-.053 1.09-.084.306-.203.47-.42.574-.28.136-.07.127-2.996.13-1.452 0-2.694-.004-2.76-.014z"/><path fill="#00345e" d="M18.308 35.624c0 .91-.355 1.424-2.118 1.424-.232 0-.433-.013-.634-.042V25.008c0-.91.31-1.863 2.087-1.863.232 0 .45.022.665.07v12.41zm-3.773-1.816c0 1.687-1.097 2.92-3.324 3.162-1.62.175-3.97-.027-5.08-.154a2.594 2.594 0 01-.08-.594c0-1.474.79-1.814 1.55-1.814.772 0 1.993.142 2.906.142.99 0 1.3-.34 1.3-.663 0-.424-.403-.598-1.176-.748l-2.135-.41c-1.763-.34-2.707-1.56-2.707-2.86 0-1.58 1.114-2.9 3.31-3.14 1.654-.18 3.68.02 4.793.153.046.19.06.373.06.563 0 1.476-.77 1.795-1.53 1.795-.556 0-1.453-.106-2.473-.106-1.036 0-1.454.29-1.454.633 0 .365.4.514 1.037.633l2.04.377c2.07.38 2.967 1.564 2.967 3.023m11.165 6.46c.23.12.696.262 1.3.276 1.02.022 1.576-.368 1.993-1.29L34.5 26.983c-.217-.12-.728-.255-1.145-.26-.696-.015-1.655.125-2.258 1.573l-1.78 4.203-3.494-5.687a4.998 4.998 0 00-1.175-.168c-1.237 0-1.933.45-2.644 1.225l-3.386 3.72 2.72 4.294c.51.786 1.176 1.186 2.243 1.186.72 0 1.3-.16 1.58-.292l-3.28-4.95 2.32-2.478 3.82 6.002"/></g></svg>