<?xml version="1.0" encoding="UTF-8" standalone="no"?>

<svg xmlns:svg="http://www.w3.org/2000/svg" xmlns="http://www.w3.org/2000/svg" version="1.1" width="128" height="64" xmlns:xlink="http://www.w3.org/1999/xlink">
	<defs>
		<linearGradient id="linearGradient2997">
			<stop stop-color="#eeeff1" stop-opacity="0.13333" offset="0" id="stop2999"/>
			<stop stop-color="#fff5f5" stop-opacity="0.85098" offset="1" id="stop3001"/>
		</linearGradient>
		<linearGradient id="linearGradient2983">
			<stop stop-color="#dbdbdb" offset="0" id="stop2985"/>
			<stop stop-color="#dadada" id="stop3656" offset="0.1"/>
			<stop stop-color="#d9d9d9" id="stop3654" offset="0.2"/>
			<stop stop-color="#e0e0e0" id="stop3652" offset="0.3"/>
			<stop stop-color="#e9e9e9" id="stop3650" offset="0.4"/>
			<stop stop-color="#f1f1f1" id="stop3648" offset="0.5"/>
			<stop stop-color="#f7f7f7" id="stop2987" offset="0.6"/>
			<stop stop-color="#fbfbfb" id="stop2989" offset="0.7"/>
			<stop stop-color="#fefefe" id="stop2991" offset="0.8"/>
			<stop stop-color="#ffffff" id="stop2993" offset="0.9"/>
			<stop stop-color="#ffffff" offset="1" id="stop2995"/>
		</linearGradient>
		<linearGradient id="linearGradient2808">
			<stop stop-color="#101112" id="stop2810" offset="0"/>
			<stop stop-color="#151617" offset="0.2" id="stop2981"/>
			<stop stop-color="#1a1b1c" offset="0.4" id="stop2979"/>
			<stop stop-color="#242526" offset="0.60313" id="stop2977"/>
			<stop stop-color="#393a3b" offset="0.8" id="stop2975"/>
			<stop stop-color="#636364" id="stop2812" offset="1"/>
		</linearGradient>
		<linearGradient y2="1092.3572" x2="468" y1="1192.3622" x1="468" gradientUnits="userSpaceOnUse" id="linearGradient2889-1" xlink:href="#linearGradient2808-7" gradientTransform="translate(-379.15853,-3.2054596)"/>
		<linearGradient id="linearGradient2808-7">
			<stop stop-color="#101112" id="stop2810-4" offset="0"/>
			<stop stop-color="#636364" id="stop2812-0" offset="1"/>
		</linearGradient>
		<linearGradient y2="1" x2="1" y1="0" x1="1" id="linearGradient3015" xlink:href="#linearGradient2983"/>
		<linearGradient y2="0" x2="0.77772" y1="1" x1="0.77772" id="linearGradient3646" xlink:href="#linearGradient2997"/>
	</defs>

	<g stroke="null" transform="matrix(0.09771656685199882,0,0,0.09771656685199882,113.11122039218023,439.82372274445794) " id="g2874">
		<g stroke="null" transform="matrix(0.82477903,0,0,0.82477903,35.849186,175.83776) " id="g3003">
			<g stroke="#000000" fill="#9d9d9d" stroke-width="16.76337" transform="matrix(1.1663984,0,0,1.1663984,-116.25886,-499.94441) " id="g2932">
				<path stroke="#9b9b9b" fill="#9b9b9b" fill-rule="evenodd" stroke-width="16.76337" d="m-1101.35364,-4198.45947c10,0 1272.66527,0 1282.66527,0c10,0 21,7 21,21l0,170.00024c0,14 -11,21 -21,21c-10,0 -1272.66527,0 -1282.66527,0c-10,0 -21,-7 -21,-21l0,-170.00024c0,-14 11,-21 21,-21z" id="path2963"/>
				<path stroke="#ffffff" fill="#ffffff" fill-rule="evenodd" stroke-width="8.38168" id="path2938" d="m-1101.35364,-4198.45947c10,0 1272.66527,0 1282.66527,0c10,0 21,7 21,21l0,170.00024c0,14 -11,21 -21,21c-10,0 -1272.66527,0 -1282.66527,0c-10,0 -21,-7 -21,-21l0,-170.00024c0,-14 11,-21 21,-21z"/>
			</g>
			<g stroke="null" id="g2888" transform="matrix(1.1663984,0,0,1.1663984,-116.25886,-499.94441) ">
				<path fill="url(#linearGradient3015)" fill-rule="evenodd" d="m-737.35352,-3986.45923l1,-1l0,-210.00024l-1,-1l-364.00012,0c-10,0 -21,7 -21,21l0,170.00024c0,14 11,21 21,21l364.00012,0z" id="path2780"/>
				<path fill="#00345e" fill-rule="evenodd" id="path2774" d="m-737.35352,-3986.45923l0,-212.00024l918.66515,0c10,0 21,7 21,21l0,170.00024c0,14 -11,21 -21,21l-918.66515,0z"/>
				<path fill="url(#linearGradient3646)" fill-rule="evenodd" d="m-991.96405,-4093.45923c-57.00018,0 -109.336,-69.9104 -114.38959,-100.00024l1292.23802,0c-5.05359,30.08984 -57.05359,100.0896 -114.0536,100.0896" id="path2776"/>
				<path stroke="null" fill="#ffffff" id="path3645" d="m116.55553,-4017.69897c-11.76257,-1.18018 -21.17871,-4.89502 -29.94251,-11.81396c-2.72534,-2.15186 -8.14355,-7.57715 -10.3645,-10.37891c-2.08276,-2.62744 -5.14648,-7.2417 -6.89794,-10.39014c-4.65845,-8.37256 -7.87806,-19.06836 -9.12611,-30.31738c-0.44958,-4.05127 -0.61291,-13.16113 -0.31628,-17.61792c0.77747,-11.67578 3.65502,-22.77539 8.30494,-32.03369c5.18506,-10.32471 13.64832,-20.09814 22.43127,-25.90576c7.71021,-5.09766 17.7577,-8.2583 27.4784,-8.64307c2.92261,-0.1167 3.71985,-0.05225 11.80603,0.94678c4.76965,0.58887 9.28308,1.16992 10.03015,1.29199c3.47766,0.56836 10.04749,2.59863 14.83606,4.58594c1.43665,0.5957 2.85925,1.18408 3.16113,1.30762c0.46924,0.19043 0.56567,0.38281 0.66223,1.31934c0.15698,1.52441 -0.19495,7.63232 -0.57544,9.95996c-0.63843,3.91016 -1.71228,7.0708 -3.30859,9.73828c-0.5177,0.86523 -1.12378,1.44141 -2.65588,2.52246c-1.65125,1.1665 -2.32629,1.50146 -4.01416,1.99414l-2.02893,0.5918l-3.19495,-0.67773c-1.7572,-0.37305 -4.53613,-1.04199 -6.17505,-1.48633c-10.53662,-2.85645 -17.77441,-2.94238 -24.40894,-0.29004c-4.76062,1.9043 -9.99976,6.1665 -13.79871,11.22559c-4.79895,6.3916 -7.61938,13.58496 -8.78455,22.40332c-0.50342,3.80835 -0.50391,12.57153 0,16.19507c1.18432,8.54102 3.50061,14.88672 7.65698,20.97705c6.0199,8.82031 14.12341,13.90479 23.06714,14.47217c1.67883,0.10693 2.87634,-0.03467 10.05518,-1.17578c4.48218,-0.71338 9.82617,-1.61768 11.87561,-2.0083l3.72607,-0.71143l2.07263,0.52588c1.80737,0.45801 2.30127,0.68848 3.85938,1.80322c2.12329,1.51855 2.50806,1.99023 3.73254,4.57764c1.83582,3.87842 2.69385,8.52002 2.71802,14.70215l0.02002,4.16211l-2.19409,0.92139c-2.87012,1.20459 -8.71729,3.16113 -12.60901,4.21777c-2.672,0.7251 -4.3894,1.00195 -12.39319,1.99561c-8.93347,1.10889 -11.78528,1.30518 -14.70007,1.01318l-0.00488,0zm-815.71342,-2.45117c-3.81549,-0.47852 -6.9809,-0.91357 -7.03436,-0.96777c-0.11798,-0.11865 -0.99194,2.57031 14.19122,-43.66553c12.94855,-39.43042 16.69708,-50.86255 25.69623,-78.36011c2.95251,-9.021 5.44995,-16.48975 5.54974,-16.59619c0.09985,-0.10693 4.3446,-0.74609 9.43292,-1.42188c9.12726,-1.21191 9.30359,-1.22656 13.11737,-1.12305c2.12616,0.05762 4.83185,0.25488 6.01251,0.43848c2.68237,0.41699 6.66748,1.6792 8.4516,2.67676c3.36902,1.88477 6.01654,6.19336 8.31091,13.52637c0.82623,2.64111 4.29248,13.5791 13.20844,41.68018c2.07855,6.55029 8.83557,27.80151 15.01563,47.22437c9.76361,30.68506 11.1908,35.33252 10.88794,35.45557c-0.19177,0.0791 -3.92181,0.58398 -8.28906,1.12451c-6.8653,0.84961 -8.26575,0.96582 -10.34344,0.86035c-2.89368,-0.14648 -5.6991,-0.82031 -8.04492,-1.93115c-1.96667,-0.93164 -4.12274,-2.92725 -4.9707,-4.60059c-0.29523,-0.58252 -2.47626,-6.90576 -4.84662,-14.05127l-4.30988,-12.9917l-24.52441,0l-24.52448,0l-0.43225,1.30566c-0.23779,0.71826 -1.88751,6.28125 -3.66614,12.36133c-1.92719,6.58887 -3.53192,11.68311 -3.97156,12.60889c-0.49994,1.05273 -1.17761,2.00928 -2.10199,2.9668c-2.15875,2.23584 -2.59808,2.40674 -8.93469,3.47217c-3.01404,0.50684 -5.8092,0.91162 -6.21143,0.8999c-0.40228,-0.01953 -3.85309,-0.41357 -7.66858,-0.89209zm76.19464,-55.55176c-1.45178,-5.12744 -18.27875,-60.96362 -18.37225,-60.96362c-0.07068,0 -0.70856,1.90381 -1.41724,4.23145c-2.33124,7.65527 -14.6106,48.22974 -15.92029,52.60571c-0.7052,2.35547 -1.32208,4.40137 -1.37079,4.54492c-0.07031,0.20703 3.73969,0.26123 18.59216,0.26123l18.68066,0l-0.19232,-0.67969l0.00006,0zm77.53632,55.94824c-3.27545,-0.27246 -5.97882,-0.50098 -6.00757,-0.5083c-0.02881,0 -0.05219,-26.01318 -0.05219,-57.79053l0,-57.7771l-18.37006,0l-18.37,0l-0.11761,-0.78369c-0.06482,-0.43066 -0.31873,-2.85205 -0.5647,-5.38086c-0.71411,-7.34131 -0.39105,-11.08838 1.26099,-14.62695c0.91772,-1.96631 2.28003,-3.55566 3.71796,-4.33838c2.32312,-1.26367 -0.77515,-1.19238 51.71576,-1.19531l48.00443,0l0.10254,0.46973c0.05627,0.25879 0.30444,2.72656 0.55206,5.48535c0.70465,7.84766 0.38165,11.39941 -1.37329,15.10352c-0.82898,1.75 -2.32288,3.33643 -3.88708,4.12891c-2.20514,1.11816 -2.46942,1.13477 -18.10706,1.13818l-14.4675,0l-0.0542,53.65015l-0.05432,53.65039l-0.57318,1.69043c-0.90686,2.67432 -2.28876,4.29199 -4.80981,5.62988c-3.69336,1.95947 -8.21014,2.31396 -18.54279,1.45508l-0.00238,-0.00049zm168.67886,-0.41064c-3.82318,-0.48633 -6.98846,-0.92139 -7.03339,-0.96777c-0.04425,-0.0459 4.69415,-14.56445 10.53217,-32.26318c5.83795,-17.69922 16.08795,-48.82251 22.77783,-69.16577c6.6897,-20.3418 12.24487,-37.07129 12.34485,-37.17676c0.10022,-0.104 4.29883,-0.74512 9.33081,-1.42188c9.0437,-1.21631 9.19348,-1.22852 13.01501,-1.12549c4.41577,0.11816 7.04114,0.47705 10.19812,1.38916c5.3147,1.53564 7.88269,3.79834 10.50635,9.25781c1.09631,2.28125 1.18164,2.53711 7.50549,22.49561c7.89111,24.90479 11.76306,37.09497 22.9978,72.40405c9.76381,30.68506 11.19093,35.33252 10.88795,35.45557c-0.19092,0.0791 -3.92165,0.58398 -8.28883,1.12451c-6.86548,0.84961 -8.26587,0.96582 -10.34351,0.86035c-2.89368,-0.14648 -5.6991,-0.82031 -8.04492,-1.93115c-1.98328,-0.93945 -4.12439,-2.93018 -4.99121,-4.64063c-0.30615,-0.60449 -2.42896,-6.62207 -4.71704,-13.37207c-2.28821,-6.75 -4.26953,-12.57813 -4.4032,-12.95166l-0.24316,-0.6792l-24.51978,0l-24.51935,0l-0.52039,1.72363c-0.28601,0.94824 -1.94672,6.56641 -3.69043,12.48584c-1.7746,6.02246 -3.48517,11.42529 -3.88519,12.26855c-0.80859,1.70703 -2.50781,3.66797 -4.0163,4.63574c-0.91241,0.58545 -1.50958,0.7251 -6.77197,1.58545c-3.17419,0.51855 -6.08295,0.93213 -6.46399,0.91846c-0.38092,-0.01904 -3.82062,-0.42285 -7.64374,-0.90918zm76.20874,-55.5376c-1.45178,-5.12744 -18.27881,-60.96362 -18.37231,-60.96362c-0.07104,0 -0.70837,1.90381 -1.41724,4.23145c-2.33118,7.65527 -14.6106,48.22974 -15.92029,52.60571c-0.70532,2.35547 -1.32202,4.40137 -1.37085,4.54492c-0.07007,0.20703 3.73962,0.26123 18.59216,0.26123l18.68066,0l-0.19287,-0.67969l0.00073,0zm65.9391,55.93506c-3.2179,-0.26563 -5.87439,-0.48877 -5.90308,-0.49561c-0.02905,0 -0.052,-31.60547 -0.052,-70.21924l0,-70.2063l0.46997,-0.10254c2.1593,-0.46777 15.35229,-1.99512 17.22925,-1.99365c6.51721,0 12.38159,1.24414 16.0271,3.38623c1.83508,1.0791 4.29358,3.42383 5.8396,5.5708c0.66296,0.9209 4.33655,7.48584 8.16394,14.58936c10.09119,18.72949 24.16443,44.8186 33.15137,61.45825l7.8219,14.48193l0.10657,-45.82593c0.08691,-37.49756 0.15662,-45.97852 0.38574,-46.6626c0.49316,-1.47314 1.53235,-3.22559 2.35364,-3.96729c1.88623,-1.70459 5.15881,-2.76172 9.16919,-2.96484c2.10669,-0.10596 13.03235,0.52588 15.41076,0.8916l0.67908,0.10449l0,70.40063l0,70.3999l-0.67908,0.11279c-2.18041,0.36328 -14.27197,1.57715 -15.71191,1.57715c-3.89099,0 -9.62048,-0.88428 -12.96912,-2.00195c-3.88025,-1.29492 -7.13135,-3.37451 -9.05518,-5.79248c-0.71973,-0.9043 -8.01526,-14.42334 -23.7063,-43.92871c-12.46667,-23.44189 -23.5752,-44.31421 -24.68567,-46.38354l-2.01917,-3.76074l0.12073,18.59766c0.06702,10.22827 0.1405,31.24438 0.16687,46.7019c0.04199,26.78076 0.026,28.16406 -0.34033,29.35254c-0.54663,1.77148 -1.04504,2.66309 -2.06934,3.70215c-1.6405,1.66406 -3.9176,2.67383 -7.26257,3.22119c-2.40613,0.39355 -5.69324,0.33008 -12.64172,-0.24414l-0.00024,0.00098zm169.98803,0c-3.27527,-0.26465 -5.97888,-0.4873 -6.0072,-0.49414c-0.02905,0 -0.052,-26.01318 -0.052,-57.79053l0,-57.7771l-18.37365,0l-18.37329,0l-0.11658,-1.09766c-0.75721,-7.08203 -0.91113,-12.41504 -0.44141,-15.30566c0.71716,-4.41797 2.33032,-7.27637 4.86803,-8.62891c2.58618,-1.37891 -0.95715,-1.29004 51.91895,-1.29395l48.00427,0l0.099,0.46973c0.29382,1.39355 0.78699,11 0.67871,13.21729c-0.27893,5.70605 -2.28064,9.82227 -5.59326,11.50195c-2.20508,1.11719 -2.46924,1.1333 -18.10742,1.13672l-14.4679,0l-0.05396,53.65015c-0.052,50.74463 -0.07507,53.71826 -0.42676,54.90381c-1.1156,3.7583 -2.90881,5.55127 -6.88904,6.88574c-3.76941,1.26367 -7.1687,1.39063 -16.66479,0.62256l-0.00171,0zm82.74792,0.02002c-3.27539,-0.27246 -5.97888,-0.50146 -6.00732,-0.5083c-0.02905,0 -0.05005,-29.75098 -0.0481,-66.09668c0,-72.44214 -0.08496,-67.47778 1.23779,-70.30151c1.82507,-3.90088 6.82422,-6.12061 13.79822,-6.12646c1.61218,0 12.72229,0.89844 14.37341,1.16504l0.68164,0.11035l-0.05408,66.49146l-0.05396,66.4917l-0.57324,1.69043c-0.9071,2.6748 -2.28882,4.29199 -4.81006,5.62988c-3.69324,1.95947 -8.20996,2.31396 -18.5426,1.45508l-0.00171,-0.00098zm-474.43751,-0.75244c-5.45233,-0.80371 -9.06384,-2.88672 -10.56494,-6.09473c-1.45148,-3.10205 -1.33289,2.38965 -1.40283,-64.9292c-0.05634,-54.21069 -0.02802,-60.86011 0.26086,-62.17456c0.90741,-4.12305 3.51709,-6.9043 7.62805,-8.12939c1.74573,-0.51904 4.90149,-0.94873 7.00006,-0.95166c1.70813,0 13.05127,0.89551 14.67938,1.16211l0.67914,0.11035l0,57.4541l0,57.45483l23.69,0l23.68994,0l0.12067,0.99219c0.06531,0.5459 0.2854,3.32666 0.4856,6.18018c0.40442,5.76855 0.2666,8.64844 -0.55493,11.59814c-0.90405,3.24365 -2.17719,4.97803 -4.47644,6.09619c-2.97565,1.44727 -0.74017,1.35059 -31.8808,1.38477c-15.45776,0.01855 -28.66724,-0.05225 -29.35455,-0.15332l0.00079,0z"/>
				<path fill="#00345e" fill-rule="nonzero" id="path2782" d="m-945.72992,-4052.52515c0,9.67236 -3.78351,15.1499 -22.5365,15.1499c-2.46747,0 -4.60596,-0.13135 -6.74445,-0.44385l0,-127.63501c0,-9.68945 3.29004,-19.82227 22.20752,-19.82227c2.46747,0 4.77045,0.22998 7.07343,0.75586l0,131.99536zm-40.13794,-19.3125c0,17.94678 -11.6795,31.07422 -35.36749,33.64014c-17.27258,1.85889 -42.27661,-0.29639 -54.12061,-1.64502c-0.49341,-1.97412 -0.82251,-4.37549 -0.82251,-6.31689c0,-15.67676 8.38953,-19.2959 16.45007,-19.2959c8.22498,0 21.22046,1.51367 30.92603,1.51367c10.52802,0 13.81805,-3.61914 13.81805,-7.05713c0,-4.50732 -4.27704,-6.36621 -12.50201,-7.96191l-22.70105,-4.34277c-18.75305,-3.61914 -28.78748,-16.59839 -28.78748,-30.38354c0,-16.81104 11.84387,-30.84277 35.20288,-33.42578c17.60168,-1.94141 39.15112,0.22998 50.99512,1.66113c0.49347,2.02344 0.65802,3.98096 0.65802,6.00488c0,15.69238 -8.22504,19.08105 -16.28552,19.08105c-5.92194,0 -15.46301,-1.13428 -26.32013,-1.13428c-11.02148,0 -15.46289,3.07617 -15.46289,6.76025c0,3.88281 4.27698,5.46191 11.02148,6.72803l21.71405,3.99756c22.04303,4.03027 31.58398,16.64771 31.58398,32.17651m118.76886,68.72803c2.46753,1.2832 7.40253,2.78027 13.81799,2.92773c10.85699,0.24707 16.77899,-3.89844 21.22052,-13.71875l58.56195,-130.5144c-2.30304,-1.26709 -7.73151,-2.71436 -12.17303,-2.78027c-7.40247,-0.14795 -17.60144,1.34863 -24.01697,16.74658l-18.91748,44.71069l-37.17694,-60.47046c-2.46753,-0.74023 -8.22498,-1.79297 -12.50201,-1.79297c-13.15997,0 -20.5625,4.7876 -28.12946,13.04541l-36.02551,39.56177l28.95203,45.68164c5.42847,8.35693 12.50195,12.61719 23.85242,12.61719c7.56708,0 13.81799,-1.72705 16.77899,-3.1582l-34.87396,-52.67285l24.67505,-26.35278l40.63141,63.87524"/>
			</g>
		</g>
	</g>
</svg>