<svg xmlns="http://www.w3.org/2000/svg" width="128" height="64" xmlns:xlink="http://www.w3.org/1999/xlink"><defs><linearGradient id="c"><stop stop-color="#eeeff1" stop-opacity=".133" offset="0"/><stop stop-color="#fff5f5" stop-opacity=".851" offset="1"/></linearGradient><linearGradient id="b"><stop stop-color="#dbdbdb" offset="0"/><stop stop-color="#dadada" offset=".1"/><stop stop-color="#d9d9d9" offset=".2"/><stop stop-color="#e0e0e0" offset=".3"/><stop stop-color="#e9e9e9" offset=".4"/><stop stop-color="#f1f1f1" offset=".5"/><stop stop-color="#f7f7f7" offset=".6"/><stop stop-color="#fbfbfb" offset=".7"/><stop stop-color="#fefefe" offset=".8"/><stop stop-color="#fff" offset=".9"/><stop stop-color="#fff" offset="1"/></linearGradient><linearGradient id="a"><stop stop-color="#101112" offset="0"/><stop stop-color="#636364" offset="1"/></linearGradient><linearGradient y2="1" x2="1" x1="1" id="d" xlink:href="#b"/><linearGradient x2=".778" y1="1" x1=".778" id="e" xlink:href="#c"/></defs><g stroke="null"><g stroke="#000" fill="#9d9d9d" stroke-width="16.763" fill-rule="evenodd"><path stroke="#9b9b9b" fill="#9b9b9b" d="M3.67 21.856h120.57c.94 0 1.974.658 1.974 1.974v15.98c0 1.316-1.034 1.974-1.974 1.974H3.67c-.94 0-1.974-.658-1.974-1.974V23.83c0-1.316 1.034-1.974 1.974-1.974z" stroke-width=".094"/><path stroke="#fff" fill="#fff" stroke-width=".752.382" d="M3.67 21.856h120.57c.94 0 1.974.658 1.974 1.974v15.98c0 1.316-1.034 1.974-1.974 1.974H3.67c-.94 0-1.974-.658-1.974-1.974V23.83c0-1.316 1.034-1.974 1.974-1.974z"/></g><path fill="url(#d)" fill-rule="evenodd" d="M-737.354-3986.46l1-1v-210l-1-1h-364c-10 0-21 7-21 21v170c0 14 11 21 21 21h364z" transform="matrix(.1 0 0 .1 107.2 416.6)"/><path fill="#00345e" fill-rule="evenodd" d="M37.896 41.834V21.906h86.354c.94 0 1.974.658 1.974 1.974v15.98c0 1.316-1.034 1.974-1.974 1.974H37.896z"/><path fill="url(#e)" fill-rule="evenodd" d="M-991.964-4093.46c-57 0-109.336-69.91-114.39-100H185.884c-5.053 30.09-57.053 100.09-114.053 100.09" transform="matrix(.1 0 0 .1 107.2 416.6)"/><path fill="#fff" d="M118.163 38.897c-1.105-.11-1.99-.46-2.814-1.11-.26-.202-.77-.712-.98-.976-.2-.24-.49-.68-.65-.97-.44-.78-.74-1.79-.86-2.85-.04-.38-.06-1.23-.03-1.65.07-1.1.34-2.14.78-3.01.49-.97 1.28-1.89 2.11-2.432.72-.48 1.67-.776 2.58-.812.27-.01.35-.003 1.11.09.45.056.87.11.94.12.324.056.942.247 1.392.43l.297.126c.044.018.053.036.062.124.014.142-.02.716-.055.935-.06.366-.16.663-.31.914-.05.08-.108.135-.25.237-.157.11-.22.14-.38.187l-.19.056-.3-.062c-.165-.032-.426-.095-.58-.14-.99-.265-1.67-.273-2.295-.024-.45.177-.94.58-1.3 1.054-.45.6-.713 1.28-.823 2.105-.047.36-.047 1.184 0 1.525.112.804.33 1.4.72 1.973.566.83 1.33 1.306 2.17 1.36.16.01.27-.004.945-.11.42-.068.92-.153 1.113-.19l.35-.067.195.047c.17.043.217.065.364.17.2.143.237.187.35.43.175.365.256.8.26 1.38v.39l-.208.09c-.27.112-.82.296-1.188.395-.25.07-.413.1-1.166.19-.84.106-1.105.125-1.38.097zm-76.677-.23c-.358-.045-.656-.086-.66-.09-.012-.012-.094.24 1.333-4.106l2.41-7.36c.28-.85.51-1.55.52-1.56.01-.01.41-.07.88-.13.86-.11.872-.11 1.23-.1.2.007.455.025.566.04.25.04.626.16.793.254.316.177.565.58.78 1.27l1.24 3.92L52 35.238c.916 2.882 1.05 3.32 1.022 3.33-.018.01-.37.055-.78.106-.644.08-.776.09-.97.08-.273-.015-.537-.078-.758-.18-.185-.09-.388-.278-.468-.435-.028-.06-.233-.65-.455-1.32l-.4-1.228h-4.61l-.04.125c-.02.067-.18.59-.343 1.16-.18.62-.33 1.1-.373 1.186-.046.1-.11.19-.196.28-.2.21-.242.226-.84.326-.28.05-.544.087-.582.086-.036 0-.36-.04-.72-.085zm7.162-5.222c-.136-.482-1.718-5.73-1.727-5.73 0 0-.06.178-.13.397-.22.72-1.37 4.534-1.49 4.945l-.13.427c0 .02.35.025 1.75.025h1.76l-.02-.07zm7.29 5.26c-.31-.026-.563-.048-.566-.05-.003 0-.005-2.444-.005-5.43v-5.432h-3.453l-.01-.074c-.007-.04-.03-.27-.054-.51-.068-.69-.037-1.05.118-1.38.086-.19.214-.34.35-.41.218-.12-.073-.11 4.86-.11h4.513l.01.04c.01.022.03.254.06.513.07.74.04 1.073-.13 1.42-.07.165-.22.315-.36.39-.204.105-.23.107-1.7.107H58.2l-.005 5.046-.004 5.042-.05.157c-.08.253-.21.405-.45.53-.342.185-.77.218-1.74.137zm15.855-.04c-.36-.045-.657-.086-.66-.09-.006-.005.44-1.37.99-3.033l2.14-6.502c.63-1.912 1.15-3.484 1.16-3.494.01-.01.404-.07.877-.134.85-.114.864-.115 1.224-.106.415.01.66.045.958.13.5.145.74.358.988.87.103.215.11.24.705 2.116.742 2.34 1.106 3.487 2.162 6.806.918 2.884 1.052 3.32 1.024 3.332-.01.008-.36.055-.78.106-.64.08-.77.09-.97.08-.27-.013-.53-.076-.75-.18-.18-.09-.39-.276-.47-.437-.03-.06-.23-.63-.44-1.26l-.41-1.22-.02-.07H74.9l-.05.16-.347 1.17c-.17.567-.33 1.075-.367 1.154-.076.16-.236.344-.378.435-.085.054-.142.07-.636.15-.3.046-.574.085-.61.084-.036 0-.36-.04-.72-.084zm7.163-5.22c-.136-.482-1.718-5.73-1.727-5.73-.01 0-.07.178-.14.397-.22.72-1.38 4.534-1.5 4.945l-.13.427c-.01.02.35.025 1.742.025h1.756l-.018-.07zm6.2 5.258l-.556-.047c-.003 0-.005-2.97-.005-6.6v-6.6l.044-.01c.2-.043 1.44-.187 1.62-.187.61 0 1.16.11 1.5.31.17.1.4.32.55.52.06.083.4.7.76 1.37l3.12 5.774.73 1.36.01-4.308c.01-3.526.015-4.324.036-4.388.047-.14.144-.304.22-.374.18-.16.486-.26.863-.28.2-.01 1.225.05 1.45.084l.063.01v13.24l-.065.01c-.206.036-1.34.15-1.478.15-.367 0-.905-.083-1.22-.19-.365-.12-.67-.315-.85-.542-.07-.083-.755-1.354-2.23-4.13l-2.32-4.36-.19-.35.01 1.747c.008.96.015 2.94.017 4.39.005 2.52.004 2.65-.03 2.76-.05.167-.1.25-.195.35-.155.16-.37.25-.683.307-.228.037-.537.03-1.19-.023zm15.977 0l-.564-.047c-.01 0-.01-2.445-.01-5.432v-5.43h-3.45l-.01-.104c-.08-.666-.09-1.167-.05-1.44.07-.414.22-.683.46-.81.24-.13-.09-.12 4.88-.122h4.51l.01.045c.024.13.07 1.034.06 1.242-.024.536-.21.923-.523 1.08-.207.106-.23.108-1.7.108h-1.36l-.006 5.043c-.003 4.77-.005 5.05-.04 5.16-.103.354-.272.523-.65.648-.35.12-.67.13-1.562.06zm7.78.002l-.566-.048c-.003 0-.005-2.797-.004-6.213 0-6.81-.008-6.343.116-6.608.17-.367.64-.576 1.29-.576.15 0 1.19.084 1.35.11l.06.01-.01 6.25-.004 6.25-.05.16c-.086.25-.216.402-.45.528-.35.184-.77.218-1.745.137zm-44.598-.07c-.513-.076-.852-.272-.993-.574-.137-.29-.126.23-.132-6.1-.006-5.09-.003-5.72.024-5.84.085-.38.33-.65.717-.76.17-.05.47-.09.66-.09.16 0 1.23.09 1.38.11l.07.01v10.8h4.46l.01.1c.01.05.03.312.05.58.038.542.025.813-.053 1.09-.084.305-.203.47-.42.573-.28.136-.07.127-2.996.13-1.452 0-2.694-.004-2.76-.014z"/><path fill="#00345e" d="M18.308 35.624c0 .91-.355 1.424-2.118 1.424-.232 0-.433-.013-.634-.042V25.008c0-.91.31-1.863 2.087-1.863.232 0 .45.022.665.07v12.41zm-3.773-1.816c0 1.687-1.097 2.92-3.324 3.162-1.62.175-3.97-.027-5.08-.154-.04-.186-.08-.41-.08-.594 0-1.474.79-1.814 1.55-1.814.78 0 2 .142 2.91.142.99 0 1.3-.34 1.3-.663 0-.424-.4-.598-1.172-.748L8.5 32.73c-1.764-.34-2.708-1.56-2.708-2.86 0-1.58 1.114-2.9 3.31-3.14 1.654-.18 3.68.02 4.793.15.046.19.06.373.06.563 0 1.476-.77 1.795-1.53 1.795-.556 0-1.453-.107-2.473-.107-1.037 0-1.455.29-1.455.64 0 .364.4.513 1.037.632l2.04.376c2.07.38 2.967 1.564 2.967 3.023m11.17 6.46c.23.12.695.26 1.3.275 1.02.023 1.575-.367 1.992-1.29l5.5-12.26c-.216-.12-.727-.254-1.144-.26-.696-.014-1.655.126-2.258 1.574L29.32 32.5l-3.494-5.69c-.232-.07-.773-.167-1.175-.167-1.237 0-1.933.45-2.644 1.225l-3.386 3.72 2.72 4.293c.51.788 1.175 1.188 2.242 1.188.72 0 1.3-.16 1.58-.292l-3.28-4.95 2.32-2.478 3.82 6"/></g></svg>