<?xml version="1.0" encoding="UTF-8" standalone="no"?>

<svg xmlns:svg="http://www.w3.org/2000/svg" xmlns="http://www.w3.org/2000/svg" version="1.1" width="128" height="64" xmlns:xlink="http://www.w3.org/1999/xlink">
	<defs>
		<linearGradient id="linearGradient3113">
			<stop stop-color="#5c0300" stop-opacity="0" offset="0" id="stop3115"/>
			<stop stop-color="#5c0300" stop-opacity="0" id="stop3117" offset="0.2"/>
			<stop stop-color="#5c0300" stop-opacity="0" id="stop3119" offset="0.4"/>
			<stop stop-color="#5c0300" id="stop3122" offset="0.6"/>
			<stop stop-color="#5c0300" id="stop3124" offset="0.80135"/>
			<stop stop-color="#5c0300" offset="1" id="stop3126"/>
		</linearGradient>
		<linearGradient id="linearGradient3095">
			<stop stop-color="#420201" offset="0" id="stop3097"/>
			<stop stop-color="#410101" id="stop3099" offset="0.58056"/>
			<stop stop-color="#7b1910" id="stop3101" offset="0.67499"/>
			<stop stop-color="#7b1910" id="stop3103" offset="0.75959"/>
			<stop stop-color="#68080a" id="stop3105" offset="0.87133"/>
			<stop stop-color="#540403" offset="1" id="stop3107"/>
		</linearGradient>
		<linearGradient id="linearGradient3751">
			<stop stop-color="#eb3e2e" id="stop3753" offset="0"/>
			<stop stop-color="#cb1e24" offset="0.02721" id="stop3755"/>
			<stop stop-color="#bd1920" id="stop3757" offset="0.2"/>
			<stop stop-color="#ac171d" id="stop3759" offset="0.3"/>
			<stop stop-color="#991216" id="stop3761" offset="0.4"/>
			<stop stop-color="#890e11" id="stop3763" offset="0.5"/>
			<stop stop-color="#7b0909" id="stop3765" offset="0.6"/>
			<stop stop-color="#730506" id="stop3767" offset="0.7"/>
			<stop stop-color="#6a0000" id="stop3769" offset="0.8"/>
			<stop stop-color="#640000" id="stop3771" offset="0.9"/>
			<stop stop-color="#5b0300" offset="1" id="stop3773"/>
		</linearGradient>
		<linearGradient id="linearGradient3703">
			<stop stop-color="#410200" offset="0" id="stop3705"/>
			<stop stop-color="#440301" id="stop3707" offset="0.56337"/>
			<stop stop-color="#7b1910" id="stop3709" offset="0.68481"/>
			<stop stop-color="#79170f" id="stop3711" offset="0.79074"/>
			<stop stop-color="#590505" id="stop3713" offset="0.91061"/>
			<stop stop-color="#540403" offset="1" id="stop3715"/>
		</linearGradient>
		<linearGradient id="linearGradient3685">
			<stop stop-color="#e5382c" id="stop3687" offset="0"/>
			<stop stop-color="#e84836" offset="0.60757" id="stop3689"/>
			<stop stop-color="#c34832" offset="0.71918" id="stop3691"/>
			<stop stop-color="#a01f19" offset="0.81852" id="stop3693"/>
			<stop stop-color="#940f10" offset="0.91061" id="stop3695"/>
			<stop stop-color="#940f10" id="stop3697" offset="1"/>
		</linearGradient>
		<linearGradient id="linearGradient3661">
			<stop stop-color="#440301" offset="0" id="stop3663"/>
			<stop stop-color="#500a03" id="stop3665" offset="0.1"/>
			<stop stop-color="#611306" offset="0.2" id="stop3667"/>
			<stop stop-color="#7b1910" offset="0.3" id="stop3669"/>
			<stop stop-color="#7b1910" offset="0.4" id="stop3671"/>
			<stop stop-color="#7b1910" offset="0.5" id="stop3673"/>
			<stop stop-color="#68080a" offset="0.6" id="stop3675"/>
			<stop stop-color="#68080a" offset="0.7" id="stop3677"/>
			<stop stop-color="#540403" offset="0.8" id="stop3679"/>
			<stop stop-color="#540403" offset="0.9" id="stop3681"/>
			<stop stop-color="#540403" id="stop3683" offset="1"/>
		</linearGradient>
		<linearGradient id="linearGradient3645">
			<stop stop-color="#530503" offset="0" id="stop3655"/>
			<stop stop-color="#530503" id="stop3657" offset="1"/>
		</linearGradient>
		<linearGradient id="linearGradient3615">
			<stop stop-color="#690805" offset="0" id="stop3617"/>
			<stop stop-color="#802417" id="stop3619" offset="0.1"/>
			<stop stop-color="#7a2216" offset="0.2" id="stop3621"/>
			<stop stop-color="#732012" offset="0.3" id="stop3623"/>
			<stop stop-color="#68190a" offset="0.4" id="stop3625"/>
			<stop stop-color="#631606" offset="0.5" id="stop3627"/>
			<stop stop-color="#591001" offset="0.6" id="stop3629"/>
			<stop stop-color="#4e0401" offset="0.7" id="stop3631"/>
			<stop stop-color="#450102" offset="0.8" id="stop3633"/>
			<stop stop-color="#3e0100" offset="0.9" id="stop3635"/>
			<stop stop-color="#440301" id="stop3637" offset="1"/>
		</linearGradient>
		<linearGradient id="linearGradient3583">
			<stop stop-color="#eb3e30" id="stop3585" offset="0"/>
			<stop stop-color="#e4563e" offset="0.2" id="stop3587"/>
			<stop stop-color="#c04631" offset="0.4" id="stop3589"/>
			<stop stop-color="#9f1e18" offset="0.6" id="stop3591"/>
			<stop stop-color="#940f10" offset="0.80135" id="stop3593"/>
			<stop stop-color="#940f10" id="stop3595" offset="1"/>
		</linearGradient>
		<linearGradient id="linearGradient3206">
			<stop stop-color="#dedfe1" id="stop3210" offset="0"/>
			<stop stop-color="#e6e6e8" offset="0.1" id="stop3212"/>
			<stop stop-color="#f9f9f9" id="stop3230" offset="0.2"/>
			<stop stop-color="#ffffff" id="stop3214" offset="0.3"/>
			<stop stop-color="#ffffff" id="stop3216" offset="0.4"/>
			<stop stop-color="#ffffff" id="stop3218" offset="0.5"/>
			<stop stop-color="#ffffff" id="stop3220" offset="0.6"/>
			<stop stop-color="#ffffff" id="stop3222" offset="0.7"/>
			<stop stop-color="#fefefe" id="stop3224" offset="0.8"/>
			<stop stop-color="#f0f1f1" id="stop3226" offset="0.9"/>
			<stop stop-color="#efefef" offset="1" id="stop3228"/>
		</linearGradient>
		<linearGradient id="linearGradient3172">
			<stop stop-color="#e6e6e8" offset="0" id="stop3174"/>
			<stop stop-color="#f4f4f4" id="stop3176" offset="0.60757"/>
			<stop stop-color="#e3e3e5" id="stop3178" offset="0.71918"/>
			<stop stop-color="#c3c4c6" id="stop3180" offset="0.81852"/>
			<stop stop-color="#a8acad" id="stop3182" offset="0.91061"/>
			<stop stop-color="#a8acad" offset="1" id="stop3184"/>
		</linearGradient>
		<linearGradient id="linearGradient3160">
			<stop stop-color="#f0f0f0" id="stop3162" offset="0"/>
			<stop stop-color="#dcdddf" offset="0.18175" id="stop3164"/>
			<stop stop-color="#c4c5c7" offset="0.45876" id="stop3166"/>
			<stop stop-color="#a9aaae" offset="0.73092" id="stop3168"/>
			<stop stop-color="#a8acad" id="stop3170" offset="1"/>
		</linearGradient>
		<linearGradient id="linearGradient3138">
			<stop stop-color="#f5f7f6" id="stop3140" offset="0"/>
			<stop stop-color="#e1e1e3" offset="0.18175" id="stop3142"/>
			<stop stop-color="#c2c3c5" offset="0.45876" id="stop3144"/>
			<stop stop-color="#a9adae" offset="0.73092" id="stop3146"/>
			<stop stop-color="#a8acad" id="stop3148" offset="1"/>
		</linearGradient>
		<linearGradient id="linearGradient3119">
			<stop stop-color="#e0e1e3" offset="0" id="stop3121"/>
			<stop stop-color="#d9dadc" id="stop3123" offset="0.18175"/>
			<stop stop-color="#c2c3c5" id="stop3125" offset="0.45876"/>
			<stop stop-color="#a8acad" id="stop3129" offset="0.73092"/>
			<stop stop-color="#a8acad" offset="1" id="stop3131"/>
		</linearGradient>
		<linearGradient id="linearGradient3053">
			<stop stop-color="#bbbcbf" stop-opacity="0" offset="0" id="stop3063"/>
			<stop stop-color="#5b0000" id="stop3065" offset="1"/>
		</linearGradient>
		<linearGradient id="linearGradient3029">
			<stop stop-color="#f3f3f3" stop-opacity="0" id="stop3031" offset="0"/>
			<stop stop-color="#f4f4f4" stop-opacity="0" offset="0.2" id="stop3033"/>
			<stop stop-color="#f5f5f5" stop-opacity="0" offset="0.4" id="stop3035"/>
			<stop stop-color="#e9ebea" offset="0.6" id="stop3037"/>
			<stop stop-color="#c4c5c8" offset="0.80135" id="stop3039"/>
			<stop stop-color="#adaeb2" id="stop3041" offset="1"/>
		</linearGradient>
		<linearGradient id="linearGradient3013">
			<stop stop-color="#f1f1f1" stop-opacity="0" offset="0" id="stop3015"/>
			<stop stop-color="#f5f5f5" stop-opacity="0" id="stop3017" offset="0.55556"/>
			<stop stop-color="#edefee" id="stop3019" offset="0.66483"/>
			<stop stop-color="#d3d4d5" id="stop3021" offset="0.7741"/>
			<stop stop-color="#bcbdc0" id="stop3023" offset="0.89208"/>
			<stop stop-color="#aaabaf" offset="1" id="stop3025"/>
		</linearGradient>
		<linearGradient id="linearGradient2979">
			<stop stop-color="#e3e4e6" stop-opacity="0" offset="0" id="stop2981"/>
			<stop stop-color="#e3e4e6" stop-opacity="0" id="stop2983" offset="0.2"/>
			<stop stop-color="#e4e5e7" stop-opacity="0" id="stop2985" offset="0.4"/>
			<stop stop-color="#dedfe1" id="stop2987" offset="0.6"/>
			<stop stop-color="#cacbcd" id="stop2989" offset="0.80135"/>
			<stop stop-color="#afb0b2" offset="1" id="stop2991"/>
		</linearGradient>
		<linearGradient id="linearGradient2963">
			<stop stop-color="#e6e6e8" stop-opacity="0" offset="0" id="stop2965"/>
			<stop stop-color="#e6e8e7" stop-opacity="0" id="stop2967" offset="0.55556"/>
			<stop stop-color="#eceded" id="stop2969" offset="0.66483"/>
			<stop stop-color="#d7d8d9" id="stop2971" offset="0.7741"/>
			<stop stop-color="#bbbcbf" id="stop2973" offset="0.89208"/>
			<stop stop-color="#aaabaf" offset="1" id="stop2975"/>
		</linearGradient>
		<linearGradient id="linearGradient2929">
			<stop stop-color="#f1f1f1" id="stop2931" offset="0"/>
			<stop stop-color="#ebecec" offset="0.55556" id="stop2933"/>
			<stop stop-color="#dfe0e1" offset="0.66483" id="stop2935"/>
			<stop stop-color="#cfd0d2" offset="0.7741" id="stop2937"/>
			<stop stop-color="#bdbec0" offset="0.89208" id="stop2939"/>
			<stop stop-color="#acadb1" id="stop2941" offset="1"/>
		</linearGradient>
		<linearGradient id="linearGradient2901">
			<stop stop-color="#d40000" id="stop2903" offset="0"/>
			<stop stop-color="#d40000" stop-opacity="0.93725" offset="0.0625" id="stop2915"/>
			<stop stop-color="#d40000" stop-opacity="0.87451" offset="0.125" id="stop2913"/>
			<stop stop-color="#d40000" stop-opacity="0.74902" offset="0.25" id="stop2911"/>
			<stop stop-color="#d40000" stop-opacity="0.49804" offset="0.5" id="stop2909"/>
			<stop stop-color="#d40000" stop-opacity="0" id="stop2905" offset="1"/>
		</linearGradient>
		<linearGradient id="linearGradient2876">
			<stop stop-color="#000000" stop-opacity="0" offset="0" id="stop2878"/>
			<stop stop-color="#ffffff" stop-opacity="0" id="stop2880" offset="0.2"/>
			<stop stop-color="#ffffff" stop-opacity="0" id="stop2882" offset="0.4"/>
			<stop stop-color="#e8eae9" id="stop2884" offset="0.6"/>
			<stop stop-color="#c3c4c6" id="stop2886" offset="0.80135"/>
			<stop stop-color="#a9aaae" offset="1" id="stop2888"/>
		</linearGradient>
		<linearGradient id="linearGradient2858">
			<stop stop-color="#efefef" offset="0" id="stop2860"/>
			<stop stop-color="#eeeeee" id="stop2862" offset="0.2"/>
			<stop stop-color="#ededed" id="stop2864" offset="0.4"/>
			<stop stop-color="#dcdddf" id="stop2866" offset="0.6"/>
			<stop stop-color="#c3c4c6" id="stop2868" offset="0.80135"/>
			<stop stop-color="#aaabaf" offset="1" id="stop2870"/>
		</linearGradient>
		<linearGradient id="linearGradient2838">
			<stop stop-color="#e6e6e8" id="stop2840" offset="0"/>
			<stop stop-color="#e6e6e8" offset="0.2" id="stop3200"/>
			<stop stop-color="#e6e6e8" offset="0.4" id="stop3198"/>
			<stop stop-color="#e6e7e9" offset="0.5" id="stop3196"/>
			<stop stop-color="#e7e8ea" offset="0.6" id="stop2852"/>
			<stop stop-color="#dadbdd" offset="0.7" id="stop2850"/>
			<stop stop-color="#c3c4c6" offset="0.8" id="stop2848"/>
			<stop stop-color="#a8acad" offset="0.9" id="stop2846"/>
			<stop stop-color="#a8acad" id="stop2842" offset="1"/>
		</linearGradient>
		<radialGradient gradientUnits="userSpaceOnUse" gradientTransform="matrix(0,-0.04666667,0.04618528,2.5416009e-8,181.72859,243.07742)" r="150" fy="114.13615" fx="186.75514" cy="114.13615" cx="186.75514" id="radialGradient2907" xlink:href="#linearGradient2901"/>
		<linearGradient gradientUnits="userSpaceOnUse" id="id0" y2="264.51999" x2="41.7384" y1="265.80499" x1="44.97">
			<stop stop-color=" rgb(218, 154, 34)" offset="0" id="stop9"/>
			<stop stop-color=" rgb(168, 73, 33)" offset="0.50196" id="stop11"/>
			<stop stop-color=" rgb(83, 0, 16)" offset="1" id="stop13"/>
		</linearGradient>
		<clipPath id="clipPath2626">
			<path id="path2628" d="m0,850.38l1386.12,0l0,-850.38l-1386.12,0l0,850.38z"/>
		</clipPath>
		<clipPath id="clipPath2618">
			<path id="path2620" d="m-0.071,850.19702l1386.14192,0l0,-850.39398l-1386.14192,0l0,850.39398z"/>
		</clipPath>
		<clipPath id="clipPath2610">
			<path id="path2612" d="m707.104,789.87097l258.54803,0l0,-131.84399l-258.54803,0l0,131.84399z"/>
		</clipPath>
		<clipPath id="clipPath2602">
			<path id="path2604" d="m0,850.38l1386.12,0l0,-850.38l-1386.12,0l0,850.38z"/>
		</clipPath>
		<clipPath id="clipPath2594">
			<path id="path2596" d="m-0.071,850.19702l1386.14192,0l0,-850.39398l-1386.14192,0l0,850.39398z"/>
		</clipPath>
		<clipPath id="clipPath3592">
			<path id="path3594" d="m0,841.02002l594.96002,0l0,-840.96002l-594.96002,0l0,840.96002z"/>
		</clipPath>
		<clipPath id="clipPath3584">
			<path id="path3586" d="m-1,842l597,0l0,-844l-597,0l0,844z"/>
		</clipPath>
		<clipPath id="clipPath3576">
			<path id="path3578" d="m203.09,192.60001l205.25998,0l0,-113.95l-205.25998,0l0,113.95z"/>
		</clipPath>
		<clipPath id="clipPath3568">
			<path id="path3570" d="m210.85001,13.34l191.61902,0l0,144.64599l-191.61902,0l0,-144.64599z"/>
		</clipPath>
		<clipPath id="clipPath3560">
			<path id="path3562" d="m210.85001,157.98599l191.39999,0l0,-144.64999l-191.39999,0l0,144.64999z"/>
		</clipPath>
		<clipPath id="clipPath5671">
			<path id="path5673" d="m0.06,841.02002l651,0l0,-840.96002l-651,0l0,840.96002z"/>
		</clipPath>
		<clipPath id="clipPath5663">
			<path id="path5665" d="m0,841l651,0l0,-841l-651,0l0,841z"/>
		</clipPath>
		<clipPath id="clipPath5625">
			<path id="path5627" d="m0.06,841.02002l651,0l0,-840.96002l-651,0l0,840.96002z"/>
		</clipPath>
		<clipPath id="clipPath5617">
			<path id="path5619" d="m0,841l651,0l0,-841l-651,0l0,841z"/>
		</clipPath>
		<clipPath id="clipPath5609">
			<path id="path5611" d="m0.16,849.38l660.21994,0l0,-858.65002l-660.21994,0l0,858.65002z"/>
		</clipPath>
		<clipPath id="clipPath5601">
			<path id="path5603" d="m0.28,-9.75l660.47299,0l0,858.89899l-660.47299,0l0,-858.89899z"/>
		</clipPath>
		<clipPath id="clipPath5591">
			<path id="path5593" d="m0.06,841.02002l651,0l0,-840.96002l-651,0l0,840.96002z"/>
		</clipPath>
		<clipPath id="clipPath5583">
			<path id="path5585" d="m0,841l651,0l0,-841l-651,0l0,841z"/>
		</clipPath>
		<radialGradient r="4.50005" fy="200.53656" fx="195.33118" cy="200.53656" cx="195.33118" gradientTransform="matrix(1.9999795,2.9680547e-6,-2.5430038e-6,1.9999771,102.04755,-265.71735)" gradientUnits="userSpaceOnUse" id="radialGradient3701" xlink:href="#linearGradient3703"/>
		<linearGradient gradientTransform="matrix(1,0,0,5.4285714,0,-711.17539)" gradientUnits="userSpaceOnUse" y2="163.86218" x2="485" y1="163.86218" x1="482" id="linearGradient3739" xlink:href="#linearGradient3053"/>
		<linearGradient y2="1" x2="0.23" y1="0" x1="0.23" id="linearGradient3184" xlink:href="#linearGradient3583"/>
		<radialGradient r="4.50005" fy="200.53656" fx="195.33118" cy="200.53656" cx="195.33118" gradientTransform="matrix(-4.2504731e-7,1.9999795,-1.9999746,0,877.06811,-192.29618)" gradientUnits="userSpaceOnUse" id="radialGradient3186" xlink:href="#linearGradient3685"/>
		<linearGradient y2="0.01887" x2="0.94116" y1="0.98113" x1="0.94116" id="linearGradient3188" xlink:href="#linearGradient3751"/>
		<linearGradient y2="0.04255" x2="0.0113" y1="1.02128" x1="0.0113" id="linearGradient3190" xlink:href="#linearGradient3615"/>
		<linearGradient y2="0" x2="0.00176" y1="1" x1="0.00176" id="linearGradient3192" xlink:href="#linearGradient3661"/>
		<linearGradient y2="0.02738" x2="0.99167" y1="0.97216" x1="0.99167" id="linearGradient3195" xlink:href="#linearGradient3206"/>
		<linearGradient y2="0.0339" x2="0" y1="0.0339" x1="1" id="linearGradient3197" xlink:href="#linearGradient3138"/>
		<linearGradient y2="0.99934" x2="0.04328" y1="-0.00066" x1="0.04328" id="linearGradient3199" xlink:href="#linearGradient3119"/>
		<radialGradient r="4.50005" fy="200.53656" fx="195.33118" cy="200.53656" cx="195.33118" gradientTransform="matrix(-1.9999795,-2.9680547e-6,2.5430038e-6,-1.9999771,584.65785,599.4313)" gradientUnits="userSpaceOnUse" id="radialGradient3201" xlink:href="#linearGradient2838"/>
		<linearGradient y2="0.00066" x2="0.96557" y1="1.00066" x1="0.96557" id="linearGradient3203" xlink:href="#linearGradient3160"/>
		<radialGradient r="4.50005" fy="200.53656" fx="195.33118" cy="200.53656" cx="195.33118" gradientTransform="matrix(2.9680547e-6,-1.9999795,1.9999771,2.5430038e-6,-207.06912,532.02003)" gradientUnits="userSpaceOnUse" id="radialGradient3205" xlink:href="#linearGradient3172"/>
		<radialGradient r="4.50005" fy="200.53656" fx="195.33118" cy="200.53656" cx="195.33118" gradientTransform="matrix(1.9999795,4.2504731e-7,0,1.9999746,85.341639,-259.70593)" gradientUnits="userSpaceOnUse" id="radialGradient3207" xlink:href="#linearGradient3095"/>
		<linearGradient y2="1" x2="0.99999" y1="0" x1="0" id="linearGradient3209" xlink:href="#linearGradient3113"/>
		<clipPath id="clipPath67725" clipPathUnits="userSpaceOnUse">
			<path id="path67727" d="m183.17137,464.80127l43.05901,0l0,10.80701l-43.05901,0l0,-10.80701z"/>
		</clipPath>
	</defs>

	<g stroke="null" transform="matrix(0.4200053635216689,0,0,0.4200053635216689,45.00085021480658,109.28610864424284) " id="g3154">
		<path fill="url(#linearGradient3184)" fill-rule="nonzero" d="m15.23548,-150.51218l171,0l0.57452,1.95236l-0.57452,2.04764l-171,0l0,-4z" id="rect3579"/>
		<path fill="url(#radialGradient3186)" fill-rule="nonzero" d="m186.23547,-146.51219c0,-1 0,-3.99998 0,-3.99998c3,0 5,-2 5,-5c0,0 4,0 4,0c0,5 -4.03043,9.00359 -8.95758,9.00009" id="path3597"/>
		<path fill="#940f10" fill-rule="nonzero" d="m192.54858,-158.39302l2.68689,0l0,2.88084l-1,1l-1.68689,-1l0,-2.88084z" id="rect3086"/>
		<path fill="url(#linearGradient3188)" d="m15.23548,-201.51218l180,-1l0,45c0,5 -5.71274,7.37564 -9.71274,7.37564l-170.28726,0.62436l0,-52z" id="rect3741"/>
		<path fill="#5c0300" fill-rule="nonzero" d="m191.23547,-212.51218l3,-1l1,1l0,11l-4,0l0,-11z" id="rect3089"/>
		<path fill="url(#linearGradient3190)" d="m15.23548,-195.01218c83.34549,0 128.81671,-1.97725 177,-6.5l0,-13l-1,-3l-4,-1l-172,0l0,23.5z" id="path3601"/>
		<path fill="url(#linearGradient3192)" fill-rule="nonzero" d="m15.23548,-221.51218l171,0l1,1l-1,3l-171,0l0,-4z" id="rect3639"/>
		<path fill="url(#linearGradient3195)" fill-rule="nonzero" d="m-101.76453,-218.51218l5,-2l113,1l0,71l-111.0595,1.03293l-6.94051,-2.03293l-2,-64l2,-5z" id="rect3158"/>
		<path fill="url(#linearGradient3197)" fill-rule="nonzero" id="path3134" d="m-101.76453,-212.51218l0,57l-2,1l-1,-1l0,-57l1,-1l2,1z"/>
		<path fill="url(#linearGradient3199)" fill-rule="nonzero" d="m-95.76453,-149.51218l112,0l0,3l-112,0l-1,-1l1,-2z" id="rect3105"/>
		<path fill="url(#radialGradient3201)" fill-rule="nonzero" d="m-104.76451,-155.51218c1,0 3,0 3,0c0,3 3,6 6,6c0,0 0,3 0,3c-5,0 -9.0036,-4.03043 -9.00011,-8.95758" id="path3049"/>
		<path fill="url(#linearGradient3203)" fill-rule="nonzero" id="path3154" d="m16.23548,-218.51218l-112,0l-1,-2l1,-1l112,0l0,3z"/>
		<path fill="url(#radialGradient3205)" fill-rule="nonzero" id="path3150" d="m-95.76453,-221.51218c0,1 0,2.99997 0,2.99997c-3,0 -6,3.00002 -6,6.00002c0,0 -3,0 -3,0c0,-5 4.03043,-9.00359 8.95758,-9.00011"/>
		<g stroke="null" fill="#000000" transform="matrix(1.0457107,0,0,1.0457107,86.921161,-169.96909) " id="layer1-0">
			<g stroke="null" fill="#000000" transform="matrix(0.2088608,0,0,0.2088608,79.384397,188.51135) " id="g3397">
				<path fill="#000000" fill-rule="evenodd" id="path3237" d="m-1207.71216,-883.88251c0,0 -1,-5 -1,-10c0,-19 7,-29 27,-29c15,0 29,2 46,2c14,0 22,-3 22,-11c0,-25.02002 -99,0 -99,-66c0,-23.85303 11.78198,-37.78864 29.65833,-45.30524c0,0 48.69788,-1.75696 48.69788,-1.75696c0,0 55.54602,10.91833 55.54602,10.91833c-1.06604,20.61163 -10.76282,25.14386 -24.90222,25.14386c-18,0 -25,-1 -39,-1c-9,0 -26,1 -26,10c0,22 100,1 100,67c0,35 -23,53 -80,53c-37,0 -59,-4 -59,-4z"/>
				<path fill="#000000" fill-rule="evenodd" id="path3239" d="m-1039.71216,-879.88251c-8,0 -12,-1 -12,-1l0,-151.12189l23.75146,-19.55591l21.24847,22.72168l0,126.95612c0,22 -19.99994,22.00403 -29.992,22.00403c0,0 -3.00793,-0.00403 -3.00793,-0.00403z"/>
				<path fill="#000000" fill-rule="evenodd" id="path3241" d="m-893.71222,-883.88251c0,0 -10,5 -25,5c-17.81036,0.12231 -28,-6 -37,-19l-45.40002,-71.5l50.81305,-56.03131c0,0 47.72845,-22.32104 47.72845,-22.32104l36.95068,26.39032l40.90784,67.46204l28.24323,-65.04504l29.08051,-24.11847l16.06354,25.13092l-79.38727,176.03259c-4,9 -10,20 -31,20c-16,0 -22.40002,-4.40002 -22.40002,-4.40002l38.40002,-81.59998l-63.5,-99.30005l-38.5,41.30005l54,82z"/>
			</g>
		</g>
		<path fill="#37373f" fill-rule="evenodd" d="m-59.76806,-198.24033l0,-9.36334c0,-5.6828 2.18408,-7.42587 7.64429,-7.42587c1.52885,0 2.18407,0.21841 2.18407,0.21841l0,17.26547c-3.44095,-0.23595 -6.06792,-0.40155 -9.82835,-0.69467z" id="path3558"/>
		<path fill="#37373f" fill-rule="evenodd" d="m-19.125,-195.91328c-7.74231,-0.27344 -13.76587,-0.60942 -18.49255,-0.88188l1.78842,-2.06828c2.18408,-2.4025 5.02337,-3.49454 8.73633,-3.49454c3.05771,0 4.4502,0.65132 4.4502,0.65132l3.51761,5.79338z" id="path3571"/>
		<path fill="#37373f" fill-rule="evenodd" d="m5.83603,-195.15602c-3.11395,-0.078 -5.97794,-0.12184 -9.85751,-0.22731l1.03949,-2.39198c1.09204,-2.62088 3.49454,-4.36815 7.20746,-4.36815c2.62091,0 4.36816,0.87363 4.36816,0.87363l-2.7576,6.11382z" id="path3560"/>
		<path fill="#37373f" fill-rule="evenodd" d="m-88.45926,-200.67641c0.85074,-0.42203 4.67162,-1.77385 10.78174,-1.68547c4.14975,0 11.79404,0.87364 11.79404,0.87364c0,0 0.21841,0.65521 0.21841,1.96567c0.00099,0.30659 -0.01941,0.72864 -0.01901,0.84605l-22.77518,-1.99989z" id="path3556"/>
		<path fill="url(#radialGradient3207)" fill-rule="nonzero" id="path3091" d="m195.23547,-212.51218c-1,0 -3,0 -3,0c0,-3 -3,-5 -6,-5c0,0 0,-4 0,-4c5,0 9.0036,4.03041 9.00012,8.95758"/>
		<path fill="url(#linearGradient3209)" fill-rule="nonzero" d="m195.23547,-212.51218c-1,0 -3,0 -3,0c0,-3 -3,-5 -6,-5c0,0 0,-4 0,-4c5,0 9.0036,4.03041 9.00012,8.95758" id="path3109"/>
		<g stroke="null" id="g3270"/>
	</g>
	<g stroke="null" fill="#ffffff" transform="matrix(2.932973307100153,0,0,-2.932973307100153,-536.3680365282223,1411.1547703144795) " id="g67721">
		<g stroke="null" fill="#ffffff" clip-path="url(#clipPath67725)" id="g67723">
			<g stroke="null" fill="#ffffff" id="g67729">
				<path fill="#ffffff" fill-rule="nonzero" id="path67731" d="m223.36047,470.64426l-0.811,0.267c-0.54401,0.18201 -0.76801,0.38898 -0.76801,0.78598c0,0.405 0.328,0.638 1.11301,0.638c0.457,0 0.94899,-0.112 1.30299,-0.25c0.121,-0.052 0.173,-0.026 0.19,0.078l0.138,0.802c0.017,0.086 -0.009,0.121 -0.078,0.147c-0.457,0.181 -1.06999,0.302 -1.59599,0.302c-1.381,0 -2.261,-0.59601 -2.261,-1.73502c0,-0.87997 0.42299,-1.41498 1.338,-1.74298l0.819,-0.293c0.743,-0.26801 0.88901,-0.431 0.88901,-0.82001c0,-0.543 -0.319,-0.76801 -1.12201,-0.76801c-0.492,0 -1.121,0.164 -1.605,0.38c-0.09401,0.043 -0.155,0.052 -0.17201,-0.05099l-0.14699,-0.80301c-0.017,-0.112 -0.017,-0.138 0.10399,-0.19c0.509,-0.216 1.29401,-0.36301 1.88901,-0.36301c1.338,0 2.226,0.64801 2.226,1.89001c0,0.923 -0.371,1.37201 -1.44899,1.72601m-3.326,2.65799l-0.799,0c-0.127,0 -0.186,-0.026 -0.203,-0.13c-0.21001,-1.43201 -0.49901,-3.09698 -0.91301,-4.625l-0.084,0c-0.28699,1.28601 -0.55299,2.87302 -0.84,4.461c-0.017,0.086 -0.05099,0.112 -0.144,0.112l-1.257,0c-0.08501,0 -0.127,-0.026 -0.144,-0.112c-0.278,-1.57001 -0.54401,-3.13199 -0.85701,-4.461l-0.092,0c-0.36299,1.45001 -0.59299,3.21799 -0.808,4.625c-0.01601,0.104 -0.06799,0.13 -0.203,0.13l-0.85199,0c-0.11801,0 -0.175,-0.026 -0.15201,-0.15601c0.29601,-1.66299 0.63101,-3.62399 1.255,-5.82401c0.04199,-0.13 0.118,-0.181 0.245,-0.181l1.06601,0c0.13499,0 0.194,0.05099 0.228,0.19c0.34599,1.51001 0.66,3.06302 0.91299,4.28799l0.067,0c0.254,-1.21698 0.56801,-2.72699 0.88899,-4.28799c0.02501,-0.147 0.09201,-0.19 0.22701,-0.19l1.06601,0c0.127,0 0.20299,0.05099 0.245,0.181c0.608,2.14001 1.039,4.17902 1.299,5.82401c0.02,0.13101 -0.034,0.15601 -0.15199,0.15601m-8.05101,-5.117l-2.77299,0l0,1.59601l2.26601,0c0.078,0 0.112,0.035 0.112,0.121l0,0.802c0,0.08698 -0.034,0.121 -0.112,0.121l-2.26601,0l0,1.43298l2.72,0c0.078,0 0.112,0.034 0.112,0.12l0,0.80301c0,0.086 -0.034,0.121 -0.112,0.121l-3.78999,0c-0.09401,0 -0.138,-0.043 -0.138,-0.121l0,-5.91101c0,-0.103 0.026,-0.129 0.138,-0.129l3.84299,0c0.078,0 0.112,0.034 0.112,0.12003l0,0.80298c0,0.086 -0.034,0.121 -0.112,0.121m-4.996,5.117l-0.85399,0c-0.121,0 -0.147,-0.035 -0.147,-0.147l0,-3.75299l-0.052,0l-2.97,3.83099c-0.034,0.05099 -0.06,0.069 -0.155,0.069l-0.707,0c-0.095,0 -0.138,-0.052 -0.138,-0.121l0,-5.89398c0,-0.11203 0.02501,-0.14603 0.14601,-0.14603l0.85399,0c0.121,0 0.147,0.034 0.147,0.14603l0,3.75397l0.052,0l2.961,-3.745c0.078,-0.112 0.138,-0.155 0.25099,-0.155l0.612,0c0.121,0 0.147,0.034 0.147,0.14603l0,5.86798c0,0.112 -0.026,0.147 -0.147,0.147"/>
			</g>
		</g>
	</g>
</svg>