<svg xmlns="http://www.w3.org/2000/svg" width="128" height="64"><path fill="#101372" d="M35.288.224h57.424v51.83H35.288z"/><path fill="#fff" d="M72.155 5.866c2.594.324 7.15 3.502 7.166 7.085h12.05v9.18c-3.73-3.49-29.11-4.18-28-12.48.38-2.77 4.09-4.36 8.79-3.77zM46.02 1.376h-9.597V41.68h7.944v-6.017h20.687v6.015h15.97c.194-1.07.048-2.028-.39-2.87-.308-.6-.892-1.184-1.492-1.54-5.3-3.08-16.796-5.578-22.81-7.702-3.437-1.216-6.89-3.048-9.42-5.658-2.594-2.66-3.826-6.663-3.988-10.28-.13-8.007 3.08-12.27 3.08-12.27z"/><path fill="#101372" d="M44.383 41.68v-6.016H65.07v6.015zM46.02 1.36h45.346v11.574H79.32c0-3.583-4.555-6.76-7.165-7.085-4.702-.59-8.414 1-8.787 3.77-1.12 8.31 24.27 9.01 27.998 12.48v19.56H81.04c.194-1.07.048-2.03-.39-2.87-.308-.6-.892-1.19-1.49-1.54-5.303-3.08-16.797-5.58-22.812-7.7-3.437-1.22-6.89-3.05-9.42-5.66-2.594-2.66-3.826-6.668-3.988-10.28-.13-8.01 3.08-12.27 3.08-12.27zm-9.338 55.802v-.52h.21c.147 0 .244-.015.277-.064.04-.033.06-.13.06-.292v-2.27c0-.162-.02-.26-.07-.29-.05-.034-.13-.066-.28-.066h-.21v-.52h3.74v1.525h-.5c-.034-.227-.066-.405-.115-.535-.05-.114-.098-.21-.16-.276-.068-.065-.165-.113-.28-.146-.11-.032-.307-.048-.6-.048h-.485v1.135h.1c.21 0 .356-.05.42-.13s.115-.26.115-.503h.47v1.832h-.47c0-.275-.05-.454-.1-.535-.064-.09-.21-.13-.42-.13h-.1v1.29h.505c.423 0 .698-.08.844-.23.142-.15.24-.46.272-.91h.5v1.65h-3.74zm4.783-3.146c0-.146-.016-.243-.065-.29-.05-.034-.146-.066-.292-.066h-.194v-.52h1.815l1.46 2.79V54c0-.146-.02-.243-.07-.292-.05-.032-.15-.065-.29-.065h-.21v-.518h1.73v.518h-.18c-.15 0-.24.017-.29.065-.05.033-.07.13-.07.292v3.145h-1.16l-1.56-2.983v2.108c0 .146.016.243.065.292.05.032.14.065.29.065h.21v.518h-1.75v-.518h.19c.145 0 .242-.017.29-.065.05-.033.065-.13.065-.292V54zm7.782-.875v1.54h-.52c0-.34-.064-.6-.177-.76-.13-.16-.308-.24-.568-.24h-.065v2.55c0 .15 0 .23.017.28.016.05.032.068.064.08.033.02.098.036.163.036s.18.017.36.017v.516h-2.25v-.52c.12 0 .23 0 .31-.017.08-.018.16-.018.21-.05.04-.018.05-.034.07-.08.02-.05.02-.13.02-.26v-2.57h-.05c-.257 0-.452.08-.566.243-.13.162-.196.42-.196.762h-.502v-1.54h3.7zm.227 4.01v-.52h.21c.146 0 .244-.01.276-.06.05-.03.065-.13.065-.29V54c0-.162-.016-.26-.065-.292-.05-.032-.13-.065-.275-.065h-.21v-.518h3.744v1.524h-.51c-.03-.23-.07-.41-.12-.54-.05-.12-.1-.21-.16-.28-.068-.07-.166-.12-.28-.15-.112-.03-.307-.05-.6-.05h-.485v1.133h.095c.21 0 .357-.048.42-.13.066-.08.115-.26.115-.5h.47v1.83h-.47c0-.275-.048-.453-.096-.534-.067-.08-.21-.13-.42-.13h-.1v1.3h.502c.42 0 .698-.08.844-.23.147-.145.244-.453.276-.907h.503v1.655h-3.74zm5.852-2.35h.406c.292 0 .486-.03.583-.11.098-.08.162-.22.162-.42 0-.21-.048-.37-.162-.45-.097-.08-.29-.13-.535-.13h-.437v1.137zm0 1.48c0 .15.017.25.065.298.05.03.13.065.3.065h.2v.52h-2.18v-.52h.21c.15 0 .247-.016.28-.064.048-.034.064-.13.064-.293V54c0-.162-.015-.26-.063-.292-.05-.032-.13-.065-.276-.065h-.21v-.518h2.49c.47 0 .81.08 1.038.243.228.162.34.42.34.746 0 .243-.08.437-.225.583-.145.162-.372.26-.65.325.246.048.424.13.52.26.1.13.163.307.163.55v.39c0 .16.017.275.033.34s.066.08.13.08c.065 0 .13-.048.146-.13.033-.08.05-.258.05-.502h.372v.162c0 .373-.066.633-.21.81-.148.18-.375.26-.667.26-.325 0-.552-.08-.698-.243-.147-.17-.228-.43-.228-.78v-.39c0-.23-.03-.38-.09-.44-.06-.07-.21-.1-.42-.1h-.47v.95zm6.63-3.14v1.54h-.518c0-.34-.064-.6-.178-.76-.13-.16-.308-.243-.567-.243h-.065v2.547c0 .146 0 .227.016.276.016.05.032.063.065.08.03.016.09.032.16.032s.18.013.35.013v.52h-2.25v-.52c.11 0 .22 0 .31-.015.08-.017.16-.017.21-.05.03-.016.05-.03.06-.08s.014-.13.014-.26v-2.56h-.05c-.258 0-.453.08-.566.242-.13.16-.195.42-.195.76h-.5v-1.54h3.7zm2.32 2.206l-.39-1.264-.39 1.265h.78zm-2.27 1.816v-.52h.13c.13 0 .21-.015.275-.063.07-.05.12-.146.17-.325l.98-3.093h1.136l.94 3.11c.05.146.1.243.147.29.05.05.13.066.244.066h.195v.52h-2.1v-.52h.164c.13 0 .227-.016.275-.032.05-.016.066-.065.066-.114 0-.02 0-.05-.017-.08 0-.02-.017-.036-.017-.05l-.14-.49h-1.09l-.142.455c0 .032-.02.05-.02.08 0 .033-.017.05-.017.08 0 .05.015.098.064.114.03.015.13.03.242.03h.18v.52H62zm4.248 0v-.52h.226c.146 0 .244-.015.276-.063.05-.033.065-.13.065-.29V54c0-.162-.01-.26-.06-.292-.05-.032-.13-.065-.27-.065h-.22v-.518h2.23v.518h-.226c-.146 0-.243.017-.292.065-.05.033-.06.13-.06.292v2.27c0 .146.02.243.068.292.05.032.147.065.293.065h.224v.518h-2.24zM69.27 54c0-.146-.017-.243-.066-.292-.048-.032-.146-.065-.292-.065h-.194v-.518h1.816l1.46 2.788v-1.93c0-.145-.018-.242-.066-.29-.05-.033-.146-.066-.292-.066h-.21v-.52h1.734v.52h-.178c-.146 0-.244.016-.292.065-.05.033-.065.13-.065.292v3.145h-1.167L69.9 54.14v2.108c0 .147.018.244.066.29.05.035.146.067.292.067h.21v.52h-1.75v-.52h.194c.146 0 .244-.017.292-.066.05-.03.065-.13.065-.29v-2.27zm5.236 2.27c0 .146.016.243.064.292.05.032.13.065.292.065h.114v.518h-1.62v-.518h.177c.146 0 .243-.017.292-.065.048-.033.065-.13.065-.292V54c0-.146-.017-.243-.065-.292-.05-.032-.13-.065-.292-.065h-.178v-.518h1.994l.66 2.464.69-2.47h1.972v.52h-.194c-.146 0-.243.01-.29.06-.05.03-.066.13-.066.29v2.27c0 .14.018.24.067.29.05.03.146.062.292.062h.19v.52h-1.99v-.52h.114c.146 0 .243-.016.275-.064.05-.034.066-.13.066-.29v-2.5l-.94 3.37h-.76l-.924-3.387v2.515zm4.377.875v-.518h.21c.147 0 .244-.017.276-.065.04-.033.06-.13.06-.292V54c0-.162-.02-.26-.07-.292-.05-.032-.13-.065-.28-.065h-.21v-.518h3.742v1.524h-.503c-.03-.23-.064-.41-.113-.54-.05-.12-.1-.21-.164-.28-.063-.07-.16-.12-.274-.15-.113-.03-.308-.05-.6-.05h-.486v1.133h.1c.21 0 .354-.048.42-.13.064-.08.112-.26.112-.5h.47v1.83h-.47c0-.275-.048-.453-.097-.534-.065-.08-.21-.13-.42-.13h-.09v1.3h.503c.42 0 .697-.08.843-.23.143-.145.24-.453.272-.907h.5v1.655h-3.74zM83.666 54c0-.146-.017-.243-.065-.292-.04-.032-.14-.065-.29-.065h-.19v-.518h1.82l1.46 2.788v-1.93c0-.145-.01-.242-.06-.29-.05-.033-.146-.066-.29-.066h-.212v-.52h1.736v.52h-.18c-.144 0-.24.016-.29.065-.05.033-.064.13-.064.292v3.145h-1.17l-1.56-2.99v2.1c0 .145.015.242.064.29.048.033.146.065.29.065h.21v.52h-1.75v-.52h.195c.144 0 .24-.017.29-.066.05-.03.065-.13.065-.29v-2.27zm7.78-.875v1.54h-.517c0-.34-.07-.6-.18-.762-.13-.162-.31-.243-.57-.243h-.07v2.545c0 .146 0 .227.01.276.016.05.032.07.064.09.032.02.096.03.16.03.066 0 .18.02.36.02v.52h-2.25v-.52c.113 0 .226 0 .31-.01.08-.017.16-.017.21-.05.03-.016.05-.03.063-.08.016-.05.016-.13.016-.26v-2.56h-.043c-.26 0-.453.08-.567.242-.13.163-.196.42-.196.763h-.503v-1.55h3.697zm-49.673 5.22v2.027h-.746c0-.454-.08-.78-.26-1.006-.178-.21-.453-.324-.826-.324h-.08v3.34c0 .178.02.308.04.357.02.06.05.09.1.11s.13.05.23.05c.1.01.26.01.505.01v.68h-3.26v-.68c.18 0 .325 0 .438-.02l.31-.05c.05-.02.08-.05.097-.11.016-.07.032-.18.032-.36v-3.34h-.08c-.376 0-.65.11-.83.32-.178.21-.276.552-.276 1.006h-.73v-2.02h5.35zm.032 5.253v-.68h.308c.21 0 .357-.033.406-.082.06-.05.09-.178.09-.373v-2.967c0-.21-.04-.324-.1-.39-.07-.048-.2-.08-.41-.08h-.3v-.68h5.43v2.01h-.716c-.05-.31-.095-.536-.16-.698-.064-.162-.145-.275-.242-.373-.097-.097-.227-.162-.39-.194-.16-.03-.453-.06-.86-.06h-.712v1.49h.13c.31 0 .503-.05.617-.16.097-.11.162-.32.162-.66h.68v2.4h-.68c-.018-.352-.067-.6-.148-.71-.1-.113-.294-.16-.618-.16h-.13v1.7h.73c.6 0 1-.1 1.23-.293.21-.193.34-.6.4-1.182h.714v2.173h-5.43zm6.13-5.253h3.192v.68h-.34c-.21 0-.357.033-.422.082-.064.05-.097.178-.097.373v3.42h.438c.42 0 .697-.015.86-.064.16-.033.29-.097.388-.195.114-.09.21-.24.26-.43.064-.18.113-.44.13-.78h.713v2.16H47.9v-.68h.31c.21 0 .356-.03.404-.08.065-.05.098-.18.098-.37v-2.97c0-.21-.033-.32-.098-.39-.064-.044-.194-.08-.405-.08h-.31v-.68zm5.673 5.253v-.68h.308c.21 0 .357-.033.405-.082.07-.05.1-.178.1-.373v-2.967c0-.21-.03-.324-.1-.39-.06-.048-.19-.08-.4-.08h-.31v-.68h5.43v2.01h-.71c-.05-.31-.1-.536-.16-.698-.06-.162-.14-.275-.24-.373-.09-.097-.22-.162-.39-.194-.16-.03-.45-.06-.852-.06h-.713v1.49h.13c.307 0 .5-.05.615-.16.1-.11.163-.32.163-.66h.68v2.4h-.68c-.016-.352-.064-.6-.145-.71-.096-.113-.29-.16-.614-.16h-.13v1.7h.73c.6 0 1.005-.1 1.23-.293.21-.193.34-.6.406-1.182h.714v2.173h-5.43zm9.68 0h-1.542l-1.394-3.972c-.097-.26-.194-.438-.308-.503-.113-.08-.292-.113-.535-.13v-.664h3.08v.66h-.31c-.18 0-.29.01-.36.05-.07.03-.1.09-.1.19 0 .03.01.08.01.14.015.063.05.16.096.31l.875 2.56.94-2.69c.05-.116.066-.21.08-.245.018-.05.018-.08.018-.097 0-.08-.03-.13-.11-.16-.08-.033-.195-.05-.357-.05h-.242v-.664h2.386V59c-.26 0-.44.05-.57.165-.13.097-.23.31-.327.616L63.3 63.6zm2.366 0v-.68h.34c.21 0 .357-.033.405-.082.06-.05.09-.178.09-.373v-2.967c0-.21-.04-.324-.1-.39-.07-.048-.2-.08-.41-.08h-.34v-.68h3.24v.68h-.34c-.21 0-.358.032-.423.08-.063.05-.095.18-.095.374v2.967c0 .194.03.324.096.373.065.048.195.08.422.08h.34v.682h-3.24zm4.426.065h-.665v-2.075h.73c.064.42.26.762.567 1.005.308.243.697.373 1.135.373.308 0 .55-.05.73-.163.178-.113.26-.26.26-.453 0-.31-.326-.536-.99-.68-.114-.018-.195-.034-.243-.05-.568-.13-.973-.243-1.184-.324-.227-.08-.405-.18-.55-.292-.18-.146-.325-.308-.423-.486-.097-.195-.146-.406-.146-.633 0-.535.2-.94.59-1.232.39-.292.94-.438 1.66-.438.36 0 .668.033.94.114.28.08.507.17.717.32l.163-.38h.68v1.93h-.75c-.05-.39-.21-.7-.502-.91-.29-.23-.664-.33-1.12-.33-.273 0-.484.05-.646.163-.16.112-.244.26-.244.436 0 .276.356.47 1.086.616.277.05.487.1.65.145.634.145 1.09.356 1.38.63.29.277.437.634.437 1.088 0 .52-.21.94-.612 1.25-.403.31-.954.47-1.67.47-.34 0-.662-.05-.987-.13-.324-.08-.583-.195-.794-.34l-.227.39zm4.653-.065v-.68h.34c.21 0 .357-.033.405-.082.065-.05.098-.178.098-.373v-2.967c0-.21-.033-.324-.098-.39-.065-.048-.194-.08-.405-.08h-.34v-.68h3.242v.68h-.34c-.21 0-.357.032-.422.08-.065.05-.097.18-.097.374v2.967c0 .194.032.324.097.373.065.048.195.08.422.08h.34v.682h-3.242zm5.48-2.627c0 .72.097 1.25.307 1.58.21.33.535.49.99.49.453 0 .778-.16.988-.48.21-.324.308-.86.308-1.573s-.097-1.247-.308-1.57c-.21-.325-.535-.49-.99-.49-.453 0-.777.164-.988.488-.21.325-.308.86-.308 1.57zm-1.784 0c0-.87.27-1.55.82-2.04.55-.5 1.29-.74 2.27-.74.95 0 1.72.25 2.25.75.55.5.82 1.187.82 2.04 0 .88-.276 1.56-.827 2.05-.55.486-1.298.745-2.254.745s-1.72-.242-2.27-.745-.827-1.184-.827-2.044zm7.39-1.49c0-.19-.04-.32-.1-.37-.07-.05-.2-.08-.42-.08h-.29v-.68h2.62l2.102 3.67v-2.53c0-.19-.03-.32-.097-.37-.065-.05-.195-.08-.42-.08h-.31v-.68h2.514v.68h-.258c-.21 0-.36.03-.424.08-.06.05-.096.18-.096.376v4.12h-1.68l-2.257-3.91v2.774c0 .193.033.322.1.37.065.05.194.08.42.08h.31v.68H84.99v-.68h.292c.21 0 .354-.033.42-.082.064-.05.1-.178.1-.373V59.5z"/><path fill="#fff" d="M62.962 49.428v.892h5.09v-.99H66.4v-3.84l6.517 4.862h1.864v-5.804s-.01-.26.26-.26h1.43v-1.053h-5.12v1.038h1.43s.33 0 .33.275v3.097l-5.71-4.377H63v.972h1.556v5.188l-1.57.033zm26.556-5.123h1.41v-1.118H86v1.118h.973l-2.108 2.092-2.075-1.816.016-.29.876.02.016-1.1-6.08.03v1.06h1.59l3.712 3.42v1.658h-1.54v.957h5.9v-.99h-1.7V47.8zm-33.543-1.508c3.583 0 6.485 1.816 6.485 4.054 0 2.24-2.902 4.06-6.485 4.06s-6.485-1.81-6.485-4.05 2.902-4.05 6.485-4.05zm.05 1.297c2.09 0 3.776 1.233 3.776 2.757s-1.68 2.76-3.77 2.76-3.78-1.23-3.78-2.75 1.69-2.76 3.78-2.76zm-8.367-.86h-1.2v.536s-.356-.34-1.653-.616c-2.14-.454-4.54-.47-6.485.52-1.232.615-1.622 1.7-.827 2.74.632.826 3 1.134 4.004 1.215 2.205.19 6.258.61 3.405 1.79-.795.27-1.573.5-4.037.03-1.054-.34-1.767-.39-2.335-1.74-.518.033-1.345 0-1.345 0v2.773l1.508.032v-.437h.26s2.107.875 5.35.746c1.118-.18 2.382-.294 3.37-1.315 1.006-1.055.585-2.19-.534-2.903-1.01-.63-3.12-.78-4.17-.907-1.74-.113-2.99-.34-2.99-.34s-.898-.39-.15-.956c.55-.41 1.85-.424 2.494-.39.696.047 2.074 0 3.307.58.455.31.763.618.827 1.088h1.183l-.016-2.432z"/><path fill="#101372" d="M56.024 44.078c2.09 0 3.777 1.232 3.777 2.756 0 1.524-1.68 2.756-3.77 2.756s-3.78-1.232-3.78-2.756c0-1.524 1.69-2.756 3.78-2.756z"/></svg>