<svg xmlns="http://www.w3.org/2000/svg" width="128" height="64"><path d="M14.375 19.59c.054.024.11.024.167.025.79.018 1.57.115 2.348.24 1.322.211 2.615.544 3.881.976.418.142.829.303 1.241.46.237.09.236.093.236.358v5.012l-.001.87c0 .066.015.138-.04.204-.094-.048-.14-.132-.195-.205a24.994 24.994 0 00-1.17-1.461 9.01 9.01 0 00-2.216-1.812c-.963-.564-1.996-.942-3.104-1.08-1.92-.239-3.703.133-5.284 1.286-.714.52-1.253 1.202-1.696 1.96-.562.963-.922 2.002-1.151 3.088-.19.897-.294 1.806-.265 2.722.053 1.677.388 3.29 1.18 4.786.875 1.654 2.195 2.803 3.957 3.44.875.316 1.78.42 2.7.336 1.102-.1 2.125-.464 3.089-1 .887-.495 1.67-1.125 2.402-1.826.59-.565 1.106-1.19 1.605-1.833.04-.05.068-.15.144-.126.077.025.044.122.044.187.001 2.061-.001 4.123.005 6.184 0 .175-.067.255-.221.322-1.184.518-2.42.862-3.676 1.146a22.674 22.674 0 01-4.155.538c-.371.011-.743.029-1.114.022-1.34-.026-2.665-.17-3.963-.516a12.797 12.797 0 01-5.227-2.78 11.361 11.361 0 01-2.636-3.38 11.256 11.256 0 01-1.122-3.555 8.996 8.996 0 01-.079-.675.573.573 0 00-.06-.256v-1.892c.048-.099.054-.207.062-.313a9.73 9.73 0 01.074-.638c.194-1.38.607-2.688 1.25-3.925.736-1.411 1.73-2.614 2.93-3.65a12.763 12.763 0 013.459-2.139 14.282 14.282 0 014.903-1.075c.062-.002.126.003.185-.025h1.513zm26.417 21.38c.094-.185.143-.367.206-.543.705-1.977 1.406-3.956 2.11-5.933.782-2.198 1.563-4.395 2.349-6.591.268-.749.587-1.476.943-2.187a3.67 3.67 0 011.034-1.286c.467-.359 1-.556 1.574-.65a9.253 9.253 0 011.468-.115l4.067-.003c.216 0 .219 0 .292.212l1.009 2.912 2.8 8.096c.57 1.65 1.14 3.3 1.712 4.95.393 1.139.788 2.276 1.182 3.414.093.267.092.268-.188.268h-5.164c-.198-.003-.2-.003-.267-.195l-.77-2.235-1.25-3.61c-.072-.21-.074-.21-.294-.21h-6.393c-.236 0-.237 0-.311.216l-1.682 4.88c-.111.323-.222.644-.335.966-.064.183-.068.188-.253.188-2.295-.002-4.59-.001-6.885-.009a5.399 5.399 0 01-1.126-.12c-.641-.138-1.137-.491-1.511-1.025-.327-.467-.584-.972-.822-1.488-.547-1.192-1.096-2.382-1.64-3.575-.223-.487-.463-.967-.607-1.487a2.62 2.62 0 01-.064-1.012c.052-.446.286-.8.568-1.132.274-.323.577-.617.879-.912.297-.292.592-.585.838-.923.35-.48.62-.997.7-1.594.183-1.34-.226-2.464-1.262-3.342-.614-.52-1.336-.788-2.136-.874-.85-.09-1.638.115-2.406.445-.093.04-.14.1-.133.203.005.069 0 .139 0 .208v16.267l-.002.227c0 .091-.04.143-.136.141l-.151.001H23.74c-.283 0-.284 0-.284-.281V23.938c0-.275.001-.276.271-.276l9.212.004c.84 0 1.675.05 2.499.226 1.088.234 2.095.65 2.957 1.368 1.113.925 1.793 2.101 1.983 3.543.196 1.488-.23 2.79-1.203 3.922-.425.494-.904.932-1.375 1.379-.078.073-.153.15-.23.224-.06.056-.072.115-.031.186.022.038.04.078.059.118l3.06 6.124c.034.066.057.14.133.214zm9.707-13.88c-.044.034-.05.073-.062.108l-.79 2.268-1.293 3.734c-.088.256-.177.512-.26.77-.04.118-.024.135.093.145.031.003.063.002.095.002h4.255c.224 0 .23-.009.161-.224-.707-2.216-1.415-4.43-2.124-6.646-.017-.052-.022-.11-.075-.157zm62.841 4.93V20.86c0-.39.007-.337.341-.337h13.581c.22.002.231.01.231.239.002 1.097.001 2.194 0 3.291 0 .044-.002.088-.006.132-.008.077-.055.108-.129.108l-.189.001h-8c-.301 0-.298-.026-.298.302v4.69c0 .278 0 .278.282.278h7.85c.332 0 .315-.023.315.323v3.253c-.003.225-.008.232-.237.232h-7.925c-.2.003-.211.011-.211.218v5.883c.002.227.005.232.235.232h8.473c.076 0 .152.001.227.003.077.001.115.042.118.118.001.05.003.1.003.151v3.272l-.001.095c-.008.147-.022.161-.165.168-.057.003-.114.001-.17.001h-14.111c-.198-.003-.209-.014-.213-.22V32.02zm-34.391-2.13c-.083-.01-.109-.083-.149-.135-.325-.425-.647-.855-1.005-1.253-1.146-1.273-2.545-2.107-4.235-2.43a5.713 5.713 0 00-1.373-.112c-1.342.07-2.58.442-3.632 1.315-.53.44-.943.98-1.28 1.577-.572 1.013-.898 2.107-1.063 3.252a9.136 9.136 0 00-.107 1.62c.05 1.416.324 2.78.987 4.044.846 1.612 2.148 2.664 3.914 3.12 1.036.266 2.063.184 3.075-.14.993-.317 1.869-.845 2.67-1.503A12.243 12.243 0 0078.8 37.08c.034-.045.062-.096.113-.126.01-.006.023-.005.037-.007.058.047.041.115.042.175 0 1.747-.001 3.493.003 5.24 0 .155-.058.235-.201.296-1.117.484-2.284.795-3.47 1.043a20.67 20.67 0 01-2.224.33 11 11 0 01-.754.046c-.372.01-.743.04-1.115.032-1.432-.028-2.84-.206-4.2-.675-1.74-.6-3.243-1.566-4.48-2.929-1.274-1.404-2.058-3.052-2.37-4.923a10.652 10.652 0 01-.14-2.26c.112-2.387.875-4.529 2.435-6.36a11.085 11.085 0 013.467-2.735 11.623 11.623 0 013.426-1.094 14.1 14.1 0 012.467-.177c.807.014 1.609.084 2.408.205 1.553.234 3.05.667 4.513 1.234.23.09.235.095.235.343v4.938c0 .072.022.152-.042.214zm21.418 3.7v-9.588c0-.399.013-.339.338-.34h5.012c.297 0 .297 0 .297.304v15.98c0 .36-.026.327.326.327h5.806c.3 0 .3.001.3.303V43.3c-.004.2-.014.213-.217.213h-11.537c-.31 0-.326.05-.326-.334V33.59zm-4.536 9.924c-1.015 0-2.03-.005-3.044.004-.184.001-.297-.052-.402-.209-1.189-1.783-2.386-3.56-3.58-5.34-.608-.905-1.217-1.81-1.822-2.717a5.057 5.057 0 01-.465-.821 2.074 2.074 0 01-.06-1.53c.126-.369.313-.703.552-1.007.839-1.064 1.655-2.146 2.475-3.225 1.204-1.586 2.41-3.172 3.608-4.763a.554.554 0 01.501-.25c1.778.01 3.556.005 5.333.008.082 0 .2-.05.24.044.031.074-.067.14-.117.202-2.38 2.979-4.762 5.957-7.144 8.934-.146.183-.145.182-.01.373l4.459 6.295 2.667 3.765c.042.06.129.122.096.193-.04.086-.147.042-.223.042-1.021.002-2.043.002-3.064.002zm-15.558-9.926v-9.607c0-.357.006-.318.32-.319h5.032c.294 0 .295 0 .295.288v19.33c-.003.224-.012.234-.237.234h-5.239c-.144-.008-.162-.023-.17-.166-.004-.069-.001-.138-.001-.208v-9.55z" clip-rule="evenodd" fill-rule="evenodd"/></svg>