<?xml version="1.0" encoding="UTF-8" standalone="no"?>

<svg xmlns:svg="http://www.w3.org/2000/svg" xmlns="http://www.w3.org/2000/svg" version="1.1" width="128" height="64" xmlns:xlink="http://www.w3.org/1999/xlink">
	<g transform="matrix(0.01621234,0,0,0.01621234,35.287946,0.2238136)">
		<g>
			<rect fill="#101372" width="3542" height="3197" id="rect4221" x="0" y="0" />
			<path fill="#ffffff" d="m 2274,348 c 160,20 441,216 442,437 l 743,0 c 0,0 0,287 0,566 C 3229,1136 1663,1093 1732,581 1755,410 1984,312 2274,348 Z M 662,71 70,71 l 0,2486 490,0 0,-371 1276,0 0,371 985,0 c 12,-66 3,-125 -24,-177 -19,-37 -55,-73 -92,-95 C 2378,2095 1669,1941 1298,1810 1086,1735 873,1622 717,1461 557,1297 481,1050 471,827 463,333 661,70 661,70 Z" />
			<polygon fill="#101372" points="561,2557 561,2186 1837,2186 1837,2557 " />
			<path fill="#101372" d="m 662,70 2797,0 0,714 -743,0 c 0,-221 -281,-417 -442,-437 -290,-36 -519,62 -542,233 -69,513 1497,556 1727,770 l 0,1206 -637,0 c 12,-66 3,-125 -24,-177 -19,-37 -55,-73 -92,-95 C 2379,2094 1670,1940 1299,1809 1087,1734 874,1621 718,1460 558,1296 482,1049 472,826 464,332 662,69 662,69 Z" />
			<path fill="#101372" fill-rule="nonzero" d="m 86,3512 0,-32 13,0 c 9,0 15,-1 17,-4 3,-2 4,-8 4,-18 l 0,-140 c 0,-10 -1,-16 -4,-18 -3,-2 -8,-4 -17,-4 l -13,0 0,-32 231,0 0,94 -31,0 c -2,-14 -4,-25 -7,-33 -3,-7 -6,-13 -10,-17 -4,-4 -10,-7 -17,-9 -7,-2 -19,-3 -37,-3 l -30,0 0,70 6,0 c 13,0 22,-3 26,-8 4,-5 7,-16 7,-31 l 29,0 0,113 -29,0 c 0,-17 -3,-28 -6,-33 -4,-5 -13,-8 -26,-8 l -6,0 0,80 31,0 c 26,0 43,-5 52,-14 9,-9 15,-28 17,-56 l 31,0 0,102 -231,0 z m 295,-194 c 0,-9 -1,-15 -4,-18 -3,-2 -9,-4 -18,-4 l -12,0 0,-32 112,0 90,172 0,-119 c 0,-9 -1,-15 -4,-18 -3,-2 -9,-4 -18,-4 l -13,0 0,-32 107,0 0,32 -11,0 c -9,0 -15,1 -18,4 -3,2 -4,8 -4,18 l 0,194 -72,0 -96,-184 0,130 c 0,9 1,15 4,18 3,2 9,4 18,4 l 13,0 0,32 -108,0 0,-32 12,0 c 9,0 15,-1 18,-4 3,-2 4,-8 4,-18 l 0,-140 z m 480,-54 0,95 -32,0 c 0,-21 -4,-37 -11,-47 -8,-10 -19,-15 -35,-15 l -4,0 0,157 c 0,9 0,14 1,17 1,3 2,4 4,5 2,1 6,2 10,2 4,0 11,1 22,1 l 0,32 -139,0 0,-32 c 7,0 14,0 19,-1 5,-1 10,-1 13,-3 2,-1 3,-2 4,-5 1,-3 1,-8 1,-16 l 0,-5 0,-153 -3,0 c -16,0 -28,5 -35,15 -8,10 -12,26 -12,47 l -31,0 0,-95 228,0 z m 14,247 0,-32 13,0 c 9,0 15,-1 17,-4 3,-2 4,-8 4,-18 l 0,-140 c 0,-10 -1,-16 -4,-18 -3,-2 -8,-4 -17,-4 l -13,0 0,-32 231,0 0,94 -31,0 c -2,-14 -4,-25 -7,-33 -3,-7 -6,-13 -10,-17 -4,-4 -10,-7 -17,-9 -7,-2 -19,-3 -37,-3 l -30,0 0,70 6,0 c 13,0 22,-3 26,-8 4,-5 7,-16 7,-31 l 29,0 0,113 -29,0 c 0,-17 -3,-28 -6,-33 -4,-5 -13,-8 -26,-8 l -6,0 0,80 31,0 c 26,0 43,-5 52,-14 9,-9 15,-28 17,-56 l 31,0 0,102 -231,0 z m 361,-145 25,0 c 18,0 30,-2 36,-7 6,-5 10,-14 10,-26 0,-13 -3,-23 -10,-28 -6,-5 -18,-8 -33,-8 l -27,0 0,70 z m 0,91 c 0,9 1,15 4,18 3,2 8,4 18,4 l 12,0 0,32 -134,0 0,-32 13,0 c 9,0 15,-1 17,-4 3,-2 4,-8 4,-18 l 0,-140 c 0,-10 -1,-16 -4,-18 -3,-2 -8,-4 -17,-4 l -13,0 0,-32 154,0 c 29,0 50,5 64,15 14,10 21,26 21,46 0,15 -5,27 -14,36 -9,10 -23,16 -40,20 15,3 26,8 32,16 6,8 10,19 10,34 l 0,24 c 0,10 1,17 2,21 1,4 4,5 8,5 4,0 8,-3 9,-8 2,-5 3,-16 3,-31 l 23,0 c 0,1 0,3 0,5 0,2 0,4 0,5 0,23 -4,39 -13,50 -9,11 -23,16 -41,16 -20,0 -34,-5 -43,-15 -9,-10 -14,-26 -14,-48 l 0,-24 c 0,-14 -2,-23 -6,-27 -4,-4 -13,-6 -26,-6 l -29,0 0,59 z m 409,-194 0,95 -32,0 c 0,-21 -4,-37 -11,-47 -8,-10 -19,-15 -35,-15 l -4,0 0,157 c 0,9 0,14 1,17 1,3 2,4 4,5 2,1 6,2 10,2 4,0 11,1 22,1 l 0,32 -139,0 0,-32 c 7,0 14,0 19,-1 5,-1 10,-1 13,-3 2,-1 3,-2 4,-5 1,-3 1,-8 1,-16 l 0,-5 0,-153 -3,0 c -16,0 -28,5 -35,15 -8,10 -12,26 -12,47 l -31,0 0,-95 228,0 z m 143,136 -24,-78 -24,78 48,0 z m -140,112 0,-32 8,0 c 8,0 13,-1 17,-4 4,-3 7,-9 10,-20 l 60,-191 70,0 58,192 c 3,9 6,15 9,18 3,3 8,4 15,4 l 12,0 0,32 -129,0 0,-32 10,0 c 8,0 14,-1 17,-2 3,-1 4,-4 4,-7 0,-1 0,-3 -1,-5 0,-1 -1,-2 -1,-3 l -9,-30 -67,0 -9,28 c 0,2 -1,3 -1,5 0,2 -1,3 -1,5 0,3 1,6 4,7 2,1 8,2 15,2 l 11,0 0,32 -103,0 z m 262,0 0,-32 14,0 c 9,0 15,-1 17,-4 3,-2 4,-8 4,-18 l 0,-140 c 0,-10 -1,-16 -4,-18 -3,-2 -8,-4 -17,-4 l -14,0 0,-32 138,0 0,32 -14,0 c -9,0 -15,1 -18,4 -3,2 -4,8 -4,18 l 0,140 c 0,9 1,15 4,18 3,2 9,4 18,4 l 14,0 0,32 -138,0 z m 186,-194 c 0,-9 -1,-15 -4,-18 -3,-2 -9,-4 -18,-4 l -12,0 0,-32 112,0 90,172 0,-119 c 0,-9 -1,-15 -4,-18 -3,-2 -9,-4 -18,-4 l -13,0 0,-32 107,0 0,32 -11,0 c -9,0 -15,1 -18,4 -3,2 -4,8 -4,18 l 0,194 -72,0 -96,-184 0,130 c 0,9 1,15 4,18 3,2 9,4 18,4 l 13,0 0,32 -108,0 0,-32 12,0 c 9,0 15,-1 18,-4 3,-2 4,-8 4,-18 l 0,-140 z m 323,140 c 0,9 1,15 4,18 3,2 8,4 18,4 l 7,0 0,32 -100,0 0,-32 11,0 c 9,0 15,-1 18,-4 3,-2 4,-8 4,-18 l 0,-140 c 0,-9 -1,-15 -4,-18 -3,-2 -8,-4 -18,-4 l -11,0 0,-32 123,0 41,152 43,-152 122,0 0,32 -12,0 c -9,0 -15,1 -18,4 -3,2 -4,8 -4,18 l 0,140 c 0,9 1,15 4,18 3,2 9,4 18,4 l 12,0 0,32 -123,0 0,-32 7,0 c 9,0 15,-1 17,-4 3,-2 4,-8 4,-18 l 0,-154 -58,208 -47,0 -57,-209 0,155 z m 270,54 0,-32 13,0 c 9,0 15,-1 17,-4 3,-2 4,-8 4,-18 l 0,-140 c 0,-10 -1,-16 -4,-18 -3,-2 -8,-4 -17,-4 l -13,0 0,-32 231,0 0,94 -31,0 c -2,-14 -4,-25 -7,-33 -3,-7 -6,-13 -10,-17 -4,-4 -10,-7 -17,-9 -7,-2 -19,-3 -37,-3 l -30,0 0,70 6,0 c 13,0 22,-3 26,-8 4,-5 7,-16 7,-31 l 29,0 0,113 -29,0 c 0,-17 -3,-28 -6,-33 -4,-5 -13,-8 -26,-8 l -6,0 0,80 31,0 c 26,0 43,-5 52,-14 9,-9 15,-28 17,-56 l 31,0 0,102 -231,0 z m 295,-194 c 0,-9 -1,-15 -4,-18 -3,-2 -9,-4 -18,-4 l -12,0 0,-32 112,0 90,172 0,-119 c 0,-9 -1,-15 -4,-18 -3,-2 -9,-4 -18,-4 l -13,0 0,-32 107,0 0,32 -11,0 c -9,0 -15,1 -18,4 -3,2 -4,8 -4,18 l 0,194 -72,0 -96,-184 0,130 c 0,9 1,15 4,18 3,2 9,4 18,4 l 13,0 0,32 -108,0 0,-32 12,0 c 9,0 15,-1 18,-4 3,-2 4,-8 4,-18 l 0,-140 z m 480,-54 0,95 -32,0 c 0,-21 -4,-37 -11,-47 -8,-10 -19,-15 -35,-15 l -4,0 0,157 c 0,9 0,14 1,17 1,3 2,4 4,5 2,1 6,2 10,2 4,0 11,1 22,1 l 0,32 -139,0 0,-32 c 7,0 14,0 19,-1 5,-1 10,-1 13,-3 2,-1 3,-2 4,-5 1,-3 1,-8 1,-16 l 0,-5 0,-153 -3,0 c -16,0 -28,5 -35,15 -8,10 -12,26 -12,47 l -31,0 0,-95 228,0 z" />
			<path fill="#101372" fill-rule="nonzero" d="m 400,3585 0,125 -46,0 c 0,-28 -5,-48 -16,-62 -11,-13 -28,-20 -51,-20 l -5,0 0,206 c 0,11 1,19 2,22 1,4 3,6 6,7 3,1 8,3 14,3 6,1 16,1 31,1 l 0,42 -201,0 0,-42 c 11,0 20,0 27,-1 8,-1 14,-2 19,-3 3,-1 5,-3 6,-7 1,-4 2,-11 2,-22 l 0,-6 0,-200 -5,0 c -23,0 -40,7 -51,20 -11,13 -17,34 -17,62 l -45,0 0,-125 330,0 z m 2,324 0,-42 19,0 c 13,0 22,-2 25,-5 4,-3 6,-11 6,-23 l 0,-183 c 0,-13 -2,-20 -6,-24 -4,-3 -12,-5 -25,-5 l -19,0 0,-42 335,0 0,124 -44,0 c -3,-19 -6,-33 -10,-43 -4,-10 -9,-17 -15,-23 -6,-6 -14,-10 -24,-12 -10,-2 -28,-4 -53,-4 l -44,0 0,92 8,0 c 19,0 31,-3 38,-10 6,-7 10,-20 10,-41 l 42,0 0,148 -42,0 c -1,-22 -4,-37 -9,-44 -6,-7 -18,-10 -38,-10 l -8,0 0,105 45,0 c 37,0 62,-6 76,-18 13,-12 21,-37 25,-73 l 44,0 0,134 -335,0 z m 378,-324 197,0 0,42 -21,0 c -13,0 -22,2 -26,5 -4,3 -6,11 -6,23 l 0,211 27,0 c 26,0 43,-1 53,-4 10,-2 18,-6 24,-12 7,-6 13,-15 16,-27 4,-11 7,-27 8,-48 l 44,0 0,133 -318,0 0,-42 19,0 c 13,0 22,-2 25,-5 4,-3 6,-11 6,-23 l 0,-183 c 0,-13 -2,-20 -6,-24 -4,-3 -12,-5 -25,-5 l -19,0 0,-42 z m 350,324 0,-42 19,0 c 13,0 22,-2 25,-5 4,-3 6,-11 6,-23 l 0,-183 c 0,-13 -2,-20 -6,-24 -4,-3 -12,-5 -25,-5 l -19,0 0,-42 335,0 0,124 -44,0 c -3,-19 -6,-33 -10,-43 -4,-10 -9,-17 -15,-23 -6,-6 -14,-10 -24,-12 -10,-2 -28,-4 -53,-4 l -44,0 0,92 8,0 c 19,0 31,-3 38,-10 6,-7 10,-20 10,-41 l 42,0 0,148 -42,0 c -1,-22 -4,-37 -9,-44 -6,-7 -18,-10 -38,-10 l -8,0 0,105 45,0 c 37,0 62,-6 76,-18 13,-12 21,-37 25,-73 l 44,0 0,134 -335,0 z m 597,0 -95,0 -86,-245 c -6,-16 -12,-27 -19,-31 -7,-5 -18,-7 -33,-8 l 0,-41 190,0 0,41 c -2,0 -5,0 -8,0 -3,0 -7,0 -11,0 -11,0 -18,1 -22,3 -4,2 -6,6 -6,12 0,2 1,5 1,9 1,4 3,10 6,19 l 54,158 58,-166 c 3,-7 4,-13 5,-15 1,-3 1,-5 1,-6 0,-5 -2,-8 -7,-10 -5,-2 -12,-3 -22,-3 -4,0 -7,0 -9,0 -2,0 -4,0 -6,0 l 0,-41 147,0 0,41 c -16,0 -27,3 -35,10 -8,6 -14,19 -20,38 l -82,235 z m 146,0 0,-42 21,0 c 13,0 22,-2 25,-5 4,-3 6,-11 6,-23 l 0,-183 c 0,-13 -2,-20 -6,-24 -4,-3 -12,-5 -25,-5 l -21,0 0,-42 200,0 0,42 -21,0 c -13,0 -22,2 -26,5 -4,3 -6,11 -6,23 l 0,183 c 0,12 2,20 6,23 4,3 12,5 26,5 l 21,0 0,42 -200,0 z m 273,4 -41,0 0,-128 45,0 c 4,26 16,47 35,62 19,15 43,23 70,23 19,0 34,-3 45,-10 11,-7 16,-16 16,-28 0,-19 -20,-33 -61,-42 -7,-1 -12,-2 -15,-3 -35,-8 -60,-15 -73,-20 -14,-5 -25,-11 -34,-18 -11,-9 -20,-19 -26,-30 -6,-12 -9,-25 -9,-39 0,-33 12,-58 36,-76 24,-18 58,-27 102,-27 22,0 41,2 58,7 17,5 31,11 44,20 l 10,-23 42,0 0,119 -46,0 c -3,-24 -13,-43 -31,-56 -18,-14 -41,-20 -69,-20 -17,0 -30,3 -40,10 -10,7 -15,16 -15,27 0,17 22,29 67,38 17,3 30,6 40,9 39,9 67,22 85,39 18,17 27,39 27,67 0,32 -13,58 -38,77 -25,19 -59,29 -103,29 -21,0 -41,-3 -61,-8 -20,-5 -36,-12 -49,-21 l -14,24 z m 287,-4 0,-42 21,0 c 13,0 22,-2 25,-5 4,-3 6,-11 6,-23 l 0,-183 c 0,-13 -2,-20 -6,-24 -4,-3 -12,-5 -25,-5 l -21,0 0,-42 200,0 0,42 -21,0 c -13,0 -22,2 -26,5 -4,3 -6,11 -6,23 l 0,183 c 0,12 2,20 6,23 4,3 12,5 26,5 l 21,0 0,42 -200,0 z m 338,-162 c 0,44 6,77 19,97 13,20 33,30 61,30 28,0 48,-10 61,-30 13,-20 19,-53 19,-97 0,-44 -6,-77 -19,-97 -13,-20 -33,-30 -61,-30 -28,0 -48,10 -61,30 -13,20 -19,53 -19,97 z m -110,0 c 0,-54 17,-96 51,-126 34,-31 80,-46 140,-46 59,0 106,15 139,46 34,31 51,73 51,126 0,54 -17,96 -51,126 -34,30 -80,46 -139,46 -59,0 -106,-15 -140,-46 -34,-31 -51,-73 -51,-126 z m 456,-92 c 0,-12 -2,-20 -6,-23 -4,-3 -12,-5 -26,-5 l -18,0 0,-42 162,0 130,226 0,-156 c 0,-12 -2,-20 -6,-23 -4,-3 -12,-5 -26,-5 l -19,0 0,-42 155,0 0,42 -16,0 c -13,0 -22,2 -26,5 -4,3 -6,11 -6,23 l 0,254 -104,0 -139,-241 0,171 c 0,12 2,20 6,23 4,3 12,5 26,5 l 19,0 0,42 -157,0 0,-42 18,0 c 13,0 22,-2 26,-5 4,-3 6,-11 6,-23 l 0,-183 z" />
			<path fill="#ffffff" d="m 1707,3035 0,55 314,0 0,-61 -102,0 0,-237 402,300 115,0 0,-358 c 0,0 -1,-16 16,-16 17,0 88,0 88,0 l 0,-65 -316,0 0,64 88,0 c 0,0 20,0 20,17 0,17 0,191 0,191 l -352,-270 -271,0 0,60 96,0 0,320 -97,2 z" />
			<polygon fill="#ffffff" points="3345,2719 3432,2719 3432,2650 3128,2650 3128,2719 3188,2719 3058,2848 2930,2736 2931,2718 2985,2719 2986,2651 2611,2653 2611,2718 2709,2718 2938,2929 2938,3031 2843,3031 2843,3090 3207,3090 3207,3029 3102,3029 3102,2934 " />
			<path fill="#ffffff" d="m 1276,2626 c 221,0 400,112 400,250 0,138 -179,250 -400,250 -221,0 -400,-112 -400,-250 0,-138 179,-250 400,-250 z m 3,80 c 129,0 233,76 233,170 0,94 -104,170 -233,170 -129,0 -233,-76 -233,-170 0,-94 104,-170 233,-170 z" />
			<path fill="#ffffff" d="m 763,2653 -74,0 0,33 c 0,0 -22,-21 -102,-38 -132,-28 -280,-29 -400,32 -76,38 -100,105 -51,169 39,51 185,70 247,75 136,12 386,38 210,111 -49,17 -97,31 -249,2 -65,-21 -109,-24 -144,-107 -32,2 -83,0 -83,0 l 0,171 93,2 0,-27 16,0 c 0,0 130,54 330,46 69,-11 147,-18 208,-81 62,-65 36,-135 -33,-179 -62,-39 -192,-48 -257,-56 -107,-7 -184,-21 -184,-21 0,0 -55,-24 -9,-59 34,-25 114,-26 154,-24 43,3 128,0 204,36 28,19 47,38 51,67 l 73,0 -1,-150 z" />
			<path fill="#101372" d="m 1279,2705 c 129,0 233,76 233,170 0,94 -104,170 -233,170 -129,0 -233,-76 -233,-170 0,-94 104,-170 233,-170 z" />
		</g>
	</g>
</svg>
