<svg xmlns="http://www.w3.org/2000/svg" width="128" height="64"><path fill="#101372" d="M35.288.224h57.424v51.83H35.288z"/><path fill="#fff" d="M72.155 5.866c2.594.324 7.15 3.502 7.166 7.085h12.05v9.18c-3.73-3.49-29.114-4.18-28-12.482.377-2.772 4.09-4.36 8.79-3.777zM46.02 1.376h-9.597V41.68h7.944v-6.017h20.687v6.015h15.97c.194-1.07.048-2.028-.39-2.87-.308-.6-.892-1.184-1.492-1.54-5.3-3.08-16.796-5.578-22.81-7.702-3.437-1.216-6.89-3.048-9.42-5.658-2.594-2.66-3.826-6.663-3.988-10.28-.13-8.007 3.08-12.27 3.08-12.27z"/><path fill="#101372" d="M44.383 41.68v-6.016H65.07v6.015zM46.02 1.36h45.346v11.574H79.32c0-3.583-4.555-6.76-7.165-7.085-4.702-.59-8.414 1-8.787 3.77-1.12 8.318 24.27 9.015 27.998 12.484V41.66H81.04c.194-1.07.048-2.027-.39-2.87-.308-.6-.892-1.184-1.49-1.54-5.303-3.08-16.797-5.577-22.812-7.7-3.437-1.217-6.89-3.05-9.42-5.66-2.594-2.658-3.826-6.662-3.988-10.278-.13-8.01 3.08-12.273 3.08-12.273zm-9.338 55.802v-.52h.21c.147 0 .244-.015.277-.064.04-.033.06-.13.06-.292v-2.27c0-.162-.02-.26-.067-.29-.05-.034-.13-.066-.277-.066h-.21v-.52h3.744v1.525h-.5c-.034-.227-.066-.405-.115-.535-.05-.114-.098-.21-.16-.276-.068-.065-.165-.113-.28-.146-.112-.032-.307-.048-.6-.048h-.485v1.135h.1c.21 0 .356-.05.42-.13.066-.08.115-.26.115-.503h.47v1.832h-.47c0-.275-.05-.454-.1-.535-.064-.088-.21-.13-.42-.13h-.1v1.29h.505c.423 0 .698-.08.844-.226.145-.147.242-.455.275-.91h.5v1.654h-3.74zm4.783-3.146c0-.146-.016-.243-.065-.29-.05-.034-.146-.066-.292-.066h-.194v-.52h1.815l1.46 2.79V54c0-.146-.02-.243-.07-.292-.05-.032-.148-.065-.29-.065h-.21v-.518h1.73v.518h-.18c-.143 0-.24.017-.29.065-.05.033-.064.13-.064.292v3.145H43.65l-1.556-2.983v2.108c0 .146.016.243.065.292.05.032.144.065.29.065h.21v.518h-1.75v-.518h.194c.146 0 .243-.017.292-.065.05-.033.064-.13.064-.292V54zm7.782-.875v1.54h-.52c0-.34-.064-.6-.177-.76-.13-.16-.308-.24-.568-.24h-.065v2.547c0 .147 0 .228.017.277.016.048.032.065.064.08.033.017.098.033.163.033s.18.017.36.017v.516h-2.25v-.52c.114 0 .228 0 .31-.017.08-.016.16-.016.21-.048.032-.017.05-.033.064-.08.017-.05.017-.13.017-.26V53.66h-.05c-.257 0-.452.08-.566.243-.13.162-.196.42-.196.762h-.503v-1.54h3.7zm.227 4.01v-.52h.21c.146 0 .244-.015.276-.063.05-.033.065-.13.065-.292V54c0-.162-.016-.26-.065-.292-.05-.032-.13-.065-.275-.065h-.21v-.518h3.744v1.524h-.51c-.03-.23-.065-.41-.113-.54-.05-.116-.098-.21-.16-.278-.066-.065-.164-.113-.277-.146-.112-.03-.307-.05-.6-.05h-.485v1.136h.095c.21 0 .357-.048.422-.13.064-.08.113-.26.113-.502h.47v1.833h-.47c0-.276-.048-.454-.096-.535-.066-.08-.21-.13-.42-.13h-.1v1.297h.503c.42 0 .697-.08.843-.23.146-.145.243-.453.275-.907h.504v1.655H49.47zm5.852-2.35h.406c.292 0 .486-.032.583-.113.098-.08.162-.226.162-.42 0-.21-.048-.373-.162-.454-.097-.08-.29-.13-.535-.13h-.437v1.135zm0 1.476c0 .147.017.244.065.293.05.03.13.064.3.064h.194v.52H53.71v-.52h.21c.146 0 .243-.016.276-.064.048-.034.064-.13.064-.293V54c0-.162-.016-.26-.064-.292-.05-.032-.13-.065-.276-.065h-.21v-.518h2.49c.47 0 .81.08 1.037.243.226.162.34.42.34.746 0 .243-.08.437-.227.583-.146.162-.373.26-.65.325.245.048.423.13.52.26.098.13.162.307.162.55v.39c0 .16.017.275.033.34s.065.08.13.08c.064 0 .13-.048.145-.13.033-.08.05-.258.05-.502h.372v.162c0 .373-.065.633-.21.81-.147.18-.374.26-.666.26-.325 0-.552-.08-.698-.243-.146-.17-.227-.428-.227-.78v-.39c0-.23-.03-.377-.09-.44-.066-.066-.21-.1-.42-.1h-.473v.958zm6.63-3.144v1.54h-.518c0-.34-.064-.6-.178-.762-.13-.162-.308-.243-.567-.243h-.065v2.546c0 .146 0 .227.016.276.016.05.032.064.065.08.03.017.09.033.16.033s.18.013.352.013v.52H58.97v-.52c.115 0 .228 0 .31-.016.08-.017.162-.017.21-.05.033-.016.05-.03.066-.08s.016-.13.016-.26v-2.56h-.05c-.258 0-.453.08-.566.242-.13.16-.195.42-.195.76h-.5v-1.54h3.7zm2.32 2.205l-.39-1.264-.39 1.265h.78zm-2.27 1.816v-.52h.13c.13 0 .21-.015.275-.063.07-.05.12-.146.17-.325l.972-3.093h1.135l.94 3.113c.05.146.1.243.147.29.05.05.13.066.244.066h.195v.52H64.12v-.52h.163c.13 0 .227-.016.275-.032.05-.016.066-.065.066-.114 0-.018 0-.05-.017-.08 0-.02-.016-.035-.016-.05l-.145-.488H63.36l-.145.454c0 .032-.02.05-.02.08 0 .033-.018.05-.018.08 0 .05.016.098.065.114.03.018.13.034.242.034h.18v.52h-1.67zm4.248 0v-.52h.226c.146 0 .244-.015.276-.063.05-.033.065-.13.065-.292V54c0-.162-.01-.26-.06-.292-.05-.032-.13-.065-.274-.065h-.225v-.518h2.237v.518h-.226c-.146 0-.243.017-.292.065-.05.033-.065.13-.065.292v2.27c0 .146.016.243.065.292.05.032.146.065.292.065h.224v.518H66.26zM69.27 54c0-.146-.017-.243-.066-.292-.048-.032-.146-.065-.292-.065h-.194v-.518h1.816l1.46 2.788v-1.93c0-.145-.018-.242-.066-.29-.05-.033-.146-.066-.292-.066h-.21v-.52h1.734v.52h-.178c-.146 0-.244.016-.292.065-.05.033-.065.13-.065.292v3.145h-1.167L69.9 54.14v2.108c0 .147.018.244.066.29.05.035.146.067.292.067h.21v.52h-1.75v-.52h.194c.146 0 .244-.017.292-.066.05-.03.065-.13.065-.29v-2.27zm5.236 2.27c0 .146.016.243.064.292.05.032.13.065.292.065h.114v.518h-1.62v-.518h.177c.146 0 .243-.017.292-.065.048-.033.065-.13.065-.292V54c0-.146-.017-.243-.065-.292-.05-.032-.13-.065-.292-.065h-.178v-.518h1.994l.66 2.464.694-2.47h1.977v.52h-.193c-.146 0-.243.015-.29.063-.05.033-.066.13-.066.292v2.27c0 .145.017.242.066.29.05.033.146.066.292.066h.193v.52h-1.99v-.518h.113c.146 0 .243-.017.275-.065.05-.034.066-.13.066-.29v-2.5l-.94 3.37h-.762l-.924-3.387v2.515zm4.377.875v-.518h.21c.147 0 .244-.017.276-.065.042-.033.06-.13.06-.292V54c0-.162-.018-.26-.067-.292-.05-.032-.13-.065-.276-.065h-.21v-.518h3.744v1.524h-.502c-.03-.23-.064-.41-.113-.54-.05-.116-.1-.21-.164-.278-.064-.065-.16-.113-.275-.146-.112-.03-.307-.05-.6-.05h-.485v1.136h.097c.21 0 .356-.048.42-.13.066-.08.114-.26.114-.502h.47v1.833h-.47c0-.276-.047-.454-.096-.535-.064-.08-.21-.13-.42-.13H80.5v1.297h.504c.42 0 .697-.08.843-.23.143-.145.24-.453.272-.907h.5v1.655h-3.74zM83.666 54c0-.146-.017-.243-.065-.292-.042-.032-.14-.065-.29-.065h-.19v-.518h1.816l1.46 2.788v-1.93c0-.145-.016-.242-.065-.29-.05-.033-.146-.066-.29-.066h-.212v-.52h1.735v.52h-.18c-.144 0-.24.016-.29.065-.05.033-.064.13-.064.292v3.145h-1.17l-1.56-2.99v2.107c0 .147.015.244.064.29.048.035.146.067.292.067h.21v.52h-1.75v-.52h.194c.145 0 .242-.017.29-.066.05-.03.066-.13.066-.29v-2.27zm7.78-.875v1.54h-.517c0-.34-.07-.6-.18-.762-.13-.162-.31-.243-.57-.243h-.068v2.545c0 .146 0 .227.016.276.017.05.033.07.065.088.032.016.096.032.16.032.066 0 .18.015.358.015v.52h-2.25v-.52c.115 0 .228 0 .31-.015.08-.017.162-.017.21-.05.033-.016.05-.03.065-.08.016-.05.016-.13.016-.26v-2.56h-.043c-.26 0-.454.08-.568.242-.13.163-.195.42-.195.763h-.502V53.11h3.697zm-49.673 5.22v2.027h-.746c0-.454-.08-.78-.26-1.006-.178-.21-.453-.324-.826-.324h-.08v3.34c0 .178.02.308.038.357.016.06.05.09.098.11s.13.05.227.05c.098.01.26.01.503.01v.68h-3.26v-.68c.18 0 .325 0 .438-.015.13-.016.228-.033.31-.05.05-.015.08-.05.096-.112.016-.067.032-.18.032-.36v-3.34h-.08c-.375 0-.65.115-.83.325-.177.21-.275.552-.275 1.006h-.73V58.34h5.35zm.032 5.253v-.68h.308c.21 0 .357-.033.406-.082.06-.05.09-.178.09-.373v-2.967c0-.21-.033-.324-.097-.39-.066-.048-.196-.08-.407-.08H41.8v-.68h5.43v2.01h-.712c-.05-.31-.095-.536-.16-.698-.064-.162-.145-.275-.242-.373-.097-.097-.227-.162-.39-.194-.16-.03-.453-.06-.86-.06h-.712v1.49h.13c.308 0 .502-.05.616-.16.098-.113.163-.324.163-.664h.68v2.4h-.68c-.016-.357-.065-.6-.146-.713-.1-.115-.294-.163-.618-.163h-.13v1.7h.73c.6 0 1.003-.1 1.23-.293.21-.194.34-.6.405-1.183h.714v2.172h-5.43zm6.13-5.253h3.192v.68h-.34c-.21 0-.357.033-.422.082-.064.05-.097.178-.097.373v3.42h.438c.42 0 .697-.015.86-.064.16-.033.29-.097.388-.195.114-.09.21-.24.26-.43.064-.18.113-.44.13-.78h.713v2.158H47.9v-.68h.31c.21 0 .356-.034.404-.082.065-.05.098-.18.098-.372v-2.97c0-.21-.033-.323-.098-.39-.064-.047-.194-.08-.405-.08h-.31v-.68zm5.673 5.253v-.68h.308c.21 0 .357-.033.405-.082.07-.05.1-.178.1-.373v-2.967c0-.21-.03-.324-.1-.39-.06-.048-.19-.08-.4-.08h-.31v-.68h5.43v2.01h-.71c-.05-.31-.1-.536-.16-.698-.066-.162-.147-.275-.245-.373-.095-.097-.225-.162-.39-.194-.16-.03-.45-.06-.856-.06h-.714v1.49h.13c.307 0 .502-.05.615-.16.098-.113.163-.324.163-.664h.68v2.4h-.68c-.016-.357-.064-.6-.145-.713-.096-.115-.29-.163-.614-.163h-.13v1.7h.73c.6 0 1.006-.1 1.233-.293.21-.194.34-.6.405-1.183h.715v2.172h-5.43zm9.68 0h-1.542l-1.394-3.972c-.097-.26-.194-.438-.308-.503-.113-.08-.292-.113-.535-.13v-.664h3.08v.66h-.31c-.18 0-.29.014-.36.05-.066.03-.098.094-.098.192 0 .032.016.08.016.146.016.064.05.162.097.31l.875 2.56.94-2.69c.05-.115.066-.21.082-.244.016-.05.016-.08.016-.097 0-.08-.03-.13-.11-.16-.08-.033-.194-.05-.356-.05h-.243v-.664h2.385v.665c-.26 0-.438.05-.567.164-.13.097-.23.308-.328.616L63.3 63.6zm2.366 0v-.68h.34c.21 0 .357-.033.405-.082.06-.05.09-.178.09-.373v-2.967c0-.21-.032-.324-.097-.39-.065-.048-.195-.08-.406-.08h-.34v-.68h3.242v.68h-.34c-.21 0-.358.032-.423.08-.063.05-.095.18-.095.374v2.967c0 .194.032.324.097.373.065.048.195.08.422.08h.34v.682H65.65zm4.426.065h-.665v-2.075h.73c.064.42.26.762.567 1.005.308.243.697.373 1.135.373.308 0 .55-.05.73-.163.178-.113.26-.26.26-.453 0-.31-.326-.536-.99-.68-.114-.018-.195-.034-.243-.05-.568-.13-.973-.243-1.184-.324-.227-.08-.405-.18-.55-.292-.18-.146-.325-.308-.423-.486-.097-.195-.146-.406-.146-.633 0-.535.2-.94.59-1.232.39-.292.94-.438 1.655-.438.356 0 .664.033.94.114.276.08.503.17.713.32l.163-.376h.68v1.93h-.745c-.05-.39-.21-.7-.502-.91-.29-.226-.664-.324-1.12-.324-.273 0-.484.05-.646.163-.16.113-.242.26-.242.437 0 .277.356.47 1.086.617.277.05.487.1.65.146.634.145 1.09.356 1.38.63.29.277.437.634.437 1.088 0 .52-.21.94-.616 1.25-.403.31-.954.47-1.67.47-.34 0-.662-.05-.987-.13-.324-.08-.583-.193-.794-.34l-.228.39zm4.653-.065v-.68h.34c.21 0 .357-.033.405-.082.065-.05.098-.178.098-.373v-2.967c0-.21-.033-.324-.098-.39-.065-.048-.194-.08-.405-.08h-.34v-.68h3.242v.68h-.34c-.21 0-.357.032-.422.08-.065.05-.097.18-.097.374v2.967c0 .194.032.324.097.373.065.048.195.08.422.08h.34v.682h-3.242zm5.48-2.627c0 .72.097 1.25.307 1.58.21.324.535.486.99.486.453 0 .778-.16.988-.485.21-.324.308-.86.308-1.573 0-.712-.097-1.247-.308-1.57-.21-.325-.535-.488-.99-.488-.453 0-.777.162-.988.486-.21.324-.308.86-.308 1.57zm-1.784 0c0-.87.27-1.55.82-2.04.55-.5 1.297-.74 2.27-.74.956 0 1.72.242 2.253.745.55.5.826 1.183.826 2.04 0 .878-.276 1.56-.827 2.045-.552.486-1.298.745-2.254.745s-1.72-.242-2.27-.745-.827-1.184-.827-2.044zm7.39-1.49c0-.19-.037-.32-.1-.37-.066-.05-.196-.08-.42-.08h-.29v-.68h2.624l2.107 3.665v-2.53c0-.194-.03-.323-.096-.372-.065-.05-.195-.08-.422-.08h-.308v-.68h2.513v.68h-.258c-.21 0-.358.032-.423.08-.06.05-.094.18-.094.374v4.12H88.97L86.715 59.7v2.773c0 .194.033.323.098.372.066.05.195.08.422.08h.308v.68h-2.545v-.68h.292c.21 0 .355-.033.42-.082.065-.05.1-.178.1-.373V59.5z"/><path fill="#fff" d="M62.962 49.428v.892h5.09v-.99H66.4v-3.84l6.517 4.862h1.864v-5.804s-.01-.26.26-.26h1.43v-1.053h-5.12v1.038h1.428s.325 0 .325.275v3.097l-5.708-4.377H63v.972h1.556v5.188l-1.57.033zm26.556-5.123h1.41v-1.118H86v1.118h.973l-2.108 2.092-2.075-1.816.016-.29.876.02.016-1.1-6.08.03v1.054h1.59l3.712 3.42v1.654h-1.54v.957h5.9v-.99h-1.7v-1.54zm-33.543-1.508c3.583 0 6.485 1.816 6.485 4.054 0 2.24-2.902 4.06-6.485 4.06s-6.485-1.816-6.485-4.053 2.902-4.053 6.485-4.053zm.05 1.297c2.09 0 3.776 1.233 3.776 2.757s-1.68 2.76-3.77 2.76c-2.092 0-3.78-1.23-3.78-2.753s1.687-2.757 3.78-2.757zm-8.367-.86h-1.2v.536s-.356-.34-1.653-.616c-2.14-.454-4.54-.47-6.485.52-1.232.615-1.622 1.7-.827 2.74.632.826 3 1.134 4.004 1.215 2.205.19 6.258.61 3.405 1.792-.795.276-1.573.503-4.037.033-1.054-.34-1.767-.39-2.335-1.735-.518.033-1.345 0-1.345 0v2.773l1.508.033v-.436h.26s2.107.876 5.35.747c1.118-.18 2.382-.293 3.37-1.314 1.006-1.054.585-2.19-.534-2.902-1.01-.63-3.12-.78-4.17-.905-1.738-.114-2.986-.34-2.986-.34s-.893-.39-.147-.957c.55-.41 1.85-.425 2.496-.39.696.046 2.074 0 3.307.58.455.31.763.617.827 1.087h1.183l-.016-2.432z"/><path fill="#101372" d="M56.024 44.078c2.09 0 3.777 1.232 3.777 2.756 0 1.524-1.68 2.756-3.77 2.756-2.092 0-3.78-1.232-3.78-2.756 0-1.524 1.687-2.756 3.78-2.756z"/></svg>