<svg xmlns="http://www.w3.org/2000/svg" width="128" height="64"><path d="M64.018.195c-16.006 0-31.833 12.608-31.833 31.874 0 15.49 12.276 31.77 31.823 31.77 16.298 0 25.71-11.36 28.715-18.03-.828.53-1.817 1.01-3.46 1.01-3.452 0-4.94-2.33-4.94-5.03 0-2.84 1.72-5.04 4.656-5.04 3.27 0 4.53 2.61 4.53 5.246v.374h-7.32c.2 1.79 1.45 2.74 3.11 2.74 1.33 0 2.49-.71 3.18-1.182l.6 1.033c1.616-3.57 2.745-7.935 2.745-12.895C95.84 11.915 79.14.195 64.02.195zm15.48 36.512c2.155 0 3.114.886 4.173 1.94l-1.3 1.232c-.65-.69-1.43-1.43-2.9-1.43-1.81 0-3.04 1.38-3.04 3.25 0 2.03 1.06 3.39 3.15 3.39 1.42 0 2.61-.89 3.2-1.38l.99 1.42c-.74.674-2.15 1.694-4.25 1.694-3.294 0-4.943-2.286-4.943-5.01 0-2.843 1.87-5.12 4.935-5.12zm-31.186.038c2.306 0 2.99.787 3.743 1.97l-1.53.917c-.473-.8-.91-1.183-2.303-1.183-1.013 0-1.676.33-1.676.95 0 1.78 5.623.94 5.623 4.63 0 2.07-1.72 2.85-3.96 2.85-2.52 0-3.52-1.01-4.06-2.05l1.39-1.17c.512.822.81 1.46 2.71 1.46 1.217 0 2.096-.258 2.096-1.008 0-2.085-5.646-1.123-5.646-4.666 0-1.756 1.295-2.714 3.596-2.714zm20.632.066c2.773 0 4.43 1.88 4.43 4.23v5.69h-1.61l-.104-.41c-.84.32-1.673.55-2.777.55-3.143 0-4.913-2.03-4.913-4.87 0-2.95 1.945-5.18 4.974-5.18zm-10.922.03c2.717 0 4.747 1.69 4.747 4.96 0 2.21-1.22 5.04-4.98 5.04-1.21 0-2.18-.31-2.66-.49v3.7h-1.8V41.2c0-2.466 1.65-4.36 4.69-4.36zm10.975 1.71c-2.23 0-3.208 1.73-3.208 3.41 0 2.08 1.27 3.16 3.17 3.16 1.01 0 2.13-.42 2.56-.6v-3.36c0-1.63-.95-2.596-2.53-2.596zM58 38.59c-1.983 0-2.866 1.156-2.866 2.68v3.208c.56.237 1.513.62 2.718.62 1.708 0 3.057-.964 3.057-3.318 0-2.098-1.26-3.19-2.91-3.19zm28.283 2.07h5.23c-.114-.907-.84-2.154-2.5-2.154-1.667 0-2.568 1.147-2.73 2.153z" fill="#00afdc"/></svg>