<svg xmlns="http://www.w3.org/2000/svg" width="128" height="64"><path d="M64.018.195c-16.006 0-31.833 12.608-31.833 31.874 0 15.49 12.276 31.77 31.823 31.77 16.298 0 25.71-11.355 28.715-18.03-.828.537-1.817 1.014-3.46 1.014-3.452 0-4.94-2.328-4.94-5.03 0-2.836 1.72-5.036 4.656-5.036 3.27 0 4.53 2.61 4.53 5.247v.374h-7.32c.2 1.79 1.45 2.74 3.114 2.74 1.333 0 2.49-.71 3.18-1.183l.606 1.033c1.616-3.573 2.745-7.937 2.745-12.897C95.84 11.913 79.14.195 64.02.195zm15.48 36.512c2.155 0 3.114.886 4.173 1.94l-1.3 1.232c-.65-.69-1.43-1.43-2.9-1.43-1.81 0-3.04 1.38-3.04 3.25 0 2.035 1.06 3.39 3.148 3.39 1.414 0 2.61-.888 3.2-1.38l.99 1.426c-.744.677-2.153 1.697-4.256 1.697-3.295 0-4.944-2.286-4.944-5.01 0-2.843 1.87-5.12 4.935-5.12zm-31.186.038c2.306 0 2.99.787 3.743 1.97l-1.53.917c-.473-.8-.91-1.183-2.303-1.183-1.013 0-1.676.33-1.676.95 0 1.78 5.623.94 5.623 4.63 0 2.075-1.72 2.855-3.96 2.855-2.516 0-3.516-1.01-4.058-2.05l1.395-1.17c.514.826.813 1.46 2.713 1.46 1.217 0 2.096-.254 2.096-1.004 0-2.084-5.646-1.122-5.646-4.665 0-1.756 1.295-2.714 3.596-2.714zm20.632.066c2.773 0 4.43 1.88 4.43 4.23v5.69h-1.61l-.104-.41c-.84.32-1.673.55-2.777.55-3.143 0-4.913-2.035-4.913-4.87 0-2.95 1.945-5.183 4.974-5.183zm-10.922.03c2.717 0 4.747 1.69 4.747 4.96 0 2.208-1.22 5.04-4.98 5.04-1.21 0-2.18-.314-2.66-.496v3.7h-1.8V41.2c0-2.466 1.65-4.36 4.69-4.36zm10.975 1.71c-2.23 0-3.208 1.73-3.208 3.41 0 2.08 1.27 3.158 3.17 3.158 1.01 0 2.13-.426 2.56-.606v-3.36c0-1.63-.95-2.597-2.53-2.597zM58 38.59c-1.983 0-2.866 1.156-2.866 2.68v3.208c.56.237 1.513.62 2.718.62 1.708 0 3.057-.964 3.057-3.318 0-2.098-1.26-3.19-2.91-3.19zm28.283 2.07h5.23c-.114-.907-.84-2.154-2.5-2.154-1.667 0-2.568 1.147-2.73 2.153z" fill="#00afdc"/></svg>