<svg xmlns="http://www.w3.org/2000/svg" width="128" height="64"><path fill="#0076bc" d="M127.986 32.975l-8.568-6.504v13.004z"/><path d="M21.283 43.364c0 1.05-.817 2.004-2.005 2.004h-2.004V30.691c.233-3.905 1.653-7.017 7.585-7.23 2.565.033 4.427 1.053 5.527 2.34 1.178 1.532 1.684 3.437 1.684 5.833 0 2.475-.59 4.48-1.77 6.013-1.178 1.493-2.69 2.24-4.538 2.24-2.77 0-4.116-1.154-4.482-1.37l.003 4.847m6.72-11.553c0-1.533-.282-4.775-3.42-4.775-2.98 0-3.3 3.164-3.3 4.775 0 4.08 2.319 4.597 3.418 4.597 2.85 0 3.301-3.02 3.301-4.597M2.36 38.163c1.328 1.134 3.323 1.7 5.982 1.7 2.58 0 4.575-.546 5.982-1.641 1.408-1.173 2.112-2.815 2.112-4.926 0-.977-.191-1.879-.645-2.7a4.733 4.733 0 00-1.974-1.885c-.542-.27-.871-.388-1.537-.593-.719-.22-4.297-1.197-4.658-1.292-1.994-.486-3.26-1.15-3.268-2.329.103-2.28 2.228-2.463 3.402-2.463 1.21 0 2.17.255 2.873.763 1.263.982 1.123 2.23 1.123 2.23h3.98c-.079-1.955-.783-3.54-2.112-4.752-1.29-1.095-3.128-1.643-5.512-1.643-2.542 0-4.477.528-5.807 1.584-1.33 1.095-1.994 2.6-1.994 4.516.006 2.46 1.172 3.912 2.23 4.575.64.384 2.1.973 3.987 1.348l1.586.346c2.75.67 4.328 1.519 4.28 2.88-.03.821-.313 1.448-.94 1.878-.572.391-1.545.644-2.756.644-1.37 0-2.444-.273-3.225-.82-.744-.47-1.194-1.29-1.35-2.464H.014c.118 2.228.899 3.91 2.346 5.044m37.799-11.242c2.52-.034 2.912 2.112 2.99 3.168h-5.982s-.05-3.111 2.992-3.168m.176 9.444c-1.016-.052-2.95-.25-3.128-3.637l10.163.003c.002-.104 0-1.219.003-1.22-.07-2.552-.683-4.453-1.878-5.88-1.29-1.408-3.108-2.11-5.454-2.11-2.228 0-3.968.723-5.219 2.169-1.212 1.407-1.82 3.363-1.82 5.865 0 2.62.626 4.633 1.879 6.04 1.251 1.447 2.991 2.17 5.218 2.17 1.84 0 3.364-.448 4.575-1.348 1.212-.86 2.039-2.115 2.47-3.758h-3.532c-.52 1.474-1.848 1.777-3.277 1.706m68.065 3.129h-4.066v-10.02c0-1.156-.475-2.712-2.77-2.712-2.253 0-2.711 1.77-2.711 2.712v10.02h-4.127V30.3c0-2.672.792-4.304 2.092-5.364 1.288-1.05 2.937-1.394 4.627-1.473.904 0 1.79.099 2.653.294.865.198 1.65.59 2.358 1.18a5.223 5.223 0 012.093-1.091c.805-.216 1.638-.379 2.505-.383 5.033-.027 7.052 2.278 7.22 3.017l.001 13.015h-2.329c-.589 0-2.003-.4-2.003-2.003v-8.017c.01-1.136-.388-2.712-2.772-2.712-2.359 0-2.77 1.77-2.77 2.712zm-49.822-4.829h3.856s-1.047 5.1-6.871 5.1c-5.823 0-7.257-4.672-7.257-7.743 0-3.07.545-8.317 7.03-8.5 5.993-.09 6.98 5.101 6.98 5.101h-4.105s-.397-1.754-2.841-1.7c-2.444.056-3.083 2.35-3.083 4.532 0 2.18.543 4.91 3.257 4.91 2.58.079 2.807-1.317 3.034-1.7M79.97 23.868h4.105v9.97s-.148 2.697 2.699 2.698c2.684.002 2.752-2.412 2.754-2.583v-8.15s.139-1.934 1.919-1.934h2.13s-.002 9.171 0 9.26c-.029.504.537 6.637-6.803 6.613-7.273 0-6.758-6.206-6.804-6.57zM67.41 28.04h2.41l-.002-4.11h-2.404v-2.64c0-.723-.403-1.993-1.935-1.993h-2.111V36.54c0 1.798.697 2.874 2.207 2.874l1.835.001zm6.707 11.405v-8.036c0-1.172.272-2.033.821-2.58.547-.547 1.387-.822 2.522-.822h1.348v-4.163s-2.124-.053-3.666.41c-.99.298-1.866.704-2.608 1.29-.785.626-1.4 1.457-1.849 2.492-.449 1.037-.674 2.317-.674 3.842v7.566h4.106z" fill="#77787b"/></svg>