<svg xmlns="http://www.w3.org/2000/svg" width="128" height="64"><path d="M17.633 7.647C6.595 7.647 2 13.412 2 19.928c0 7.14 5.222 9.485 10.678 10.825 1.86.408 4.958.974 4.958.974 2.189.412 5.427.837 5.427 3.025 0 1.827-2.578 2.77-5.44 2.77-6.118 0-8.945-2.886-9.927-4.84l-7.47 7.194c3.63 4.186 8.78 6.542 17.093 6.542 8.697 0 15.208-3.453 16.517-10.612v22.992l10.21-10.49v-5.36s.402 1.39 2.88 2.425l15.348-16.071c-.87-6.095-3.872-11.482-11.317-11.482-5.277 0-6.986 2.86-6.986 2.86v-2.118H33.837v12.554c-.293-1.533-1.001-3.375-2.482-4.883-2.553-2.442-7.998-3.92-12.337-4.5-3.683-.626-5.739-.943-5.739-2.917 0-.959.756-2.354 4.287-2.354 2.573 0 7.15.616 9.166 3.711l6.712-6.495c-3.508-3.764-8.785-6.031-15.811-6.031zm44.642 21.655v16.033h10.437V18.26L62.275 29.302zM48.132 25.85c1.468 0 3.947.697 3.947 6.187 0 4.264-1.55 6.211-4.194 6.211-1.608 0-3.913-.968-3.913-6.22 0-5.302 2.315-6.178 4.16-6.178zm26.773 19.483V16.08L85.343 5.202v21.02l7.082-7.662h12.809l-10.022 9.644 10.361 17.13H93.737L88.06 35.168l-2.716 2.655v7.51z"/><path d="M114.012 17.867c-9.295 0-13.94 6.34-13.94 13.755 0 7.655 5.077 14.059 13.973 14.059 7.33 0 11.76-4.055 13.33-9.573h-9.133c-.364 1.257-1.797 2.383-3.592 2.383-2.216 0-4.693-1.358-4.651-4.803h17.773v-2.269c0-8.372-5.892-13.552-13.76-13.552zm.184 6.546c1.876 0 3.441 1.495 3.441 3.83h-7.487c.082-1.918 1.369-3.83 4.046-3.83zM72.732 12.965a5.279 5.279 0 1 1-10.558 0 5.279 5.279 0 0 1 10.558 0z"/></svg>