<?xml version="1.0" encoding="UTF-8" standalone="no"?>

<svg xmlns:svg="http://www.w3.org/2000/svg" xmlns="http://www.w3.org/2000/svg" version="1.1" width="128" height="64" xmlns:xlink="http://www.w3.org/1999/xlink">
    <g transform="translate(35.569058,-1021.1917)">
        <path d="m 78.132687,1061.554 13.405826,-20.6387 -20.578596,0 -3.508907,5.3934 0,-5.3934 0,0 c -4.30866,0.025 -6.997824,0.4201 -10.121855,3.209 l 0,-3.209 -11.811324,0 0,6.4179 c 0,4.4437 3.608879,8.2527 8.057493,8.4976 l 3.913784,0.2148 c 0.484847,-2.0892 2.419247,-4.8885 9.961902,-4.8684 l 0,0 5.268358,0 -13.40583,20.6435 25.59204,0 6.632935,-10.2667 z m -69.9682348,2.4091 c -3.1640161,0 -3.3989433,-2.3141 -3.3989433,-3.4638 l 0,-9.3221 4.3236553,0 c -0.5298376,1.6345 -0.8197453,3.3888 -0.8197453,5.2132 0,2.6643 0.6198075,5.1786 1.7144664,7.3929 -0.604812,0.094 -1.2296179,0.1798 -1.8194331,0.1798 M 31.66714,1044.2743 c -1.639489,-2.4791 -4.198695,-3.9837 -8.06749,-3.9837 -4.458613,0 -8.477364,1.9994 -11.276494,5.1933 -0.79975,0.9098 -1.499531,1.9195 -2.08435,3.0041 l 0,-7.5727 -5.4732971,0 0,-8.4122 -11.8063264,0 0,24.9072 c -0.7747604,-1.6195 -2.0693572,-2.9542 -3.8138135,-3.894 -1.439554,-0.7495 -2.709157,-1.0345 -8.00751,-2.2442 -3.973765,-0.9798 -4.778515,-1.1547 -4.778515,-2.2492 0,-1.5545 2.069358,-1.5545 2.534212,-1.5545 3.169015,0 5.643245,1.5545 7.662617,2.8239 l 4.7285295,-7.0027 c -1.3245875,-0.8497 -3.0190585,-1.6594 -5.8231885,-2.3294 -2.249301,-0.5197 -4.498602,-0.8096 -6.742903,-0.8096 -1.959391,0 -7.027814,0.1198 -10.541721,3.4589 -1.784445,1.7294 -2.994068,4.1488 -2.994068,6.7978 0,6.3333 5.473296,7.9477 8.237437,8.7524 2.709157,0.8049 5.183388,1.2096 6.223064,1.3845 1.209624,0.17 2.994067,0.4598 2.994067,1.9544 0,1.3296 -1.674478,1.8446 -3.109031,1.8446 -0.979695,0 -2.594193,-0.1156 -4.723531,-0.9797 -2.304283,-0.9798 -3.398942,-1.9545 -4.493602,-3.0491 l -4.968454,7.3477 c 2.814124,2.0843 7.347714,4.6885 14.300551,4.6885 7.087797,0 11.6163871,-3.034 13.3558459,-7.0878 0.109975,1.4545 0.4998453,3.269 1.9793845,4.7485 2.3592677,2.4193 6.5629576,2.4743 7.8325648,2.4743 2.4742271,0 4.8384919,-0.2848 7.4876698,-0.6299 l 0,-7.4676 c 2.644177,4.8386 7.607631,8.0975 13.300862,8.0975 3.868795,0 6.428001,-1.5045 8.06749,-3.9838 l 0,3.3189 11.806327,0 0,-6.373 c 0,-4.4486 -3.603879,-8.2524 -8.052493,-8.5022 l -3.76883,-0.21 c -0.184938,3.2191 -2.844116,5.773 -6.103102,5.773 -3.378947,0 -6.123095,-2.7389 -6.123095,-6.1181 0,-3.3838 2.744148,-6.123 6.123095,-6.123 3.258986,0 5.91816,2.5543 6.103102,5.7732 l 3.76883,-0.2098 c 4.448614,-0.2449 8.052493,-4.0539 8.052493,-8.4976 l 0,-6.4179 -11.806327,0 z m 13.850691,21.1734 0,6.373 11.811324,0 0,-14.5054 c 0.0049,-0.1749 0.02,-0.3698 0.03998,-0.5798 l -3.793821,0.21 c -4.448616,0.2498 -8.057494,4.0536 -8.057494,8.5022" fill="#000000" />
    </g>
</svg>