<svg xmlns="http://www.w3.org/2000/svg" width="128" height="64"><path d="M113.702 40.362l13.406-20.638h-20.58l-3.508 5.393v-5.393c-4.31.025-6.998.42-10.122 3.21v-3.21h-11.81v6.418c0 4.443 3.608 8.252 8.056 8.497l3.914.21c.485-2.09 2.42-4.89 9.962-4.87h5.268L94.883 50.63h25.592l6.633-10.268zm-69.968 2.41c-3.165 0-3.4-2.315-3.4-3.464v-9.322h4.324a16.878 16.878 0 00-.82 5.213c0 2.66.62 5.17 1.715 7.39-.605.09-1.23.18-1.82.18m23.503-19.69c-1.64-2.48-4.198-3.988-8.067-3.988-4.46 0-8.48 1.998-11.28 5.192-.8.91-1.5 1.92-2.09 3.003v-7.57h-5.47v-8.41h-11.8v24.91c-.775-1.62-2.07-2.957-3.814-3.896-1.44-.75-2.71-1.034-8.007-2.244-3.977-.98-4.78-1.155-4.78-2.25 0-1.554 2.07-1.554 2.533-1.554 3.17 0 5.643 1.554 7.662 2.824l4.73-7c-1.326-.85-3.02-1.66-5.824-2.33-2.25-.52-4.493-.81-6.74-.81-1.96 0-7.03.12-10.54 3.46-1.79 1.73-3 4.15-3 6.8 0 6.333 5.474 7.947 8.238 8.752 2.706.802 5.18 1.21 6.22 1.382 1.21.17 2.994.46 2.994 1.954 0 1.33-1.674 1.844-3.11 1.844-.978 0-2.593-.115-4.722-.98-2.304-.98-3.4-1.954-4.494-3.05L.91 46.47c2.814 2.085 7.348 4.69 14.3 4.69 7.088 0 11.617-3.035 13.356-7.09.11 1.456.5 3.27 1.98 4.75 2.36 2.42 6.563 2.474 7.832 2.474 2.474 0 4.84-.285 7.488-.63v-7.468c2.644 4.84 7.607 8.098 13.3 8.098 3.87 0 6.43-1.505 8.068-3.984v3.32H79.04v-6.374c0-4.45-3.603-8.252-8.052-8.502l-3.77-.21c-.184 3.22-2.843 5.773-6.102 5.773a6.122 6.122 0 01-6.123-6.118c0-3.39 2.744-6.13 6.123-6.13 3.26 0 5.918 2.553 6.103 5.772l3.77-.21c4.45-.246 8.054-4.055 8.054-8.498v-6.42h-11.81zm13.85 21.17v6.372H92.9v-14.5c.005-.176.02-.37.04-.58l-3.794.21c-4.448.25-8.057 4.052-8.057 8.5"/></svg>