<svg xmlns="http://www.w3.org/2000/svg" width="128" height="64"><path d="M113.702 40.362l13.406-20.638h-20.58l-3.508 5.393v-5.393c-4.31.025-6.998.42-10.122 3.21v-3.21h-11.81v6.418c0 4.443 3.608 8.252 8.056 8.497l3.914.21c.485-2.09 2.42-4.89 9.962-4.87h5.268L94.883 50.63h25.592l6.633-10.268zm-69.968 2.41c-3.165 0-3.4-2.315-3.4-3.464v-9.322h4.324c-.53 1.634-.82 3.388-.82 5.213 0 2.66.62 5.17 1.715 7.39-.605.09-1.23.18-1.82.18m23.503-19.69c-1.64-2.48-4.198-3.99-8.067-3.99-4.46 0-8.48 2-11.28 5.19-.8.91-1.5 1.92-2.09 3v-7.57h-5.47V11.3h-11.8v24.91c-.78-1.62-2.07-2.956-3.82-3.895-1.44-.75-2.71-1.035-8.01-2.245-3.976-.98-4.78-1.154-4.78-2.25 0-1.553 2.07-1.553 2.534-1.553 3.17 0 5.643 1.554 7.662 2.824l4.73-7c-1.327-.85-3.02-1.66-5.825-2.33-2.25-.52-4.494-.81-6.74-.81-1.96 0-7.03.12-10.54 3.46-1.79 1.73-3 4.15-3 6.8 0 6.337 5.473 7.95 8.237 8.756 2.706.802 5.18 1.21 6.22 1.382 1.21.17 2.994.46 2.994 1.953 0 1.33-1.672 1.844-3.11 1.844-.976 0-2.59-.115-4.72-.98-2.304-.98-3.4-1.954-4.494-3.05L.91 46.47c2.814 2.085 7.348 4.69 14.3 4.69 7.088 0 11.617-3.035 13.356-7.09.11 1.456.5 3.27 1.98 4.75 2.36 2.42 6.563 2.474 7.832 2.474 2.474 0 4.84-.285 7.488-.63v-7.468c2.644 4.84 7.607 8.098 13.3 8.098 3.87 0 6.43-1.505 8.068-3.984v3.32H79.04v-6.374c0-4.45-3.603-8.252-8.052-8.502l-3.77-.21c-.184 3.22-2.843 5.773-6.102 5.773-3.38 0-6.123-2.74-6.123-6.118 0-3.39 2.744-6.13 6.123-6.13 3.26 0 5.918 2.55 6.103 5.77l3.77-.21c4.45-.25 8.05-4.06 8.05-8.5v-6.42H67.23zm13.85 21.17v6.37H92.9v-14.5c.005-.18.02-.37.04-.58l-3.794.21c-4.448.25-8.057 4.05-8.057 8.5"/></svg>