<?xml version="1.0" encoding="UTF-8" standalone="no"?>

<svg xmlns:svg="http://www.w3.org/2000/svg" xmlns="http://www.w3.org/2000/svg" version="1.1" width="128" height="64" xmlns:xlink="http://www.w3.org/1999/xlink">
	<g stroke="null">
		<path fill="#49176d" fill-rule="nonzero" d="m90.95979,17.60601l-10.07319,0l0,-1.10246c-0.00313,-0.67119 0.02242,-1.39017 0.14385,-2.03892c0.08309,-0.48257 0.21407,-0.9076 0.3707,-1.22398c0.25249,-0.48901 0.42824,-0.72873 0.97469,-1.06423c0.5561,-0.3195 1.68099,-0.75097 3.92766,-0.75428l6.87418,0l0,-11.02868l-6.87418,0c-3.26612,0 -6.13589,0.58166 -8.56796,1.77053c-1.81842,0.88517 -3.34921,2.12514 -4.4901,3.49931c-1.71289,2.07091 -2.54062,4.34 -2.94975,6.24142c-0.40903,1.91428 -0.43459,3.55061 -0.43459,4.59885l0,29.79136l11.02869,0l-0.00321,-18.25767l10.07319,0"/>
		<path fill="#49176d" fill-rule="nonzero" d="m107.86241,63.59056c9.69608,-0.00331 14.81892,-7.09479 14.83813,-13.76123l0,-32.22332l-10.36081,0l0,16.04632c0,0.73166 -0.09586,1.73522 -0.88204,2.59815c-0.78296,0.85318 -1.78642,1.50525 -3.44186,1.49238c-1.72577,0.01599 -2.95609,-0.62633 -3.57607,-1.50525c-0.62321,-0.86605 -0.74464,-1.85986 -0.74786,-2.58528l0,-16.04632l-10.51421,0l0,16.27629c0.00643,6.78152 5.02699,13.74836 13.46074,13.76747c1.64588,0 3.27568,-0.33862 4.86403,-0.96826l0.76374,-0.30994l0,0.83094l-0.00312,2.35843c0,0.49544 -0.01278,1.17931 -0.53056,2.09647c-0.51445,0.92047 -1.65222,1.82163 -3.56328,1.80876c-1.72577,0.00644 -2.83788,-0.75409 -3.42276,-1.53704c-0.59756,-0.77984 -0.73498,-1.53724 -0.75419,-1.64589l-10.6292,-0.04155l0.21085,1.69367c1.23365,5.81327 6.53226,11.6712 14.28848,11.65521"/>
		<path fill="#49176d" fill-rule="nonzero" d="m52.7859,63.59056c9.69928,-0.00331 14.82535,-7.09479 14.83813,-13.76123l0,-32.22332l-10.36082,0l0,16.04632c0,0.73166 -0.04789,1.70323 -0.88204,2.59815c-0.79252,0.84362 -1.78643,1.50525 -3.44187,1.49238c-1.72888,0.01599 -2.95286,-0.62633 -3.57608,-1.50525c-0.62642,-0.86605 -0.74462,-1.85986 -0.74784,-2.58528l0,-16.04632l-10.51417,0l0,16.27629c0.00961,6.78152 5.02703,13.74836 13.45757,13.76747c1.64901,0 3.2789,-0.33862 4.86716,-0.96826l0.76706,-0.30994l0,0.83094l-0.00643,2.35843c0,0.48901 -0.00956,1.17931 -0.53056,2.09647c-0.51447,0.92047 -1.65223,1.82163 -3.5633,1.80876c-1.72575,0.00644 -2.83466,-0.75409 -3.42265,-1.53704c-0.59765,-0.77984 -0.73185,-1.53724 -0.75106,-1.64589l-10.63242,-0.04155l0.21095,1.69367c1.23353,5.81327 6.53224,11.6712 14.28837,11.65521"/>
		<path fill="#49176d" fill-rule="nonzero" d="m5.46564,32.81495c0,0 0.00639,-0.9076 0.04476,-1.43815l10.41192,0.02887l-0.03194,0.63588c-0.00639,1.86006 1.12489,3.63683 2.1188,4.36556c0.99391,0.73497 2.41602,0.97138 3.28211,0.97138c2.22745,0 4.2632,-1.3613 4.28876,-3.45133l-0.00322,-0.19506c-0.07026,-1.63301 -1.10255,-2.52461 -2.58537,-3.21824c-1.32628,-0.61989 -3.5985,-1.58503 -6.06245,-2.80589c-2.46717,-1.22398 -5.12926,-2.70679 -7.22889,-4.36536c-3.03605,-2.40017 -4.40067,-5.49689 -4.23448,-9.80471c0.14063,-3.6657 1.73531,-6.81995 4.717,-9.43722c2.97851,-2.61415 6.64728,-3.65926 10.54299,-3.65614c4.94707,-0.00312 9.0793,1.99426 11.80848,5.24448c2.77077,3.40666 3.30444,6.62802 3.42592,9.00888l0.01599,0.4539l-10.80505,0c-0.10864,-1.11221 -0.63276,-2.44172 -1.26553,-3.16713c-0.74463,-0.85961 -1.88551,-1.41572 -3.31723,-1.4126c-0.82772,0.00644 -1.79608,0.24928 -2.61097,0.76696c-0.80535,0.505 -1.4701,1.34238 -1.46688,2.44484c-0.01278,1.19199 0.54328,2.12202 2.07409,2.90185c1.50842,0.77983 6.04645,2.78345 6.68239,3.03274c6.4747,2.52481 10.56855,6.60578 11.03195,12.77366l0.01278,0.42834c0.00639,2.08047 -0.61682,5.68843 -3.00729,8.83625c-2.39042,3.15114 -6.53542,5.89948 -11.96506,5.89948c-10.73473,-0.04155 -15.84799,-7.836 -15.87359,-14.84126"/>
	</g>
</svg>