<svg xmlns="http://www.w3.org/2000/svg" width="128" height="64"><path d="M90.96 17.606H80.887v-1.102c-.004-.672.022-1.39.143-2.04.084-.482.215-.907.37-1.223.254-.48.43-.72.976-1.06.556-.32 1.68-.75 3.927-.75h6.875V.4h-6.875c-3.266 0-6.135.58-8.567 1.77-1.82.88-3.35 2.12-4.49 3.5-1.713 2.07-2.54 4.34-2.95 6.24-.41 1.91-.435 3.55-.435 4.6V46.3h11.03V28.04h10.07m16.91 35.55c9.7-.005 14.82-7.096 14.84-13.76V17.603h-10.37V33.65c0 .733-.09 1.737-.88 2.6-.78.853-1.783 1.505-3.44 1.492-1.724.016-2.954-.626-3.574-1.505-.622-.866-.744-1.86-.747-2.586V17.61H93.18v16.276c.006 6.782 5.027 13.75 13.46 13.768 1.646 0 3.276-.34 4.864-.967l.764-.31v.83l-.003 2.36c0 .494-.013 1.178-.53 2.095-.515.92-1.653 1.822-3.564 1.81-1.73.006-2.84-.755-3.43-1.538-.6-.78-.74-1.54-.76-1.648l-10.63-.04.21 1.692c1.235 5.814 6.53 11.672 14.29 11.656m-55.074 0c9.7-.003 14.825-7.094 14.84-13.76v-32.23H57.26V33.65c0 .733-.05 1.705-.883 2.6-.79.843-1.785 1.505-3.44 1.492-1.73.016-2.954-.626-3.577-1.505-.626-.866-.744-1.86-.748-2.586V17.61H38.1v16.276c.01 6.782 5.028 13.75 13.46 13.768 1.648 0 3.278-.34 4.866-.967l.767-.31v.83l-.006 2.36c0 .488-.01 1.178-.53 2.095-.515.92-1.653 1.822-3.564 1.81-1.726.006-2.835-.755-3.423-1.538-.598-.78-.732-1.54-.75-1.648l-10.633-.04.21 1.692c1.234 5.814 6.533 11.672 14.29 11.656m-47.32-30.78s.005-.907.043-1.437l10.412.03-.032.635c-.006 1.86 1.125 3.636 2.12 4.365.993.735 2.415.97 3.28.97 2.23 0 4.264-1.36 4.29-3.45l-.003-.195c-.07-1.633-1.103-2.525-2.586-3.218-1.32-.62-3.59-1.585-6.06-2.806C14.46 26.484 11.8 25 9.7 23.343c-3.036-2.4-4.4-5.497-4.234-9.805.14-3.666 1.735-6.82 4.717-9.437C13.16 1.49 16.83.44 20.726.45c4.947-.01 9.08 1.99 11.808 5.24 2.77 3.406 3.305 6.627 3.426 9.008l.016.454H25.17c-.108-1.112-.632-2.442-1.265-3.167-.744-.86-1.885-1.416-3.317-1.413-.828.007-1.796.25-2.61.767-.806.5-1.47 1.34-1.468 2.44-.012 1.19.544 2.12 2.074 2.9 1.51.78 6.047 2.78 6.683 3.03 6.475 2.53 10.568 6.61 11.033 12.78l.01.43c.006 2.08-.617 5.69-3.008 8.83-2.39 3.15-6.535 5.9-11.965 5.9-10.737-.04-15.85-7.837-15.874-14.84" stroke="null" fill="#49176d"/></svg>