<svg xmlns="http://www.w3.org/2000/svg" width="128" height="64"><path d="M90.96 17.606H80.887v-1.102c-.004-.672.022-1.39.143-2.04a4.68 4.68 0 0 1 .37-1.223c.254-.48.43-.72.976-1.06.556-.32 1.68-.75 3.927-.75h6.875V.397h-6.875c-3.266 0-6.135.58-8.567 1.77a13.44 13.44 0 0 0-4.49 3.5c-1.713 2.07-2.54 4.34-2.95 6.24-.41 1.91-.435 3.55-.435 4.6v29.79h11.03v-18.26h10.07m16.907 35.55c9.696-.005 14.82-7.096 14.84-13.76V17.603H112.34V33.65c0 .733-.096 1.737-.882 2.6-.783.853-1.787 1.505-3.442 1.492-1.726.016-2.956-.626-3.576-1.505-.623-.866-.745-1.86-.748-2.586V17.61H93.178v16.276c.006 6.782 5.027 13.75 13.46 13.768 1.646 0 3.276-.34 4.864-.967l.764-.31v.83l-.003 2.36c0 .494-.013 1.178-.53 2.095-.515.92-1.653 1.822-3.564 1.81-1.73.006-2.84-.755-3.43-1.538a3.956 3.956 0 0 1-.755-1.648l-10.63-.04.212 1.692c1.233 5.814 6.53 11.672 14.287 11.656m-55.073 0c9.7-.003 14.826-7.094 14.84-13.76v-32.23H57.26V33.65c0 .733-.05 1.705-.883 2.6-.79.843-1.785 1.505-3.44 1.492-1.73.016-2.954-.626-3.577-1.505-.626-.866-.744-1.86-.748-2.586V17.61H38.1v16.276c.01 6.782 5.028 13.75 13.46 13.768 1.648 0 3.278-.34 4.866-.967l.767-.31v.83l-.006 2.36c0 .488-.01 1.178-.53 2.095-.515.92-1.653 1.822-3.564 1.81-1.726.006-2.835-.755-3.423-1.538a3.894 3.894 0 0 1-.75-1.648l-10.633-.04.21 1.692c1.234 5.814 6.533 11.672 14.29 11.656m-47.32-30.78s.005-.907.043-1.437l10.412.03-.032.635c-.006 1.86 1.125 3.636 2.12 4.365.993.735 2.415.97 3.28.97 2.23 0 4.264-1.36 4.29-3.45l-.003-.195c-.07-1.633-1.103-2.525-2.586-3.218-1.32-.62-3.59-1.585-6.06-2.806C14.46 26.484 11.8 25 9.7 23.343c-3.036-2.4-4.4-5.497-4.234-9.805.14-3.666 1.735-6.82 4.717-9.437C13.16 1.49 16.83.44 20.726.45c4.947-.01 9.08 1.99 11.808 5.24 2.77 3.406 3.305 6.627 3.426 9.008l.016.454H25.17c-.108-1.112-.632-2.442-1.265-3.167-.744-.86-1.885-1.416-3.317-1.413a5.087 5.087 0 0 0-2.61.767c-.806.5-1.47 1.34-1.468 2.44-.012 1.19.544 2.12 2.074 2.9 1.51.78 6.047 2.782 6.683 3.03C31.742 22.24 35.835 26.32 36.3 32.49l.01.43c.006 2.08-.617 5.69-3.008 8.835a14.938 14.938 0 0 1-11.965 5.9c-10.737-.04-15.85-7.835-15.874-14.84" stroke="null" fill="#49176d"/></svg>