<?xml version="1.0" encoding="UTF-8" standalone="no"?>

<svg xmlns:svg="http://www.w3.org/2000/svg" xmlns="http://www.w3.org/2000/svg" version="1.1" width="128" height="64" xmlns:xlink="http://www.w3.org/1999/xlink">
	<g stroke="null">
		<path fill="#0094da" fill-rule="evenodd" d="m35.40845,0.35251c0,0 5.68473,0 5.68473,0c0,0 0,5.7708 0,5.7708c0,0 4.56393,0 4.56393,0c0,0 0,3.61651 0,3.61651c0,0 -4.56393,0 -4.56393,0c0,0 0,12.48702 0,12.48702c0,2.0661 1.03249,2.23836 2.32455,2.23836c0,0 2.23937,0 2.23937,0c0,0 0,4.30547 0,4.30547c0,0 -4.39166,0 -4.39166,0c-3.78978,0 -5.85699,-1.80876 -5.85699,-5.16681c0,0 0,-23.25136 0,-23.25136z"/>
		<path fill="#0094da" fill-rule="evenodd" d="m60.03795,5.52044c0.17227,0 0.43061,0 0.68908,0c5.51134,0 10.24754,3.01351 10.24754,11.53949c0,7.74971 -4.30559,11.79683 -10.93661,11.79683c0,0 0,-3.78867 0,-3.78867c3.01464,0 5.51134,-3.44524 5.51134,-7.9231c0,-4.47773 -2.49671,-7.92197 -5.51134,-7.92197c0,0 0,-3.70259 0,-3.70259zm-11.02279,-5.16793c0,0 5.33918,0 5.33918,0c0,0 0,8.09536 0,8.09536c1.37803,-1.80875 3.53032,-2.75517 5.68361,-2.92743c0,0 0,3.70259 0,3.70259c-3.0997,0 -5.59753,3.44424 -5.59753,7.92197c0,4.47785 2.49783,7.9231 5.59753,7.9231c0,0 0,3.78867 0,3.78867c-0.08619,0 -0.08619,0 -0.08619,0c-6.8033,0 -10.93661,-3.96093 -10.93661,-11.79683c0,-0.0872 0,0 0,0c0,0 0,-16.70742 0,-16.70742z"/>
		<path fill="#0094da" fill-rule="evenodd" d="m92.7627,34.97109c-0.08607,15.75909 -12.91763,28.6764 -28.7627,28.6764c-15.75999,0 -28.67651,-12.91731 -28.7627,-28.6764c0,0 57.52539,0 57.52539,0z"/>
		<path fill="#0094da" fill-rule="evenodd" d="m73.3862,11.892c0,-4.39165 4.65012,-6.54495 9.30012,-6.54495c6.37268,0 9.21393,3.44536 9.21393,6.63114c-1.80764,0 -3.27186,0 -5.08062,0c0,-1.98002 -1.89383,-3.01351 -4.13331,-3.01351c-1.37814,-0.08619 -3.87486,0.43061 -3.96094,2.23937c-0.17226,5.08073 13.77785,1.29094 13.77785,10.16034c0,4.82339 -3.96104,7.40629 -9.64465,7.40629c-5.85589,0 -9.55846,-2.5829 -9.55846,-7.49237c1.80875,0 3.0997,0 4.90845,0c0,2.49783 2.58279,3.78978 4.82227,3.78978c1.55042,-0.08619 3.96104,-0.68907 3.96104,-2.5829c0.25946,-6.11423 -13.6057,-1.80876 -13.6057,-10.59319z"/>
	</g>
</svg>