<svg xmlns="http://www.w3.org/2000/svg" width="128" height="64"><path d="M35.408.353h5.685v5.77h4.564V9.74h-4.564v12.487c0 2.066 1.033 2.238 2.325 2.238h2.24v4.306h-4.393c-3.79 0-5.857-1.8-5.857-5.16V.35zm24.63 5.167h.69c5.51 0 10.247 3.014 10.247 11.54 0 7.75-4.306 11.797-10.937 11.797v-3.79c3.015 0 5.51-3.444 5.51-7.922s-2.495-7.922-5.51-7.922V5.52zM49.015.353h5.34v8.095c1.377-1.81 3.53-2.755 5.683-2.928v3.703c-3.1 0-5.598 3.444-5.598 7.922s2.498 7.923 5.598 7.923v3.79h-.086c-6.804 0-10.937-3.962-10.937-11.798 0-.087 0 0 0 0V.353zM92.763 34.97C92.677 50.73 79.845 63.648 64 63.648c-15.76 0-28.677-12.917-28.763-28.676h57.526zM73.386 11.892c0-4.392 4.65-6.545 9.3-6.545 6.373 0 9.214 3.445 9.214 6.63h-5.08c0-1.98-1.894-3.012-4.134-3.012-1.378-.087-3.875.43-3.96 2.24-.173 5.08 13.777 1.29 13.777 10.16 0 4.823-3.96 7.406-9.644 7.406-5.86 0-9.56-2.58-9.56-7.49h4.91c0 2.5 2.58 3.79 4.82 3.79 1.55-.08 3.96-.69 3.96-2.58.26-6.112-13.61-1.81-13.61-10.59z" stroke="null" fill="#0094da" fill-rule="evenodd"/></svg>