<?xml version="1.0" encoding="UTF-8" standalone="no"?>

<svg xmlns:svg="http://www.w3.org/2000/svg" xmlns="http://www.w3.org/2000/svg" version="1.1" width="128" height="64" xmlns:xlink="http://www.w3.org/1999/xlink">
	<g stroke="null">
		<path stroke="null" fill="#267911" d="m96.91013,7.32366l-13.14955,0l0,29.23498c0,2.14741 -0.76387,3.9852 -2.29119,5.4646c-1.47939,1.52774 -3.29385,2.29077 -5.48919,2.29077c-2.14742,0 -3.96145,-0.76345 -5.44084,-2.29077c-1.47897,-1.47897 -2.21952,-3.31676 -2.21952,-5.4646l0,-29.23498l-13.14912,0l0,24.79553c-0.07167,3.1259 -1.05016,5.77549 -3.00714,8.0179c-1.95697,2.19619 -4.29567,3.31803 -7.03984,3.38929l-19.16467,0c-2.86378,0 -5.32208,-1.12185 -7.37449,-3.31676c-2.0049,-2.26744 -3.00714,-5.01246 -3.00714,-8.16211c0,-3.22175 1.00224,-5.96592 3.00714,-8.25712c2.0524,-2.19576 4.51071,-3.31761 7.37449,-3.31761l19.16382,0l0,-13.14912l-19.16382,0c-3.22175,0 -6.27639,0.66802 -9.11642,2.00448c-2.86378,1.19352 -5.36959,2.93546 -7.51742,5.2029c-2.17201,2.3387 -3.84269,4.96411 -4.98786,7.85164c-1.24103,3.07839 -1.83737,6.30014 -1.83737,9.66483c0,3.3176 0.59676,6.51561 1.83779,9.59315c1.1456,2.88838 2.81628,5.48919 4.98786,7.73288c2.14741,2.33912 4.65364,4.10481 7.51742,5.32166c2.84003,1.31313 5.89467,1.98115 9.11642,1.98115l18.8296,0c2.88753,-0.11918 5.70338,-0.7643 8.40005,-1.98115c2.62542,-1.16935 4.98786,-2.76877 7.04026,-4.84451c1.90947,2.12408 4.12899,3.74641 6.65812,4.91576c2.64917,1.28938 5.44126,1.90989 8.4009,1.90989c2.95921,0 5.75131,-0.62051 8.37672,-1.90989c2.55331,-1.16935 4.77325,-2.84003 6.68187,-4.98701c1.88487,2.14699 4.10523,3.81767 6.63479,4.98701c2.69666,1.28938 5.53712,1.90989 8.47215,1.90989c2.69709,0 5.2979,-0.57301 7.75621,-1.67025c2.43413,-1.00224 4.58239,-2.41122 6.42018,-4.27192c1.86069,-1.83779 3.293,-3.98562 4.29524,-6.42017c1.04932,-2.48121 1.5744,-5.05954 1.5744,-7.75536l0,-29.23498l-13.07829,0l0,29.23498c0,2.14741 -0.76346,3.9852 -2.29077,5.4646c-1.47897,1.52774 -3.31718,2.29077 -5.46502,2.29077c-2.09991,0 -3.93727,-0.76345 -5.46501,-2.29077c-1.52775,-1.47897 -2.29077,-3.31676 -2.29077,-5.4646l0,-29.23498z"/>
		<path stroke="null" fill="#267911" d="m43.45221,29.27916l0,-1.28895l-5.22623,0l0,8.01875l5.39334,0l0,-1.28896l-3.72308,0l0,-2.12324l3.24508,0l0,-1.36021l-3.24508,0l0,-1.95697l3.55597,0l0,-0.00042z"/>
		<path stroke="null" fill="#267911" d="m22.95193,27.99063l0,1.28895l2.36287,0l0,6.73022l1.67026,0l0,-6.73064l2.36287,0l0,-1.28895l-6.396,0l0,0.00042z"/>
		<path stroke="null" fill="#267911" d="m32.0446,31.23655l0,-3.24593l-1.67068,0l0,8.01875l1.67068,0l0,-3.41219l3.41262,0l0,3.41219l1.67068,0l0,-8.01875l-1.67068,0l0,3.24593l-3.41262,0z"/>
	</g>
</svg>