<svg xmlns="http://www.w3.org/2000/svg" width="128" height="64"><path d="M65.795.154c0 .196 12.329 57.898 12.405 58.087.07.151 3.191 1.784 3.42 1.784.157 0 .164.057-.128-1.274-.107-.485-.177-.895-.164-.914.019-.019.652.385 1.4.896.753.504 1.411.914 1.462.901.12-.025 1.361-1.52 2.4-2.887 5.021-6.602 8.39-13.505 9.568-19.602.367-1.904.437-2.711.443-4.956 0-2.85-.146-3.884-.754-5.315-.665-1.582-2.26-3.184-3.767-3.802-.279-.113-.513-.227-.513-.252 0-.019.17-.258.38-.517 1.64-2.068 2.995-4.615 3.501-6.57.456-1.759.368-3.562-.247-5.132-.76-1.91-2.919-4.18-5.54-5.813-.912-.567-2.812-1.507-3.92-1.942C83.088 1.8 79.833.923 76.566.375 75.274.16 75.356.167 75.356.28c0 .05.096.107.241.126 1.007.183 3.116.72 4.477 1.142.488.15 1.228.378 1.646.504 2.666.82 5.497 2.27 7.232 3.707 1.101.914 1.836 1.822 2.4 2.976.614 1.248.83 2.314.766 3.751-.127 2.844-1.368 5.498-3.78 8.077-.349.372-.634.706-.634.738 0 .037.152.107.336.164.437.126 1.387.599 1.786.882.86.618 1.64 1.583 2.184 2.718.443.914.697 1.683.963 2.95.202.94.202.997.202 2.598 0 2.162-.202 3.67-.817 6.046-1.05 4.092-3.096 8.619-5.977 13.215-1.184 1.892-2.78 4.155-4.312 6.147-.786 1.016-.95 1.198-.95 1.053 0-.075-7.801-36.826-10.043-47.33-1.051-4.905-1.653-7.604-1.716-7.68-.146-.157-3.337-2.061-3.464-2.061-.063 0-.1.057-.1.151zM55.79 4.832c-.854.183-3.913.833-6.807 1.444-2.887.612-5.85 1.242-6.585 1.394-.728.157-1.659.353-2.058.435-.399.082-1.88.397-3.293.693-1.412.296-3.26.687-4.103.864L31.4 9.99l.025.252c.032.353 9.176 43.119 9.233 43.182.025.031 1.24-.202 2.697-.51 2.052-.442 2.672-.55 2.73-.493.044.038.1.202.12.36l.038.29-.4.075c-1.031.202-1.26.272-1.26.379 0 .057.127.68.286 1.393.234 1.097.265 1.305.19 1.362-.114.082-1.45.366-1.565.328-.05-.02-.19-.536-.373-1.38-.272-1.293-.291-1.35-.443-1.37-.083-.005-.52.064-.976.165-.601.132-.829.208-.842.277-.012.057.437 2.238.994 4.855a474.31 474.31 0 011.02 4.798c0 .025.057.044.133.044.108 0 8.422-1.746 23.834-5.012 1.71-.36 4.388-.927 5.952-1.261a492.57 492.57 0 003.312-.7c.253-.057.456-.132.456-.177 0-.037-.437-.46-.963-.933-1.171-1.04-3.305-3.184-4.28-4.3-3.375-3.846-6.326-8.316-8.378-12.66-.221-.479-.437-.87-.48-.87-.109 0-.343.763-.85 2.762-.436 1.746-.664 2.37-.98 2.68-.203.201-.33.214-.666.037-.418-.208-.779-.586-1.538-1.595-2.635-3.512-4.832-7.232-6.75-11.418-2.065-4.508-3.75-9.583-4.63-13.94l-.208-1.015 1.735-2.075c.95-1.14 1.741-2.086 1.754-2.099.05-.07.107.132.392 1.419 1.229 5.529 2.818 10.58 4.648 14.747 1.045 2.395 2.856 5.58 3.173 5.58.05 0 .247-.385.48-.934.672-1.57.647-1.254.172-2.566-1.273-3.505-2.634-8.48-4.002-14.627-.602-2.692-1.495-7.175-1.438-7.225.026-.026.887-.744 1.913-1.602 1.026-.851 1.874-1.595 1.887-1.645.031-.126-.007-.12-1.76.264zm6.757 44.11c.088.113.152.478.088.522-.031.013-.645.158-1.367.316-.728.151-1.33.296-1.349.309-.038.044.044.68.101.775.038.057.349.013 1.273-.183.684-.145 1.241-.233 1.273-.201a.92.92 0 01.088.308l.045.253-1.222.258-1.222.259.012.334c.013.189.045.365.083.403.044.044.386 0 1.095-.145 1.469-.309 1.684-.346 1.729-.302.076.075.145.517.082.58-.101.1-4.382.983-4.451.914-.064-.063-.811-3.474-.773-3.512.019-.019 4.274-.946 4.413-.958.026-.007.07.031.102.07zm-7.668 1.638c.088.14.766 3.424.721 3.474-.076.089-1.589.379-1.652.316-.032-.032-.114-.328-.19-.656-.07-.322-.152-.618-.184-.65-.031-.031-.52.045-1.12.177a34.3 34.3 0 01-1.115.227c-.07 0-.044.378.05.82.159.706.203.649-.709.844-.45.095-.823.146-.854.114-.083-.082-.798-3.436-.748-3.5.076-.087 1.583-.384 1.647-.32.031.03.114.327.19.655s.145.605.158.618c.013.012.481-.082 1.051-.202.564-.126 1.077-.227 1.146-.227.146 0 .146-.183-.006-.87-.133-.612-.21-.536.71-.738.772-.17.848-.182.905-.082z"/><path d="M57.753 4.757c0 .416 1.368 6.494 2.217 9.873 1.95 7.711 4.635 15.907 6.851 20.92.36.82.475 1.008.804 1.349.177.195.266.24.456.24.298 0 .437-.133.437-.423 0-.126-1.4-6.771-3.11-14.766-2.26-10.592-3.133-14.564-3.21-14.64-.196-.183-4.236-2.642-4.343-2.642-.057 0-.102.038-.102.089zm17.604 1.248c0 .044.76 3.65 1.69 8.02 1.096 5.126 1.723 7.944 1.78 7.963.095.038.886-.473 1.817-1.166 2.824-2.106 4.768-4.275 5.56-6.192.341-.832.443-1.393.411-2.257-.038-.832-.108-1.078-.532-1.715-.367-.561-1.342-1.488-2.064-1.96-1.849-1.211-4.439-2.088-7.87-2.674-.691-.113-.792-.12-.792-.019zm8.757 20.283c-.887.22-2.083.889-3.21 1.803-.488.397-.539.46-.545.662 0 .202 3.267 15.63 3.324 15.693.102.094.304-.215.849-1.305 2.229-4.496 3.362-8.569 3.362-12.08 0-1.495-.196-2.573-.614-3.424-.298-.612-.943-1.23-1.418-1.374-.431-.127-1.178-.114-1.748.025z"/></svg>