<svg xmlns="http://www.w3.org/2000/svg" width="128" height="64"><path d="M96.91 7.324H83.76V36.56c0 2.146-.763 3.984-2.29 5.463-1.48 1.528-3.294 2.29-5.49 2.29-2.147 0-3.96-.762-5.44-2.29-1.48-1.48-2.22-3.317-2.22-5.464V7.32H55.17v24.8c-.07 3.125-1.05 5.775-3.006 8.017-1.957 2.196-4.296 3.318-7.04 3.39H25.96c-2.865 0-5.323-1.122-7.375-3.317-2.005-2.268-3.008-5.013-3.008-8.162 0-3.222 1.003-5.966 3.008-8.258 2.052-2.195 4.51-3.317 7.374-3.317h19.16V7.323H25.96c-3.223 0-6.277.67-9.117 2.005-2.864 1.194-5.37 2.936-7.518 5.203-2.172 2.34-3.842 4.97-4.988 7.86-1.24 3.08-1.837 6.3-1.837 9.67 0 3.32.597 6.518 1.838 9.596 1.145 2.89 2.816 5.49 4.988 7.734 2.147 2.34 4.653 4.103 7.517 5.32 2.84 1.313 5.895 1.98 9.116 1.98h18.83c2.88-.12 5.7-.764 8.4-1.98 2.62-1.17 4.98-2.77 7.04-4.845 1.91 2.123 4.12 3.745 6.65 4.914 2.65 1.29 5.44 1.91 8.4 1.91s5.75-.62 8.37-1.91c2.553-1.17 4.773-2.84 6.682-4.99 1.884 2.15 4.104 3.82 6.634 4.99 2.696 1.29 5.537 1.91 8.472 1.91 2.695 0 5.296-.576 7.754-1.67 2.432-1.005 4.58-2.41 6.42-4.275 1.86-1.84 3.29-3.983 4.294-6.42 1.05-2.48 1.573-5.06 1.573-7.753V7.328H112.4V36.56c0 2.146-.763 3.984-2.29 5.463-1.48 1.528-3.317 2.29-5.465 2.29-2.1 0-3.94-.762-5.467-2.29-1.526-1.48-2.29-3.317-2.29-5.464V7.32zM43.452 29.28v-1.29h-5.226v8.02h5.393v-1.29h-3.73v-2.123h3.24v-1.36h-3.24V29.28h3.55zm-20.5-1.29v1.29h2.363v6.73h1.67v-6.73h2.363v-1.29h-6.396zm9.093 3.247V27.99h-1.67v8.02h1.67v-3.413h3.412v3.412h1.67v-8.02h-1.67v3.24h-3.412z" stroke="null" fill="#267911"/></svg>