<svg xmlns="http://www.w3.org/2000/svg" width="128" height="64" xmlns:xlink="http://www.w3.org/1999/xlink"><defs><linearGradient x2="1" id="i" gradientUnits="userSpaceOnUse" gradientTransform="matrix(2.884 -4.119 -4.119 -2.884 474.9 223.83)"><stop offset="0" stop-color="#ea593e"/><stop offset=".199" stop-color="#ea593e" stop-opacity="0"/><stop offset=".825" stop-color="#bf2529" stop-opacity="0"/><stop offset="1" stop-color="#951f21"/></linearGradient><linearGradient x2="1" id="e" gradientUnits="userSpaceOnUse" gradientTransform="matrix(2.884 -4.119 -4.119 -2.884 474.9 223.83)"><stop offset="0" stop-color="#e13e32"/><stop offset=".5" stop-color="#d92729"/><stop offset="1" stop-color="#b22427"/></linearGradient><linearGradient x2="1" id="g" gradientUnits="userSpaceOnUse" gradientTransform="matrix(2.884 -4.119 -4.119 -2.884 474.9 223.83)"><stop offset="0" stop-color="#ea593e"/><stop offset=".145" stop-color="#ea593e" stop-opacity="0"/><stop offset=".854" stop-color="#bf2529" stop-opacity="0"/><stop offset="1" stop-color="#951f21"/></linearGradient><linearGradient x2="1" gradientUnits="userSpaceOnUse" gradientTransform="matrix(2.884 -4.119 -4.119 -2.884 474.9 223.83)"><stop offset="0" stop-color="#e32a1e"/><stop offset=".5" stop-color="#db2828"/><stop offset="1" stop-color="#d1292d"/></linearGradient><linearGradient x2="1" gradientUnits="userSpaceOnUse" gradientTransform="matrix(2.884 -4.119 -4.119 -2.884 474.9 223.83)"><stop offset="0" stop-color="#ea573d"/><stop offset="1" stop-color="#e12f28" stop-opacity="0"/></linearGradient><linearGradient x2="1" id="c" gradientUnits="userSpaceOnUse" gradientTransform="matrix(2.884 -4.119 -4.119 -2.884 474.9 223.83)"><stop offset="0" stop-color="#e93a28"/><stop offset="1" stop-color="#d51d29"/></linearGradient><linearGradient x2="1" id="b" gradientUnits="userSpaceOnUse" gradientTransform="matrix(2.884 -4.119 -4.119 -2.884 474.9 223.83)"><stop offset="0" stop-color="#e93a28"/><stop offset="1" stop-color="#d51d29"/></linearGradient><linearGradient x2="1" id="a" gradientUnits="userSpaceOnUse" gradientTransform="matrix(2.884 -4.119 -4.119 -2.884 474.9 223.83)"><stop offset="0" stop-color="#e93a28"/><stop offset="1" stop-color="#d51d29"/></linearGradient><linearGradient x2="1" xlink:href="#a" gradientUnits="userSpaceOnUse" gradientTransform="matrix(.663 166.62 -115.933 .952 307.801 1.358)"/><linearGradient x2="1" xlink:href="#b" gradientUnits="userSpaceOnUse" gradientTransform="matrix(.663 166.62 -115.933 .952 181.806 1.358)"/><linearGradient x2="1" xlink:href="#c" gradientUnits="userSpaceOnUse" gradientTransform="matrix(.663 166.62 -115.933 .952 55.811 1.359)"/><linearGradient x2="1" xlink:href="#c" gradientUnits="userSpaceOnUse" gradientTransform="matrix(.663 166.62 -115.933 .952 56.811 2.359)"/><linearGradient x2="1" xlink:href="#b" gradientUnits="userSpaceOnUse" gradientTransform="matrix(.663 166.62 -115.933 .952 182.806 2.358)"/><linearGradient x2="1" xlink:href="#a" gradientUnits="userSpaceOnUse" gradientTransform="matrix(.663 166.62 -115.933 .952 308.801 2.358)"/><linearGradient x2="1" xlink:href="#a" gradientUnits="userSpaceOnUse" gradientTransform="matrix(.663 166.62 -115.933 .952 308.801 2.358)"/><linearGradient x2="1" xlink:href="#b" gradientUnits="userSpaceOnUse" gradientTransform="matrix(.663 166.62 -115.933 .952 182.806 2.358)"/><linearGradient x2="1" xlink:href="#c" gradientUnits="userSpaceOnUse" gradientTransform="matrix(.663 166.62 -115.933 .952 56.811 2.359)"/><linearGradient x2="1" xlink:href="#d" gradientUnits="userSpaceOnUse" gradientTransform="matrix(.663 166.62 -115.933 .952 56.811 2.359)"/><linearGradient x2="1" id="d" gradientUnits="userSpaceOnUse" gradientTransform="matrix(2.884 -4.119 -4.119 -2.884 474.9 223.83)"><stop offset="0" stop-color="#79e928" stop-opacity=".699"/><stop offset="1" stop-color="#1dbcd5" stop-opacity="0"/></linearGradient><linearGradient x2="1" id="j" xlink:href="#e" gradientUnits="userSpaceOnUse" gradientTransform="matrix(.662 166.62 -115.92 .952 307.766 1.358)"/><linearGradient x2="1" gradientUnits="userSpaceOnUse" gradientTransform="matrix(2.884 -4.119 -4.119 -2.884 474.9 223.83)"><stop offset="0" stop-color="#e93a28"/><stop offset="1" stop-color="#d51d29"/></linearGradient><linearGradient x2="1" gradientUnits="userSpaceOnUse" gradientTransform="matrix(2.884 -4.119 -4.119 -2.884 474.9 223.83)"><stop offset="0" stop-color="#e93a28"/><stop offset="1" stop-color="#d51d29"/></linearGradient><linearGradient x2="1" xlink:href="#f" gradientUnits="userSpaceOnUse" gradientTransform="matrix(.662 166.62 -115.92 .952 307.766 1.358)"/><linearGradient x2="1" id="f" gradientUnits="userSpaceOnUse" gradientTransform="matrix(2.884 -4.119 -4.119 -2.884 474.9 223.83)"><stop offset="0" stop-color="#e93a28"/><stop offset="1" stop-color="#d51d29"/></linearGradient><linearGradient x1="-.002" y1="2.611" x2="1.904" y2=".385" id="k" xlink:href="#g" gradientUnits="userSpaceOnUse" gradientTransform="matrix(.662 166.62 -115.92 .952 307.766 1.358)"/><linearGradient x2="1" xlink:href="#h" gradientUnits="userSpaceOnUse" gradientTransform="matrix(.662 166.62 -115.92 .952 307.766 1.358)"/><linearGradient x2="1" id="h" gradientUnits="userSpaceOnUse" gradientTransform="matrix(2.884 -4.119 -4.119 -2.884 474.9 223.83)"><stop offset="0" stop-color="#e13e32"/><stop offset=".5" stop-color="#d92729"/><stop offset="1" stop-color="#b22427"/></linearGradient><linearGradient x2="1" xlink:href="#h" gradientUnits="userSpaceOnUse" gradientTransform="matrix(.662 166.62 -115.92 .952 307.766 1.358)"/><linearGradient x1="-.002" y1="1.632" x2=".887" y2=".574" id="l" xlink:href="#i" gradientUnits="userSpaceOnUse" gradientTransform="matrix(.662 166.62 -115.92 .952 307.766 1.358)"/></defs><path fill="#fff" d="M6.623 16.968h29.77V50.84H6.623zm46.915-.84h22.09V51.05h-22.09zm41.552-3.052h25.14v36.817H95.09z"/><path d="M7.03 0C3.164-.002.04 3.236 0 7.03v155.94c-.002 4.095 3.244 6.992 7.03 7.03h97.47c4.53-.06 7.073-3.096 7.03-7.03V7.03c.003-4.376-2.8-7.012-7.03-7.03zm126 0c-3.867-.002-6.992 3.236-7.03 7.03v155.94c-.002 4.095 3.244 6.992 7.03 7.03h97.44c4.528-.06 7.072-3.096 7.03-7.03V7.03c.002-4.376-2.803-7.012-7.03-7.03zM259 0c-3.868-.002-6.993 3.236-7.03 7.03v155.94c-.003 4.095 3.242 6.992 7.03 7.03h97.438c4.53-.06 7.073-3.096 7.03-7.03V7.03c.003-4.376-2.802-7.012-7.03-7.03zm54.938 45.25c10.71 0 20.45 4.184 27.656 11 .428.545.436 1.306-.03 1.813l-9.064 9c-.497.496-1.388.514-1.937 0-4.44-3.934-10.238-6.344-16.625-6.344C300.19 60.72 289 71.86 289 85.65c0 13.71 11.19 24.906 24.938 24.906 6.378 0 12.156-2.42 16.593-6.343.55-.508 1.47-.508 1.97 0l9.07 9c.466.505.46 1.305.03 1.81-7.205 6.817-16.947 10.97-27.657 10.97-22.315 0-40.406-18.064-40.406-40.344 0-22.32 18.092-40.407 40.408-40.407zM23.5 45.563H88c.74 0 1.375.603 1.375 1.343v12.72C89.375 60.403 88.74 61 88 61H63.875v63.375c0 .74-.604 1.344-1.344 1.344H49.75c-.74 0-1.344-.61-1.344-1.35V61H23.5c-.74 0-1.344-.596-1.344-1.375v-12.72c0-.74.604-1.343 1.344-1.343zm135.72 0h12.718c.778 0 1.375.634 1.375 1.374v55.938c0 4.09 3.316 7.375 7.406 7.375h23.53c.78 0 1.34.635 1.34 1.375v12.75c0 .74-.567 1.344-1.346 1.344H175.34c-12.19 0-17.5-7.818-17.5-17.94V46.932c0-.74.636-1.374 1.376-1.374z" fill="url(#j)" transform="matrix(.343 0 0 .343 1.679 2.852)"/><path d="M7.03 0C3.164-.002.04 3.236 0 7.03v155.94c-.002 4.095 3.244 6.992 7.03 7.03h97.47c4.53-.06 7.073-3.096 7.03-7.03V7.03c.003-4.376-2.8-7.012-7.03-7.03zM259 0c-3.868-.002-6.993 3.236-7.03 7.03v155.94c-.003 4.095 3.242 6.992 7.03 7.03h97.438c4.53-.06 7.073-3.096 7.03-7.03V7.03c.003-4.376-2.802-7.012-7.03-7.03zm54.938 45.25c10.71 0 20.45 4.184 27.656 11 .428.545.436 1.306-.03 1.813l-9.064 9c-.497.496-1.388.514-1.937 0-4.44-3.934-10.238-6.344-16.625-6.344C300.19 60.72 289 71.86 289 85.65c0 13.71 11.19 24.906 24.938 24.906 6.378 0 12.156-2.42 16.593-6.343.55-.508 1.47-.508 1.97 0l9.07 9c.466.505.46 1.305.03 1.81-7.205 6.817-16.947 10.97-27.657 10.97-22.315 0-40.406-18.064-40.406-40.344 0-22.32 18.092-40.407 40.408-40.407zM23.5 45.563H88c.74 0 1.375.603 1.375 1.343v12.72C89.375 60.403 88.74 61 88 61H63.875v63.375c0 .74-.604 1.344-1.344 1.344H49.75c-.74 0-1.344-.61-1.344-1.35V61H23.5c-.74 0-1.344-.596-1.344-1.375v-12.72c0-.74.604-1.343 1.344-1.343z" fill="url(#k)" transform="matrix(.343 0 0 .343 1.679 2.852)"/><path d="M133.03 0c-3.867-.002-6.992 3.236-7.03 7.03v155.94c-.002 4.095 3.244 6.992 7.03 7.03h97.44c4.528-.06 7.072-3.096 7.03-7.03V7.03c.002-4.376-2.803-7.012-7.03-7.03zm26.19 45.563h12.718c.778 0 1.375.634 1.375 1.375v55.937c0 4.09 3.316 7.375 7.406 7.375h23.53c.78 0 1.34.635 1.34 1.375v12.75c0 .74-.567 1.344-1.346 1.344H175.34c-12.19 0-17.5-7.818-17.5-17.94V46.94c0-.74.636-1.375 1.376-1.375z" fill="url(#l)" transform="matrix(.343 0 0 .343 1.679 2.852)"/></svg>