<?xml version="1.0" encoding="UTF-8" standalone="no"?>

<svg xmlns:svg="http://www.w3.org/2000/svg" xmlns="http://www.w3.org/2000/svg" version="1.1" width="128" height="64" xmlns:xlink="http://www.w3.org/1999/xlink">
	<g>
		<path fill="#E80E3D" fill-rule="nonzero" d="m34.72614,31.99433c0,16.14161 13.1434,29.2713 29.27946,29.2713c16.14167,0 29.26826,-13.12968 29.26826,-29.2713c0,-16.13326 -13.12659,-29.25997 -29.26826,-29.25997c-16.13607,0 -29.27946,13.1267 -29.27946,29.25997zm4.69011,0c0,-13.55653 11.0328,-24.58371 24.58936,-24.58371c13.55933,0 24.59219,11.02717 24.59219,24.58371c0,13.55957 -11.03285,24.5924 -24.59219,24.5924c-13.55656,0 -24.58936,-11.03283 -24.58936,-24.5924"/>
		<path fill="#E80E3D" fill-rule="nonzero" d="m56.0353,29.3646l-4.38578,0l0,11.40701l-3.83024,0l0,-11.40701l-4.38577,0l0,-3.29135l12.60179,0l0,3.29135"/>
		<path fill="#E80E3D" fill-rule="nonzero" d="m57.68238,26.07325l3.93351,0l5.10604,9.05639l0.04192,0l0,-9.05639l3.60411,0l0,14.69836l-3.93629,0l-5.10604,-9.16244l-0.03905,0l0,9.16244l-3.60416,0l0,-14.69836"/>
		<path fill="#E80E3D" fill-rule="nonzero" d="m84.63914,29.3646l-4.38577,0l0,11.40701l-3.83024,0l0,-11.40701l-4.38295,0l0,-3.29135l12.59896,0l0,3.29135"/>
	</g>
</svg>