<svg xmlns="http://www.w3.org/2000/svg" width="128" height="64"><path d="M34.726 31.994c0 16.142 13.144 29.272 29.28 29.272 16.14 0 29.268-13.13 29.268-29.272 0-16.133-13.127-29.26-29.268-29.26-16.136 0-29.28 13.127-29.28 29.26zm4.69 0c0-13.556 11.033-24.583 24.59-24.583 13.56 0 24.592 11.03 24.592 24.59S77.565 56.59 64.006 56.59c-13.557 0-24.59-11.033-24.59-24.593m16.62-2.63H51.65v11.406h-3.83v-11.41h-4.386v-3.29h12.6v3.29m1.648-3.29h3.934l5.106 9.056h.042v-9.06h3.604v14.7h-3.936l-5.106-9.17h-.04v9.16h-3.604v-14.7m26.958 3.29h-4.387v11.41h-3.83v-11.4H72.04v-3.29h12.6v3.29" fill="#E80E3D"/></svg>