<svg xmlns="http://www.w3.org/2000/svg" width="128" height="64"><path d="M20.676 57.021C11.844 57.021.07 51.743.07 36.416V6.979h107.15l11.48 25.08-11.48 24.962z" fill="#00b4e9"/><path d="M110.151 57.021L121.628 32 110.025 6.979h6.892L127.93 32l-11.29 25.021z" fill="#00b4e9"/><path d="M38.2 23.175c.313 0 .509.196.509.51v3.841c0 .314-.196.51-.51.51-3.35 0-5.138 1.568-5.138 1.568V41.06c0 .314-.196.51-.51.51h-4.903c-.314 0-.511-.196-.511-.51V23.682c0-.315.197-.51.51-.51h3.53c.236 0 .432.117.51.353l.981 2.353c1.57-2.236 4.125-2.703 5.532-2.703M45.787 34.274c-2.276 0-2.864 1.058-2.864 1.96 0 .98.55 1.334 1.295 1.334.706 0 1.569-.315 2.236-.824v-2.47zm.667-4.042c0-1.805-.864-2.197-2.708-2.197h-3.322c-.314 0-.51-.195-.51-.51v-3.843c0-.315.196-.51.51-.51h4.343c5.53 0 7.61 2.079 7.61 8.158v9.729c0 .314-.157.51-.432.51h-3.608c-.236 0-.393-.039-.472-.236l-.627-1.49c-1.57 1.334-2.707 2-5.021 2-3.02 0-5.317-2.256-5.317-5.857 0-4.078 2.375-5.417 8.22-5.417h1.334M57.697 41.256l-5.1-17.614c-.078-.313.117-.47.392-.47h5.532c.235 0 .391.117.43.392L61.58 36.9l2.55-13.337c.039-.235.196-.393.47-.393h5.218c.235 0 .352.158.275.432l-5.14 17.692c-.038.156-.117.274-.353.274h-6.471c-.197 0-.393-.079-.432-.313M96.68 36.705h-1.215c-1.57 0-2.275-.785-2.275-2.197V16.484c0-.314-.197-.55-.707-.392l-4.786 1.373a.59.59 0 00-.43.588V34.43c0 4.511 2.667 7.14 7.178 7.14h2.236c.314 0 .51-.197.51-.511v-3.844c0-.314-.196-.51-.51-.51M25.011 23.171c.314 0 .51.196.51.51v3.844c0 .315-.196.51-.51.51h-4.276v6.473c0 1.57.824 2.197 2.275 2.197h2.001c.314 0 .51.196.51.51v3.844c0 .314-.196.51-.51.51H21.99c-4.276 0-7.178-2.393-7.178-7.14V18.426a.59.59 0 01.431-.589l4.786-1.372c.51-.157.706.078.706.391v6.316M61.75 50.715c-1.614 0-2.653-1.126-2.653-3.213 0-2.086 1.03-3.213 2.654-3.213.55 0 1.083.122 1.624.41.06.053.052.106.026.166l-.34.751c-.035.07-.088.07-.14.044-.35-.192-.664-.306-1.1-.306-.882 0-1.546.577-1.546 2.148 0 1.58.655 2.148 1.546 2.148.428 0 .75-.114 1.1-.305.06-.027.105-.027.14.043l.34.75c.035.062.035.115-.026.167a3.35 3.35 0 01-1.624.41M65.637 48.061v2.488c0 .07-.035.105-.096.105h-.926c-.061 0-.105-.035-.105-.105v-6.094c0-.07.044-.105.105-.105h.926c.06 0 .096.035.096.105v2.488c0 .053.017.07.07.07h2.165c.052 0 .07-.017.07-.07v-2.488c0-.07.043-.105.104-.105h.926c.06 0 .096.035.096.105v6.094c0 .07-.035.105-.096.105h-.926c-.061 0-.105-.035-.105-.105v-2.488c0-.052-.017-.07-.07-.07h-2.165c-.052 0-.07.018-.07.07M72.534 45.66l-.777 2.663h1.554zm-1.432 4.907c-.017.052-.044.087-.096.087h-.926c-.07 0-.104-.052-.078-.122l1.886-6.112c.017-.043.044-.07.105-.07h1.16c.062 0 .088.027.106.07l1.885 6.103c.018.07-.017.131-.087.131h-.995c-.052 0-.087-.035-.096-.087l-.367-1.258h-2.13M79.624 44.455c0-.07.044-.105.104-.105h.926c.06 0 .096.035.096.105v6.094c0 .07-.035.105-.096.105h-.917c-.07 0-.113-.026-.148-.087l-2.27-4.095v4.077c0 .07-.035.105-.097.105h-.925c-.061 0-.104-.035-.104-.105v-6.094c0-.07.043-.105.104-.105h.917c.079 0 .114.027.14.088l2.27 4.094M85.796 44.455c0-.07.044-.105.105-.105h.925c.062 0 .096.035.096.105v6.094c0 .07-.034.105-.096.105h-.916c-.07 0-.114-.026-.149-.087l-2.27-4.095v4.077c0 .07-.035.105-.096.105h-.926c-.06 0-.104-.035-.104-.105v-6.094c0-.07.044-.105.104-.105h.918c.078 0 .113.027.139.088l2.27 4.094M91.62 47.013c.06 0 .104.035.104.105v.768c0 .07-.044.105-.105.105h-2v1.615c0 .053.018.07.062.07h2.497c.061 0 .105.035.105.096v.777c0 .07-.044.105-.105.105h-3.58c-.06 0-.105-.035-.105-.105v-6.094c0-.07.044-.105.105-.105h3.58c.061 0 .105.035.105.105v.777c0 .062-.044.096-.105.096h-2.497c-.044 0-.061.018-.061.07v1.615M94.676 49.606c0 .053.018.07.061.07h2.358c.061 0 .096.035.096.096v.777c0 .07-.035.105-.096.105h-3.44c-.061 0-.105-.035-.105-.105v-6.094c0-.07.044-.105.105-.105h.925c.061 0 .096.035.096.105M77.955 27.173c1.165 0 2.067.93 2.067 3.462h-4.344c.077-2.376 1.072-3.462 2.277-3.462zm5.541 9.08c-.112-.314-.33-.383-.646-.259-.889.35-2.603.768-4.119.768-1.592 0-2.897-.576-3.014-2.596h9.762c.5 0 .57-.099.57-.54l-.006-1.511c-.115-5.828-2.998-9.218-7.933-9.218-5.517 0-8.316 4.351-8.316 9.87 0 5.633 3.77 8.898 8.743 8.898 2.216 0 4.665-.662 5.946-1.234.237-.106.389-.31.31-.583" fill="#fff"/></svg>