<svg xmlns="http://www.w3.org/2000/svg" width="128" height="64"><path fill="#1e1c67" d="M21.975 17.577h6.993v9.885h-6.993v28.382H8.94V27.462H2.503v-9.885H8.94V6.737h13.035v10.84m21.428 6.028h-.16v-6.08H30.996V55.85H44.03V38.6c0-6.446 4.054-7.792 9.886-7.992V17.485c-7.217.14-9.43 4.037-10.514 6.12m53.23 32.235h-12.41v-4.667h-.167c-2.682 5.618-8.056 6.09-11.387 6.09-2.682 0-9.012-.633-12.89-5.53-3.48-4.364-3.95-7.52-3.95-13.527V17.33h13.13v18.9c0 3 0 8.778 7.04 8.778 3.79 0 7.51-3.028 7.51-9.982V17.33h13.124v38.51m30.564-34.484c-.12-8.017-6.718-14.416-14.735-14.3-8.02.122-14.42 6.72-14.292 14.736.12 8.018 6.717 14.42 14.73 14.3 8.022-.12 14.425-6.72 14.304-14.736"/><path d="M106.69 16.36h-3.254l-.523 3h3.255l-1.37 7.872h3.083l1.37-7.858 3.03.028.65-3.045-3.15-.006-3.085.01m6.938 0l.254 1.29 1.66 9.14.116.52h2.78l.305-.52 4.835-9.14.704-1.22h-3.292l-.3.52-2.76 5.31-.03.16.024-.16-.91-5.31-.127-.52h-.013l.005-.05" fill="#f8f9f9"/></svg>