<?xml version="1.0" encoding="UTF-8" standalone="no"?>

<svg xmlns:svg="http://www.w3.org/2000/svg" xmlns="http://www.w3.org/2000/svg" version="1.1" width="128" height="64" xmlns:xlink="http://www.w3.org/1999/xlink">
	<g transform="matrix(0.88714163,0,0,0.88714163,-3.4797495,-388.78472)">
		<path fill="#1e1c67" fill-rule="nonzero" d="m 28.693271,458.05759 7.88278,0 0,11.14258 -7.88278,0 0,31.99286 -14.69362,0 0,-31.99286 -7.2561095,0 0,-11.14258 7.2561095,0 0,-12.21991 14.69362,0 0,12.21991" />
		<path fill="#1e1c67" fill-rule="nonzero" d="m 52.847341,464.85196 -0.1814,0 0,-6.8548 -13.80311,0 0,43.20123 14.69363,0 0,-19.44293 c 0,-7.26715 4.56805,-8.78436 11.14253,-9.0097 l 0,-14.7926 c -8.13564,0.15942 -10.63131,4.55157 -11.85165,6.8988" />
		<path fill="#1e1c67" fill-rule="nonzero" d="m 112.84766,501.18753 -13.989999,0 0,-5.26068 -0.1869,0 c -3.02338,6.33258 -9.08115,6.86578 -12.83562,6.86578 -3.02338,0 -10.15854,-0.7146 -14.52869,-6.2337 -3.9249,-4.9198 -4.45262,-8.47638 -4.45262,-15.24878 l 0,-23.5329 14.79806,0 0,21.30658 c 0,3.38074 0,9.89471 7.93774,9.89471 4.27122,0 8.46548,-3.4137 8.46548,-11.2525 l 0,-19.94879 14.792559,0 0,43.41028" />
		<path fill="#1e1c67" fill-rule="nonzero" d="m 147.29981,462.31708 c -0.13625,-9.03733 -7.57248,-16.24967 -16.60983,-16.11826 -9.04222,0.13622 -16.25458,7.57249 -16.11832,16.60982 0.13627,9.03738 7.5725,16.25459 16.60499,16.11831 9.04221,-0.13617 16.25943,-7.57243 16.12316,-16.60987" />
		<g transform="matrix(0.93164125,0,0,1.0460521,8.8781895,-21.030821)">
			<path fill="#f8f9f9" fill-rule="nonzero" d="m 123.84434,456.68177 -3.94122,0 -0.63314,3.23458 3.94123,0 -1.66028,8.48218 3.734,0 1.65732,-8.46702 3.65969,0.0302 0.78881,-3.28172 -3.81091,-0.006 -3.73551,0.008" />
			<path fill="#f8f9f9" fill-rule="nonzero" d="m 132.24591,456.67999 0.30335,1.39047 2.00954,9.84836 0.14082,0.56314 3.36737,0 0.36926,-0.56314 5.85299,-9.84836 0.85474,-1.31291 -3.98507,0 -0.36453,0.55942 -3.33996,5.72336 -0.0371,0.17116 0.0291,-0.17116 -1.0994,-5.72336 -0.15351,-0.55942 -0.0159,0 0.0104,-0.0532" />
		</g>
	</g>
</svg>
