<?xml version="1.0" encoding="UTF-8" standalone="no"?>

<svg xmlns:svg="http://www.w3.org/2000/svg" xmlns="http://www.w3.org/2000/svg" version="1.1" width="128" height="64" xmlns:xlink="http://www.w3.org/1999/xlink">
	<g stroke="null" transform="matrix(0.8090737398493291,0,0,0.8090737398493291,-3.129294161781334,-359.1855533407042) ">
		<path fill="#221e1f" fill-rule="nonzero" d="m26.43884,458.05759l7.88278,0l0,11.14258l-7.88278,0l0,31.99286l-14.69362,0l0,-31.99286l-7.25611,0l0,-11.14258l7.25611,0l0,-12.21991l14.69362,0l0,12.21991"/>
		<path fill="#221e1f" fill-rule="nonzero" d="m50.59291,464.85196l-0.1814,0l0,-6.8548l-13.80311,0l0,43.20123l14.69363,0l0,-19.44293c0,-7.26715 4.56805,-8.78436 11.14253,-9.0097l0,-14.7926c-8.13564,0.15942 -10.63131,4.55157 -11.85165,6.8988"/>
		<path fill="#221e1f" fill-rule="nonzero" d="m110.59323,501.18753l-13.99,0l0,-5.26068l-0.1869,0c-3.02338,6.33258 -9.08115,6.86578 -12.83562,6.86578c-3.02338,0 -10.15854,-0.7146 -14.52869,-6.2337c-3.9249,-4.9198 -4.45262,-8.47638 -4.45262,-15.24878l0,-23.5329l14.79806,0l0,21.30658c0,3.38074 0,9.89471 7.93774,9.89471c4.27122,0 8.46548,-3.4137 8.46548,-11.2525l0,-19.94879l14.79256,0l0,43.41028"/>
		<path fill="#028fc5" fill-rule="nonzero" d="m151.27142,484.04214c-0.1539,-10.20801 -8.55341,-18.35461 -18.76144,-18.20618c-10.21352,0.15387 -18.36015,8.55341 -18.20624,18.76141c0.15392,10.20807 8.55342,18.36017 18.75595,18.20624c10.21352,-0.15381 18.36565,-8.55334 18.21173,-18.76147"/>
		<path fill="#f8f9f9" fill-rule="nonzero" d="m123.00558,477.48428l-5.43659,0l0,4.67249l5.43659,0l0,12.25287l5.15074,0l0,-12.23096l5.38161,0l-2.34175,-4.3042l0.00551,0l0.67064,1.5722l5.43109,14.22638l0.3463,0.81348l4.64502,0l0.3573,-0.81348l5.41461,-14.22638l0.82455,-1.89655l-5.49706,0l-0.35181,0.80811l-3.06187,8.26764l-0.00548,0.24725l-0.00551,-0.24725l-3.06186,-8.26764l-0.36279,-0.80811l-0.02199,0l0,-0.0769l-8.36652,0l-5.15074,0.01105"/>
		<path fill="#221e1f" fill-rule="nonzero" d="m11.68475,521.02087l0,-10.13107l2.12186,0l2.69356,6.00278l0.02199,0l0,-6.00278l1.77005,0l0,10.13107l-1.84151,0l-2.96841,-6.53601l-0.02199,0l0,6.53601l-1.77555,0"/>
		<path fill="#221e1f" fill-rule="nonzero" d="m21.61244,518.01392c0,1.12695 0.48374,1.43481 1.25882,1.43481c0.76959,0 1.26433,-0.30786 1.26433,-1.43481l0,-4.1228c0,-1.12134 -0.49474,-1.43469 -1.26433,-1.43469c-0.77508,0 -1.25882,0.31335 -1.25882,1.43469l0,4.1228zm-1.94046,-3.86987c0,-2.50107 1.31929,-3.39719 3.19928,-3.39719c1.88,0 3.20479,0.89612 3.20479,3.39719l0,3.61707c0,2.50659 -1.32479,3.39722 -3.20479,3.39722c-1.87999,0 -3.19928,-0.89063 -3.19928,-3.39722l0,-3.61707"/>
		<path fill="#221e1f" fill-rule="nonzero" d="m33.20023,510.8898l0,1.70956l-2.25929,0l0,8.42151l-1.93496,0l0,-8.42151l-2.25929,0l0,-1.70956l6.45354,0"/>
		<path fill="#221e1f" fill-rule="nonzero" d="m38.8567,515.29297l0.99496,0c0.86304,0 1.37427,-0.41785 1.37427,-1.40186c0,-0.97839 -0.51123,-1.40173 -1.37427,-1.40173l-0.99496,0l0,2.80359zm2.6111,5.72791l-1.6766,-4.1283l-0.9345,0l0,4.1283l-1.92947,0l0,-10.13107l2.798,0c2.33075,0 3.44116,1.12143 3.44116,3.02878c0,1.2644 -0.45076,2.177 -1.52268,2.58362l1.89648,4.51868l-2.07239,0"/>
		<path fill="#221e1f" fill-rule="nonzero" d="m44.69457,521.02087l0,-10.13107l5.31016,0l0,1.70956l-3.3752,0l0,2.33081l2.57812,0l0,1.71509l-2.57812,0l0,2.66602l3.50712,0l0,1.70959l-5.44208,0"/>
		<path fill="#221e1f" fill-rule="nonzero" d="m53.75921,517.17297l1.92397,0l-0.93999,-4.09534l-0.03299,0l-0.95099,4.09534zm-2.76501,3.8479l2.51215,-10.13107l2.48467,0l2.44069,10.13107l-1.85251,0l-0.48924,-2.13281l-2.68256,0l-0.54421,2.13281l-1.86899,0"/>
		<path fill="#221e1f" fill-rule="nonzero" d="m59.45964,521.02087l0,-10.13107l1.93497,0l0,8.42148l3.11683,0l0,1.70959l-5.0518,0"/>
		<path fill="#221e1f" fill-rule="nonzero" d="m65.48992,521.02087l1.93502,0l0,-10.13266l-1.93502,0l0,10.13266z"/>
		<path fill="#221e1f" fill-rule="nonzero" d="m75.11526,510.8898l0,1.70956l-2.25379,0l0,8.42151l-1.94046,0l0,-8.42151l-2.25929,0l0,-1.70956l6.45354,0"/>
		<path fill="#221e1f" fill-rule="nonzero" d="m79.2985,514.97412l1.64362,-4.08432l2.0614,0l-2.76502,6.03024l0,4.10083l-1.93495,0l0,-4.10083l-2.76501,-6.03024l2.06139,0l1.69857,4.08432"/>
		<path fill="#221e1f" fill-rule="nonzero" d="m92.02969,517.17297l1.91846,0l-0.93999,-4.09534l-0.02748,0l-0.95099,4.09534zm-2.76502,3.8479l2.51215,-10.13107l2.48466,0l2.4407,10.13107l-1.85252,0l-0.48923,-2.13281l-2.68256,0l-0.5442,2.13281l-1.869,0"/>
		<path fill="#221e1f" fill-rule="nonzero" d="m99.21433,518.01392c0,1.12695 0.48924,1.43481 1.25882,1.43481c0.77509,0 1.26433,-0.30786 1.26433,-1.43481l0,-0.67053l1.93497,0l0,0.41772c0,2.50659 -1.31929,3.39722 -3.1993,3.39722c-1.87999,0 -3.19378,-0.89063 -3.19378,-3.39722l0,-3.61707c0,-2.50107 1.31379,-3.39719 3.19378,-3.39719c1.88,0 3.1993,0.89612 3.1993,3.39719l0,0.02747l-1.93497,0l0,-0.2804c0,-1.12134 -0.48923,-1.43469 -1.26433,-1.43469c-0.76958,0 -1.25882,0.31335 -1.25882,1.43469l0,4.1228"/>
		<path fill="#221e1f" fill-rule="nonzero" d="m110.80212,510.8898l0,1.70956l-2.25929,0l0,8.42151l-1.94046,0l0,-8.42151l-2.25378,0l0,-1.70956l6.45354,0"/>
		<path fill="#221e1f" fill-rule="nonzero" d="m113.68807,510.8898l0,7.08578c0,0.96729 0.42877,1.47314 1.36877,1.47314c0.93999,0 1.37426,-0.50586 1.37426,-1.47314l0,-7.08578l1.93497,0l0,7.10226c0,2.23181 -1.3193,3.16626 -3.30923,3.16626c-1.99543,0 -3.29823,-0.93445 -3.29823,-3.16626l0,-7.10226l1.92946,0"/>
		<path fill="#221e1f" fill-rule="nonzero" d="m121.98863,517.17297l1.91846,0l-0.93999,-4.09534l-0.02199,0l-0.95648,4.09534zm-2.76502,3.8479l2.51215,-10.13107l2.48467,0l2.44069,10.13107l-1.85251,0l-0.48923,-2.13281l-2.68258,0l-0.5497,2.13281l-1.8635,0"/>
		<path fill="#221e1f" fill-rule="nonzero" d="m127.68357,521.02087l0,-10.13107l1.94045,0l0,8.42148l3.11134,0l0,1.70959l-5.0518,0"/>
		<path fill="#221e1f" fill-rule="nonzero" d="m133.99419,521.02087l1.94046,0l0,-10.13266l-1.94046,0l0,10.13266z"/>
		<path fill="#221e1f" fill-rule="nonzero" d="m143.34468,510.8898l0,1.70956l-2.25929,0l0,8.42151l-1.94046,0l0,-8.42151l-2.25929,0l0,-1.70956l6.45905,0"/>
		<path fill="#221e1f" fill-rule="nonzero" d="m147.52794,514.97412l1.64362,-4.08432l2.06139,0l-2.765,6.03024l0,4.10083l-1.93498,0l0,-4.10083l-2.76501,-6.03024l2.0614,0l1.69859,4.08432"/>
		<path fill="#221e1f" fill-rule="nonzero" d="m84.76807,520.02039c0,0.54968 -0.44526,0.995 -0.99497,0.995c-0.5497,0 -1.00046,-0.44531 -1.00046,-0.995c0,-0.54419 0.45076,-0.995 1.00046,-0.995c0.54971,0 0.99497,0.45081 0.99497,0.995"/>
		<path fill="#221e1f" fill-rule="nonzero" d="m153.03049,520.02039c0,0.54968 -0.44527,0.995 -0.99496,0.995c-0.54971,0 -0.98947,-0.44531 -0.98947,-0.995c0,-0.54419 0.43976,-0.995 0.98947,-0.995c0.5497,0 0.99496,0.45081 0.99496,0.995"/>
		<path fill="#221e1f" fill-rule="nonzero" d="m157.37315,521.03735l0,-2.3252l-0.85754,0l0,-0.30798l2.0724,0l0,0.30798l-0.86304,0l0,2.3252l-0.35182,0"/>
		<path fill="#221e1f" fill-rule="nonzero" d="m158.93982,521.03735l0,-2.63318l0.52771,0l0.62117,1.86353l0.12094,0.38477l0.14293,-0.41772l0.63216,-1.83057l0.46725,0l0,2.63318l-0.33533,0l0,-2.20435l-0.76408,2.20435l-0.31334,0l-0.7641,-2.24829l0,2.24829l-0.33531,0"/>
	</g>
</svg>