<svg xmlns="http://www.w3.org/2000/svg" width="128" height="64"><g stroke="null"><path fill="#e10952" d="M63.627 1.045h3.584c6.2.38 12.248 2.724 17.07 6.63 4.378 3.523 7.75 8.272 9.67 13.55-.48.005-.96.006-1.44.008-2.465-6-7.06-11.118-12.84-14.095-4.55-2.402-9.804-3.406-14.922-2.94-5.53.426-10.88 2.513-15.336 5.793-4.48 3.288-8.093 7.64-10.883 12.42-3.29 5.7-5.56 11.92-7.277 18.248-2.42-.006-4.834.007-7.252-.012-1.48-3.775-2.93-7.562-4.403-11.34-.112-.273-.24-.54-.368-.803-1.286.04-2.57-.024-3.855.03-.185.204-.06.56-.105.82.012 3.764.006 7.53.002 11.3-1.937.01-3.875.006-5.81-.002-.02-4.05.04-8.097-.03-12.145-1.677.028-3.353 0-5.028.014V23.4c6.43.02 12.855-.01 19.284.014 1.226 3.284 2.427 6.58 3.66 9.863 1.257-3.026 2.535-6.047 4.044-8.956 3.404-6.27 7.93-12.026 13.685-16.3C50.42 3.98 56.92 1.424 63.63 1.05z"/><path fill="#0a2e68" d="M64.352 23.097c-.5.006-.998.044-1.484.108-1.223.14-2.413.564-3.444 1.238-1.838 1.234-2.893 3.363-3.16 5.523-.334 2.478-.197 5.16 1.037 7.39 1 1.884 2.98 3.086 5.05 3.434 2.04.32 4.216.24 6.13-.594 1.553-.66 2.804-1.943 3.474-3.484.926-1.926.924-4.116.816-6.2-.21-1.982-.913-4.01-2.42-5.38-1.6-1.507-3.825-2.062-5.993-2.035zm.06 4.225c.71-.017 1.425.368 1.753 1.008.78 1.373.74 3.02.722 4.55-.078 1.065-.14 2.23-.815 3.11-.7.927-2.22 1.016-3.022.177-.533-.657-.804-1.493-.895-2.325-.178-1.424-.174-2.887.128-4.294.23-.992.84-2.15 1.985-2.216.047-.005.095-.01.143-.01zm50.548-4.225c-.46.008-.92.04-1.37.098-2.11.226-4.184 1.29-5.356 3.095-1.44 2.158-1.583 4.874-1.39 7.385.222 2.212 1.128 4.5 2.997 5.818 1.95 1.405 4.478 1.622 6.79 1.38 2.04-.24 4.09-1.184 5.26-2.918 1.49-2.073 1.72-4.76 1.548-7.233-.187-2.23-1.042-4.533-2.85-5.95-1.59-1.237-3.625-1.71-5.62-1.675zm.08 4.225c.53-.012 1.07.18 1.44.57.53.55.76 1.31.898 2.044.23 1.494.225 3.024-.015 4.516-.135.62-.356 1.25-.79 1.724-.848.857-2.496.743-3.11-.334-.854-1.474-.805-3.264-.728-4.913.132-1.26.335-2.84 1.597-3.47.223-.09.465-.138.707-.144zm-75.073-3.946c5.33.018 10.658.008 15.99.006 0 1.714.006 3.43 0 5.145-1.686.014-3.37-.004-5.052.01.004 4.043.005 8.086-.002 12.128-1.964.012-3.93.024-5.893-.006.016-4.04-.02-8.07.016-12.1-1.684-.07-3.373-.01-5.06-.03-.005-1.72.003-3.44 0-5.16zm34.083 17.29c0-5.76-.027-11.524.01-17.286 1.956.004 3.912.006 5.868.004.004 2.215.025 4.432-.008 6.647 1.32-2.19 2.52-4.44 3.82-6.65 3.71.01 7.422.01 11.134 0 1.264 2.76 2.4 5.57 3.617 8.35 1.15-2.723 2.16-5.51 3.07-8.323 2.07-.03 4.14-.016 6.21-.006-2.15 6.17-4.58 12.273-7.85 17.944-3.726 6.42-8.73 12.218-15.01 16.245-4.633 3.012-10 4.92-15.514 5.372H64.2c-5.27-.442-10.406-2.31-14.72-5.37-5.16-3.616-9.147-8.863-11.286-14.79.484-.007.967-.01 1.45-.01 1.103 2.623 2.562 5.105 4.393 7.287 3.837 4.64 9.23 7.986 15.122 9.266 5.65 1.237 11.67.59 16.99-1.65 4.34-1.81 8.225-4.625 11.464-8.017 3.16-3.28 5.7-7.113 7.76-11.166-2.063-4.42-4.125-8.84-6.19-13.257-1.38 2.095-2.805 4.16-4.19 6.252 1.963 3.062 3.985 6.09 5.915 9.174-2.347-.01-4.69.007-7.036-.01-1.318-2.398-2.643-4.794-3.948-7.2.01 2.392-.014 4.786.01 7.18-1.964.063-3.932.017-5.895.02z"/></g></svg>