<?xml version="1.0" encoding="UTF-8" standalone="no"?>

<svg xmlns:svg="http://www.w3.org/2000/svg" xmlns="http://www.w3.org/2000/svg" version="1.1" width="128" height="64" xmlns:xlink="http://www.w3.org/1999/xlink">
	<g stroke="null">
		<path stroke="null" fill="#e10952" d="m63.62657,1.04498l3.58488,0c6.19296,0.38129 12.24048,2.72404 17.06355,6.63124c4.37693,3.52199 7.74956,8.27039 9.67171,13.54746c-0.48153,0.00591 -0.96109,0.00782 -1.44063,0.00982c-2.46658,-6.00034 -7.06168,-11.11823 -12.83797,-14.0958c-4.54989,-2.40171 -9.80733,-3.40603 -14.92522,-2.94023c-5.52866,0.42649 -10.88042,2.51374 -15.33597,5.79398c-4.4811,3.28024 -8.09153,7.63949 -10.88239,12.41736c-3.28811,5.69375 -5.55814,11.91422 -7.27589,18.2428c-2.41744,-0.006 -4.83488,0.00782 -7.25231,-0.0118c-1.48191,-3.77552 -2.93237,-7.56284 -4.40445,-11.34033c-0.11203,-0.27319 -0.23977,-0.53852 -0.36753,-0.80385c-1.28537,0.04128 -2.57074,-0.02358 -3.85414,0.03145c-0.18868,0.20243 -0.05896,0.55817 -0.1081,0.8176c0.01178,3.7657 0.00591,7.53336 0.00199,11.30102c-1.93591,0.0118 -3.87379,0.006 -5.80971,-0.00199c-0.01968,-4.04868 0.04124,-8.09739 -0.03147,-12.1461c-1.67452,0.02751 -3.351,-0.002 -5.02552,0.01376l0,-5.12182c6.42881,0.02162 12.85565,-0.00782 19.28445,0.01571c1.2264,3.28418 2.42726,6.58014 3.66153,9.86235c1.25589,-3.02671 2.5334,-6.04752 4.04282,-8.95631c3.40406,-6.27157 7.93036,-12.02821 13.68504,-16.30294c5.3498,-4.02906 11.8474,-6.58604 18.55529,-6.9634l0,0z"/>
		<path stroke="null" fill="#0a2e68" d="m64.35181,23.09671c-0.50039,0.00599 -0.99782,0.04434 -1.48388,0.1081c-1.22248,0.14151 -2.41253,0.56407 -3.44436,1.2382c-1.83765,1.23426 -2.89209,3.36279 -3.15937,5.52276c-0.33412,2.47836 -0.19753,5.15916 1.03673,7.38989c1.00039,1.88481 2.97463,3.08665 5.04616,3.43452c2.04009,0.32036 4.21283,0.24076 6.12712,-0.59453c1.55266,-0.65841 2.80363,-1.94279 3.47384,-3.48366c0.9257,-1.92609 0.92373,-4.11554 0.81564,-6.20083c-0.2103,-1.98112 -0.91194,-4.00842 -2.41743,-5.38026c-1.60008,-1.50586 -3.82616,-2.06048 -5.99445,-2.03419l0,0zm0.05895,4.2256c0.70994,-0.01725 1.42613,0.36789 1.75411,1.00726c0.78027,1.37381 0.73997,3.02081 0.72228,4.54988c-0.07861,1.06525 -0.13954,2.22975 -0.81564,3.11024c-0.69968,0.92767 -2.21992,1.01611 -3.0218,0.17689c-0.53262,-0.65644 -0.80384,-1.49272 -0.89425,-2.32408c-0.17885,-1.42491 -0.17492,-2.88717 0.12775,-4.29439c0.22996,-0.99253 0.84119,-2.14916 1.98505,-2.21598c0.04717,-0.00478 0.09516,-0.00868 0.14249,-0.00983l0,0.00001z"/>
		<path stroke="null" fill="#0a2e68" d="m114.96072,23.09671c-0.46064,0.008 -0.92053,0.03895 -1.37086,0.09827c-2.10886,0.22602 -4.18432,1.2893 -5.35571,3.0955c-1.44062,2.158 -1.58311,4.8732 -1.39051,7.38497c0.22211,2.21107 1.12816,4.49879 2.99724,5.81757c1.94572,1.40525 4.47128,1.62243 6.79043,1.38068c2.03419,-0.24174 4.08409,-1.18513 5.25742,-2.9186c1.48978,-2.0735 1.71384,-4.76019 1.54285,-7.23265c-0.18671,-2.23072 -1.04166,-4.53319 -2.84982,-5.95023c-1.59049,-1.23759 -3.62492,-1.71025 -5.62103,-1.6755l0,0zm0.07861,4.2256c0.53217,-0.0128 1.06944,0.17946 1.43966,0.56996c0.53066,0.55031 0.7616,1.31092 0.89916,2.04401c0.22996,1.4937 0.22505,3.02376 -0.01468,4.51549c-0.13562,0.62107 -0.35674,1.24901 -0.79108,1.72464c-0.84708,0.85691 -2.49507,0.74292 -3.11023,-0.33412c-0.85298,-1.47405 -0.80385,-3.26452 -0.7272,-4.91349c0.13168,-1.25392 0.33508,-2.83508 1.59687,-3.46401c0.22295,-0.09027 0.46566,-0.13668 0.70755,-0.14249l-0.00005,0z"/>
		<path stroke="null" fill="#0a2e68" d="m39.96715,23.3758c5.33015,0.0177 10.65834,0.00782 15.98849,0.006c0,1.71382 0.00782,3.42961 0,5.1454c-1.68435,0.01376 -3.36869,-0.004 -5.05107,0.00983c0.004,4.04282 0.00591,8.08563 -0.002,12.12846c-1.96343,0.01178 -3.92883,0.02358 -5.89226,-0.006c0.01572,-4.03299 -0.01965,-8.06401 0.01572,-12.097c-1.68434,-0.0688 -3.37262,-0.01179 -5.06089,-0.02751c-0.00399,-1.71972 0.00399,-3.43944 0.002,-5.15916l0,-0.00001z"/>
		<path stroke="null" fill="#0a2e68" d="m74.04906,40.66734c0,-5.76254 -0.02557,-11.52507 0.01182,-17.28761c1.95557,0.00399 3.91114,0.00591 5.86671,0.00399c0.00417,2.215 0.02557,4.43197 -0.00782,6.64697c1.31876,-2.19142 2.52159,-4.44769 3.81876,-6.6509c3.71067,0.00782 7.42329,0.004 11.13592,0c1.26376,2.75549 2.39975,5.56993 3.61633,8.34703c1.14976,-2.726 2.15999,-5.509 3.06208,-8.32541c2.06957,-0.03145 4.14109,-0.0177 6.21263,-0.00782c-2.15015,6.16937 -4.58134,12.27389 -7.85177,17.94405c-3.72443,6.42095 -8.72832,12.21689 -15.00971,16.24399c-4.63244,3.01295 -9.99796,4.91938 -15.51286,5.37338l-5.19258,0c-5.26732,-0.44428 -10.40487,-2.31336 -14.7189,-5.36957c-5.16113,-3.61828 -9.14695,-8.86589 -11.28529,-14.79352c0.48349,-0.00608 0.96698,-0.00982 1.45046,-0.00982c1.10259,2.6238 2.56091,5.1061 4.39266,7.28769c3.83645,4.64227 9.22949,7.98737 15.12175,9.26684c5.65247,1.2382 11.67249,0.58962 16.99477,-1.65093c4.33958,-1.8062 8.22713,-4.6226 11.46609,-8.01488c3.16037,-3.28024 5.70163,-7.11276 7.75938,-11.16541c-2.06169,-4.42017 -4.12339,-8.84035 -6.18902,-13.25855c-1.38168,2.09511 -2.80463,4.16074 -4.19022,6.25192c1.96342,3.06404 3.9858,6.09075 5.91582,9.17642c-2.34667,-0.00782 -4.69139,0.00782 -7.03611,-0.00982c-1.31681,-2.39778 -2.64148,-4.79359 -3.94652,-7.2012c0.00986,2.39384 -0.01376,4.78769 0.01182,7.18155c-1.96539,0.06289 -3.93276,0.0177 -5.89619,0.02163l-0.00002,-0.00003z"/>
	</g>
</svg>