<svg xmlns="http://www.w3.org/2000/svg" width="128" height="64"><path d="M24.004 50.675c-1.605-.584-2.203-1.798-5.816-11.81l-3.623-10.041h-1.36l-1.36-.002V37.6c0 9.967.046 9.782-2.444 9.782-2.824 0-2.676.531-2.676-9.61v-8.949H3.56c-3.47 0-3.554-.048-3.554-2.041 0-.567.173-1.203.384-1.414.28-.28 2.75-.384 9.112-.384 8.704 0 8.729.002 9.178.72.248.396 1.634 4.292 3.08 8.659 1.447 4.367 2.674 7.894 2.727 7.84.053-.056 2.126-6.42 4.605-14.145 2.48-7.724 4.67-14.24 4.869-14.479.924-1.113 3.813-.043 3.794 1.406-.004.308-.703 2.72-1.553 5.36l-1.547 4.799 6.09.087c3.831.055 6.245.218 6.512.44.53.438.558 2.89.04 3.408-.255.256-1.65.384-4.16.384h-3.775v2.8l-.001 2.8 3.44-.086c1.893-.047 3.63.039 3.86.19.44.29.612 2.622.239 3.226-.136.22-1.574.35-3.877.35h-3.66v4.095c0 2.76-.126 4.221-.385 4.48-.425.425-3.708.518-4.33.123-.298-.19-.417-2.78-.48-10.453l-.085-10.202-2.753 8.618c-2.537 7.942-2.72 8.686-2.32 9.482.65 1.298.543 3.23-.235 4.219-1.171 1.489-3.18 2.15-4.771 1.571zm1.884-3.412c.277-.333.245-.536-.134-.85-.612-.508-1.294.028-1.003.786.237.618.658.642 1.137.064zm27.629-10.521l.084-10.96 4.96-.065c2.727-.036 5.802.067 6.832.228 3.492.546 5.114 2.613 5.147 6.557.024 2.82-.961 4.72-3.069 5.916-1.21.687-1.91.81-5.39.956l-4 .168-.09 4.08-.09 4.079h-4.468zm17.522-.094V25.595l2.32.094 2.32.094.085 9.039.085 9.04h10.869V47.7H71.039zm16.639 10.824c0-.14 1.916-5.078 4.258-10.972l4.259-10.717h5.048l4.242 10.559c2.332 5.807 4.248 10.745 4.256 10.972.011.311-.591.39-2.43.32l-2.443-.093-.85-2.24-.85-2.24-4.413-.089c-4.004-.08-4.427-.036-4.564.48-.083.313-.468 1.361-.854 2.329l-.703 1.76-2.478.093c-1.363.052-2.478-.021-2.478-.162zm12.907-10.89a159.625 159.625 0 01-1.367-3.734l-.544-1.573-1.339 3.584c-.736 1.972-1.338 3.652-1.338 3.734 0 .082 1.217.149 2.705.149h2.706zm14.61 6.475v-4.672l-2.292-3.581c-1.26-1.97-3.06-4.768-4-6.219-.939-1.45-1.707-2.71-1.707-2.8 0-.089 1.13-.162 2.51-.162 2.963 0 2.64-.271 5.637 4.747 1.191 1.994 2.28 3.506 2.42 3.36.141-.148 1.262-1.996 2.492-4.108l2.236-3.84 2.752-.092c1.513-.05 2.751-.013 2.751.083s-1.764 2.873-3.92 6.172l-3.92 5.997-.16 4.8-.16 4.799-2.319.094-2.32.094z" fill="#fee7a0"/><path d="M23.77 50.426c-.568-.247-1.296-.88-1.616-1.407-.32-.527-2.146-5.287-4.057-10.577l-3.475-9.62h-3.098v18.2l-1.359.189c-.748.104-1.792.066-2.32-.084l-.96-.272L6.8 37.85l-.085-9.004-3.107-.092c-3.07-.09-3.112-.103-3.417-.971a2.673 2.673 0 010-1.76l.31-.88 8.828-.085c6.825-.066 8.9.007 9.14.32.171.223 1.592 4.194 3.156 8.826 1.564 4.631 2.91 8.231 2.99 8 .08-.233 2.175-6.756 4.656-14.497 4.206-13.125 4.567-14.094 5.351-14.37 1.042-.366 2.716.255 2.987 1.109.104.326-.54 2.883-1.429 5.682-.89 2.798-1.617 5.18-1.617 5.292 0 .111 2.864.203 6.365.203 6.931 0 6.76-.048 6.749 1.866-.01 1.535-.25 1.627-4.488 1.723l-3.987.09v5.76l3.84.16 3.84.16v3.2l-3.84.16-3.84.16-.09 4.147c-.061 2.825-.214 4.225-.48 4.394-.66.42-3.64.294-4.026-.17-.238-.287-.382-3.722-.439-10.516l-.084-10.09-2.813 8.765c-2.626 8.185-2.78 8.812-2.32 9.468 1.171 1.671.134 4.689-1.903 5.54-1.355.566-1.95.563-3.277-.014zm2.413-3.45c.128-.661-.796-1.107-1.283-.62-.488.488-.042 1.412.619 1.285a.907.907 0 00.664-.665zm27.471.511c-.117-.117-.213-5.012-.213-10.879V25.943h6.35c6.022 0 6.42.038 7.75.741 1.94 1.026 2.876 2.885 2.898 5.753.02 2.553-.634 4.085-2.312 5.422-1.311 1.044-3.661 1.506-7.727 1.516l-2.48.007V47.7h-2.026c-1.114 0-2.122-.096-2.24-.214zM71.04 36.822v-10.88h4.8v18.24h10.878V47.7H71.039zm16.78 10.333c.12-.316 2.046-5.221 4.279-10.901l4.059-10.327 2.56.088 2.56.088 4.22 10.559c2.322 5.807 4.23 10.667 4.24 10.799.01.132-1.049.24-2.354.24h-2.373l-.943-2.48-.944-2.48-4.318-.089-4.318-.088-.935 2.488-.936 2.489-2.509.094c-2.301.086-2.49.047-2.288-.48zm13.536-8.813c-.083-.22-.697-1.878-1.364-3.683-.668-1.806-1.29-3.208-1.381-3.117-.091.092-.77 1.75-1.508 3.683l-1.342 3.517h2.873c2.164 0 2.835-.099 2.722-.4zm13.84 4.63v-4.729l-3.377-5.27c-1.858-2.899-3.662-5.666-4.01-6.15l-.631-.88h5.428l2.475 4.193c1.967 3.335 2.544 4.098 2.814 3.724.188-.26 1.277-2.143 2.42-4.187l2.08-3.716 2.787-.007 2.787-.007-2.489 3.76a607.837 607.837 0 00-4.146 6.35l-1.658 2.593V47.7h-4.48z" fill="#fed862"/><path d="M23.77 50.426c-.568-.247-1.296-.88-1.616-1.407-.32-.527-2.146-5.287-4.057-10.577l-3.475-9.62h-3.098v18.2l-1.359.189c-.748.104-1.792.066-2.32-.084l-.96-.272L6.8 37.85l-.085-9.004-3.107-.092c-3.07-.09-3.112-.103-3.417-.971a2.673 2.673 0 010-1.76l.31-.88 8.828-.085c6.825-.066 8.9.007 9.14.32.171.223 1.592 4.194 3.156 8.826 1.564 4.631 2.91 8.231 2.99 8 .08-.233 2.175-6.756 4.656-14.497 4.206-13.125 4.567-14.094 5.351-14.37 1.042-.366 2.716.255 2.987 1.109.104.326-.54 2.883-1.429 5.682-.89 2.798-1.617 5.18-1.617 5.292 0 .111 2.864.203 6.365.203 6.931 0 6.76-.048 6.749 1.866-.01 1.535-.25 1.627-4.488 1.723l-3.987.09v5.76l3.84.16 3.84.16v3.2l-3.84.16-3.84.16-.09 4.147c-.061 2.825-.214 4.225-.48 4.394-.66.42-3.64.294-4.026-.17-.238-.287-.382-3.722-.439-10.516l-.084-10.09-2.813 8.765c-2.626 8.185-2.78 8.812-2.32 9.468 1.171 1.671.134 4.689-1.903 5.54-1.355.566-1.95.563-3.277-.014zm2.413-3.45c.128-.661-.796-1.107-1.283-.62-.488.488-.042 1.412.619 1.285a.907.907 0 00.664-.665zm27.578-10.314v-10.72l5.68.003c6.134.001 7.545.23 9.006 1.459 2.152 1.81 2.625 6.447.92 9.022-1.316 1.99-2.984 2.635-6.828 2.64-4.958.007-4.618-.313-4.618 4.352v3.963h-4.16zm17.278 0v-10.72h4.47l.085 9.04.085 9.04 5.52.087 5.519.087v3.185H71.039zm16.962 10.493c.002-.14 1.857-4.934 4.123-10.653l4.119-10.4h4.944l4.246 10.653 4.246 10.651-2.406-.092-2.407-.093-.815-2.328-.816-2.329-4.462.089-4.463.088-.85 2.24-.85 2.24-2.306.094c-1.268.052-2.305-.02-2.303-.16zm13.436-8.48c0-.75-2.694-7.606-2.897-7.371-.199.231-2.863 7.31-2.863 7.609 0 .082 1.296.149 2.88.149 2.039 0 2.88-.113 2.88-.387zm13.758 4.04v-4.667l-3.504-5.406c-4.872-7.514-4.665-6.7-1.705-6.7h2.493l2.513 4.19c1.382 2.304 2.632 4.067 2.778 3.92.146-.149 1.223-1.926 2.393-3.95 1.17-2.023 2.237-3.794 2.37-3.934.133-.14 1.35-.211 2.703-.16l2.46.095-4.01 6.16-4.011 6.161v8.957h-4.48z" fill="#fec004"/><path d="M23.77 50.426c-.568-.247-1.296-.88-1.616-1.407-.32-.527-2.146-5.287-4.057-10.577l-3.475-9.62h-3.098v18.2l-1.359.189c-.748.104-1.792.066-2.32-.084l-.96-.272L6.8 37.85l-.085-9.004-3.107-.092c-3.07-.09-3.112-.103-3.417-.971a2.673 2.673 0 010-1.76l.31-.88 8.828-.085c6.825-.066 8.9.007 9.14.32.171.223 1.592 4.194 3.156 8.826 1.564 4.631 2.91 8.231 2.99 8 .08-.233 2.175-6.756 4.656-14.497 4.206-13.125 4.567-14.094 5.351-14.37 1.042-.366 2.716.255 2.987 1.109.104.326-.54 2.883-1.429 5.682-.89 2.798-1.617 5.18-1.617 5.292 0 .111 2.864.203 6.365.203 6.931 0 6.76-.048 6.749 1.866-.01 1.535-.25 1.627-4.488 1.723l-3.987.09v5.76l3.84.16 3.84.16v3.2l-3.84.16-3.84.16-.09 4.147c-.061 2.825-.214 4.225-.48 4.394-.66.42-3.64.294-4.026-.17-.238-.287-.382-3.722-.439-10.516l-.084-10.09-2.813 8.765c-2.626 8.185-2.78 8.812-2.32 9.468 1.171 1.671.134 4.689-1.903 5.54-1.355.566-1.95.563-3.277-.014zm2.413-3.45c.128-.661-.796-1.107-1.283-.62-.488.488-.042 1.412.619 1.285a.907.907 0 00.664-.665zM58.88 32.67c0-1.618.118-2.893.263-2.834 1.917.78 5.817 2.688 5.817 2.847 0 .165-3.685 1.96-5.68 2.766-.302.122-.4-.554-.4-2.78z" fill="#e12d2d"/><path d="M23.77 50.426c-.568-.247-1.296-.88-1.616-1.407-.32-.527-2.146-5.287-4.057-10.577l-3.475-9.62h-3.098v18.2l-1.359.189c-.748.104-1.792.066-2.32-.084l-.96-.272L6.8 37.85l-.085-9.004-3.107-.092c-3.07-.09-3.112-.103-3.417-.971a2.673 2.673 0 010-1.76l.31-.88 8.828-.085c6.825-.066 8.9.007 9.14.32.171.223 1.592 4.194 3.156 8.826 1.564 4.631 2.91 8.231 2.99 8 .08-.233 2.175-6.756 4.656-14.497 4.206-13.125 4.567-14.094 5.351-14.37 1.042-.366 2.716.255 2.987 1.109.104.326-.54 2.883-1.429 5.682-.89 2.798-1.617 5.18-1.617 5.292 0 .111 2.864.203 6.365.203 6.931 0 6.76-.048 6.749 1.866-.01 1.535-.25 1.627-4.488 1.723l-3.987.09v5.76l3.84.16 3.84.16v3.2l-3.84.16-3.84.16-.09 4.147c-.061 2.825-.214 4.225-.48 4.394-.66.42-3.64.294-4.026-.17-.238-.287-.382-3.722-.439-10.516l-.084-10.09-2.813 8.765c-2.626 8.185-2.78 8.812-2.32 9.468 1.171 1.671.134 4.689-1.903 5.54-1.355.566-1.95.563-3.277-.014zm3.928-1.27c.922-.923 1.084-3.126.31-4.23-.423-.605-.409-.866.137-2.45l.61-1.774-.932-.205c-1.567-.344-1.518-.89.06-.67 1.19.166 1.292.14.68-.174-.968-.497-.915-.973.08-.723.465.117.8.063.8-.128 0-.181-.43-.424-.956-.54-.526-.115-1.051-.363-1.168-.551-.218-.354.797-.233 1.884.224.325.136.56.096.56-.098 0-.182-.288-.424-.64-.535-.93-.296-.786-.85.16-.612 1.125.283 1-.152-.16-.556-.528-.184-.96-.474-.96-.645 0-.277.568-.187 1.84.291.22.083.4-.01.4-.204 0-.195-.207-.354-.461-.354s-.563-.165-.687-.366c-.157-.253.036-.317.62-.205 1.177.225 1.071-.29-.112-.549-.528-.116-.96-.343-.96-.505 0-.378.393-.373 1.42.017.563.214.82.205.82-.03 0-.188-.288-.417-.64-.51-.352-.091-.64-.296-.64-.455 0-.16.36-.199.8-.088.465.116.8.063.8-.129 0-.18-.432-.424-.96-.54-.528-.116-.96-.343-.96-.505 0-.378.393-.373 1.42.017.45.172.82.187.82.035 0-.153-.216-.361-.48-.462-.264-.102-.48-.338-.48-.526 0-.238.187-.241.62-.009.377.202.694.215.805.034.102-.164-.321-.482-.94-.705-.619-.224-1.125-.538-1.125-.697 0-.16.23-.202.51-.094 1.236.474 2.05.564 2.05.227 0-.195-.288-.355-.64-.355-.352 0-.64-.16-.64-.354 0-.219.307-.278.8-.154 1.131.284.997-.32-.16-.723-.528-.184-.96-.48-.96-.655 0-.209.339-.202.976.02.537.187 1.07.246 1.186.131.116-.115-.108-.293-.496-.394-.388-.102-.706-.328-.706-.502 0-.179.35-.23.8-.117 1.152.29.986-.24-.219-.695-1.29-.488-.952-.908.363-.45.536.187.976.214.976.059s-.288-.373-.64-.485c-.931-.296-.786-.849.16-.611.465.116.8.062.8-.129 0-.181-.432-.424-.96-.54-.528-.116-.96-.343-.96-.505 0-.378.393-.373 1.419.017.451.172.82.187.82.034 0-.152-.215-.36-.48-.462-.263-.1-.48-.337-.48-.525 0-.241.188-.241.64.001.458.245.64.243.64-.005 0-.192-.431-.499-.96-.683-.527-.184-.96-.474-.96-.645 0-.277.568-.187 1.84.291.22.083.4-.009.4-.204 0-.194-.215-.354-.48-.354-.263 0-.48-.16-.48-.357 0-.2.283-.284.64-.19 1.044.273 1.044-.321 0-.685-.527-.184-.96-.49-.96-.682 0-.245.184-.25.62-.017.34.182.88.322 1.2.31.485-.018.462-.08-.14-.37-.936-.45-.93-.953.01-.718.636.16.774.015 1.08-1.13.414-1.551-.03-2.24-1.446-2.24-.86 0-.905.11-3.54 8.56a1776.985 1776.985 0 01-4.693 14.803c-1.924 5.936-2.072 6.262-3.002 6.613-1.964.742-2.32 4.14-.564 5.371 1.124.787 3.321.634 4.25-.296zM58.88 32.68v-2.862l1.797.794a75.69 75.69 0 013.06 1.44l1.265.645-2.922 1.422c-1.608.783-2.985 1.423-3.061 1.423-.076 0-.139-1.288-.139-2.862z" fill="#616161"/><path d="M23.305 50.03c-.472-.292-1.014-.828-1.204-1.19-.19-.363-1.906-4.979-3.814-10.258l-3.467-9.6-1.643-.096-1.642-.097-.085 9.056-.085 9.056-1.887.097c-1.037.054-2.018-.034-2.179-.195-.164-.165-.28-4.167-.264-9.126l.029-8.832-3.29-.091-3.288-.091v-3.2l9.01-.085 9.012-.085 2.854 8.564c1.57 4.71 2.965 8.564 3.1 8.564.135 0 2.283-6.336 4.773-14.081 2.49-7.745 4.644-14.26 4.787-14.479.314-.482 1.951-.521 2.802-.066.92.493.778 1.53-.942 6.868l-1.547 4.8 6.433.16 6.434.16v3.2l-4.08.089-4.08.09v6.06h3.806c4.126 0 4.194.03 4.194 1.882 0 1.462-.47 1.638-4.375 1.638h-3.606l-.09 4.24-.089 4.239-2.16.094-2.16.095V36.612c0-6.386-.117-10.673-.286-10.493-.158.167-1.538 4.226-3.068 9.02l-2.78 8.717.541 1.416c.672 1.758.275 3.28-1.172 4.498-1.148.966-3.166 1.083-4.492.26zm4.393-.875c.922-.922 1.084-3.125.31-4.229-.423-.605-.409-.866.137-2.45l.61-1.774-.932-.205c-1.567-.344-1.518-.89.06-.67 1.19.166 1.292.14.68-.174-.968-.497-.915-.973.08-.723.465.117.8.063.8-.128 0-.181-.43-.424-.956-.54-.526-.115-1.051-.363-1.168-.551-.218-.354.797-.233 1.884.224.325.136.56.096.56-.098 0-.182-.288-.424-.64-.535-.93-.296-.786-.85.16-.612 1.125.283 1-.152-.16-.556-.528-.184-.96-.474-.96-.645 0-.277.568-.187 1.84.291.22.083.4-.01.4-.204 0-.195-.207-.354-.461-.354s-.563-.165-.687-.366c-.157-.253.036-.317.62-.205 1.177.225 1.071-.29-.112-.549-.528-.116-.96-.343-.96-.505 0-.378.393-.373 1.42.017.563.214.82.205.82-.03 0-.188-.288-.417-.64-.51-.352-.091-.64-.296-.64-.455 0-.16.36-.199.8-.088.465.116.8.063.8-.129 0-.18-.432-.424-.96-.54-.528-.116-.96-.343-.96-.505 0-.378.393-.373 1.42.017.45.172.82.187.82.035 0-.153-.216-.361-.48-.462-.264-.102-.48-.338-.48-.526 0-.238.187-.241.62-.009.377.202.694.215.805.034.102-.164-.321-.482-.94-.705-.619-.224-1.125-.538-1.125-.697 0-.16.23-.202.51-.094 1.236.474 2.05.564 2.05.227 0-.195-.288-.355-.64-.355-.352 0-.64-.16-.64-.354 0-.219.307-.278.8-.154 1.131.284.997-.32-.16-.723-.528-.184-.96-.48-.96-.655 0-.209.339-.202.976.02.537.187 1.07.246 1.186.131.116-.115-.108-.293-.496-.394-.388-.102-.706-.328-.706-.502 0-.179.35-.23.8-.117 1.152.29.986-.24-.219-.695-1.29-.488-.952-.908.363-.45.536.187.976.214.976.059s-.288-.373-.64-.485c-.931-.296-.786-.849.16-.611.465.116.8.062.8-.129 0-.181-.432-.424-.96-.54-.528-.116-.96-.343-.96-.505 0-.378.393-.373 1.419.017.451.172.82.187.82.034 0-.152-.215-.36-.48-.462-.263-.1-.48-.337-.48-.525 0-.241.188-.241.64.001.458.245.64.243.64-.005 0-.192-.431-.499-.96-.683-.527-.184-.96-.474-.96-.645 0-.277.568-.187 1.84.291.22.083.4-.009.4-.204 0-.194-.215-.354-.48-.354-.263 0-.48-.16-.48-.357 0-.2.283-.284.64-.19 1.044.273 1.044-.321 0-.685-.527-.184-.96-.49-.96-.682 0-.245.184-.25.62-.017.34.182.88.322 1.2.31.485-.018.462-.08-.14-.37-.936-.45-.93-.953.01-.718.636.16.774.015 1.08-1.13.414-1.551-.03-2.24-1.446-2.24-.86 0-.905.11-3.54 8.56a1776.985 1776.985 0 01-4.693 14.803c-1.924 5.936-2.072 6.262-3.002 6.613-1.964.742-2.32 4.14-.564 5.371 1.124.787 3.321.634 4.25-.296zM58.88 32.68v-2.862l1.797.794a75.69 75.69 0 013.06 1.44l1.265.645-2.922 1.422c-1.608.783-2.985 1.423-3.061 1.423-.076 0-.139-1.288-.139-2.862z" fill="#a52125"/><path d="M23.305 50.03c-.472-.292-1.014-.828-1.204-1.19-.19-.363-1.906-4.979-3.814-10.258l-3.467-9.6-1.643-.096-1.642-.097-.085 9.056-.085 9.056-1.887.097c-1.037.054-2.018-.034-2.179-.195-.164-.165-.28-4.167-.264-9.126l.029-8.832-3.29-.091-3.288-.091v-3.2l9.01-.085 9.012-.085 2.854 8.564c1.57 4.71 2.965 8.564 3.1 8.564.135 0 2.283-6.336 4.773-14.081 2.49-7.745 4.644-14.26 4.787-14.479.314-.482 1.951-.521 2.802-.066.92.493.778 1.53-.942 6.868l-1.547 4.8 6.433.16 6.434.16v3.2l-4.08.089-4.08.09v6.06h3.806c4.126 0 4.194.03 4.194 1.882 0 1.462-.47 1.638-4.375 1.638h-3.606l-.09 4.24-.089 4.239-2.16.094-2.16.095V36.612c0-6.386-.117-10.673-.286-10.493-.158.167-1.538 4.226-3.068 9.02l-2.78 8.717.541 1.416c.672 1.758.275 3.28-1.172 4.498-1.148.966-3.166 1.083-4.492.26zm4.41-.857c1.234-1.234 1.45-2.734.574-3.984-.483-.689-.45-.96.523-4.311.571-1.967 1.305-4.26 1.63-5.096.325-.836.504-1.52.397-1.52-.107 0-.015-.216.204-.48.22-.264.291-.48.16-.48-.131 0-.092-.18.087-.4.247-.303 2.092-5.75 2.493-7.36.033-.131.096-.311.14-.4.044-.087.1-.267.125-.4.024-.131.13-.383.235-.56.105-.175.816-2.317 1.581-4.758l1.391-4.439-.741-.6c-.857-.694-1.737-.775-2.184-.201-.172.22-.978 2.56-1.793 5.2-4.325 14.018-7.63 24.012-7.98 24.129-.216.072-.861.597-1.433 1.167-1.464 1.46-1.447 2.998.048 4.493.845.845 1.352 1.088 2.272 1.088.92 0 1.426-.243 2.271-1.088z" fill="#020202"/></svg>