<svg xmlns="http://www.w3.org/2000/svg" width="128" height="64" xmlns:xlink="http://www.w3.org/1999/xlink"><defs><linearGradient id="c"><stop stop-color="#350c47" offset="0"/><stop stop-color="#722693" offset="1"/></linearGradient><linearGradient id="b"><stop stop-color="#722693" offset="0"/><stop stop-color="#350c47" offset="1"/></linearGradient><linearGradient id="a"><stop stop-color="#a781b4" offset="0"/><stop stop-color="#a781b4" stop-opacity="0" offset="1"/></linearGradient><linearGradient xlink:href="#a" id="f" x1="179.132" y1="324.093" x2="220.417" y2="324.093" gradientUnits="userSpaceOnUse"/><linearGradient xlink:href="#b" id="d" x1="209.621" y1="346.791" x2="189.199" y2="360.477" gradientUnits="userSpaceOnUse"/><linearGradient xlink:href="#c" id="e" x1="168.701" y1="324.085" x2="220.282" y2="324.085" gradientUnits="userSpaceOnUse"/></defs><path fill="#a781b4" d="M88.88 38.45h-.415c-2.872 11.31-13.15 19.7-25.357 19.7-12.204 0-22.484-8.392-25.356-19.703H32.9c7.836 13.807 18.224 20.64 29.448 21.01 14.85 0 21.05-7.944 30.966-21.01H88.88"/><path fill="url(#d)" d="M216.742 346.34h-.357c-2.48 9.774-11.35 17.026-21.885 17.026-10.534 0-19.407-7.252-21.885-17.027h-4.188a26.54 26.54 0 0 0 5.53 11.43l3.668-.26-.388 3.58a26.525 26.525 0 0 0 17.26 6.344c12.818 0 23.52-9.046 26.073-21.1h-3.828" transform="translate(-167.78 -372.655) scale(1.187)"/><path fill="#a781b4" d="M38.27 23.84C41.6 13.32 51.496 5.667 63.156 5.667c11.66 0 21.557 7.65 24.884 18.17h4.9C89.48 10.69 77.457.99 63.15.99c-14.425 0-26.376 9.673-29.8 22.85h4.92"/><path fill="url(#e)" d="M172.958 334.03c2.88-9.156 11.448-15.815 21.542-15.815 10.093 0 18.66 6.66 21.54 15.815h4.242c-2.992-11.445-13.4-19.89-25.785-19.89-12.487 0-22.832 8.42-25.796 19.89h4.26" transform="translate(-167.78 -372.655) scale(1.187)"/><path fill="#4c1862" d="M41.185 41.457v-.017c0-1.644 1.24-2.99 3.013-2.99 1.09 0 1.743.364 2.28.892l-.81.934c-.446-.404-.9-.652-1.477-.652-.97 0-1.67.81-1.67 1.8v.016c0 .99.687 1.816 1.678 1.816.66 0 1.066-.264 1.52-.676l.81.817c-.596.635-1.257 1.032-2.37 1.032-1.7 0-2.965-1.32-2.965-2.98m6.648-2.906h1.27v2.287h2.347v-2.28h1.275v5.78h-1.28v-2.32H49.11v2.32h-1.27v-5.78m9.853 3.36l-.766-1.873-.767 1.874h1.535zm-1.336-3.402h1.174l2.477 5.823h-1.33l-.528-1.29h-2.444l-.53 1.298H53.88l2.477-5.822m4.672.04h1.17l2.71 3.56v-3.56h1.255v5.78h-1.08l-2.8-3.675v3.676h-1.25v-5.78m6.918 0h1.172l2.71 3.56v-3.56h1.252v5.78H72l-2.8-3.675v3.676h-1.256v-5.78m6.912 0h4.36v1.13H76.12v1.175h2.725v1.13H76.12v1.21h3.137v1.13h-4.4v-5.78m6.06 0h1.272v4.624h2.88v1.158H80.91v-5.78"/><path fill="#360749" d="M26.444 31.832c0 .37-.05.693-.138.97-.276.85-.952 1.258-1.874 1.258-.584 0-1.067-.176-1.414-.532-.37-.382-.58-.968-.58-1.774v-6.018h-3.033v6.08c0 .99.166 1.823.476 2.507.71 1.55 2.15 2.335 4.11 2.432h.843c2.7-.132 4.474-1.555 4.635-4.558.01-.15.015-.302.015-.46v-6H26.45v6.095m11.53-.845v.474l-.34-.43-4.118-5.29h-2.8v10.83h2.97v-5.94l.65.835 3.99 5.106h2.614V25.74h-2.97v5.25m4.33-.418v5.994h3v-10.83h-3v4.835m10.452-.66l-.967 2.68-2.46-6.853h-3.34l4.374 10.907h2.785l4.392-10.906h-3.28l-1.507 4.176m8.56 2.384h5.196V29.93h-5.196v-1.655h5.737v-2.537h-8.71v10.828h8.788v-2.552h-5.81v-1.718m11.977-1.362H71.3V28.32h1.98c.99 0 1.623.433 1.623 1.3v.03c0 .192-.036.364-.104.518-.22.48-.75.766-1.51.766zm4.51-.57c.065-.285.1-.587.1-.915v-.04c0-1.066-.324-1.885-.96-2.52-.726-.727-1.87-1.16-3.526-1.16H68.3v10.83h3v-3.28h1.33l2.18 3.28h3.45l-2.583-3.775c1.083-.46 1.864-1.26 2.13-2.428m9.847 2.83c0-.882-.294-1.532-.83-2.03-.694-.646-1.797-1.036-3.193-1.34-1.51-.34-1.88-.558-1.88-1.054v-.033c0-.4.355-.693 1.082-.693.96 0 2.04.357 3.033 1.068l1.5-2.12c-1.18-.944-2.615-1.438-4.457-1.438-2.6 0-4.19 1.454-4.19 3.465v.03c0 .557.11 1.014.315 1.395.61 1.137 2.04 1.6 3.768 1.995 1.486.356 1.84.587 1.84 1.05v.033c0 .463-.43.74-1.252.74-1.25 0-2.425-.448-3.51-1.3l-1.67 2c1.348 1.19 3.158 1.795 5.077 1.795 2.63 0 4.378-1.316 4.378-3.528v-.03m4.487-.916l.193-.48 1.032-2.583 1.13 2.89.07.18h-2.43zm2.694-6.62h-2.9l-2.435 5.78-2.16 5.125h3.14l.773-1.95h4.192l.78 1.95h3.22l-1.68-3.97-2.93-6.935m10.65 8.276H103.2v-8.2h-3.002v10.83h8.247v-2.63h-2.952"/><path fill="url(#f)" fill-rule="evenodd" d="M179.132 318.974s2.485.28 4.4 2.087c3.176-1.45 10.825-5.45 21.91.01 8.507 4.785 10.615 12.967 10.615 12.967h4.36s-2.782-11.99-14.994-17.76c0 0-13.495-6.234-26.29 2.705z" transform="translate(-167.78 -372.655) scale(1.187)"/></svg>