<svg xmlns="http://www.w3.org/2000/svg" width="128" height="64"><path d="M55.345 63.873c-1.95-.18-3.99-.525-5.565-.943-10.092-2.681-16.633-10.098-18.112-20.537-.198-1.395-.272-2.654-.27-4.581.003-2.358.126-3.775.498-5.708 1.361-7.084 5.372-14.23 11.278-20.092C49.77 5.464 58.003 1.222 65.957.27c4.58-.547 10.021-.075 14.171 1.23 2.754.866 5.595 2.359 7.695 4.043 4.654 3.734 7.543 9.29 8.477 16.305.788 5.913.046 11.152-2.375 16.792-1.768 4.115-4.272 7.913-7.744 11.744-1.272 1.403-3.454 3.436-5.115 4.767-5.992 4.799-12.55 7.748-19.209 8.639-1.305.174-5.003.221-6.512.083zm4.368-5.082c5.05-.426 10.905-2.825 16.03-6.569 4.424-3.231 8.434-7.543 11.096-11.932 2.407-3.969 3.752-7.63 4.268-11.615.177-1.367.16-4.773-.032-6.51-.558-5.039-2.046-8.914-4.696-12.224-.566-.707-1.91-2.033-2.683-2.646-2.288-1.813-4.762-3.018-7.968-3.881-3.114-.838-7.678-1.185-10.742-.817-11.165 1.344-22.282 9.481-27.623 20.221a30.55 30.55 0 00-1.786 4.304c-.774 2.313-1.294 4.79-1.487 7.08-.114 1.358-.13 4.076-.031 5.292.291 3.578 1.46 7.015 3.346 9.841.776 1.164 1.412 1.935 2.439 2.96 1.653 1.651 3.3 2.832 5.45 3.907 4.12 2.062 9.408 3.01 14.419 2.589zM49.16 49.365c.021-.169.184-1.865.362-3.77.177-1.903.366-3.912.42-4.464.052-.552.184-1.95.29-3.106l.323-3.462.293-3.17c.091-.997.236-2.57.323-3.495l.323-3.494c.323-3.522.43-4.673.552-5.953.067-.712.142-1.55.167-1.863.024-.312.07-.584.102-.604.089-.054 3.372-.995 3.476-.995.073 0 .082.096.05.501-.022.276-.058.75-.079 1.052l-.038.55.198-.35c1.01-1.777 2.834-2.954 5.03-3.247 1.718-.228 2.726.401 3.169 1.979.097.348.115 1.163.167 7.797.07 8.815.06 9.439-.164 10.289-.469 1.788-1.39 3.104-2.619 3.743-1.13.587-1.928.757-3.33.707-.815-.028-.992-.056-1.536-.239-.677-.228-1.007-.4-1.42-.746-.151-.126-.296-.23-.322-.23-.026 0-.054.168-.061.373-.008.204-.128 2.09-.267 4.19-.14 2.1-.302 4.749-.361 5.888-.06 1.139-.113 2.076-.117 2.082-.011.014-4.674.345-4.85.345-.106 0-.115-.038-.081-.308zm8.676-14.657c.68-.349 1.112-1.044 1.295-2.086.1-.575.13-1.248.386-9.111.157-4.815.134-5.602-.18-6.158-.23-.406-.439-.52-.94-.518-.942.005-1.755.678-2.179 1.805-.372.987-.443 1.796-.776 8.805a1255.01 1255.01 0 01-.19 3.85c-.108 2.106-.078 2.4.301 2.96.427.63 1.515.846 2.283.453zm-18.298 5.574c-.8-.103-1.367-.525-1.72-1.279-.16-.342-.17-.42-.167-1.302.004-1.181.082-1.692.837-5.468a738.793 738.793 0 002.01-10.353c.279-1.495.51-2.725.517-2.735.023-.039 3.152-.926 3.177-.901.015.015-.09.722-.231 1.573-.89 5.322-2.28 14.346-2.368 15.36-.038.436-.026.516.114.776.218.407.493.553 1.023.544 1.326-.023 2.123-1.074 2.454-3.235.188-1.232 1.947-13.854 2.14-15.361.044-.339.099-.637.122-.664.043-.048 3.512-1.092 3.539-1.065.037.038-.679 6.874-1.402 13.398a597.43 597.43 0 00-.579 5.565 883.348 883.348 0 01-.359 3.578l-.037.332-.304.039c-.246.031-1.864.187-3.361.324-.176.016-.275-.002-.275-.048 0-.04.044-.523.096-1.072.053-.549.088-1.007.077-1.017-.01-.011-.165.19-.344.448-.77 1.108-1.349 1.653-2.2 2.075-.588.292-.989.417-1.576.493-.551.072-.583.072-1.183-.005zm26.395-4.733a269.84 269.84 0 01-.074-3.316c-.04-2.514-.13-6.537-.226-10.256-.077-2.988-.2-9.786-.177-9.809.028-.028 4.15-1.062 4.235-1.062.059 0 .085.225.098.853l.018.852.282-.373c.983-1.303 2.62-2.47 4.162-2.97.741-.24 1.196-.3 2.289-.302 1.312-.002 1.873.165 2.547.756a3.46 3.46 0 011.01 1.602c.09.296.314 1.568.52 2.947.198 1.335.637 4.261.975 6.503a12245.328 12245.328 0 011.513 10.062c.14.944.313 2.092.384 2.553.072.46.121.846.11.857-.017.018-2.624.336-4.668.57a75.02 75.02 0 00-1.326.163c-.23.032-.438.037-.46.012-.023-.025-.103-.613-.178-1.307a17152.068 17152.068 0 00-1.886-17.342c-.109-1.015-.229-2.005-.267-2.2-.188-.97-.603-1.375-1.53-1.49-1.071-.134-2.21.536-2.615 1.538-.14.349-.15.455-.145 1.699.002.73.069 2.33.147 3.559.18 2.814.307 4.886.429 6.988.052.908.184 3.135.292 4.95.109 1.815.204 3.533.212 3.816l.015.516-.356.052c-.196.03-1.404.183-2.685.342-1.281.159-2.392.303-2.468.32-.137.033-.14.016-.177-1.083z" stroke-width=".065"/></svg>