<?xml version="1.0" encoding="UTF-8" standalone="no"?>

<svg xmlns:svg="http://www.w3.org/2000/svg" xmlns="http://www.w3.org/2000/svg" version="1.1" width="128" height="64" xmlns:xlink="http://www.w3.org/1999/xlink">
	<g stroke="null">
		<g fill="#71cdf4" id="g8">
			<path fill="#71cdf4" d="m63.76154,57.34887c0,0 0,6.03867 0,6.03867c0,0 -2.54282,0 -2.54282,0c0,0 0,-5.08551 0,-5.08551c0,-1.27127 -0.6357,-1.90632 -1.74819,-1.90632c-0.95356,0 -1.43034,0.63504 -1.43034,1.90632c0,0 0,5.08551 0,5.08551c0,0 -2.70174,0 -2.70174,0c0,0 0,-9.21773 0,-9.21773c0,0 2.70174,0 2.70174,0c0,0 0,1.27142 0,1.27142c0.63571,-0.95316 1.43034,-1.43047 2.54282,-1.43047c2.06604,0 3.17852,1.11354 3.17852,3.33811" id="path10"/>
		</g>
		<path fill="#71cdf4" id="path14" d="m38.49227,4.90242c0.47678,-1.11222 1.43034,-2.22457 2.54282,-3.33679c0,0 0.95356,-0.7941 0.95356,-0.7941c0,0 -12.39624,0 -12.39624,0c0,0 0,22.09035 0,22.09035c0,1.58953 0,2.8608 -0.15893,3.65491c-0.31785,2.86094 -1.27141,4.76858 -3.0196,5.72187c-0.79463,0.47585 -1.90712,0.63491 -3.17853,0.63491c-1.27141,0 -2.38389,-0.3168 -3.17852,-1.11222c-1.43034,-1.11222 -2.22497,-3.01999 -2.38389,-5.72174c0,0 -0.15893,-25.26808 -0.15893,-25.26808c0,0 -12.71396,0 -12.71396,0c0,0 0,22.56752 0,22.56752c0,3.33692 0.15919,5.87961 0.47731,7.46914c0.47598,2.22457 1.27128,4.29128 2.54269,6.19772c1.11235,1.74859 2.70175,3.33812 4.76726,4.45033c2.06604,1.11235 4.29101,1.74858 6.51597,2.06551c2.22497,0.31811 4.60886,0.31811 7.15168,0.15906c2.22497,-0.15906 4.44994,-0.63504 6.51598,-1.43047c2.06604,-0.7941 3.6553,-2.06538 5.08564,-3.6549c1.43034,-1.43047 2.38389,-3.02 3.17852,-5.08551c0,0 0.15893,-0.47718 0.15893,-0.47718c1.90712,1.74859 3.6553,3.01987 5.08564,3.81397c2.22497,1.11235 4.29101,1.43047 6.19812,1.11235c0.95356,0 1.90711,-0.47599 2.86067,-1.27141c0.6357,-0.7941 1.11248,-1.5882 1.43033,-2.70174c0.15893,-0.95316 0,-1.90645 -0.47678,-2.70055c-0.47678,-0.79543 -0.95356,-1.43047 -1.74819,-1.90765c-0.95356,-0.63637 -2.06604,-1.11222 -3.49638,-1.58953c0,0 -7.15168,-2.54269 -7.15168,-2.54269c0,0 -3.0196,-1.90645 -3.0196,-1.90645c-1.43034,-1.2726 -2.70175,-3.01986 -3.49638,-5.24576c-0.79463,-2.06551 -1.11248,-4.29008 -0.95356,-6.51584c0.15893,-2.70188 0.95356,-4.92645 2.06604,-6.67503"/>
		<g fill="#71cdf4" fill-rule="evenodd" id="g16">
			<path fill="#71cdf4" d="m73.93282,59.73249c0,0 -6.19812,0 -6.19812,0c0.15893,1.27141 0.95356,1.90765 2.06604,1.90765c0.79463,0 1.43034,-0.31812 2.22497,-0.95449c0,0 1.58926,1.27141 1.58926,1.27141c-0.79463,1.11354 -2.06604,1.58952 -3.81423,1.58952c-3.17853,0 -4.76778,-1.58952 -4.76778,-4.76725c0,-3.17906 1.58926,-4.76858 4.60886,-4.76858c3.01959,0 4.44994,1.74858 4.44994,5.0867c0,0 -0.15894,0.63504 -0.15894,0.63504zm-6.35705,-1.58952c0,0 3.97316,0 3.97316,0c-0.15893,-1.43047 -0.79463,-2.06538 -1.90711,-2.06538c-1.11249,0 -1.90712,0.63491 -2.06605,2.06538z" id="path18"/>
		</g>
		<g fill="#71cdf4" id="g20">
			<path fill="#71cdf4" d="m75.99886,51.78618c0,0 2.54282,0 2.54282,0c0,0 0,2.38363 0,2.38363c0,0 2.22497,0 2.22497,0c0,0 0,2.22589 0,2.22589c0,0 -2.22497,0 -2.22497,0c0,0 0,3.97316 0,3.97316c0,0.47598 0.31786,0.7941 0.95356,0.7941c0,0 1.27141,-0.15906 1.27141,-0.15906c0,0 0,1.90765 0,1.90765c-0.6357,0.47598 -1.27141,0.63504 -2.06604,0.63504c-1.74818,0 -2.70174,-0.95316 -2.70174,-2.70175c0,0 0,-4.44914 0,-4.44914c0,0 -1.11248,0 -1.11248,0c0,0 0,-2.22589 0,-2.22589c0,0 1.11248,0 1.11248,0c0,0 0,-2.38363 0,-2.38363" id="path22"/>
		</g>
		<g fill="#71cdf4" id="g24">
			<path fill="#71cdf4" d="m90.1433,54.16981c0,0 1.74818,5.56268 1.74818,5.56268c0,0 1.43034,-5.56268 1.43034,-5.56268c0,0 2.70174,0 2.70174,0c0,0 -2.86066,9.21772 -2.86066,9.21772c0,0 -2.3839,0 -2.3839,0c0,0 -1.74818,-5.56268 -1.74818,-5.56268c0,0 -1.74818,5.56268 -1.74818,5.56268c0,0 -2.3839,0 -2.3839,0c0,0 -2.70174,-9.21772 -2.70174,-9.21772c0,0 2.54282,0 2.54282,0c0,0 1.43034,5.56268 1.43034,5.56268c0,0 1.74819,-5.56268 1.74819,-5.56268c0,0 2.22497,0 2.22497,0" id="path26"/>
		</g>
		<g fill="#71cdf4" fill-rule="evenodd" id="g28">
			<path fill="#71cdf4" d="m101.26814,63.54659c-3.33746,0 -5.08564,-1.58952 -5.08564,-4.76725c0,-3.17906 1.74818,-4.76858 5.08564,-4.76858c3.33745,0 4.92672,1.58952 4.92672,4.76858c0,3.17773 -1.58927,4.76725 -4.92672,4.76725zm2.38389,-4.76725c0,-1.74858 -0.79462,-2.54269 -2.38389,-2.54269c-1.58926,0 -2.3839,0.79411 -2.3839,2.54269c0,1.74726 0.79463,2.54269 2.3839,2.54269c1.58926,0 2.38389,-0.79543 2.38389,-2.54269z" id="path30"/>
		</g>
		<g fill="#71cdf4" id="g32">
			<path fill="#71cdf4" d="m117.00183,50.83302c0,0 0,6.6749 0,6.6749c0,0 3.01959,-3.33812 3.01959,-3.33812c0,0 3.17853,0 3.17853,0c0,0 -3.49638,3.65504 -3.49638,3.65504c0,0 3.49638,5.56268 3.49638,5.56268c0,0 -2.86066,0 -2.86066,0c0,0 -2.3839,-3.65504 -2.3839,-3.65504c0,0 -0.95356,0.95316 -0.95356,0.95316c0,0 0,2.70188 0,2.70188c0,0 -2.70175,0 -2.70175,0c0,0 0,-12.55451 0,-12.55451c0,0 2.70175,0 2.70175,0" id="path34"/>
		</g>
		<g fill="#71cdf4" id="g36">
			<path fill="#71cdf4" d="m110.00908,54.16981c0,0 0,1.90778 0,1.90778c0.6357,-1.43047 1.58926,-2.06683 3.01959,-2.06683c0,0 0,2.86094 0,2.86094c0,0 -0.15893,0 -0.15893,0c-1.90712,0 -2.86066,1.11222 -2.86066,3.17905c0,0 0,3.33679 0,3.33679c0,0 -2.54283,0 -2.54283,0c0,0 0,-9.21773 0,-9.21773c0,0 2.54283,0 2.54283,0" id="path38"/>
		</g>
		<g fill="#71cdf4" id="g40"/>
		<g fill="#71cdf4" id="g44"/>
		<g fill="#71cdf4" fill-rule="evenodd" id="g48">
			<path fill="#71cdf4" d="m88.23618,13.80321c2.70174,2.06551 3.97315,5.24457 3.6553,9.21772c-0.15893,3.97316 -1.58926,6.83396 -4.60886,8.58135c-1.11248,0.79543 -2.54282,1.11222 -4.13208,1.11222c-1.90711,0 -3.6553,-0.63504 -5.08564,-1.90632c-1.43034,-1.27141 -2.54282,-3.01999 -3.17853,-5.08551c-1.43033,-4.76858 -0.6357,-8.58254 2.70175,-11.60254c1.58926,-1.5882 3.33745,-2.38363 5.24456,-2.38363c1.90712,-0.15906 3.6553,0.63637 5.4035,2.0667zm-13.34981,-12.23758c-1.43033,0.47718 -2.86066,1.27141 -4.13208,2.06551c-2.54282,1.74859 -4.60886,4.29127 -6.19812,7.47033c-2.3839,-2.06684 -4.13208,-3.33811 -5.56242,-3.97316c-2.54282,-0.95448 -4.76778,-0.95448 -6.51597,-0.15906c-1.11248,0.47718 -1.74819,1.11222 -2.22497,1.90632c-0.6357,0.79543 -0.79463,1.90778 -0.6357,3.01999c0,0.95316 0.31785,1.90764 1.11248,2.70175c0.79463,0.63637 1.58926,1.11235 2.70175,1.43047c0,0 6.6749,2.38363 6.6749,2.38363c2.38389,0.79543 4.44994,1.90778 5.88027,3.33811c3.17853,3.01867 4.44994,6.99183 3.65531,12.23639c-0.15893,1.43047 -0.47678,2.54401 -0.95356,3.49717c0,0 -0.47678,1.11235 -0.47678,1.11235c0,0 0.47678,0.31812 0.47678,0.31812c0,0 1.11248,1.11222 1.11248,1.11222c1.58926,1.11235 3.33746,2.06551 5.08564,2.86094c3.81423,1.43046 7.46954,1.43046 11.12484,0.31812c2.06604,-0.79543 3.81422,-1.90764 5.4035,-3.49717c0,0 0,3.65503 0,3.65503c0,0 12.23731,0 12.23731,0c0,0 0,-42.27437 0,-42.27437c0,0 -12.23731,0 -12.23731,0c0,0 0,3.65636 0,3.65636c-1.58927,-1.43047 -3.33746,-2.54401 -5.08565,-3.17905c-1.58926,-0.47731 -3.17852,-0.7941 -4.92671,-0.95316c-2.38389,-0.15906 -4.44993,0.15906 -6.51598,0.95316z" id="path50"/>
		</g>
	</g>
</svg>