<svg xmlns="http://www.w3.org/2000/svg" width="128" height="64"><g stroke="null" fill="#71cdf4"><path d="M63.762 57.35v6.038H61.22v-5.086c0-1.27-.637-1.906-1.75-1.906-.953 0-1.43.635-1.43 1.906v5.086h-2.702V54.17h2.702v1.27c.636-.952 1.43-1.43 2.543-1.43 2.066 0 3.18 1.114 3.18 3.34M38.493 4.902c.476-1.112 1.43-2.224 2.542-3.336l.954-.794h-12.4v22.09c0 1.59 0 2.86-.16 3.655-.32 2.86-1.27 4.768-3.02 5.722-.8.47-1.91.63-3.18.63-1.27 0-2.39-.32-3.18-1.12-1.43-1.11-2.23-3.02-2.39-5.72L17.51.77H4.8v22.57c0 3.336.16 5.88.477 7.468.476 2.225 1.272 4.29 2.543 6.198 1.112 1.748 2.702 3.338 4.767 4.45 2.066 1.113 4.29 1.75 6.516 2.066 2.225.318 4.61.318 7.152.16 2.225-.16 4.45-.636 6.516-1.432 2.07-.794 3.66-2.065 5.09-3.655 1.43-1.43 2.39-3.02 3.18-5.085l.16-.477c1.91 1.748 3.66 3.02 5.09 3.814 2.23 1.112 4.29 1.43 6.2 1.112.95 0 1.91-.48 2.86-1.28.64-.8 1.11-1.59 1.43-2.7.16-.96 0-1.91-.472-2.7-.477-.8-.954-1.43-1.75-1.91-.953-.64-2.065-1.12-3.496-1.59l-7.15-2.54-3.02-1.91c-1.43-1.277-2.702-3.02-3.496-5.25-.793-2.065-1.11-4.29-.952-6.516.16-2.7.957-4.925 2.07-6.674"/><path d="M73.933 59.732h-6.198c.16 1.272.953 1.908 2.066 1.908.8 0 1.43-.318 2.23-.954l1.59 1.27c-.79 1.115-2.06 1.59-3.81 1.59-3.18 0-4.76-1.59-4.76-4.767 0-3.18 1.59-4.77 4.61-4.77 3.017 0 4.45 1.75 4.45 5.08l-.16.63zm-6.357-1.59h3.973c-.16-1.43-.8-2.064-1.91-2.064-1.12 0-1.91.634-2.07 2.065z" fill-rule="evenodd"/><path d="M76 51.786h2.542v2.384h2.225v2.226h-2.225v3.973c0 .47.318.79.953.79l1.272-.16v1.91c-.636.47-1.272.63-2.066.63-1.74 0-2.7-.96-2.7-2.7v-4.45h-1.11v-2.22H76v-2.39m14.143 2.38l1.748 5.56 1.44-5.56h2.7l-2.86 9.216h-2.39l-1.75-5.563-1.74 5.564H84.9l-2.703-9.218h2.543l1.43 5.56 1.748-5.56h2.225"/><path d="M101.268 63.547c-3.337 0-5.085-1.59-5.085-4.768 0-3.18 1.748-4.77 5.085-4.77 3.338 0 4.927 1.59 4.927 4.77 0 3.17-1.59 4.76-4.927 4.76zm2.384-4.768c0-1.75-.795-2.55-2.384-2.55-1.59 0-2.384.79-2.384 2.54 0 1.74.795 2.54 2.384 2.54 1.59 0 2.384-.8 2.384-2.548z" fill-rule="evenodd"/><path d="M117.002 50.833v6.675l3.02-3.338h3.178l-3.496 3.655 3.496 5.563h-2.86l-2.385-3.656-.953.954v2.702H114.3V50.833h2.702m-6.992 3.337v1.908c.635-1.43 1.588-2.067 3.02-2.067v2.87h-.16c-1.907 0-2.86 1.11-2.86 3.18v3.34h-2.544v-9.22h2.543"/><path d="M88.236 13.803c2.702 2.066 3.973 5.245 3.655 9.218-.15 3.98-1.58 6.84-4.6 8.59-1.11.8-2.54 1.12-4.13 1.12-1.9 0-3.65-.636-5.08-1.907-1.43-1.27-2.542-3.02-3.18-5.085-1.43-4.77-.633-8.582 2.704-11.602 1.59-1.585 3.34-2.38 5.246-2.38 1.906-.16 3.654.636 5.402 2.066zM74.886 1.566c-1.43.477-2.86 1.27-4.132 2.065-2.543 1.75-4.61 4.3-6.198 7.47-2.384-2.06-4.132-3.33-5.562-3.97-2.543-.95-4.768-.95-6.516-.16-1.113.48-1.748 1.12-2.225 1.91-.636.8-.795 1.91-.636 3.02 0 .96.318 1.91 1.113 2.7.794.64 1.59 1.12 2.7 1.43l6.676 2.39c2.384.8 4.45 1.91 5.88 3.34 3.18 3.02 4.45 6.99 3.656 12.24-.16 1.43-.477 2.545-.954 3.498l-.478 1.11.48.32 1.116 1.11c1.59 1.113 3.338 2.066 5.086 2.86 3.815 1.43 7.47 1.43 11.125.318 2.067-.795 3.815-1.907 5.405-3.496v3.652h12.235V1.087h-12.24v3.658c-1.59-1.43-3.338-2.544-5.086-3.18-1.59-.475-3.18-.792-4.93-.952-2.38-.16-4.45.16-6.51.954z" fill-rule="evenodd"/></g></svg>