<svg xmlns="http://www.w3.org/2000/svg" width="128" height="64" version="1.1" id="svg4138"><style id="style4132">.st1{fill:#941bc8}</style><g id="g3794" transform="matrix(.00226 0 0 .00226 .35 25.404)"><path id="path3790" d="M39700.2 6637.3v6924.1c0 204.1-191.2 400.9-400.9 400.9h-5778c-203.9 0-410.4-113.3-410.4-432.5V6640.7c0-318.6-164.7-453.1-499.2-453.1h-7592.9l226.3-6589.2h7357.6c342.5 0 508.2-153.1 508.2-465v-6654c0-375.5 161.9-614.8 613.4-614.8H39199c307.5 0 501.1 188.7 501.1 501.1v6767.9c0 285.2 78.8 464.8 503.6 464.8h5886.6v6178.7c0 203.9-113.5 410.4-432.7 410.4h-5452.5c-377.8.1-504.9 180.8-504.9 449.8z" fill="#6d15a0"/><path id="path3786" class="st1" d="M12635.1 13962.3H8031.5c-383.7 0-527.8-324.2-654.5-716.1L-83.7-7557.3c-104.6-275.1-135.1-577.1 295.3-577.1h5928c424.8-2.2 561.8 228.3 706.9 657.7l3301.8 10703.8c96.6 325.4 275.5 335.6 378.4-12.6l3339.1-10855.3c66.5-252.6 256-494.4 614.7-494.4h12470.1c307.5 0 501.1 188.7 501.1 501.1v21195.7c0 204.1-191.2 400.9-400.9 400.9h-5818.1c-203.9 0-410.4-113.3-410.4-432.5V-6868.3c0-232.7-202.7-330.7-330.4 0l-7194.1 20159.5c-122.1 334-279.4 671.1-662.7 671.1z" fill="#941bc8"/><path id="path3788" class="st1" d="M55877.9-8135.3c307.4 0 501.1 188.7 501.1 501.1v21195.7c0 204.1-191.2 400.9-400.9 400.9h-5778c-203.9 0-410.4-113.3-410.4-432.5V85.2c0-294.1-150-486.6-451.5-486.6h-3247.9V-4552c0-332.1 132.5-484.9 442.9-733.9L49545-7570.1c445.6-328.2 652.4-565.3 1081.9-565.3h5251z" fill="#941bc8"/></g></svg>