<svg xmlns="http://www.w3.org/2000/svg" width="128" height="64"><defs><clipPath id="a"><path d="M443.212 259.637h37.136v16.806h-37.136v-16.806z"/></clipPath></defs><g clip-path="url(#a)" transform="matrix(3.4 0 0 -3.4 -1511.2 946.7)" stroke="null"><path fill="#d8175e" d="M457.893 273.493l-2.927-4.772c-.087-.14-.14-.39-.118-.55l.897-6.81c.022-.16.174-.28.34-.26l3.272.43c.164.02.282.18.26.34l-1.526 11.597c-.02.166-.11.185-.19.043m-1.55.03l-4.07-.536c-.16-.02-.37-.153-.45-.295l-4.05-6.6c-.09-.144-.174-.125-.2.04l-.763 5.83c-.022.165-.174.283-.34.26l-2.99-.39c-.164-.025-.28-.177-.26-.34l1.527-11.595c.025-.165.177-.28.34-.26l2.99.394c.167.02.37.153.46.295l7.958 12.98c.088.14.024.24-.14.218m16.056 2.115l-4.01-.528c-.166-.026-.37-.16-.46-.3l-4.07-6.636c-.09-.145-.177-.125-.2.04l-.77 5.86c-.022.166-.175.284-.34.26l-2.99-.393c-.164-.02-.28-.17-.26-.34l1.527-11.59c.02-.164.17-.28.334-.26l2.96.39c.163.02.37.155.456.298l7.96 12.98c.086.14.023.24-.14.22m1.44-7.15l1.766 2.88c.087.14.176.12.197-.043l.335-2.535-2.3-.3zm4.64 7.95l-4.07-.536c-.167-.023-.37-.157-.46-.3l-7.94-12.973c-.088-.14-.024-.24.14-.22l4.01.53c.165.02.37.156.46.297l1.154 1.886 4.76.625.216-1.636c.02-.165.172-.282.34-.26l2.99.394c.16.023.28.175.26.34l-1.53 11.594c-.02.165-.174.28-.34.26"/></g></svg>