<?xml version="1.0" encoding="UTF-8" standalone="no"?>

<svg xmlns:svg="http://www.w3.org/2000/svg" xmlns="http://www.w3.org/2000/svg" version="1.1" width="128" height="64" xmlns:xlink="http://www.w3.org/1999/xlink">
	<defs>
		<clipPath clipPathUnits="userSpaceOnUse" id="clipPath11063">
			<path d="m443.21198,259.63678l37.13599,0l0,16.806l-37.13599,0l0,-16.806z"/>
		</clipPath>
	</defs>

	<g stroke="null">
		<g stroke="null" transform="matrix(3.4111576991618873,0,0,-3.4111576991618873,-1511.2024663955294,946.6904272112332) ">
			<g stroke="null"  clip-path="url(#clipPath11063)">
				<g stroke="null">
					<path fill="#d8175e" fill-rule="nonzero" d="m457.89307,273.49307l-2.927,-4.772c-0.08701,-0.142 -0.13998,-0.39301 -0.11798,-0.55801l0.897,-6.81497c0.02197,-0.16501 0.17398,-0.28201 0.34,-0.26102l3.27197,0.43201c0.164,0.021 0.28201,0.17401 0.26001,0.33899l-1.526,11.59302c-0.022,0.16501 -0.11099,0.18399 -0.198,0.04199"/>
				</g>
				<g stroke="null">
					<path fill="#d8175e" fill-rule="nonzero" d="m456.34387,273.52557l-4.069,-0.53601c-0.16501,-0.021 -0.371,-0.155 -0.45801,-0.297l-4.048,-6.60098c-0.08698,-0.142 -0.17599,-0.12302 -0.19699,0.04099l-0.76797,5.832c-0.02203,0.16501 -0.17401,0.28299 -0.33902,0.26001l-2.98999,-0.39301c-0.16501,-0.022 -0.28201,-0.17401 -0.26001,-0.34l1.526,-11.59201c0.022,-0.16599 0.17401,-0.28198 0.33899,-0.25998l2.99002,0.39301c0.16498,0.02197 0.371,0.15497 0.45801,0.297l7.95798,12.97797c0.08701,0.14102 0.02301,0.24002 -0.142,0.21802"/>
				</g>
				<g stroke="null">
					<path fill="#d8175e" fill-rule="nonzero" d="m472.40088,275.63995l-4.01199,-0.52798c-0.164,-0.02301 -0.37,-0.15601 -0.457,-0.298l-4.07101,-6.63501c-0.08701,-0.14197 -0.17599,-0.12198 -0.198,0.04102l-0.771,5.86301c-0.022,0.16501 -0.17499,0.28299 -0.34,0.25998l-2.98901,-0.39398c-0.16498,-0.021 -0.28198,-0.17401 -0.26099,-0.33899l1.52701,-11.59302c0.021,-0.16501 0.17398,-0.28101 0.33899,-0.26001l2.95901,0.39001c0.16501,0.021 0.371,0.15399 0.45801,0.297l7.95798,12.97699c0.086,0.142 0.02301,0.24103 -0.142,0.21899"/>
				</g>
				<g stroke="null">
					<path fill="#d8175e" fill-rule="nonzero" d="m473.84204,268.48947l1.76599,2.88101c0.08701,0.14099 0.17603,0.12198 0.19702,-0.04303l0.33499,-2.53497l-2.298,-0.30301zm4.63699,7.95102l-4.06799,-0.53601c-0.164,-0.022 -0.371,-0.15601 -0.45801,-0.298l-7.93997,-12.974c-0.08701,-0.14301 -0.02301,-0.24002 0.14099,-0.21899l4.009,0.52798c0.16599,0.022 0.37198,0.155 0.45898,0.29602l1.15601,1.88599l4.76199,0.62701l0.215,-1.63602c0.022,-0.16599 0.17502,-0.28299 0.34,-0.26102l2.99002,0.39401c0.164,0.022 0.28098,0.17401 0.25998,0.34l-1.52698,11.59302c-0.021,0.164 -0.17401,0.28101 -0.33902,0.26001"/>
				</g>
			</g>
		</g>
	</g>
</svg>