<svg xmlns="http://www.w3.org/2000/svg" width="128" height="64"><defs><clipPath id="a"><path d="M443.212 259.637h37.136v16.806h-37.136v-16.806z"/></clipPath></defs><g clip-path="url(#a)" transform="matrix(3.411 0 0 -3.411 -1511.202 946.69)" stroke="null"><path fill="#d8175e" d="M457.893 273.493l-2.927-4.772c-.087-.14-.14-.39-.118-.55l.897-6.815c.022-.165.174-.282.34-.26l3.272.43c.164.02.282.175.26.34l-1.526 11.593c-.02.166-.11.185-.19.043m-1.55.03l-4.07-.535c-.164-.02-.37-.154-.457-.296l-4.05-6.6c-.09-.144-.176-.125-.2.04l-.765 5.83c-.022.165-.174.283-.34.26l-2.99-.393c-.164-.022-.28-.174-.26-.34l1.527-11.592c.025-.165.177-.28.34-.26l2.99.394c.167.02.37.154.46.296l7.958 12.98c.087.14.023.24-.142.217m16.057 2.114l-4.01-.527c-.164-.026-.37-.16-.457-.3l-4.07-6.636c-.09-.145-.178-.125-.2.04l-.77 5.86c-.023.166-.176.284-.34.26l-2.99-.393c-.165-.02-.28-.173-.26-.34l1.526-11.59c.02-.167.17-.28.336-.26l2.96.39c.164.02.37.152.457.295l7.956 12.98c.088.14.025.24-.14.22m1.44-7.15l1.768 2.88c.088.14.177.12.198-.044l.336-2.534-2.3-.302zm4.64 7.95l-4.07-.537c-.165-.023-.37-.157-.46-.3l-7.94-12.973c-.086-.142-.022-.24.14-.22l4.01.53c.167.02.373.155.46.296l1.156 1.887 4.76.627.216-1.636c.022-.165.175-.282.34-.26l2.99.394c.164.023.28.175.26.34l-1.527 11.594c-.02.164-.174.28-.34.26"/></g></svg>