<svg xmlns="http://www.w3.org/2000/svg" width="128" height="64"><defs><clipPath id="a"><path d="M443.212 259.637h37.136v16.806h-37.136v-16.806z"/></clipPath></defs><g clip-path="url(#a)" transform="matrix(3.41 0 0 -3.41 -1511.202 946.69)" stroke="null"><path fill="#d8175e" d="M457.893 273.493l-2.927-4.772a.973.973 0 0 1-.118-.55l.897-6.814a.303.303 0 0 1 .34-.26l3.272.43c.164.02.282.175.26.34l-1.526 11.593c-.02.165-.11.184-.19.042m-1.55.03l-4.07-.535a.712.712 0 0 1-.456-.296l-4.05-6.6c-.09-.143-.176-.124-.2.04l-.765 5.83a.302.302 0 0 1-.34.26l-2.99-.392a.305.305 0 0 1-.26-.34l1.526-11.592a.308.308 0 0 1 .34-.26l2.99.394c.167.02.37.154.46.296l7.958 12.98c.087.14.023.24-.142.217m16.057 2.114l-4.01-.527a.75.75 0 0 1-.458-.3l-4.07-6.636c-.09-.145-.178-.125-.2.04l-.77 5.86a.302.302 0 0 1-.34.26l-2.99-.393a.303.303 0 0 1-.26-.34l1.526-11.59c.02-.166.17-.28.336-.26l2.96.39c.164.02.37.153.457.296l7.957 12.98c.088.14.025.24-.14.22m1.44-7.15l1.768 2.88c.088.14.177.12.198-.044l.336-2.534-2.3-.302zm4.64 7.95l-4.07-.537a.737.737 0 0 1-.46-.3l-7.94-12.974c-.086-.142-.022-.24.14-.22l4.01.53c.167.02.373.155.46.296l1.156 1.887 4.76.626.216-1.636a.304.304 0 0 1 .34-.26l2.99.394c.163.023.28.175.26.34l-1.528 11.594a.304.304 0 0 1-.34.26"/></g></svg>