<svg xmlns="http://www.w3.org/2000/svg" width="128" height="64"><path d="M3.701 27.936h21.003v9.195l-10.432 6.165-10.57-6.165z" fill="currentColor"/><path d="M97.632 18.773l12.523 26.454h5.333L128 18.773h-7.424l-7.755 16.395-7.754-16.395zM92.725 35.2a9.365 9.365 0 00-5.984-16.427h-18.56v26.454h6.699v-5.76l11.04-1.792 3.008 7.541h7.221l-3.85-9.6zm-6.08-4.49l-11.733 1.92V25.6h11.83a2.55 2.55 0 012.527 2.56c0 1.216-.597 2.219-2.624 2.55zM46.315 45.227h5.333l12.523-26.454h-7.424L48.98 35.168l-7.754-16.395h-7.424zM3.7 27.936h21.003v9.195l-10.432 6.165-10.57-6.165z"/><path d="M14.261 15.339L0 23.669v16.662l14.261 8.33 14.262-8.33V23.669zm9.312 21.909l-9.312 5.419-9.312-5.44v-6.891l9.312 5.44 9.312-5.44z" fill="#fd0"/></svg>