<svg xmlns="http://www.w3.org/2000/svg" width="128" height="64"><path d="M43.973 63.936l-4.931-5.763V63.7h-.85v-7.61h.112l4.93 5.766v-5.523h.856v7.602zm3.36-4.462h2.756v.752h-2.756v2.681h3.237v.789h-4.09v-7.362h4.046v.74h-3.193zm6.957-2.346h-2.603v-.794h6.085v.794h-2.6v6.574h-.882zm6.677 4.687l1.925-5.724h.092l1.798 5.724 1.73-5.48h.862l-2.592 7.669h-.104L62.9 58.302l-1.915 5.702h-.112l-2.563-7.67h.924zm8.384-4.605a3.468 3.468 0 012.547-1.119c.951 0 1.86.395 2.547 1.131.685.737 1.063 1.704 1.063 2.793 0 .917-.25 1.732-.742 2.411-.689.962-1.755 1.51-2.868 1.51a3.52 3.52 0 01-2.547-1.123c-.7-.742-1.069-1.693-1.069-2.798 0-1.099.37-2.055 1.07-2.805m2.546 5.92c1.516 0 2.712-1.304 2.712-3.115 0-1.808-1.196-3.111-2.712-3.111-1.52 0-2.727 1.314-2.727 3.111 0 1.79 1.207 3.114 2.727 3.114m5.45-6.795h1.557c2.11 0 3.153.784 3.153 2.14 0 1.04-.732 1.886-1.926 2.082l2.676 3.14h-1.103l-2.57-3.03h-.924v3.03h-.862v-7.362m1.608 3.663c1.484 0 2.223-.543 2.223-1.5 0-1.05-.794-1.444-2.364-1.444h-.606v2.944zm7.372-.131l3.981 3.83h-1.212l-3.903-3.699v3.699h-.857v-7.362h.857v3.548l3.516-3.548h1.129z"/><path d="M90.273 26.278c0 14.529-11.776 26.295-26.29 26.295-14.519 0-26.293-11.766-26.293-26.295C37.69 11.76 49.464-.004 63.983-.004c14.514 0 26.29 11.764 26.29 26.282" fill="#ff7f00"/><path d="M63.986 25.273c1.83 4.382 6.139 14.891 6.139 14.891l9.73-23.233h-4.874l-4.86 11.624-6.135-14.889-6.134 14.889-4.863-11.624h-4.872l9.735 23.233s4.309-10.51 6.134-14.891" fill="#fff"/></svg>