<svg xmlns="http://www.w3.org/2000/svg" width="128" height="64"><path d="M15.806 56.396h-2.934l1.462-4.058zm-.512-6.09a.268.268 0 00-.252-.174H13.65a.268.268 0 00-.25.173L9.781 59.86a.267.267 0 00.251.364h1.27a.269.269 0 00.252-.178l.782-2.17h4.006l.795 2.172a.27.27 0 00.252.176h1.256a.268.268 0 00.25-.363l-3.602-9.554m23.809-.175H37.86a.27.27 0 00-.221.116l-3.192 4.634-3.19-4.634a.27.27 0 00-.221-.116H29.78a.268.268 0 00-.269.269v9.553c0 .149.12.269.269.269h1.119c.148 0 .268-.12.268-.269v-7.06l3.047 4.389a.268.268 0 00.44 0l3.047-4.376v7.047c0 .149.12.269.268.269h1.133c.148 0 .268-.12.268-.269v-9.553a.268.268 0 00-.268-.269m18.205 8.518h-5.205v-2.808h4.59c.149 0 .269-.12.269-.268v-.97a.268.268 0 00-.268-.268h-4.59v-2.63h5.122c.148 0 .268-.12.268-.268V50.4a.268.268 0 00-.268-.269h-6.551a.268.268 0 00-.269.269v9.553c0 .149.12.269.269.269h6.633c.148 0 .268-.12.268-.269v-1.037a.268.268 0 00-.268-.268m12.753-6.997h2.557c1.68 0 1.861 1.13 1.861 1.615 0 .385-.135 1.643-1.875 1.643H70.06zm4.218 4.442c1.186-.48 1.91-1.543 1.91-2.84 0-1.509-.935-3.12-3.558-3.12h-3.998a.268.268 0 00-.269.268v9.553c0 .149.12.269.269.269h1.16c.148 0 .268-.12.268-.269v-3.58h2.592l1.756 3.696a.268.268 0 00.243.153h1.282a.27.27 0 00.24-.39l-1.895-3.74m14.4-5.961h-1.16a.268.268 0 00-.268.269v9.553c0 .149.12.269.268.269h1.16c.148 0 .268-.12.268-.269v-9.553a.268.268 0 00-.268-.269m19.119 7.755a.269.269 0 00-.38-.01c-.657.63-1.508.963-2.462.963-2.06 0-3.39-1.475-3.39-3.759 0-2.166 1.33-3.566 3.39-3.566.851 0 1.646.276 2.362.82a.267.267 0 00.377-.055l.629-.846a.269.269 0 00-.052-.373c-.93-.715-2.082-1.093-3.33-1.093-2.995 0-5.087 2.103-5.087 5.113 0 3.173 2.033 5.305 5.06 5.305 1.423 0 2.668-.47 3.597-1.357a.268.268 0 00.01-.379l-.724-.763m17.081-1.491h-2.934l1.461-4.058zm3.09 3.464l-3.603-9.554a.268.268 0 00-.25-.174h-1.393a.268.268 0 00-.25.173l-3.618 9.554a.268.268 0 00.25.364h1.27a.268.268 0 00.253-.178l.782-2.17h4.005l.796 2.172a.27.27 0 00.252.176h1.256a.268.268 0 00.25-.363M.077 5.7c-.244-.86.246-1.473 1.104-1.473h7.173c.49 0 .98.43 1.104.859l5.272 20.783h.246l9.502-21.58c.184-.368.552-.675 1.042-.675h1.103c.553 0 .92.307 1.043.674l9.503 21.581h.245l5.273-20.783c.122-.429.613-.86 1.103-.86h7.173c.858 0 1.35.614 1.103 1.473L40.48 46.9c-.123.49-.613.857-1.105.857h-.98c-.43 0-.859-.306-1.042-.675l-11.22-25.074h-.184L14.791 47.081c-.184.37-.613.675-1.041.675h-.982c-.49 0-.98-.367-1.104-.857L.077 5.699m71.174-2.024c5.149 0 10.79 2.147 14.959 5.764.551.429.613 1.165.123 1.655l-4.844 5.15c-.49.43-1.166.43-1.656.06-2.33-2.144-5.027-2.942-8.03-2.942-6.683 0-12.078 5.641-12.078 12.385 0 6.683 5.456 12.2 12.138 12.2 1.779 0 3.617-.245 5.456-.981V33.41h-3.862c-.674 0-1.164-.49-1.164-1.103v-6.07c0-.674.49-1.164 1.164-1.164H85.78c.613 0 1.104.551 1.104 1.165l.062 16.49c0 .308-.246.798-.491.982 0 0-6.315 3.984-15.204 3.984-12.2 0-22.01-9.685-22.01-21.947 0-12.262 9.81-22.072 22.01-22.072m17.901 1.043c0-.613.553-1.104 1.166-1.104h1.533l24.462 23.542h.06V5.393c0-.614.492-1.166 1.165-1.166h7.358c.613 0 1.164.552 1.164 1.166v41.26c0 .613-.551 1.103-1.164 1.103h-.98c-.185 0-.675-.184-.799-.306L98.901 23.11h-.062v22.868c0 .613-.49 1.165-1.165 1.165H90.38c-.614 0-1.165-.552-1.165-1.165l-.062-41.26" fill="#100f0d"/></svg>