<svg xmlns="http://www.w3.org/2000/svg" xmlns:xlink="http://www.w3.org/1999/xlink" width="128" height="64"><defs><radialGradient xlink:href="#a" id="U" cx="1214.221" cy="1680.704" fx="1214.221" fy="1680.704" r="22.495" gradientTransform="matrix(-1.2 -.2 .2 -.9 2438.6 3564.7)" gradientUnits="userSpaceOnUse"/><linearGradient id="a"><stop offset="0" stop-color="#6700e8"/><stop offset=".399" stop-color="#5c00ce"/><stop offset=".701" stop-color="#5600bf" stop-opacity=".045"/><stop offset="1" stop-color="#220047" stop-opacity="0"/></linearGradient><linearGradient gradientTransform="matrix(.6 0 0 .6 -1015.1 -735.2)" xlink:href="#b" id="T" x1="372.77" y1="1915.999" x2="397.81" y2="1915.999" gradientUnits="userSpaceOnUse"/><linearGradient id="b"><stop offset="0" stop-color="#5500bd"/><stop offset="1" stop-color="#5200b2"/></linearGradient><linearGradient gradientTransform="matrix(.6 0 0 .6 -1015.1 -735.2)" xlink:href="#c" id="S" x1="1161.157" y1="1962.863" x2="1198.648" y2="1704.174" gradientUnits="userSpaceOnUse"/><linearGradient id="c"><stop offset="0" stop-color="#47008d"/><stop offset="1" stop-color="#5100b3"/></linearGradient><radialGradient xlink:href="#d" id="R" cx="1159.125" cy="2013.893" fx="1159.125" fy="2013.893" r="24.948" gradientTransform="matrix(-.2 .7 -.8 -.2 1523.9 91)" gradientUnits="userSpaceOnUse"/><linearGradient id="d"><stop offset="0" stop-color="#6000d8"/><stop offset=".209" stop-color="#5c00cd"/><stop offset=".374" stop-color="#5500be"/><stop offset=".721" stop-color="#2d0062"/><stop offset="1" stop-color="#210045"/></linearGradient><linearGradient gradientTransform="matrix(.6 0 0 .6 -1015.1 -735.2)" xlink:href="#e" id="Q" x1="829.866" y1="2003.658" x2="1020.945" y2="1699.444" gradientUnits="userSpaceOnUse"/><linearGradient id="e"><stop offset="0" stop-color="#1b0041"/><stop offset=".1" stop-color="#1b0041"/><stop offset=".205" stop-color="#1b0041"/><stop offset=".3" stop-color="#240052"/><stop offset=".4" stop-color="#32006a"/><stop offset=".5" stop-color="#3d007d"/><stop offset=".6" stop-color="#490098"/><stop offset=".7" stop-color="#4f00a8"/><stop offset=".803" stop-color="#5500bc"/><stop offset=".9" stop-color="#5700c2"/><stop offset="1" stop-color="#6000da"/></linearGradient><linearGradient gradientTransform="matrix(.6 0 0 .6 -1015.1 -735.2)" xlink:href="#f" id="P" x1="979.926" y1="1699.285" x2="829.275" y2="1983.828" gradientUnits="userSpaceOnUse"/><linearGradient id="f"><stop offset="0" stop-color="#1e0046"/><stop offset=".1" stop-color="#2d0061"/><stop offset=".205" stop-color="#33006b"/><stop offset=".3" stop-color="#400082"/><stop offset=".4" stop-color="#490096"/><stop offset=".5" stop-color="#5000ac"/><stop offset=".6" stop-color="#5500bd"/><stop offset=".7" stop-color="#4f00a8"/><stop offset=".803" stop-color="#5500bc"/><stop offset=".9" stop-color="#5700c2"/><stop offset="1" stop-color="#6000da"/></linearGradient><linearGradient gradientTransform="matrix(.6 0 0 .6 -1015.1 -735.2)" xlink:href="#e" id="O" x1="462.794" y1="1977.95" x2="664.272" y2="1725.724" gradientUnits="userSpaceOnUse"/><linearGradient gradientTransform="matrix(.6 0 0 .6 -1015.1 -735.2)" xlink:href="#g" id="N" x1="632.175" y1="1725.375" x2="471.276" y2="1962.377" gradientUnits="userSpaceOnUse"/><linearGradient id="g"><stop offset="0" stop-color="#1c0044"/><stop offset=".1" stop-color="#2f0065"/><stop offset=".205" stop-color="#34006d"/><stop offset=".3" stop-color="#3b007a"/><stop offset=".4" stop-color="#3c007a"/><stop offset=".5" stop-color="#490096"/><stop offset=".6" stop-color="#5000ab"/><stop offset=".7" stop-color="#5400ba"/><stop offset=".803" stop-color="#5500bc"/><stop offset=".9" stop-color="#5700c2"/><stop offset="1" stop-color="#5c00ce"/></linearGradient><linearGradient gradientTransform="matrix(.6 0 0 .6 -1015.1 -735.2)" xlink:href="#h" id="M" x1="163.228" y1="1856.76" x2="372.848" y2="1856.76" gradientUnits="userSpaceOnUse"/><linearGradient id="h"><stop offset="0" stop-color="#6700e8"/><stop offset=".5" stop-color="#6700e8"/><stop offset="1" stop-color="#6700e8"/></linearGradient><linearGradient gradientTransform="matrix(.6 0 0 .6 -1015.1 -735.2)" xlink:href="#i" id="L" x1="347.463" y1="1999.149" x2="373.355" y2="1999.149" gradientUnits="userSpaceOnUse"/><linearGradient id="i"><stop offset="0" stop-color="#3f008b"/><stop offset="1" stop-color="#220050"/></linearGradient><linearGradient gradientTransform="matrix(.6 0 0 .6 -1015.1 -735.2)" xlink:href="#j" id="K" x1="138.232" y1="1713.226" x2="163.246" y2="1713.226" gradientUnits="userSpaceOnUse"/><linearGradient id="j"><stop offset="0" stop-color="#390080"/><stop offset=".5" stop-color="#31006e"/><stop offset="1" stop-color="#250056"/></linearGradient><linearGradient gradientTransform="matrix(.6 0 0 .6 -1015.1 -735.2)" xlink:href="#k" id="J" x1="162.66" y1="1838.203" x2="187.847" y2="1838.203" gradientUnits="userSpaceOnUse"/><linearGradient id="k"><stop offset="0" stop-color="#5a00c9"/><stop offset="1" stop-color="#4f00a8"/></linearGradient><linearGradient gradientTransform="matrix(.6 0 0 .6 -1015.1 -735.2)" xlink:href="#l" id="I" x1="-103.636" y1="1909.572" x2="51.417" y2="1909.572" gradientUnits="userSpaceOnUse"/><linearGradient id="l"><stop offset="0" stop-color="#6700e8"/><stop offset=".506" stop-color="#6700e8"/><stop offset="1" stop-color="#6700e8"/></linearGradient><linearGradient gradientTransform="matrix(.6 0 0 .6 -1015.1 -735.2)" xlink:href="#m" id="H" x1="-169.287" y1="2005.123" x2="-26.132" y2="1718.528" gradientUnits="userSpaceOnUse"/><linearGradient id="m"><stop offset="0" stop-color="#4d00a1"/><stop offset="1" stop-color="#5200b4"/></linearGradient><linearGradient gradientTransform="matrix(.6 0 0 .6 -1015.1 -735.2)" xlink:href="#n" id="G" x1="-253.601" y1="1878.776" x2="-253.601" y2="2047.033" gradientUnits="userSpaceOnUse"/><linearGradient id="n"><stop offset="0" stop-color="#210045"/><stop offset=".25" stop-color="#25004d"/><stop offset=".5" stop-color="#2b005c"/><stop offset=".749" stop-color="#340071"/><stop offset="1" stop-color="#3e0088"/></linearGradient><linearGradient gradientTransform="matrix(.6 0 0 .6 -1015.1 -735.2)" xlink:href="#o" id="F" x1="-248.818" y1="1877.211" x2="-227.231" y2="2047.256" gradientUnits="userSpaceOnUse"/><linearGradient id="o"><stop offset="0" stop-color="#5500bd"/><stop offset="1" stop-color="#5300b5"/></linearGradient><linearGradient gradientTransform="matrix(.6 0 0 .6 -1015.1 -735.2)" xlink:href="#p" id="E" gradientUnits="userSpaceOnUse" x1="-291.093" y1="1850.658" x2="-273.088" y2="1838.676"/><linearGradient id="p"><stop offset="0" stop-color="#27005d" stop-opacity=".98"/><stop offset=".318" stop-color="#2b005d"/><stop offset=".598" stop-color="#280055"/><stop offset=".809" stop-color="#24004d"/><stop offset="1" stop-color="#230049"/></linearGradient><linearGradient gradientTransform="matrix(.6 0 0 .6 -1015.1 -735.2)" xlink:href="#q" id="D" x1="-349.936" y1="1669.673" x2="-250.333" y2="1877.59" gradientUnits="userSpaceOnUse"/><linearGradient id="q"><stop offset="0" stop-color="#5100b2"/><stop offset="1" stop-color="#5500bd"/></linearGradient><linearGradient gradientTransform="matrix(.6 0 0 .6 -1015.1 -735.2)" xlink:href="#r" id="C" x1="-149.697" y1="1667.754" x2="-249.852" y2="1877.169" gradientUnits="userSpaceOnUse"/><linearGradient id="r"><stop offset="0" stop-color="#5500bd"/><stop offset="1" stop-color="#47008d"/></linearGradient><linearGradient gradientTransform="matrix(.6 0 0 .6 -1015.1 -735.2)" xlink:href="#s" id="B" x1="-209.431" y1="1808.663" x2="-190.685" y2="1819.835" gradientUnits="userSpaceOnUse"/><linearGradient id="s"><stop offset="0" stop-color="#1b0041"/><stop offset="1" stop-color="#21004f"/></linearGradient><linearGradient gradientTransform="matrix(.6 0 0 .6 -1015.1 -735.2)" xlink:href="#t" id="A" x1="-122.894" y1="2007.68" x2="-26.7" y2="1759.051" gradientUnits="userSpaceOnUse"/><linearGradient id="t"><stop offset="0" stop-color="#21004e"/><stop offset="1" stop-color="#39007f"/></linearGradient><linearGradient gradientTransform="matrix(.6 0 0 .6 -1015.1 -735.2)" xlink:href="#u" id="z" x1="44.989" y1="1945.457" x2="63.199" y2="1938.494" gradientUnits="userSpaceOnUse"/><linearGradient id="u"><stop offset="0" stop-color="#2a005a"/><stop offset="1" stop-color="#210046"/></linearGradient><linearGradient gradientTransform="matrix(.6 0 0 .6 -1015.1 -735.2)" xlink:href="#v" id="y" x1="-24.637" y1="1718.099" x2="115.152" y2="2003.3" gradientUnits="userSpaceOnUse"/><linearGradient id="v"><stop offset="0" stop-color="#5500bd"/><stop offset="1" stop-color="#5000ac"/></linearGradient><linearGradient id="w"><stop offset="0" stop-color="#210045"/><stop offset=".594" stop-color="#430085"/><stop offset="1" stop-color="#5000b2"/></linearGradient><linearGradient gradientTransform="matrix(.6 0 0 .6 -1015.1 -735.2)" y2="1701.864" x2="1224.965" y1="1962.234" x1="1177.815" gradientUnits="userSpaceOnUse" id="x" xlink:href="#w"/></defs><g transform="matrix(.1 0 0 .1 160.5 -18.6)"><path d="M-272.82 284.693c7.662 1.28 12.78 5.97 12.78 14.045 0 2.673-1.1 6.435-1.838 9.616-5.133 22.63-25.182 102.588-33.623 155.957l-7.77-7.76 24.72-164.164z" fill="url(#x)"/><path d="M-772.424 306.42c-10.346 2.477-20.506 2.41-30.493 0l15.856 16.466zm-158.512 0c10.347 2.477 20.506 2.41 30.493 0l-15.856 16.466z" fill="#6700e8"/><path d="M-1020.435 306.355c23.383 59.178 60.182 148.75 78.517 182.985l-27.144-8.295-67.165-167.966z" fill="url(#y)"/><path d="M-1041.697 306.35c7.468 2.502 13.662 2.656 21.264 0l-15.113 9.284z" fill="#6700e8"/><path d="M-1030.957 312.81l68.438 167.85c-4.042 4.384-5.85 6.685-9.79 8.737-19.83-51.092-41.14-102.196-59.18-152.627l-8.91-15.104z" fill="url(#z)"/><path d="M-1089.818 489.333l-20.204-7.156 71.14-166.914 7.93-2.452v24.72c-11.063 31.92-39.136 101.95-58.866 151.81z" fill="url(#A)"/><path d="M-1106.575 282.025l6.708 15.247 17.076-7.928 6.94-7.32c-10.987 2.493-20.89 2.576-30.73 0z" fill="#6700e8"/><path d="M-1154.754 414.975l-11.588 4.27-7.318-12.808 72.573-115.874 5.19-1.777c7.16-1.618 14.972-3.354 20.06-6.76-11.526 15.57-53.493 88.343-78.917 132.95z" fill="url(#B)"/><path d="M-1170.61 413.145l3.05-3.05 71.793-121.335-10.808-6.735c-8.67 16.146-40.64 68.392-60.986 101.847l-9.76 18.296z" fill="url(#C)"/><path d="M-1228.547 282.025c15.916 28.207 40.35 67.667 60.986 101.847v26.224l-4.88 4.88-71.36-126.852z" fill="url(#D)"/><path d="M-1240.308 289.697l11.76-7.672c-12.62 2.692-17.898 2.863-30.492 0l4.88 5.49z" fill="#6700e8"/><path d="M-1167.56 410.096l-5.49 7.928-7.32-3.05c-13.624-23.55-53.676-95.286-78.67-132.95 5.066 3.673 11.91 5.687 19.817 6.97z" fill="url(#E)"/><path d="M-1152.925 513.162l-20.735-9.758 1.83-86.6 4.27-6.708 12.806 4.88z" fill="url(#F)"/><path d="M-1167.56 506.454l-14.638 6.708 1.83-98.187 12.807-4.88z" fill="url(#G)"/><path d="M-1119.992 489.378c25.443-51.865 53.737-121.415 78.294-183.037l10.745 6.48-69.462 169.92-14.088 4.814z" fill="url(#H)"/><path d="M-963.246 480.354l21.352 8.992c-8.19-2.064-19.278-2.856-30.42.053l4.168-10.27z" fill="#200045"/><path d="M-1078.515 429.378l15.012-6.442c21.625.76 43.25.75 64.874 0l15.23 6.63-14.17 3.1h-70.185z" fill="url(#I)"/><path d="M-1068.516 435.71l-10.08-6.332c31.673-.485 63.394-.445 95.17.188l-10.082 6.145c-25.002-.81-50.005-.71-75.008 0z" fill="#200045"/><path d="M-900.443 489.378l-21.345-7.32V318.01l6.1-3.05 15.245-8.538c-3.163 60.878-3.233 121.864 0 182.958z" fill="url(#J)"/><path d="M-915.69 480.84v4.27l-15.246 4.268c2.425-60.89 2.656-121.866 0-182.958l15.247 8.538z" fill="url(#K)"/><path d="M-802.917 489.378l21.345-7.32V318.01l-6.098-3.05-15.247-8.538c3.164 60.878 3.233 121.864 0 182.958z" fill="url(#L)"/><path d="M-915.63 397.52l12.817-5.714c34.057.86 68.154.794 102.284 0l12.86 5.714-15.9 3.8h-99.345z" fill="url(#M)"/><path d="M-664.79 306.35c-59.894 0-89.782 37.45-89.782 91.9 0 68.197 45.237 91.822 89.002 91.822 51.983 0 89.25-29.25 89.25-91.65 0-60.057-35.276-92.07-88.47-92.07zm-1.79 8.692c.563-.012 1.13 0 1.696 0 39.557 0 68.61 26.944 68.61 83.246 0 56.23-29.014 83.17-68.534 83.17-43.12 0-68.457-30.9-68.457-83.018 0-58.944 31.22-82.672 66.685-83.398z" fill="url(#N)"/><path d="M-665 303.95c-64.687 0-98.624 41.016-98.624 94.185 0 58.196 37.05 93.69 98.53 93.69 66.468 0 98.93-40 98.93-93.08 0-59.18-38.767-94.795-98.835-94.795zm.192 6.06c51.075 0 84.942 30.727 84.942 88.392 0 59.917-35.79 88.01-85.704 88.01-42.022 0-85.457-22.68-85.457-88.162 0-52.283 28.708-88.24 86.22-88.24z" fill="url(#O)"/><path d="M-441.275 296.994c-60.79 0-102.438 34.366-102.438 101.35 0 65.71 38.747 102.42 102.686 102.42 48.426 0 101.484-24.873 101.484-101.485 0-82.69-57.955-102.29-101.732-102.29zm-.324 7.318c48.38 0 84.01 29.388 84.01 94.204 0 70.46-43.1 93.31-83.93 93.31-43.62 0-83.36-25.6-83.36-94.7 0-71.622 44.05-92.814 83.287-92.814z" fill="url(#P)"/><path d="M-441.675 292.934c-64.42 0-113.663 36.58-113.663 104.59 0 56.036 32.754 105.355 114.196 105.355 68.95 0 113.968-37.91 113.968-104.37 0-62.666-41.996-105.58-114.5-105.58zm.4 6.823c42.587 0 98.97 19.086 98.97 99.522 0 74.522-51.632 98.72-98.74 98.72-62.202 0-99.885-35.72-99.885-99.64 0-65.165 40.52-98.61 99.655-98.61z" fill="url(#Q)"/><path d="M-322.2 499.845c0-7.87 4.785-15.186 14.377-15.186 9.182 0 16.052 5.49 16.052 14.26 0 10.922-7.238 14.95-13.86 14.95-9.16 0-16.57-4.754-16.57-14.03z" fill="url(#R)"/><path d="M-306.882 462.566c7.436-52.557 11.96-107.792 16.3-162.868 0-10.977 7.257-15.27 14.577-15.27 1.283 0 3.176.267 3.176.267l-1.99 13.166-26.08 163.25z" fill="url(#S)"/><path d="M-1182.198 513.162l14.664-10.743 14.61 10.74s-8.1-1.477-14.61-1.477c-5.875 0-14.664 1.472-14.664 1.472zm62.203-23.762l20.456-8.843c3.128 3.742 5.9 6.913 9.738 8.79-7.364-1.993-18.512-2.887-30.184.03zm189.06-.022c9.902-2.387 20.043-2.492 30.454 0l-15.21-8.538zm28.122-85.093l-12.843-6.765c42.66.445 85.32.52 127.98 0l-12.826 6.725c-34.104-.458-68.207-.436-102.31.04z" fill="#200045"/><path d="M-787.67 480.84v4.27l15.246 4.268c-2.424-60.89-2.656-121.866 0-182.958l-15.246 8.538z" fill="url(#T)"/><path d="M-772.424 489.378c-9.903-2.387-20.044-2.492-30.455 0l15.21-8.538zm472.27-32.978l-6.758 6.166c4.527-.797 8.03.384 11.432 1.756z" fill="#200045"/><ellipse transform="matrix(.7 0 0 .6 -1078 -734.8)" cx="1214.983" cy="1693.06" rx="22.495" ry="21.29" fill="url(#U)" fill-rule="evenodd"/></g></svg>