<?xml version="1.0" encoding="UTF-8" standalone="no"?>

<svg xmlns:svg="http://www.w3.org/2000/svg" xmlns="http://www.w3.org/2000/svg" version="1.1" width="128" height="64" xmlns:xlink="http://www.w3.org/1999/xlink">
	<g stroke="null">
		<g stroke="null" transform="matrix(0.16889423689208344,0,0,0.16889423689208344,109.60316615677131,137.94190899136242) ">
			<g stroke="null" transform="matrix(1.7803007,0,0,1.7803007,-441.26004,-426.04417) ">
				<path fill="#73c908" d="m-9.00204,-175.02792l42,-42l63,64l-74,0l-31,-22z"/>
				<path fill="#b3fa0a" d="m95.99796,-153.02792l63.00001,-64l42,42l-39,22l-66.00001,0z"/>
				<path fill="#387305" d="m66.99796,-100.02792l-76,-75l105,22l0,53l-29,0z"/>
				<path fill="#4e9d04" d="m95.99796,-100.02792l0,-53l105.00001,-22l-76.00001,75l-29,0z"/>
				<path fill="#295001" d="m66.99796,-9.02792l0,-91l29,-53l0,135l-29,9z"/>
				<path fill="#8cdf07" d="m124.99796,-9.02792l-29,-9l0,-135l29,53l0,91"/>
				<path fill="none" d="m66.99796,-9.02792l58,0l0,-91l76.00001,-75l-42,-42l-63.00001,64l-63,-64l-42,42l76,75l0,91z"/>
				<path fill="#4b9405" d="m66.99796,-9.02792l29,-144l29,144l-58,0z"/>
				<path fill="#000000" d="m-29.00204,-91.02792l0,-12.0563l-9.5,-14.89005l0,-5.55365l4.42932,0l8.57068,13.59314l8.58398,-13.59314l4.41602,0l0,5.61026l-9.5,14.75742l0,12.13232l-7,0z"/>
				<path fill="#000000" d="m214.38504,-91.02792l0,-12.0563l-9.5,-14.89005l0,-5.55365l4.42932,0l8.57068,13.59314l8.584,-13.59314l4.416,0l0,5.61026l-9.5,14.75742l0,12.13232l-7,0z"/>
				<path fill="#000000" d="m-7.00204,-91.02792l0,-32.5l24,0l0,6l-17,0l0,7l16,0l0,6l-16,0l0,8l17,0l0,5.5l-24,0z"/>
				<path fill="#000000" d="m83.99796,-91.02792l0,-32.5l24,0l0,6l-17,0l0,7l16,0l0,6l-16,0l0,8l17,0l0,5.5l-24,0z"/>
				<path fill="#000000" d="m61.49796,-91.02792l0,-26.5l-10.5,0l0,-6l28,0l0,6l-10.5,0l0,26.5l-7,0z"/>
				<path fill="#000000" d="m129.99413,-117.59042l-9.43366,0l0,8.06226l9.47454,0c3.89845,0 4.61572,-1.7576 4.61572,-4.19977c0,-1.72894 -0.80302,-3.90466 -4.6566,-3.86249zm-3.72181,14.0625l-5.71136,0.00024l0,12.43726l-7.00049,0l0,-32.5l17.07421,0c4.90565,0 10.8822,3.19241 10.8822,9.66028c0,8.00977 -7.36621,10.40222 -7.36621,10.40222l6.34729,7.57278l0,5.00421l-4.54578,0.00009l-9.67986,-12.57709z"/>
				<path fill="#000000" d="m146.99797,-123.52792l0,32.5l13.71873,0c8.03119,0 13.28127,-4.48709 13.28127,-13.4375l0,-5.5625c0,-8.6283 -6.47316,-13.5 -14,-13.5l-13,0zm40.12498,0l-11.12498,27.25l0,5.25l5.43748,0l2.4375,-6l13.81252,0l2.18748,6l5.5,0l0,-5l-11.125,-27.5l-7.125,0zm-33.12498,6l5,0c4.53893,0 8,2.21204 8,8.5l0,4.3125c0,5.00568 -2.22725,7.6875 -8,7.6875l-5,0l0,-20.5zm36.62498,2.25l4.75,12.25l-9.37498,0l4.62498,-12.25z"/>
				<path fill="#000000" d="m28.37296,-101.46542l-6.8125,0c0,8.10068 6.01141,11.5 13.25,11.5c9.02167,0 14.625,-3.64023 14.625,-9.9375c0,-14.31039 -20.4375,-7.44012 -20.4375,-14.8125c0,-2.00287 1.68103,-3.625 6.0625,-3.625c4.02051,0.34262 5.84912,1.83615 5.84912,4.75757l7.25,0c0,-5.68518 -4.54474,-10.57007 -12.97412,-10.57007c-5.99011,0 -13.1875,2.19156 -13.1875,9.25c0,14.27917 20.3125,6.76172 20.3125,14.9375c0,2.64514 -2.85791,4 -7.375,4c-5.72272,0 -6.5625,-5.5 -6.5625,-5.5z"/>
			</g>
		</g>
	</g>
</svg>