<svg xmlns="http://www.w3.org/2000/svg" width="128" height="64"><g stroke="null"><path fill="#73c908" d="M32.367 13.303L45.01.66l18.96 19.266H41.698l-9.33-6.622z"/><path fill="#b3fa0a" d="M63.972 19.925L82.935.66l12.642 12.643-11.74 6.622H63.973z"/><path fill="#387305" d="M55.243 35.878L32.367 13.303l31.605 6.622v15.953h-8.73z"/><path fill="#4e9d04" d="M63.972 35.878V19.925l31.605-6.622L72.7 35.878h-8.728z"/><path fill="#295001" d="M55.243 63.27V35.877l8.73-15.953V60.56l-8.73 2.71z"/><path fill="#8cdf07" d="M72.7 63.27l-8.728-2.71V19.925l8.73 15.953v27.39"/><path fill="none" d="M55.243 63.27H72.7V35.877l22.877-22.575L82.935.66 63.972 19.926 45.01.66 32.366 13.304 55.242 35.88v27.39z"/><path fill="#4b9405" d="M55.243 63.27l8.73-43.345L72.7 63.27H55.244z"/><path d="M26.347 38.587v-3.63l-2.86-4.48v-1.673h1.334l2.58 4.092 2.59-4.092h1.33v1.69l-2.86 4.44v3.653h-2.11zm73.26 0v-3.63l-2.86-4.48v-1.673h1.334l2.58 4.092 2.59-4.092h1.33v1.69l-2.86 4.44v3.653h-2.11zm-66.637 0v-9.783h7.223v1.806h-5.117v2.107h4.816v1.806h-4.816v2.408h5.117v1.66H32.97zm27.39 0v-9.783h7.224v1.806h-5.117v2.107h4.816v1.806h-4.816v2.408h5.117v1.66H60.36zm-6.772 0V30.61h-3.16v-1.806h8.427v1.806h-3.16v7.977h-2.107zm20.617-7.997h-2.84v2.428h2.853c1.173 0 1.39-.53 1.39-1.264 0-.52-.243-1.175-1.403-1.163zm-1.12 4.234h-1.72v3.744H69.26v-9.783h5.138c1.477 0 3.276.96 3.276 2.908 0 2.41-2.218 3.13-2.218 3.13l1.91 2.28v1.507H76l-2.915-3.786zm6.238-6.02v9.783h4.13c2.417 0 3.997-1.35 3.997-4.045v-1.674c0-2.598-1.948-4.064-4.214-4.064h-3.913zm12.078 0l-3.34 8.202v1.58h1.637l.734-1.805h4.157l.66 1.81H96.9v-1.5l-3.35-8.277H91.4zm-9.97 1.806h1.51c1.37 0 2.41.666 2.41 2.56v1.297c0 1.506-.67 2.314-2.41 2.314h-1.51v-6.17zm11.03.677l1.43 3.688h-2.83l1.397-3.688zm-48.84 4.158h-2.05c0 2.438 1.81 3.46 3.99 3.46 2.717 0 4.4-1.094 4.4-2.99 0-4.307-6.15-2.24-6.15-4.458 0-.603.508-1.09 1.827-1.09 1.21.102 1.76.55 1.76 1.43h2.184c0-1.71-1.37-3.18-3.905-3.18-1.803 0-3.97.66-3.97 2.783 0 4.298 6.114 2.035 6.114 4.496 0 .797-.86 1.204-2.22 1.204-1.723 0-1.976-1.655-1.976-1.655z"/></g></svg>