<svg xmlns="http://www.w3.org/2000/svg" width="128" height="64"><g data-name="Layer 2"><g data-name="Layer 1"><path d="M36.765 22.963a4.703 4.703 0 00-3.32-3.32c-2.928-.784-14.673-.784-14.673-.784s-11.736 0-14.665.784a4.703 4.703 0 00-3.32 3.32C.005 25.89.005 32 .005 32s0 6.109.784 9.037a4.703 4.703 0 003.319 3.32c2.929.784 14.67.784 14.67.784s11.74 0 14.669-.784a4.703 4.703 0 003.319-3.32c.784-2.928.784-9.037.784-9.037s0-6.109-.784-9.037z" fill="red"/><path d="M15.021 37.632L24.776 32l-9.755-5.632z" fill="#fff"/><path d="M54.233 27.199v.908c0 4.54-2.013 7.194-6.416 7.194h-.67v7.946H43.55V20.73h4.585c4.192 0 6.098 1.772 6.098 6.469zm-3.784.322c0-3.275-.59-4.053-2.63-4.053h-.671v9.154h.618c1.932 0 2.685-1.395 2.685-4.429zm12.293-.993l-.187 4.269c-1.53-.323-2.793-.08-3.356.908v11.542H55.63v-16.45h2.845l.323 3.565h.135c.375-2.603 1.583-3.918 3.14-3.918a3.457 3.457 0 01.67.084zm4.107 9.737v.833c0 2.9.16 3.893 1.395 3.893 1.18 0 1.45-.909 1.476-2.791l3.193.187c.243 3.543-1.61 5.127-4.75 5.127-3.812 0-4.94-2.496-4.94-7.032v-2.876c0-4.778 1.263-7.114 5.047-7.114 3.81 0 4.778 1.986 4.778 6.952v2.821zm0-3.383v1.181h2.71V32.89c0-3.027-.215-3.893-1.362-3.893s-1.348.887-1.348 3.893zm24.642-2.066v12.428h-3.7V31.092c0-1.343-.35-2.013-1.156-2.013-.644 0-1.235.375-1.637 1.073a5.387 5.387 0 01.027.67V43.25h-3.707V31.092c0-1.343-.35-2.013-1.155-2.013-.644 0-1.21.375-1.61 1.047v13.126h-3.704V26.796h2.926l.328 2.095h.053c.833-1.583 2.175-2.443 3.759-2.443 1.557 0 2.442.778 2.845 2.175.86-1.423 2.148-2.175 3.623-2.175 2.25 0 3.108 1.61 3.108 4.368zm1.852-8.233c0-1.773.645-2.281 2.013-2.281 1.396 0 2.014.59 2.014 2.28 0 1.826-.618 2.283-2.014 2.283-1.368-.001-2.013-.457-2.013-2.282zm.215 4.213h3.544v16.456h-3.544zm15.65 0v16.456h-2.9l-.322-2.013h-.08c-.832 1.61-2.04 2.28-3.543 2.28-2.201 0-3.195-1.395-3.195-4.428V26.796h3.703v12.08c0 1.45.303 2.04 1.048 2.04a1.83 1.83 0 001.58-1.047V26.796zm18.788 4.02v12.428h-3.703V31.092c0-1.343-.35-2.013-1.155-2.013-.645 0-1.235.375-1.638 1.073a5.387 5.387 0 01.027.664v12.428h-3.703V31.092c0-1.343-.35-2.013-1.155-2.013-.645 0-1.21.375-1.61 1.047v13.126h-3.704V26.796h2.923l.322 2.094h.053c.832-1.584 2.175-2.443 3.758-2.443 1.557 0 2.443.778 2.846 2.175.86-1.423 2.147-2.175 3.623-2.175 2.263.001 3.116 1.612 3.116 4.37z"/></g></g></svg>