<svg width="128" height="64" xmlns="http://www.w3.org/2000/svg"><g xmlns="http://www.w3.org/2000/svg"><path fill="#cd201f" d="M126.683 16.95s-.738-5.188-3.006-7.473c-2.875-2.997-6.1-3.013-7.577-3.189-10.582-.76-26.454-.76-26.454-.76h-.033s-15.874 0-26.455.76c-1.479.176-4.7.192-7.578 3.19-2.267 2.284-3.004 7.471-3.004 7.471s-.757 6.091-.757 12.183v5.711c0 6.092.757 12.184.757 12.184s.738 5.187 3.004 7.472c2.877 2.999 6.656 2.903 8.339 3.217 6.05.578 25.709.757 25.709.757s15.89-.024 26.472-.785c1.477-.176 4.7-.19 7.576-3.189 2.268-2.285 3.006-7.472 3.006-7.472s.756-6.092.756-12.184v-5.71c0-6.093-.756-12.184-.756-12.184"/><path d="M47.917 48.374h-4.81v-2.786c-1.825 2.091-3.371 3.147-5.057 3.147-1.479 0-2.506-.697-3.02-1.958-.312-.767-.534-1.963-.534-3.721V22.797h4.81v20.766c.113.71.416.97 1.027.97.92 0 1.754-.8 2.773-2.237V22.797h4.811v25.577zm-21.778-7.598c.253 2.533-.533 3.789-2.027 3.789s-2.278-1.256-2.025-3.789v-10.13c-.253-2.532.531-3.719 2.025-3.719 1.495 0 2.282 1.187 2.03 3.72l-.003 10.13zm4.811-9.623c0-2.733-.549-4.786-1.52-6.077-1.281-1.75-3.291-2.467-5.318-2.467-2.292 0-4.038.717-5.318 2.467-.986 1.291-1.514 3.366-1.514 6.1l-.005 9.094c0 2.717.47 4.595 1.456 5.875 1.28 1.744 3.356 2.668 5.381 2.668 2.027 0 4.138-.924 5.42-2.668.97-1.28 1.418-3.158 1.418-5.875v-9.117zm-18.992 3.292v13.929H6.893V34.445S1.644 17.37.562 14.187H5.88l3.554 13.34 3.536-13.34h5.318l-6.33 20.258z"/><g fill="#fff"><path d="M111.985 29.878c0-2.368.65-3.013 2.18-3.013 1.52 0 2.125.704 2.125 3.044v2.764l-4.305.005v-2.8zm9.125 6.594v-5.177c0-2.704-.533-4.683-1.493-5.963-1.283-1.731-3.109-2.648-5.409-2.648-2.341 0-4.166.917-5.492 2.648-.974 1.28-1.542 3.37-1.542 6.076v8.862c0 2.69.625 4.571 1.598 5.838 1.326 1.728 3.152 2.592 5.55 2.592 2.395 0 4.276-.905 5.544-2.743a6.519 6.519 0 0 0 1.073-2.746c.041-.46.162-1.506.162-2.983v-.717h-4.811c0 1.839.01 2.932-.034 3.182-.262 1.226-.92 1.84-2.048 1.84-1.574 0-2.24-1.177-2.223-3.513v-4.548h9.125zM99.323 41.03c0 2.533-.597 3.504-1.92 3.504-.754 0-1.623-.389-2.39-1.156l.005-15.358c.766-.756 1.631-1.154 2.386-1.154 1.322 0 1.92.743 1.92 3.276V41.03zm.534-18.385c-1.687 0-3.363 1.037-4.844 2.86l.005-11.065H90.46v33.935h4.558l.007-2.55c1.531 1.895 3.202 2.875 4.832 2.875 1.825 0 3.159-.977 3.771-2.859.306-1.072.506-2.723.506-5.064V30.648c0-2.397-.307-4.036-.613-5.054-.612-1.894-1.839-2.95-3.664-2.95m-13.195 25.73h-4.81v-2.786c-1.826 2.091-3.371 3.147-5.057 3.147-1.478 0-2.506-.697-3.02-1.958-.312-.767-.534-1.963-.534-3.721V23.051h4.811v20.512c.113.71.415.97 1.026.97.921 0 1.754-.8 2.774-2.237V23.05h4.81v25.323z"/><path d="M68.428 48.374h-5.064V19.25h-5.317v-4.805L74 14.44v4.811h-5.572v29.123z"/></g></g></svg>