<svg xmlns="http://www.w3.org/2000/svg" width="128" height="64"><g class="style-scope ytd-topbar-logo-renderer"><g class="style-scope ytd-topbar-logo-renderer"><path class="style-scope ytd-topbar-logo-renderer" d="M30.057 24.611a3.85 3.85 0 0 0-2.715-2.715c-2.393-.64-11.99-.64-11.99-.64s-9.6 0-11.994.64A3.85 3.85 0 0 0 .643 24.61C.003 27.004.003 32 .003 32s0 4.996.64 7.389a3.85 3.85 0 0 0 2.715 2.715c2.393.64 11.994.64 11.994.64s9.602 0 11.994-.64a3.85 3.85 0 0 0 2.716-2.715c.64-2.393.64-7.389.64-7.389s0-4.996-.645-7.389z" fill="red"/><path class="style-scope ytd-topbar-logo-renderer" fill="#fff" d="M12.28 27.395v9.21L20.257 32z"/></g><path d="M106.338 41.196l-1.978-7.965c-.264.02-.547.044-.855.044h-.327V41.2h-2.94V22.78h3.844c3.755 0 4.917 1.714 4.917 5.025v.46c0 1.977-.747 3.379-2.104 4.19l.571 1.645 2.06 7.09h-3.188zm-2.657-9.919c1.67 0 2.261-1.01 2.261-2.964v-.44c0-2.148-.527-2.852-2.217-2.852h-.547v6.256zM113.229 35.492v.679c0 2.368.131 3.184 1.142 3.184.967 0 1.187-.748 1.207-2.281l2.612.151c.196 2.896-1.318 4.19-3.887 4.19-3.116 0-4.039-2.04-4.039-5.752v-2.344c0-3.907 1.03-5.817 4.127-5.817 3.116 0 3.907 1.626 3.907 5.685v2.305zm0-2.77v.968h2.217v-.967c0-2.481-.176-3.184-1.119-3.184-.942 0-1.098.727-1.098 3.184zM125.081 22.101v6.788c-.513-.879-1.485-1.392-2.569-1.392-2.041 0-2.984 1.822-2.984 5.841v2.13c0 4.434.723 5.947 2.852 5.947 1.295 0 2.437-.898 2.852-2.129h.044l.372 1.91h2.349V22.1zm0 15.872c-.22.79-.767 1.294-1.338 1.23-.899 0-1.162-.879-1.162-3.95v-1.74c0-2.92.327-3.842 1.294-3.842.483 0 .942.22 1.206.703zM44.561 40.805c-.606-.41-1.04-1.045-1.294-1.91-.254-.864-.386-2.011-.386-3.447v-1.954c0-1.45.147-2.612.44-3.491.293-.88.752-1.52 1.372-1.92.62-.4 1.436-.605 2.447-.605.996 0 1.792.205 2.392.615.601.41 1.04 1.05 1.319 1.92.278.869.415 2.031.415 3.476v1.954c0 1.436-.137 2.588-.405 3.457-.269.87-.708 1.51-1.319 1.91-.605.4-1.43.605-2.47.605-1.065.005-1.905-.2-2.511-.61zM47.96 38.7c.166-.44.254-1.157.254-2.149v-4.195c0-.966-.083-1.67-.254-2.119-.166-.444-.464-.669-.889-.669-.41 0-.698.225-.87.669-.165.444-.253 1.153-.253 2.12v4.194c0 .997.078 1.715.24 2.15.16.439.453.659.878.659.43-.005.728-.225.894-.66zM91.184 35.482v.679c0 .864.025 1.509.078 1.943.05.43.157.748.318.943.161.195.41.298.747.298.454 0 .767-.176.933-.528.166-.351.259-.937.273-1.758l2.613.152c.015.117.02.278.02.483 0 1.246-.342 2.173-1.021 2.789-.679.615-1.641.923-2.886.923-1.495 0-2.54-.47-3.14-1.407-.601-.937-.899-2.383-.899-4.346v-2.35c0-2.02.313-3.49.933-4.424.62-.927 1.685-1.391 3.194-1.391 1.04 0 1.836.19 2.393.571.556.38.947.972 1.176 1.778.225.805.342 1.919.342 3.335v2.305zm.386-5.665c-.151.19-.254.503-.308.933-.053.43-.078 1.089-.078 1.963v.967h2.217v-.967c0-.864-.029-1.519-.087-1.963-.06-.445-.167-.762-.318-.943-.151-.18-.39-.273-.713-.273-.322 0-.562.093-.713.283zM37.182 35.228L33.734 22.78h3.008l1.207 5.64c.307 1.392.532 2.574.679 3.556h.087c.103-.704.328-1.88.68-3.536l1.25-5.665h3.008L40.16 35.223v5.973h-2.984v-5.968zM61.048 27.742v13.454h-2.369l-.263-1.646h-.064c-.644 1.245-1.611 1.865-2.896 1.865-.893 0-1.553-.293-1.978-.879-.424-.586-.634-1.499-.634-2.744v-10.05h3.027v9.879c0 .6.064 1.03.196 1.284s.351.386.659.386c.264 0 .518-.078.757-.24.24-.16.42-.365.537-.614V27.742zM76.587 27.742v13.454H74.22l-.264-1.646h-.063c-.645 1.245-1.612 1.865-2.896 1.865-.894 0-1.553-.293-1.978-.879-.425-.586-.635-1.499-.635-2.744v-10.05h3.028v9.879c0 .6.063 1.03.195 1.284s.352.386.66.386c.263 0 .517-.078.756-.24.24-.16.42-.365.538-.614V27.742z" class="style-scope ytd-topbar-logo-renderer" fill="#282828" stroke-width="1.091"/><path d="M69.277 25.222h-3.009V41.2h-2.964V25.22h-3.008v-2.436h8.976v2.437zM86.613 29.895c-.185-.85-.478-1.465-.889-1.846-.41-.38-.971-.571-1.69-.571a2.78 2.78 0 0 0-1.557.474 3.183 3.183 0 0 0-1.118 1.24h-.025v-7.091h-2.92v19.1h2.5l.308-1.275h.063c.235.454.586.81 1.055 1.074s.987.396 1.558.396c1.026 0 1.778-.474 2.261-1.416.484-.943.723-2.418.723-4.425v-2.129c.005-1.504-.088-2.681-.269-3.53zm-2.778 5.49c0 .98-.04 1.748-.123 2.304-.078.557-.214.953-.405 1.187a.935.935 0 0 1-.767.352 1.345 1.345 0 0 1-1.211-.703v-7.643c.103-.367.279-.664.528-.899.249-.234.517-.352.81-.352a.82.82 0 0 1 .713.362c.166.24.284.65.352 1.216.063.571.098 1.382.098 2.437z" class="style-scope ytd-topbar-logo-renderer" fill="#282828" stroke-width="1.091"/></g></svg>